<svg width="19" height="19" viewBox="0 0 19 19" fill="none" xmlns="http://www.w3.org/2000/svg">
<path fill-rule="evenodd" clip-rule="evenodd" d="M10.5582 15.7871C10.1351 15.8764 9.70394 15.9213 9.27158 15.921C5.85645 15.921 3.08408 13.1486 3.08408 9.73352C3.08408 9.2164 2.66408 8.79602 2.14658 8.79602C1.62908 8.79602 1.20908 9.2164 1.20908 9.73352C1.20908 14.1836 4.82183 17.796 9.27158 17.796C9.8457 17.796 10.406 17.736 10.9463 17.6216C11.1841 17.5648 11.3903 17.4173 11.521 17.2107C11.6516 17.004 11.6964 16.7545 11.6458 16.5153C11.5952 16.2761 11.4532 16.0662 11.25 15.9301C11.0469 15.7941 10.7986 15.7428 10.5582 15.7871ZM10.1435 3.60715C13.1465 4.0309 15.4591 6.61465 15.4591 9.73352C15.4591 11.94 14.3015 13.8784 12.5611 14.9741C12.3529 15.1076 12.2059 15.318 12.1522 15.5593C12.0984 15.8007 12.1421 16.0535 12.2739 16.2628C12.4056 16.4721 12.6147 16.6208 12.8556 16.6766C13.0965 16.7324 13.3497 16.6908 13.5601 16.5608C15.827 15.1331 17.3341 12.6079 17.3341 9.73352C17.3341 5.6689 14.3191 2.3029 10.4056 1.75052C9.89333 1.67815 9.41858 2.03552 9.3462 2.54777C9.27383 3.06002 9.6312 3.53477 10.1435 3.60715ZM3.5292 7.42577C3.85937 6.60857 4.35962 5.87096 4.99673 5.26191C5.63383 4.65287 6.39321 4.18633 7.22445 3.89327C7.45907 3.81092 7.65136 3.63875 7.75903 3.41462C7.8667 3.19049 7.88093 2.93277 7.79858 2.69815C7.71623 2.46353 7.54405 2.27124 7.31992 2.16357C7.09579 2.0559 6.83807 2.04167 6.60345 2.12402C5.5207 2.50575 4.53153 3.11344 3.70163 3.90674C2.87173 4.70005 2.22008 5.66082 1.78995 6.72527C1.69706 6.95591 1.69959 7.21401 1.79699 7.44278C1.8944 7.67155 2.07869 7.85226 2.30933 7.94515C2.53996 8.03804 2.79806 8.03551 3.02683 7.93811C3.2556 7.8407 3.43631 7.65641 3.5292 7.42577Z" fill="#131A22" fill-opacity="0.6"/>
</svg>
