<svg width="19" height="19" viewBox="0 0 19 19" fill="none" xmlns="http://www.w3.org/2000/svg">
<g clip-path="url(#clip0_253_653)">
<path fill-rule="evenodd" clip-rule="evenodd" d="M2.57238 0.29984C1.30454 0.29984 0.271759 1.33255 0.271759 2.60043V15.9991C0.271759 17.267 1.30454 18.2998 2.57238 18.2998H15.9711C17.239 18.2998 18.2718 17.267 18.2718 15.9991V2.60039C18.2718 1.33255 17.239 0.299805 15.9711 0.299805L2.57238 0.29984ZM3.52958 3.17095C4.26716 3.17095 4.87336 3.77718 4.87336 4.51472C4.87336 5.25227 4.26716 5.8585 3.52958 5.8585C2.79204 5.8585 2.18584 5.25227 2.18584 4.51472C2.18584 3.77718 2.79204 3.17095 3.52958 3.17095ZM7.35775 3.17095H15.0141C15.7519 3.17095 16.3579 3.77693 16.3579 4.51465V4.51472C16.3579 5.25244 15.7519 5.8585 15.0142 5.8585H7.35768C6.61996 5.8585 6.01401 5.25244 6.01401 4.51472V4.51465C6.01401 3.77693 6.61996 3.17098 7.35768 3.17098L7.35775 3.17095ZM3.52955 7.95599C4.26713 7.95599 4.87333 8.56219 4.87333 9.29973C4.87333 10.0373 4.26713 10.6435 3.52955 10.6435C2.79201 10.6435 2.18581 10.0373 2.18581 9.29973C2.18581 8.56219 2.79201 7.95599 3.52955 7.95599ZM7.35771 7.95599H15.0141C15.7518 7.95599 16.3578 8.56194 16.3578 9.29966V9.2998C16.3578 10.0375 15.7518 10.6435 15.0141 10.6435H7.35768C6.61996 10.6435 6.01401 10.0375 6.01401 9.29984V9.29966C6.01401 8.56194 6.61996 7.95599 7.35768 7.95599H7.35771ZM3.52955 12.7414C4.26713 12.7414 4.87333 13.3476 4.87333 14.0851C4.87333 14.8227 4.26713 15.4289 3.52955 15.4289C2.79201 15.4289 2.18581 14.8227 2.18581 14.0851C2.18581 13.3476 2.79201 12.7414 3.52955 12.7414ZM7.35771 12.7414H15.0141C15.7518 12.7414 16.3578 13.3473 16.3578 14.085V14.0851C16.3578 14.8229 15.7518 15.4289 15.0141 15.4289H7.35768C6.61996 15.4289 6.01401 14.8229 6.01401 14.0851V14.0851C6.01401 13.3473 6.61996 12.7414 7.35768 12.7414H7.35771Z" fill="#131A22" fill-opacity="0.6"/>
</g>
<defs>
<clipPath id="clip0_253_653">
<rect width="18" height="18" fill="white" transform="translate(0.271576 0.299805)"/>
</clipPath>
</defs>
</svg>
