<svg width="18" height="17" viewBox="0 0 18 17" fill="none" xmlns="http://www.w3.org/2000/svg">
<path fill-rule="evenodd" clip-rule="evenodd" d="M7.3796 13.5001L9.0877 15.2082C9.29309 15.4136 9.29309 15.7486 9.0877 15.9539L8.383 16.6587C8.17761 16.864 7.84261 16.864 7.63723 16.6587L5.52827 14.5497L7.15042 13.6131C7.22655 13.5749 7.30295 13.5372 7.3796 13.5001ZM17.6287 7.02756C17.8499 7.09949 17.9709 7.33719 17.899 7.55842C17.8271 7.77966 17.5894 7.90071 17.3682 7.82878L15.834 7.33033C15.6128 7.2584 15.4918 7.02071 15.5637 6.79947C15.6356 6.57823 15.8733 6.45719 16.0946 6.52915L17.6287 7.02756ZM15.8913 4.77096C15.6895 4.88746 15.4315 4.81831 15.315 4.61651C15.1985 4.41475 15.2676 4.15671 15.4694 4.04023L16.8551 3.24018C17.0569 3.12367 17.3149 3.19283 17.4314 3.39459C17.5479 3.59639 17.4787 3.8544 17.277 3.9709L15.8913 4.77096ZM13.5597 1.23227C13.608 1.0047 13.8317 0.859401 14.0593 0.907705C14.2868 0.95601 14.4321 1.17967 14.3838 1.40728L14.0484 2.98509C14.0001 3.21265 13.7764 3.35796 13.5489 3.30965C13.3213 3.26135 13.176 3.03768 13.2243 2.81012L13.5597 1.23227ZM9.15 1.71605C8.747 1.94872 8.60761 2.46889 8.84031 2.87188L13.4649 10.8819C13.6976 11.2849 14.2177 11.4242 14.6207 11.1916C15.0237 10.9589 15.1631 10.4387 14.9304 10.0357L13.3571 7.31078L13.5628 7.19206C14.2795 6.77824 14.5274 5.85328 14.1136 5.13651C13.6997 4.41978 12.7747 4.17193 12.058 4.58572L11.8524 4.70444L10.3058 2.02571C10.0732 1.62278 9.55303 1.48339 9.15 1.71605ZM1.29546 12.5371L1.664 13.1754C2.29059 14.2607 3.69118 14.636 4.77649 14.0094L6.38595 13.0802L3.37035 7.85704L1.7609 8.78626C0.675622 9.41285 0.300329 10.8134 0.926919 11.8987L1.29546 12.5371ZM4.08363 7.41228C5.82963 6.2131 7.17376 4.8792 8.21646 3.47889L12.6006 11.0724C10.8665 11.2752 9.03922 11.7724 7.12771 12.6848L4.08363 7.41228Z" fill="#131A22" fill-opacity="0.6"/>
</svg>
