<svg width="26" height="26" viewBox="0 0 26 26" fill="none" xmlns="http://www.w3.org/2000/svg">
<g clip-path="url(#clip0_202_1482)">
<path d="M0.761658 24.2214H2.28497C2.70561 24.2214 3.04663 23.8804 3.04663 23.4597V15.0815H0.761658C0.34102 15.0815 0 15.4225 0 15.8432V23.4597C0 23.8803 0.34102 24.2214 0.761658 24.2214ZM13.7505 24.6276H13.9181C16.4772 24.5971 18.9297 23.8711 21.0929 22.5609L25.3429 19.5905C26.0589 19.0878 26.196 18.1434 25.7238 17.4731C25.2363 16.7723 24.2919 16.6048 23.6064 17.0923L19.5239 19.9561C18.2138 20.7178 16.6144 20.8853 15.1672 20.3978L10.4703 18.844C10.0742 18.7222 9.86093 18.2804 9.99808 17.8844C10.1199 17.5036 10.516 17.2903 10.912 17.3969C10.9272 17.3969 16.1878 19.103 16.1878 19.103C17.0736 19.3686 17.8607 18.8673 18.1071 18.1281C18.3661 17.3207 17.9243 16.4677 17.1322 16.2087L9.96756 13.8628C8.40048 13.2924 6.2887 13.4102 4.56995 14.3713V22.8979L10.5464 24.2519C11.6412 24.4927 12.7155 24.6276 13.7505 24.6276Z" fill="black"/>
<rect x="12" y="2" width="12" height="12" rx="6" fill="black"/>
<path d="M16.3129 8.68791H15.6691V10.433H14.4796V5.5H16.4207C17.0057 5.5 17.4632 5.62909 17.7916 5.88889C18.1217 6.14869 18.2867 6.51471 18.2867 6.98856C18.2867 7.3317 18.2181 7.61601 18.0776 7.8415C17.9371 8.06699 17.7214 8.25 17.4256 8.39052L18.455 10.3824V10.433H17.1822L16.3129 8.68791ZM15.6691 7.77288H16.4207C16.6462 7.77288 16.8162 7.71405 16.9305 7.59477C17.0449 7.47549 17.1021 7.31046 17.1021 7.09804C17.1021 6.88562 17.0449 6.71895 16.9289 6.59804C16.8129 6.47712 16.6446 6.41667 16.4207 6.41667H15.6691V7.77288ZM20.4109 9.40196C20.4109 9.30556 20.3603 9.22712 20.259 9.1683C20.1577 9.10948 19.9648 9.04902 19.6789 8.98529C19.3946 8.92157 19.1593 8.83987 18.9747 8.73693C18.79 8.63399 18.6479 8.5098 18.5514 8.36275C18.455 8.21569 18.406 8.04739 18.406 7.85784C18.406 7.52124 18.5449 7.24346 18.8227 7.02614C19.1005 6.80882 19.4632 6.69935 19.9142 6.69935C20.3979 6.69935 20.7851 6.80882 21.0792 7.02778C21.3733 7.24673 21.5204 7.53431 21.5204 7.89216H20.375C20.375 7.59804 20.2197 7.45261 19.9109 7.45261C19.7916 7.45261 19.6903 7.48529 19.6086 7.55229C19.5269 7.61928 19.4861 7.70261 19.4861 7.80065C19.4861 7.89869 19.5351 7.98529 19.6348 8.04739C19.7345 8.11111 19.893 8.1634 20.1103 8.20261C20.3276 8.24346 20.5188 8.29248 20.6838 8.34804C21.2345 8.53758 21.5106 8.87745 21.5106 9.36765C21.5106 9.70261 21.3619 9.97386 21.0645 10.1846C20.7688 10.3954 20.3848 10.5 19.9126 10.5C19.5988 10.5 19.3178 10.4428 19.0727 10.3301C18.826 10.2173 18.6348 10.0637 18.4975 9.86928C18.3603 9.67484 18.2916 9.47059 18.2916 9.25654H19.3586C19.3635 9.42647 19.4191 9.54902 19.5286 9.62745C19.6364 9.70588 19.7753 9.74346 19.9452 9.74346C20.1005 9.74346 20.2181 9.71242 20.2965 9.64869C20.375 9.58497 20.4109 9.5049 20.4109 9.40196Z" fill="#FFCE58"/>
</g>
<defs>
<clipPath id="clip0_202_1482">
<rect width="26" height="26" fill="white"/>
</clipPath>
</defs>
</svg>
