<svg width="19" height="19" viewBox="0 0 19 19" fill="none" xmlns="http://www.w3.org/2000/svg">
<path fill-rule="evenodd" clip-rule="evenodd" d="M2.09681 7.62348L5.62548 4.51952C5.57532 4.38162 5.54974 4.2359 5.54991 4.08907C5.54991 3.39754 6.10769 2.83699 6.7957 2.83699C7.47059 2.83699 8.02007 3.37632 8.04088 4.04954L10.8298 5.0309C11.0583 4.7613 11.3985 4.5903 11.7785 4.5903C11.9853 4.58998 12.1888 4.64164 12.3707 4.74057L15.5859 1.97963C15.5391 1.84597 15.5153 1.70529 15.5154 1.56361C15.5154 0.872118 16.0732 0.311523 16.7612 0.311523C17.4493 0.311523 18.007 0.872118 18.007 1.56361C18.007 2.25517 17.4493 2.81577 16.7612 2.81577C16.5544 2.81609 16.3508 2.76443 16.169 2.6655L12.9538 5.42645C13.0006 5.5601 13.0244 5.70078 13.0243 5.84246C13.0243 6.53395 12.4665 7.09455 11.7784 7.09455C11.1036 7.09455 10.5541 6.55521 10.5333 5.88204L7.74437 4.90068C7.51585 5.17027 7.17569 5.34127 6.7957 5.34127C6.59382 5.34155 6.39493 5.2923 6.21629 5.19778L2.68762 8.30175C2.73778 8.43965 2.76336 8.58537 2.76318 8.7322C2.76318 9.42376 2.20541 9.98428 1.51732 9.98428C0.82935 9.98421 0.271576 9.42369 0.271576 8.73212C0.271576 8.04056 0.82935 7.48004 1.51736 7.48004C1.71925 7.47974 1.91816 7.52898 2.09681 7.62348ZM15.8135 5.28847C15.5037 5.28847 15.251 5.54242 15.251 5.85381V17.3916C15.251 17.703 15.5037 17.957 15.8135 17.957H17.709C18.0189 17.957 18.2716 17.703 18.2716 17.3916V5.85381C18.2716 5.54242 18.0189 5.28847 17.709 5.28847H15.8135ZM10.8307 9.89903C10.5209 9.89903 10.2682 10.153 10.2682 10.4644V17.5098C10.2682 17.8213 10.5209 18.0752 10.8307 18.0752H12.7263C13.0361 18.0752 13.2888 17.8212 13.2888 17.5098V10.4644C13.2888 10.153 13.0361 9.89903 12.7263 9.89903H10.8307ZM5.84796 8.24382C5.5381 8.24382 5.28543 8.49777 5.28543 8.80916V17.628C5.28543 17.9394 5.53806 18.1934 5.84796 18.1934H7.74351C8.0533 18.1934 8.30601 17.9394 8.30601 17.628V8.80916C8.30601 8.49777 8.0533 8.24382 7.74351 8.24382H5.84796ZM0.8652 13.1102H2.76071C3.07053 13.1102 3.32324 13.3641 3.32324 13.6755V17.7462C3.32324 18.0576 3.07053 18.3115 2.76071 18.3115H0.8652C0.555375 18.3115 0.302663 18.0576 0.302663 17.7462V13.6755C0.302701 13.3641 0.555413 13.1102 0.8652 13.1102Z" fill="#131A22" fill-opacity="0.6"/>
</svg>
