<svg width="25" height="25" viewBox="0 0 25 25" fill="none" xmlns="http://www.w3.org/2000/svg">
<path d="M12.2497 0.109375C19.1773 0.109375 24.4218 5.78927 24.4218 12.2876C24.4218 19.8241 18.2748 24.5024 12.2253 24.5024C10.2251 24.5024 8.00532 23.9649 6.22463 22.9144C5.60261 22.5358 5.07816 22.2548 4.40735 22.4747L1.94366 23.2076C1.32164 23.403 0.760599 22.9144 0.943546 22.2548L1.76071 19.5187C1.89487 19.1401 1.87048 18.737 1.67534 18.4194C0.626437 16.4895 0.0288086 14.3763 0.0288086 12.3242C0.0288086 5.8992 5.16354 0.109375 12.2497 0.109375ZM17.8235 10.7729C16.9576 10.7729 16.2624 11.4692 16.2624 12.3364C16.2624 13.1915 16.9576 13.8999 17.8235 13.8999C18.6895 13.8999 19.3847 13.1915 19.3847 12.3364C19.3847 11.4692 18.6895 10.7729 17.8235 10.7729ZM12.2009 10.7729C11.3472 10.7607 10.6398 11.4692 10.6398 12.3242C10.6398 13.1914 11.335 13.8877 12.2009 13.8999C13.0669 13.8999 13.7621 13.1915 13.7621 12.3364C13.7621 11.4692 13.0669 10.7729 12.2009 10.7729ZM6.57833 10.7729C5.71238 10.7729 5.01718 11.4692 5.01718 12.3364C5.01718 13.1915 5.72457 13.8999 6.57833 13.8999C7.44428 13.8877 8.13948 13.1915 8.13948 12.3364C8.13948 11.4692 7.44428 10.7729 6.57833 10.7729Z" fill="#5D7285"/>
</svg>
