<svg width="19" height="19" viewBox="0 0 19 19" fill="none" xmlns="http://www.w3.org/2000/svg">
<path d="M3.51094 4.27532C3.51094 3.54505 3.7275 2.83118 4.13326 2.22398C4.53901 1.61678 5.11572 1.14353 5.79046 0.86407C6.4652 0.584608 7.20766 0.511488 7.92396 0.653956C8.64026 0.796425 9.29823 1.14808 9.81465 1.66446C10.3311 2.18084 10.6828 2.83875 10.8252 3.55498C10.9677 4.27122 10.8946 5.01362 10.6151 5.6883C10.3356 6.36298 9.86233 6.93964 9.25508 7.34536C8.64783 7.75107 7.9339 7.96762 7.20357 7.96762C6.22422 7.96762 5.28498 7.57861 4.59248 6.88617C3.89998 6.19373 3.51094 5.25458 3.51094 4.27532ZM12.7868 11.3645C12.7748 11.2793 12.7333 11.2009 12.6696 11.143C12.1851 10.6893 11.6141 10.3377 10.9908 10.1094C10.3675 9.88099 9.70457 9.78047 9.04157 9.81378H5.34894C1.60092 9.81378 0.271576 12.5553 0.271576 14.9092C0.271576 17.0138 1.3886 18.1215 3.50263 18.1215H8.30305C8.33945 18.1225 8.37565 18.1156 8.40913 18.1013C8.4426 18.0869 8.47256 18.0655 8.49691 18.0384C8.54827 17.9848 8.57788 17.9141 8.57999 17.8399V16.2753C8.58032 15.9082 8.72642 15.5563 8.98618 15.2969L12.7065 11.5584C12.7569 11.5063 12.7857 11.437 12.7868 11.3645ZM9.96473 16.2753V18.583H12.2726L16.4628 14.4116L14.1374 12.0864L9.96473 16.2753ZM18.0036 11.5778L16.9697 10.5439C16.7967 10.372 16.5627 10.2755 16.3188 10.2755C16.0749 10.2755 15.841 10.372 15.668 10.5439L14.7827 11.4393L17.1081 13.7645L18.0036 12.8793C18.1752 12.7064 18.2716 12.4726 18.2716 12.229C18.2716 11.9854 18.1752 11.7507 18.0036 11.5778Z" fill="#131A22" fill-opacity="0.6"/>
</svg>
