<svg width="28" height="28" viewBox="0 0 28 28" fill="none" xmlns="http://www.w3.org/2000/svg">
<rect x="1.00867" y="1" width="25.9913" height="26" rx="12.9957" fill="white"/>
<rect x="1.00867" y="1" width="25.9913" height="26" rx="12.9957" stroke="#131A22" stroke-opacity="0.05" stroke-width="0.346551"/>
<path d="M11.4543 7.77947C11.2289 7.77947 11.0127 7.8731 10.8533 8.03975C10.6939 8.2064 10.6043 8.43243 10.6043 8.66812C10.6043 8.9038 10.6939 9.12983 10.8533 9.29649C11.0127 9.46314 11.2289 9.55677 11.4543 9.55677C11.6798 9.55677 11.896 9.46314 12.0554 9.29649C12.2148 9.12983 12.3043 8.9038 12.3043 8.66812C12.3043 8.43243 12.2148 8.2064 12.0554 8.03975C11.896 7.8731 11.6798 7.77947 11.4543 7.77947ZM9.04885 7.77947C9.22446 7.25914 9.55012 6.80857 9.98096 6.48986C10.4118 6.17115 10.9266 6 11.4543 6C11.9821 6 12.4969 6.17115 12.9277 6.48986C13.3586 6.80857 13.6842 7.25914 13.8598 7.77947H19.9543C20.1798 7.77947 20.396 7.8731 20.5554 8.03975C20.7148 8.2064 20.8043 8.43243 20.8043 8.66812C20.8043 8.9038 20.7148 9.12983 20.5554 9.29649C20.396 9.46314 20.1798 9.55677 19.9543 9.55677H13.8598C13.6842 10.0771 13.3586 10.5277 12.9277 10.8464C12.4969 11.1651 11.9821 11.3362 11.4543 11.3362C10.9266 11.3362 10.4118 11.1651 9.98096 10.8464C9.55012 10.5277 9.22446 10.0771 9.04885 9.55677H8.05435C7.82891 9.55677 7.61271 9.46314 7.45331 9.29649C7.2939 9.12983 7.20435 8.9038 7.20435 8.66812C7.20435 8.43243 7.2939 8.2064 7.45331 8.03975C7.61271 7.8731 7.82891 7.77947 8.05435 7.77947H9.04885ZM16.5543 13.1114C16.3289 13.1114 16.1127 13.205 15.9533 13.3716C15.7939 13.5383 15.7043 13.7643 15.7043 14C15.7043 14.2357 15.7939 14.4617 15.9533 14.6284C16.1127 14.795 16.3289 14.8886 16.5543 14.8886C16.7798 14.8886 16.996 14.795 17.1554 14.6284C17.3148 14.4617 17.4043 14.2357 17.4043 14C17.4043 13.7643 17.3148 13.5383 17.1554 13.3716C16.996 13.205 16.7798 13.1114 16.5543 13.1114ZM14.1488 13.1114C14.3245 12.591 14.6501 12.1404 15.081 11.8217C15.5118 11.503 16.0266 11.3319 16.5543 11.3319C17.0821 11.3319 17.5969 11.503 18.0277 11.8217C18.4586 12.1404 18.7842 12.591 18.9598 13.1114H19.9543C20.1798 13.1114 20.396 13.205 20.5554 13.3716C20.7148 13.5383 20.8043 13.7643 20.8043 14C20.8043 14.2357 20.7148 14.4617 20.5554 14.6284C20.396 14.795 20.1798 14.8886 19.9543 14.8886H18.9598C18.7842 15.409 18.4586 15.8596 18.0277 16.1783C17.5969 16.497 17.0821 16.6681 16.5543 16.6681C16.0266 16.6681 15.5118 16.497 15.081 16.1783C14.6501 15.8596 14.3245 15.409 14.1488 14.8886H8.05435C7.82891 14.8886 7.61271 14.795 7.45331 14.6284C7.2939 14.4617 7.20435 14.2357 7.20435 14C7.20435 13.7643 7.2939 13.5383 7.45331 13.3716C7.61271 13.205 7.82891 13.1114 8.05435 13.1114H14.1488ZM11.4543 18.4432C11.2289 18.4432 11.0127 18.5369 10.8533 18.7035C10.6939 18.8702 10.6043 19.0962 10.6043 19.3319C10.6043 19.5676 10.6939 19.7936 10.8533 19.9603C11.0127 20.1269 11.2289 20.2205 11.4543 20.2205C11.6798 20.2205 11.896 20.1269 12.0554 19.9603C12.2148 19.7936 12.3043 19.5676 12.3043 19.3319C12.3043 19.0962 12.2148 18.8702 12.0554 18.7035C11.896 18.5369 11.6798 18.4432 11.4543 18.4432ZM9.04885 18.4432C9.22446 17.9229 9.55012 17.4723 9.98096 17.1536C10.4118 16.8349 10.9266 16.6638 11.4543 16.6638C11.9821 16.6638 12.4969 16.8349 12.9277 17.1536C13.3586 17.4723 13.6842 17.9229 13.8598 18.4432H19.9543C20.1798 18.4432 20.396 18.5369 20.5554 18.7035C20.7148 18.8702 20.8043 19.0962 20.8043 19.3319C20.8043 19.5676 20.7148 19.7936 20.5554 19.9603C20.396 20.1269 20.1798 20.2205 19.9543 20.2205H13.8598C13.6842 20.7409 13.3586 21.1914 12.9277 21.5101C12.4969 21.8288 11.9821 22 11.4543 22C10.9266 22 10.4118 21.8288 9.98096 21.5101C9.55012 21.1914 9.22446 20.7409 9.04885 20.2205H8.05435C7.82891 20.2205 7.61271 20.1269 7.45331 19.9603C7.2939 19.7936 7.20435 19.5676 7.20435 19.3319C7.20435 19.0962 7.2939 18.8702 7.45331 18.7035C7.61271 18.5369 7.82891 18.4432 8.05435 18.4432H9.04885Z" fill="#131A22"/>
</svg>
