<svg width="27" height="27" viewBox="0 0 27 27" fill="none" xmlns="http://www.w3.org/2000/svg">
<path d="M1.46572 7.4385C2.61185 5.20188 4.37011 3.32169 6.54396 2.00808C8.71782 0.694476 11.2216 -0.000787817 13.7755 6.69912e-07C17.488 6.69912e-07 20.6068 1.3365 22.9913 3.51675L19.0419 7.38855C17.6134 6.0507 15.7978 5.36895 13.7755 5.36895C10.187 5.36895 7.14949 7.74495 6.06811 10.935C5.7926 11.745 5.63556 12.609 5.63556 13.5C5.63556 14.391 5.7926 15.255 6.06811 16.065C7.15087 19.2564 10.187 21.6311 13.7755 21.6311C15.6283 21.6311 17.2056 21.1518 18.4399 20.3418C19.1554 19.8801 19.768 19.281 20.2406 18.5807C20.7132 17.8804 21.036 17.0935 21.1895 16.2675H13.7755V11.0457H26.7493C26.9118 11.9286 27 12.8493 27 13.8065C27 17.9186 25.4985 21.3799 22.8921 23.7289C20.6137 25.7917 17.4949 27 13.7755 27C11.9663 27.0007 10.1746 26.652 8.50299 25.9738C6.83135 25.2956 5.31246 24.3013 4.03314 23.0475C2.75382 21.7938 1.73915 20.3053 1.04712 18.6671C0.355097 17.0289 -0.000723023 15.273 1.10302e-06 13.5C1.10302e-06 11.3211 0.531736 9.261 1.46572 7.4385Z" fill="white"/>
</svg>
