<svg width="19" height="19" viewBox="0 0 19 19" fill="none" xmlns="http://www.w3.org/2000/svg">
<g clip-path="url(#clip0_253_643)">
<path d="M7.55333 0.951124C6.14884 1.24976 4.84657 1.9097 3.77522 2.86573C2.70387 3.82176 1.90052 5.04079 1.44454 6.40236C0.988561 7.76393 0.895745 9.22091 1.17526 10.6293C1.45478 12.0378 2.09695 13.3489 3.03833 14.4331C3.15063 14.5678 3.21713 14.7348 3.22818 14.9098C3.23924 15.0849 3.19428 15.2589 3.09983 15.4066L2.72033 16.0179C2.64282 16.1428 2.60009 16.2861 2.59657 16.4331C2.59304 16.58 2.62884 16.7253 2.70027 16.8537C2.7717 16.9822 2.87616 17.0893 3.00284 17.1639C3.12952 17.2384 3.27383 17.2778 3.42083 17.2779H9.03458C11.1672 17.3008 13.2288 16.5125 14.8019 15.0725C16.375 13.6325 17.3421 11.6484 17.5073 9.52212C17.583 8.25317 17.3647 6.98388 16.8695 5.8131C16.3743 4.64232 15.6155 3.60165 14.6523 2.77215C13.689 1.94265 12.5472 1.34669 11.3159 1.03071C10.0846 0.714721 8.797 0.687979 7.55333 0.951124ZM9.27158 3.77787C9.49969 3.77802 9.72263 3.8458 9.91222 3.97264C10.1018 4.09948 10.2495 4.27968 10.3367 4.49047C10.4239 4.70126 10.4467 4.93316 10.4021 5.15687C10.3575 5.38058 10.2476 5.58604 10.0862 5.74729C9.92486 5.90853 9.71933 6.01832 9.49559 6.06276C9.27185 6.10721 9.03996 6.08432 8.82923 5.997C8.6185 5.90967 8.43839 5.76182 8.31168 5.57215C8.18496 5.38247 8.11733 5.15948 8.11733 4.93137C8.11753 4.62538 8.23922 4.33198 8.45567 4.11568C8.67211 3.89938 8.96558 3.77787 9.27158 3.77787ZM10.1941 13.5279H9.27158C9.07267 13.5279 8.8819 13.4489 8.74125 13.3082C8.6006 13.1676 8.52158 12.9768 8.52158 12.7779V8.91237H8.34908C8.15017 8.91237 7.9594 8.83336 7.81875 8.6927C7.6781 8.55205 7.59908 8.36129 7.59908 8.16237C7.59908 7.96346 7.6781 7.7727 7.81875 7.63204C7.9594 7.49139 8.15017 7.41237 8.34908 7.41237H9.27158C9.47049 7.41237 9.66126 7.49139 9.80191 7.63204C9.94256 7.7727 10.0216 7.96346 10.0216 8.16237V12.0279H10.1941C10.393 12.0279 10.5838 12.1069 10.7244 12.2475C10.8651 12.3882 10.9441 12.579 10.9441 12.7779C10.9441 12.9768 10.8651 13.1676 10.7244 13.3082C10.5838 13.4489 10.393 13.5279 10.1941 13.5279Z" fill="#131A22" fill-opacity="0.6"/>
</g>
<defs>
<clipPath id="clip0_253_643">
<rect width="18" height="18" fill="white" transform="translate(0.271576 0.0283203)"/>
</clipPath>
</defs>
</svg>
