<svg width="19" height="19" viewBox="0 0 19 19" fill="none" xmlns="http://www.w3.org/2000/svg">
<g clip-path="url(#clip0_253_631)">
<path d="M5.14811 5.57227H4.92241L4.50064 7.68164H5.56988L5.14811 5.57227ZM13.6793 9.79102C13.907 10.4027 14.2098 10.8978 14.545 11.3192C14.8802 10.8978 15.2182 10.4027 15.4459 9.79102H13.6793Z" fill="#131A22" fill-opacity="0.6"/>
<path d="M16.6896 3.95508H10.1405L11.5061 14.9125C11.5302 15.3607 11.4077 15.7827 11.1152 16.113L8.8027 18.7559H16.6896C17.5619 18.7559 18.2716 18.0462 18.2716 17.1738V5.57227C18.2716 4.6999 17.5619 3.95508 16.6896 3.95508ZM16.6896 9.79102H16.5487C16.2487 10.7537 15.7728 11.507 15.2783 12.1009C15.6657 12.455 16.0799 12.7455 16.4918 13.071C16.7189 13.2527 16.756 13.5844 16.5737 13.812C16.3922 14.0393 16.0593 14.0761 15.8326 13.8939C15.3851 13.5407 14.9651 13.245 14.545 12.8596C14.125 13.245 13.7401 13.5407 13.2926 13.8939C13.0659 14.0761 12.733 14.0393 12.5515 13.812C12.3692 13.5844 12.4063 13.2527 12.6334 13.071C13.0453 12.7455 13.4243 12.455 13.8117 12.1009C13.3172 11.507 12.8765 10.7537 12.5765 9.79102H12.4356C12.1442 9.79102 11.9083 9.55515 11.9083 9.26367C11.9083 8.97219 12.1442 8.73633 12.4356 8.73633H14.0177V8.20898C14.0177 7.9175 14.2535 7.68164 14.545 7.68164C14.8365 7.68164 15.0724 7.9175 15.0724 8.20898V8.73633H16.6896C16.981 8.73633 17.2169 8.97219 17.2169 9.26367C17.2169 9.55515 16.981 9.79102 16.6896 9.79102Z" fill="#131A22" fill-opacity="0.6"/>
<path d="M8.85547 2.14168C8.7571 1.35169 8.08196 0.755859 7.28581 0.755859H1.85361C0.98124 0.755859 0.271576 1.46552 0.271576 2.33789V14.0098C0.271576 14.8821 0.98124 15.5918 1.85361 15.5918H10.1699C10.3237 15.4159 10.4527 15.3058 10.4581 15.0763C10.4594 15.0188 8.8626 2.19878 8.85547 2.14168ZM6.73836 10.8354C6.45872 10.893 6.17547 10.7114 6.11781 10.4219L5.78077 8.73633H4.28976L3.95272 10.4219C3.89608 10.7072 3.62105 10.8946 3.33217 10.8354C3.04688 10.7782 2.86147 10.5007 2.91863 10.2149L3.97328 4.94142C4.02271 4.69526 4.23903 4.51758 4.49033 4.51758H5.58017C5.83147 4.51758 6.04778 4.69526 6.09721 4.94142L7.1519 10.2149C7.20906 10.5007 7.02369 10.7782 6.73836 10.8354ZM6.4331 16.6465L6.52359 17.37C6.58392 17.8546 6.90588 18.3487 7.43547 18.5954L9.2059 16.6465H6.4331Z" fill="#131A22" fill-opacity="0.6"/>
</g>
<defs>
<clipPath id="clip0_253_631">
<rect width="18" height="18" fill="white" transform="translate(0.271576 0.755859)"/>
</clipPath>
</defs>
</svg>
