<svg width="16" height="18" viewBox="0 0 16 18" fill="none" xmlns="http://www.w3.org/2000/svg">
<path fill-rule="evenodd" clip-rule="evenodd" d="M8.00002 2.87959C9.71255 2.87959 11.1008 4.26787 11.1008 5.98037C11.1008 7.6929 9.71255 9.08115 8.00002 9.08115C6.28749 9.08115 4.89928 7.6929 4.89928 5.98037C4.89928 4.26791 6.28749 2.87959 8.00002 2.87959ZM8.28127 11.6741V17.4931L14.0212 15.2613V11.6223L9.53304 13.3675C9.40251 13.418 9.25728 13.364 9.18939 13.2465L8.28127 11.6741ZM7.71877 17.4931V11.6741L6.8109 13.2466C6.7763 13.3063 6.7209 13.3512 6.65531 13.3726C6.58972 13.3941 6.51852 13.3906 6.45533 13.3629L1.97888 11.6223V15.2612L7.71877 17.4931ZM14.1796 8.52371L8.40643 10.7685L9.55474 12.7574L15.328 10.5126L14.1796 8.52371ZM7.59362 10.7685L1.8204 8.52371L0.672089 10.5126L6.44534 12.7574L7.59362 10.7685ZM8.00002 9.64365C6.46007 9.64365 5.14207 8.69345 4.60031 7.34735L2.47114 8.17521L8.00002 10.325L13.5289 8.17521L11.3997 7.34735C10.858 8.69341 9.54001 9.64365 8.00002 9.64365ZM13.6613 5.77316C13.8167 5.77316 13.9425 5.89909 13.9425 6.05441C13.9425 6.20973 13.8167 6.33566 13.6613 6.33566H12.3441C12.2695 6.33566 12.1979 6.30602 12.1452 6.25328C12.0925 6.20054 12.0628 6.129 12.0628 6.05441C12.0628 5.97981 12.0925 5.90828 12.1452 5.85553C12.1979 5.80279 12.2695 5.77316 12.3441 5.77316H13.6613ZM7.71877 0.245117C7.71877 0.170525 7.7484 0.098988 7.80115 0.0462434C7.85389 -0.00650121 7.92543 -0.0361328 8.00002 -0.0361328C8.07461 -0.0361328 8.14615 -0.00650121 8.1989 0.0462434C8.25164 0.098988 8.28127 0.170525 8.28127 0.245117V1.56239C8.28127 1.63698 8.25164 1.70852 8.1989 1.76126C8.14615 1.81401 8.07461 1.84364 8.00002 1.84364C7.92543 1.84364 7.85389 1.81401 7.80115 1.76126C7.7484 1.70852 7.71877 1.63698 7.71877 1.56239V0.245117ZM4.87966 1.11597C4.84367 1.05164 4.8345 0.975708 4.85414 0.904655C4.87377 0.833602 4.92063 0.773156 4.98455 0.73643C5.04846 0.699703 5.12428 0.689658 5.19556 0.708474C5.26683 0.72729 5.32781 0.773449 5.36527 0.836937L6.02389 1.97772C6.05988 2.04206 6.06905 2.11799 6.04941 2.18904C6.02978 2.26009 5.98292 2.32054 5.919 2.35727C5.85509 2.39399 5.77927 2.40404 5.70799 2.38522C5.63672 2.36641 5.57574 2.32025 5.53828 2.25676L4.87966 1.11597ZM2.8555 3.29144C2.7917 3.25385 2.74535 3.19256 2.72654 3.12093C2.70774 3.04931 2.71802 2.97315 2.75514 2.90907C2.79225 2.84499 2.8532 2.79818 2.92468 2.77885C2.99617 2.75951 3.0724 2.76923 3.13675 2.80586L4.2775 3.46448C4.34051 3.50246 4.38609 3.56368 4.40441 3.63493C4.42273 3.70619 4.41233 3.78179 4.37546 3.84546C4.33858 3.90912 4.27818 3.95576 4.20725 3.97532C4.13633 3.99489 4.06055 3.98582 3.99625 3.95006L2.8555 3.29144ZM2.19073 6.18761C2.11614 6.18761 2.0446 6.15798 1.99186 6.10524C1.93911 6.05249 1.90948 5.98096 1.90948 5.90636C1.90948 5.83177 1.93911 5.76023 1.99186 5.70749C2.0446 5.65475 2.11614 5.62511 2.19073 5.62511H3.50797C3.66332 5.62511 3.78922 5.75104 3.78922 5.90636C3.78922 6.06168 3.66332 6.18761 3.50797 6.18761H2.19073ZM10.6149 0.910941C10.652 0.846554 10.713 0.799503 10.7847 0.780134C10.8564 0.760764 10.9329 0.770663 10.9973 0.807652C11.0617 0.844665 11.1087 0.905733 11.1281 0.977428C11.1475 1.04912 11.1376 1.12558 11.1006 1.18998L10.442 2.33076C10.405 2.39516 10.3439 2.44222 10.2722 2.46159C10.2005 2.48096 10.124 2.47105 10.0597 2.43405C9.99525 2.39705 9.94819 2.33598 9.92882 2.26428C9.90945 2.19258 9.91936 2.11612 9.95636 2.05173L10.6149 0.910941ZM12.7893 2.93404C12.8537 2.8974 12.9299 2.88769 13.0014 2.90703C13.0729 2.92636 13.1338 2.97317 13.1709 3.03725C13.2081 3.10133 13.2183 3.17748 13.1995 3.24911C13.1807 3.32074 13.1344 3.38203 13.0706 3.41962L11.9298 4.07824C11.7957 4.1559 11.624 4.11013 11.5464 3.97607C11.4687 3.84202 11.5145 3.67032 11.6485 3.59266L12.7893 2.93404ZM9.1741 4.56631L7.33729 6.40316L6.71046 5.61432C6.55626 5.42033 6.27403 5.38812 6.08007 5.54229C5.88608 5.69652 5.85384 5.97871 6.00807 6.17271L6.9305 7.33353C7.09 7.56201 7.41847 7.59327 7.61724 7.39446L9.80973 5.20201C9.98519 5.02647 9.98519 4.74188 9.80973 4.56631C9.63423 4.39081 9.34964 4.39081 9.1741 4.56631Z" fill="#131A22" fill-opacity="0.6"/>
</svg>
