<svg width="30" height="30" viewBox="0 0 30 30" fill="none" xmlns="http://www.w3.org/2000/svg">
<path d="M20.3368 2.56641C24.1043 2.56641 26.2021 4.73738 26.2021 8.45732V21.0563C26.2021 24.8372 24.1043 26.9594 20.3368 26.9594H10.115C6.40722 26.9594 4.24844 24.8372 4.24844 21.0563V8.45732C4.24844 4.73738 6.40722 2.56641 10.115 2.56641H20.3368ZM10.4443 19.3244C10.0784 19.2878 9.72467 19.4586 9.52953 19.7757C9.33438 20.0806 9.33438 20.4831 9.52953 20.8002C9.72467 21.1051 10.0784 21.288 10.4443 21.2392H20.0063C20.493 21.1905 20.8601 20.7746 20.8601 20.2879C20.8601 19.7879 20.493 19.3732 20.0063 19.3244H10.4443ZM20.0063 13.7616H10.4443C9.9186 13.7616 9.49294 14.1897 9.49294 14.7141C9.49294 15.2386 9.9186 15.6654 10.4443 15.6654H20.0063C20.5308 15.6654 20.9576 15.2386 20.9576 14.7141C20.9576 14.1897 20.5308 13.7616 20.0063 13.7616ZM14.0898 8.23778H10.4443V8.24998C9.9186 8.24998 9.49294 8.67685 9.49294 9.2013C9.49294 9.72575 9.9186 10.1526 10.4443 10.1526H14.0898C14.6155 10.1526 15.0423 9.72575 15.0423 9.18789C15.0423 8.66466 14.6155 8.23778 14.0898 8.23778Z" fill="#5D7285"/>
</svg>
