<svg width="19" height="19" viewBox="0 0 19 19" fill="none" xmlns="http://www.w3.org/2000/svg">
<g clip-path="url(#clip0_317_321)">
<path d="M13.2241 4.32775L11.6318 1.6C11.5942 1.53586 11.5443 1.47979 11.4849 1.43502C11.4256 1.39024 11.3579 1.35765 11.2859 1.33911C11.2139 1.32057 11.139 1.31644 11.0654 1.32698C10.9918 1.33752 10.921 1.3625 10.8571 1.4005L5.98956 4.321L13.2241 4.32775Z" fill="#131A22" fill-opacity="0.6"/>
<path d="M2.52158 5.07129C2.10908 5.07129 1.77158 4.73379 1.77158 4.32129C1.77158 3.90879 2.10908 3.57129 2.52158 3.57129H5.04908L7.55408 2.07129H2.52158C1.41158 2.07129 0.489076 2.88129 0.309076 3.94629C0.294076 4.00629 0.271576 4.06629 0.271576 4.13379V15.5713C0.271576 16.8088 1.28408 17.8213 2.52158 17.8213H15.2716C16.0966 17.8213 16.7716 17.1463 16.7716 16.3213V14.8213H14.8966C13.0366 14.8213 11.5216 13.3063 11.5216 11.4463C11.5216 9.58629 13.0366 8.07129 14.8966 8.07129H16.7716V6.57129C16.7716 5.74629 16.0966 5.07129 15.2716 5.07129H2.52158ZM14.5216 3.57129C14.5216 2.81379 13.9591 2.18379 13.2241 2.08629L14.5216 4.32129V3.57129Z" fill="#131A22" fill-opacity="0.6"/>
<path d="M17.7091 9.19629H14.8966C13.6561 9.19629 12.6466 10.2058 12.6466 11.4463C12.6466 12.6868 13.6561 13.6963 14.8966 13.6963H17.7091C17.8583 13.6963 18.0013 13.637 18.1068 13.5315C18.2123 13.426 18.2716 13.283 18.2716 13.1338V9.75879C18.2716 9.6096 18.2123 9.46653 18.1068 9.36104C18.0013 9.25555 17.8583 9.19629 17.7091 9.19629ZM14.8966 12.1963C14.6977 12.1963 14.5069 12.1173 14.3662 11.9766C14.2256 11.836 14.1466 11.6452 14.1466 11.4463C14.1466 11.2474 14.2256 11.0566 14.3662 10.916C14.5069 10.7753 14.6977 10.6963 14.8966 10.6963C15.0955 10.6963 15.2863 10.7753 15.4269 10.916C15.5676 11.0566 15.6466 11.2474 15.6466 11.4463C15.6466 11.6452 15.5676 11.836 15.4269 11.9766C15.2863 12.1173 15.0955 12.1963 14.8966 12.1963Z" fill="#131A22" fill-opacity="0.6"/>
</g>
<defs>
<clipPath id="clip0_317_321">
<rect width="18" height="18" fill="white" transform="translate(0.271576 0.571289)"/>
</clipPath>
</defs>
</svg>
