<svg width="19" height="17" viewBox="0 0 19 17" fill="none" xmlns="http://www.w3.org/2000/svg">
<path d="M10.2026 14.2908V13.0534H0.271576V14.2958C0.271576 15.421 1.18081 16.3508 2.30608 16.3508H11.2035C11.1182 16.2732 11.0359 16.2052 10.9582 16.1273C10.7176 15.886 10.527 15.5995 10.3973 15.2844C10.2677 14.9692 10.2015 14.6316 10.2026 14.2908ZM7.30313 6.78921L8.74422 7.77859L10.1909 6.78921C10.5866 6.51933 10.9009 5.91032 10.9009 5.43146V3.38694L8.74787 2.32211L6.59485 3.38423V5.43146C6.59485 5.91016 6.90733 6.51933 7.30313 6.78921ZM7.62756 4.85685C7.6529 4.83176 7.68293 4.8119 7.71595 4.79841C7.74896 4.78493 7.78431 4.77808 7.81997 4.77826C7.85563 4.77844 7.89091 4.78565 7.92378 4.79946C7.95666 4.81328 7.98649 4.83344 8.01158 4.85879L8.44435 5.29583L9.48598 4.25436C9.51121 4.22913 9.54116 4.20911 9.57413 4.19547C9.60709 4.18182 9.64242 4.1748 9.6781 4.17481C9.71378 4.17483 9.7491 4.18187 9.78206 4.19555C9.81501 4.20922 9.84495 4.22926 9.87015 4.25451C9.92107 4.30547 9.94966 4.37457 9.94963 4.44661C9.9496 4.51865 9.92095 4.58772 9.87 4.63864L8.63545 5.87381C8.58459 5.92496 8.51555 5.95388 8.44342 5.95427H8.44284C8.40698 5.95407 8.37153 5.94677 8.33852 5.93277C8.30551 5.91877 8.27561 5.89836 8.25054 5.87273L7.62558 5.24145C7.57494 5.19014 7.5467 5.12084 7.54708 5.04874C7.54745 4.97665 7.57639 4.90764 7.62756 4.85685ZM16.8322 0.212891H16.8235C16.0256 0.212891 15.3621 0.879511 15.3621 1.6778V4.16979H18.2716V1.67295C18.2752 0.873149 17.632 0.22061 16.8322 0.212891Z" fill="#131A22" fill-opacity="0.6"/>
<path d="M4.44063 0.212891C3.68611 0.212891 3.07205 0.818722 3.07205 1.56184L2.99194 12.5103H10.4742C10.5475 12.5132 10.6168 12.5445 10.6674 12.5975C10.7181 12.6506 10.7462 12.7212 10.7457 12.7946V14.2908C10.743 15.422 11.6549 16.3426 12.786 16.3508H12.7928C13.9198 16.3427 14.8267 15.4225 14.819 14.2956V1.67822C14.819 1.10746 15.0758 0.600822 15.4618 0.212891H4.44063ZM6.05175 3.21482C6.05007 3.16475 6.06267 3.11523 6.08809 3.07205C6.11351 3.02888 6.15069 2.99383 6.19528 2.971L8.62711 1.77583C8.66395 1.75758 8.70451 1.74809 8.74562 1.74809C8.78673 1.74809 8.82729 1.75758 8.86413 1.77583L11.3003 2.97434C11.3449 2.99717 11.3821 3.03222 11.4076 3.07539C11.433 3.11856 11.4456 3.16807 11.444 3.21815V5.43146C11.444 6.09016 11.042 6.8668 10.4975 7.23793L8.90215 8.3319C8.85743 8.36266 8.80444 8.37914 8.75016 8.37915C8.69609 8.37922 8.6433 8.36272 8.5989 8.33186L6.99884 7.2379C6.45469 6.86668 6.05175 6.09005 6.05175 5.43149V3.21482ZM12.6078 11.2689H5.15951C5.0095 11.2689 4.88796 11.1474 4.88796 10.9974C4.88796 10.8474 5.0095 10.7258 5.15951 10.7258H12.6078C12.7578 10.7258 12.8793 10.8474 12.8793 10.9974C12.8793 11.1474 12.7578 11.2689 12.6078 11.2689ZM12.6078 9.83358H5.15951C5.0095 9.83358 4.88796 9.71204 4.88796 9.56203C4.88796 9.41202 5.0095 9.29048 5.15951 9.29048H12.6078C12.7578 9.29048 12.8793 9.41202 12.8793 9.56203C12.8793 9.71204 12.7578 9.83358 12.6078 9.83358Z" fill="#131A22" fill-opacity="0.6"/>
</svg>
