<svg width="16" height="19" viewBox="0 0 16 19" fill="none" xmlns="http://www.w3.org/2000/svg">
<path d="M15.9546 8.41053C15.905 5.82654 15.545 3.92072 15.55 3.91896C15.4002 3.62682 15.1376 3.38248 14.8163 3.25768C12.7069 2.43959 10.6327 1.65877 8.61048 0.992559C8.40376 0.924355 8.18579 0.924355 7.97942 0.992559C5.95758 1.65701 3.88372 2.43643 1.77469 3.25346C1.49098 3.3635 1.25297 3.56705 1.09794 3.81455C1.10989 3.81596 0.664459 5.20639 0.588522 8.27729C0.543522 11.3485 0.926022 12.2686 0.913365 12.2696C1.12044 12.9446 1.50786 13.6312 2.06297 14.3294C2.68348 15.1092 3.52196 15.9146 4.53481 16.7063C6.21141 18.0222 7.78044 18.8087 7.84618 18.8365C7.98856 18.9061 8.13938 18.9416 8.29477 18.9412C8.45051 18.9412 8.60133 18.9057 8.74337 18.8358C8.80946 18.808 10.3802 18.0191 12.0561 16.7035C13.0693 15.9111 13.9078 15.1057 14.5287 14.3263C15.1235 13.5785 15.5257 12.8448 15.7201 12.1241C15.7124 12.123 15.9936 10.9952 15.9546 8.41088V8.41053ZM9.12938 10.426V12.0633C9.12938 12.5245 8.75567 12.8982 8.29442 12.8986C7.83317 12.8986 7.45911 12.5249 7.45911 12.0636V10.4492C6.85723 10.1501 6.44309 9.5292 6.44309 8.81166C6.44309 7.80197 7.26153 6.98318 8.27122 6.98318C9.2809 6.98318 10.0993 7.80162 10.0997 8.81131C10.0997 9.51092 9.70665 10.1188 9.12938 10.426Z" fill="#131A22" fill-opacity="0.6"/>
</svg>
