<svg width="19" height="19" viewBox="0 0 19 19" fill="none" xmlns="http://www.w3.org/2000/svg">
<g clip-path="url(#clip0_253_590)">
<path d="M11.9802 13.2264C11.9589 13.1608 11.9197 13.1026 11.867 13.0582C11.8143 13.0138 11.7503 12.985 11.6821 12.9751L10.2452 12.7663L9.60261 11.4643C9.57212 11.4025 9.52496 11.3505 9.46646 11.3141C9.40796 11.2778 9.34045 11.2585 9.27158 11.2585C9.2027 11.2585 9.13519 11.2778 9.0767 11.3141C9.0182 11.3505 8.97104 11.4025 8.94055 11.4643L8.29796 12.7663L6.86102 12.9751C6.79285 12.985 6.72882 13.0138 6.67616 13.0582C6.62349 13.1026 6.5843 13.1609 6.563 13.2264C6.54172 13.2919 6.5392 13.362 6.5557 13.4289C6.57221 13.4958 6.60709 13.5567 6.65641 13.6048L7.69619 14.6183L7.45073 16.0494C7.43907 16.1173 7.44664 16.1871 7.47259 16.2509C7.49854 16.3148 7.54182 16.37 7.59755 16.4105C7.65328 16.451 7.71923 16.4751 7.78794 16.4801C7.85664 16.485 7.92537 16.4707 7.98633 16.4386L9.27158 15.7629L10.5569 16.4386C10.6178 16.4707 10.6865 16.485 10.7552 16.4801C10.8239 16.4751 10.8899 16.451 10.9456 16.4105C11.0013 16.37 11.0446 16.3147 11.0706 16.2509C11.0965 16.1871 11.1041 16.1173 11.0925 16.0494L10.847 14.6183L11.8868 13.6048C11.9361 13.5567 11.971 13.4958 11.9875 13.4289C12.004 13.362 12.0015 13.2919 11.9802 13.2264ZM6.01041 13.2264C5.9891 13.1609 5.94988 13.1027 5.89721 13.0583C5.84454 13.0139 5.7805 12.9851 5.71232 12.9752L4.27538 12.7664L3.63279 11.4643C3.6023 11.4025 3.55514 11.3505 3.49664 11.3142C3.43814 11.2778 3.37064 11.2585 3.30176 11.2585C3.23289 11.2585 3.16538 11.2778 3.10688 11.3142C3.04838 11.3505 3.00122 11.4025 2.97073 11.4643L2.32815 12.7664L0.891205 12.9752C0.823041 12.9851 0.759009 13.0139 0.706345 13.0583C0.653681 13.1026 0.614484 13.1609 0.593185 13.2264C0.57191 13.2919 0.569383 13.3621 0.58589 13.4289C0.602397 13.4958 0.637279 13.5567 0.686595 13.6048L1.72638 14.6184L1.48095 16.0495C1.46931 16.1174 1.47689 16.1872 1.50284 16.251C1.52879 16.3148 1.57208 16.3701 1.6278 16.4106C1.68353 16.451 1.74947 16.4751 1.81817 16.4801C1.88687 16.4851 1.95559 16.4707 2.01656 16.4387L3.3018 15.7629L4.58708 16.4387C4.64804 16.4707 4.71676 16.4851 4.78547 16.4801C4.85417 16.4752 4.92012 16.4511 4.97583 16.4106C5.03156 16.3701 5.07485 16.3148 5.1008 16.251C5.12675 16.1872 5.13433 16.1174 5.12268 16.0495L4.87722 14.6184L5.917 13.6048C5.96633 13.5568 6.00122 13.4958 6.01773 13.429C6.03423 13.3621 6.0317 13.2919 6.01041 13.2264ZM17.9501 13.2264C17.9287 13.1609 17.8895 13.1026 17.8369 13.0582C17.7842 13.0139 17.7201 12.9851 17.652 12.9752L16.215 12.7664L15.5725 11.4643C15.542 11.4025 15.4948 11.3505 15.4363 11.3142C15.3778 11.2778 15.3103 11.2585 15.2414 11.2585C15.1725 11.2585 15.105 11.2778 15.0465 11.3142C14.988 11.3505 14.9409 11.4025 14.9104 11.4643L14.2678 12.7664L12.8309 12.9752C12.7627 12.9851 12.6987 13.0139 12.646 13.0583C12.5933 13.1026 12.5541 13.1609 12.5328 13.2264C12.5116 13.2919 12.509 13.3621 12.5256 13.4289C12.5421 13.4958 12.5769 13.5567 12.6263 13.6048L13.666 14.6183L13.4206 16.0495C13.4089 16.1174 13.4165 16.1872 13.4424 16.251C13.4684 16.3148 13.5117 16.3701 13.5674 16.4106C13.6231 16.451 13.6891 16.4751 13.7578 16.4801C13.8265 16.4851 13.8952 16.4707 13.9562 16.4386L15.2415 15.7629L16.5267 16.4386C16.5877 16.4707 16.6564 16.485 16.7251 16.4801C16.7938 16.4751 16.8597 16.451 16.9155 16.4105C16.9712 16.37 17.0145 16.3148 17.0404 16.251C17.0664 16.1872 17.074 16.1174 17.0623 16.0495L16.8169 14.6183L17.8567 13.6048C17.906 13.5567 17.9409 13.4958 17.9574 13.4289C17.9739 13.362 17.9714 13.2919 17.9501 13.2264ZM15.7364 2.85938H2.80676C1.40888 2.85938 0.271576 3.99664 0.271576 5.39456V7.10523C0.271576 8.41041 1.26284 9.48837 2.53216 9.62562L3.08031 10.3559C3.26102 10.5967 3.53724 10.7374 3.83818 10.7421L3.85368 10.7422C4.14875 10.7422 4.42283 10.6107 4.60768 10.3798L5.19974 9.64038H15.7364C17.1343 9.64038 18.2716 8.50311 18.2716 7.1052V5.39453C18.2716 3.99664 17.1343 2.85938 15.7364 2.85938ZM8.14067 7.81595H3.34058C3.04934 7.81595 2.81323 7.57984 2.81323 7.28861C2.81323 6.99737 3.04934 6.76126 3.34058 6.76126H8.14067C8.4319 6.76126 8.66801 6.99737 8.66801 7.28861C8.66801 7.57984 8.4319 7.81595 8.14067 7.81595ZM15.2026 5.69561H3.34058C3.04934 5.69561 2.81323 5.4595 2.81323 5.16826C2.81323 4.87703 3.04934 4.64092 3.34058 4.64092H15.2026C15.4938 4.64092 15.7299 4.87703 15.7299 5.16826C15.7299 5.4595 15.4938 5.69561 15.2026 5.69561Z" fill="#131A22" fill-opacity="0.6"/>
</g>
<defs>
<clipPath id="clip0_253_590">
<rect width="18" height="18" fill="white" transform="translate(0.271576 0.669922)"/>
</clipPath>
</defs>
</svg>
