<svg width="19" height="20" viewBox="0 0 19 20" fill="none" xmlns="http://www.w3.org/2000/svg">
<g clip-path="url(#clip0_253_579)">
<g clip-path="url(#clip1_253_579)">
<path d="M17.6884 12.1857L15.9894 10.896C16.011 10.6971 16.0294 10.4646 16.0294 10.2186C16.0294 9.97256 16.0117 9.74005 15.9894 9.54115L17.69 8.25066C18.0058 8.00841 18.092 7.57848 17.891 7.22036L16.1242 4.25276C15.9355 3.91781 15.5219 3.74583 15.1022 3.89612L13.0973 4.67744C12.713 4.40827 12.3102 4.18099 11.8935 3.9993L11.5885 1.93495C11.5385 1.54315 11.1873 1.24707 10.7722 1.24707H7.22931C6.81416 1.24707 6.46375 1.54315 6.41443 1.92896L6.10868 4.00081C5.70509 4.17727 5.30847 4.40158 4.90719 4.67895L2.897 3.89538C2.52034 3.75407 2.06978 3.91256 1.88262 4.24604L0.113527 7.21735C-0.0951816 7.5598 -0.00893262 8.00466 0.313788 8.2529L2.01281 9.54266C1.98584 9.79462 1.97277 10.0137 1.97277 10.2193C1.97277 10.425 1.98588 10.644 2.01281 10.8967L0.312236 12.1872C-0.0035533 12.4302 -0.0890442 12.8601 0.111975 13.2175L1.8788 16.1851C2.06751 16.5193 2.47723 16.6928 2.90083 16.5417L4.90564 15.7604C5.28919 16.0288 5.69199 16.2561 6.10868 16.4385L6.41368 18.5022C6.46371 18.8954 6.81416 19.1915 7.23006 19.1915H10.7729C11.1881 19.1915 11.5393 18.8954 11.5885 18.5096L11.8943 16.4385C12.2979 16.2613 12.6938 16.0378 13.0958 15.7596L15.106 16.5432C15.2022 16.5798 15.3046 16.5986 15.4079 16.5985C15.7067 16.5985 15.9817 16.44 16.1203 16.1933L17.8948 13.21C18.092 12.8601 18.0057 12.4302 17.6884 12.1857ZM9.00071 13.21C7.30169 13.21 5.91997 11.8687 5.91997 10.2193C5.91997 8.56991 7.30169 7.22856 9.00071 7.22856C10.6997 7.22856 12.0815 8.56991 12.0815 10.2193C12.0815 11.8687 10.6997 13.21 9.00071 13.21Z" fill="#131A22" fill-opacity="0.6"/>
</g>
</g>
<defs>
<clipPath id="clip0_253_579">
<rect width="18" height="19" fill="white" transform="translate(0.271576 0.898438)"/>
</clipPath>
<clipPath id="clip1_253_579">
<rect width="18" height="19" fill="white" transform="translate(3.05176e-05 0.191406)"/>
</clipPath>
</defs>
</svg>
