<svg width="19" height="19" viewBox="0 0 19 19" fill="none" xmlns="http://www.w3.org/2000/svg">
<g clip-path="url(#clip0_253_621)">
<path fill-rule="evenodd" clip-rule="evenodd" d="M11.0877 16.8398C11.0877 16.2177 10.5834 15.7134 9.96127 15.7134H8.58188C8.28312 15.7134 7.9966 15.832 7.78534 16.0433C7.57409 16.2546 7.4554 16.5411 7.4554 16.8398C7.4554 17.462 7.95976 17.9663 8.58188 17.9663H9.96127C10.5834 17.9663 11.0877 17.462 11.0877 16.8398ZM2.63974 13.9351C2.82789 13.9495 3.05553 13.9578 3.28419 13.9444C3.42751 14.6711 3.81866 15.3255 4.39084 15.7959C4.96302 16.2663 5.68075 16.5234 6.42146 16.5234H6.85128C6.8131 16.7326 6.813 16.947 6.851 17.1562H6.42146C5.51117 17.1562 4.63064 16.8321 3.93766 16.2418C3.24468 15.6516 2.78455 14.8338 2.63974 13.9351ZM2.31785 13.2618C1.74574 13.1653 1.22631 12.8693 0.85171 12.4263C0.477114 11.9832 0.271579 11.4218 0.271576 10.8416L0.271576 9.34597C0.271576 8.69505 0.530151 8.07079 0.99042 7.61051C1.45069 7.15024 2.07495 6.89165 2.72587 6.89164H2.88924C3.15038 3.59554 5.90811 1.00195 9.27158 1.00195C12.635 1.00195 15.3928 3.59554 15.6539 6.89164H15.8173C16.4682 6.89165 17.0925 7.15024 17.5527 7.61051C18.013 8.07079 18.2716 8.69505 18.2716 9.34597V10.8416C18.2716 11.4925 18.013 12.1168 17.5527 12.5771C17.0925 13.0374 16.4682 13.2959 15.8173 13.296H15.093C14.7927 13.296 14.5492 13.0524 14.5492 12.7521V7.40454C14.5492 4.4898 12.1863 2.12695 9.27158 2.12695C6.35684 2.12695 3.99399 4.4898 3.99399 7.40454V12.7521C3.99399 12.9641 3.8726 13.1479 3.69548 13.2376C3.20793 13.4068 2.45183 13.2844 2.31785 13.2618Z" fill="#131A22" fill-opacity="0.6"/>
</g>
<defs>
<clipPath id="clip0_253_621">
<rect width="18" height="18" fill="white" transform="translate(0.271576 0.484375)"/>
</clipPath>
</defs>
</svg>
