<svg width="26" height="25" viewBox="0 0 26 25" fill="none" xmlns="http://www.w3.org/2000/svg">
<path d="M11.6066 0.55957C14.6344 0.55957 17.1039 2.98667 17.1039 5.97482V11.8169H9.65834C9.12474 11.8169 8.70283 12.2316 8.70283 12.7561C8.70283 13.2683 9.12474 13.6952 9.65834 13.6952H17.1039V19.5251C17.1039 22.5133 14.6344 24.9526 11.5818 24.9526H5.53848C2.49821 24.9526 0.0287781 22.5255 0.0287781 19.5373V5.98701C0.0287781 2.98667 2.51062 0.55957 5.55089 0.55957H11.6066ZM20.202 8.54852C20.5679 8.17043 21.1656 8.17043 21.5314 8.53633L25.0928 12.0855C25.2758 12.2685 25.3733 12.5002 25.3733 12.7563C25.3733 13.0002 25.2758 13.2442 25.0928 13.4149L21.5314 16.9641C21.3485 17.1471 21.1046 17.2446 20.8728 17.2446C20.6289 17.2446 20.385 17.1471 20.202 16.9641C19.8361 16.5982 19.8361 16.0006 20.202 15.6347L22.1535 13.6954H17.1041V11.8172H22.1535L20.202 9.87794C19.8361 9.51205 19.8361 8.91442 20.202 8.54852Z" fill="white"/>
</svg>
