<svg width="16" height="17" viewBox="0 0 16 17" fill="none" xmlns="http://www.w3.org/2000/svg">
<path d="M15.4716 7.01107L14.4216 5.7444C14.1966 5.5069 14.0466 5.0319 14.0466 4.71523V3.44857C14.0466 2.57773 13.3716 1.9444 12.6216 1.9444H11.3466C11.0466 1.9444 10.5966 1.78607 10.3716 1.54857L9.17158 0.440234C8.64658 -0.0347656 7.82158 -0.0347656 7.29658 0.440234L6.17158 1.54857C5.94658 1.78607 5.49658 1.9444 5.19658 1.9444H3.92158C3.09658 1.9444 2.49658 2.6569 2.49658 3.44857V4.7944C2.49658 5.11107 2.34658 5.58607 2.12158 5.82357L1.14658 7.09023C0.696582 7.6444 0.696582 8.51523 1.14658 9.0694L2.12158 10.3361C2.34658 10.5736 2.49658 11.0486 2.49658 11.3652V12.7111C2.49658 13.5819 3.17158 14.2152 3.92158 14.2152H5.19658C5.49658 14.2152 5.94658 14.3736 6.17158 14.6111L7.37158 15.7194C7.89658 16.1944 8.72158 16.1944 9.24658 15.7194L10.4466 14.6111C10.6716 14.3736 11.1216 14.2152 11.4216 14.2152H12.6966C13.5216 14.2152 14.1216 13.5027 14.1216 12.7111V11.3652C14.1216 11.0486 14.2716 10.5736 14.4966 10.3361L15.5466 9.0694C15.9216 8.51523 15.9216 7.56523 15.4716 7.01107ZM11.4216 6.53607L7.82158 10.3361C7.74658 10.4152 7.59658 10.4944 7.44658 10.4944C7.29658 10.4944 7.14658 10.4152 7.07158 10.3361L5.27158 8.43607C5.04658 8.19857 5.04658 7.80273 5.27158 7.56523C5.49658 7.32773 5.87158 7.32773 6.09658 7.56523L7.52158 9.0694L10.5966 5.66523C10.8216 5.42773 11.1966 5.42773 11.4216 5.66523C11.6466 5.90273 11.6466 6.29857 11.4216 6.53607Z" fill="#131A22" fill-opacity="0.6"/>
</svg>
