<svg width="23" height="23" viewBox="0 0 23 23" fill="none" xmlns="http://www.w3.org/2000/svg">
<path d="M22.9889 4.04159C22.9889 3.61934 22.5959 3.24388 22.0981 3.19691C20.4213 3.00918 18.7969 2.68072 17.251 2.18807C15.6003 1.67187 13.8449 0.991474 12.0109 0.123243C11.6703 -0.0410809 11.3298 -0.0410809 10.9891 0.123243C9.18124 0.991348 7.39952 1.67187 5.77524 2.16452C4.22946 2.63375 2.57879 2.98582 0.928163 3.17336C0.430308 3.22034 0.0635492 3.57222 0.0110548 4.01805C-0.14612 9.6962 1.37352 14.4123 4.51752 18.0492C6.2468 20.0437 8.42143 21.6625 10.989 22.8827C11.1201 22.9764 11.3034 23 11.513 23C11.6965 23 11.8798 22.953 12.0633 22.8827C14.6572 21.6391 16.8056 19.9967 18.5086 18.0492C21.6265 14.4594 23.1461 9.74354 22.9889 4.04151L22.9889 4.04159ZM16.8056 17.0873C15.4169 18.6829 13.6352 20.0672 11.5131 21.1699C9.39089 20.0672 7.58302 18.6829 6.2206 17.0873C3.46951 13.8962 2.10723 9.76667 2.10723 4.81589C3.5744 4.60475 5.01547 4.27627 6.56125 3.80704C8.08087 3.33782 9.7577 2.70426 11.5131 1.90655C13.2947 2.70426 14.9453 3.33782 16.465 3.80704C17.9585 4.25289 19.4518 4.60476 20.919 4.81589C20.919 9.8136 19.5567 13.9197 16.8057 17.0873H16.8056Z" fill="#E93E28"/>
<path d="M12.8496 15.7269C12.8496 16.3877 12.2514 16.9236 11.5134 16.9236C10.7754 16.9236 10.1772 16.3877 10.1772 15.7269C10.1772 15.066 10.7754 14.5303 11.5134 14.5303C12.2514 14.5303 12.8496 15.066 12.8496 15.7269Z" fill="#E93E28"/>
<path d="M12.5874 6.12989H10.4389C10.1768 6.12989 9.94106 6.22367 9.75775 6.38799C9.57425 6.57572 9.46953 6.81025 9.49567 7.06835L10.5175 12.7465C10.5436 13.2393 10.9629 13.6146 11.4607 13.6146H11.5393C12.0371 13.6146 12.4564 13.2392 12.4825 12.7933L13.5304 7.11515C13.5566 6.85704 13.4518 6.59895 13.2683 6.43479C13.0852 6.22382 12.8493 6.12988 12.5874 6.12988L12.5874 6.12989Z" fill="#E93E28"/>
</svg>
