<svg width="22" height="22" viewBox="0 0 22 22" fill="none" xmlns="http://www.w3.org/2000/svg">
<path d="M19.153 1.29395H17.2118V3.23512C17.2118 3.62336 16.8883 3.88218 16.5647 3.88218C16.2412 3.88218 15.9177 3.62336 15.9177 3.23512V1.29395H5.56474V3.23512C5.56474 3.62336 5.24121 3.88218 4.91768 3.88218C4.59415 3.88218 4.27062 3.62336 4.27062 3.23512V1.29395H2.32945C1.35886 1.29395 0.647095 2.13512 0.647095 3.23512V5.56453H21.353V3.23512C21.353 2.13512 20.1883 1.29395 19.153 1.29395ZM0.647095 6.92336V18.7645C0.647095 19.9292 1.35886 20.7057 2.39415 20.7057H19.2177C20.253 20.7057 21.4177 19.8645 21.4177 18.7645V6.92336H0.647095ZM6.40592 17.7939H4.85298C4.59415 17.7939 4.33533 17.5998 4.33533 17.2763V15.6587C4.33533 15.3998 4.52945 15.141 4.85298 15.141H6.47062C6.72945 15.141 6.98827 15.3351 6.98827 15.6587V17.2763C6.92356 17.5998 6.72945 17.7939 6.40592 17.7939ZM6.40592 11.9704H4.85298C4.59415 11.9704 4.33533 11.7763 4.33533 11.4528V9.83512C4.33533 9.5763 4.52945 9.31748 4.85298 9.31748H6.47062C6.72945 9.31748 6.98827 9.51159 6.98827 9.83512V11.4528C6.92356 11.7763 6.72945 11.9704 6.40592 11.9704ZM11.5824 17.7939H9.96474C9.70592 17.7939 9.44709 17.5998 9.44709 17.2763V15.6587C9.44709 15.3998 9.64121 15.141 9.96474 15.141H11.5824C11.8412 15.141 12.1 15.3351 12.1 15.6587V17.2763C12.1 17.5998 11.9059 17.7939 11.5824 17.7939ZM11.5824 11.9704H9.96474C9.70592 11.9704 9.44709 11.7763 9.44709 11.4528V9.83512C9.44709 9.5763 9.64121 9.31748 9.96474 9.31748H11.5824C11.8412 9.31748 12.1 9.51159 12.1 9.83512V11.4528C12.1 11.7763 11.9059 11.9704 11.5824 11.9704ZM16.7589 17.7939H15.1412C14.8824 17.7939 14.6236 17.5998 14.6236 17.2763V15.6587C14.6236 15.3998 14.8177 15.141 15.1412 15.141H16.7589C17.0177 15.141 17.2765 15.3351 17.2765 15.6587V17.2763C17.2765 17.5998 17.0824 17.7939 16.7589 17.7939ZM16.7589 11.9704H15.1412C14.8824 11.9704 14.6236 11.7763 14.6236 11.4528V9.83512C14.6236 9.5763 14.8177 9.31748 15.1412 9.31748H16.7589C17.0177 9.31748 17.2765 9.51159 17.2765 9.83512V11.4528C17.2765 11.7763 17.0824 11.9704 16.7589 11.9704Z" fill="white"/>
</svg>
