<svg width="76" height="99" viewBox="0 0 76 99" fill="none" xmlns="http://www.w3.org/2000/svg">
<path d="M66.3174 16.8619C67.8447 18.0142 69.072 19.6076 70.5183 20.8919C70.6243 20.9899 70.7083 21.1094 70.7647 21.2423C70.821 21.3753 70.8486 21.5187 70.8454 21.663C70.8454 21.8641 70.8454 22.0621 70.8454 22.2632C70.7194 29.9479 71.2625 37.6237 71.1155 45.3115C71.0945 46.4487 71.0404 46.9048 69.8972 46.4697C62.2334 43.5531 54.5487 40.7174 46.8669 37.8728C46.7164 37.8415 46.5742 37.7789 46.4496 37.6889C46.325 37.5989 46.2207 37.4837 46.1437 37.3506C45.4356 35.9493 44.5293 34.683 44.0732 33.1047C45.0605 32.4565 46.0027 33.1647 46.9659 33.2427C51.2569 34.1969 55.5479 35.1241 59.8689 35.9223C60.9221 35.8863 61.9693 35.9223 63.0256 35.9223C64.5529 35.9043 64.5499 35.8653 64.682 34.1219C65.0901 28.8557 65.3871 23.5775 65.7742 18.3083C65.9003 17.7831 65.9453 17.234 66.3174 16.8619Z" fill="#E6E6E5"/>
<path d="M19.3507 40.8614C19.124 40.3956 19.0266 39.8774 19.0686 39.3611C19.4887 38.971 19.8758 39.2591 20.2359 39.4781C21.4306 40.1561 22.6851 40.7227 23.9837 41.1705C24.2436 41.3174 24.4655 41.5229 24.6319 41.7706C26.9484 45.6895 27.8036 50.1276 28.0287 54.8296C28.2207 58.8236 27.3595 62.6164 26.7234 66.4603C26.5403 67.2735 26.3903 68.1017 26.1562 68.8999C25.9522 69.5136 25.8144 70.1473 25.7452 70.7903C24.5959 75.8074 23.1646 80.7196 21.8803 85.6857C21.7482 86.1988 21.7062 86.784 21.2561 87.1111C21.1459 87.1299 21.0328 87.125 20.9247 87.0965C20.8165 87.068 20.7157 87.0167 20.629 86.946C20.3466 86.7347 20.1581 86.4213 20.1039 86.0728C20.3499 77.9079 20.0889 69.7341 20.2869 61.5722C20.3919 60.72 21.0851 60.69 21.5202 60.3299C21.2021 60.4109 20.944 60.825 20.548 60.654C20.4482 60.4705 20.4214 60.2562 20.4729 60.0538C21.2081 58.8536 22.3754 58.3104 23.2546 57.3262C23.7977 56.7261 24.4369 56.2279 24.7249 55.1987C24.0888 55.3277 23.7137 56.255 23.0385 55.8289C22.7565 55.4328 22.6964 54.9287 22.5824 54.4635C22.5824 55.1657 22.9515 56.1199 21.9553 56.264C21.2501 56.369 20.755 55.4088 20.71 54.0705C20.875 50.3916 20.611 46.7458 20.2389 43.1029C20.1238 42.2961 19.8195 41.528 19.3507 40.8614Z" fill="#052B4E"/>
<path d="M33.7417 17.1741C35.3051 14.1074 37.3695 11.4728 39.1009 8.56808C39.341 8.15999 39.7491 8.16299 40.1332 8.17499C45.4954 8.34603 50.8486 7.66188 56.2109 7.87492C56.2349 7.97995 56.2439 8.12998 56.2109 8.14799C54.3474 8.78714 53.7953 10.8486 52.8771 12.502C51.9289 14.1974 50.9747 15.8898 50.0415 17.6032C49.6874 18.2543 49.2703 18.8034 48.5411 18.7014C47.998 18.6294 47.4669 18.4494 46.9117 18.4944C44.4962 18.4734 42.0926 18.1943 39.6801 18.0803C38.7529 17.3241 37.6966 17.7232 36.6974 17.6182C36.2233 17.4261 35.7042 17.5371 35.23 17.3361C34.7199 17.2341 34.2128 17.4561 33.7417 17.1741Z" fill="#BCE6FB"/>
<path d="M37.7296 94.2618C38.2667 94.2618 38.8038 94.2618 39.3409 94.2318C39.8781 94.2018 40.4122 94.2528 40.9703 93.6076C41.6064 92.8755 42.7017 93.3916 43.5989 93.3556C43.5269 94.0847 43.0168 93.9197 42.6417 94.0127C42.2666 94.1057 41.7925 93.8807 41.4864 94.3608C41.427 95.1399 41.5915 95.9196 41.9605 96.6083C42.3206 96.9834 42.8007 96.8664 43.2058 97.0614C47.6618 97.1905 52.1149 97.0614 56.5679 97.1244C57.138 97.1244 57.7682 96.9624 58.2333 97.5505C58.1537 97.6549 58.0489 97.7372 57.9286 97.7897C57.8084 97.8422 57.6767 97.8632 57.5461 97.8506C54.7455 97.9506 51.9388 98.0506 49.1262 98.1507C42.0326 98.4117 34.9329 98.6308 27.8423 98.4027C23.6893 98.2707 19.5304 98.3367 15.3864 98.1027C11.0114 97.8476 6.61841 97.6886 2.26741 96.9534C1.6101 96.8442 0.997253 96.5507 0.5 96.1072C5.97626 94.9069 11.1795 94.7269 16.3887 94.6069C16.3556 95.417 15.7495 95.7561 15.3984 96.3053C14.9723 96.8274 14.9693 97.1154 15.6745 97.2055C17.3309 97.3975 19.0413 95.8251 19.2753 93.8417C19.2753 93.3936 19.3175 92.9465 19.4013 92.5064C19.5544 92.2363 19.7014 91.9062 20.0015 92.3113C20.1605 93.7367 20.8147 93.9797 21.9849 93.8987C24.3943 93.7052 26.8158 93.7202 29.2226 93.9437C30.927 94.2588 32.6464 94.0907 34.3598 94.1298C35.479 94.1268 36.6013 94.2198 37.7296 94.2618Z" fill="#F2F2F2"/>
<path d="M30.9178 42.3558C31.3108 45.8216 31.2178 49.3204 31.4369 52.8012C31.4699 53.3323 31.3319 53.9084 31.7369 54.3375C32.073 55.7449 31.3379 57.1312 31.6709 58.5385C31.3259 63.4476 31.5929 68.3658 31.5029 73.2809C31.4189 77.7039 31.2988 82.1209 30.9958 86.532C30.5307 87.4322 29.8855 87.4802 29.1383 87.1051C29.0357 86.9647 28.9614 86.8057 28.9193 86.637C28.5892 82.0279 28.3762 77.4039 28.0371 72.7978C27.8751 70.6163 27.809 68.4318 27.602 66.2533C27.3499 63.6127 27.68 60.9751 27.9441 58.3525C28.3462 54.3916 27.695 50.5057 27.416 46.5958C27.518 45.1434 26.7108 43.6911 27.416 42.2358C28.5892 41.7587 29.7625 41.6236 30.9178 42.3558Z" fill="#052B4E"/>
<path d="M26.8517 13.306C27.1261 13.8441 27.4813 14.3369 27.9049 14.7674C29.1322 16.0847 29.2372 17.525 28.304 19.2684C27.8689 19.5985 27.6319 20.2706 27.0227 20.2976C26.9003 20.2816 26.7829 20.2385 26.6791 20.1716C26.5754 20.1046 26.4877 20.0155 26.4226 19.9106C26.1945 19.5595 26.4616 19.1994 26.4046 18.8513C26.3446 18.7006 26.2399 18.5718 26.1045 18.4822C25.9965 18.4162 25.8044 18.3472 25.7804 18.3922C25.7144 18.5842 25.9605 18.5752 25.9875 18.7373C26.0145 18.8649 26.0145 18.9967 25.9875 19.1244C25.8134 19.5205 25.5044 19.5415 25.2073 19.5535C25.6094 19.6255 26.0385 19.4094 26.3686 19.8145C26.3511 20.1486 26.3561 20.4834 26.3836 20.8168C25.0318 21.9708 23.3149 22.6086 21.5375 22.6172C19.9471 22.6712 18.6928 21.825 18.0087 20.0336C17.0874 17.633 16.7694 15.1935 17.7416 12.6909C18.5638 11.0795 19.8961 10.1613 21.1624 9.15308C21.6431 8.93996 22.1611 8.82364 22.6868 8.81077C23.2124 8.7979 23.7355 8.88873 24.2261 9.07806C24.9012 9.47416 25.7024 9.63919 26.0925 10.5454L26.3926 12.3458C26.3688 12.4677 26.3104 12.5802 26.2245 12.6699C26.1801 12.697 26.1305 12.7148 26.0789 12.722C26.0272 12.7292 25.9747 12.7258 25.9245 12.7119C25.6034 12.5169 25.4024 12.1118 25.0243 12.0187C24.1751 12.0187 24.7092 12.8679 24.4932 13.252C24.1061 13.9932 23.6289 14.6683 23.3739 15.4995C23.1098 16.1867 23.1218 16.7868 23.743 17.2009C24.0053 17.3246 24.2912 17.3902 24.5812 17.3933C24.8712 17.3964 25.1584 17.337 25.4234 17.2189C25.5734 17.1229 25.7234 17.0209 25.8615 16.9189C26.9927 15.9677 25.4564 15.7516 25.5074 15.1034C25.6544 14.3413 26.3026 13.9782 26.5366 13.285C26.5526 13.2559 26.5765 13.232 26.6056 13.216C26.6347 13.2 26.6677 13.1927 26.7009 13.1949C26.734 13.1971 26.7658 13.2088 26.7925 13.2285C26.8192 13.2481 26.8398 13.2751 26.8517 13.306Z" fill="#FCD4A6"/>
<path d="M29.7322 27.3104C30.8274 26.8993 31.9977 26.7973 33.0509 26.1971C33.1132 26.0841 33.1944 25.9826 33.291 25.8971C34.0412 25.474 34.8604 25.2429 35.5805 24.7358C36.4987 24.6068 37.2759 23.7456 38.2811 24.0066C38.5392 24.7628 38.0171 25.435 38.1131 26.1731C38.0745 26.8154 38.1332 27.4598 38.2872 28.0846C38.5542 29.4649 39.2234 30.5841 39.9495 31.6644L36.7628 32.2285C36.6996 32.2625 36.6295 32.2817 36.5578 32.2848C36.4861 32.288 36.4146 32.2749 36.3487 32.2465C34.4401 31.01 32.1968 30.3918 29.9242 30.4761C26.3774 30.5571 23.0436 29.3659 19.7849 27.8385C19.6247 27.7685 19.4727 27.681 19.3318 27.5775C19.1217 27.4184 18.8427 27.2774 18.8667 26.9413C18.9027 26.4732 19.2718 26.5152 19.5538 26.4822C19.8359 26.4492 20.049 26.3862 20.301 26.3712C20.7112 26.3501 21.1224 26.3591 21.5313 26.3982C22.0504 26.4702 22.5515 26.6652 23.0767 26.6983C23.3346 26.7117 23.5903 26.7539 23.8388 26.8243C24.0849 26.8974 24.3369 26.9486 24.592 26.9773C25.1143 26.9699 25.6366 26.9969 26.1554 27.0583C26.6633 27.2136 27.1941 27.2806 27.7247 27.2564C28.3909 27.1033 29.084 26.8723 29.7322 27.3104Z" fill="#FFCE58"/>
<path d="M20.3589 26.7522H19.0596C19.2547 27.4184 19.7408 27.3313 20.0859 27.4994C23.5547 29.1978 27.1375 30.221 30.9244 30.071C32.6708 30.0019 34.3061 30.5931 35.8695 31.4843C36.1626 31.6171 36.3921 31.8595 36.5086 32.1594C36.3955 32.3778 36.2226 32.5596 36.0101 32.6834C35.7975 32.8072 35.5541 32.8679 35.3084 32.8586C33.3909 32.9936 31.4855 33.3747 29.556 33.1827C29.1876 33.2127 28.8173 33.2127 28.4488 33.1827C27.8105 33.2177 27.1703 33.1805 26.5403 33.0717C23.6027 32.1534 20.596 31.4903 17.9074 29.6659C17.4363 29.3478 16.9351 29.0927 16.5931 28.5616C16.308 27.2893 16.8931 26.7342 17.8203 26.4611C18.3755 26.1911 18.9546 26.3981 19.5217 26.3291C19.8488 26.3561 20.2959 26.038 20.3589 26.7522Z" fill="#EFC254"/>
<path d="M61.7348 92.4313C65.9027 92.5483 70.0497 92.8964 74.1336 93.9526C74.6588 94.0877 75.529 94.0277 75.499 94.8829C75.4719 95.66 74.6438 95.639 74.0856 95.8011C71.3953 96.5917 68.6016 96.974 65.7977 96.9353C65.7647 96.2272 65.3386 96.0831 64.8615 96.0141C63.5442 95.8221 62.2389 95.534 60.9066 95.522C60.3845 95.522 59.8083 95.645 59.4062 95.0479C59.5983 93.4515 60.6305 92.8904 61.7348 92.4313Z" fill="#F2F2F2"/>
<path d="M20.6072 60.9571C20.6072 67.3706 20.6072 73.784 20.6072 80.1975C20.6072 82.277 20.6972 84.3625 20.3582 86.4209C19.728 86.9761 19.1879 86.9041 18.7498 86.0999C18.7048 83.9994 18.6388 81.8989 18.8818 79.8284C19.0949 74.6462 19.482 69.476 19.8511 64.3089C19.8183 63.6767 19.9269 63.0452 20.1691 62.4604C19.8511 62.9315 19.9921 63.2106 19.8691 63.3967C19.638 67.6186 19.3169 71.8256 19.0319 76.0385C18.9538 77.1848 19.0319 78.3281 18.9448 79.4684C18.5608 81.6258 18.7768 83.8133 18.6898 85.9858C18.5998 86.1859 18.4797 86.2189 18.3297 86.0849C18.1647 77.6829 18.8128 69.347 19.506 61.0081C19.728 60.444 19.9681 59.9158 20.6162 60.0659V60.645C20.5877 60.7467 20.5846 60.8539 20.6072 60.9571Z" fill="#052B4E"/>
<path d="M18.0935 12.7329C17.0882 14.9114 17.5113 19.2594 18.9457 21.0478C19.8669 22.1941 21.0792 22.4552 22.3215 22.1971C23.7588 21.897 25.2111 21.5609 26.4534 20.5317C26.4752 20.4257 26.536 20.3317 26.6238 20.2683C26.7116 20.205 26.82 20.1769 26.9275 20.1896L28.3048 19.2894C27.4346 20.9728 25.9883 21.657 24.548 22.3561C24.1069 22.5662 23.5067 22.6142 23.5847 23.4664C23.0086 23.3404 22.3845 23.6134 21.8503 23.1843C20.35 23.2353 18.9127 23.0073 17.7334 21.747C17.6731 21.6599 17.5853 21.5956 17.484 21.5646C17.3828 21.5336 17.274 21.5376 17.1753 21.576C15.837 22.0351 15.1708 21.0028 14.5557 19.8746C14.9968 19.3464 15.5909 19.6045 16.215 19.4485C15.5399 18.8153 14.9428 18.6233 14.2856 19.2834C13.8115 17.7501 13.9855 17.51 15.5519 17.483C15.894 17.27 16.203 17.549 16.6712 17.627C15.7109 15.0555 15.981 12.5799 16.7012 10.1253C16.8692 9.54918 17.0372 8.99406 17.4993 8.64898C18.0418 8.36663 18.6045 8.12491 19.1827 7.92582C19.9929 7.73977 20.7941 7.48171 21.6283 7.50272C22.3192 7.4581 23.0129 7.49335 23.6958 7.60774C24.1969 7.83279 24.83 7.90781 24.692 8.85903C24.6616 9.09287 24.545 9.30692 24.3649 9.45916C23.3004 9.25514 22.2067 9.25514 21.1422 9.45916C19.4138 8.98505 17.8654 10.6744 18.0935 12.7329Z" fill="#EDC699"/>
<path d="M28.523 32.8136H29.4652C30.1974 33.2157 30.1764 34.0859 30.3654 34.8301C30.4026 35.0397 30.3551 35.2555 30.2334 35.4302C30.5035 37.7257 30.9866 39.9943 30.9236 42.3318H27.4188C27.2675 42.2664 27.1382 42.159 27.0462 42.0223C26.9542 41.8856 26.9033 41.7253 26.8996 41.5606C26.6836 39.055 26.1225 36.6035 26.0444 34.0769C26.6026 32.9426 27.8028 33.5278 28.523 32.8136Z" fill="#052B4E"/>
<path d="M25.9041 0.748169C26.7503 0.982223 27.6805 0.865196 28.4157 1.57336C28.3419 1.67967 28.243 1.76621 28.1279 1.82534C28.0128 1.88447 27.8849 1.91438 27.7555 1.91244C25.574 2.05947 23.9326 3.34076 22.6243 5.33022C22.3418 5.68713 21.9688 5.96174 21.5441 6.12541C20.5989 6.48249 19.7917 7.16065 18.9485 7.74578C18.4864 8.00084 18.1203 8.46594 17.6132 8.62498C17.073 8.97006 16.803 9.89127 16.0078 9.67823C15.7887 9.25513 15.9538 8.85004 16.0498 8.44194C16.1477 8.11402 16.2629 7.79149 16.3949 7.47572C16.9742 6.43185 17.4757 5.34665 17.8952 4.22897C18.1953 3.77587 18.4954 3.32876 18.7414 2.85765C19.5366 1.65738 20.5719 1.00323 21.8682 0.952214C22.4533 0.748167 23.0534 0.850195 23.6506 0.82619C24.4097 0.78418 25.1629 0.916208 25.9041 0.748169Z" fill="#FFCE58"/>
<path d="M61.7353 92.4313L59.4577 94.7868C59.3797 95.0869 59.2327 95.2669 58.9506 95.2369C58.5335 95.0179 58.0744 94.9128 57.6903 94.5978C57.6378 94.4724 57.6283 94.3331 57.6633 94.2017C58.3715 93.5145 59.1637 92.9594 59.8568 92.2572C60.2356 91.9367 60.5768 91.5743 60.8741 91.177C61.7743 89.3766 62.0473 87.2761 62.7675 85.3796C62.9566 84.8875 63.0676 84.3474 63.2566 83.8523C63.4718 83.3001 63.6482 82.7336 63.7847 82.1569C63.8201 82.0313 63.8632 81.9081 63.9138 81.7878C64.1116 81.3103 64.2741 80.8188 64.3999 80.3175C64.6519 79.7834 64.766 79.1172 65.3241 78.8741C65.7982 79.2492 65.9242 79.9394 66.2933 80.3985C66.7764 80.9986 66.6924 81.5238 66.3593 82.2169C64.877 85.3286 63.4487 88.4764 62.0053 91.6151C61.9005 91.882 61.8104 92.1545 61.7353 92.4313Z" fill="#052B4E"/>
<path d="M22.3721 5.18025C23.8544 2.71968 25.8259 1.41738 28.4155 1.57942C29.6637 2.05053 29.6788 3.14578 29.2947 4.30405C28.7395 5.97543 27.7523 7.30474 26.6511 8.50502C26.315 8.14493 26.351 7.60481 26.222 7.1607C25.9579 6.17348 25.3908 5.62735 24.5566 5.42931C23.8574 4.98821 23.0502 5.8674 22.3721 5.18025Z" fill="#FFCE58"/>
<path d="M18.0843 4.25009C17.8558 5.47742 17.3418 6.63381 16.5839 7.62586C15.1256 7.80891 14.0423 6.90569 12.9831 5.88546C12.9115 5.75457 12.8666 5.61075 12.8511 5.46236C12.8931 4.79021 13.1511 4.16607 13.1511 3.48791C13.1608 3.31333 13.2312 3.14762 13.3501 3.01942C13.469 2.89121 13.6289 2.80856 13.8023 2.78575C14.6845 2.26963 15.4287 1.35742 16.5239 1.45645C17.1421 1.08736 17.7602 1.59448 18.3753 1.45645C18.6234 1.39743 18.8842 1.42605 19.1135 1.53746C19.5096 2.22762 19.0295 2.59971 18.7294 3.03781C18.6364 3.52992 18.2823 3.82999 18.0843 4.25009Z" fill="#FFCE58"/>
<path d="M58.9805 95.1138L59.4576 94.7867C60.8109 95.5099 62.2993 94.9518 63.6856 95.4199C64.3127 95.6299 64.9879 95.6329 65.636 95.762C65.9541 95.825 66.3742 95.882 66.3982 96.3321C66.3982 96.5181 66.0111 96.7342 65.7981 96.9322C63.2835 97.2623 60.7689 97.5954 58.2333 97.5324C53.5312 97.5324 48.8292 97.5324 44.1301 97.5084C43.689 97.5084 43.1939 97.7094 42.8218 97.2083C43.2989 96.6382 43.917 96.7972 44.4872 96.7942C48.4211 96.7702 52.358 96.7942 56.2889 96.7732C56.4219 96.7652 56.5531 96.739 56.679 96.6952C56.9163 96.6238 57.1396 96.5121 57.3391 96.3651C57.8912 95.966 58.2243 95.1678 58.9805 95.1138Z" fill="#F2F2F2"/>
<path d="M44.8438 93.1514C46.8152 92.5303 48.7747 91.8551 50.7611 91.324C51.4513 91.138 51.7513 90.7899 51.8984 90.0217C52.3845 87.5162 52.9156 85.0256 53.4167 82.52C53.8818 80.2005 53.8758 80.1975 55.8743 80.1194C56.0693 80.0504 56.2944 79.9064 56.4234 80.1975C56.5194 80.4135 56.3604 80.5515 56.2074 80.6416C55.9406 80.7624 55.6467 80.8111 55.3552 80.7826C54.9831 80.7826 55.3552 81.0347 55.3072 81.1637C54.9381 83.6723 54.0499 85.9858 53.4287 88.3983C52.9756 90.1447 52.9486 90.1358 54.3559 90.6999C54.4642 90.7385 54.559 90.8074 54.6292 90.8984C54.6994 90.9893 54.7421 91.0985 54.752 91.213C54.503 91.9152 53.9118 91.8941 53.4287 92.1132C53.1133 92.2018 52.7871 92.2462 52.4595 92.2452C52.025 92.2166 51.589 92.2716 51.1752 92.4073C50.431 92.6683 49.6179 92.6533 48.9577 93.2265C48.4746 93.6105 47.9045 93.7036 47.3673 93.9076C47.242 93.953 47.1123 93.9851 46.9802 94.0036C46.1881 93.9586 45.3359 94.2017 44.8438 93.1514Z" fill="#052B4E"/>
<path d="M48.6401 18.3743C49.3573 18.5033 49.5403 17.7742 49.8404 17.2761C51.1127 15.0045 52.388 12.733 53.6003 10.4135C54.2424 9.1922 54.8456 8.01293 56.2169 7.8689C57.7682 7.26876 58.7435 8.25599 59.7637 9.47427C61.8852 12.0129 64.3277 14.1583 66.3232 16.862C66.2542 17.2791 66.3922 17.7622 66.0681 18.0982C65.7081 17.7052 65.615 17.045 65.1349 16.7719C62.6594 14.4764 60.3338 11.9708 57.8973 9.6183C56.661 8.41802 55.9078 8.49304 54.9776 10.0294C53.6573 12.2109 52.376 14.4254 51.1157 16.6549C50.4886 17.195 50.5696 17.9902 50.5846 18.7554C49.8704 19.0495 49.1413 19.5146 48.6401 18.3743Z" fill="#9AA9D7"/>
<path d="M16.6045 28.5586C19.6982 30.53 23.059 31.6313 26.4107 32.7596C25.6906 33.4647 24.8324 33.1226 24.0312 33.2007C23.335 33.2727 22.6299 33.0986 21.9307 33.2847C21.5556 33.4077 21.1895 33.5607 20.8205 33.7078C19.6202 34.581 18.945 33.5427 18.1919 32.7476C17.816 32.2911 17.5253 31.7706 17.3337 31.2112C16.8806 30.407 16.7485 29.4828 16.6045 28.5586Z" fill="#FFCE58"/>
<path d="M30.1315 34.9112L29.4653 32.8107C31.8239 32.7477 34.1794 32.6487 36.508 32.1536L36.754 32.2106C36.8228 33.598 36.722 34.9886 36.4539 36.3515C36.4004 36.4057 36.3366 36.4487 36.2663 36.478C36.196 36.5074 36.1205 36.5225 36.0444 36.5225C35.9682 36.5225 35.8927 36.5074 35.8224 36.478C35.7521 36.4487 35.6883 36.4057 35.6347 36.3515C33.9754 34.9562 32.0579 34.9202 30.1315 34.9112Z" fill="#FFCE58"/>
<path d="M30.1318 34.911C31.9323 34.0888 33.6306 34.584 35.233 35.6522C35.6291 35.9163 35.9712 36.3034 36.4543 36.3574C35.6981 38.959 34.5669 39.4391 32.5984 38.0317C31.6532 37.3536 31.041 36.2643 30.2159 35.4452C30.1949 35.2681 30.1648 35.0881 30.1318 34.911Z" fill="#FFCE58"/>
<path d="M19.3501 40.8615C21.0125 41.4616 20.6644 43.304 20.7724 44.6183C21.0275 47.619 21.2555 50.6377 21.0965 53.6654C21.056 53.8963 20.9864 54.1211 20.8895 54.3346C20.8895 54.3346 20.7754 54.2745 20.7784 54.2805C20.4123 54.5806 20.6854 54.8957 20.7784 55.2018C20.9465 56.102 22.0087 56.336 21.9217 57.4163C21.5556 57.9534 21.1655 58.4305 20.5024 58.2925C19.9022 57.4343 19.4881 56.5161 19.8062 55.3518C20.0643 50.5027 20.2173 45.6596 19.3501 40.8615Z" fill="#052B4E"/>
<path d="M17.3403 31.2052C17.8685 31.4092 17.9195 32.0784 18.2255 32.4955C19.2968 33.8878 19.5728 35.8623 20.6771 37.2036C20.7131 37.4256 20.9592 37.1826 20.8031 37.2576C20.7671 37.2756 20.7611 37.2426 20.7371 37.2006C20.6251 37.0143 20.5762 36.7968 20.5978 36.5805C20.6195 36.3642 20.7104 36.1607 20.8571 36.0003C21.0372 36.0003 21.2382 36.0663 21.2472 36.2704C21.3162 37.8847 22.2885 38.7399 23.1917 39.6821C23.6118 40.1203 24.0919 40.6214 23.8878 41.4436C22.1594 41.1435 20.6981 39.9792 19.0687 39.3581C18.3208 36.6797 17.7435 33.9566 17.3403 31.2052Z" fill="#052B4E"/>
<path d="M13.9882 14.2123C13.6401 13.7202 13.283 13.2371 12.9499 12.73C11.1195 9.94232 11.0655 7.54777 12.7579 4.43005C13.0039 4.67911 12.9679 4.99718 12.9109 5.33026C13.1 6.20646 12.9829 7.15469 13.376 7.97988C13.8171 9.04512 14.4023 10.0143 14.8194 11.0976C14.9814 12.2919 14.7624 13.3571 13.9882 14.2123Z" fill="#FFCE58"/>
<path d="M55.1904 81.0467L54.4282 80.5486C55.1604 80.4916 55.6615 80.4526 56.1626 80.4076C56.1773 80.3746 56.1845 80.3387 56.1836 80.3025C56.0816 80.2365 55.9796 80.1795 55.8836 80.1225C57.3602 79.773 58.868 79.5719 60.3846 79.5224C61.5039 79.3753 62.6231 79.2493 63.7424 79.1263C64.9426 78.9942 64.9426 79.0843 64.4295 80.4676C64.4334 80.6868 64.3842 80.9036 64.2859 81.0996C64.1877 81.2956 64.0434 81.4648 63.8654 81.5928C63.3605 81.8214 62.7952 81.8804 62.254 81.7609C60.4206 81.4158 58.5752 81.5388 56.7328 81.4998C56.2016 81.4848 55.6345 81.5688 55.1904 81.0467Z" fill="#052B4E"/>
<path d="M16.1155 9.63332L17.5738 8.50806C17.6678 8.57007 17.7008 8.63608 17.6728 8.70609C17.6458 8.77811 17.6158 8.81412 17.5858 8.81412C16.1905 11.7998 15.9864 14.8905 17.2407 18.4163L15.5513 17.4651C15.3593 16.4659 14.8522 15.6647 14.3721 14.8545C14.8942 13.0781 15.0172 11.1247 16.1155 9.63332Z" fill="#9A3021"/>
<path d="M44.8446 93.1515C45.5498 93.6466 46.327 93.6796 47.1131 93.6526C48.1364 93.7786 49.1506 93.4216 50.1768 93.5356C50.864 93.5356 51.5482 93.5356 52.2353 93.5356C53.8107 93.7036 55.4191 93.1815 56.9674 93.8627C57.076 94.0224 57.1341 94.2111 57.1341 94.4043C57.1341 94.5974 57.076 94.7862 56.9674 94.9459C56.5293 95.327 56.0252 95.312 55.5211 95.27C51.3201 94.9159 47.0861 94.9699 42.8702 94.7238C42.252 94.6908 41.6009 94.8259 41.0698 94.2587C40.8627 93.5056 41.3488 93.6586 41.6699 93.5986C42.3 93.5056 42.9662 93.8056 43.5723 93.3735L44.8446 93.1515Z" fill="#052B4E"/>
<path d="M20.5841 58.2235L21.9194 57.2903C22.1474 56.5761 22.5345 56.06 23.1797 55.8649L24.2899 54.9077C24.506 54.7217 24.68 54.2476 25.0011 54.5566C25.2471 54.7967 25.1451 55.2108 25.0161 55.5319C24.416 57.0322 23.1617 57.7794 22.1594 58.8056C21.6688 59.256 21.1517 59.6769 20.6111 60.0659L19.5008 61.0081C19.0267 60.0719 19.5638 59.2077 19.6479 58.3075C19.9509 58.1785 20.275 58.2895 20.5841 58.2235Z" fill="#060505"/>
<path d="M19.5813 92.8064C19.7643 95.54 18.0419 97.6705 15.7224 97.5565C15.3173 97.5355 14.7351 97.7215 14.5671 97.2324C14.3631 96.6323 14.9302 96.3502 15.2663 96.0171C16.4395 95.2819 17.8739 94.9369 18.327 93.1274L18.7711 92.7044C19.0621 92.5153 19.3382 92.4583 19.5813 92.8064Z" fill="#59150F"/>
<path d="M20.9016 86.718L21.1116 87.0421C21.5917 88.5064 21.2826 89.6197 20.1184 90.6159C19.5993 90.7539 19.0831 90.8319 18.618 90.3698C18.0959 89.2296 18.0869 87.9693 18.0869 86.736C19.0321 86.0668 19.9683 86.9611 20.9016 86.718Z" fill="#080806"/>
<path d="M37.7294 94.2617C37.4804 94.7688 37.0543 94.5617 36.7152 94.5617C34.4587 94.5617 32.1992 94.5617 29.9397 94.5227C29.6636 94.5227 29.3395 94.6157 29.1565 94.2226C28.7724 93.5025 28.7514 92.8273 29.3395 92.2332C29.8676 91.8821 30.3718 92.2332 30.8879 92.3022C32.7543 93.4605 34.8368 93.4425 36.8412 93.8476L37.7294 94.2617Z" fill="#59140E"/>
<path d="M37.2015 20.1746C36.7994 19.5205 37.2014 19.1004 37.5195 18.6743C38.0257 18.4892 38.5567 18.381 39.0949 18.3532C40.9283 18.2962 42.7797 17.8611 44.5831 18.6533C44.9072 19.7305 44.2321 20.0666 43.6319 20.4537C43.1427 20.5835 42.632 20.6111 42.1316 20.5347C41.9942 20.5178 41.8587 20.4887 41.7265 20.4477C40.2352 20.0936 38.7078 20.3907 37.2015 20.1746Z" fill="#CCE4EA"/>
<path d="M39.9379 31.6524C38.6656 31.0282 38.3686 29.6329 38.0415 28.2616C38.1585 27.8415 38.4676 27.6375 38.7407 27.3944C39.2958 27.0313 39.7849 26.4522 40.5081 26.6412C40.6088 26.7228 40.6906 26.8252 40.7481 26.9413C40.8725 27.2663 40.9679 27.6017 41.0332 27.9435C41.0707 28.1526 41.0917 28.3643 41.0962 28.5767C41.0962 28.7897 41.1112 28.9998 41.0962 29.2128C41.0542 29.771 41.1532 30.3831 40.6971 30.7912C40.5081 31.1543 40.349 31.5654 39.9379 31.6524Z" fill="#CA4F45"/>
<path d="M24.7097 5.14126C26.2101 5.53435 26.5912 6.2035 26.6512 8.50202L26.1141 9.65429C25.4964 9.48292 24.9204 9.18676 24.4217 8.78409C24.7817 7.9739 23.9836 8.29198 23.8545 7.9619C23.5468 7.39688 23.4349 6.74581 23.5365 6.11047C23.6325 5.28829 23.9296 4.79618 24.7097 5.14126Z" fill="#782015"/>
<path d="M31.4459 87.09C31.2149 88.3233 31.5419 89.7696 30.4767 90.6908C30.3048 90.8443 30.093 90.9461 29.8657 90.9843C29.6385 91.0225 29.405 90.9957 29.1924 90.9069C28.5532 90.5618 28.4092 89.8806 28.3492 89.1455C28.3282 88.2062 28.4182 87.345 29.4294 87.243C30.1136 87.4501 30.7407 86.5138 31.4459 87.09Z" fill="#21140C"/>
<path d="M31.4249 24.1356C30.9028 23.9645 30.4317 24.2916 29.9576 24.4176C29.2644 24.5977 28.9973 24.3156 28.7873 23.5744C28.5082 22.5842 28.6733 22.0501 29.6125 22.0351C30.4047 22.0351 31.1968 22.0051 31.992 21.9871C32.7362 22.1191 32.7632 22.8393 32.8742 23.4874C32.8594 23.6342 32.8008 23.7733 32.7062 23.8865C32.5278 24.0268 32.3185 24.1226 32.0957 24.1659C31.8728 24.2093 31.6429 24.1988 31.4249 24.1356Z" fill="#B82527"/>
<path d="M38.2453 24.0965C37.3451 24.3275 36.5409 25.1347 35.5447 24.9547C35.2596 24.6546 35.3797 24.2765 35.4127 23.9164C35.4326 23.5575 35.5022 23.203 35.6197 22.8632C35.8928 22.4971 35.9378 21.948 36.3099 21.6629C36.6554 21.4099 37.0862 21.3022 37.5102 21.3629L37.6602 21.4169C37.8651 21.618 38.0345 21.8524 38.1613 22.11C38.259 22.2557 38.3424 22.4104 38.4104 22.5721C38.4674 22.7437 38.5066 22.9207 38.5274 23.1002C38.5604 23.3373 38.6114 23.5744 38.6354 23.8144C38.6336 23.9342 38.5948 24.0505 38.5244 24.1475C38.4794 24.1735 38.4266 24.1826 38.3755 24.1733C38.3244 24.1639 38.2782 24.1367 38.2453 24.0965Z" fill="#F3EEEF"/>
<path d="M44.64 19.0045C43.6258 18.2903 42.5155 18.7854 41.4533 18.6714C40.6542 18.6189 39.8529 18.6089 39.0527 18.6414C38.8787 18.5063 38.6206 18.4283 38.7737 18.0682C38.8482 18.0568 38.9234 18.0498 38.9987 18.0472C39.0569 17.9612 39.1357 17.8911 39.228 17.8434C39.3203 17.7957 39.423 17.7719 39.5268 17.7742C42.0594 17.5371 44.568 18.1223 47.0946 18.0742C47.2356 18.3743 47.0946 18.5814 46.9416 18.7944C46.8693 18.885 46.7782 18.9587 46.6745 19.0106C46.5709 19.0624 46.4572 19.091 46.3414 19.0945C45.8583 18.9444 45.3902 19.1875 44.9131 19.1785C44.8056 19.1517 44.7097 19.0906 44.64 19.0045Z" fill="#9AB9E0"/>
<path d="M37.2017 20.1747C37.2617 19.9947 37.3037 19.7306 37.5017 19.7696C38.9361 20.0547 40.4154 19.5776 41.8287 20.1357C41.8287 20.5858 42.0628 21.0359 41.7717 21.48C41.6743 21.5489 41.5609 21.5919 41.4423 21.605C41.3237 21.6181 41.2037 21.6009 41.0936 21.555C40.8175 21.45 40.5834 21.2069 40.2714 21.21C39.3712 21.21 38.492 22.1672 37.5707 21.324L37.5197 21.357C37.4087 20.9639 37.3067 20.5678 37.2017 20.1747Z" fill="#8294C9"/>
<path d="M40.7095 30.8001C40.7515 30.281 40.7935 29.7619 40.8325 29.2428C41.0335 29.0477 41.1326 29.2428 41.2226 29.3958C41.2706 29.5138 41.3097 29.6351 41.3396 29.7589C41.4418 30.2847 41.7013 30.7672 42.0838 31.1422C42.1352 31.2465 42.159 31.3622 42.1528 31.4783C42.2488 32.0784 42.6809 31.6283 42.912 31.8114C43.149 31.823 43.3838 31.8633 43.6111 31.9314C43.9119 32.0252 44.2236 32.0797 44.5384 32.0934C45.3155 32.3935 46.1887 32.1684 46.9179 32.7146C47.0053 32.8571 47.0422 33.0249 47.0226 33.1909C47.003 33.3569 46.9281 33.5115 46.8099 33.6298L44.0883 33.1047C43.8092 33.0086 43.5241 32.8046 43.2511 32.8346C41.9488 32.9126 41.1536 32.1804 40.7095 30.8001Z" fill="#7E8EC6"/>
<path d="M16.1158 9.63332C15.7157 11.0677 15.3076 12.501 14.8915 13.9333C14.7895 14.2904 14.7835 14.7345 14.3694 14.8335L13.9883 14.2034C14.0783 13.1531 14.8285 12.2649 14.5284 11.1187C14.8015 10.4585 14.9905 9.75035 15.3176 9.1262C15.5516 8.6851 15.7287 8.09697 16.3438 8.36703C16.2658 8.79613 16.1818 9.21322 16.1158 9.63332Z" fill="#181003"/>
<path d="M36.8415 93.8626C35.2371 94.0889 33.6017 93.9083 32.0854 93.3375C31.6161 93.2129 31.2118 92.9148 30.9541 92.5033C31.0651 92.2393 31.2392 92.2963 31.4162 92.3803C33.3014 92.5307 35.1417 93.0335 36.8415 93.8626Z" fill="#86492B"/>
<path d="M23.1196 27.0163C22.5825 27.1994 22.1234 26.7763 21.6193 26.7433C21.3852 26.5062 20.9531 26.4432 21.1001 25.8821C21.2922 25.2399 21.2622 24.4777 21.8323 24.0516C22.1605 24.0578 22.4792 24.1627 22.7469 24.3527C23.0145 24.5427 23.2187 24.8091 23.3327 25.1169C23.4827 25.786 23.5517 26.4402 23.1196 27.0163Z" fill="#BDE6F7"/>
<path d="M27.6889 27.6344C27.1788 27.5954 26.6477 27.7244 26.1735 27.3764C25.5734 26.8632 25.1293 26.2691 25.3244 25.2999C25.7579 25.032 26.2755 24.9347 26.7767 25.0268C27.4999 25.69 28.067 26.4281 27.6889 27.6344Z" fill="#052B4E"/>
<path d="M20.5838 58.2234C20.3017 58.6735 20.0017 58.8685 19.6476 58.3194C19.3475 57.6172 19.0654 56.9241 18.7954 56.2189C18.6394 55.8048 18.2553 55.3667 18.7174 54.9166C19.2515 54.3945 19.5065 54.9976 19.8096 55.3577L20.5838 58.2234Z" fill="#B42526"/>
<path d="M27.6893 27.6344C27.6623 26.6261 27.1221 25.876 26.7891 25.0268C28.4484 24.5586 28.8385 26.4071 29.7447 27.3103L27.6893 27.6344Z" fill="#FFCE58"/>
<path d="M18.3268 93.1273C18.6539 94.1716 18.0268 94.6277 17.4536 95.1258C16.8559 95.6783 16.0796 95.9977 15.2661 96.026C15.6412 95.5489 16.0133 95.0718 16.3884 94.5977L18.3268 93.1273Z" fill="#85492B"/>
<path d="M19.029 1.55545L18.5819 1.87052C17.9818 1.3454 17.2196 1.60346 16.5654 1.3304C18.0868 0.298162 19.6771 0.091113 21.3425 0.766268C21.4145 0.940308 21.3755 1.06634 21.2195 1.10835C20.4663 1.08135 19.8752 2.1976 19.029 1.55545Z" fill="#FFCE58"/>
<path d="M24.3917 27.3102C24.2942 27.3354 24.1912 27.3282 24.0981 27.2898C24.005 27.2514 23.9269 27.1838 23.8756 27.0972C23.3505 26.5451 23.3414 25.7739 23.2544 25.0327C23.2225 24.8516 23.2428 24.6651 23.313 24.4951C23.3831 24.325 23.5002 24.1785 23.6505 24.0725C24.3227 24.1475 24.6077 24.7897 24.9618 25.3328C25.2379 26.182 25.0548 26.8361 24.3917 27.3102Z" fill="#A5DBEB"/>
<path d="M14.2854 19.2685C14.2404 18.5333 14.5615 18.2272 15.1256 18.3953C15.5325 18.4899 15.9149 18.6692 16.2479 18.9215C16.5808 19.1738 16.8569 19.4935 17.0581 19.8596H14.5555C14.4629 19.7931 14.3892 19.7036 14.3419 19.5999C14.2945 19.4963 14.275 19.382 14.2854 19.2685Z" fill="#D45C3A"/>
<path d="M23.6501 24.0725C23.5541 24.3726 23.4611 24.6546 23.368 24.9457C23.317 25.0837 23.239 25.1077 23.137 25.0147L21.8257 24.0515C21.8257 23.7514 21.8437 23.4513 21.8497 23.1693C22.4228 23.3103 23.119 22.3711 23.5841 23.4513C23.6051 23.6584 23.6261 23.8654 23.6501 24.0725Z" fill="#D56744"/>
<path d="M31.4133 92.3804L30.9512 92.5034L29.4028 92.3744C29.1653 92.1767 29.0094 91.8981 28.9651 91.5922C28.9208 91.2864 28.9912 90.975 29.1628 90.718L30.4771 90.688C30.285 91.6512 30.5341 92.2514 31.4133 92.3804Z" fill="#F0AC80"/>
<path d="M64.3095 80.4526C64.8437 79.3904 64.4836 79.0333 63.5894 79.2794C62.5449 79.5428 61.4627 79.624 60.3906 79.5194C62.017 79.1383 63.6524 78.8142 65.3238 78.8743L64.5586 80.4526C64.4746 80.5907 64.3906 80.5847 64.3095 80.4526Z" fill="#052B4E"/>
<path d="M31.6712 58.5415C31.3711 57.1312 31.2541 55.7269 31.7372 54.3406C32.5804 54.4816 32.2263 55.2408 32.1723 55.7239C32.0642 56.6691 31.6351 57.5483 31.6712 58.5415Z" fill="#151515"/>
<path d="M24.3916 27.3104C24.5806 26.6502 24.7727 25.9931 24.9617 25.3329L25.3248 25.2999C25.6069 25.9931 25.8889 26.6832 26.174 27.3764L24.3916 27.3104Z" fill="#FFCE58"/>
<path d="M33.9817 20.5348L34.7589 20.2347C35.377 20.9669 35.38 21.8731 35.281 22.8123C34.9539 23.9826 34.5308 23.4845 34.0987 22.9084C33.8655 22.1388 33.8253 21.3236 33.9817 20.5348Z" fill="#FCD4A6"/>
<path d="M32.7544 23.4514L31.9922 21.9781C32.1662 21.441 32.4063 21.0059 32.9674 21.0419C33.4325 21.405 33.4985 21.9781 33.5375 22.5632C33.4175 23.0313 33.7296 24.0486 32.7544 23.4514Z" fill="#FCD4A6"/>
<path d="M24.4218 8.78404C25.1359 8.66102 25.6941 8.96709 26.1142 9.65424V10.5545L24.3647 9.40219C24.3828 9.19514 24.4008 8.99109 24.4218 8.78404Z" fill="#5F190F"/>
<path d="M33.2288 22.5723L32.9678 21.042C33.0788 20.7689 33.1898 20.5018 33.4959 20.5018C34.3211 21.141 33.973 22.2152 34.1771 23.0824C34.1771 23.3375 34.1621 23.6075 33.955 23.7186C33.748 23.8296 33.5919 23.6105 33.4899 23.3885C33.3879 23.1664 33.3999 22.8064 33.2288 22.5723Z" fill="#FCD4A6"/>
<path d="M31.4253 24.1356C31.6012 23.9865 31.8075 23.8773 32.0297 23.8157C32.252 23.754 32.485 23.7414 32.7126 23.7786C33.1087 24.5017 33.5048 25.2249 33.2587 26.1521C33.1987 26.1949 33.125 26.2142 33.0517 26.2061L31.4253 24.1356Z" fill="#FBBB8F"/>
<path d="M35.7612 22.8183C35.7401 23.2324 35.7161 23.6495 35.6921 24.0636C35.05 23.8625 35.248 23.1634 35.125 22.6772C35.182 21.9511 34.996 21.2129 35.233 20.5017C35.2872 20.4836 35.3446 20.4771 35.4014 20.4826C35.4582 20.4882 35.5133 20.5057 35.5628 20.5341C35.6124 20.5624 35.6555 20.6009 35.6891 20.6471C35.7228 20.6932 35.7463 20.7459 35.7581 20.8018C35.9278 21.1107 36.0169 21.4573 36.0174 21.8097C36.018 22.162 35.9298 22.5089 35.7612 22.8183Z" fill="#FCD4A6"/>
<path d="M18.6332 90.3698H20.0826C20.3826 90.7898 20.1486 91.0779 19.9145 91.369C19.5664 91.6 19.2094 91.7861 18.8013 91.576C18.5372 91.21 18.6542 90.7778 18.6332 90.3698Z" fill="#E7875F"/>
<path d="M20.9017 86.7181C19.9685 87.2073 19.0323 86.3881 18.1021 86.7362C17.892 86.3821 17.967 86.166 18.3241 86.085H18.5852C18.6752 85.974 18.7562 85.986 18.8342 86.106C19.2939 86.3694 19.8273 86.4748 20.3526 86.4061L20.9017 86.7181Z" fill="#DEB426"/>
<path d="M13.817 2.78561L13.2918 3.45476C13.2324 3.49561 13.1665 3.52605 13.0968 3.54479C12.8537 3.34674 12.3166 3.45777 12.4216 2.94465C12.4787 2.64458 12.8597 2.39252 13.1418 2.23048C13.5829 1.96642 13.6849 2.43453 13.817 2.78561Z" fill="#052B4E"/>
<path d="M18.7892 91.576L19.8214 91.2279C19.8777 91.2837 19.9223 91.3501 19.9528 91.4232C19.9833 91.4963 19.999 91.5748 19.999 91.654C19.999 91.7332 19.9833 91.8117 19.9528 91.8848C19.9223 91.9579 19.8777 92.0243 19.8214 92.0801C19.7464 92.3231 19.6714 92.5632 19.5934 92.8063L18.7832 92.7042L18.7892 91.576Z" fill="#F9AD79"/>
<path d="M21.0937 25.882L21.6128 26.7432H20.3585C20.1575 26.4161 19.8454 26.4881 19.5693 26.4431C19.54 26.4223 19.5177 26.3931 19.5054 26.3593C19.493 26.3256 19.4913 26.2889 19.5003 26.2541C19.5213 26.191 19.5423 26.158 19.5633 26.158C20.0358 25.9193 20.5676 25.8234 21.0937 25.882Z" fill="#FFCE58"/>
<path d="M31.4464 87.09L29.415 87.4201C29.2019 87.4201 29.1149 87.312 29.2079 87.069C29.8408 87.0274 30.4562 86.8439 31.0083 86.5319C31.2754 86.5709 31.6655 86.4838 31.4464 87.09Z" fill="#AD8D2D"/>
<path d="M39.5384 17.7741C39.4935 17.872 39.4171 17.952 39.3214 18.0015C39.2257 18.051 39.1162 18.0671 39.0103 18.0472C38.2211 17.471 37.3419 17.9212 36.5168 17.7471C36.4884 17.7277 36.4667 17.6999 36.4549 17.6677C36.4431 17.6354 36.4416 17.6002 36.4507 17.5671C36.4687 17.5071 36.4897 17.474 36.5108 17.474C37.516 17.6151 38.5662 17.138 39.5384 17.7741Z" fill="#B4C1E3"/>
<path d="M35.7612 22.8183C35.7612 22.1461 35.7612 21.477 35.7612 20.8048C36.3134 20.7568 36.1363 21.3629 36.3014 21.66C36.0553 22.0051 36.5564 22.8333 35.7612 22.8183Z" fill="#BA2929"/>
<path d="M16.5721 1.33045C17.2562 1.44748 18.0964 0.730307 18.5885 1.87057C17.8828 1.89008 17.1819 1.74847 16.5391 1.45648L16.5721 1.33045Z" fill="#352727"/>
<path d="M34.0087 23.1544C34.0176 22.2447 33.8431 21.3426 33.4956 20.5018L33.9817 20.5198C34.3838 21.24 34.2038 22.0592 34.2518 22.8394C34.3508 23.1394 34.2158 23.1874 34.0087 23.1544Z" fill="#FCD4A6"/>
<path d="M13.0972 3.54491C13.1158 3.51094 13.1447 3.48384 13.1799 3.46762C13.215 3.45141 13.2544 3.44694 13.2923 3.45489C13.2623 4.15105 13.3823 4.88022 12.9922 5.50737C12.9262 5.60939 12.8602 5.60639 12.7912 5.50737C12.7762 5.14728 12.7612 4.7872 12.7432 4.42411L13.0972 3.54491Z" fill="#BA9732"/>
<path d="M36.5111 17.465C36.5111 17.558 36.5111 17.648 36.5111 17.738C36.079 17.711 35.6109 17.9451 35.2388 17.471C35.1518 17.408 35.1217 17.342 35.1488 17.2759C35.1758 17.2099 35.2058 17.1739 35.2328 17.1739C35.6859 17.2339 36.151 16.9699 36.5111 17.465Z" fill="#C4D5EE"/>
<path d="M35.2331 20.5017V22.8632C35.1581 23.0073 35.0801 23.0013 35.0051 22.8632C35.0486 21.9773 34.9627 21.0898 34.75 20.2286L35.2331 20.5017Z" fill="#FCD4A6"/>
<path d="M21.3101 0.946302C21.3364 0.889979 21.3497 0.828441 21.3491 0.766259L23.6326 0.703247C23.7136 0.775264 23.7346 0.835276 23.6956 0.880287C23.6838 0.896674 23.6686 0.91027 23.6509 0.920121C23.6333 0.929972 23.6137 0.935839 23.5936 0.937301L21.8412 1.18036C21.6731 1.06933 21.4331 1.19536 21.3101 0.946302Z" fill="#453F2C"/>
<path d="M23.5933 0.937301C23.6198 0.86215 23.633 0.782942 23.6323 0.703247L25.9038 0.748256C25.1536 1.15035 24.3674 0.916296 23.5933 0.937301Z" fill="#B6962F"/>
<path d="M38.7858 18.0681L39.0649 18.6412L37.5195 18.6623C37.8706 18.2542 38.3327 18.1731 38.7858 18.0681Z" fill="#B9E2F5"/>
<path d="M19.5634 26.161C19.5829 26.255 19.5829 26.352 19.5634 26.4461H17.832C18.3542 25.8849 18.9783 26.182 19.5634 26.161Z" fill="#052B4E"/>
<path d="M35.2386 17.174C35.2386 17.273 35.2386 17.372 35.2386 17.474C34.7375 17.369 34.1734 17.7321 33.7383 17.174H35.2386Z" fill="#B2C0E2"/>
<path d="M26.2275 12.7329L26.4286 12.3759C26.6711 12.6337 26.8201 12.9655 26.8517 13.3181C26.7914 13.3136 26.7319 13.3015 26.6746 13.2821C26.2305 13.4261 26.2515 13.048 26.2275 12.7329Z" fill="#FCC6A0"/>
<path d="M65.3033 16.5648C65.9484 16.8019 66.1284 17.363 66.0624 18.0982C65.9274 23.1033 65.4923 28.0785 65.0962 33.0596C65.0812 33.2577 65.0662 33.4527 65.0542 33.6597C64.9072 36.3604 64.9072 36.3604 62.6687 36.3604C61.7054 36.3604 60.7422 36.3424 59.779 36.3304C58.9238 35.1931 58.8638 33.6748 58.4887 32.3244C57.5885 29.0507 56.6883 25.7679 55.8661 22.4672C55.6997 21.9443 55.6416 21.3929 55.695 20.8468C55.8038 20.3084 56.0617 19.8114 56.4392 19.4125C58.9838 18.3322 61.6244 17.6661 64.241 16.8529C64.5891 16.7659 64.9372 16.6338 65.3033 16.5648Z" fill="#99A8D6"/>
<path d="M55.9291 20.7598C56.0551 22.5152 56.6673 24.1176 57.0814 25.777C57.9606 29.3028 59.0378 32.7566 59.782 36.3304L46.813 33.6298C46.834 33.3537 46.858 33.0807 46.882 32.8076C46.738 32.6035 47.4221 32.7386 46.993 32.4175C46.9189 32.2467 46.8771 32.0635 46.87 31.8774C46.8513 31.6199 46.8819 31.3612 46.96 31.1152C47.0053 31.0043 47.0927 30.9158 47.2031 30.8692C47.3189 30.8786 47.4303 30.9182 47.5261 30.984C47.6219 31.0498 47.6988 31.1395 47.7492 31.2442C47.8962 31.5773 48.0793 31.8864 48.2473 32.2075C48.2923 32.3275 48.3283 32.4475 48.3643 32.5735C48.5654 33.1527 49.0545 33.1017 49.4296 33.1737C51.9412 33.6898 54.4437 34.2749 56.9553 34.7821C57.3484 34.8631 57.9876 35.2562 57.7355 34.1549C57.6242 33.6953 57.4808 33.2441 57.3064 32.8046C57.2435 32.6084 57.1954 32.4078 57.1624 32.2045C57.0814 31.7244 56.9643 31.2562 56.8623 30.7851C56.7914 30.5856 56.7093 30.3902 56.6162 30.2C56.2922 29.6239 55.77 29.6179 55.2719 29.5368C53.3195 29.2148 51.362 28.9227 49.3996 28.6606C48.801 28.625 48.2211 28.4393 47.7132 28.1205C47.6015 28.0073 47.5218 27.8665 47.4821 27.7124C47.4821 26.8602 47.4821 26.02 48.1033 25.4079C48.4029 25.2383 48.7434 25.1543 49.0875 25.1648C50.981 25.3509 52.8684 25.6239 54.7588 25.84C55.359 25.909 55.659 25.798 55.449 25.0088C55.4099 24.7338 55.3507 24.462 55.2719 24.1956C55.2209 24.0666 55.1759 23.9346 55.1279 23.8055C55.0409 23.6105 54.9509 23.4154 54.8608 23.2234C53.7986 22.3442 52.5533 22.5332 51.368 22.3862C50.4678 22.2752 49.5196 22.5933 48.6404 22.0861C48.5285 21.9568 48.452 21.8007 48.4184 21.633C48.3433 21.0149 48.5054 20.5378 48.9825 20.2377C51.309 19.9225 53.6758 20.1003 55.9291 20.7598Z" fill="#CBE7F9"/>
<path d="M23.8873 41.4497C23.7088 40.8176 23.3526 40.25 22.8611 39.8143C21.7059 38.9141 20.9167 37.7828 20.9047 36.0604C20.3465 35.2322 20.1545 34.3531 20.6256 33.3748L21.6308 33.0057C23.0712 33.3058 24.5385 33.4498 25.9578 33.9059C26.5129 36.6066 26.9571 39.3072 26.9601 42.1038C26.0328 42.719 25.1926 42.4219 24.3855 41.7558L23.8873 41.4497Z" fill="#052B4E"/>
<path d="M28.6672 89.1816C28.2151 86.395 27.761 83.6073 27.3049 80.8187C26.7507 77.4179 26.1936 74.0111 25.6335 70.5983C25.5446 70.3382 25.5222 70.06 25.5683 69.7891C25.6144 69.5181 25.7276 69.263 25.8975 69.0469C26.2636 68.2878 26.3836 67.4236 26.6357 66.6164C26.7617 65.8962 26.8187 65.1161 27.6859 64.741C28.2051 72.2427 28.6312 79.6124 29.1593 86.9851L29.2073 87.0691L29.4143 87.4202C28.6522 87.6993 28.6402 88.4284 28.6672 89.1816Z" fill="#052B4E"/>
<path d="M24.3857 41.7586C25.2409 41.7076 26.0451 42.2357 26.9123 42.0587C27.5125 43.1329 27.3174 44.4052 27.5305 45.5755C27.6055 45.9986 27.5155 46.4577 27.6415 46.8838C28.2416 52.342 28.3737 57.7973 27.6415 63.2556C27.4885 64.4048 26.9153 65.374 26.7653 66.5113C26.6873 66.7093 26.5702 66.7574 26.4082 66.6493C26.7683 64.3088 27.1854 61.9803 27.4765 59.6277C27.8281 56.6674 27.7726 53.6729 27.3114 50.7277C26.8193 47.4959 25.718 44.5853 24.3857 41.7586Z" fill="#052B4E"/>
<path d="M25.157 56.7622C27.0864 60.393 26.7053 63.0997 23.7227 66.1064C24.7069 63.3037 24.8779 60.333 25.13 57.3773C25.0633 57.2872 25.0296 57.177 25.0345 57.065C25.0395 56.953 25.0827 56.8461 25.157 56.7622Z" fill="#050505"/>
<path d="M23.1797 55.8648C22.8618 56.4213 22.4328 56.9064 21.9194 57.2901C21.3583 56.726 20.7462 56.2099 20.5901 55.2677C20.5241 54.9136 20.2301 54.4725 20.8302 54.3675L20.8902 54.3315C20.8902 55.3937 21.4183 55.8948 22.2615 56.1319C22.5616 55.1686 22.1415 54.3555 21.8714 53.3652C23.0387 53.8423 23.0507 54.8896 23.1797 55.8648Z" fill="#A8BCDB"/>
<path d="M25.1567 56.7622L25.1297 57.3623L23.6533 58.8057C23.9515 57.9963 24.4727 57.2878 25.1567 56.7622Z" fill="#1D1A34"/>
<path d="M26.4081 66.6494H26.6601C26.6917 66.6712 26.7156 66.7023 26.7285 66.7384C26.7414 66.7744 26.7427 66.8136 26.7321 66.8505C26.7081 66.9195 26.6871 66.9525 26.6631 66.9525C26.6619 67.7207 26.3911 68.464 25.8979 69.053C26.084 68.2458 26.237 67.4476 26.4081 66.6494Z" fill="#211F2F"/>
<path d="M20.6075 60.9571C20.4305 60.8521 20.4275 60.75 20.6075 60.657L22.1079 59.7988C21.7778 60.531 21.2047 60.771 20.6075 60.9571Z" fill="#282537"/>
<path d="M64.583 17.15L56.4511 19.5746C55.752 20.2107 54.9298 20.0847 54.1706 19.9557C52.2682 19.6316 50.3627 19.7366 48.4693 19.7246C48.333 19.7537 48.1922 19.754 48.0558 19.7256C47.9194 19.6972 47.7904 19.6406 47.6771 19.5596C47.3331 19.3286 47.0574 19.0094 46.8789 18.6354L47.119 18.0802C47.6591 17.9572 48.1422 18.2603 48.6523 18.3803C49.3155 18.8574 49.9876 18.7944 50.6688 18.4403C51.743 17.4651 53.0693 17.6992 54.2696 17.4801C56.169 17.141 58.0925 17.018 59.9979 16.7179C61.1172 16.5289 62.2364 16.3338 63.3677 16.4449C63.8298 16.4839 64.3999 16.3698 64.583 17.15Z" fill="#97C7EB"/>
<path d="M41.3157 15.6046C41.7748 15.6347 42.2339 15.6557 42.693 15.6977C43.0231 15.7247 43.4132 15.6977 43.3322 16.3158C43.2602 16.8499 42.9391 16.8799 42.579 16.8379C41.6638 16.7299 40.7456 16.6279 39.8304 16.5229C39.3923 16.3098 38.9302 16.4688 38.4831 16.4058C38.183 16.3638 37.7269 16.5919 37.7509 15.9557C37.7749 15.3196 38.198 15.0555 38.6271 15.2746C39.5093 15.7337 40.4365 15.3406 41.3157 15.6046Z" fill="#2A4683"/>
<path d="M41.315 15.6047C40.4148 15.5657 39.5146 15.5417 38.6144 15.4847C38.2933 15.4636 37.9782 15.4846 37.9602 15.9228C37.9422 16.3609 38.3053 16.2228 38.5214 16.2558C38.9625 16.3398 39.4216 16.2018 39.8417 16.5229C39.0985 16.6449 38.3381 16.6101 37.6092 16.4209C37.3361 16.3398 36.823 16.4209 36.877 15.8447C36.931 15.2686 37.2551 14.9895 37.7772 15.0616C38.9445 15.2236 40.1478 15.2326 41.315 15.6047Z" fill="#8FA1D2"/>
<path d="M41.0869 94.2408C45.4319 94.0967 49.7619 94.7239 54.1099 94.5708C55.0521 94.5378 55.9973 94.9489 56.9636 94.8349C56.9853 94.8131 57.0116 94.7964 57.0407 94.7862C57.0697 94.776 57.1007 94.7725 57.1313 94.7759C57.1619 94.7794 57.1913 94.7897 57.2174 94.8062C57.2434 94.8226 57.2654 94.8448 57.2816 94.8709C57.3269 95.0103 57.3472 95.1566 57.3417 95.303C57.2636 95.8731 57.3176 96.4853 56.9876 96.9804C54.0079 97.2295 51.0222 97.0794 48.0395 97.0734C45.906 97.0734 43.7635 97.2955 41.633 96.9324C41.323 96.066 41.139 95.1595 41.0869 94.2408Z" fill="#052B4E"/>
<path d="M41.6333 96.9233L56.9878 96.9713C56.5707 97.3314 56.0876 97.1484 55.6495 97.1514C51.3735 97.1934 47.0976 97.2144 42.8216 97.2414C42.4465 97.0224 41.9574 97.4065 41.6333 96.9233Z" fill="#052B4E"/>
<path d="M26.6626 66.9494C26.6626 66.8474 26.6626 66.7484 26.6626 66.6494C27.7247 62.1043 28.1459 57.433 27.9139 52.7712C27.8119 50.7967 27.5898 48.8283 27.4248 46.8568C27.5178 46.7668 27.5238 46.5718 27.6768 46.5568C28.226 47.685 28.0129 48.9873 28.1119 50.1756C28.4719 53.9248 28.4357 57.7015 28.0039 61.4432C27.5748 64.834 28.0369 68.2968 28.331 71.7056C28.451 73.0799 28.544 74.4872 28.598 75.8465C28.7481 79.5644 29.2462 83.2582 29.1622 86.9911C28.6641 85.8538 28.8621 84.5755 28.7451 83.3902C28.415 80.2065 28.403 76.9777 28.1599 73.788C27.9439 70.9074 27.7098 68.0297 27.6288 64.981C26.9297 65.5241 27.1607 66.4813 26.6626 66.9494Z" fill="#211F2E"/>
<path d="M27.6746 46.5508L27.4226 46.8509C27.3995 45.2383 27.2288 43.6312 26.9125 42.0498C26.6844 39.3491 26.3633 36.6485 25.9072 33.9659C25.9215 33.9471 25.9395 33.9315 25.9601 33.9201C25.9808 33.9088 26.0036 33.9019 26.0271 33.8999C26.0506 33.8979 26.0742 33.9009 26.0965 33.9086C26.1187 33.9164 26.1391 33.9287 26.1563 33.9449C26.6934 36.2254 26.8434 38.587 27.1525 40.9155C27.2185 41.4046 27.2005 41.9027 27.4196 42.3468C27.3326 43.7692 27.8427 45.1405 27.6746 46.5508Z" fill="#18152A"/>
<path d="M25.6428 15.0796C25.8049 15.2146 25.9639 15.3556 26.129 15.4877C26.429 15.7157 26.9121 15.8147 26.8251 16.3488C26.7975 16.5709 26.6917 16.7758 26.5268 16.927C26.3619 17.0782 26.1485 17.1658 25.9249 17.174C25.8855 17.2119 25.838 17.2405 25.7861 17.2576C25.7342 17.2747 25.6791 17.28 25.6248 17.2731C25.1556 17.1249 24.6481 17.1548 24.1995 17.3571C23.2333 17.165 23.2123 16.2528 23.1343 15.3826C23.4343 14.6174 23.6354 13.7803 24.3015 13.3062C24.9287 13.7112 25.1657 14.5334 25.6428 15.0796Z" fill="#E1774D"/>
<path d="M18.0928 12.7329C17.3577 12.2468 17.3187 11.5657 17.8888 10.9325C18.72 10.0323 19.2631 8.50195 20.7904 8.94605C21.0755 9.03007 21.0665 9.1981 21.1415 9.39015C20.2353 10.6504 18.81 11.2326 18.0928 12.7329Z" fill="#5C160E"/>
<path d="M21.9313 14.7045C22.5734 14.9385 22.4714 15.4486 22.1173 15.8147C21.6042 16.3429 20.962 16.6759 20.2599 16.4329C19.5577 16.1898 19.5307 15.4517 19.5577 14.7225C19.5584 14.522 19.5484 14.3217 19.5277 14.1223C19.4047 13.3662 19.5097 12.76 20.2449 12.568C20.656 13.1471 20.719 13.9393 21.1451 14.5364C21.4452 14.9505 21.6792 14.6385 21.9313 14.7045Z" fill="#F9F1EE"/>
<path d="M25.6426 15.0796C24.7604 14.9505 24.5384 14.1254 24.3103 13.3062C24.1183 11.6888 24.1183 11.6888 25.1475 11.7248C25.3575 12.2229 25.2525 13.2041 26.1527 12.661L26.2277 12.721L26.6748 13.2702C26.7829 14.2334 26.1497 14.6055 25.6426 15.0796Z" fill="#F1E4DC"/>
<path d="M21.931 14.7045C21.7479 15.2296 21.4478 15.5477 20.9587 15.3046C20.4126 15.0465 20.7307 14.7345 20.9587 14.4374C20.9827 14.4074 20.9317 14.2424 20.9227 14.2424C19.4644 14.3654 20.6227 13.1741 20.3706 12.697C20.4326 12.565 20.5196 12.535 20.6317 12.607C21.976 12.5079 21.8439 13.7022 21.931 14.7045Z" fill="#792E20"/>
<path d="M25.6163 17.1261L25.9374 17.1741C25.8503 17.2731 25.7663 17.3751 25.6823 17.4741C24.9982 17.686 24.266 17.686 23.5818 17.4741C22.6816 16.991 22.7236 16.2409 23.1497 15.3737C23.6298 15.9048 23.4288 17.1081 24.398 17.1561C24.7941 16.871 25.2052 16.994 25.6163 17.1261Z" fill="#D5633E"/>
<path d="M26.1528 12.661C26.1137 13.1381 26.0567 13.8822 25.5526 13.5071C25.3276 13.3391 24.3313 12.6069 25.1385 11.7247C25.6876 11.7217 25.8377 12.3189 26.1528 12.661Z" fill="#652118"/>
<path d="M20.6259 12.6189L20.3648 12.709C19.7347 12.889 19.6596 13.5312 19.5276 14.1283C19.0685 13.2821 19.3896 12.6279 19.9387 12.1028C20.5478 11.5117 20.5958 12.0758 20.6259 12.6189Z" fill="#E68257"/>
<path d="M26.3839 19.8386C25.8438 19.8086 25.2647 20.0637 24.7726 19.7246C24.3465 19.4245 24.6135 19.3135 24.9316 19.3135C25.4537 19.5055 25.9398 19.5656 26.2069 18.8214C26.3239 18.6534 26.456 18.5393 26.651 18.6473C26.9511 19.1755 26.423 19.4275 26.3779 19.8476L26.3839 19.8386Z" fill="#C36742"/>
<path d="M24.1212 18.9234H21.5376V18.6564H24.1392C24.1663 18.6773 24.1859 18.7065 24.195 18.7394C24.2042 18.7724 24.2025 18.8075 24.1902 18.8394C24.1632 18.8934 24.1422 18.9234 24.1212 18.9234Z" fill="#AE5B3A"/>
<path d="M23.5757 17.483H25.6762C25.373 17.71 25.0046 17.8326 24.6259 17.8326C24.2473 17.8326 23.8788 17.71 23.5757 17.483Z" fill="#862B1B"/>
<path d="M26.384 18.9744C25.9969 19.6675 25.5168 19.8056 24.9316 19.3135C25.2527 19.1874 25.6428 19.3705 25.9159 19.0134C26.0659 18.7853 26.2249 18.7913 26.384 18.9744Z" fill="#82331F"/>
<path d="M26.9274 20.1807L26.4533 20.5348C25.6671 20.4028 26.4233 20.0817 26.3933 19.8536C26.6033 19.8716 26.8224 19.8956 26.9274 20.1807Z" fill="#FCC199"/>
<path d="M25.8738 18.5814L25.3066 18.6474C25.6457 18.3893 25.9068 17.7202 26.3809 18.3293C26.3657 18.3802 26.3403 18.4275 26.3061 18.4681C26.2719 18.5088 26.2297 18.542 26.1821 18.5656C26.1346 18.5893 26.0826 18.6029 26.0296 18.6056C25.9765 18.6083 25.9235 18.6 25.8738 18.5814Z" fill="#903E25"/>
<path d="M24.1221 18.9233C24.1221 18.8333 24.1221 18.7463 24.1371 18.6563C24.3081 18.4132 24.5092 18.2932 24.7552 18.4972C24.777 18.5339 24.7906 18.5749 24.7953 18.6173C24.7999 18.6598 24.7955 18.7027 24.7822 18.7433C24.6082 19.0163 24.3591 18.9503 24.1221 18.9233Z" fill="#C6744B"/>
<path d="M25.8735 18.5813L26.3807 18.3292L26.6597 18.6473L26.3837 18.9744L25.9155 19.0194C25.9065 18.8724 25.8915 18.7343 25.8735 18.5813Z" fill="#FAC19A"/>
<path d="M35.0136 22.8662H35.2417L35.6918 24.0665C35.6528 24.3665 35.4097 24.6156 35.5328 24.9667C34.9476 25.8279 34.0324 25.8309 33.2582 26.167C33.0722 25.3748 32.5381 24.6996 32.7121 23.7904C32.7271 23.6854 32.7391 23.5774 32.7541 23.4723C33.6543 23.7454 33.0272 22.8512 33.2282 22.5931C33.3694 22.8695 33.5288 23.1361 33.7053 23.3913C34.0054 23.7874 33.9394 23.3163 34.0054 23.1753L34.2455 22.8602C34.5065 22.7552 34.7316 23.9074 35.0136 22.8662Z" fill="#FCD4A6"/>
<path d="M38.2456 24.0966L38.5457 23.9796C38.9538 23.7276 39.2688 23.9796 39.5869 24.2377C39.872 24.6428 40.187 25.0329 40.094 25.636C40.01 25.7866 39.8953 25.9179 39.7572 26.0212C39.6192 26.1246 39.461 26.1978 39.2928 26.2361C38.7887 26.3412 38.2726 26.6712 37.7925 26.1461C37.7388 25.4333 37.8964 24.7204 38.2456 24.0966Z" fill="#CA5246"/>
<path d="M37.7867 26.1551L39.2871 25.9031C39.4611 26.6412 38.903 27.0703 38.7589 27.6735L38.0148 28.2736C37.6457 27.6105 37.7867 26.8723 37.7867 26.1551Z" fill="#FCD4A6"/>
<path d="M23.1371 25.0148C23.2168 25.002 23.2945 24.9788 23.3682 24.9458C23.5362 25.662 23.7053 26.3791 23.8753 27.0973L23.1191 27.0163L23.1371 25.0148Z" fill="#93CCE2"/>
<path d="M26.1559 33.9538L25.9068 33.9748L24.5355 34.0108C23.7223 34.0288 22.8611 34.2899 22.324 33.1766C22.246 33.0146 21.8679 33.0566 21.6309 33.0056C23.2092 32.4835 24.8176 32.8915 26.411 32.7535L28.5114 32.8135C28.0793 34.1999 26.9001 33.4377 26.1559 33.9538Z" fill="#FFCE58"/>
<path d="M18.834 79.5403C18.7379 74.1871 19.5421 68.8938 19.6171 63.5496C19.6584 63.368 19.7338 63.196 19.8392 63.0425C20.0852 63.2795 19.8392 63.7026 20.0912 63.9427C19.6531 69.2329 19.191 74.5231 19.083 79.8463C18.858 79.9064 18.7289 79.8584 18.834 79.5403Z" fill="#181919"/>
<path d="M18.8343 79.5403L19.0834 79.8404C18.7443 81.9168 18.8463 84.0173 18.8343 86.1118L18.5852 86.0908C18.5852 84.3684 18.5852 82.646 18.5852 80.9236C18.5822 80.4555 18.4622 79.9304 18.8343 79.5403Z" fill="#191919"/>
<path d="M20.0826 63.9427C19.7826 63.7267 19.8486 63.3696 19.8306 63.0425L19.8666 62.4844L20.0826 62.4514V63.9427Z" fill="#090A0A"/>
<path d="M24.7097 5.14126C24.1936 5.14126 23.8455 5.3273 23.8785 6.06547C23.9055 6.69561 23.8785 7.32876 23.8545 7.96191L21.613 7.82388C21.3334 7.58137 21.1533 7.24409 21.1073 6.87686C21.0614 6.50963 21.1527 6.13836 21.3639 5.83442L22.3721 5.18026C23.1523 5.30029 23.9235 4.54412 24.7097 5.14126Z" fill="#812419"/>
<path d="M21.3638 5.83142C21.3286 6.50408 21.413 7.17765 21.6129 7.82088L19.1043 8.23197C19.0346 8.20939 18.9706 8.17208 18.9167 8.12256C18.8627 8.07305 18.8201 8.0125 18.7916 7.94503C18.7631 7.87755 18.7495 7.80474 18.7517 7.73154C18.7539 7.65834 18.7718 7.58647 18.8042 7.52081C19.5528 6.81324 20.4189 6.24155 21.3638 5.83142Z" fill="#8A291C"/>
<path d="M18.8101 7.50879L19.1101 8.21995C18.6661 8.55094 18.1421 8.75804 17.5918 8.82009C17.5918 8.71807 17.5918 8.61604 17.5918 8.52002C17.9609 8.12993 18.315 7.69783 18.8101 7.50879Z" fill="#912E1E"/>
<path d="M16.3436 8.37597C15.6085 8.60702 15.6025 9.48923 15.2664 10.0744C15.0503 10.4554 15.0953 11.0976 14.5282 11.1276C14.1171 10.0864 13.394 9.23416 13.2289 8.05189C12.7548 7.33772 12.8298 6.55154 13.0489 5.77136C14.1951 6.46452 15.3084 7.24471 16.5717 7.6258C16.4817 7.87485 16.4186 8.12691 16.3436 8.37597Z" fill="#FFCE58"/>
<path d="M21.3103 0.946368L21.8414 1.18042C20.6621 1.41748 19.7199 2.18265 18.8407 3.07085H18.7507C18.6547 2.50972 19.3268 2.17065 19.0508 1.54651C19.8639 1.74155 20.4851 0.808336 21.3103 0.946368Z" fill="#28220A"/>
<path d="M18.7411 3.07971H18.8312C18.6841 3.56582 18.5701 4.07895 18.084 4.25899C18.1044 4.02726 18.1735 3.80244 18.2867 3.59923C18.4 3.39602 18.5548 3.21898 18.7411 3.07971Z" fill="#18150C"/>
<path d="M55.1907 81.0467C58.1354 80.9927 61.074 81.0837 64.0067 81.3198C64.0817 81.4076 64.1249 81.5182 64.1293 81.6337C64.1336 81.7491 64.0989 81.8627 64.0307 81.9559C63.7036 82.487 63.7126 83.1562 63.5146 83.7563C62.8364 86.1409 62.1583 88.5284 61.4801 90.919C61.4504 91.0544 61.3915 91.1818 61.3076 91.2922C61.2236 91.4026 61.1166 91.4933 60.994 91.5581C59.8802 91.6945 58.7565 91.7307 57.6362 91.6661C57.3725 91.6688 57.1107 91.621 56.8651 91.5251C56.2349 90.3609 55.3797 91.5701 54.6716 91.2251C54.3295 90.802 53.8824 90.943 53.4863 90.973C52.6701 91.033 52.34 90.832 52.6701 89.7457C53.5613 86.8501 54.3655 83.9454 55.1907 81.0467Z" fill="#03325D"/>
<path d="M57.4468 91.2581C58.6471 91.3631 59.8474 90.913 61.0056 91.5341C60.7056 91.8792 60.4235 92.2753 59.9974 92.4343C59.7769 92.5955 59.5235 92.706 59.2553 92.7579C58.9871 92.8097 58.7108 92.8017 58.446 92.7344C58.0654 92.6496 57.7216 92.4457 57.4648 92.1523C57.4237 91.8559 57.4177 91.5558 57.4468 91.2581Z" fill="#03325D"/>
<path d="M58.227 92.4193L59.9975 92.4373C59.3433 93.2055 58.6952 93.9857 57.7559 94.2557C57.5129 94.4598 57.3028 94.4358 57.1288 94.1327C57.1018 93.9947 57.0748 93.8566 57.0508 93.7186C57.0868 93.2415 57.4049 93.0495 57.6929 92.8184C57.8572 92.6679 58.0361 92.5342 58.227 92.4193Z" fill="#03325D"/>
<path d="M57.1982 95.1558L57.2342 94.8558C57.3302 94.5887 57.4233 94.3156 57.7383 94.5557C58.2154 94.5557 58.7196 94.4507 58.9776 95.1198L57.4563 96.6682C56.7871 96.3021 57.1382 95.693 57.1982 95.1558Z" fill="#052B4E"/>
<path d="M63.5266 83.7323C63.5086 83.0601 63.5266 82.403 64.0428 81.9319C64.0528 82.5699 63.8731 83.1965 63.5266 83.7323Z" fill="#052B4E"/>
<path d="M64.0396 81.9558C64.0396 81.7428 64.0246 81.5327 64.0156 81.3197C64.1146 81.0196 64.2107 80.7405 64.3157 80.4525C64.3987 80.448 64.4818 80.448 64.5647 80.4525C64.5347 81.0256 64.4357 81.5627 64.0396 81.9558Z" fill="#052B4E"/>
<path d="M57.7381 94.5497L57.234 94.8498L56.9609 94.8288C56.9609 94.5288 56.9609 94.2287 56.9609 93.9286C57.039 93.8206 57.123 93.8116 57.213 93.9076C57.2604 94.0115 57.3383 94.0985 57.4364 94.157C57.5346 94.2154 57.6482 94.2425 57.7621 94.2347C57.7472 94.3391 57.7391 94.4443 57.7381 94.5497Z" fill="#052B4E"/>
<path d="M13.0487 5.7714C13.0045 6.53623 13.0651 7.30352 13.2288 8.05193C12.2445 7.40378 13.0037 6.34754 12.8027 5.51335C12.8334 5.49627 12.868 5.4873 12.9032 5.4873C12.9384 5.4873 12.973 5.49627 13.0037 5.51335C12.9936 5.55719 12.9923 5.60262 13.0001 5.64695C13.0078 5.69127 13.0243 5.73359 13.0487 5.7714Z" fill="#30242A"/>
<path d="M57.1985 95.156C57.2795 95.6571 57.0425 96.2393 57.4566 96.6564C57.4341 96.7598 57.3726 96.8507 57.2848 96.9099C57.1971 96.9692 57.0898 96.9923 56.9854 96.9744C57.0335 96.3683 56.7664 95.7051 57.1985 95.156Z" fill="#052B4E"/>
<path d="M47.356 93.6316C47.8091 93.2085 48.3972 93.2565 48.9043 93.0314C50.007 92.6249 51.1481 92.3313 52.3101 92.1552H53.3063C54.3176 91.8882 55.3228 91.4801 56.364 91.9902C56.7121 92.7644 56.064 92.8604 55.7639 93.2085C55.6483 93.278 55.5228 93.3296 55.3918 93.3615C54.8049 93.4019 54.2237 93.5025 53.6574 93.6616C53.1233 93.8716 52.5712 93.7846 52.025 93.8026H50.0536C49.1654 93.7036 48.2502 93.9526 47.356 93.6316Z" fill="#03325D"/>
<path d="M56.4266 92.1672C55.4124 91.9452 54.4221 92.1912 53.4259 92.4013C53.3532 92.3267 53.3105 92.2279 53.306 92.1238C53.3016 92.0197 53.3358 91.9176 53.4019 91.8372C53.702 91.267 54.3891 91.8371 54.6772 91.216C55.0207 91.0658 55.3535 90.8924 55.6734 90.6969C56.2736 90.2828 56.5736 90.5409 56.7117 91.246C56.78 91.4086 56.7889 91.59 56.7368 91.7585C56.6846 91.927 56.5748 92.0717 56.4266 92.1672Z" fill="#59140E"/>
<path d="M52.4026 92.3833C51.2293 92.5333 50.1251 93.2294 48.9038 93.0194C49.4049 91.8431 50.4042 92.3682 51.1633 92.0922C51.5414 91.9151 51.9345 92.0082 52.3216 92.0172C52.3539 92.033 52.3822 92.056 52.4045 92.0843C52.4267 92.1126 52.4423 92.1456 52.4501 92.1807C52.4579 92.2159 52.4576 92.2524 52.4494 92.2874C52.4412 92.3225 52.4252 92.3552 52.4026 92.3833Z" fill="white"/>
<path d="M47.3554 93.6315H50.143C50.224 93.6976 50.254 93.7636 50.227 93.8326C50.2 93.9016 50.173 93.9316 50.143 93.9316C49.1378 93.7816 48.0845 94.2587 47.1123 93.6315C47.1933 93.627 47.2744 93.627 47.3554 93.6315Z" fill="#052B4E"/>
<path d="M52.403 92.3832C52.397 92.2952 52.397 92.207 52.403 92.1191C52.334 92.0231 52.322 91.9541 52.367 91.909C52.3995 91.8807 52.4409 91.8648 52.484 91.8641L53.4052 91.837C53.4052 92.0261 53.4202 92.2121 53.4292 92.4012L52.403 92.3832Z" fill="#59140E"/>
<path d="M52.4898 91.8642C52.4481 91.9438 52.4207 92.0301 52.4088 92.1192L51.1665 92.0922C51.5626 91.6691 52.0367 91.8612 52.4898 91.8642Z" fill="#052B4E"/>
<path d="M64.5825 17.15C63.4752 16.4989 62.323 16.88 61.1917 16.979C60.7866 17.015 60.3875 17.204 59.9644 17.129C57.5279 17.054 55.0883 17.027 52.6487 17.015C52.0486 17.015 51.3885 17.15 50.8813 16.5499C52.1896 13.9333 53.723 11.5327 55.1903 9.06616C55.7275 8.16595 56.9907 8.23497 57.8339 9.06616C60.3125 11.5717 62.8031 14.0593 65.2907 16.5679C65.242 16.7233 65.1491 16.8611 65.0233 16.9645C64.8976 17.0679 64.7444 17.1324 64.5825 17.15Z" fill="#6A79BB"/>
<path d="M50.8816 16.5499C53.6422 16.5919 56.4058 16.4749 59.1575 16.85C59.4425 16.889 59.7576 16.799 59.9647 17.1231L50.6625 18.4254C50.1944 18.3623 49.6483 18.3503 50.2004 17.5402C50.4225 17.2131 50.5155 16.748 50.8816 16.5499Z" fill="#5D62AC"/>
<path d="M20.6256 33.3747L20.9047 36.0603C20.8777 36.6244 20.8507 37.1886 20.8087 38.0918C19.6776 36.3632 18.8071 34.4776 18.2251 32.4955C18.3795 32.5241 18.5247 32.5896 18.6485 32.6862C18.7723 32.7828 18.871 32.9078 18.9363 33.0506C19.4164 33.8758 19.9805 33.8818 20.6256 33.3747Z" fill="#FFCE58"/>
<path d="M20.8299 54.3706C20.5028 54.5776 20.6618 54.9707 20.5898 55.2708C20.2117 54.6166 20.2898 53.9355 20.4248 53.1703C20.9469 53.4884 20.8419 53.9475 20.8299 54.3706Z" fill="#8393B3"/>
<path d="M52.1691 93.6466C52.6887 93.7158 53.2165 93.6103 53.6695 93.3465C54.1916 93.5146 54.6987 93.2205 55.2148 93.2655C55.7549 93.4275 56.3101 93.1575 56.8502 93.3405C56.9736 93.3833 57.0848 93.4554 57.1743 93.5506C57.1743 93.6766 57.1893 93.8056 57.1953 93.9316L56.9432 93.9526L52.1571 93.9316C52.0701 93.8686 52.0431 93.8056 52.0701 93.7426C52.0971 93.6796 52.1421 93.6466 52.1691 93.6466Z" fill="#052B4E"/>
<path d="M52.169 93.6467C52.169 93.7397 52.169 93.8357 52.169 93.9287H50.1436V93.6287L52.169 93.6467Z" fill="#052B4E"/>
<path d="M41.7323 21.3299C41.7323 20.9308 41.3302 20.4807 41.8283 20.1296C41.8791 20.1528 41.9347 20.1631 41.9904 20.1596C42.4045 20.3907 42.8036 20.6428 42.7766 21.3059C42.6415 21.9691 42.5245 22.6442 41.8944 22.9263C41.8317 22.8972 41.7756 22.8556 41.7296 22.804C41.6837 22.7524 41.6489 22.6919 41.6273 22.6262C41.5785 22.4838 41.5493 22.3354 41.5403 22.1851C41.5248 21.8878 41.5912 21.592 41.7323 21.3299Z" fill="#DA7A59"/>
<path d="M42.6174 21.2459L41.9902 20.1656L43.5446 20.2017C43.5922 20.2423 43.626 20.2969 43.641 20.3577C43.6561 20.4185 43.6518 20.4825 43.6286 20.5407C43.3405 20.8708 43.1545 21.4169 42.6174 21.2459Z" fill="#8F94C0"/>
<path d="M43.5483 20.3997C43.5528 20.3338 43.5528 20.2676 43.5483 20.2017L44.6436 19.0014C44.7081 19.0004 44.7722 19.0116 44.8326 19.0344C45.0817 20.1447 44.4365 20.5017 43.7524 20.7778C43.5573 20.8588 43.4883 20.6218 43.5483 20.3997Z" fill="#F5A06D"/>
<path d="M43.5481 20.3997C44.3553 20.4507 44.6163 19.7756 44.8294 19.0374C45.3305 18.9744 45.7956 18.2182 46.3297 18.9294C46.2877 19.1544 46.1107 19.2294 45.9966 19.3795C45.4904 19.7473 45.0175 20.159 44.5833 20.6098C45.0724 20.0516 45.7026 19.7096 46.2037 19.1754C46.4408 19.1094 46.6748 19.0254 46.9029 19.2084C46.9795 19.3305 47.0289 19.4678 47.0476 19.6107C47.0662 19.7537 47.0537 19.899 47.0109 20.0366C46.7775 20.4994 46.4612 20.9154 46.0777 21.2639C45.9006 21.462 45.6336 21.564 45.6066 21.8971C45.9606 21.9601 46.2607 21.624 46.6088 21.735C46.708 21.7568 46.799 21.8062 46.8713 21.8776C46.9435 21.949 46.9941 22.0395 47.017 22.1384C47.0399 22.2374 47.0343 22.3408 47.0008 22.4367C46.9674 22.5326 46.9074 22.6171 46.8278 22.6802C46.7129 22.8216 46.5843 22.9513 46.4438 23.0673C46.0537 23.4154 45.5826 23.6135 45.2435 24.0456C44.9434 24.3696 44.6433 24.6457 44.3613 25.0058C43.302 26.2961 42.1048 27.1603 40.5054 26.7732L38.78 27.6734C38.5669 26.9202 39.1281 26.4941 39.3081 25.903L40.0133 25.5249C40.2232 25.0894 40.4734 24.6745 40.7605 24.2856C40.8775 24.0816 41.0005 23.8805 41.1265 23.6855L41.3876 23.2354C41.5106 23.0343 41.6427 22.8393 41.8827 22.8453L42.6119 21.2519L43.5481 20.3997Z" fill="#FCD4A6"/>
<path d="M40.5107 26.7732C41.8851 26.4401 43.2804 26.1731 44.2406 24.7537C45.5609 24.7897 46.9412 24.3876 48.1085 25.5219L47.6224 27.6614C47.2023 28.0395 46.7822 28.4176 46.2031 28.3065C44.7807 27.5414 43.2024 27.9075 41.747 27.5084C41.3419 27.3973 40.9008 27.4484 40.5828 27.0463C40.5374 26.9623 40.5127 26.8687 40.5107 26.7732Z" fill="#8092C9"/>
<path d="M40.5832 27.0463C42.2006 27.2113 43.8209 27.3643 45.4383 27.5504C45.8284 27.5954 46.3145 27.5504 46.4045 28.2345C46.5546 28.6156 46.4495 28.8647 46.1225 28.9937C45.2223 29.0657 44.343 28.7567 43.4488 28.6786C42.5546 28.6006 41.5404 28.8317 40.7722 27.9495C40.6029 27.6808 40.5358 27.3603 40.5832 27.0463Z" fill="#2A377E"/>
<path d="M41.0451 29.4739L40.832 29.2428V28.4776C41.3842 28.1295 41.9483 28.5286 42.5034 28.4326C43.5447 28.5706 44.5889 28.7057 45.6271 28.8737C47.0945 29.1738 47.2535 29.4379 46.6174 30.5541C46.1733 30.6921 45.7442 30.4131 45.3031 30.4701C45.072 30.5136 44.8349 30.5136 44.6039 30.4701C44.4797 30.3606 44.3345 30.2776 44.1771 30.226C44.0198 30.1744 43.8536 30.1554 43.6887 30.17C43.4728 30.2211 43.2473 30.2149 43.0345 30.152C42.767 29.9371 42.4288 29.8301 42.0863 29.8519C41.8956 29.87 41.7032 29.8454 41.5232 29.78C41.3431 29.7146 41.1798 29.6101 41.0451 29.4739Z" fill="#2A377F"/>
<path d="M42.5399 28.5796L40.8235 28.4776C40.8055 28.3005 40.7905 28.1235 40.7725 27.9495L43.5451 28.3245C43.32 29.0177 42.9059 28.6696 42.5399 28.5796Z" fill="#8092CA"/>
<path d="M41.8888 22.8394L41.4987 23.5055C40.3824 23.9346 39.2692 24.3607 38.3029 23.1095L38.2249 22.6564C38.1799 21.8522 38.696 21.9722 39.0741 21.9872C39.4522 22.0022 39.8903 22.1702 40.3104 22.1432C40.8355 22.1702 41.3817 22.0922 41.8108 22.5723C41.8476 22.6578 41.8738 22.7475 41.8888 22.8394Z" fill="#2B3A83"/>
<path d="M37.5649 21.3239C38.6062 21.528 39.5244 20.7898 40.5356 20.7748C40.8747 21.4259 40.4096 21.6 40.0855 21.858C39.7224 22.0531 39.3413 21.9811 38.9663 21.9631C38.7928 21.9394 38.6163 21.952 38.4479 22C38.2795 22.0481 38.1229 22.1305 37.988 22.2421C37.7438 21.9951 37.594 21.6701 37.5649 21.3239Z" fill="#C4B8C0"/>
<path d="M41.3154 23.8355L41.0153 24.4657C40.4902 24.7507 39.9681 24.8528 39.452 24.4297L38.5518 23.9916C38.5518 23.9165 38.5518 23.8445 38.5518 23.7725C39.479 23.5625 40.4002 23.4664 41.3154 23.8355Z" fill="#2F3880"/>
<path d="M41.3153 23.8356L38.5577 23.7726C38.4525 23.7043 38.3713 23.6048 38.3255 23.488C38.2798 23.3712 38.2718 23.243 38.3026 23.1215C39.3199 23.7936 40.4391 23.3105 41.4984 23.5176C41.4354 23.6106 41.3873 23.7186 41.3153 23.8356Z" fill="#7F8EC4"/>
<path d="M37.9878 22.2422C38.0718 21.6421 38.4229 21.6421 38.807 21.7231C39.2871 21.9122 39.8212 21.8281 40.2743 22.1552C40.3288 22.2216 40.3547 22.3068 40.3463 22.3923C40.3463 22.4793 40.3253 22.5213 40.3073 22.5213C39.6292 22.8724 38.879 21.7381 38.2248 22.6563C38.1468 22.5183 38.0688 22.3803 37.9878 22.2422Z" fill="#445DAA"/>
<path d="M46.7887 19.2984L46.0835 19.2834L46.3356 18.9293L46.8637 18.6293C47.0381 18.6487 47.2032 18.7179 47.3394 18.8285C47.4756 18.9392 47.5771 19.0867 47.6319 19.2534C47.3618 19.5565 47.0887 19.4935 46.7887 19.2984Z" fill="#7A98CD"/>
<path d="M40.307 22.2961C39.7574 22.2756 39.23 22.0741 38.8066 21.723L40.0339 21.621C40.382 21.549 40.6851 21.2759 41.0542 21.3029L41.7323 21.3299L41.8043 22.2751C41.3264 22.4738 40.7903 22.4813 40.307 22.2961Z" fill="#29357D"/>
<path d="M41.0539 21.3029C40.7539 21.543 40.4328 21.78 40.0337 21.621C40.2527 21.3839 40.6488 21.2939 40.5348 20.7748C40.7089 20.9518 40.8829 21.1349 41.0539 21.3029Z" fill="#6F80A7"/>
<path d="M44.5863 30.359L45.1144 30.0589C45.5181 30.2826 45.9578 30.4339 46.4137 30.506C46.7138 30.506 47.0138 30.533 47.1129 30.9741C47.1129 31.2742 47.1129 31.5503 47.1129 31.8413C46.9995 31.9738 46.8572 32.0784 46.6969 32.1471C46.5367 32.2157 46.3628 32.2467 46.1887 32.2374C45.9322 32.2459 45.6755 32.2258 45.4235 32.1774C45.0284 32.0312 44.6114 31.9531 44.1902 31.9463C43.8901 31.9463 43.6111 31.9463 43.323 31.9463C42.8507 31.8513 42.4125 31.6317 42.0537 31.3102C41.2225 31.2592 41.2795 30.41 41.0635 29.7828C41.4056 29.4618 41.8016 29.6808 42.1707 29.6238C42.492 29.6807 42.7917 29.8239 43.0379 30.0379L43.5991 29.7708C43.8631 30.1129 44.3342 29.9749 44.5863 30.359Z" fill="#29357C"/>
<path d="M45.3664 31.8534H46.1105C46.3716 32.2615 46.8727 32.0634 47.1518 32.4265C47.4848 32.9937 46.9267 32.6246 46.8787 32.7956C46.018 32.8297 45.1589 32.6962 44.3491 32.4025C44.3223 32.3125 44.3302 32.2157 44.3713 32.1312C44.4125 32.0468 44.4838 31.9808 44.5712 31.9464C44.8232 31.7874 45.1203 32.0934 45.3664 31.8534Z" fill="#283881"/>
<path d="M42.8283 32.1114C42.5012 32.0394 42.1141 32.0724 41.8681 31.8654C41.496 31.5653 41.9431 31.6133 42.0481 31.5203C42.3662 31.2982 42.5972 31.4933 42.8163 31.7424C42.8534 31.7963 42.8742 31.8597 42.8764 31.9251C42.8785 31.9906 42.8618 32.0552 42.8283 32.1114Z" fill="#284497"/>
<path d="M42.8281 32.1114C42.8281 32.0334 42.8281 31.9524 42.8281 31.8714C42.8506 31.831 42.883 31.7969 42.9223 31.7725C42.9615 31.748 43.0063 31.7339 43.0525 31.7315C43.0987 31.7291 43.1448 31.7385 43.1863 31.7587C43.2279 31.779 43.2637 31.8095 43.2902 31.8474L44.0914 31.5653C44.1373 31.6246 44.1699 31.6931 44.187 31.7661C44.2041 31.8391 44.2053 31.9149 44.1904 31.9884C44.0314 32.3185 43.8094 32.3665 43.5393 32.1834L42.8281 32.1114Z" fill="#283881"/>
<path d="M43.2896 31.8474L42.8275 31.8714L42.0474 31.5204C42.0548 31.4495 42.0548 31.3781 42.0474 31.3073C42.5335 31.2623 42.9956 31.2803 43.2896 31.8474Z" fill="#5D74B8"/>
<path d="M43.5391 32.1834C43.7491 32.1444 43.9652 32.1234 44.0852 31.8654C44.3853 31.6583 44.5953 31.6253 44.6013 32.1474L44.3492 32.4145C44.2062 32.4568 44.054 32.4576 43.9106 32.4166C43.7671 32.3757 43.6383 32.2949 43.5391 32.1834Z" fill="#2F438A"/>
<path d="M42.3022 29.7769H41.0599C41.0599 29.6749 41.0599 29.5728 41.0449 29.4768L42.3022 29.4948C42.3302 29.5166 42.351 29.5462 42.3623 29.5798C42.3735 29.6135 42.3745 29.6496 42.3652 29.6839C42.3442 29.7439 42.3232 29.7769 42.3022 29.7769Z" fill="#6075B9"/>
<path d="M48.0996 19.5684C49.705 18.8542 51.3734 19.2473 52.9878 19.3644C54.14 19.4454 55.2953 19.4964 56.4506 19.5744C56.4656 20.0875 56.1025 20.3636 55.9284 20.7597C53.5519 21.0027 51.1994 20.2976 48.8228 20.4956C48.7785 20.5243 48.7275 20.5407 48.6748 20.5434C48.6221 20.546 48.5697 20.5347 48.5227 20.5106C48.2617 20.2706 47.9886 20.0485 48.0996 19.5684Z" fill="#DCF0EB"/>
<path d="M57.1652 30.7551L57.4653 32.1264C56.8351 32.8646 56.136 32.2585 55.4668 32.2765C54.7166 32.2765 54.0055 31.8954 53.2493 31.9464C53.0458 31.9292 52.8447 31.891 52.6491 31.8324C51.7562 31.5859 50.8436 31.4172 49.9215 31.3282C49.2764 31.1512 48.6162 31.0612 47.9651 30.9171C47.693 30.8223 47.4486 30.6615 47.2539 30.449C46.9328 29.8879 46.8338 29.3958 47.554 29.1827C48.0191 29.1137 48.4542 29.3898 48.9163 29.3598C49.2974 29.3598 49.6815 29.3598 50.0656 29.3808C50.2533 29.385 50.4402 29.4071 50.6237 29.4468C51.0754 29.6285 51.5646 29.6975 52.049 29.6479C52.2934 29.5878 52.5488 29.5878 52.7932 29.6479C53.5614 30.089 54.4256 29.9479 55.2207 30.218C55.8809 30.335 56.6161 30.0499 57.1652 30.7551Z" fill="#243D7B"/>
<path d="M57.8913 33.963C58.1689 34.4123 58.3019 34.936 58.2724 35.4633L48.5172 33.3629C48.0281 33.2578 47.734 33.0448 48.0881 32.4146C48.5262 32.0786 48.9883 32.3996 49.4264 32.3606C49.9575 32.3606 50.4616 32.5737 50.9838 32.6367C51.5874 32.6322 52.188 32.7233 52.7632 32.9068C53.3633 32.9968 53.9634 32.9068 54.5396 33.0628C54.7864 33.1493 55.042 33.2087 55.3017 33.2398C55.8212 33.2373 56.3397 33.2846 56.8501 33.3809C57.2312 33.5099 57.6213 33.5999 57.8913 33.963Z" fill="#25407D"/>
<path d="M55.2178 33.6479C55.115 33.6657 55.0093 33.6521 54.9145 33.6087C54.8197 33.5653 54.7403 33.4942 54.6866 33.4048C53.9935 32.9757 53.1863 33.3268 52.4901 32.9877C51.989 32.8197 51.4729 32.9577 50.9688 32.8857C50.4935 32.6477 49.9623 32.5439 49.4324 32.5856C48.9793 32.4956 48.5322 32.3215 48.1001 32.1985C47.668 32.0755 47.638 31.6584 47.56 31.2683C47.5467 31.215 47.5453 31.1595 47.5558 31.1056C47.5663 31.0518 47.5885 31.0008 47.6208 30.9565C47.6532 30.9121 47.6948 30.8754 47.7429 30.8489C47.791 30.8224 47.8443 30.8068 47.8991 30.8032C48.5712 30.6712 49.1864 31.0583 49.8405 31.1033C50.7947 31.1723 51.716 31.5504 52.6792 31.5474L53.2013 31.5624C53.8404 31.9104 54.5366 31.9465 55.2208 32.0515C55.9739 32.2495 56.7691 32.2375 57.4713 32.6936C57.8644 32.9937 57.8674 33.4798 57.9004 33.9509C57.5763 33.9209 57.2162 34.0739 56.9642 33.6809C56.694 33.5454 56.3969 33.4721 56.0947 33.4664C55.7925 33.4607 55.4929 33.5227 55.2178 33.6479Z" fill="#2A4480"/>
<path d="M55.6708 24.7357C55.8178 25.2488 55.9708 25.762 56.1689 26.4521L49.1233 25.5159C48.6672 25.2488 47.6229 25.7229 48.052 24.3306C48.6522 23.7605 49.3783 24.0966 50.0175 23.8535C50.2084 23.8122 50.4071 23.8257 50.5906 23.8925C51.1907 24.4927 51.8599 24.0816 52.505 24.0876C52.637 24.0936 52.7679 24.1148 52.8951 24.1506C53.7953 24.5137 54.8516 23.8355 55.6708 24.7357Z" fill="#253E7C"/>
<path d="M50.6715 29.7529H50.1374C49.8373 29.4108 49.4442 29.4528 49.0692 29.4528C48.8461 29.4634 48.6229 29.436 48.409 29.3718C48.1629 29.2068 47.8749 29.1558 47.6288 28.9847C47.5412 28.8811 47.4781 28.7589 47.4443 28.6275C47.4106 28.496 47.4069 28.3586 47.4338 28.2256C47.4634 28.0962 47.5302 27.9784 47.6258 27.8865C50.3625 28.3096 53.0961 28.7597 55.8387 29.1348C56.5289 29.2308 56.964 29.4498 56.952 30.353C56.2708 30.7461 55.5956 30.317 54.9145 30.323C54.1823 30.104 53.3811 30.272 52.697 29.7709L52.1419 30.047C51.6918 29.6719 51.1816 29.7109 50.6715 29.7529Z" fill="#26417F"/>
<path d="M48.7093 21.9241C50.5697 22.0261 52.4332 22.1552 54.2966 22.2242C55.0468 22.2482 55.1968 22.7613 55.1968 23.4665C54.8667 23.8986 54.4286 23.8506 53.9965 23.8446C53.5134 23.8085 53.0603 23.5445 52.5652 23.5865C51.872 23.5565 51.1789 23.6165 50.4857 23.5235C49.9481 23.3598 49.3951 23.2523 48.8353 23.2024C48.7222 23.175 48.6158 23.1249 48.5224 23.0553C48.4291 22.9857 48.3508 22.8979 48.2922 22.7973C48.2052 22.3352 48.0882 21.8851 48.7093 21.9241Z" fill="#253E7C"/>
<path d="M48.3821 22.8544L48.9103 22.8784C49.4529 23.0723 50.0111 23.2198 50.5786 23.3195H52.5921C53.0902 23.2205 53.4923 23.7156 53.9934 23.6195C54.4645 23.7036 54.9687 23.4305 55.4098 23.8086C55.4368 23.8926 55.4668 23.9766 55.4998 24.0576C54.6206 24.9578 53.6334 24.4237 52.6821 24.3757L52.3491 24.3367C51.8179 24.0636 51.1878 24.6818 50.6927 24.0846H50.1105C49.5974 24.3487 49.0603 24.1597 48.5352 24.2047C48.2021 24.1147 48.1661 23.8026 48.1421 23.4785C48.1472 23.3237 48.1807 23.1711 48.2411 23.0284C48.2891 22.9654 48.3371 22.9114 48.3821 22.8544Z" fill="#274380"/>
<path d="M48.1386 24.3127C47.9076 25.36 48.7778 25.1319 49.1228 25.513H48.1086C46.8513 25.0359 45.465 25.468 44.2407 24.7448L45.1409 23.7546C45.263 23.6639 45.4026 23.5998 45.5509 23.5662C45.6992 23.5326 45.8529 23.5303 46.0021 23.5595C46.5423 24.0427 47.1454 24.0126 47.7605 23.8596C47.8807 23.8632 47.9981 23.8961 48.1026 23.9556C48.1345 23.9839 48.1593 24.0192 48.175 24.0589C48.1906 24.0985 48.1967 24.1413 48.1926 24.1837C48.1716 24.2707 48.1596 24.3127 48.1386 24.3127Z" fill="#2C3A81"/>
<path d="M48.6404 20.4567L48.8235 20.4957C48.7545 20.8978 48.6824 21.2999 48.6134 21.696C48.0523 21.9961 47.5032 22.3831 46.858 21.9961L46.6 21.93C46.3629 21.672 45.9848 21.9871 45.7688 21.63C45.7252 21.5341 45.7128 21.4269 45.7332 21.3236C45.7537 21.2202 45.806 21.1259 45.8828 21.0538C46.3929 21.0148 46.2429 20.1236 46.762 20.0936C47.4672 19.6345 48.0463 20.1056 48.6404 20.4567Z" fill="#8293C8"/>
<path d="M47.611 28.8106L48.4092 29.1107C48.2352 29.4918 47.8661 29.1767 47.6501 29.4107C46.9359 29.4708 47.254 29.9419 47.383 30.341C47.4001 30.4631 47.3925 30.5874 47.3605 30.7065C47.3285 30.8256 47.2729 30.937 47.1969 31.0341L47.1129 30.9801L46.3598 30.626C46.2727 30.566 46.2427 30.509 46.2727 30.449C46.3027 30.389 46.3357 30.365 46.3658 30.365C46.6148 30.323 46.8459 30.296 46.7618 29.8579C46.6178 29.0777 46.0747 29.1947 45.6216 29.0987C45.6216 28.5285 45.9217 28.7506 46.1677 28.8226C46.2487 28.6246 46.3267 28.4295 46.4048 28.2225C46.5076 27.9986 46.6863 27.8182 46.9092 27.7134C47.1322 27.6085 47.385 27.5858 47.623 27.6493C47.6396 27.7245 47.6396 27.8023 47.623 27.8774V28.0364C47.281 28.2765 47.287 28.5375 47.611 28.8106Z" fill="#7186C1"/>
<path d="M46.8577 21.9993C47.4061 21.746 48.0117 21.6425 48.6131 21.6992C48.6565 21.7677 48.6889 21.8427 48.7091 21.9212C48.361 22.1133 48.376 22.4854 48.382 22.8515L48.352 22.8905C47.7159 23.2776 47.0857 23.6226 46.5996 22.6294C46.6866 22.4194 46.7887 22.2093 46.8577 21.9993Z" fill="#2A3981"/>
<path d="M57.4709 32.7055C56.6645 32.6671 55.8689 32.5041 55.1123 32.2224C55.1513 32.0184 55.3134 32.0034 55.4334 31.9224C56.1115 31.9224 56.7627 32.3034 57.4528 32.1264L57.4709 32.7055Z" fill="#B5D4EC"/>
<path d="M52.6821 24.3728C53.6123 24.1747 54.6086 24.7719 55.4998 24.0547C55.5869 24.1417 55.6489 24.2507 55.679 24.3701C55.7091 24.4895 55.7063 24.6149 55.6708 24.7328C54.6926 24.3908 53.6303 25.0629 52.6821 24.3728Z" fill="#98BCDE"/>
<path d="M54.9385 30.1071L56.9519 30.3561L57.165 30.7552L54.9385 30.6202C54.9045 30.5867 54.8774 30.5467 54.859 30.5027C54.8406 30.4586 54.8311 30.4114 54.8311 30.3636C54.8311 30.3159 54.8406 30.2686 54.859 30.2245C54.8774 30.1805 54.9045 30.1406 54.9385 30.1071Z" fill="#83A9D1"/>
<path d="M47.1516 32.4385C46.7375 32.4145 46.2094 32.6875 46.1104 31.8654L47.1066 31.8503L47.1516 32.4385Z" fill="#2F438A"/>
<path d="M47.1967 31.0372C47.1424 30.918 47.1313 30.7836 47.1653 30.6572C47.1992 30.5307 47.2761 30.42 47.3827 30.344L47.8869 30.6201C47.9649 30.6891 47.9889 30.7551 47.9619 30.8211C47.9349 30.8871 47.9109 30.9171 47.8839 30.9171L47.5598 31.2832L47.1967 31.0372Z" fill="#85A7D0"/>
<path d="M48.1002 32.2135C48.3226 32.1677 48.5522 32.1686 48.7743 32.2161C48.9964 32.2637 49.2062 32.3567 49.3905 32.4895C49.4685 32.5375 49.4955 32.5886 49.4685 32.6396C49.4415 32.6906 49.4175 32.7116 49.3905 32.7116L48.0972 32.4115C48.1052 32.3458 48.1062 32.2794 48.1002 32.2135Z" fill="#789DC9"/>
<path d="M55.4097 23.8055L53.9453 23.7065V23.5144L55.1966 23.4574L55.4097 23.8055Z" fill="#6C94C2"/>
<path d="M24.4605 37.7557C24.9046 38.0768 25.7178 37.1346 25.8138 38.0558C25.8858 38.761 25.0066 38.4579 24.5715 38.4909C23.8753 38.5389 22.6781 39.2951 22.591 38.3589C22.504 37.4227 23.8123 38.1158 24.4605 37.7557Z" fill="#FFCE58"/>
<path d="M48.6402 20.4567C47.983 20.5827 47.4009 20.1296 46.7617 20.1086C46.7617 19.8386 46.7827 19.5685 46.7917 19.2985L47.6349 19.2625L48.1 19.5625L48.6402 20.4567Z" fill="#89A1CB"/>
<path d="M25.6159 17.1261L24.3916 17.1651C24.7787 16.3159 25.2018 16.871 25.6159 17.1261Z" fill="#E5855F"/>
<path d="M39.4546 24.4176L41.0179 24.4506C40.7809 24.9367 40.5108 25.3778 40.0187 25.5249L39.4546 24.4176Z" fill="#7A84BC"/>
<path d="M57.1864 93.5476H57.1234L57.0753 93.5956C56.6492 93.2955 56.0851 93.4936 55.707 93.0405C55.743 92.5094 56.2772 92.5664 56.4272 92.1733C56.5232 91.8732 56.6192 91.5581 56.7273 91.2521H57.4564C57.6185 91.4651 57.9095 91.6692 57.4864 91.9212C57.2284 92.5424 58.2426 92.3893 57.9606 93.0255L57.1864 93.5476Z" fill="white"/>
<path d="M57.9511 93.0314C58.0232 92.5243 56.5738 92.9384 57.477 91.9271L58.2272 92.4192C58.2182 92.6773 58.1912 92.9143 57.9511 93.0314Z" fill="#03325D"/>
<path d="M55.7064 93.0345C56.2285 92.9925 56.7446 92.9625 57.0747 93.5926C56.4445 93.5926 55.7964 93.8477 55.1932 93.4156C55.1572 93.1995 55.3343 93.1755 55.4153 93.0615L55.7064 93.0345Z" fill="#052B4E"/>
<path d="M55.4158 93.0614C55.3407 93.1784 55.2657 93.2955 55.1937 93.4155C54.6836 93.6105 54.1675 93.9406 53.6934 93.3435C54.2245 92.9384 54.8216 93.0314 55.4158 93.0614Z" fill="white"/>
<path d="M40.3069 22.2962L41.8072 22.2751V22.5752L40.3069 22.5242C40.3007 22.4483 40.3007 22.372 40.3069 22.2962Z" fill="#5A71B6"/>
<path d="M46.1376 23.7846L45.1294 23.7636C45.4295 23.2505 45.9276 23.1275 46.3507 22.8634C46.9958 23.2175 47.707 22.8634 48.3611 23.1335C48.3611 23.4335 48.3611 23.7336 48.3821 24.0157C48.3371 24.1747 48.2621 24.2047 48.1511 24.0937L47.821 24.0607C47.2629 23.9376 46.6537 24.2857 46.1376 23.7846Z" fill="#2E3A80"/>
<path d="M46.0863 19.2836C45.6452 20.3668 44.586 20.6189 43.9648 21.4321C44.439 20.3938 44.9971 19.4726 46.0863 19.2836Z" fill="#E58157"/>
<path d="M48.361 23.1213C47.6859 23.0853 46.9777 23.4004 46.3506 22.8513L46.5996 22.6322C47.1428 23.1063 47.7729 22.7432 48.352 22.8933C48.3641 22.9687 48.3671 23.0452 48.361 23.1213Z" fill="#4D65AF"/>
<path d="M45.8106 21.5881C46.0747 21.6961 46.4288 21.5191 46.5998 21.9332C46.0627 21.8822 45.6996 22.7734 45.0845 22.3052C45.2885 22.0112 45.3815 21.5641 45.8106 21.5881Z" fill="#51457A"/>
<path d="M45.8106 21.5881L45.0845 22.3053C45.0877 22.045 45.1643 21.7909 45.3055 21.5722C45.4467 21.3535 45.6468 21.1791 45.8827 21.069L45.8106 21.5881Z" fill="#E67E52"/>
<path d="M46.1679 28.8256L45.6217 29.1016C44.6015 28.8796 43.5213 29.0386 42.54 28.5795C42.8731 28.4745 43.2632 28.7025 43.5453 28.3245C44.4185 28.4895 45.3277 28.4085 46.1679 28.8256Z" fill="#697DBD"/>
<path d="M46.3654 30.368C46.3579 30.4548 46.3579 30.5422 46.3654 30.629C45.8883 30.629 45.4202 30.614 45.1201 30.0679C45.558 30.0119 46.0011 30.1187 46.3654 30.368Z" fill="#5A70B6"/>
<path d="M44.5859 30.3592C44.1808 30.3412 43.7607 30.3592 43.5957 29.759C43.9888 29.819 44.5109 29.561 44.5859 30.3592Z" fill="#4C64AE"/>
<path d="M42.3022 29.7768C42.3113 29.682 42.3113 29.5865 42.3022 29.4917C42.6533 29.4677 43.0284 29.4017 43.0344 30.0349C42.7644 30.0529 42.4853 30.1069 42.3022 29.7768Z" fill="#3E57A4"/>
<path d="M44.6011 32.1474L44.085 31.8653C44.085 31.7633 44.085 31.6643 44.085 31.5652C44.5323 31.5095 44.9847 31.616 45.3603 31.8653C45.1952 32.2644 44.8771 32.1264 44.6011 32.1474Z" fill="#4961AD"/>
<path d="M52.6792 31.5593C51.71 31.9194 50.8098 31.4453 49.8916 31.2143V31.0162C50.8481 31.0052 51.7968 31.1901 52.6792 31.5593Z" fill="#BFDDF4"/>
<path d="M54.9388 30.107V30.6201C54.2846 29.984 53.2224 30.8902 52.6973 29.7739L54.9388 30.107Z" fill="#8CB1D6"/>
<path d="M55.4337 31.9373L55.1126 32.2374C54.4675 32.0483 53.6843 32.4474 53.2012 31.5892L55.4337 31.9373Z" fill="#C6E4F7"/>
<path d="M49.8913 31.0162V31.2142L47.8838 30.9142C47.8838 30.8152 47.8838 30.7161 47.8838 30.6141C48.589 30.5661 49.2341 30.8122 49.8913 31.0162Z" fill="#BBDBF2"/>
<path d="M50.6714 29.7528C51.2475 29.2487 51.7366 29.3597 52.1417 30.0529C51.6341 30.079 51.1282 29.9758 50.6714 29.7528Z" fill="#97BBDD"/>
<path d="M47.6494 29.4137C47.8295 29.0446 48.1625 29.2367 48.4086 29.1136L49.1198 29.2127C49.14 29.2586 49.1498 29.3085 49.1483 29.3587C49.1468 29.4088 49.134 29.458 49.111 29.5027C49.088 29.5473 49.0552 29.5862 49.0152 29.6165C48.9752 29.6468 48.9289 29.6677 48.8797 29.6778C48.4026 30.0139 48.0695 29.4317 47.6494 29.4137Z" fill="#BAD9F0"/>
<path d="M48.8887 29.6808L49.1287 29.2157C49.5278 29.2337 50.0079 29.0416 50.146 29.7588L48.8887 29.6808Z" fill="#9EC1E1"/>
<path d="M52.6583 32.8376C53.3425 32.9457 54.0266 33.0507 54.7108 33.1647C54.7288 33.1647 54.7528 33.2397 54.7468 33.2757C54.7336 33.3207 54.7133 33.3632 54.6868 33.4018L52.6583 33.2818C52.6274 33.2536 52.6026 33.2193 52.5857 33.1811C52.5688 33.1429 52.5601 33.1015 52.5601 33.0597C52.5601 33.0179 52.5688 32.9765 52.5857 32.9383C52.6026 32.9001 52.6274 32.8658 52.6583 32.8376Z" fill="#6891C1"/>
<path d="M52.658 32.8376V33.2817L50.8906 32.9126V32.8136L52.658 32.8376Z" fill="#769DC9"/>
<path d="M50.8876 32.8166V32.9157L49.3872 32.7116C49.3872 32.6396 49.3872 32.5646 49.3872 32.4896C49.9033 32.5136 50.4645 32.2165 50.8876 32.8166Z" fill="#83A9D1"/>
<path d="M55.2173 33.6478C55.8174 33.1947 56.3906 33.1677 56.9637 33.6928L55.2173 33.6478Z" fill="#5984B7"/>
<path d="M50.6895 24.0815C51.2446 24.1326 51.8387 23.8535 52.3458 24.3336C51.7877 24.3276 51.1156 25.3658 50.6895 24.0815Z" fill="#517CB1"/>
<path d="M48.1512 24.0817C48.2331 24.0735 48.3121 24.0468 48.3822 24.0037L50.1106 24.0787C49.5105 24.6788 48.7963 24.2467 48.1392 24.3127C48.1422 24.2347 48.1452 24.1567 48.1512 24.0817Z" fill="#ADCFEB"/>
<path d="M47.6109 28.8107C47.2778 28.8647 46.8907 28.9187 46.9057 28.3606C46.9057 27.7215 47.3378 28.0005 47.6289 28.0275L47.6109 28.8107Z" fill="#29377E"/>
<path d="M52.652 23.4183L50.4105 23.4003C50.3175 23.3583 50.2845 23.3133 50.3145 23.2653C50.3445 23.2172 50.3745 23.1932 50.4075 23.1932L52.652 23.2112C52.745 23.2593 52.775 23.3043 52.745 23.3523C52.736 23.37 52.7228 23.3852 52.7066 23.3967C52.6904 23.4082 52.6717 23.4156 52.652 23.4183Z" fill="#729AC7"/>
<path d="M50.4076 23.1934C50.4076 23.2624 50.4076 23.3314 50.4076 23.4004C49.8644 23.4004 49.3273 23.3824 48.9072 22.8783C49.4291 22.795 49.9633 22.9071 50.4076 23.1934Z" fill="#5A84B8"/>
<path d="M52.6523 23.4184C52.6583 23.3495 52.6583 23.2803 52.6523 23.2114C53.1295 23.0343 53.4985 23.4964 53.9426 23.5114C53.9382 23.5764 53.9382 23.6415 53.9426 23.7065C53.4805 23.8355 53.0904 23.5174 52.6523 23.4184Z" fill="#537EB3"/>
<path d="M46.1377 23.7846C46.7018 23.8656 47.308 23.5205 47.8211 24.0486C47.2209 24.3277 46.5968 24.8078 46.1377 23.7846Z" fill="#435CA9"/>
</svg>
