<svg width="22" height="22" viewBox="0 0 22 22" fill="none" xmlns="http://www.w3.org/2000/svg">
<path d="M19.9375 8.9375H13.0625V2.0625C13.0625 1.51549 12.8452 0.990886 12.4584 0.604092C12.0716 0.217299 11.547 0 11 0C10.453 0 9.92839 0.217299 9.54159 0.604092C9.1548 0.990886 8.9375 1.51549 8.9375 2.0625V8.9375H2.0625C1.51549 8.9375 0.990886 9.1548 0.604092 9.54159C0.217299 9.92839 0 10.453 0 11C0 11.547 0.217299 12.0716 0.604092 12.4584C0.990886 12.8452 1.51549 13.0625 2.0625 13.0625H8.9375V19.9375C8.9375 20.4845 9.1548 21.0091 9.54159 21.3959C9.92839 21.7827 10.453 22 11 22C11.547 22 12.0716 21.7827 12.4584 21.3959C12.8452 21.0091 13.0625 20.4845 13.0625 19.9375V13.0625H19.9375C20.4845 13.0625 21.0091 12.8452 21.3959 12.4584C21.7827 12.0716 22 11.547 22 11C22 10.453 21.7827 9.92839 21.3959 9.54159C21.0091 9.1548 20.4845 8.9375 19.9375 8.9375Z" fill="#131A22"/>
</svg>
