<svg width="13" height="13" viewBox="0 0 13 13" fill="none" xmlns="http://www.w3.org/2000/svg">
<g clip-path="url(#clip0_700_1221)">
<path d="M11.249 2.99426H9.37402C9.27457 2.99426 9.17918 3.03377 9.10886 3.1041C9.03853 3.17442 8.99902 3.26981 8.99902 3.36926C8.99902 3.46872 9.03853 3.5641 9.10886 3.63443C9.17918 3.70475 9.27457 3.74426 9.37402 3.74426H11.249C11.305 3.74406 11.3603 3.75638 11.4108 3.78031C11.4614 3.80425 11.506 3.8392 11.5413 3.8826C11.5766 3.926 11.6017 3.97675 11.6149 4.03113C11.628 4.08551 11.6289 4.14215 11.6173 4.19689L10.8298 7.21189C10.8093 7.29227 10.7627 7.36359 10.6974 7.41468C10.632 7.46578 10.5516 7.49376 10.4686 7.49426H4.79565L3.91327 3.74426H6.37402C6.47348 3.74426 6.56886 3.70475 6.63919 3.63443C6.70952 3.5641 6.74902 3.46872 6.74902 3.36926C6.74902 3.26981 6.70952 3.17442 6.63919 3.1041C6.56886 3.03377 6.47348 2.99426 6.37402 2.99426H3.73665L3.36352 1.40839C3.34419 1.3262 3.29768 1.25294 3.23153 1.20047C3.16538 1.14799 3.08346 1.11938 2.99902 1.11926H1.49902C1.39957 1.11926 1.30418 1.15877 1.23386 1.2291C1.16353 1.29942 1.12402 1.39481 1.12402 1.49426C1.12402 1.59372 1.16353 1.6891 1.23386 1.75943C1.30418 1.82975 1.39957 1.86926 1.49902 1.86926H2.70165L4.02727 7.50401C3.74746 7.52765 3.48667 7.65527 3.29632 7.86172C3.10598 8.06817 2.9999 8.33846 2.99902 8.61926C3.00157 8.91684 3.12091 9.20151 3.33134 9.41194C3.54177 9.62237 3.82644 9.74172 4.12402 9.74426H10.499C10.5985 9.74426 10.6939 9.70475 10.7642 9.63443C10.8345 9.5641 10.874 9.46872 10.874 9.36926C10.874 9.26981 10.8345 9.17442 10.7642 9.1041C10.6939 9.03377 10.5985 8.99426 10.499 8.99426H4.12402C4.02514 8.99244 3.93081 8.95234 3.86088 8.88241C3.79095 8.81247 3.75085 8.71815 3.74902 8.61926C3.74902 8.51981 3.78853 8.42442 3.85886 8.3541C3.92918 8.28377 4.02457 8.24426 4.12402 8.24426H10.469C10.718 8.24393 10.9598 8.16104 11.1566 8.00856C11.3534 7.85607 11.494 7.64262 11.5565 7.40164L12.3466 4.37614C12.385 4.21089 12.3855 4.03912 12.3482 3.87364C12.3109 3.70816 12.2367 3.55323 12.1312 3.4204C12.0257 3.28757 11.8916 3.18026 11.7388 3.10648C11.5861 3.03269 11.4187 2.99434 11.249 2.99426ZM9.37402 10.1193C9.15152 10.1193 8.93401 10.1852 8.74901 10.3089C8.564 10.4325 8.41981 10.6082 8.33466 10.8137C8.24951 11.0193 8.22723 11.2455 8.27064 11.4637C8.31405 11.682 8.42119 11.8824 8.57853 12.0398C8.73586 12.1971 8.93632 12.3042 9.15455 12.3476C9.37278 12.3911 9.59898 12.3688 9.80454 12.2836C10.0101 12.1985 10.1858 12.0543 10.3094 11.8693C10.433 11.6843 10.499 11.4668 10.499 11.2443C10.499 10.9459 10.3805 10.6597 10.1695 10.4488C9.95854 10.2378 9.67239 10.1193 9.37402 10.1193ZM9.37402 11.6193C9.29986 11.6193 9.22735 11.5973 9.16568 11.5561C9.10402 11.5149 9.05595 11.4563 9.02757 11.3878C8.99919 11.3192 8.99176 11.2438 9.00623 11.1711C9.0207 11.0984 9.05641 11.0315 9.10886 10.9791C9.1613 10.9267 9.22812 10.8909 9.30087 10.8765C9.37361 10.862 9.44901 10.8694 9.51753 10.8978C9.58605 10.9262 9.64462 10.9743 9.68583 11.0359C9.72703 11.0976 9.74902 11.1701 9.74902 11.2443C9.74902 11.3437 9.70952 11.4391 9.63919 11.5094C9.56886 11.5798 9.47348 11.6193 9.37402 11.6193ZM5.24902 10.1193C5.02652 10.1193 4.80901 10.1852 4.62401 10.3089C4.439 10.4325 4.29481 10.6082 4.20966 10.8137C4.12451 11.0193 4.10223 11.2455 4.14564 11.4637C4.18905 11.682 4.29619 11.8824 4.45353 12.0398C4.61086 12.1971 4.81132 12.3042 5.02955 12.3476C5.24778 12.3911 5.47398 12.3688 5.67954 12.2836C5.88511 12.1985 6.06081 12.0543 6.18443 11.8693C6.30804 11.6843 6.37402 11.4668 6.37402 11.2443C6.37402 10.9459 6.2555 10.6597 6.04452 10.4488C5.83354 10.2378 5.54739 10.1193 5.24902 10.1193ZM5.24902 11.6193C5.17486 11.6193 5.10235 11.5973 5.04068 11.5561C4.97902 11.5149 4.93095 11.4563 4.90257 11.3878C4.87419 11.3192 4.86676 11.2438 4.88123 11.1711C4.8957 11.0984 4.93141 11.0315 4.98386 10.9791C5.0363 10.9267 5.10312 10.8909 5.17586 10.8765C5.24861 10.862 5.32401 10.8694 5.39253 10.8978C5.46105 10.9262 5.51962 10.9743 5.56082 11.0359C5.60203 11.0976 5.62402 11.1701 5.62402 11.2443C5.62402 11.3437 5.58452 11.4391 5.51419 11.5094C5.44386 11.5798 5.34848 11.6193 5.24902 11.6193Z" fill="#131A22"/>
<path d="M7.8743 2.24426C7.77484 2.24426 7.67946 2.28377 7.60913 2.3541C7.53881 2.42442 7.4993 2.51981 7.4993 2.61926V4.71401L7.38942 4.60414C7.3187 4.53583 7.22397 4.49803 7.12565 4.49889C7.02732 4.49974 6.93327 4.53918 6.86374 4.60871C6.79421 4.67823 6.75477 4.77229 6.75392 4.87061C6.75307 4.96894 6.79086 5.06366 6.85917 5.13439L7.60917 5.88439C7.68019 5.95365 7.77547 5.99242 7.87467 5.99242C7.97388 5.99242 8.06915 5.95365 8.14017 5.88439L8.89017 5.13439C8.95848 5.06366 8.99628 4.96894 8.99543 4.87061C8.99457 4.77229 8.95513 4.67823 8.88561 4.60871C8.81608 4.53918 8.72202 4.49974 8.6237 4.49889C8.52538 4.49803 8.43065 4.53583 8.35992 4.60414L8.2493 4.71401V2.61926C8.2493 2.51981 8.20979 2.42442 8.13946 2.3541C8.06914 2.28377 7.97375 2.24426 7.8743 2.24426Z" fill="#131A22"/>
</g>
<defs>
<clipPath id="clip0_700_1221">
<rect width="12" height="12" fill="white" transform="translate(0.75 0.744263)"/>
</clipPath>
</defs>
</svg>
