<svg width="45" height="45" viewBox="0 0 45 45" fill="none" xmlns="http://www.w3.org/2000/svg">
<g id="Group 427320148">
<g id="Ellipse 45" filter="url(#filter0_d_1034_194)">
<circle cx="22.5" cy="20.5" r="18.5" fill="#FEFEFE"/>
</g>
<path id="Vector" d="M16.039 18.4696L22.003 23.6933C22.074 23.7553 22.1509 23.7991 22.2338 23.8247C22.3166 23.8507 22.4054 23.8638 22.5 23.8638C22.5947 23.8638 22.6834 23.8507 22.7663 23.8247C22.8491 23.7991 22.926 23.7553 22.997 23.6933L28.9788 18.4696C29.1445 18.3249 29.2273 18.144 29.2273 17.927C29.2273 17.71 29.1385 17.524 28.961 17.369C28.7835 17.214 28.5765 17.1365 28.3398 17.1365C28.1031 17.1365 27.896 17.214 27.7185 17.369L22.5 21.9262L17.2815 17.369C17.1158 17.2243 16.9118 17.152 16.6695 17.152C16.4267 17.152 16.2165 17.2295 16.039 17.3845C15.8615 17.5395 15.7727 17.7204 15.7727 17.927C15.7727 18.1337 15.8615 18.3145 16.039 18.4696Z" fill="#131A22" fill-opacity="0.6"/>
</g>
<defs>
<filter id="filter0_d_1034_194" x="0" y="0" width="45" height="45" filterUnits="userSpaceOnUse" color-interpolation-filters="sRGB">
<feFlood flood-opacity="0" result="BackgroundImageFix"/>
<feColorMatrix in="SourceAlpha" type="matrix" values="0 0 0 0 0 0 0 0 0 0 0 0 0 0 0 0 0 0 127 0" result="hardAlpha"/>
<feOffset dy="2"/>
<feGaussianBlur stdDeviation="2"/>
<feComposite in2="hardAlpha" operator="out"/>
<feColorMatrix type="matrix" values="0 0 0 0 0 0 0 0 0 0 0 0 0 0 0 0 0 0 0.25 0"/>
<feBlend mode="normal" in2="BackgroundImageFix" result="effect1_dropShadow_1034_194"/>
<feBlend mode="normal" in="SourceGraphic" in2="effect1_dropShadow_1034_194" result="shape"/>
</filter>
</defs>
</svg>
