<svg width="18" height="13" viewBox="0 0 18 13" fill="none" xmlns="http://www.w3.org/2000/svg">
<path d="M18 6.03557V6.96443C18 7.22092 17.7985 7.42885 17.55 7.42885H2.997L7.002 11.5529C7.08719 11.6401 7.13511 11.7589 7.13511 11.8827C7.13511 12.0065 7.08719 12.1252 7.002 12.2124L6.363 12.8626C6.2785 12.9505 6.16349 13 6.0435 13C5.92351 13 5.8085 12.9505 5.724 12.8626L0.198 7.16877C0.0713768 7.03825 0.000157547 6.86118 0 6.67648V6.32352C0.0020736 6.13922 0.0730044 5.96286 0.198 5.83123L5.724 0.137376C5.8085 0.0494546 5.92351 0 6.0435 0C6.16349 0 6.2785 0.0494546 6.363 0.137376L7.002 0.79686C7.08666 0.882466 7.13436 0.999637 7.13436 1.12196C7.13436 1.24428 7.08666 1.36145 7.002 1.44705L2.997 5.57115H17.55C17.7985 5.57115 18 5.77908 18 6.03557Z" fill="#1F0101"/>
</svg>
