<svg width="63" height="52" viewBox="0 0 63 52" fill="none" xmlns="http://www.w3.org/2000/svg">
<path d="M58.982 0.770508H31.6714V19.5053H58.982V0.770508Z" fill="#EDEDED"/>
<path d="M42.4409 3.61279V18.0644H47.731V3.61279H42.4409ZM42.8974 4.46925H44.9843V17.3507H42.8974V4.46925ZM47.2746 17.3507H45.187V4.46925H47.2746V17.3507Z" fill="#30292B"/>
<path d="M47.2746 4.46924H45.187V17.3507H47.2746V4.46924Z" fill="#052B4E"/>
<path d="M44.9843 4.46924H42.8967V17.3507H44.9843V4.46924Z" fill="#052B4E"/>
<path d="M45.1871 4.46924H44.9844V17.3507H45.1871V4.46924Z" fill="#30292B"/>
<path d="M45.1871 4.46143H44.9844V17.4537H45.1871V4.46143Z" fill="white"/>
<path d="M47.3579 3.61279V18.0644H52.648V3.61279H47.3579ZM47.8143 4.46925H49.9019V17.3507H47.8143V4.46925ZM52.1916 17.3507H50.1046V4.46925H52.1916V17.3507Z" fill="#30292B"/>
<path d="M52.1923 4.46924H50.1047V17.3507H52.1923V4.46924Z" fill="#052B4E"/>
<path d="M49.9018 4.46924H47.8142V17.3507H49.9018V4.46924Z" fill="#052B4E"/>
<path d="M50.1046 4.46924H49.9019V17.3507H50.1046V4.46924Z" fill="#30292B"/>
<path d="M50.1046 4.46143H49.9019V17.4537H50.1046V4.46143Z" fill="white"/>
<path d="M62.2824 12.5923H35.7031V13.0941H62.2824V12.5923Z" fill="#30292B"/>
<path d="M36.6175 12.6633H36.3389V18.7897H36.6175V12.6633Z" fill="#30292B"/>
<path d="M36.9773 14.1228H36.4873V14.7496H36.9773V14.1228Z" fill="#30292B"/>
<path d="M36.9773 16.6062H36.4873V17.233H36.9773V16.6062Z" fill="#30292B"/>
<path d="M49.4275 12.6633H49.1489V18.7897H49.4275V12.6633Z" fill="#30292B"/>
<path d="M49.7876 14.1228H49.2976V14.7496H49.7876V14.1228Z" fill="#30292B"/>
<path d="M49.7876 16.6062H49.2976V17.233H49.7876V16.6062Z" fill="#30292B"/>
<path d="M62.0945 12.6633H61.8159V18.7897H62.0945V12.6633Z" fill="#30292B"/>
<path d="M61.9466 14.1228H61.4565V14.7496H61.9466V14.1228Z" fill="#30292B"/>
<path d="M61.9466 16.6062H61.4565V17.233H61.9466V16.6062Z" fill="#30292B"/>
<path d="M42.781 12.6633H42.5024V18.7897H42.781V12.6633Z" fill="#30292B"/>
<path d="M42.6328 14.1228H42.1428V14.7496H42.6328V14.1228Z" fill="#30292B"/>
<path d="M42.6328 16.6062H42.1428V17.233H42.6328V16.6062Z" fill="#30292B"/>
<path d="M55.8606 12.6633H55.582V18.7897H55.8606V12.6633Z" fill="#30292B"/>
<path d="M55.7119 14.1228H55.2219V14.7496H55.7119V14.1228Z" fill="#30292B"/>
<path d="M55.7119 16.6062H55.2219V17.233H55.7119V16.6062Z" fill="#30292B"/>
<path d="M61.5373 1.64819C61.7618 1.24035 61.9851 0.827199 62.1934 0.399857C62.2282 0.26598 62.2643 0.133877 62.3022 0H30.8706V2.01613H61.334C61.4024 1.89378 61.4702 1.77113 61.5373 1.64819Z" fill="#052B4E"/>
<g style="mix-blend-mode:multiply">
<path d="M61.5376 1.6481C61.6085 1.51984 61.679 1.39039 61.749 1.25977H31.78V2.01604H61.3355C61.4031 1.89369 61.4704 1.77104 61.5376 1.6481Z" fill="#052B4E"/>
</g>
<path d="M32.2847 1.61182H30.8706V6.22303H32.2847V1.61182Z" fill="#052B4E"/>
<g style="mix-blend-mode:multiply">
<path d="M32.2848 1.61182H31.7544V6.22303H32.2848V1.61182Z" fill="#052B4E"/>
</g>
<path d="M62.2824 17.9927H41.7476V19.5052H62.2824V17.9927Z" fill="#30292B"/>
<path d="M42.987 20.5417H16.1541V49.4857H42.987V20.5417Z" fill="#EDEDED"/>
<path d="M35.4526 37.7629H34.3525V40.2578H35.4526V37.7629Z" fill="#30292B"/>
<path d="M35.1119 37.9526H34.6933C34.5553 37.9526 34.4434 38.1122 34.4434 38.3091V38.3986C34.4434 38.5954 34.5553 38.755 34.6933 38.755H35.1119C35.2499 38.755 35.3618 38.5954 35.3618 38.3986V38.3091C35.3618 38.1122 35.2499 37.9526 35.1119 37.9526Z" fill="#EDEDED"/>
<path d="M34.6881 38.8828H34.5177C34.5005 38.8828 34.4866 38.9027 34.4866 38.9271V39.1701C34.4866 39.1946 34.5005 39.2144 34.5177 39.2144H34.6881C34.7052 39.2144 34.7191 39.1946 34.7191 39.1701V38.9271C34.7191 38.9027 34.7052 38.8828 34.6881 38.8828Z" fill="#EDEDED"/>
<path d="M34.9879 38.8828H34.8175C34.8003 38.8828 34.7864 38.9027 34.7864 38.9271V39.1701C34.7864 39.1946 34.8003 39.2144 34.8175 39.2144H34.9879C35.005 39.2144 35.0189 39.1946 35.0189 39.1701V38.9271C35.0189 38.9027 35.005 38.8828 34.9879 38.8828Z" fill="#EDEDED"/>
<path d="M35.2869 38.8828H35.1165C35.0994 38.8828 35.0854 38.9027 35.0854 38.9271V39.1701C35.0854 39.1946 35.0994 39.2144 35.1165 39.2144H35.2869C35.3041 39.2144 35.318 39.1946 35.318 39.1701V38.9271C35.318 38.9027 35.3041 38.8828 35.2869 38.8828Z" fill="#EDEDED"/>
<path d="M34.6881 39.3101H34.5177C34.5005 39.3101 34.4866 39.3299 34.4866 39.3544V39.5973C34.4866 39.6218 34.5005 39.6416 34.5177 39.6416H34.6881C34.7052 39.6416 34.7191 39.6218 34.7191 39.5973V39.3544C34.7191 39.3299 34.7052 39.3101 34.6881 39.3101Z" fill="#EDEDED"/>
<path d="M34.9879 39.3101H34.8175C34.8003 39.3101 34.7864 39.3299 34.7864 39.3544V39.5973C34.7864 39.6218 34.8003 39.6416 34.8175 39.6416H34.9879C35.005 39.6416 35.0189 39.6218 35.0189 39.5973V39.3544C35.0189 39.3299 35.005 39.3101 34.9879 39.3101Z" fill="#EDEDED"/>
<path d="M35.2869 39.3101H35.1165C35.0994 39.3101 35.0854 39.3299 35.0854 39.3544V39.5973C35.0854 39.6218 35.0994 39.6416 35.1165 39.6416H35.2869C35.3041 39.6416 35.318 39.6218 35.318 39.5973V39.3544C35.318 39.3299 35.3041 39.3101 35.2869 39.3101Z" fill="#EDEDED"/>
<path d="M34.6881 39.7385H34.5177C34.5005 39.7385 34.4866 39.7584 34.4866 39.7829V40.0258C34.4866 40.0503 34.5005 40.0701 34.5177 40.0701H34.6881C34.7052 40.0701 34.7191 40.0503 34.7191 40.0258V39.7829C34.7191 39.7584 34.7052 39.7385 34.6881 39.7385Z" fill="#EDEDED"/>
<path d="M34.9879 39.7385H34.8175C34.8003 39.7385 34.7864 39.7584 34.7864 39.7829V40.0258C34.7864 40.0503 34.8003 40.0701 34.8175 40.0701H34.9879C35.005 40.0701 35.0189 40.0503 35.0189 40.0258V39.7829C35.0189 39.7584 35.005 39.7385 34.9879 39.7385Z" fill="#EDEDED"/>
<path d="M35.2869 39.7385H35.1165C35.0994 39.7385 35.0854 39.7584 35.0854 39.7829V40.0258C35.0854 40.0503 35.0994 40.0701 35.1165 40.0701H35.2869C35.3041 40.0701 35.318 40.0503 35.318 40.0258V39.7829C35.318 39.7584 35.3041 39.7385 35.2869 39.7385Z" fill="#FF2424"/>
<path d="M17.3849 6.58301H17.0342V20.4131H17.3849V6.58301Z" fill="#052B4E"/>
<path d="M27.5924 6.3667H27.2417V20.1968H27.5924V6.3667Z" fill="#052B4E"/>
<path d="M32.3128 7.41992H16.0283V7.90578H32.3128V7.41992Z" fill="#052B4E"/>
<path d="M33.2344 8.71606H16.0283V9.20192H33.2344V8.71606Z" fill="#052B4E"/>
<path d="M34.3251 10.0134H16.0283V10.4993H34.3251V10.0134Z" fill="#052B4E"/>
<path d="M35.2735 11.3096H16.0283V11.7954H35.2735V11.3096Z" fill="#052B4E"/>
<path d="M36.0912 12.6064H16.0283V13.0923H36.0912V12.6064Z" fill="#052B4E"/>
<path d="M38.1303 13.9028H16.0283V14.3887H38.1303V13.9028Z" fill="#052B4E"/>
<path d="M38.961 15.199H16.0283V15.6848H38.961V15.199Z" fill="#052B4E"/>
<path d="M39.5848 16.4961H16.0283V16.982H39.5848V16.4961Z" fill="#052B4E"/>
<path d="M40.5194 17.7922H16.0283V18.2781H40.5194V17.7922Z" fill="#052B4E"/>
<path d="M41.6493 18.9448H16.0283V19.4307H41.6493V18.9448Z" fill="#052B4E"/>
<g style="mix-blend-mode:screen" opacity="0.4">
<path d="M20.2116 3.20947H17.5376V19.4343H20.2116V3.20947Z" fill="#052B4E"/>
</g>
<g style="mix-blend-mode:screen" opacity="0.4">
<path d="M31.2182 5.95808L31.4669 18.6365H28.793V4.62817L30.2854 5.07147L31.2182 5.95808Z" fill="#052B4E"/>
</g>
<g style="mix-blend-mode:screen" opacity="0.4">
<path d="M26.9922 3.38696H26.0569V19.7377H26.9922V3.38696Z" fill="#052B4E"/>
</g>
<g style="mix-blend-mode:screen" opacity="0.4">
<path d="M23.6938 3.20947H22.761V18.1044H23.6938V3.20947Z" fill="#052B4E"/>
</g>
<path d="M13.0323 19.5619H41.8894L29.083 3.48166L28.8672 3.20947H8.52075C8.8536 3.77319 9.16199 4.36536 9.4442 4.98268L9.45913 5.01637H28.3989L28.6931 5.38519L29.0799 5.87105H29.083L29.7253 6.67786L30.1128 7.1646L30.7582 7.97495L31.145 8.46081L31.7905 9.27117L32.1779 9.75791L32.8234 10.5683L33.2102 11.0541L33.8557 11.8645L34.2431 12.3503L34.8886 13.1607L35.276 13.6474L35.9209 14.4578L36.3083 14.9436L36.9538 15.754L37.3412 16.2407L37.8716 16.9066L38.259 17.3924L38.5526 17.7621H13.0323V19.5619Z" fill="#052B4E"/>
<g style="mix-blend-mode:multiply">
<path d="M13.0191 18.8909H39.9137L28.6899 4.62817H9.08032C9.20034 4.86756 9.31663 5.1096 9.43105 5.35164L9.44597 5.38533H28.3858L28.6799 5.75416L29.0667 6.24002H29.0698L29.7122 7.04682L30.0996 7.53357L30.7451 8.34392L31.1319 8.82978L31.7774 9.64013L32.1648 10.1269L32.8103 10.9417L33.1971 11.4275L33.8425 12.2379L34.23 12.7237L34.8754 13.5341L35.2629 14.0208L35.9077 14.8312L36.2951 15.317L36.9406 16.1274L37.328 16.6141L37.8585 17.28L38.2459 17.7658L38.5394 18.1355H13.0191V18.8909Z" fill="#052B4E"/>
</g>
<path d="M59.0831 20.7537H43.1189V23.9153H59.0831V20.7537Z" fill="#30292B"/>
<path d="M45.045 21.9302H43.3511V47.7675H45.045V21.9302Z" fill="#30292B"/>
<path d="M60.0003 19.4917V21.5921H43.2109L42.5984 19.4935L60.0003 19.4917Z" fill="#052B4E"/>
<path d="M43.7959 20.0334H42.342V49.0572H43.7959V20.0334Z" fill="#052B4E"/>
<g style="mix-blend-mode:multiply">
<path d="M60.0004 20.7537V21.5924H43.7961V47.7258H43.1189V20.7537H60.0004Z" fill="#052B4E"/>
</g>
<g style="mix-blend-mode:multiply">
<path d="M60.375 21H44.625V47.25H60.375V21Z" fill="#EDEDED"/>
</g>
<path d="M44.551 21.5303V47.654H60.0974V21.5303H44.551ZM59.8486 47.2852H45.0572V21.8131H59.8505L59.8486 47.2852Z" fill="white"/>
<path d="M49.1413 21.5303H48.7925V47.3809H49.1413V21.5303Z" fill="#052B4E"/>
<path d="M55.4758 21.5303H55.127V47.3809H55.4758V21.5303Z" fill="#052B4E"/>
<path d="M60.091 34.0359H44.7847V34.5395H60.091V34.0359Z" fill="#052B4E"/>
<path d="M18.836 32.8672H1.80835V49.5247H18.836V32.8672Z" fill="#F2F2F2"/>
<path d="M16.3951 35.5818H4.2522V49.5254H16.3951V35.5818Z" fill="#473838"/>
<g style="mix-blend-mode:multiply" opacity="0.5">
<path d="M16.389 35.5669H4.24976V36.3524H4.25224V49.5575H4.80321V36.3524H15.8312V49.4945H16.3821V36.3524H16.389V35.5669Z" fill="#30292B"/>
</g>
<path d="M19.2344 31.3501H1.41016V33.9842H19.2344V31.3501Z" fill="#052B4E"/>
<g style="mix-blend-mode:multiply" opacity="0.5">
<path d="M19.263 33.2095H1.38159V33.9844H19.263V33.2095Z" fill="#052B4E"/>
</g>
<path d="M3.89773 41.7322H2.7019V44.4443H3.89773V41.7322Z" fill="#30292B"/>
<path d="M3.52773 41.9373H3.07253C2.92245 41.9373 2.80078 42.1107 2.80078 42.3247V42.4213C2.80078 42.6353 2.92245 42.8088 3.07253 42.8088H3.52773C3.67781 42.8088 3.79948 42.6353 3.79948 42.4213V42.3247C3.79948 42.1107 3.67781 41.9373 3.52773 41.9373Z" fill="white"/>
<path d="M3.06766 42.9478H2.88172C2.86318 42.9478 2.84814 42.9692 2.84814 42.9956V43.2607C2.84814 43.2872 2.86318 43.3086 2.88172 43.3086H3.06766C3.0862 43.3086 3.10124 43.2872 3.10124 43.2607V42.9956C3.10124 42.9692 3.0862 42.9478 3.06766 42.9478Z" fill="white"/>
<path d="M3.39285 42.9478H3.20692C3.18837 42.9478 3.17334 42.9692 3.17334 42.9956V43.2607C3.17334 43.2872 3.18837 43.3086 3.20692 43.3086H3.39285C3.4114 43.3086 3.42643 43.2872 3.42643 43.2607V42.9956C3.42643 42.9692 3.4114 42.9478 3.39285 42.9478Z" fill="white"/>
<path d="M3.71805 42.9478H3.53212C3.51357 42.9478 3.49854 42.9692 3.49854 42.9956V43.2607C3.49854 43.2872 3.51357 43.3086 3.53212 43.3086H3.71805C3.7366 43.3086 3.75163 43.2872 3.75163 43.2607V42.9956C3.75163 42.9692 3.7366 42.9478 3.71805 42.9478Z" fill="white"/>
<path d="M3.06766 43.4133H2.88172C2.86318 43.4133 2.84814 43.4348 2.84814 43.4612V43.7263C2.84814 43.7527 2.86318 43.7742 2.88172 43.7742H3.06766C3.0862 43.7742 3.10124 43.7527 3.10124 43.7263V43.4612C3.10124 43.4348 3.0862 43.4133 3.06766 43.4133Z" fill="white"/>
<path d="M3.39285 43.4133H3.20692C3.18837 43.4133 3.17334 43.4348 3.17334 43.4612V43.7263C3.17334 43.7527 3.18837 43.7742 3.20692 43.7742H3.39285C3.4114 43.7742 3.42643 43.7527 3.42643 43.7263V43.4612C3.42643 43.4348 3.4114 43.4133 3.39285 43.4133Z" fill="white"/>
<path d="M3.71805 43.4133H3.53212C3.51357 43.4133 3.49854 43.4348 3.49854 43.4612V43.7263C3.49854 43.7527 3.51357 43.7742 3.53212 43.7742H3.71805C3.7366 43.7742 3.75163 43.7527 3.75163 43.7263V43.4612C3.75163 43.4348 3.7366 43.4133 3.71805 43.4133Z" fill="white"/>
<path d="M3.06766 43.8779H2.88172C2.86318 43.8779 2.84814 43.8994 2.84814 43.9258V44.1909C2.84814 44.2173 2.86318 44.2388 2.88172 44.2388H3.06766C3.0862 44.2388 3.10124 44.2173 3.10124 44.1909V43.9258C3.10124 43.8994 3.0862 43.8779 3.06766 43.8779Z" fill="white"/>
<path d="M3.39285 43.8779H3.20692C3.18837 43.8779 3.17334 43.8994 3.17334 43.9258V44.1909C3.17334 44.2173 3.18837 44.2388 3.20692 44.2388H3.39285C3.4114 44.2388 3.42643 44.2173 3.42643 44.1909V43.9258C3.42643 43.8994 3.4114 43.8779 3.39285 43.8779Z" fill="white"/>
<path d="M3.71805 43.8779H3.53212C3.51357 43.8779 3.49854 43.8994 3.49854 43.9258V44.1909C3.49854 44.2173 3.51357 44.2388 3.53212 44.2388H3.71805C3.7366 44.2388 3.75163 44.2173 3.75163 44.1909V43.9258C3.75163 43.8994 3.7366 43.8779 3.71805 43.8779Z" fill="#FF2424"/>
<path d="M17.1701 35.3008H3.47559V36.5403H17.1701V35.3008Z" fill="#50352A"/>
<path d="M4.26716 46.7061H0V49.5574H4.26716V46.7061Z" fill="#052B4E"/>
<path d="M4.26716 48.8447H0V49.5576H4.26716V48.8447Z" fill="#30292B"/>
<path d="M62.9999 46.7061H16.3745V49.5574H62.9999V46.7061Z" fill="#052B4E"/>
<path d="M62.9999 48.8447H16.3745V49.5576H62.9999V48.8447Z" fill="#30292B"/>
<path d="M27.1162 32.313V46.746H33.6419V32.313H27.1162ZM27.679 33.1677H30.2535V46.0323H27.679V33.1677ZM33.0792 46.0323H30.5047V33.1677H33.0792V46.0323Z" fill="#30292B"/>
<path d="M33.0782 33.1687H30.5044V46.0333H33.0782V33.1687Z" fill="#052B4E"/>
<path d="M30.2547 33.1687H27.6802V46.0333H30.2547V33.1687Z" fill="#052B4E"/>
<path d="M30.5044 33.1687H30.2544V46.0333H30.5044V33.1687Z" fill="#30292B"/>
<path d="M30.5044 33.1606H30.2544V46.1352H30.5044V33.1606Z" fill="#EDEDED"/>
<path d="M30.8342 39.0059H30.6594V41.1798H30.8342V39.0059Z" fill="#EDEDED"/>
<path d="M30.0585 39.0059H29.8838V41.1798H30.0585V39.0059Z" fill="#EDEDED"/>
<path d="M34.6919 46.7061H26.1116V47.8063H34.6919V46.7061Z" fill="white"/>
<path d="M34.6921 47.3206H26.0664V48.5184H34.6921V47.3206Z" fill="#E5E5E5"/>
<path d="M35.1914 48.1301H25.6179V49.2304H35.1914V48.1301Z" fill="white"/>
<path d="M35.1913 48.7444H25.5669V49.9422H35.1913V48.7444Z" fill="#E5E5E5"/>
<path d="M35.5543 49.813H25.2583V50.9133H35.5543V49.813Z" fill="white"/>
<path d="M35.5544 50.4272H25.2036V51.625H35.5544V50.4272Z" fill="#E5E5E5"/>
<g style="mix-blend-mode:multiply" opacity="0.4">
<path d="M33.6212 32.313H27.1172V34.2795H33.6212V32.313Z" fill="#84A0A3"/>
</g>
<path d="M34.8414 31.6179H25.8425V32.7936H34.8414V31.6179Z" fill="#846253"/>
<g style="mix-blend-mode:multiply" opacity="0.7">
<path d="M34.8412 31.6179V32.7944H29.7631L31.7835 32.1401L26.1956 31.6179H34.8412Z" fill="#846253"/>
</g>
<g style="mix-blend-mode:multiply" opacity="0.4">
<path d="M41.734 32.3493H16.1689V28.3162L42.775 28.9173L41.734 32.3493Z" fill="#84A0A3"/>
</g>
<path d="M29.9086 24.981H29.3738C29.3229 24.981 29.2817 25.0397 29.2817 25.1122V25.8747C29.2817 25.9471 29.3229 26.0059 29.3738 26.0059H29.9086C29.9594 26.0059 30.0006 25.9471 30.0006 25.8747V25.1122C30.0006 25.0397 29.9594 24.981 29.9086 24.981Z" fill="#30292B"/>
<path d="M34.8693 24.981H34.3345C34.2836 24.981 34.2424 25.0397 34.2424 25.1122V25.8747C34.2424 25.9471 34.2836 26.0059 34.3345 26.0059H34.8693C34.9201 26.0059 34.9613 25.9471 34.9613 25.8747V25.1122C34.9613 25.0397 34.9201 24.981 34.8693 24.981Z" fill="#30292B"/>
<path d="M39.8304 24.981H39.2957C39.2448 24.981 39.2036 25.0397 39.2036 25.1122V25.8747C39.2036 25.9471 39.2448 26.0059 39.2957 26.0059H39.8304C39.8813 26.0059 39.9225 25.9471 39.9225 25.8747V25.1122C39.9225 25.0397 39.8813 24.981 39.8304 24.981Z" fill="#30292B"/>
<path d="M42.7748 28.4102H13.7473V29.4537H42.7748V28.4102Z" fill="#052B4E"/>
<path d="M43.0443 29.265C43.0443 29.3572 43.0186 29.4457 42.9729 29.5111C42.9272 29.5764 42.8652 29.6132 42.8005 29.6134H13.7233C13.6902 29.6158 13.6571 29.6086 13.626 29.5922C13.595 29.5757 13.5666 29.5505 13.5425 29.5179C13.5185 29.4854 13.4994 29.4462 13.4864 29.4028C13.4733 29.3594 13.4666 29.3127 13.4666 29.2654C13.4666 29.2182 13.4733 29.1714 13.4864 29.128C13.4994 29.0846 13.5185 29.0455 13.5425 29.0129C13.5666 28.9804 13.595 28.9551 13.626 28.9387C13.6571 28.9223 13.6902 28.9151 13.7233 28.9174H42.8005C42.8652 28.9174 42.9272 28.9541 42.9729 29.0192C43.0186 29.0844 43.0443 29.1728 43.0443 29.265Z" fill="#052B4E"/>
<path d="M19.9869 24.981H19.4521C19.4013 24.981 19.3601 25.0397 19.3601 25.1122V25.8747C19.3601 25.9471 19.4013 26.0059 19.4521 26.0059H19.9869C20.0378 26.0059 20.079 25.9471 20.079 25.8747V25.1122C20.079 25.0397 20.0378 24.981 19.9869 24.981Z" fill="#30292B"/>
<path d="M24.9476 24.981H24.4128C24.362 24.981 24.3208 25.0397 24.3208 25.1122V25.8747C24.3208 25.9471 24.362 26.0059 24.4128 26.0059H24.9476C24.9985 26.0059 25.0397 25.9471 25.0397 25.8747V25.1122C25.0397 25.0397 24.9985 24.981 24.9476 24.981Z" fill="#30292B"/>
<path d="M19.7992 25.3337H19.6555V28.6142H19.7992V25.3337Z" fill="#30292B"/>
<path d="M24.7354 25.3337H24.5918V28.6142H24.7354V25.3337Z" fill="#30292B"/>
<path d="M29.7042 25.3337H29.5605V28.6142H29.7042V25.3337Z" fill="#30292B"/>
<path d="M34.6883 25.3337H34.5447V28.6142H34.6883V25.3337Z" fill="#30292B"/>
<path d="M39.6407 25.3337H39.4971V28.6142H39.6407V25.3337Z" fill="#30292B"/>
<path d="M19.6991 25.5283L14.5461 28.4653L14.5699 28.5501L19.7228 25.6131L19.6991 25.5283Z" fill="#30292B"/>
<path d="M24.7314 25.4091L22.2637 28.4172L22.3053 28.4866L24.773 25.4785L24.7314 25.4091Z" fill="#30292B"/>
<path d="M29.6356 25.6888L28.9331 28.7581L28.994 28.7864L29.6964 25.7171L29.6356 25.6888Z" fill="#30292B"/>
<path d="M34.6765 25.4682L34.6162 25.499L35.407 28.6428L35.4673 28.612L34.6765 25.4682Z" fill="#30292B"/>
<path d="M39.6349 25.5039L39.5894 25.5681L41.818 28.7801L41.8635 28.7159L39.6349 25.5039Z" fill="#30292B"/>
<g style="mix-blend-mode:multiply" opacity="0.7">
<path d="M43.0442 29.265C43.0442 29.3572 43.0185 29.4457 42.9728 29.511C42.9271 29.5763 42.8651 29.6132 42.8004 29.6134H30.9019C30.964 29.5593 31.02 29.5061 31.0729 29.4529C31.2302 29.3064 31.3713 29.1271 31.4914 28.921C31.5766 28.7766 31.6314 28.6008 31.6493 28.4138H42.7755V28.921H42.8004C42.8646 28.9209 42.9263 28.9571 42.9719 29.0215C43.0175 29.0859 43.0435 29.1734 43.0442 29.265Z" fill="#846253"/>
</g>
</svg>
