<svg width="73" height="46" viewBox="0 0 73 46" fill="none" xmlns="http://www.w3.org/2000/svg">
<path d="M15.7352 10.7339C18.6999 10.7339 21.1032 8.33101 21.1032 5.36693C21.1032 2.40286 18.6999 0 15.7352 0C12.7706 0 10.3672 2.40286 10.3672 5.36693C10.3672 8.33101 12.7706 10.7339 15.7352 10.7339Z" fill="#052B4E"/>
<path opacity="0.4" d="M14.6423 10.1399C14.9155 8.45666 13.7721 6.87069 12.0886 6.59754C10.405 6.32439 8.81873 7.46749 8.54552 9.15072C8.27232 10.834 9.41564 12.4199 11.0992 12.6931C12.7828 12.9662 14.369 11.8231 14.6423 10.1399Z" fill="#052B4E"/>
<path d="M71.7118 25.642C51.4797 16.5698 26.8037 25.4144 12.5568 43.5065C12.4758 43.608 12.3948 43.711 12.3164 43.8141H12.0991C12.1737 43.711 12.2508 43.608 12.3266 43.5065C26.8692 24.0382 51.2175 16.2792 71.7118 25.642Z" fill="#052B4E"/>
<path opacity="0.4" d="M65.9277 19.8833C67.7984 19.8833 69.3148 18.3671 69.3148 16.4968C69.3148 14.6265 67.7984 13.1104 65.9277 13.1104C64.0571 13.1104 62.5406 14.6265 62.5406 16.4968C62.5406 18.3671 64.0571 19.8833 65.9277 19.8833Z" fill="#052B4E"/>
<path d="M5.44087 28.713V30.2053L5.3667 30.2857V28.6975C5.39142 28.7022 5.41615 28.7083 5.44087 28.713Z" fill="#3F3D56"/>
<path d="M46.424 34.8918L45.7848 33.8266L51.7515 28.7133C56.1626 26.5905 61.4798 27.203 67.0944 28.7133V30.2046L61.5539 36.1702L55.161 37.4484L46.424 34.8918Z" fill="#052B4E"/>
<path d="M69.7355 31.714C70.7951 30.5357 70.9423 29.4152 69.7355 28.3806H67.7267V29.4318L67.0944 28.7134L61.9801 33.8267L61.1276 34.6789L60.0622 38.94L61.9801 43.6271H71.7824V34.0397L69.7355 31.714Z" fill="#CCCCCC"/>
<path d="M45.7848 33.8267H61.9801V43.6271H45.7848C43.8255 41.5077 44.8433 37.6448 45.7848 33.8267Z" fill="#F2F2F2"/>
<path d="M59.7425 36.9158H56.333V39.8985H59.7425V36.9158Z" fill="#473838"/>
<path d="M54.9479 36.8096H51.9646V43.6273H54.9479V36.8096Z" fill="#CCCCCC"/>
<path d="M48.5551 37.8755V36.8103H47.2766V37.8755H48.4484H48.5551Z" fill="#473838"/>
<path d="M48.4484 38.7268H47.2765V39.7922H48.555V38.7268H48.4484Z" fill="#473838"/>
<path d="M50.6859 36.8096H49.4073V37.8748H50.6859V36.8096Z" fill="#473838"/>
<path d="M50.6859 38.7268H49.4073V39.7921H50.6859V38.7268Z" fill="#473838"/>
<path d="M66.6177 37.8755V36.8103H65.3392V37.8755H66.5111H66.6177Z" fill="#473838"/>
<path d="M66.5111 38.7268H65.3392V39.7922H66.6177V38.7268H66.5111Z" fill="#473838"/>
<path d="M68.7487 36.8096H67.4701V37.8748H68.7487V36.8096Z" fill="#473838"/>
<path d="M68.7487 38.7268H67.4701V39.7921H68.7487V38.7268Z" fill="#473838"/>
<path d="M17.5871 16.9958L16.5217 16.1435L22.4884 10.8171H37.6181V15.5044L27.8158 22.1091L17.5871 16.9958Z" fill="#052B4E"/>
<path d="M40.3765 13.8047V10.9233H38.3677V11.629L37.618 10.8169L32.7168 16.1432L30.799 17.4217L27.8253 39.1434L32.3099 43.6272H42.7323C44.3293 35.5956 45.5956 27.3448 42.7323 16.3563L40.3765 13.8047Z" fill="#CCCCCC"/>
<path d="M16.5215 16.1431H32.7168V43.627H16.5215C14.7493 32.9497 13.8838 23.048 16.5215 16.1431Z" fill="#F2F2F2"/>
<path d="M25.7913 36.9158H22.8079V43.627H25.7913V36.9158Z" fill="#CCCCCC"/>
<path d="M37.2983 17.5281V16.4629H36.0198V17.5281H37.1919H37.2983Z" fill="#3F3D56"/>
<path d="M37.1919 18.3804H36.0198V19.4456H37.2983V18.3804H37.1919Z" fill="#473838"/>
<path d="M39.4294 16.4629H38.1508V17.5282H39.4294V16.4629Z" fill="#3F3D56"/>
<path d="M39.4294 18.3801H38.1508V19.4454H39.4294V18.3801Z" fill="#473838"/>
<path d="M37.2983 23.4936V22.4282H36.0198V23.4936H37.1919H37.2983Z" fill="#473838"/>
<path d="M37.1919 24.3457H36.0198V25.4109H37.2983V24.3457H37.1919Z" fill="#473838"/>
<path d="M39.4294 22.4282H38.1508V23.4935H39.4294V22.4282Z" fill="#473838"/>
<path d="M39.4294 24.3457H38.1508V25.411H39.4294V24.3457Z" fill="#473838"/>
<path d="M37.2983 29.4592V28.3938H36.0198V29.4592H37.1919H37.2983Z" fill="#473838"/>
<path d="M37.1919 30.3113H36.0198V31.3765H37.2983V30.3113H37.1919Z" fill="#473838"/>
<path d="M39.4294 28.3938H38.1508V29.4591H39.4294V28.3938Z" fill="#473838"/>
<path d="M39.4294 30.3113H38.1508V31.3765H39.4294V30.3113Z" fill="#473838"/>
<path d="M18.3329 17.5278H30.6924V20.0845C26.7308 18.9914 22.5996 19.0698 18.3329 20.0845V17.5278Z" fill="#473838"/>
<path d="M18.3329 22.6411C22.1904 23.7774 26.3103 23.7774 30.6924 22.6411V25.1978H18.3329V22.6411Z" fill="#473838"/>
<path d="M18.3329 27.7544H30.6924V30.3111C26.4803 28.9663 22.3561 28.9029 18.3329 30.3111V27.7544Z" fill="#473838"/>
<path d="M18.3329 32.8677C22.3637 34.4209 26.4873 34.3562 30.6924 32.8677V35.4243H18.3329V32.8677Z" fill="#473838"/>
<path d="M26.3679 4.9436H28.2045C30.016 4.9436 31.7532 5.66305 33.0341 6.94368C34.315 8.22431 35.0346 9.96122 35.0346 11.7723H26.3679V4.9436Z" fill="#052B4E"/>
<path d="M55.7269 22.0923H57.5635C59.375 22.0923 61.1122 22.8117 62.3931 24.0924C63.674 25.373 64.3936 27.1099 64.3936 28.921H55.7269V22.0923Z" fill="#052B4E"/>
<path d="M44.3941 31.3159H44.085V43.5206H44.3941V31.3159Z" fill="#3F3D56"/>
<path d="M24.316 11.4771L37.7398 10.8206L43.371 15.52L42.3754 16.4187L33.4582 16.218L24.316 11.4771Z" fill="#052B4E"/>
<path d="M53.6749 29.2433L67.0988 28.5867L72.73 33.2861L71.7344 34.1848L62.8171 33.9841L53.6749 29.2433Z" fill="#052B4E"/>
<path d="M37.4133 35.9805V34.9153H36.1348V35.9805H37.3067H37.4133Z" fill="#473838"/>
<path d="M37.3067 36.8323H36.1348V37.8976H37.4133V36.8323H37.3067Z" fill="#473838"/>
<path d="M39.5443 34.915H38.2657V35.9803H39.5443V34.915Z" fill="#473838"/>
<path d="M39.5443 36.8323H38.2657V37.8975H39.5443V36.8323Z" fill="#473838"/>
<path d="M29.9963 38.761V37.6958H28.7178V38.761H29.8897H29.9963Z" fill="#473838"/>
<path d="M29.8897 39.6128H28.7178V40.6782H29.9963V39.6128H29.8897Z" fill="#473838"/>
<path d="M32.1273 37.6956H30.8487V38.7608H32.1273V37.6956Z" fill="#473838"/>
<path d="M32.1273 39.6128H30.8487V40.6781H32.1273V39.6128Z" fill="#473838"/>
<path d="M19.6434 38.761V37.6958H18.3649V38.761H19.5368H19.6434Z" fill="#473838"/>
<path d="M19.5368 39.6128H18.3649V40.6782H19.6434V39.6128H19.5368Z" fill="#473838"/>
<path d="M21.7744 37.6956H20.4958V38.7608H21.7744V37.6956Z" fill="#473838"/>
<path d="M21.7744 39.6128H20.4958V40.6781H21.7744V39.6128Z" fill="#473838"/>
<path d="M6.17138 26.292L7.00978 25.5979C7.63849 25.9276 8.59517 27.2437 8.59517 27.2437L10.8022 28.8317C11.0672 28.8443 11.2718 29.0695 11.2592 29.3346C11.2466 29.5998 11.0215 29.8045 10.7564 29.7919C10.5844 29.7837 10.43 29.684 10.3516 29.5307L7.3529 27.9454L6.17138 26.292Z" fill="#FFB8B8"/>
<path d="M4.75696 23.6506C4.27306 24.0605 4.213 24.7853 4.62281 25.2694C4.66873 25.3236 4.71959 25.3735 4.77473 25.4184L5.30788 25.8519C5.30788 25.8519 6.63776 27.7672 7.32999 27.9894L9.10713 28.9182L9.90845 28.1144L8.29783 26.8013C8.29783 26.8013 7.55704 26.1003 7.48287 25.5872C7.43744 25.273 6.90581 24.417 6.37294 23.7821C5.96394 23.2994 5.24127 23.2398 4.75881 23.649L4.75696 23.6506Z" fill="#052B4E"/>
<path d="M6.47989 44.4365L7.23733 44.4365L7.59766 41.5137L6.47973 41.5137L6.47989 44.4365Z" fill="#FFB6B6"/>
<path d="M6.45321 45.2267L8.78247 45.2266V45.1972C8.78243 44.6963 8.37655 44.2902 7.87586 44.2902L7.45034 43.9673L6.65651 44.2902L6.45318 44.2903L6.45321 45.2267Z" fill="#2F2E41"/>
<path d="M0.708578 40.4481L1.06729 41.1155L3.81122 40.049L3.28178 39.064L0.708578 40.4481Z" fill="#FFB6B6"/>
<path d="M-5.48363e-06 40.7987L1.10305 42.851L1.12899 42.8371C1.56998 42.5999 1.73527 42.05 1.4982 41.6088L1.49817 41.6087L1.581 41.0809L0.920752 40.5344L0.824462 40.3552L-5.48363e-06 40.7987Z" fill="#2F2E41"/>
<path d="M7.91198 31.0513L8.58051 36.4016L8.24624 38.1954L2.22952 40.8324L1.89526 39.7456C3.43321 38.8041 5.07727 37.3793 6.11317 37.2745C6.11317 37.2745 6.1991 36.325 5.45697 35.7391C5.30724 35.6208 5.34 35.4609 5.27944 35.3159C5.23779 35.2162 5.07217 35.1124 5.02973 35.0101C4.97475 34.8775 5.04279 34.7458 4.98751 34.6111C4.95643 34.5354 4.83861 34.5306 4.80772 34.4548C4.75503 34.3255 4.78953 34.1254 4.73819 33.9976C4.62848 33.7247 4.52301 33.4577 4.42671 33.2075C4.12693 32.4286 3.91597 31.8115 3.94261 31.6783C4.02618 31.2603 7.91198 31.0513 7.91198 31.0513Z" fill="#052B4E"/>
<path d="M8.02715 36.3862L8.37689 38.6457L7.49417 43.2568H6.32426C5.90395 41.7075 5.88227 39.6711 6.28247 37.9483L8.02715 36.3862Z" fill="#052B4E"/>
<path d="M7.27551 24.5145L6.73619 23.5743L6.15712 23.1096L5.07077 22.9424L4.76896 23.1745C3.68278 24.8353 3.27772 26.8508 3.63791 28.8024L3.7227 29.2618L3.77652 29.5535L3.75321 29.902L3.9345 30.4095L3.90956 30.781L3.89624 30.9795L3.88287 31.1787L3.86421 31.4567C3.83081 31.6154 3.99901 31.5945 3.97522 31.7343C3.93344 31.98 3.74608 32.3439 4.03072 32.3451L6.97235 31.7343C7.71966 31.7374 8.41542 30.8459 7.69389 30.1241L7.27551 24.5145Z" fill="#FFCE58"/>
<path d="M5.89858 22.6803C5.10968 22.6803 4.47014 22.0405 4.47014 21.2513C4.47014 20.4621 5.10968 19.8223 5.89858 19.8223C6.68749 19.8223 7.32703 20.4621 7.32703 21.2513C7.32703 22.0405 6.68749 22.6803 5.89858 22.6803Z" fill="#FFB8B8"/>
<path d="M5.8744 22.6396C5.66539 22.6429 5.45648 22.6283 5.24996 22.5959C5.04525 22.5543 4.58731 22.2186 4.45964 22.0166C4.3648 21.8665 4.30415 21.6321 4.26996 21.4619C4.17686 21.0064 4.28115 20.5328 4.55695 20.1587C4.60937 20.0813 4.68171 20.0195 4.76634 19.9799C4.77384 19.977 4.78156 19.9744 4.78936 19.9721C4.91267 19.9397 5.02348 19.8711 5.10754 19.7752C5.12384 19.7558 5.14152 19.7376 5.16044 19.7207C5.25545 19.6405 5.36809 19.5839 5.48915 19.5556C5.68456 19.5033 5.96735 19.5552 6.32966 19.7101C6.51169 19.7879 6.71076 19.7598 6.8639 19.7265C6.88138 19.7232 6.89934 19.7293 6.91107 19.7427C6.97623 19.8039 7.06212 19.8381 7.15149 19.8386C7.20623 19.841 7.26366 19.9168 7.33307 20.0157C7.34882 20.0381 7.3672 20.0643 7.38046 20.0802L7.38224 20.0496L7.4132 20.0838C7.57249 20.2594 7.55928 20.531 7.3837 20.6904C7.33652 20.7332 7.28039 20.765 7.2194 20.7834C7.16434 20.7981 7.10793 20.807 7.05104 20.8102C7.01658 20.8133 6.98094 20.8165 6.94678 20.8225C6.72377 20.8682 6.54116 21.0277 6.46587 21.2426C6.43432 21.3306 6.33742 21.3764 6.24943 21.3448C6.23561 21.3399 6.2225 21.3332 6.21041 21.3248C6.13819 21.2685 6.04302 21.2512 5.95561 21.2784C5.91839 21.2991 5.88942 21.332 5.87356 21.3715C5.85428 21.4155 5.82232 21.4528 5.78176 21.4786C5.64304 21.5502 5.63348 21.8672 5.6833 22.1314C5.73133 22.3861 5.82626 22.5703 5.91416 22.5794C5.98183 22.5864 5.98956 22.5913 5.99446 22.6032L5.99884 22.6139L5.99124 22.624C5.95387 22.6375 5.91402 22.6429 5.8744 22.6396Z" fill="#2F2E41"/>
<path d="M5.31097 27.2082L6.35425 26.8975C6.8043 27.4467 7.17074 29.0318 7.17074 29.0318L8.58223 31.3558C8.82134 31.4711 8.92175 31.7583 8.80648 31.9973C8.69122 32.2363 8.40394 32.3366 8.16483 32.2214C8.00965 32.1466 7.90638 31.9945 7.89412 31.8227L5.75262 29.1915L5.31097 27.2082Z" fill="#FFB8B8"/>
<path d="M5.04111 24.2246C4.4353 24.4126 4.0967 25.0559 4.28483 25.6615C4.30591 25.7294 4.33325 25.7952 4.36649 25.858L4.68793 26.4654C4.68793 26.4654 5.14363 28.7508 5.69417 29.2259L7.1574 31.064L8.19818 30.423L7.26426 28.5064C7.26426 28.5064 6.66182 27.5736 6.79409 27.0725C6.87509 26.7656 6.72016 25.7701 6.47766 24.9776C6.28973 24.3736 5.6476 24.0362 5.04343 24.2239L5.04111 24.2246Z" fill="#052B4E"/>
</svg>
