<svg width="13" height="13" viewBox="0 0 13 13" fill="none" xmlns="http://www.w3.org/2000/svg">
<g clip-path="url(#clip0_700_1246)">
<path d="M11.0822 7.53636V4.65089M4.62198 4.53359V7.74749M10.1864 2.51611V1.13202M6.902 7.84133V6.03498H8.80219V9.01429M3.5708 5.16699L7.85209 2.92441L12.1334 5.16699V3.3841L7.85209 1.14152L3.5708 3.3841V5.16699Z" stroke="#131A22" stroke-width="0.703774" stroke-miterlimit="10"/>
<path d="M2.60889 11.9467L4.39178 10.891H9.2009L12.2623 8.08765C11.7008 7.39846 10.6767 7.31969 10.0163 7.91489L8.61442 9.1785H7.76989" stroke="#131A22" stroke-width="0.703774" stroke-miterlimit="10"/>
<path d="M2.44482 8.57024L3.52394 7.60675H6.05753C6.92559 7.60675 7.62929 8.31045 7.62929 9.17851H5.18954" stroke="#131A22" stroke-width="0.703774" stroke-miterlimit="10"/>
<path d="M1.10742 7.60675H2.51497V12.3924H1.10742V7.60675Z" stroke="#131A22" stroke-width="0.703774" stroke-miterlimit="10"/>
</g>
<defs>
<clipPath id="clip0_700_1246">
<rect width="12" height="12" fill="white" transform="translate(0.75 0.744263)"/>
</clipPath>
</defs>
</svg>
