<svg width="92" height="106" viewBox="0 0 92 106" fill="none" xmlns="http://www.w3.org/2000/svg">
<path d="M37.4862 86.8674C36.3224 85.1427 36.3353 83.0387 36.1246 81.0319C35.5886 75.9486 35.0969 70.8609 34.6495 65.769C34.549 64.6311 34.2508 64.0475 33.2004 63.8238C28.6974 62.9355 24.2041 61.9792 19.7172 60.9904C18.6766 60.7602 18.3005 61.0779 18.0282 62.3131C15.2661 74.8723 12.4564 87.4163 9.59922 99.9453C9.29124 101.3 8.91517 102.633 8.10793 103.732C6.6977 105.648 4.63908 106.222 2.84954 105.187C0.453763 103.806 -0.4637 101.553 0.220345 98.4767C2.26275 89.315 4.32462 80.1588 6.40593 71.0079C7.60544 65.7041 8.81251 60.4014 10.0272 55.0998C10.588 54.6654 11.11 55.0706 11.6287 55.223C15.3277 56.3123 18.9554 57.7096 22.6966 58.6205C25.1799 59.2268 27.2806 58.3125 29.2193 56.617C29.6894 56.2053 30.0525 55.5699 30.7463 55.5926C31.239 55.7903 31.252 56.2961 31.3363 56.7726C31.6605 58.6724 32.1014 59.1198 33.758 59.1717C35.2979 59.2235 36.8378 59.217 38.3777 59.1717C38.908 59.1391 39.4378 59.2437 39.9159 59.4754C40.394 59.7071 40.8044 60.058 41.1074 60.4944C42.1384 61.8657 43.5551 62.8512 44.2099 64.6051C44.9167 70.8231 45.7823 77.0184 45.9735 83.3013C46.0092 84.5494 45.8957 85.7813 45.001 86.6956C44.2132 87.1494 43.38 86.9906 42.5339 87.0197C41.2825 87.0522 40.0279 86.9646 38.7797 87.1851C38.3323 87.2791 37.8525 87.3083 37.4862 86.8674Z" fill="#052B4E"/>
<path d="M43.9344 64.5272C42.7089 63.0618 41.4802 61.6095 40.2613 60.1247C39.8625 59.6416 39.3665 59.6319 38.8446 59.6351C37.1717 59.6351 35.4967 59.6351 33.8196 59.6351C31.7253 59.6351 31.1385 58.9867 30.9797 56.5683C30.9925 56.412 30.9736 56.2547 30.924 56.1059C30.8744 55.9572 30.7952 55.82 30.6911 55.7027C30.3248 52.7169 30.6911 51.7864 32.6103 50.8657C35.272 50.5221 37.9401 50.8366 40.6049 50.762C41.486 50.791 42.3628 50.8995 43.2244 51.0862C46.3139 51.7346 49.384 50.9824 52.4574 50.856C53.3813 50.775 54.328 50.467 55.1741 51.2029L87.9175 51.245C90.7282 51.245 91.1302 51.7054 91.1594 54.983C91.1886 59.3174 90.9941 59.5217 87.2334 59.5606C85.5087 59.5606 83.7808 59.6222 82.0464 59.6513C81.291 60.2122 80.4254 60.1927 79.5987 60.1474C69.9346 59.5995 60.2639 59.8005 50.5933 59.7745C49.9895 59.737 49.3835 59.7598 48.7843 59.8426C48.3304 60.2414 48.7032 60.4618 48.9334 60.705C52.3374 64.3197 55.508 68.2035 58.7824 71.9674C59.5053 72.8006 60.4714 73.342 60.9771 74.428C61.064 74.5935 61.1055 74.7791 61.0976 74.9658C61.0896 75.1525 61.0324 75.3339 60.9318 75.4914C59.8036 76.8724 58.7273 78.341 57.1063 79.0121C55.8614 78.3442 54.918 77.2225 53.9422 76.1624C50.8299 72.7649 48.0224 69.001 44.7189 65.8304C44.3742 65.4519 44.1076 65.009 43.9344 64.5272Z" fill="#473838"/>
<path d="M47.8178 59.6189C48.2328 59.0775 48.7904 59.3142 49.2702 59.3142C57.174 59.3142 65.081 59.1683 72.9783 59.3758C76.003 59.4536 79.0342 59.58 82.0557 59.6546C76.7152 65.7494 71.3779 71.8442 66.0439 77.939C65.6548 78.3864 65.1621 78.7398 64.9611 79.3784C63.8783 80.9994 62.387 82.1632 61.395 83.862C60.5401 84.5463 59.7965 85.3588 59.1905 86.2708C60.9087 86.7441 62.4583 86.2221 64.0144 86.0082C65.697 86.0698 67.3763 86.0568 69.0524 86.0406C69.8065 86.0081 70.5564 86.1688 71.2309 86.5074C74.6317 86.877 78.039 86.5755 81.4462 86.6792C82.1935 86.6699 82.9406 86.7078 83.6832 86.7927C85.2036 87.0358 86.04 88.177 86.0108 89.8531C85.9817 91.5291 85.0772 92.6541 83.5438 92.7708C81.4527 92.9232 79.3519 92.9394 77.2577 93.0139C77.1432 93.1689 76.9912 93.2922 76.816 93.3721C76.6407 93.4521 76.448 93.4861 76.2559 93.471C74.0417 93.471 71.8112 93.7725 69.6294 93.0561C66.5139 92.5698 63.3823 92.9686 60.257 92.8551C58.3443 92.7902 56.4251 92.8551 54.5124 92.7967C53.9622 92.7657 53.4127 92.8693 52.9116 93.0987C52.4105 93.3281 51.9729 93.6762 51.6368 94.113C48.8974 97.2836 46.1255 100.399 43.3375 103.515C42.9132 104.006 42.4573 104.47 41.9726 104.902C40.6759 106.027 39.405 105.914 38.3611 104.617C37.4728 103.515 37.4696 101.757 38.4033 100.48C38.8863 99.8317 39.4666 99.2644 39.9821 98.6419C41.5285 96.7778 43.0684 94.904 44.6796 92.9491C43.5547 92.6768 42.3681 92.8907 41.201 92.8324C40.3614 92.7902 39.5217 92.8324 38.6821 92.7708C37.5117 92.7027 36.6267 92.103 36.1923 90.7932C35.7579 89.4835 36.1469 88.485 36.9152 87.5513C37.1097 87.3211 37.2945 87.0845 37.4858 86.8478C39.9756 86.3972 42.4881 86.6176 44.9908 86.5236C46.2098 85.6937 47.5487 86.073 48.8131 86.1767C50.0126 86.2772 50.8555 85.8525 51.6692 84.9124C53.4458 82.8505 55.164 80.7206 57.0411 78.7754C58.5129 77.8807 59.6346 76.5061 60.7984 75.1672C60.873 75.0861 60.7595 74.7846 60.7336 74.5869C64.9902 69.9995 68.8806 64.9778 73.2896 60.4456C72.7482 59.8653 72.1711 60.0696 71.6686 60.0696C64.3905 60.0534 57.1091 60.0696 49.831 60.0501C49.134 60.0825 48.4013 60.2543 47.8178 59.6189Z" fill="#473838"/>
<path d="M32.4255 51.203C31.3492 51.7963 30.7883 52.7267 30.9407 54.1532C31.0083 54.6851 30.9217 55.2252 30.6911 55.7093C27.7733 59.2754 24.3466 59.9594 20.3688 58.4844C16.9648 57.2233 13.4862 56.215 10.04 55.1128C12.4812 44.8489 14.8802 34.572 17.3797 24.3145C18.3718 20.2427 21.1144 18.5245 24.6222 19.5846C27.5507 20.4664 30.4684 21.4011 33.3754 22.3888C35.9689 23.2642 37.418 25.3066 37.7584 28.4123C38.0502 30.2343 37.4699 31.9039 37.0647 33.5994C36.5719 35.671 35.9721 37.7102 35.6544 39.8369C35.6093 40.0853 35.4854 40.3126 35.3011 40.4852C33.9297 41.0493 33.1646 40.7803 32.5195 39.3895C31.9716 38.2029 31.5891 36.9256 31.0606 35.7293C29.9098 32.0887 28.5222 28.5582 27.1703 25.0116C26.3339 22.8071 24.4828 21.9771 22.6641 22.8492C20.8454 23.7213 19.9862 25.9906 20.7773 28.1951C22.074 31.7612 23.306 35.376 24.7551 38.874C25.3127 40.9975 26.1394 42.9977 26.8915 45.0336C27.6048 46.9496 28.7556 48.2107 30.6522 48.4377C31.4593 48.481 32.2414 48.7335 32.9215 49.1703C33.2522 50.01 32.8858 50.6227 32.4255 51.203Z" fill="#FFCE58"/>
<path d="M31.7607 18.6152C27.3257 18.5763 23.7304 14.4299 23.7207 9.3433C23.7207 4.20162 27.3873 -0.0226024 31.8255 9.10105e-05C36.2637 0.0227844 39.953 4.33777 39.8687 9.43731C39.7844 14.5368 36.1729 18.6541 31.7607 18.6152Z" fill="#FCD4A6"/>
<path d="M58.0431 37.3728C61.1067 38.4815 64.3064 38.8317 67.4446 39.5157C73.1828 40.7671 78.9405 41.892 84.6884 43.0818C87.1036 43.5843 87.1425 43.6589 86.8281 46.3756C86.7535 47.024 86.6238 47.64 86.5201 48.2689C85.3076 49.0469 84.04 48.4861 82.8373 48.3564C76.1589 47.64 69.4773 46.9624 62.8054 46.1973C61.5174 45.9969 60.2181 45.8767 58.9151 45.8374C58.5806 45.8559 58.2458 45.8081 57.9298 45.6969C57.6138 45.5856 57.3229 45.413 57.0737 45.1891C56.7848 44.7373 56.6858 44.1897 56.7982 43.6654C57.0316 41.8077 57.3136 39.9566 57.5989 38.1087C57.604 37.9583 57.6475 37.8118 57.7252 37.683C57.803 37.5542 57.9124 37.4474 58.0431 37.3728Z" fill="#CCCCCC"/>
<path d="M58.043 37.373C57.7296 39.9384 57.4163 42.5017 57.1029 45.0628C57.2939 46.2806 57.0989 47.5276 56.5453 48.6289L55.1739 51.1965L52.3437 51.216C51.9904 51.216 51.6338 51.216 51.2804 51.1997C50.5445 51.0928 49.7826 51.1122 49.1342 50.5903C48.7095 49.3518 49.1342 48.4538 49.9901 47.7212C50.8978 47.3483 51.7764 47.7212 52.6614 47.8541C53.3325 48.068 53.7151 47.786 53.8415 46.982C53.929 46.4017 53.9388 45.8117 54.0619 45.2379C54.3375 43.3284 54.6617 41.4351 54.9405 39.5288C55.0151 39.0036 55.1707 38.4752 54.9146 37.963C53.942 37.4281 52.8462 37.4346 51.8121 37.2076C50.8978 37.0066 50.7455 37.7944 50.6061 38.5563C50.2527 40.5014 50.1295 42.4725 49.6724 44.3917C49.4065 44.8456 49.0013 45.1147 48.6058 44.8099C47.4646 43.9314 46.1679 43.5131 44.9068 42.9912C44.7963 42.9261 44.7012 42.838 44.6279 42.7328C44.5546 42.6276 44.5049 42.5079 44.4821 42.3817C44.4529 40.7057 44.5923 39.0652 45.2958 37.548C45.4222 37.0942 45.5551 36.6403 45.6719 36.1832C46.2327 33.9138 47.3512 33.032 49.4001 33.3692C51.329 33.6934 53.245 34.1019 55.1642 34.4877C56.6198 34.7827 57.6086 35.7131 58.043 37.373Z" fill="#052B4E"/>
<path d="M56.5454 48.6386C56.5433 47.428 56.7314 46.2246 57.103 45.0725C60.0953 45.3967 63.0876 45.7209 66.0799 46.0451C70.5894 46.5573 75.0957 47.1052 79.6052 47.6077C81.907 47.8638 84.2152 48.0583 86.5202 48.2788C85.9496 51.0701 85.0873 51.5207 83.074 49.9224C82.3479 49.3518 81.7611 49.2546 81.0738 49.9224C80.1628 50.7977 79.1773 50.895 78.3019 49.9224C77.4266 48.9498 76.6064 49.1573 75.8089 49.9062C74.9174 50.7394 74.1296 50.6745 73.3483 49.7603C72.567 48.8461 71.7565 48.8364 70.8909 49.6728C70.1615 50.386 69.4126 50.4379 68.6216 49.6533C67.7463 48.7715 66.8385 48.6808 65.8432 49.5399C64.9614 50.2888 64.0667 50.0002 63.3048 49.1833C62.5916 48.4279 61.9173 48.4344 61.2105 49.1833C60.3644 50.0878 59.4469 50.2045 58.617 49.2351C58.001 48.5057 57.2813 48.6257 56.5454 48.6386Z" fill="#E5E5E5"/>
<path d="M69.623 93.0497C70.3363 92.437 71.0657 93.027 71.7886 93.0141C73.6074 92.9849 75.4293 93.0141 77.2513 93.0141C79.3261 95.4196 81.4031 97.824 83.4823 100.227C83.9412 100.712 84.245 101.323 84.3548 101.981C84.4645 102.64 84.3752 103.316 84.0982 103.923C83.5892 105.09 82.675 105.706 81.4658 105.683C80.7169 105.667 80.2468 105.162 79.7897 104.643C76.3965 100.787 73.0076 96.9227 69.623 93.0497Z" fill="#473838"/>
<path d="M61.2754 83.6449C62.1537 81.9532 63.4189 80.4926 64.9679 79.3818L71.2313 86.5141C69.0722 86.5303 66.9098 86.5367 64.7475 86.5659C64.3279 86.5754 63.9145 86.4628 63.5577 86.2417C62.3193 85.9305 61.6093 85.0098 61.2754 83.6449Z" fill="#473838"/>
<path d="M45.3092 37.5512C45.3578 39.2273 44.8164 40.8094 44.7354 42.466C44.1875 43.0625 43.5261 42.9199 42.8939 42.7902C40.8418 42.3655 38.7864 41.9635 36.7343 41.4934C36.1086 41.3475 35.2754 41.3735 35.2041 40.2453L35.457 39.8725C36.7537 38.5011 38.1737 37.3665 39.9568 37.0001C40.3458 38.271 41.0525 38.6535 42.2002 38.2677C43.2224 37.9712 44.2603 37.732 45.3092 37.5512Z" fill="#FCD4A6"/>
<path d="M39.9533 36.9903L35.4535 39.8627C35.2525 38.5659 35.755 37.3988 36.0338 36.1993C36.6368 33.6058 37.363 31.0706 37.7552 28.4187C38.6046 31.2392 39.3503 34.0888 39.9533 36.9903Z" fill="#052B4E"/>
<path d="M35.2004 40.2356C35.3658 40.4171 35.5246 40.7219 35.6997 40.7575C38.7049 41.3411 41.6519 42.3331 44.7219 42.466C46.0965 43.1987 47.7305 43.2733 48.8781 44.6186C48.9462 44.6965 49.2768 44.476 49.4843 44.3917C49.734 44.7159 49.6659 45.1633 49.8928 45.4842C49.7372 46.3174 50.2332 47.1052 50.0257 47.9416C49.5022 48.677 49.2099 49.5517 49.1861 50.4541C49.8118 51.2938 50.6384 50.9436 51.4035 50.9404C51.7504 50.8918 52.0908 50.8529 52.3437 51.2224C52.1362 51.3197 51.9255 51.5045 51.718 51.5012C48.0676 51.4169 44.3945 52.2501 40.7636 51.1933C38.7017 50.7815 36.6042 50.6616 34.5585 50.1299C33.9717 49.9775 33.3396 49.9516 32.9116 49.3519C31.777 49.1022 30.6423 48.8656 29.5076 48.6062C29.0979 48.5131 28.7126 48.3341 28.3772 48.0809C28.0419 47.8277 27.7642 47.5062 27.5625 47.1376C26.1278 44.5888 25.1192 41.8226 24.5767 38.9485C24.6188 38.804 24.6929 38.6707 24.7933 38.5585C24.8937 38.4463 25.018 38.358 25.157 38.3001C27.2059 37.4767 29.0473 36.0114 31.2583 35.6742C32.0849 36.6144 32.2633 37.9435 32.7366 39.075C33.2618 40.3263 34.0171 40.871 35.2004 40.2356Z" fill="#FCD4A6"/>
<path d="M31.2648 35.6645L24.5832 38.9485C23.0238 36.1281 22.1874 32.9315 21.0171 29.9003C20.3914 28.2794 19.6231 26.7233 20.3687 24.8494C21.0657 23.1053 22.2652 22.2105 23.857 22.0776C25.4488 21.9447 26.7164 22.8881 27.355 24.4961C28.7264 27.9617 29.9486 31.5083 31.2064 35.0258C31.2526 35.2354 31.2722 35.45 31.2648 35.6645Z" fill="#052B4E"/>
<path d="M49.8085 45.4096C49.0823 45.3318 49.5945 44.7321 49.4843 44.3917C49.5653 42.0802 50.1003 39.853 50.3531 37.5642C50.4407 36.7991 50.8394 36.5397 51.4262 36.6597C52.7392 36.9223 54.0457 37.2335 55.3554 37.5253C54.3828 39.0782 54.4671 40.965 54.1202 42.7123C53.9549 43.552 53.8479 44.3949 53.1833 44.946C52.0876 45.3707 51.0145 46.0548 49.8085 45.4096Z" fill="#473838"/>
<path d="M49.8088 45.4096L53.1641 44.7093C53.1965 44.6865 53.2336 44.6713 53.2727 44.665C53.3118 44.6587 53.3518 44.6615 53.3897 44.6731C53.4276 44.6847 53.4623 44.7048 53.4912 44.7318C53.5201 44.7589 53.5424 44.7922 53.5564 44.8293C53.6472 46.0612 53.8255 47.3158 52.8821 48.2787L50.026 47.9545C49.7731 47.1181 49.102 46.34 49.8088 45.4096Z" fill="#FDF9F8"/>
<path d="M53.4137 44.7839C53.3263 44.7762 53.2414 44.7509 53.1641 44.7094C54.0199 42.9652 53.874 40.9585 54.2825 39.0944C54.4414 38.3682 54.4349 37.5318 55.3588 37.5253C55.7641 38.822 55.1805 40.0183 55.0509 41.2535C54.905 42.6572 54.571 44.035 54.3214 45.4226C53.9454 45.3383 53.7055 45.0109 53.4137 44.7839Z" fill="#A6C2C5"/>
<path d="M53.4137 44.7839C53.8838 44.6802 54.2404 44.7839 54.3214 45.4323C54.2371 46.165 54.1626 46.9009 54.0718 47.6336C53.9583 48.5186 53.5174 48.6353 52.8853 48.282C53.3132 47.1635 53.1284 45.9251 53.4137 44.7839Z" fill="#CADDE1"/>
<path d="M51.4038 50.9402C50.6484 51.5011 49.8153 51.1477 49.0177 51.1996C48.8103 51.1996 48.4828 51.2223 48.5217 50.8754C48.5606 50.5285 48.9302 50.5512 49.1701 50.4669L51.4038 50.9402Z" fill="#F1DBD5"/>
</svg>
