<svg width="83" height="92" viewBox="0 0 83 92" fill="none" xmlns="http://www.w3.org/2000/svg">
<path d="M57.2514 82.6682C57.2253 85.2409 57.151 87.8137 57.1919 90.3865C57.2105 91.5453 56.8424 92.0419 55.545 92.0005C52.597 91.904 49.6453 91.9109 46.6973 91.8764C46.1323 91.3418 46.1137 90.6486 46.1137 89.9623C46.1137 87.6861 46.0505 85.4099 46.1434 83.1337C46.1434 82.5061 46.1026 81.8749 46.1434 81.2473C46.1434 79.8436 45.2438 79.3573 43.9129 79.3504C37.7667 79.3159 31.6228 79.3159 25.4815 79.3504C24.1655 79.3504 23.251 79.816 23.251 81.2266C23.2845 81.8577 23.251 82.4854 23.251 83.1165C23.3439 85.4099 23.2919 87.7034 23.2807 89.9968C23.2807 90.6866 23.2807 91.3763 22.6302 91.8902H12.2211C11.6672 91.3522 11.6487 90.659 11.6487 89.9796C11.6487 86.348 11.578 82.7164 11.6784 79.0849C11.7007 78.0744 11.5892 77.057 11.8457 76.0603C11.9089 75.9016 11.9498 75.674 12.0948 75.6189C14.0873 74.8394 15.6784 73.5185 17.2993 72.2115C17.8346 72.6495 17.9275 73.2461 17.9759 73.8669C18.1952 75.8499 19.277 76.788 21.1989 76.6535C22.9425 76.5328 23.7194 75.5154 23.6748 73.3978C23.6116 70.4215 23.6413 67.4453 23.6488 64.4724C23.6488 63.6792 23.5819 62.8584 24.1581 62.1721C24.7863 61.7375 25.5224 61.741 26.2473 61.741C31.8062 61.7203 37.3627 61.7203 42.9166 61.741C43.5226 61.7076 44.1288 61.802 44.6899 62.0169C45.5747 62.6032 45.4334 63.5136 45.4334 64.3344C45.3776 67.5108 45.6044 70.6733 45.8869 73.8289C45.8609 75.812 46.6044 76.6362 48.4632 76.6707C50.3219 76.7052 51.1175 75.9361 51.2253 74.1531C51.426 73.3599 51.0506 72.3667 52.0877 71.8528C53.4855 73.3496 54.9056 74.8084 57.0655 75.3395C57.3406 75.4085 57.493 75.7258 57.6008 76.0051C57.8796 76.9811 57.7681 77.9778 57.783 78.9676C57.664 80.2057 58.0692 81.5059 57.2514 82.6682Z" fill="#052B4E"/>
<path d="M15.7597 18.1483C15.1388 9.9161 22.5218 1.34934 31.2022 0.214692C42.273 -1.2131 51.0017 4.5705 53.366 14.8858C53.6134 15.9506 53.6687 17.0461 53.5296 18.1276C52.8456 18.745 51.9719 18.6829 51.1355 18.6863C40.1465 18.7001 29.1576 18.7001 18.1686 18.6863C17.3396 18.7001 16.466 18.7139 15.7597 18.1483Z" fill="#FFCE58"/>
<path d="M75.7341 46.7525C76.381 46.9043 76.6635 46.2145 77.2211 46.1766C78.7379 47.2422 78.3364 48.7873 78.2918 50.2117C78.2546 51.0601 78.0501 51.8912 78.6301 52.6465C77.8866 53.3673 77.8643 54.2709 77.868 55.2055C77.868 63.6527 77.868 72.0987 77.868 80.5436C77.868 86.4479 75.3103 88.769 69.1244 88.4758L68.0389 88.4172C65.0351 87.3239 63.6931 85.1546 63.5779 82.2094C63.537 80.954 63.5779 79.6952 63.5221 78.4364C63.4478 71.4699 63.4961 64.5068 63.4998 57.5403C63.4998 56.8092 63.4329 56.0401 64.0351 55.4365C64.0351 54.6882 64.0351 53.9432 64.0351 53.1983C64.0574 50.4876 65.2061 49.3494 68.0686 49.2218C68.6709 49.1942 69.2768 49.1908 69.8791 49.2218C71.4293 49.2874 73.0241 49.4874 72.8085 47.1905C72.7601 46.6766 73.314 46.3111 73.8754 46.1559C74.7193 46.7594 74.6598 47.6458 74.7007 48.5045C74.749 49.5598 74.6115 50.6221 74.7973 52.043C76.1914 50.1289 75.1393 48.3217 75.7341 46.7525Z" fill="#EFC8A0"/>
<path d="M17.2618 72.1044C16.2284 74.1323 14.5592 75.3566 12.1949 75.6877C11.496 75.0428 11.667 74.2013 11.6484 73.4149C11.5926 71.3077 11.7004 69.1937 11.5666 66.8071C10.7822 67.5658 10.9086 68.2694 10.9012 68.9074C10.8714 71.4871 10.9012 74.0806 10.9012 76.6464C10.9012 77.3362 10.9383 78.026 10.6186 78.6812C10.5078 78.8653 10.3375 79.0125 10.1316 79.102C7.21712 79.5951 4.28028 79.3089 1.3546 79.2813C0.932223 79.2617 0.533625 79.0941 0.239346 78.8123C0.0869276 74.1116 -0.27739 69.3695 0.376892 64.7275C1.49215 56.7953 8.48479 51.3083 17.2395 50.9324C17.8046 51.4669 17.8529 52.1567 17.8529 52.8464C17.8777 58.6289 17.8777 64.4102 17.8529 70.1903C17.8195 70.856 17.838 71.563 17.2618 72.1044Z" fill="#FFCE58"/>
<path d="M22.6074 91.8901L22.7189 82.9509C23.5219 82.3922 23.6483 81.8335 22.7189 81.2679C22.6372 79.3262 23.0163 78.8537 24.9495 78.8537C31.3931 78.8238 37.8368 78.8238 44.2805 78.8537C46.2136 78.8537 46.6263 79.3538 46.5854 81.2679C45.6411 81.8404 45.5705 82.4094 46.5854 82.9922C46.6151 85.9651 46.6436 88.9368 46.6709 91.9073L22.6074 91.8901Z" fill="#473838"/>
<path d="M57.1169 75.7567C54.7638 75.2773 52.905 74.2082 52.0425 71.9423C51.4291 71.2698 51.5332 70.4387 51.5295 69.6489C51.5097 64.2136 51.5097 58.7795 51.5295 53.3465C51.5295 52.4947 51.4514 51.6221 52.128 50.9048C56.0872 51.0634 59.682 52.1463 62.7267 54.6364C63.0129 60.9821 62.7973 67.3313 62.8382 73.6805C62.8382 75.2738 63.065 76.8844 62.6003 78.4605C61.5705 79.6055 60.3214 79.4952 59.0017 79.0296C58.8505 78.8855 58.735 78.7124 58.6634 78.5226C58.2619 75.5635 58.5854 72.5838 58.4738 69.6144C58.4404 68.7729 58.6039 67.89 57.8084 66.7347C57.6634 69.1937 57.7787 71.2733 57.7155 73.346C57.6931 74.1771 57.9311 75.091 57.1169 75.7567Z" fill="#FFCE58"/>
<path d="M26.0018 47.1248C20.5222 43.814 17.6783 39.0375 17.2396 32.9262C16.4329 31.7812 16.7303 30.4845 16.708 29.2429C16.6783 27.8117 16.6485 26.3804 16.734 24.9492C16.734 24.3388 16.7117 23.718 17.0166 23.1524C17.0592 23.0702 17.1255 23.0006 17.2082 22.9513C17.2909 22.902 17.3867 22.8749 17.485 22.873C18.1281 24.4629 19.6486 24.1594 20.9609 24.3146C21.0883 24.4516 21.1844 24.6112 21.2434 24.7837C21.5334 27.4151 21.4293 30.0603 21.3549 32.6917C21.1951 38.5546 25.8159 45.3729 34.4591 45.4522C42.1172 45.5281 47.5225 40.3445 47.9649 33.0366C48.0875 31.0329 47.9649 29.0222 47.9946 27.0116C47.9946 26.2701 47.9165 25.5148 48.2586 24.8044C48.3724 24.6305 48.5411 24.4932 48.7418 24.4112C49.8571 24.1698 50.9723 23.9698 51.95 24.7768C52.5523 27.1909 52.292 29.6499 52.1173 32.0813C52.1063 32.8158 52.0066 33.547 51.8199 34.2609C51.3032 39.9169 48.1396 44.0071 43.3589 47.1386C43.23 47.402 43.0425 47.6371 42.8087 47.8284C37.8458 50.1218 32.8086 50.3736 27.6784 48.3354C27.0055 48.0526 26.3401 47.8042 26.0018 47.1248Z" fill="#404040"/>
<path d="M52.132 50.891C51.8086 54.8743 52.0539 58.868 52.0056 62.8582C51.9722 65.8794 52.0316 68.9039 52.0502 71.9285L51.4591 74.3427C51.1878 75.8981 49.9312 76.3533 48.5744 76.3809C47.1394 76.405 45.8234 75.967 45.4814 74.3496C44.7044 72.5252 45.1096 70.6042 45.0056 68.728C44.8754 66.6105 44.9015 64.4861 44.8568 62.3651C43.9129 58.5908 43.9103 54.6663 44.8494 50.891H52.132Z" fill="#F2F2F2"/>
<path d="M17.262 72.1046C17.2447 65.0415 17.2273 57.9784 17.21 50.9153L24.2732 50.9601C24.5831 51.3925 24.7295 51.908 24.6896 52.4258C24.7342 55.2263 24.7193 58.0301 24.6896 60.834C24.6832 61.3508 24.5564 61.8602 24.3178 62.3273L24.0576 73.9083C23.3513 75.574 22.2175 76.4431 20.6226 76.3466C19.0278 76.25 17.9126 75.5637 17.5297 74.0117C17.4578 73.3749 17.3686 72.7391 17.262 72.1046Z" fill="#F2F2F2"/>
<path d="M17.5961 23.035H17.2244C17.0163 23.2009 16.7495 23.2899 16.4752 23.2848C16.2008 23.2797 15.9381 23.1809 15.7374 23.0074C13.4511 22.128 13.3135 21.4451 15.1686 19.7828C15.6258 19.3724 15.4362 18.8206 15.7411 18.4033C16.8563 19.0172 18.0645 18.9482 19.269 18.9482C29.7251 18.9482 40.1837 18.9482 50.6448 18.9482C51.6597 18.9482 52.7154 18.8103 53.6188 19.4724C54.4181 19.9208 55.4553 20.1829 55.3772 21.352C55.3103 22.3867 54.485 22.7315 53.5965 22.9764C53.0314 23.4903 52.314 23.4903 51.6002 23.5179C50.4491 23.4294 49.2933 23.4063 48.1392 23.4489C39.0982 23.5075 30.0646 23.5317 21.0274 23.4489C19.8601 23.4523 18.6593 23.7282 17.5961 23.035Z" fill="#FFCE58"/>
<path d="M0.209159 78.8262L10.3691 78.9055C10.8487 79.34 10.9007 79.9229 10.9082 80.4954C10.9528 83.7556 10.9528 87.017 10.9082 90.2796C10.9082 90.8521 10.8524 91.4315 10.384 91.8763C7.42857 91.897 4.47687 91.8763 1.52516 91.966C0.33184 91.997 0.134807 91.4556 0.149677 90.5003C0.194288 86.5963 0.190571 82.7026 0.209159 78.8262Z" fill="#EFC8A0"/>
<path d="M42.9903 47.3699L43.3621 47.1388L43.4067 50.9324C43.942 53.9639 42.3658 56.178 40.0386 57.8507C34.8118 61.6064 27.1946 58.8232 25.7782 52.7189C25.6333 52.1016 25.4511 51.4808 25.9493 50.9152C25.9815 50.2255 26.0174 49.5265 26.0571 48.8183C27.0199 48.5321 27.808 49.0598 28.6333 49.3495C32.4831 50.7591 36.768 50.7505 40.6111 49.3253C41.1347 49.175 41.6178 48.9229 42.0281 48.5857C42.4383 48.2485 42.7664 47.834 42.9903 47.3699Z" fill="#FCD4A6"/>
<path d="M25.9496 50.9151C26.3028 57.9403 34.1542 61.3132 39.7044 57.5471C42.1022 55.9193 42.9461 53.5224 43.3959 50.9186L44.8495 50.891C44.8495 54.7099 44.8495 58.5289 44.8495 62.3478L24.3585 62.3168C24.3313 58.53 24.3065 54.7364 24.2842 50.9358L25.9496 50.9151Z" fill="#FFCE58"/>
<path d="M69.2245 38.5617C64.1947 35.5819 65.0572 29.3845 69.1353 27.1428C70.6059 26.3214 72.3567 26.0456 74.0372 26.3704C75.7176 26.6953 77.2039 27.5968 78.1986 28.8948C79.2147 30.2016 79.6902 31.804 79.538 33.4092C79.3857 35.0144 78.6161 36.5152 77.3696 37.6374C76.9538 37.9667 76.5195 38.2752 76.0684 38.5617C75.7213 38.7839 75.3157 38.9147 74.8948 38.9402C74.4739 38.9657 74.0535 38.885 73.6781 38.7065C72.5405 37.1649 72.9941 35.6957 73.9457 34.2749C74.3695 33.6403 74.89 33.0747 74.5071 32.2435C74.4016 32.0104 74.2469 31.7992 74.052 31.6224C73.8571 31.4456 73.626 31.3068 73.3724 31.2142C73.1187 31.1217 72.8477 31.0771 72.5752 31.0833C72.3027 31.0895 72.0343 31.1463 71.7859 31.2503C70.8082 31.7159 70.4624 32.854 71.2097 33.9093C71.9836 34.9474 72.3244 36.2111 72.1688 37.465C72.1167 37.9202 72.061 38.3789 71.626 38.6858C70.8044 39.0204 69.9977 39.0824 69.2245 38.5617Z" fill="#EABE1F"/>
<path d="M53.6117 19.5073C41.5149 19.5073 29.4169 19.5199 17.3176 19.5452C16.4403 19.5452 15.7228 19.4935 15.7451 18.4278C15.7134 18.3872 15.6963 18.3383 15.6963 18.2881C15.6963 18.2379 15.7134 18.1891 15.7451 18.1484H53.515C53.5596 18.5968 53.5857 19.052 53.6117 19.5073Z" fill="#052B4E"/>
<path d="M62.3222 78.7778C62.3222 71.2526 62.3222 63.7273 62.3222 56.2021C62.3222 55.6572 62.1177 55.0295 62.7646 54.6364L64.0991 55.4123C64.0991 63.1928 64.0991 70.9744 64.0991 78.7571C63.6456 79.2641 63.1066 79.2399 62.5304 78.9847L62.3222 78.7778Z" fill="#052B4E"/>
<path d="M17.228 24.7048V32.9267C15.8674 32.5335 14.4175 32.3266 13.4324 31.1781C11.4435 28.8536 11.7744 26.067 14.2949 23.9736C15.2614 24.284 16.373 24.0288 17.228 24.7048Z" fill="#FCD4A6"/>
<path d="M59.0019 78.8883L62.303 78.778L62.2621 78.8607C62.9647 79.5712 62.7788 80.4679 62.7454 81.2749C62.6487 83.7994 63.6302 85.7928 65.7937 87.2757C66.2064 87.5585 66.7529 87.8034 66.6451 88.4518C63.1692 89.0036 60.697 87.4689 58.6338 85.003C58.6041 82.982 57.9572 80.8955 59.0019 78.8883Z" fill="#EFC8A0"/>
<path d="M55.0279 23.9907C56.7974 25.3909 57.6525 27.0946 56.8606 29.2743C56.1171 31.3642 54.6561 32.6368 52.2212 32.6782C51.5855 30.1813 52.0836 27.6464 51.961 25.1323C51.9349 24.577 52.4331 24.4046 52.9052 24.2632C53.5967 24.07 54.3253 24.1459 55.0279 23.9907Z" fill="#FCD4A6"/>
<path d="M42.9908 47.3698C43.2733 48.5631 42.619 49.0942 41.5298 49.5184C36.2398 51.629 31.1207 51.1841 26.0687 48.8286C26.0687 48.263 26.0352 47.7009 26.0166 47.1353C31.6152 49.9253 37.2769 49.8253 42.9908 47.3698Z" fill="#FCD4A6"/>
<path d="M69.2256 38.5616L71.7461 38.4202C71.9968 38.2242 72.3142 38.1167 72.642 38.1167C72.9699 38.1167 73.2872 38.2242 73.5379 38.4202L76.0696 38.5581C76.1699 42.5311 74.6495 43.6485 70.5788 42.5932C70.1878 42.5037 69.841 42.2942 69.5946 41.9987C69.3483 41.7031 69.2169 41.339 69.2219 40.9654C69.1661 40.1687 69.2219 39.3652 69.2256 38.5616Z" fill="#052B4E"/>
<path d="M10.3843 91.8625C10.3843 87.5377 10.3843 83.2141 10.3843 78.8917L10.3657 78.7434C10.6167 78.5499 10.9366 78.4504 11.2626 78.4644C11.5886 78.4785 11.8972 78.605 12.1278 78.8192C12.1501 83.1739 12.1737 87.5274 12.1985 91.8797L10.3843 91.8625Z" fill="#D2AB82"/>
<path d="M63.827 19.6865C65.1727 19.6037 68.2657 22.6593 68.0984 23.9078C67.9608 24.9424 66.7601 25.6322 65.8158 25.1148C64.4558 24.3361 63.3173 23.2657 62.4961 21.9937C61.8901 21.0867 62.734 19.752 63.827 19.6865Z" fill="#FFCE58"/>
<path d="M78.9576 25.2149C78.6353 25.2307 78.3149 25.1601 78.0347 25.0115C77.7545 24.8629 77.5264 24.6426 77.3777 24.3769C77.0654 23.8354 77.0059 23.2491 77.4557 22.7835C78.3748 21.8119 79.3476 20.8853 80.3702 20.0073C81.0468 19.4382 81.8573 19.6072 82.4744 20.1866C82.7613 20.4075 82.944 20.7235 82.9836 21.0675C83.0232 21.4114 82.9165 21.7561 82.6863 22.0282C81.6974 23.4112 80.5747 24.639 78.9576 25.2149Z" fill="#FFCE58"/>
<path d="M74.2994 19.6589C74.3347 20.2896 74.3347 20.9216 74.2994 21.5523C74.2829 21.9277 74.1088 22.2822 73.8142 22.54C73.5197 22.7978 73.128 22.9384 72.7231 22.9318C72.5222 22.9548 72.3183 22.9394 72.124 22.8867C71.9297 22.8339 71.7491 22.7449 71.5931 22.6251C71.4372 22.5053 71.3093 22.3573 71.2172 22.19C71.1251 22.0227 71.0709 21.8398 71.0577 21.6523C70.9443 20.3382 70.9443 19.0177 71.0577 17.7035C71.1283 16.8689 71.8012 16.3998 72.7083 16.424C72.9085 16.4138 73.109 16.4406 73.2979 16.5029C73.4869 16.5652 73.6607 16.6618 73.8091 16.7869C73.9575 16.9121 74.0776 17.0633 74.1624 17.2319C74.2472 17.4005 74.295 17.5831 74.3031 17.769C74.3409 18.3985 74.3397 19.0296 74.2994 19.6589Z" fill="#052B4E"/>
<path d="M66.6448 88.4826C62.5556 86.3616 61.9013 82.8232 62.2619 78.8743L64.0611 78.7709C64.102 80.4194 63.9756 82.0886 64.221 83.7061C64.5556 85.8857 66.4515 87.0893 68.0538 88.4205L66.6448 88.4826Z" fill="#D2AB83"/>
<path d="M78.6375 52.6327C77.433 52.6775 77.3995 51.943 77.63 51.1566C78.1327 49.5 77.9906 47.732 77.2285 46.1628C78.1096 45.8421 78.7713 46.1628 79.3326 46.8043C80.0638 47.6675 80.3999 48.7627 80.2684 49.8537C80.137 50.9447 79.5485 51.944 78.63 52.6362L78.6375 52.6327Z" fill="#D3AB84"/>
<path d="M75.7341 46.7524C76.3958 48.2388 76.0315 49.7942 76.0389 51.3151C76.0383 51.4887 75.998 51.6601 75.9205 51.8181C75.8431 51.9761 75.7303 52.117 75.5897 52.2315C75.4491 52.3459 75.2838 52.4314 75.1049 52.4821C74.926 52.5328 74.7375 52.5477 74.5519 52.5257C73.3884 52.4498 74.3029 51.66 74.2731 51.222C74.169 49.5252 74.4887 47.8043 73.9014 46.1385C74.6635 45.9661 75.3326 45.9937 75.7341 46.7524Z" fill="#D2AB84"/>
<path d="M80.8273 46.1284C82.4146 45.8801 83.0132 46.6388 82.9946 48.039C82.9946 48.9978 83.0169 49.96 82.9686 50.9188C82.9351 51.5671 82.6935 52.1396 81.9128 52.2983C81.1916 52.6018 80.8384 52.1534 80.7975 51.6292C80.6228 49.8014 80.2919 47.9597 80.8273 46.1284Z" fill="#D2AC84"/>
<path d="M80.8274 46.1284C81.3776 47.6666 81.11 49.2634 81.1694 50.836C81.1955 51.4188 80.9352 52.1465 81.9129 52.3052C80.872 52.8846 79.7196 52.4776 78.6304 52.65C80.1694 50.8463 79.8572 48.8564 79.333 46.8182L80.8274 46.1284Z" fill="#EFC8A0"/>
<path d="M59.0017 78.888C58.8084 80.9331 59.4367 83.0265 58.63 85.0372C57.8456 84.4198 57.8233 83.3955 57.2471 82.6678C57.2471 81.3918 57.2471 80.1157 57.2471 78.8397C57.4756 78.6181 57.7857 78.4844 58.1156 78.4653C58.4456 78.4461 58.7712 78.5428 59.0278 78.7362L59.0017 78.888Z" fill="#D4AE86"/>
<path d="M55.0282 23.9905C54.8312 24.3768 54.5115 24.7113 54.0728 24.6458C52.017 24.3423 52.0914 25.5735 52.1397 26.9047C52.214 28.8292 52.1992 30.7536 52.2215 32.678C51.9947 33.1815 52.2624 33.7988 51.82 34.2506C51.8051 31.0617 51.789 27.8727 51.7717 24.6837C51.3999 24.2147 51.2995 23.7526 51.8163 23.3042C52.0706 23.1376 52.3604 23.0233 52.6663 22.9692C52.9721 22.9151 53.2869 22.9223 53.5895 22.9904L55.0282 23.9905Z" fill="#FCD4A6"/>
<path d="M17.2276 24.7045C16.2388 24.5182 15.0157 25.1735 14.3057 23.9733L15.7406 23.0249L17.2276 23.0525C17.2313 23.6008 17.2276 24.1527 17.2276 24.7045Z" fill="#FCD4A6"/>
<path d="M12.1129 78.8263L10.3508 78.7504V68.6179C10.3203 68.2191 10.329 67.8185 10.3768 67.4212C10.5218 66.6935 10.6817 65.7347 11.6594 65.852C12.5479 65.9589 12.1315 66.8866 12.1427 67.4522C12.191 70.2112 12.1761 72.9461 12.1798 75.6948L12.1129 78.8263Z" fill="#052B4E"/>
<path d="M59.0172 78.7365L57.2365 78.84L57.125 75.7568C57.1436 72.846 57.151 69.9352 57.1919 67.0279C57.1919 66.6141 56.9503 65.9933 57.6046 65.8795C58.1845 65.7933 58.5228 66.2451 58.7198 66.79C58.9257 67.3868 59.0188 68.0122 58.9949 68.6385C59.0023 72.0045 59.0098 75.3705 59.0172 78.7365Z" fill="#050505"/>
<path d="M17.5782 73.9979C19.9017 76.6086 21.9352 76.5741 24.1062 73.8944C24.0764 76.1016 22.9909 77.1294 20.7381 77.088C18.6489 77.0638 17.4779 75.9188 17.5782 73.9979Z" fill="#DD9C2B"/>
<path d="M45.4813 74.3427C47.5928 76.4878 49.3772 76.4843 51.459 74.3427C52.1133 75.4463 51.262 76.105 50.5222 76.5878C49.9582 76.9724 49.2809 77.1877 48.5812 77.205C47.8815 77.2223 47.1929 77.0406 46.6077 76.6844C45.7601 76.2015 44.8827 75.5394 45.4813 74.3427Z" fill="#DC9928"/>
<path d="M46.6115 82.9645C45.9647 82.9645 45.1245 83.0887 45.0911 82.2196C45.0353 81.2712 45.8606 81.247 46.6041 81.2574C46.6078 81.823 46.6115 82.392 46.6115 82.9645Z" fill="#F2F2F2"/>
<path d="M22.7272 81.2678C23.4112 81.2678 24.1733 81.2678 24.1807 82.13C24.1881 82.9922 23.3889 82.9612 22.7197 82.9508C22.7234 82.3887 22.7234 81.83 22.7272 81.2678Z" fill="#F2F2F2"/>
<path d="M37.1509 12.6718C36.5747 13.6857 36.0022 14.9652 35.1695 16.0688C34.6974 16.7034 34.0245 16.3275 33.9353 15.6032C33.936 15.1506 34.0738 14.7072 34.3331 14.3238C34.8832 13.3822 34.7048 12.9822 33.5115 13.0374C32.0579 13.1063 31.8423 12.4338 32.4631 11.313C32.939 10.4542 33.3739 9.57134 33.8647 8.71949C34.0728 8.35737 34.4074 8.05388 34.8981 8.25736C35.0167 8.29532 35.1246 8.35754 35.2137 8.43941C35.3029 8.52128 35.3711 8.6207 35.4132 8.73032C35.4553 8.83995 35.4703 8.95696 35.4571 9.07269C35.4439 9.18842 35.4028 9.29991 35.3368 9.3989C34.478 10.7577 34.2996 11.6889 36.5004 11.5785C36.9576 11.5751 37.2141 11.951 37.1509 12.6718Z" fill="#052B4E"/>
<path d="M36.9575 82.9646C36.2735 82.9853 35.4705 82.9646 35.4891 82.1334C35.5077 81.1953 36.3924 81.2643 37.1136 81.254C37.8348 81.2436 38.6006 81.3092 38.5783 82.1127C38.5635 83.0611 37.675 82.9646 36.9575 82.9646Z" fill="#F2F2F2"/>
<path d="M41.7338 82.9647C41.0573 82.9647 40.2468 82.9647 40.2803 82.1404C40.3138 81.3162 41.1576 81.2196 41.9011 81.2369C42.5814 81.2369 43.3658 81.3196 43.351 82.1232C43.3324 83.0923 42.429 82.9406 41.7338 82.9647Z" fill="#F2F2F2"/>
<path d="M32.2097 82.9646C31.5554 82.9405 30.7227 83.0439 30.7227 82.1403C30.7524 81.1747 31.6483 81.2747 32.3695 81.254C33.0907 81.2333 33.8119 81.3816 33.7487 82.2093C33.6967 83.0887 32.8565 82.9646 32.2097 82.9646Z" fill="#F2F2F2"/>
<path d="M27.3551 81.2644C28.2138 81.2471 28.9573 81.3023 28.9536 82.1472C28.9499 82.9922 28.1432 82.9749 27.4852 82.9542C26.8272 82.9335 25.9982 83.1129 25.9647 82.2024C25.9239 81.2023 26.8086 81.2954 27.3551 81.2644Z" fill="#F2F2F2"/>
<path d="M48.4077 24.6802C48.43 28.229 48.8389 31.7985 48.1438 35.3231C46.8835 41.7033 40.4374 46.4902 33.9206 45.9764C30.4074 45.7362 27.1186 44.2842 24.7021 41.9064C22.2855 39.5286 20.9165 36.3974 20.8647 33.1297C20.8163 30.3224 20.9018 27.5082 20.9241 24.7009C21.6119 24.0767 22.4855 24.1456 23.3219 24.1422C30.8834 24.1284 38.4423 24.1284 45.9988 24.1422C46.8389 24.1525 47.72 24.0594 48.4077 24.6802Z" fill="#FCD4A6"/>
<path d="M48.4071 24.6802L20.9235 24.7009L20.8232 24.356C20.651 24.1709 20.5598 23.9327 20.5673 23.6882C20.5749 23.4438 20.6807 23.2109 20.8641 23.0352H48.4777C48.7065 23.2589 48.8416 23.551 48.8587 23.859C48.8757 24.167 48.7736 24.4704 48.5707 24.7147L48.4071 24.6802Z" fill="#FCD4A6"/>
<path d="M48.5675 24.7045C48.5378 24.1423 48.5043 23.5836 48.4746 23.0249C49.5899 23.0939 50.7609 22.6145 51.8204 23.325L51.7758 24.7045H48.5675Z" fill="#15120D"/>
<path d="M20.8639 23.0283C20.8639 23.4698 20.8379 23.9078 20.823 24.3492C18.336 25.1631 17.7114 24.9114 17.5962 23.0352L20.8639 23.0283Z" fill="#110E0A"/>
<path d="M48.4475 72.2735C47.4251 72.108 46.73 71.5355 46.7634 70.5491C46.7544 70.3337 46.7962 70.1191 46.8859 69.9202C46.9756 69.7214 47.1111 69.5431 47.2828 69.3979C47.4545 69.2527 47.6584 69.1441 47.8801 69.0797C48.1018 69.0152 48.3361 68.9965 48.5664 69.0248C48.7832 69.0215 48.9983 69.0599 49.1983 69.1375C49.3983 69.2151 49.5789 69.3302 49.7287 69.4756C49.8784 69.621 49.9942 69.7936 50.0686 69.9825C50.143 70.1714 50.1746 70.3725 50.1612 70.5733C50.1687 71.5838 49.4884 72.1356 48.4475 72.2735Z" fill="#404040"/>
<path d="M22.4991 70.5834C22.4359 71.5525 21.8894 72.2182 20.8411 72.232C19.7927 72.2457 19.131 71.5974 19.1161 70.6179C19.0992 70.4175 19.1272 70.2159 19.1984 70.026C19.2696 69.836 19.3825 69.6619 19.5299 69.5144C19.6773 69.367 19.856 69.2495 20.0548 69.1693C20.2536 69.0892 20.4682 69.0481 20.6849 69.0487C21.7518 68.9867 22.3578 69.5453 22.4991 70.5834Z" fill="#404040"/>
<path d="M73.5372 38.4237H71.7453C71.7453 36.8476 72.013 35.3198 70.526 33.9817C69.6375 33.1816 70.0055 31.8883 70.9684 31.0709C71.9907 30.2018 73.1989 30.1535 74.2547 31.0019C75.1655 31.7434 75.9052 32.9125 74.9015 33.8368C73.4257 35.1956 73.5074 36.7683 73.5372 38.4237Z" fill="#F2F2F2"/>
<path d="M42.3513 34.5232C42.2286 38.2996 38.4628 41.5691 34.5445 41.4759C30.5185 41.3794 26.8716 38.0927 26.8604 34.5473C26.8604 34.0335 26.8381 33.4231 27.5593 33.3368C28.5742 33.2161 28.4627 33.999 28.5928 34.606C29.6337 39.4101 34.6114 41.3621 38.4516 38.4721C39.8122 37.4374 40.4145 36.0579 40.6561 34.4577C40.7416 33.9024 40.7862 33.2023 41.6673 33.3299C42.5483 33.4575 42.303 34.168 42.3513 34.5232Z" fill="#404040"/>
<path d="M35.4629 32.4711C35.4629 33.1022 35.4629 33.7333 35.4629 34.3645C35.4926 34.5646 35.4358 34.7676 35.3049 34.9291C35.174 35.0907 34.9796 35.1976 34.764 35.2266C34.6572 35.2449 34.5475 35.2419 34.442 35.218C34.3365 35.1941 34.2377 35.1497 34.152 35.0878C34.0663 35.0259 33.9958 34.9479 33.9449 34.8589C33.894 34.7699 33.8641 34.6719 33.8569 34.5714C33.6453 33.1508 33.6378 31.7104 33.8346 30.288C33.8376 30.187 33.8631 30.0876 33.9095 29.9962C33.9559 29.9048 34.0223 29.8233 34.1044 29.7568C34.1865 29.6904 34.2825 29.6405 34.3864 29.6102C34.4904 29.5799 34.5999 29.57 34.7082 29.581C34.8158 29.5888 34.9207 29.6164 35.0166 29.6623C35.1125 29.7081 35.1976 29.7713 35.2668 29.8481C35.3361 29.9248 35.3881 30.0137 35.4199 30.1094C35.4516 30.2051 35.4625 30.3057 35.4517 30.4053C35.474 31.095 35.4517 31.7848 35.4517 32.4745L35.4629 32.4711Z" fill="#404040"/>
<path d="M44.9503 27.8428C44.902 28.843 44.3518 29.4913 43.2923 29.4913C42.2328 29.4913 41.6046 28.8705 41.5971 27.8635C41.5801 27.6634 41.6081 27.4621 41.6794 27.2725C41.7507 27.083 41.8637 26.9092 42.0112 26.7623C42.1587 26.6154 42.3375 26.4986 42.5363 26.4192C42.7351 26.3398 42.9495 26.2996 43.1659 26.3012C44.2254 26.2391 44.8499 26.8116 44.9503 27.8428Z" fill="#404040"/>
<path d="M26.0758 26.2944C27.1465 26.4117 27.7747 27.0187 27.6966 28.0016C27.6943 28.2034 27.6485 28.4027 27.5619 28.5878C27.4753 28.773 27.3497 28.9402 27.1925 29.0796C27.0352 29.2191 26.8495 29.328 26.6463 29.3999C26.443 29.4718 26.2263 29.5053 26.0089 29.4983C24.9234 29.4983 24.2951 28.8086 24.2988 27.8533C24.3026 26.898 24.9829 26.3048 26.0758 26.2944Z" fill="#404040"/>
<path d="M72.6787 33.6472C72.1322 33.5816 71.7605 33.3023 71.7902 32.785C71.7879 32.6733 71.8112 32.5624 71.8589 32.4598C71.9065 32.3572 71.9772 32.2653 72.0663 32.1902C72.1554 32.115 72.2608 32.0584 72.3754 32.0242C72.49 31.99 72.6112 31.9789 72.7308 31.9917C72.9431 32.0015 73.1432 32.0869 73.2894 32.2302C73.4355 32.3735 73.5164 32.5636 73.5152 32.7608C73.5264 32.8706 73.5133 32.9814 73.4768 33.0863C73.4403 33.1912 73.381 33.2882 73.3027 33.3711C73.2244 33.4541 73.1287 33.5214 73.0214 33.5688C72.9141 33.6163 72.7975 33.643 72.6787 33.6472Z" fill="#F6BD35"/>
</svg>
