<svg width="65" height="52" viewBox="0 0 65 52" fill="none" xmlns="http://www.w3.org/2000/svg">
<path d="M13.9352 42.6567H1.38287V42.1249H13.9352V42.6567Z" fill="#473838"/>
<path d="M14.5734 42.125H2.02112V41.5931H14.5734V42.125Z" fill="#473838"/>
<path d="M13.8288 41.593H1.27649V41.0611H13.8288V41.593Z" fill="#473838"/>
<path d="M12.5523 41.061H0L0 40.5292H12.5523V41.061Z" fill="#473838"/>
<path d="M23.2325 41.2729H22.7967V38.1786H23.2325V41.2729Z" fill="#052B4E"/>
<path d="M23.2334 38.1394L23.0695 38.5432L6.94199 31.9973L7.1059 31.5935L23.2334 38.1394Z" fill="#052B4E"/>
<path d="M31.2951 45.8928H27.5035V44.411H31.2951V45.8928Z" fill="#3F3D56"/>
<path d="M30.9466 47.3743H12.25V45.7182H30.9466V47.3743Z" fill="#052B4E"/>
<path d="M27.874 46.5467H23.3851V40.9028H26.7409L27.874 43.7493V46.5467Z" fill="#473838"/>
<path d="M26 43.1689H24.0824V41.2513H26V43.1689Z" fill="white"/>
<path d="M27.4382 43.1905H26.2178V41.2729H26.7409L27.4382 43.1905Z" fill="white"/>
<path d="M24.6053 45.0869H24.1695V44.2589H24.6053V45.0869Z" fill="#E2E2E2"/>
<path d="M26.5883 43.3215H26.6101C26.7199 43.3215 26.8252 43.2779 26.9029 43.2003C26.9805 43.1226 27.0241 43.0173 27.0241 42.9075C27.0241 42.7977 26.9805 42.6924 26.9029 42.6147C26.8252 42.5371 26.7199 42.4935 26.6101 42.4935H26.5883V43.3215Z" fill="#E2E2E2"/>
<path d="M10.376 46.5469H10.3978C10.5076 46.5469 10.6129 46.5033 10.6905 46.4256C10.7682 46.348 10.8118 46.2427 10.8118 46.1328C10.8118 46.023 10.7682 45.9177 10.6905 45.8401C10.6129 45.7624 10.5076 45.7188 10.3978 45.7188H10.376V46.5469Z" fill="#3F3D56"/>
<path d="M29.6172 45.7122C29.9413 45.7164 30.2603 45.7936 30.5504 45.938C30.8406 46.0825 31.0945 46.2905 31.2932 46.5465H32.1449L31.3168 44.2399L27.4599 43.4792L27.5688 46.5465H27.9411C28.1398 46.2905 28.3937 46.0825 28.6839 45.938C28.974 45.7936 29.2931 45.7164 29.6172 45.7122Z" fill="#473838"/>
<path d="M29.6608 48.9872C28.6138 48.9872 27.765 48.1384 27.765 47.0914C27.765 46.0443 28.6138 45.1956 29.6608 45.1956C30.7078 45.1956 31.5566 46.0443 31.5566 47.0914C31.5566 48.1384 30.7078 48.9872 29.6608 48.9872Z" fill="#052B4E"/>
<path d="M29.6608 48.0891C29.1097 48.0891 28.663 47.6424 28.663 47.0913C28.663 46.5402 29.1097 46.0935 29.6608 46.0935C30.2118 46.0935 30.6586 46.5402 30.6586 47.0913C30.6586 47.6424 30.2118 48.0891 29.6608 48.0891Z" fill="#E2E2E2"/>
<path d="M12.5332 48.9653C11.6186 48.9653 10.8771 48.2238 10.8771 47.3092C10.8771 46.3945 11.6186 45.6531 12.5332 45.6531C13.4479 45.6531 14.1893 46.3945 14.1893 47.3092C14.1893 48.2238 13.4479 48.9653 12.5332 48.9653Z" fill="#052B4E"/>
<path d="M12.5332 48.181C12.0518 48.181 11.6615 47.7908 11.6615 47.3094C11.6615 46.828 12.0518 46.4377 12.5332 46.4377C13.0145 46.4377 13.4048 46.828 13.4048 47.3094C13.4048 47.7908 13.0145 48.181 12.5332 48.181Z" fill="#E2E2E2"/>
<path d="M23.5158 46.7209H22.6006V40.1183H23.5158V46.7209Z" fill="#052B4E"/>
<path d="M23.5158 45.9143H10.3541V45.5221H23.5158V45.9143Z" fill="#052B4E"/>
<path d="M26.8498 43.4524H26.4139V43.2781H26.8498V43.4524Z" fill="#E2E2E2"/>
<path d="M7.5867 42.6535C7.59083 42.6489 7.59395 42.6436 7.59586 42.6377C7.59777 42.6319 7.59843 42.6257 7.59778 42.6196L6.99673 36.9357C6.9956 36.9251 6.99057 36.9152 6.9826 36.908C6.97464 36.9008 6.9643 36.8968 6.95357 36.8967H6.95338C6.94268 36.8967 6.93235 36.9007 6.92437 36.9078C6.91638 36.9149 6.91129 36.9247 6.91007 36.9354L6.26001 42.6074C6.25932 42.6135 6.2599 42.6196 6.26174 42.6255C6.26357 42.6313 6.26661 42.6367 6.27065 42.6412C6.2747 42.6458 6.27966 42.6495 6.28522 42.652C6.29077 42.6546 6.2968 42.6559 6.30291 42.656L7.55403 42.6678H7.55444C7.56051 42.6678 7.56652 42.6665 7.57208 42.664C7.57763 42.6616 7.58261 42.658 7.5867 42.6535ZM6.95163 37.3383L7.50596 42.5801L6.35213 42.5693L6.95163 37.3383Z" fill="#052B4E"/>
<path d="M31.3089 44.2734L31.2885 44.2811C31.1858 44.32 31.1027 44.398 31.0576 44.4981C31.0124 44.5982 31.0089 44.7122 31.0477 44.8149C31.0866 44.9176 31.1646 45.0006 31.2647 45.0458C31.3648 45.091 31.4787 45.0945 31.5814 45.0557L31.6018 45.0479L31.3089 44.2734Z" fill="#E2E2E2"/>
<path d="M7.15085 37.9609H6.71503L6.71503 31.598H7.15085L7.15085 37.9609Z" fill="#3F3D56"/>
<path d="M23.0146 38.8763C22.6776 38.8763 22.4045 38.6031 22.4045 38.2661C22.4045 37.9292 22.6776 37.656 23.0146 37.656C23.3516 37.656 23.6248 37.9292 23.6248 38.2661C23.6248 38.6031 23.3516 38.8763 23.0146 38.8763Z" fill="#052B4E"/>
<path d="M22.1261 45.5291H9.57379V44.9972H22.1261V45.5291Z" fill="#473838"/>
<path d="M21.3815 44.9973H8.82916V44.4654H21.3815V44.9973Z" fill="#473838"/>
<path d="M21.9134 44.5715H9.36108V44.0397H21.9134V44.5715Z" fill="#473838"/>
<path d="M21.1687 44.0396H8.61639V43.5077H21.1687V44.0396Z" fill="#473838"/>
<path d="M14.2122 13.0788C13.8122 13.0783 13.4254 13.2224 13.1233 13.4845C12.8845 13.4193 12.6342 13.4083 12.3906 13.4523C12.189 13.1597 11.8991 12.9392 11.5632 12.8231C11.2274 12.707 10.8632 12.7013 10.5239 12.8069C10.1846 12.9125 9.88796 13.1239 9.67731 13.4101C9.46667 13.6963 9.35307 14.0423 9.3531 14.3977H15.8417C15.7621 14.0245 15.5569 13.6899 15.2603 13.4499C14.9637 13.2098 14.5937 13.0788 14.2122 13.0788Z" fill="#473838"/>
<path d="M23.9738 18.3284C23.5956 18.3279 23.23 18.4642 22.9443 18.712C22.7186 18.6503 22.4819 18.6399 22.2517 18.6815C22.061 18.4049 21.7869 18.1965 21.4694 18.0867C21.1519 17.9769 20.8076 17.9716 20.4868 18.0714C20.1661 18.1712 19.8856 18.371 19.6865 18.6416C19.4873 18.9121 19.3799 19.2393 19.38 19.5753H25.5143C25.4391 19.2225 25.2451 18.9062 24.9647 18.6792C24.6843 18.4523 24.3345 18.3284 23.9738 18.3284Z" fill="#473838"/>
<path d="M33.7334 9.67001C33.34 9.66956 32.9596 9.8113 32.6623 10.0691C32.4275 10.005 32.1812 9.99415 31.9417 10.0374C31.7433 9.74962 31.4581 9.53276 31.1278 9.41855C30.7974 9.30434 30.4392 9.29876 30.1054 9.40263C29.7717 9.50651 29.4799 9.71439 29.2727 9.9959C29.0655 10.2774 28.9537 10.6178 28.9538 10.9674H35.3363C35.258 10.6003 35.0562 10.2712 34.7644 10.0351C34.4727 9.79892 34.1088 9.67007 33.7334 9.67001Z" fill="#473838"/>
<path d="M54.6967 26.1568V39.4437H49.5296V25.9723L50.729 26.0151V23.2964H51.599L51.7424 17.2752C51.3913 17.0464 51.1442 16.5031 51.1442 15.8687C51.1439 15.6866 51.1651 15.505 51.2074 15.3279C51.0413 15.1481 50.9394 14.9183 50.9179 14.6745C50.8963 14.4306 50.9562 14.1865 51.0883 13.9804C50.9779 14.0768 50.8494 14.1504 50.7103 14.1968C50.5712 14.2433 50.4243 14.2616 50.2781 14.2508C50.1319 14.24 49.9893 14.2002 49.8586 14.1339C49.7278 14.0675 49.6116 13.9758 49.5166 13.8641C49.4216 13.7525 49.3497 13.6231 49.3051 13.4834C49.2605 13.3437 49.2441 13.1966 49.2569 13.0505C49.2696 12.9045 49.3112 12.7624 49.3793 12.6325C49.4474 12.5027 49.5406 12.3877 49.6535 12.2941C49.4637 12.2241 49.2967 12.1033 49.1706 11.945C49.0446 11.7867 48.9643 11.5969 48.9386 11.3962C48.9128 11.1955 48.9426 10.9915 49.0246 10.8065C49.1066 10.6215 49.2377 10.4625 49.4037 10.3468C49.5698 10.2311 49.7643 10.1631 49.9663 10.1502C50.1682 10.1373 50.3698 10.18 50.5492 10.2736C50.7286 10.3672 50.879 10.5082 50.9839 10.6813C51.0888 10.8543 51.1442 11.0528 51.1442 11.2552C51.1442 11.2714 51.1437 11.2875 51.1431 11.3035C51.2951 11.2571 51.4553 11.2439 51.6129 11.2649C51.7705 11.2858 51.9217 11.3405 52.0563 11.4251C52.1909 11.5096 52.3057 11.6222 52.3929 11.7551C52.4802 11.888 52.5378 12.0381 52.5619 12.1952C52.7 12.1131 52.8543 12.0619 53.0141 12.0454C53.1739 12.0289 53.3354 12.0473 53.4874 12.0995C53.6394 12.1516 53.7782 12.2362 53.8942 12.3474C54.0102 12.4585 54.1006 12.5936 54.1591 12.7433C54.2177 12.8929 54.243 13.0535 54.2333 13.2138C54.2235 13.3742 54.179 13.5306 54.1028 13.672C54.0266 13.8135 53.9205 13.9366 53.7919 14.033C53.6633 14.1293 53.5153 14.1965 53.3581 14.2299C53.3583 14.2379 53.3588 14.2459 53.3588 14.254C53.2559 14.5643 53.125 14.8646 52.9677 15.1512C53.0446 15.3825 53.0832 15.6249 53.0819 15.8687C53.0819 16.5031 52.8349 17.0464 52.4838 17.2752L52.6272 23.2964H53.4971V26.114L54.6967 26.1568ZM51.4701 13.4696L51.4672 13.4697C51.4512 13.4697 51.4354 13.4691 51.4196 13.4685C51.4096 13.5012 51.3982 13.5332 51.3854 13.5646C51.4118 13.5313 51.4401 13.4996 51.4701 13.4696Z" fill="#473838"/>
<path d="M57.5418 48.9016H41.8558V30.7551L57.5418 30.7551V48.9016Z" fill="#3F3D56"/>
<path d="M51.8133 48.9016H47.5842V45.2108H51.8133V48.9016Z" fill="#E2E2E2"/>
<path d="M62.7694 6.87841C62.7697 6.89182 62.7704 6.90511 62.7704 6.91857C62.7706 7.16536 62.7212 7.40967 62.6251 7.63697C62.529 7.86426 62.3881 8.06989 62.2108 8.24161C62.1832 8.30066 62.1524 8.35819 62.1186 8.41397C62.2468 8.79953 62.3112 9.20346 62.309 9.60979C62.309 11.0112 61.5861 12.1472 60.6943 12.1472C59.8025 12.1472 59.0796 11.0112 59.0796 9.60979C59.0789 9.30623 59.1142 9.00366 59.1848 8.70842C58.9079 8.40878 58.7382 8.02577 58.7023 7.61937C58.6663 7.21297 58.7662 6.80613 58.9862 6.46255C58.8022 6.62333 58.5881 6.74596 58.3563 6.82332C58.1246 6.90068 57.8797 6.93123 57.636 6.91321C57.3924 6.89518 57.1547 6.82893 56.9368 6.71831C56.7189 6.60769 56.5252 6.45489 56.3669 6.26879C56.2085 6.08269 56.0887 5.86699 56.0144 5.63422C55.9401 5.40145 55.9128 5.15623 55.934 4.91281C55.9552 4.66938 56.0246 4.4326 56.1381 4.2162C56.2515 3.9998 56.4069 3.80809 56.595 3.65221C56.2786 3.53544 56.0003 3.3342 55.7902 3.07034C55.5801 2.80649 55.4463 2.49011 55.4034 2.15558C55.3605 1.82105 55.4101 1.48115 55.5468 1.17282C55.6835 0.864484 55.902 0.5995 56.1787 0.406653C56.4554 0.213806 56.7797 0.100469 57.1163 0.0789547C57.4529 0.0574401 57.7889 0.12857 58.0879 0.284619C58.3869 0.440667 58.6374 0.675666 58.8123 0.964088C58.9871 1.25251 59.0795 1.58333 59.0796 1.9206C59.0796 1.94762 59.0787 1.97443 59.0775 2.00116C59.3309 1.92376 59.598 1.90179 59.8606 1.93674C60.1232 1.97169 60.3753 2.06275 60.5996 2.20373C60.8239 2.3447 61.0153 2.5323 61.1607 2.75378C61.3061 2.97526 61.4021 3.22543 61.4423 3.48731C61.6724 3.35039 61.9296 3.26518 62.196 3.23762C62.4623 3.21006 62.7315 3.2408 62.9848 3.32771C63.2381 3.41462 63.4694 3.55561 63.6628 3.7409C63.8561 3.92619 64.0068 4.15135 64.1044 4.40072C64.202 4.6501 64.2442 4.91773 64.2279 5.18503C64.2117 5.45233 64.1375 5.71289 64.0105 5.94864C63.8835 6.18439 63.7067 6.38967 63.4923 6.55022C63.278 6.71078 63.0313 6.82277 62.7694 6.87841ZM59.6178 5.61141C59.5912 5.61141 59.5648 5.61052 59.5384 5.6094C59.5218 5.66394 59.5029 5.71734 59.4814 5.7696C59.5254 5.71417 59.5725 5.66131 59.6226 5.61129L59.6178 5.61141Z" fill="#473838"/>
<path d="M61.6172 24.7576H59.7716L59.8375 21.9897V21.9886L60.0791 11.8394C60.2644 11.9526 60.4773 12.0125 60.6944 12.0125C60.9116 12.0125 61.1245 11.9526 61.3098 11.8394L61.5513 21.9886V21.9897L61.6172 24.7576Z" fill="#052B4E"/>
<path d="M65 26.7564V48.9017H56.3888V26.449L58.3877 26.5203V21.9897H63.0012V26.6852L65 26.7564Z" fill="#052B4E"/>
<path d="M40.7783 6.87841C40.7786 6.89182 40.7793 6.90511 40.7793 6.91857C40.7795 7.16536 40.7301 7.40967 40.634 7.63697C40.5379 7.86426 40.397 8.06989 40.2198 8.24161C40.1921 8.30066 40.1613 8.35819 40.1275 8.41397C40.2558 8.79953 40.3201 9.20346 40.3179 9.60979C40.3179 11.0112 39.595 12.1472 38.7032 12.1472C37.8114 12.1472 37.0885 11.0112 37.0885 9.60979C37.0878 9.30623 37.1231 9.00366 37.1937 8.70842C36.9168 8.40878 36.7471 8.02577 36.7112 7.61937C36.6752 7.21297 36.7751 6.80613 36.9951 6.46255C36.8111 6.62333 36.597 6.74596 36.3653 6.82333C36.1335 6.90069 35.8886 6.93125 35.645 6.91322C35.4013 6.8952 35.1636 6.82895 34.9457 6.71833C34.7278 6.60771 34.5341 6.45491 34.3758 6.26881C34.2174 6.08271 34.0976 5.86701 34.0233 5.63423C33.949 5.40145 33.9217 5.15624 33.9429 4.91281C33.9641 4.66938 34.0335 4.4326 34.147 4.2162C34.2604 3.9998 34.4158 3.80809 34.6039 3.65221C34.2875 3.53544 34.0092 3.3342 33.7991 3.07034C33.589 2.80649 33.4552 2.49011 33.4123 2.15558C33.3694 1.82105 33.419 1.48115 33.5557 1.17282C33.6924 0.864484 33.9109 0.5995 34.1876 0.406653C34.4643 0.213805 34.7886 0.100469 35.1252 0.0789547C35.4618 0.0574401 35.7978 0.12857 36.0968 0.284619C36.3958 0.440667 36.6463 0.675666 36.8212 0.964089C36.996 1.25251 37.0884 1.58333 37.0885 1.9206C37.0885 1.94762 37.0876 1.97443 37.0864 2.00116C37.3398 1.92376 37.6069 1.90179 37.8695 1.93674C38.1322 1.97169 38.3842 2.06275 38.6085 2.20373C38.8328 2.3447 39.0242 2.5323 39.1696 2.75378C39.315 2.97526 39.411 3.22543 39.4512 3.48731C39.6813 3.35039 39.9385 3.26518 40.2049 3.23762C40.4712 3.21006 40.7404 3.2408 40.9937 3.32771C41.247 3.41462 41.4784 3.55561 41.6717 3.7409C41.865 3.92619 42.0157 4.15135 42.1133 4.40072C42.2109 4.6501 42.2531 4.91773 42.2368 5.18503C42.2206 5.45233 42.1464 5.71289 42.0194 5.94864C41.8924 6.18439 41.7156 6.38967 41.5012 6.55022C41.2869 6.71078 41.0402 6.82277 40.7783 6.87841ZM37.6267 5.61141C37.6001 5.61141 37.5737 5.61052 37.5473 5.6094C37.5308 5.66394 37.5118 5.71734 37.4903 5.7696C37.5343 5.71417 37.5814 5.66131 37.6315 5.61129L37.6267 5.61141Z" fill="#473838"/>
<path d="M39.6259 24.7574H37.7805L38.0881 11.8396C38.4857 11.9825 38.9207 11.9825 39.3183 11.8396L39.6259 24.7574Z" fill="#052B4E"/>
<path d="M43.009 26.7564V48.9017H34.3969V26.449L35.1043 26.4745L36.3967 26.5203V21.9897H41.0102V26.6852L43.009 26.7564Z" fill="#052B4E"/>
<path d="M47.3585 35.0728H45.231V32.9452H47.3585V35.0728Z" fill="white"/>
<path d="M50.7625 35.0728H48.635V32.9452H50.7625V35.0728Z" fill="white"/>
<path d="M54.1665 35.0728H52.039V32.9452H54.1665V35.0728Z" fill="white"/>
<path d="M47.3585 38.4768H45.231V36.3493H47.3585V38.4768Z" fill="white"/>
<path d="M50.7625 38.4768H48.635V36.3493H50.7625V38.4768Z" fill="white"/>
<path d="M54.1665 38.4768H52.039V36.3493H54.1665V38.4768Z" fill="white"/>
<path d="M47.3585 41.8809H45.231V39.7534H47.3585V41.8809Z" fill="white"/>
<path d="M50.7625 41.8809H48.635V39.7534H50.7625V41.8809Z" fill="white"/>
<path d="M54.1665 41.8809H52.039V39.7534H54.1665V41.8809Z" fill="white"/>
<path d="M61.7581 34.2214H59.6306V32.0939H61.7581V34.2214Z" fill="white"/>
<path d="M61.7581 37.6257H59.6306V35.4982H61.7581V37.6257Z" fill="white"/>
<path d="M61.7581 41.0298H59.6306V38.9023H61.7581V41.0298Z" fill="white"/>
<path d="M61.7581 44.4338H59.6306V42.3063H61.7581V44.4338Z" fill="white"/>
<path d="M39.7847 34.2214H37.6572V32.0939H39.7847V34.2214Z" fill="white"/>
<path d="M39.7847 37.6257H37.6572V35.4982H39.7847V37.6257Z" fill="white"/>
<path d="M39.7847 41.0298H37.6572V38.9023H39.7847V41.0298Z" fill="white"/>
<path d="M39.7847 44.4338H37.6572V42.3063H39.7847V44.4338Z" fill="white"/>
<path d="M0.0195541 51.5608H64.2703V51.8799H0.0195541V51.5608Z" fill="#3F3D56"/>
</svg>
