<svg width="56" height="43" viewBox="0 0 56 43" fill="none" xmlns="http://www.w3.org/2000/svg">
<path d="M28.7965 22.8777H24.3541V25.7187H28.7965V22.8777Z" fill="#473838"/>
<path d="M35.5424 18.177H31.1V21.018H35.5424V18.177Z" fill="#473838"/>
<path d="M48.3528 19.0035V12.9598H44.9952V9.03406H42.7224V12.9598H39.3648V19.0035H37.5053V5.4182H33.7344V4.12683H28.7239V2.83545H23.765V4.12683H19.0644V5.4182H14.9836V18.9518H12.8141V12.9082H9.45654V8.9824H7.18371V12.9082H3.82613V18.9518H1.65662V40.3887H6.61551V32.7954H10.0247V40.3887H23.3518V31.5557H29.1371V40.3887H37.1953V40.4404H42.1542V32.8471H45.5634V40.4404H50.5223V19.0035H48.3528ZM3.43872 21.5862H5.40161V23.1359H3.43872V21.5862ZM3.46454 25.9253H5.42744V27.4749H3.46454V25.9253ZM5.45327 31.814H3.49037V30.2643H5.45327V31.814ZM10.5929 17.8154H6.0473V16.8856H10.5929V17.8154ZM10.5929 16.4724H6.0473V15.5426H10.5929V16.4724ZM10.5929 15.1294H6.0473V14.1996H10.5929V15.1294ZM11.2386 21.5862H13.2015V23.1359H11.2386V21.5862ZM11.2645 25.9253H13.2274V27.4749H11.2645V25.9253ZM13.2532 31.814H11.2903V30.2643H13.2532V31.814ZM21.2856 29.2312H17.6697V27.6299H21.2856V29.2312ZM21.2856 24.6339H17.6697V23.0326H21.2856V24.6339ZM21.2856 20.0366H17.6697V18.4353H21.2856V20.0366ZM21.2856 15.4393H17.6697V13.838H21.2856V15.4393ZM21.2856 10.842H17.6697V9.24068H21.2856V10.842ZM28.0524 29.2312H24.4365V27.6299H28.0524V29.2312ZM28.0524 24.6339H24.4365V23.0326H28.0524V24.6339ZM28.0524 20.0366H24.4365V18.4353H28.0524V20.0366ZM28.0524 15.4393H24.4365V13.838H28.0524V15.4393ZM28.0524 10.842H24.4365V9.24068H28.0524V10.842ZM34.8192 29.2312H31.2033V27.6299H34.8192V29.2312ZM34.8192 24.6339H31.2033V23.0326H34.8192V24.6339ZM34.8192 20.0366H31.2033V18.4353H34.8192V20.0366ZM34.8192 15.4393H31.2033V13.838H34.8192V15.4393ZM34.8192 10.842H31.2033V9.24068H34.8192V10.842ZM38.9774 21.6379H40.9403V23.1876H38.9774V21.6379ZM39.0033 25.9769H40.9661V27.5266H39.0033V25.9769ZM40.992 31.8656H39.0291V30.316H40.992V31.8656ZM46.1317 17.8671H41.586V16.9373H46.1317V17.8671ZM46.1317 16.524H41.586V15.5943H46.1317V16.524ZM46.1317 15.181H41.586V14.2512H46.1317V15.181ZM46.7773 21.6379H48.7402V23.1876H46.7773V21.6379ZM46.8032 25.9769H48.7661V27.5266H46.8032V25.9769ZM48.7919 31.8656H46.829V30.316H48.7919V31.8656Z" fill="#052B4E"/>
<path d="M4.04256 40.1112C3.91216 40.185 3.77784 40.2517 3.6402 40.3109L4.66851 40.5346L4.66066 40.5456C4.79077 40.4989 4.91444 40.4358 5.02871 40.358C5.07348 40.3273 5.11733 40.2956 5.16027 40.2629L4.08348 40.0876C4.06983 40.0955 4.05617 40.1035 4.04256 40.1112Z" fill="#6C63FF"/>
<path d="M45.7568 37.7495L45.7559 37.7621C45.7561 37.7578 45.7566 37.7538 45.7568 37.7495Z" fill="#6C63FF"/>
<path d="M45.7675 37.6007L45.7675 37.6007C45.7679 37.5966 45.768 37.5922 45.7684 37.5881L45.7675 37.6007Z" fill="#6C63FF"/>
<path d="M50.6675 40.1821H1.80182V41.1636H50.6675V40.1821Z" fill="#3F3D56"/>
<path d="M38.569 2.4741L39.6693 3.18761L39.0013 1.94555C39.1904 1.79117 39.4246 1.70571 39.6666 1.70271C39.6725 1.70271 39.6784 1.70276 39.6843 1.70286C39.7607 1.70412 39.8371 1.69834 39.9126 1.6856L40.2854 1.9274L40.1256 1.6302C40.3897 1.53599 40.618 1.3588 40.7779 1.12395L41.4452 1.55674L41.0236 0.772852C41.4139 0.293762 41.9399 0 42.5188 0C43.2128 0 43.831 0.422079 44.2301 1.07971C44.3481 1.27647 44.5148 1.43782 44.7135 1.54736C44.9122 1.6569 45.1356 1.71074 45.3612 1.70341C45.3736 1.70294 45.386 1.70271 45.3985 1.70271C46.1647 1.70271 46.7857 2.59104 46.7857 3.68685C46.7857 4.78266 46.1647 5.67099 45.3985 5.67099C45.23 5.67035 45.0642 5.6279 44.9153 5.54728C44.6545 5.41767 44.3693 5.34753 44.0794 5.34173C43.7895 5.33594 43.5018 5.39462 43.2363 5.51371C43.012 5.61682 42.7689 5.67041 42.5229 5.67099C42.277 5.67157 42.0336 5.61913 41.8088 5.51709C41.5453 5.40027 41.2604 5.34274 40.9732 5.34842C40.6861 5.3541 40.4035 5.42284 40.1447 5.54999C39.9971 5.62888 39.8331 5.67038 39.6666 5.67099C38.9005 5.67099 38.2794 4.78266 38.2794 3.68685C38.2749 3.26415 38.3745 2.8471 38.569 2.4741Z" fill="#473838"/>
<path d="M8.69967 6.90795L9.43316 7.26471L8.98783 6.64368C9.11395 6.56648 9.27003 6.52375 9.43138 6.52225C9.43532 6.52225 9.43925 6.52228 9.44318 6.52233C9.49415 6.52296 9.54508 6.52007 9.59537 6.5137L9.84393 6.6346L9.73738 6.486C9.9135 6.4389 10.0657 6.3503 10.1722 6.23288L10.6171 6.44928L10.3361 6.05732C10.4544 5.94023 10.6053 5.84481 10.7777 5.77797C10.9501 5.71113 11.1397 5.67456 11.3329 5.6709C11.7955 5.6709 12.2076 5.88194 12.4737 6.21075C12.5523 6.30914 12.6635 6.38981 12.796 6.44458C12.9284 6.49935 13.0774 6.52627 13.2278 6.5226C13.236 6.52237 13.2443 6.52225 13.2527 6.52225C13.7634 6.52225 14.1775 6.96642 14.1775 7.51432C14.1775 8.06223 13.7634 8.5064 13.2527 8.5064C13.1403 8.50607 13.0298 8.48485 12.9305 8.44454C12.7567 8.37973 12.5665 8.34466 12.3733 8.34177C12.18 8.33887 11.9882 8.36821 11.8112 8.42776C11.6616 8.47931 11.4996 8.5061 11.3356 8.50639C11.1716 8.50668 11.0094 8.48046 10.8595 8.42944C10.6839 8.37103 10.4939 8.34227 10.3025 8.34511C10.1111 8.34795 9.92267 8.38232 9.75009 8.44589C9.6517 8.48534 9.54239 8.50609 9.43137 8.5064C8.92062 8.5064 8.50657 8.06223 8.50657 7.51432C8.50359 7.30298 8.57 7.09445 8.69967 6.90795Z" fill="#473838"/>
<path d="M0.193206 4.69103L0.926691 5.22616L0.481356 4.29462C0.607477 4.17883 0.763559 4.11474 0.924902 4.11248C0.928843 4.11248 0.932778 4.11252 0.936705 4.1126C0.987669 4.11355 1.0386 4.10921 1.08889 4.09966L1.33746 4.281L1.23091 4.05811C1.40702 3.98745 1.55923 3.85456 1.66577 3.67842L2.11067 4.00302L1.8296 3.41509C1.94797 3.23945 2.09882 3.09631 2.27122 2.99605C2.44363 2.8958 2.63327 2.84094 2.82639 2.83545C3.28904 2.83545 3.70117 3.15201 3.96723 3.64523C4.04588 3.79281 4.15707 3.91381 4.28951 3.99597C4.42195 4.07812 4.57092 4.1185 4.72131 4.11301C4.72958 4.11266 4.73787 4.11248 4.74619 4.11248C5.25694 4.11248 5.67099 4.77873 5.67099 5.60059C5.67099 6.42245 5.25694 7.08869 4.74619 7.08869C4.63387 7.08821 4.52333 7.05637 4.42406 6.99591C4.2502 6.8987 4.06006 6.8461 3.86679 6.84175C3.67352 6.8374 3.48174 6.88141 3.30471 6.97073C3.15515 7.04806 2.9931 7.08825 2.82912 7.08869C2.66515 7.08913 2.50294 7.0498 2.35306 6.97327C2.17741 6.88565 1.98743 6.84251 1.79601 6.84676C1.60459 6.85102 1.4162 6.90258 1.24362 6.99794C1.14523 7.05711 1.03592 7.08824 0.924898 7.08869C0.414145 7.08869 9.55923e-05 6.42244 9.55923e-05 5.60059C-0.00287722 5.28356 0.063532 4.97078 0.193206 4.69103Z" fill="#473838"/>
<path d="M28.5923 21.5117L26.5314 23.5726L25.555 22.5962L25.1749 22.9763L26.5301 24.3316L28.9724 21.8918L28.5923 21.5117Z" fill="white"/>
<path d="M35.359 16.811L33.2982 18.8719L32.3218 17.8955L31.9417 18.2756L33.2969 19.6309L35.7392 17.1912L35.359 16.811Z" fill="white"/>
<path d="M52.2582 32.3574L52.1769 32.4387C52.1769 32.4387 52.204 33.3327 52.2311 33.5223C52.2582 33.7119 52.3666 34.037 52.2853 34.2808C52.204 34.5246 52.1769 34.7143 52.204 34.7413C52.2311 34.7684 52.1769 34.8768 52.1769 34.8768L52.3937 34.7413L52.7458 33.9286L52.5833 33.0618L52.2582 32.3574Z" fill="#6C63FF"/>
<path opacity="0.1" d="M52.2582 32.3574L52.1769 32.4387C52.1769 32.4387 52.204 33.3327 52.2311 33.5223C52.2582 33.7119 52.3666 34.037 52.2853 34.2808C52.204 34.5246 52.1769 34.7143 52.204 34.7413C52.2311 34.7684 52.1769 34.8768 52.1769 34.8768L52.3937 34.7413L52.7458 33.9286L52.5833 33.0618L52.2582 32.3574Z" fill="black"/>
<path d="M53.694 40.7825C53.694 40.7825 53.694 40.4845 53.6398 40.4303C53.5856 40.3762 53.5044 40.1865 53.396 40.1865C53.2876 40.1865 52.9084 40.2949 52.9084 40.322C52.9115 40.4065 52.8928 40.4905 52.8542 40.5658C52.8 40.6471 52.502 40.9721 52.8 41.0263C52.8991 41.0426 53.0004 41.039 53.0981 41.0158C53.1957 40.9925 53.2878 40.95 53.3689 40.8909C53.396 40.8638 53.5044 40.8367 53.5314 40.8638C53.5585 40.8909 53.694 40.7825 53.694 40.7825Z" fill="#052B4E"/>
<path d="M54.4525 40.2949L54.6151 40.5929C54.6151 40.5929 54.6692 40.8638 54.7505 40.8909H54.8318C54.8318 40.8909 54.913 41.1889 55.1027 41.1618C55.2923 41.1347 55.509 41.0263 55.509 40.9722C55.509 40.918 55.509 40.7554 55.4278 40.7013C55.3138 40.6082 55.2053 40.5087 55.1027 40.4033L54.9672 40.2678L54.4525 40.2949Z" fill="#052B4E"/>
<path d="M52.3735 30.3717C52.3213 30.3983 52.2763 30.437 52.2423 30.4846C52.2082 30.5322 52.1861 30.5873 52.1778 30.6453C52.1627 30.8387 52.3539 31.0209 52.2924 31.2049C52.2575 31.3094 52.1487 31.377 52.1174 31.4826C52.1009 31.5669 52.1133 31.6542 52.1525 31.7305C52.1953 31.8352 52.2473 31.9359 52.3081 32.0313C52.4223 32.2106 52.5709 32.3807 52.6014 32.591C52.6099 32.6278 52.6095 32.6661 52.6003 32.7027C52.5911 32.7393 52.5734 32.7732 52.5486 32.8017C52.6035 32.7601 52.6664 32.7301 52.7334 32.7138C53.0103 32.6212 53.2675 32.478 53.4919 32.2913C53.5735 32.2339 53.6349 32.1523 53.6673 32.0581C53.7087 31.8917 53.5824 31.7252 53.5945 31.5541C53.6022 31.4447 53.6654 31.348 53.7011 31.2443C53.7322 31.1411 53.7421 31.0326 53.7302 30.9254C53.7184 30.8183 53.685 30.7146 53.632 30.6207C53.5882 30.5298 53.5263 30.4488 53.4502 30.3826C53.3741 30.3164 53.2853 30.2663 53.1892 30.2355C53.0414 30.2011 52.8872 30.2056 52.7417 30.2485C52.6145 30.2748 52.4909 30.3162 52.3735 30.3717Z" fill="#2F2E41"/>
<path d="M52.526 31.8738C52.5857 31.7629 52.674 31.6702 52.7818 31.6051C52.8895 31.5401 53.0128 31.5052 53.1387 31.5041C53.5721 31.5041 53.4908 31.4771 53.4908 31.4771L53.3554 32.0189L53.0845 32.2898L52.526 31.8738Z" fill="#6C63FF"/>
<path d="M52.6375 31.3009C52.6375 31.3009 52.8813 31.7073 52.7187 31.8698C52.5562 32.0324 52.6375 32.1949 52.6645 32.222C52.6916 32.2491 53.4502 32.3033 53.4502 32.3033L53.4772 31.924L53.5585 31.5989C53.5585 31.5989 53.1251 31.5176 53.1793 31.328C53.2334 31.1384 52.6375 31.3009 52.6375 31.3009Z" fill="#FBBEBE"/>
<path opacity="0.1" d="M52.6375 31.3009C52.6375 31.3009 52.8813 31.7073 52.7187 31.8698C52.5562 32.0324 52.6375 32.1949 52.6645 32.222C52.6916 32.2491 53.4502 32.3033 53.4502 32.3033L53.4772 31.924L53.5585 31.5989C53.5585 31.5989 53.1251 31.5176 53.1793 31.328C53.2334 31.1384 52.6375 31.3009 52.6375 31.3009Z" fill="black"/>
<path d="M54.5338 35.1479C54.5048 35.2409 54.4686 35.3315 54.4254 35.4188C54.3983 35.4459 54.3171 35.2292 54.3171 35.2292L54.3983 35.0396L54.5338 35.1479Z" fill="#FBBEBE"/>
<path d="M54.2223 33.9153L54.3306 34.5384H52.7052L52.7865 33.9153H54.2223Z" fill="#FBBEBE"/>
<path d="M52.9355 31.5177C53.2198 31.5177 53.4502 31.2873 53.4502 31.003C53.4502 30.7187 53.2198 30.4883 52.9355 30.4883C52.6512 30.4883 52.4208 30.7187 52.4208 31.003C52.4208 31.2873 52.6512 31.5177 52.9355 31.5177Z" fill="#FBBEBE"/>
<path d="M53.0438 32.0596C53.0438 32.0596 52.7458 32.0867 52.7458 32.0325C52.7458 31.9783 52.7187 31.8158 52.6645 31.8429C52.6103 31.87 52.2582 31.897 52.2853 31.9783C52.3123 32.0596 52.3665 32.2221 52.3123 32.2221C52.2889 32.2269 52.2667 32.2364 52.2471 32.25C52.2275 32.2637 52.2108 32.2811 52.1981 32.3014C52.1855 32.3217 52.177 32.3443 52.1734 32.368C52.1697 32.3916 52.1709 32.4157 52.1769 32.4388C52.204 32.5743 52.502 33.387 52.502 33.387C52.502 33.387 52.5291 33.6579 52.6103 33.7392C52.6434 33.7818 52.6613 33.8342 52.6613 33.8882C52.6613 33.9421 52.6434 33.9945 52.6103 34.0372C52.5562 34.0913 52.7458 34.1455 52.8271 34.2539C52.9083 34.3622 53.5314 34.281 53.5585 34.2539C53.5856 34.2268 54.2357 34.2268 54.2899 34.1726C54.3441 34.1184 54.2628 33.9559 54.2628 33.9559C54.2628 33.9559 54.2357 33.7121 54.2628 33.6308C54.2899 33.5495 54.1545 32.2221 54.0732 32.1409C53.9919 32.0596 54.317 31.8158 54.317 31.8158C54.317 31.8158 54.2628 31.5991 53.9107 31.572C53.9107 31.572 53.8023 31.4094 53.6939 31.4094C53.5856 31.4094 53.3503 31.5355 53.3503 31.5355C53.3503 31.5355 53.2876 31.897 53.2063 31.9241C53.1421 31.9556 53.0863 32.0021 53.0438 32.0596Z" fill="#FFCE58"/>
<path d="M54.1274 31.7346L54.317 31.8159C54.317 31.8159 54.8588 33.4955 54.8047 33.8206C54.7505 34.1456 54.615 35.2563 54.5338 35.2563C54.4525 35.2563 54.29 35.0938 54.29 35.0938V34.8229C54.29 34.7687 54.2087 34.6062 54.2629 34.6062C54.317 34.6062 54.3983 34.552 54.3441 34.4978C54.29 34.4436 54.2358 34.3624 54.29 34.2811C54.3441 34.1998 54.3712 34.1727 54.3441 34.0914C54.317 34.0102 54.2629 33.9289 54.317 33.8747C54.3712 33.8205 54.1816 33.5496 54.1816 33.5496L53.8836 32.3577L53.9378 31.8701L54.1274 31.7346Z" fill="#6C63FF"/>
<path d="M54.2358 34.308C54.2358 34.308 53.2064 34.2267 53.0709 34.2267C52.9355 34.2267 52.6316 34.0991 52.6316 34.0991C52.6316 34.0991 51.8519 34.8768 52.1228 36.1501C52.3937 37.4233 52.4479 38.9945 52.6104 39.4551C52.7209 39.7834 52.8113 40.1181 52.8813 40.4574C52.8813 40.4574 53.1522 39.9698 53.6669 40.5116C53.6669 40.5116 53.7211 40.1052 53.6398 39.9427C53.5586 39.7801 53.4502 38.9133 53.4502 38.9133C53.4502 38.9133 53.2606 37.5317 53.2606 37.3691C53.2606 37.2066 53.1522 35.825 53.1793 35.7979C53.2064 35.7708 53.3418 36.8544 53.3689 37.044C53.396 37.2337 53.4773 38.6965 53.5586 38.8591C53.6398 39.0216 54.0191 40.3219 54.2358 40.4032C54.4525 40.4845 55.184 40.3761 55.1569 40.3219C55.1298 40.2678 54.9401 39.9698 54.886 39.8885L54.6692 39.5634L54.1545 37.8026L54.3983 35.6625C54.3983 35.6625 54.5338 34.2809 54.2358 34.308Z" fill="#2F2E41"/>
<path d="M53.249 30.9354H52.589C52.561 30.9354 52.5339 30.9254 52.5126 30.9072C52.4913 30.889 52.4772 30.8638 52.4728 30.8361L52.4072 30.4207H53.4366L53.3446 30.8578C53.34 30.8797 53.328 30.8994 53.3106 30.9135C53.2932 30.9277 53.2714 30.9354 53.249 30.9354Z" fill="#2F2E41"/>
<path d="M24.1834 41.0337L24.1202 41.3497H24.5626L24.5836 41.0337H24.1834Z" fill="#A0616A"/>
<path d="M24.1843 41.2865C24.1843 41.2865 24.1001 41.2233 24.058 41.2655C24.0158 41.3076 23.8684 42.1291 23.8473 42.1501C23.8263 42.1712 23.1944 42.4871 23.3418 42.5082C23.4892 42.5293 24.058 42.5503 24.1422 42.5082C24.2265 42.4661 24.4582 42.0659 24.4582 42.0659V42.424H24.5003C24.5003 42.424 24.5424 42.0448 24.6477 41.9395C24.7531 41.8342 24.5635 41.4761 24.5635 41.4761C24.5635 41.4761 24.6056 41.2444 24.5846 41.2444C24.5635 41.2444 24.1843 41.2865 24.1843 41.2865Z" fill="#052B4E"/>
<path d="M25.4893 40.8125L25.4261 41.1285H25.8685L25.8895 40.8125H25.4893Z" fill="#A0616A"/>
<path d="M24.9848 38.7588C24.9848 38.7588 25.1954 39.3907 25.2376 39.4539C25.2797 39.5171 25.4271 40.6967 25.4271 40.6967C25.4271 40.6967 25.2797 40.9284 25.4693 40.9494C25.6588 40.9705 25.5746 40.9073 25.701 40.9494C25.7353 40.9624 25.7722 40.9673 25.8088 40.9636C25.8453 40.96 25.8805 40.9479 25.9116 40.9284C25.9116 40.9284 25.9748 40.802 25.9327 40.7599C25.8905 40.7177 25.9748 39.6224 25.9748 39.6224L25.8484 39.2433L25.7431 38.0427C25.7431 38.0427 25.8695 37.7267 25.8063 37.6425C25.7431 37.5582 25.5325 37.7057 25.5325 37.7057L24.9848 38.7588Z" fill="#2F2E41"/>
<path d="M24.7109 37.116C24.7109 37.116 24.6477 37.79 24.6056 37.8321C24.5635 37.8743 24.1001 39.0538 24.1001 39.0538C24.1001 39.0538 23.9737 39.2013 24.0158 39.7489C24.0579 40.2966 24.1632 40.8442 24.1632 40.8442C24.1632 40.8442 24.079 41.1602 24.2264 41.1602C24.3739 41.1602 24.4371 41.0759 24.5003 41.1391C24.5635 41.2023 24.6056 41.1391 24.6266 41.097C24.6477 41.0549 24.732 40.9074 24.732 40.8653C24.732 40.8232 24.8162 39.7489 24.8162 39.7489C24.8162 39.7489 25.5113 38.2113 25.5745 38.127C25.6377 38.0428 25.9958 37.5794 25.9747 37.2634L24.7109 37.116Z" fill="#2F2E41"/>
<path d="M25.2376 34.2724C25.4819 34.2724 25.6799 34.0743 25.6799 33.83C25.6799 33.5857 25.4819 33.3877 25.2376 33.3877C24.9933 33.3877 24.7952 33.5857 24.7952 33.83C24.7952 34.0743 24.9933 34.2724 25.2376 34.2724Z" fill="#FBBEBE"/>
<path d="M25.1533 34.2091C25.1533 34.2091 25.3218 34.5882 25.3428 34.6935C25.3639 34.7988 25.7641 34.4829 25.7641 34.4829C25.7641 34.4829 25.5535 34.1248 25.6167 33.9563L25.1533 34.2091Z" fill="#E2ABAB"/>
<path d="M25.8273 34.4199C25.8273 34.4199 25.5113 34.1882 25.2796 34.6726C25.0479 35.1571 24.9847 35.136 24.9847 35.136C24.9847 35.136 24.7109 35.2203 24.7952 35.8101C24.8794 36.3999 24.5214 37.1792 24.6688 37.2213C24.8162 37.2635 26.1854 37.4952 26.1854 37.3267C26.1854 37.1581 26.059 36.5052 26.1643 36.105C26.2696 35.7048 26.0169 34.3146 25.8273 34.4199Z" fill="#FFCE58"/>
<path d="M25.5114 34.5249C25.5114 34.5249 25.2586 34.904 25.2797 35.1989C25.3007 35.4938 25.3007 35.6834 25.3007 35.6834C25.3007 35.6834 24.8795 37.7055 24.9637 37.7055C25.048 37.7055 25.3007 37.8108 25.3218 37.7476C25.3429 37.6844 25.8695 36.3996 25.8695 36.3996C25.8695 36.3996 25.9958 35.1147 25.8484 34.8198C25.7009 34.5249 25.5114 34.5249 25.5114 34.5249Z" fill="#3F3D56"/>
<path d="M25.0059 37.6423C25.0059 37.6423 24.7952 38.3585 25.0901 38.3796C25.385 38.4006 25.2165 37.6845 25.2165 37.6845L25.0059 37.6423Z" fill="#A0616A"/>
<path d="M25.5665 40.9644C25.5665 40.9644 25.4927 40.909 25.4558 40.9459C25.4189 40.9828 25.2898 41.7022 25.2714 41.7207C25.2529 41.7391 24.6995 42.0158 24.8287 42.0342C24.9578 42.0527 25.4558 42.0711 25.5296 42.0342C25.6034 41.9974 25.8063 41.6469 25.8063 41.6469V41.9605H25.8432C25.8432 41.9605 25.8801 41.6284 25.9723 41.5362C26.0645 41.444 25.8985 41.1304 25.8985 41.1304C25.8985 41.1304 25.9354 40.9275 25.917 40.9275C25.8985 40.9275 25.5665 40.9644 25.5665 40.9644Z" fill="#052B4E"/>
<path d="M25.0189 33.5402C25.0329 33.523 25.0513 33.51 25.0722 33.5025C25.0917 33.4989 25.1117 33.5007 25.1303 33.5075C25.2624 33.546 25.3769 33.6293 25.4543 33.7431C25.4693 33.772 25.4919 33.7964 25.5196 33.8137C25.5377 33.8191 25.5553 33.8258 25.5724 33.8338C25.6216 33.8664 25.5923 33.9418 25.564 33.9936C25.4915 34.1268 25.458 34.2778 25.4674 34.4291C25.4668 34.4555 25.4745 34.4813 25.4895 34.5029C25.5134 34.525 25.5446 34.5375 25.577 34.5379C25.6793 34.5507 25.7823 34.5562 25.8853 34.5544C25.9861 34.5526 26.098 34.5383 26.1633 34.4614C26.2335 34.3789 26.2225 34.2524 26.1768 34.1541C26.1311 34.0558 26.0569 33.9736 26.0041 33.8789C25.9541 33.7789 25.9146 33.6739 25.8863 33.5657C25.8497 33.4275 25.7909 33.2963 25.7121 33.1772C25.6723 33.1178 25.6207 33.0673 25.5606 33.0287C25.5004 32.9901 25.433 32.9643 25.3624 32.953C25.171 32.9316 24.9946 33.0494 24.8408 33.1653C24.6681 33.2953 24.4843 33.4562 24.4704 33.672C24.4592 33.8468 24.5642 34.0049 24.619 34.1712C24.7036 34.428 24.6682 34.707 24.6318 34.9749C24.7878 34.8815 24.9642 34.7517 24.954 34.5702C24.9471 34.4478 24.8547 34.35 24.7972 34.2417C24.639 33.9438 24.8194 33.7441 25.0189 33.5402Z" fill="#2F2E41"/>
</svg>
