<svg width="64" height="50" viewBox="0 0 64 50" fill="none" xmlns="http://www.w3.org/2000/svg">
<path d="M32.9468 27.1099H27.8643V30.3603H32.9468V27.1099Z" fill="#473838"/>
<path d="M40.6648 21.7319H35.5823V24.9824H40.6648V21.7319Z" fill="#473838"/>
<path d="M55.3214 22.6774V15.7627H51.4799V11.2712H48.8795V15.7627H45.038V22.6774H42.9104V7.13418H38.5962V5.65669H32.8635V4.1792H27.1899V5.65669H21.8119V7.13418H17.143V22.6183H14.6608V15.7036H10.8193V11.2121H8.21893V15.7036H4.37745V22.6183H1.89526V47.1447H7.56883V38.457H11.4694V47.1447H26.7171V37.0386H33.3363V47.1447H42.5558V47.2038H48.2294V38.5161H52.13V47.2038H57.8036V22.6774H55.3214ZM3.9342 25.6324H6.17999V27.4054H3.9342V25.6324ZM3.96375 30.5967H6.20954V32.3697H3.96375V30.5967ZM6.23909 37.3341H3.9933V35.5611H6.23909V37.3341ZM12.1195 21.3181H6.91874V20.2543H12.1195V21.3181ZM12.1195 19.7815H6.91874V18.7177H12.1195V19.7815ZM12.1195 18.2449H6.91874V17.1811H12.1195V18.2449ZM12.8583 25.6324H15.104V27.4054H12.8583V25.6324ZM12.8878 30.5967H15.1336V32.3697H12.8878V30.5967ZM15.1631 37.3341H12.9174V35.5611H15.1631V37.3341ZM24.3531 34.3791H20.2162V32.547H24.3531V34.3791ZM24.3531 29.1193H20.2162V27.2872H24.3531V29.1193ZM24.3531 23.8594H20.2162V22.0273H24.3531V23.8594ZM24.3531 18.5995H20.2162V16.7674H24.3531V18.5995ZM24.3531 13.3396H20.2162V11.5076H24.3531V13.3396ZM32.0952 34.3791H27.9582V32.547H32.0952V34.3791ZM32.0952 29.1193H27.9582V27.2872H32.0952V29.1193ZM32.0952 23.8594H27.9582V22.0273H32.0952V23.8594ZM32.0952 18.5995H27.9582V16.7674H32.0952V18.5995ZM32.0952 13.3396H27.9582V11.5076H32.0952V13.3396ZM39.8373 34.3791H35.7003V32.547H39.8373V34.3791ZM39.8373 29.1193H35.7003V27.2872H39.8373V29.1193ZM39.8373 23.8594H35.7003V22.0273H39.8373V23.8594ZM39.8373 18.5995H35.7003V16.7674H39.8373V18.5995ZM39.8373 13.3396H35.7003V11.5076H39.8373V13.3396ZM44.5948 25.6915H46.8406V27.4645H44.5948V25.6915ZM44.6243 30.6558H46.8701V32.4288H44.6243V30.6558ZM46.8997 37.3932H44.6539V35.6202H46.8997V37.3932ZM52.7801 21.3772H47.5793V20.3134H52.7801V21.3772ZM52.7801 19.8406H47.5793V18.7768H52.7801V19.8406ZM52.7801 18.304H47.5793V17.2402H52.7801V18.304ZM53.5188 25.6915H55.7646V27.4645H53.5188V25.6915ZM53.5484 30.6558H55.7942V32.4288H53.5484V30.6558ZM55.8237 37.3932H53.5779V35.6202H55.8237V37.3932Z" fill="#052B4E"/>
<path d="M4.62514 46.8272C4.47595 46.9117 4.32228 46.988 4.16479 47.0557L5.34131 47.3117L5.33232 47.3242C5.48119 47.2708 5.62268 47.1987 5.75343 47.1097C5.80464 47.0745 5.85481 47.0382 5.90395 47.0008L4.67196 46.8003C4.65635 46.8093 4.64072 46.8184 4.62514 46.8272Z" fill="#6C63FF"/>
<path d="M52.3513 44.1252L52.3503 44.139C52.3505 44.1343 52.3511 44.1299 52.3513 44.1252Z" fill="#6C63FF"/>
<path d="M52.3635 43.9541L52.3636 43.9542C52.364 43.9497 52.3641 43.9449 52.3645 43.9404L52.3635 43.9541Z" fill="#6C63FF"/>
<path d="M57.9698 46.9084H2.06152V48.0313H57.9698V46.9084Z" fill="#3F3D56"/>
<path d="M44.1277 3.76573L45.3865 4.58207L44.6222 3.16101C44.8387 2.98437 45.1065 2.8866 45.3834 2.88316C45.3902 2.88316 45.3969 2.88322 45.4037 2.88334C45.4911 2.88478 45.5786 2.87817 45.6649 2.86359L46.0914 3.14023L45.9086 2.8002C46.2108 2.69241 46.472 2.48969 46.6549 2.22099L47.4184 2.71616L46.9361 1.81929C47.3825 1.27116 47.9844 0.935059 48.6467 0.935059C49.4407 0.935059 50.148 1.41797 50.6046 2.17037C50.7396 2.3955 50.9304 2.5801 51.1577 2.70542C51.385 2.83075 51.6407 2.89235 51.8988 2.88396C51.913 2.88343 51.9272 2.88316 51.9415 2.88316C52.818 2.88316 53.5286 3.89952 53.5286 5.15326C53.5286 6.407 52.818 7.42336 51.9415 7.42336C51.7487 7.42262 51.559 7.37405 51.3886 7.28182C51.0903 7.13352 50.7639 7.05328 50.4323 7.04665C50.1006 7.04002 49.7714 7.10715 49.4676 7.24341C49.2109 7.36138 48.9328 7.42269 48.6514 7.42336C48.37 7.42402 48.0916 7.36402 47.8344 7.24728C47.533 7.11362 47.2069 7.0478 46.8784 7.0543C46.5499 7.06079 46.2266 7.13944 45.9304 7.28492C45.7616 7.37518 45.574 7.42266 45.3834 7.42336C44.5069 7.42336 43.7963 6.407 43.7963 5.15326C43.7912 4.66965 43.9052 4.19249 44.1277 3.76573Z" fill="#473838"/>
<path d="M9.95372 8.83868L10.7929 9.24685L10.2834 8.53632C10.4277 8.448 10.6063 8.39911 10.7909 8.39739C10.7954 8.39739 10.7999 8.39742 10.8044 8.39748C10.8627 8.3982 10.921 8.3949 10.9785 8.38761L11.2629 8.52593L11.141 8.35592C11.3425 8.30202 11.5166 8.20066 11.6385 8.06631L12.1475 8.3139L11.8259 7.86546C11.9614 7.73149 12.134 7.62231 12.3312 7.54584C12.5285 7.46937 12.7454 7.42753 12.9664 7.42334C13.4957 7.42334 13.9673 7.66479 14.2717 8.041C14.3616 8.15356 14.4889 8.24586 14.6404 8.30852C14.7919 8.37119 14.9624 8.40199 15.1344 8.39779C15.1439 8.39753 15.1534 8.39739 15.1629 8.39739C15.7472 8.39739 16.221 8.90557 16.221 9.53244C16.221 10.1593 15.7472 10.6675 15.1629 10.6675C15.0344 10.6671 14.9079 10.6428 14.7943 10.5967C14.5954 10.5226 14.3779 10.4825 14.1567 10.4791C13.9356 10.4758 13.7162 10.5094 13.5137 10.5775C13.3425 10.6365 13.1571 10.6672 12.9695 10.6675C12.7819 10.6678 12.5963 10.6378 12.4249 10.5795C12.2239 10.5126 12.0065 10.4797 11.7875 10.483C11.5685 10.4862 11.353 10.5255 11.1555 10.5983C11.0429 10.6434 10.9179 10.6671 10.7909 10.6675C10.2065 10.6675 9.73278 10.1593 9.73278 9.53244C9.72937 9.29063 9.80535 9.05205 9.95372 8.83868Z" fill="#473838"/>
<path d="M0.221051 6.30221L1.06025 6.91446L0.550729 5.84866C0.695027 5.71619 0.873603 5.64286 1.0582 5.64028C1.06271 5.64028 1.06721 5.64032 1.0717 5.64042C1.13001 5.6415 1.18829 5.63654 1.24583 5.62561L1.53021 5.83309L1.40831 5.57807C1.60981 5.49722 1.78394 5.34518 1.90584 5.14366L2.41486 5.51504L2.09328 4.84238C2.22871 4.64142 2.4013 4.47766 2.59856 4.36295C2.79581 4.24825 3.01278 4.18548 3.23373 4.1792C3.76306 4.1792 4.23459 4.54138 4.53899 5.10569C4.62897 5.27453 4.75619 5.41298 4.90771 5.50697C5.05924 5.60097 5.22969 5.64717 5.40175 5.64088C5.41121 5.64048 5.4207 5.64028 5.43022 5.64028C6.01458 5.64028 6.4883 6.40254 6.4883 7.34285C6.4883 8.28316 6.01458 9.04543 5.43022 9.04543C5.30171 9.04487 5.17524 9.00845 5.06167 8.93927C4.86275 8.82805 4.6452 8.76787 4.42408 8.76289C4.20296 8.75792 3.98353 8.80827 3.78099 8.91046C3.60987 8.99894 3.42446 9.04492 3.23686 9.04542C3.04925 9.04592 2.86366 9.00092 2.69219 8.91336C2.49122 8.81312 2.27386 8.76376 2.05485 8.76863C1.83584 8.7735 1.62031 8.83249 1.42285 8.94159C1.31028 9.00929 1.18522 9.0449 1.0582 9.04543C0.473832 9.04543 0.000109369 8.28316 0.000109369 7.34285C-0.00329189 6.98014 0.0726883 6.62227 0.221051 6.30221Z" fill="#473838"/>
<path d="M32.7129 25.5471L30.3551 27.905L29.2379 26.7879L28.803 27.2228L30.3536 28.7734L33.1479 25.982L32.7129 25.5471Z" fill="white"/>
<path d="M40.4551 20.1692L38.0972 22.527L36.9801 21.4099L36.5452 21.8448L38.0958 23.3954L40.8901 20.6041L40.4551 20.1692Z" fill="white"/>
<path d="M59.7895 37.9561L59.6965 38.049C59.6965 38.049 59.7275 39.0718 59.7585 39.2888C59.7895 39.5058 59.9135 39.8777 59.8205 40.1567C59.7275 40.4356 59.6965 40.6526 59.7275 40.6835C59.7585 40.7145 59.6965 40.8385 59.6965 40.8385L59.9445 40.6835L60.3474 39.7537L60.1614 38.7619L59.7895 37.9561Z" fill="#6C63FF"/>
<path opacity="0.1" d="M59.7895 37.9561L59.6965 38.049C59.6965 38.049 59.7275 39.0718 59.7585 39.2888C59.7895 39.5058 59.9135 39.8777 59.8205 40.1567C59.7275 40.4356 59.6965 40.6526 59.7275 40.6835C59.7585 40.7145 59.6965 40.8385 59.6965 40.8385L59.9445 40.6835L60.3474 39.7537L60.1614 38.7619L59.7895 37.9561Z" fill="black"/>
<path d="M61.4324 47.5954C61.4324 47.5954 61.4324 47.2545 61.3704 47.1925C61.3084 47.1305 61.2154 46.9136 61.0915 46.9136C60.9675 46.9136 60.5336 47.0376 60.5336 47.0685C60.5371 47.1653 60.5158 47.2613 60.4716 47.3475C60.4096 47.4405 60.0686 47.8124 60.4096 47.8744C60.5229 47.893 60.6389 47.8889 60.7506 47.8623C60.8623 47.8357 60.9677 47.7871 61.0605 47.7194C61.0915 47.6884 61.2154 47.6574 61.2464 47.6884C61.2774 47.7194 61.4324 47.5954 61.4324 47.5954Z" fill="#052B4E"/>
<path d="M62.3 47.0376L62.486 47.3785C62.486 47.3785 62.548 47.6885 62.641 47.7195H62.734C62.734 47.7195 62.827 48.0604 63.0439 48.0294C63.2609 47.9984 63.5088 47.8744 63.5088 47.8124C63.5088 47.7505 63.5088 47.5645 63.4158 47.5025C63.2855 47.396 63.1613 47.2822 63.0439 47.1616L62.8889 47.0066L62.3 47.0376Z" fill="#052B4E"/>
<path d="M59.9215 35.6841C59.8618 35.7146 59.8103 35.7589 59.7714 35.8134C59.7324 35.8678 59.7071 35.9309 59.6976 35.9972C59.6803 36.2184 59.8991 36.427 59.8287 36.6375C59.7888 36.757 59.6643 36.8344 59.6285 36.9552C59.6096 37.0516 59.6238 37.1515 59.6686 37.2388C59.7176 37.3586 59.7772 37.4738 59.8467 37.5829C59.9773 37.788 60.1474 37.9827 60.1823 38.2234C60.192 38.2654 60.1915 38.3092 60.181 38.3511C60.1705 38.393 60.1502 38.4318 60.1218 38.4643C60.1847 38.4167 60.2567 38.3825 60.3333 38.3638C60.65 38.2579 60.9443 38.094 61.2011 37.8804C61.2944 37.8148 61.3646 37.7214 61.4018 37.6136C61.4491 37.4232 61.3046 37.2327 61.3184 37.037C61.3273 36.9118 61.3996 36.8012 61.4405 36.6825C61.476 36.5644 61.4874 36.4403 61.4738 36.3177C61.4602 36.1951 61.422 36.0765 61.3614 35.969C61.3112 35.8651 61.2405 35.7724 61.1534 35.6966C61.0663 35.6209 60.9647 35.5636 60.8548 35.5284C60.6857 35.489 60.5093 35.4941 60.3428 35.5432C60.1973 35.5733 60.0558 35.6207 59.9215 35.6841Z" fill="#2F2E41"/>
<path d="M60.0959 37.4029C60.1642 37.2761 60.2653 37.1699 60.3886 37.0955C60.5119 37.0211 60.6529 36.9812 60.7969 36.98C61.2928 36.98 61.1998 36.949 61.1998 36.949L61.0449 37.5689L60.7349 37.8788L60.0959 37.4029Z" fill="#6C63FF"/>
<path d="M60.2236 36.7475C60.2236 36.7475 60.5026 37.2124 60.3166 37.3984C60.1306 37.5844 60.2236 37.7703 60.2546 37.8013C60.2856 37.8323 61.1535 37.8943 61.1535 37.8943L61.1844 37.4604L61.2774 37.0885C61.2774 37.0885 60.7815 36.9955 60.8435 36.7785C60.9055 36.5616 60.2236 36.7475 60.2236 36.7475Z" fill="#FBBEBE"/>
<path opacity="0.1" d="M60.2236 36.7475C60.2236 36.7475 60.5026 37.2124 60.3166 37.3984C60.1306 37.5844 60.2236 37.7703 60.2546 37.8013C60.2856 37.8323 61.1535 37.8943 61.1535 37.8943L61.1844 37.4604L61.2774 37.0885C61.2774 37.0885 60.7815 36.9955 60.8435 36.7785C60.9055 36.5616 60.2236 36.7475 60.2236 36.7475Z" fill="black"/>
<path d="M62.393 41.1486C62.3598 41.255 62.3183 41.3587 62.269 41.4586C62.238 41.4896 62.145 41.2416 62.145 41.2416L62.238 41.0247L62.393 41.1486Z" fill="#FBBEBE"/>
<path d="M62.0367 39.7385L62.1607 40.4514H60.301L60.394 39.7385H62.0367Z" fill="#FBBEBE"/>
<path d="M60.5645 36.9954C60.8897 36.9954 61.1534 36.7318 61.1534 36.4065C61.1534 36.0813 60.8897 35.8176 60.5645 35.8176C60.2392 35.8176 59.9756 36.0813 59.9756 36.4065C59.9756 36.7318 60.2392 36.9954 60.5645 36.9954Z" fill="#FBBEBE"/>
<path d="M60.6884 37.6152C60.6884 37.6152 60.3474 37.6462 60.3474 37.5842C60.3474 37.5222 60.3164 37.3362 60.2545 37.3672C60.1925 37.3982 59.7895 37.4292 59.8205 37.5222C59.8515 37.6152 59.9135 37.8012 59.8515 37.8012C59.8247 37.8066 59.7993 37.8175 59.7769 37.8331C59.7544 37.8487 59.7353 37.8687 59.7208 37.8919C59.7064 37.9151 59.6967 37.941 59.6926 37.968C59.6884 37.995 59.6897 38.0226 59.6966 38.0491C59.7276 38.2041 60.0685 39.1339 60.0685 39.1339C60.0685 39.1339 60.0995 39.4439 60.1925 39.5368C60.2303 39.5856 60.2508 39.6456 60.2508 39.7073C60.2508 39.769 60.2303 39.829 60.1925 39.8778C60.1305 39.9398 60.3474 40.0018 60.4404 40.1257C60.5334 40.2497 61.2463 40.1567 61.2773 40.1257C61.3083 40.0947 62.0521 40.0947 62.1141 40.0328C62.1761 39.9708 62.0831 39.7848 62.0831 39.7848C62.0831 39.7848 62.0521 39.5058 62.0831 39.4129C62.1141 39.3199 61.9591 37.8012 61.8662 37.7082C61.7732 37.6152 62.1451 37.3363 62.1451 37.3363C62.1451 37.3363 62.0831 37.0883 61.6802 37.0573C61.6802 37.0573 61.5562 36.8713 61.4322 36.8713C61.3083 36.8713 61.0391 37.0155 61.0391 37.0155C61.0391 37.0155 60.9673 37.4292 60.8743 37.4602C60.8008 37.4962 60.7371 37.5494 60.6884 37.6152Z" fill="#FFCE58"/>
<path d="M61.9281 37.2434L62.1451 37.3364C62.1451 37.3364 62.765 39.258 62.703 39.63C62.641 40.0019 62.486 41.2727 62.393 41.2727C62.3 41.2727 62.1141 41.0867 62.1141 41.0867V40.7768C62.1141 40.7148 62.0211 40.5288 62.0831 40.5288C62.1451 40.5288 62.2381 40.4668 62.1761 40.4048C62.1141 40.3428 62.0521 40.2499 62.1141 40.1569C62.1761 40.0639 62.2071 40.0329 62.1761 39.9399C62.1451 39.8469 62.0831 39.7539 62.1451 39.6919C62.2071 39.63 61.9901 39.32 61.9901 39.32L61.6492 37.9563L61.7112 37.3984L61.9281 37.2434Z" fill="#6C63FF"/>
<path d="M62.0521 40.1879C62.0521 40.1879 60.8743 40.0949 60.7193 40.0949C60.5643 40.0949 60.2167 39.949 60.2167 39.949C60.2167 39.949 59.3246 40.8388 59.6345 42.2955C59.9445 43.7522 60.0064 45.5499 60.1924 46.0768C60.3188 46.4525 60.4223 46.8354 60.5023 47.2236C60.5023 47.2236 60.8123 46.6657 61.4012 47.2856C61.4012 47.2856 61.4632 46.8207 61.3702 46.6347C61.2772 46.4487 61.1532 45.4569 61.1532 45.4569C61.1532 45.4569 60.9363 43.8762 60.9363 43.6903C60.9363 43.5043 60.8123 41.9236 60.8433 41.8926C60.8743 41.8616 61.0292 43.1014 61.0602 43.3183C61.0912 43.5353 61.1842 45.209 61.2772 45.3949C61.3702 45.5809 61.8041 47.0686 62.0521 47.1616C62.3 47.2546 63.1369 47.1306 63.1059 47.0686C63.0749 47.0066 62.8579 46.6657 62.7959 46.5727L62.548 46.2008L61.9591 44.1862L62.238 41.7376C62.238 41.7376 62.393 40.1569 62.0521 40.1879Z" fill="#2F2E41"/>
<path d="M60.9231 36.3289H60.1679C60.1358 36.3289 60.1049 36.3174 60.0805 36.2966C60.0561 36.2758 60.04 36.247 60.035 36.2153L59.96 35.74H61.1377L61.0324 36.2401C61.0272 36.2652 61.0134 36.2877 60.9935 36.3039C60.9736 36.3201 60.9487 36.3289 60.9231 36.3289Z" fill="#2F2E41"/>
<path d="M27.669 47.8823L27.5967 48.2438H28.1027L28.1268 47.8823H27.669Z" fill="#A0616A"/>
<path d="M27.6699 48.1715C27.6699 48.1715 27.5735 48.0992 27.5253 48.1474C27.4771 48.1956 27.3084 49.1355 27.2843 49.1596C27.2602 49.1837 26.5372 49.5452 26.7059 49.5693C26.8746 49.5934 27.5253 49.6175 27.6217 49.5693C27.7181 49.5211 27.9832 49.0632 27.9832 49.0632V49.4729H28.0314C28.0314 49.4729 28.0796 49.0391 28.2001 48.9186C28.3206 48.7981 28.1037 48.3884 28.1037 48.3884C28.1037 48.3884 28.1519 48.1233 28.1278 48.1233C28.1037 48.1233 27.6699 48.1715 27.6699 48.1715Z" fill="#052B4E"/>
<path d="M29.1626 47.6294L29.0903 47.9909H29.5965L29.6205 47.6294H29.1626Z" fill="#A0616A"/>
<path d="M28.5857 45.2797C28.5857 45.2797 28.8267 46.0026 28.8749 46.0749C28.9231 46.1472 29.0918 47.4968 29.0918 47.4968C29.0918 47.4968 28.9231 47.7619 29.14 47.786C29.3569 47.8101 29.2605 47.7378 29.4051 47.786C29.4444 47.8009 29.4866 47.8064 29.5284 47.8022C29.5702 47.798 29.6105 47.7842 29.6461 47.7619C29.6461 47.7619 29.7184 47.6173 29.6702 47.5691C29.622 47.5209 29.7184 46.2677 29.7184 46.2677L29.5738 45.834L29.4533 44.4603C29.4533 44.4603 29.5979 44.0988 29.5256 44.0024C29.4533 43.906 29.2123 44.0747 29.2123 44.0747L28.5857 45.2797Z" fill="#2F2E41"/>
<path d="M28.2724 43.4001C28.2724 43.4001 28.2001 44.1713 28.1519 44.2195C28.1037 44.2677 27.5735 45.6173 27.5735 45.6173C27.5735 45.6173 27.4289 45.786 27.4771 46.4126C27.5253 47.0391 27.6458 47.6657 27.6458 47.6657C27.6458 47.6657 27.5494 48.0272 27.7181 48.0272C27.8868 48.0272 27.9591 47.9308 28.0314 48.0031C28.1037 48.0754 28.1519 48.0031 28.176 47.9549C28.2001 47.9067 28.2965 47.738 28.2965 47.6898C28.2965 47.6416 28.3929 46.4126 28.3929 46.4126C28.3929 46.4126 29.1882 44.6533 29.2605 44.5569C29.3328 44.4605 29.7425 43.9303 29.7184 43.5688L28.2724 43.4001Z" fill="#2F2E41"/>
<path d="M28.8747 40.1464C29.1542 40.1464 29.3808 39.9199 29.3808 39.6404C29.3808 39.3609 29.1542 39.1343 28.8747 39.1343C28.5952 39.1343 28.3687 39.3609 28.3687 39.6404C28.3687 39.9199 28.5952 40.1464 28.8747 40.1464Z" fill="#FBBEBE"/>
<path d="M28.7783 40.0741C28.7783 40.0741 28.9711 40.5079 28.9952 40.6284C29.0193 40.7489 29.4772 40.3874 29.4772 40.3874C29.4772 40.3874 29.2362 39.9777 29.3085 39.7849L28.7783 40.0741Z" fill="#E2ABAB"/>
<path d="M29.5496 40.3153C29.5496 40.3153 29.1881 40.0502 28.923 40.6045C28.6579 41.1588 28.5856 41.1347 28.5856 41.1347C28.5856 41.1347 28.2723 41.2311 28.3687 41.9059C28.4651 42.5806 28.0554 43.4723 28.2241 43.5205C28.3928 43.5687 29.9592 43.8338 29.9592 43.641C29.9592 43.4482 29.8147 42.7011 29.9352 42.2433C30.0556 41.7854 29.7665 40.1948 29.5496 40.3153Z" fill="#FFCE58"/>
<path d="M29.1882 40.4358C29.1882 40.4358 28.899 40.8696 28.9231 41.207C28.9472 41.5444 28.9472 41.7613 28.9472 41.7613C28.9472 41.7613 28.4652 44.0748 28.5616 44.0748C28.658 44.0748 28.9472 44.1953 28.9713 44.123C28.9954 44.0507 29.5978 42.5806 29.5978 42.5806C29.5978 42.5806 29.7424 41.1106 29.5737 40.7732C29.405 40.4358 29.1882 40.4358 29.1882 40.4358Z" fill="#3F3D56"/>
<path d="M28.6098 44.0024C28.6098 44.0024 28.3688 44.8218 28.7062 44.8459C29.0435 44.87 28.8507 44.0506 28.8507 44.0506L28.6098 44.0024Z" fill="#A0616A"/>
<path d="M29.2513 47.8032C29.2513 47.8032 29.1668 47.7399 29.1246 47.7821C29.0824 47.8243 28.9347 48.6474 28.9136 48.6685C28.8925 48.6896 28.2594 49.0061 28.4071 49.0272C28.5548 49.0483 29.1246 49.0695 29.2091 49.0272C29.2935 48.985 29.5256 48.5841 29.5256 48.5841V48.9428H29.5678C29.5678 48.9428 29.61 48.5629 29.7156 48.4574C29.8211 48.3519 29.6311 47.9931 29.6311 47.9931C29.6311 47.9931 29.6733 47.761 29.6522 47.761C29.6311 47.761 29.2513 47.8032 29.2513 47.8032Z" fill="#052B4E"/>
<path d="M28.6248 39.309C28.6409 39.2894 28.6619 39.2745 28.6858 39.2658C28.708 39.2618 28.731 39.2638 28.7522 39.2716C28.9034 39.3157 29.0344 39.411 29.123 39.5411C29.1401 39.5743 29.166 39.6022 29.1977 39.622C29.2183 39.6281 29.2385 39.6358 29.258 39.645C29.3144 39.6822 29.2808 39.7685 29.2484 39.8278C29.1655 39.9802 29.1272 40.1529 29.1379 40.3261C29.1372 40.3562 29.1461 40.3858 29.1632 40.4105C29.1905 40.4358 29.2262 40.45 29.2634 40.4505C29.3803 40.4652 29.4982 40.4715 29.6161 40.4694C29.7314 40.4673 29.8594 40.4509 29.9341 40.3631C30.0145 40.2686 30.0019 40.1239 29.9496 40.0114C29.8973 39.8989 29.8124 39.8049 29.752 39.6966C29.6947 39.5821 29.6496 39.462 29.6172 39.3382C29.5754 39.1801 29.5081 39.03 29.4179 38.8937C29.3724 38.8258 29.3134 38.7679 29.2445 38.7238C29.1757 38.6797 29.0985 38.6502 29.0178 38.6372C28.7989 38.6127 28.597 38.7476 28.421 38.8801C28.2234 39.0289 28.0132 39.2129 27.9973 39.4598C27.9844 39.6598 28.1045 39.8407 28.1673 40.031C28.2641 40.3248 28.2235 40.644 28.1819 40.9505C28.3604 40.8436 28.5622 40.6952 28.5505 40.4875C28.5427 40.3474 28.4369 40.2356 28.3711 40.1116C28.1902 39.7708 28.3965 39.5423 28.6248 39.309Z" fill="#2F2E41"/>
</svg>
