<svg width="71" height="45" viewBox="0 0 71 45" fill="none" xmlns="http://www.w3.org/2000/svg">
<path d="M70.0566 42.6523H0V44.9999H70.0566V42.6523Z" fill="#052B4E"/>
<path d="M70.0566 18.0398H0V31.7019H70.0566V18.0398Z" fill="#9B9C9F"/>
<path d="M70.0566 18.0398H0V18.5514H70.0566V18.0398Z" fill="white"/>
<path d="M70.0566 18.5515H0V18.9412H70.0566V18.5515Z" fill="#803416"/>
<path d="M21.3311 0V2.45575C21.0617 2.46998 20.807 2.58262 20.6153 2.77227C20.4235 2.96191 20.3081 3.21536 20.291 3.48448H19.6368C19.5978 3.48448 19.5592 3.49217 19.5231 3.50711C19.4871 3.52205 19.4544 3.54394 19.4268 3.57154C19.3993 3.59914 19.3774 3.63191 19.3626 3.66796C19.3477 3.704 19.3401 3.74263 19.3401 3.78163H19.4306C19.1358 3.78133 18.8453 3.85271 18.5843 3.98961L17.7483 4.43158C17.7356 4.43496 17.7288 4.43833 17.7288 4.44197C17.7288 4.57196 25.0477 4.57196 25.0477 4.44197C25.0477 4.43859 25.042 4.43547 25.0308 4.43236C24.4723 4.156 24.1093 3.78241 23.4041 3.78241H23.4364C23.4364 3.70374 23.4051 3.62829 23.3495 3.57266C23.2939 3.51703 23.2184 3.48578 23.1397 3.48578H22.4863C22.4692 3.21664 22.3538 2.96316 22.1621 2.77351C21.9703 2.58385 21.7156 2.47123 21.4462 2.45705V0H21.3311Z" fill="#052B4E"/>
<path d="M42.4577 28.3782C42.4577 28.3782 42.6657 28.6766 42.4577 29.0775C42.2497 29.4784 41.9145 29.6976 42.005 29.9822C42.0955 30.2669 43.7388 28.9215 43.7388 28.9215L42.9311 28.0176L42.4577 28.3782Z" fill="#FFB9B9"/>
<path d="M43.563 20.6577C43.563 20.6577 38.9233 21.2297 38.6388 22.1874C38.3544 23.1452 42.5167 28.5917 42.5167 28.5917L43.2985 28.2171C43.2985 28.2171 40.9158 23.9987 41.0192 23.3259C41.1227 22.653 45.2499 22.5368 45.4959 22.2909C45.7419 22.045 43.563 20.6577 43.563 20.6577Z" fill="#052B4E"/>
<path d="M42.2988 29.3315C42.1168 29.5842 41.9348 29.7639 42.005 29.9815C42.0955 30.2667 43.7388 28.9216 43.7388 28.9216L43.3487 28.4858C43.1839 28.6735 42.6423 29.264 42.2988 29.3315Z" fill="#FFCE58"/>
<path d="M47.2885 32.2635H43.6548C43.7913 31.5527 45.4073 26.3771 46.5105 22.9134C46.5139 22.9027 46.5152 22.8914 46.5142 22.8801C46.5133 22.8689 46.5101 22.8579 46.5049 22.8479C46.4997 22.8379 46.4926 22.829 46.484 22.8217C46.4753 22.8145 46.4654 22.809 46.4546 22.8055C46.4439 22.8021 46.4325 22.8009 46.4213 22.8018C46.41 22.8028 46.3991 22.806 46.3891 22.8111C46.3791 22.8163 46.3702 22.8234 46.3629 22.8321C46.3556 22.8407 46.3501 22.8507 46.3467 22.8614C46.3394 22.8846 45.596 25.2184 44.8748 27.5395C43.7941 31.0167 43.5326 31.9762 43.4866 32.2635H41.9207C42.0575 31.5527 43.6732 26.3771 44.7767 22.9134C44.7836 22.8917 44.7816 22.8681 44.7711 22.8479C44.7607 22.8277 44.7426 22.8124 44.7208 22.8055C44.6991 22.7986 44.6755 22.8007 44.6553 22.8111C44.6351 22.8216 44.6198 22.8397 44.6129 22.8614C44.6054 22.8846 43.8623 25.2184 43.141 27.5395C41.6691 32.276 41.7169 32.341 41.7588 32.3987L41.7874 32.4354H47.2885C47.3002 32.436 47.3118 32.4343 47.3228 32.4302C47.3338 32.4262 47.3439 32.42 47.3524 32.4119C47.3609 32.4039 47.3676 32.3942 47.3723 32.3835C47.3769 32.3727 47.3793 32.3611 47.3793 32.3494C47.3793 32.3377 47.3769 32.3262 47.3723 32.3154C47.3676 32.3047 47.3609 32.295 47.3524 32.2869C47.3439 32.2789 47.3338 32.2727 47.3228 32.2686C47.3118 32.2646 47.3002 32.2629 47.2885 32.2635Z" fill="#3A3256"/>
<path d="M47.4726 30.3416H42.3971V30.1118H47.4726C47.503 30.1118 47.5323 30.1239 47.5538 30.1455C47.5754 30.167 47.5875 30.1962 47.5875 30.2267C47.5875 30.2572 47.5754 30.2864 47.5538 30.308C47.5323 30.3295 47.503 30.3416 47.4726 30.3416Z" fill="#3A3256"/>
<path d="M31.7261 30.8267C31.7261 30.8267 31.5441 31.7769 31.626 31.8554C31.7079 31.9339 33.6967 31.8741 33.6967 31.8016C33.6967 31.7291 33.0069 31.5286 32.7984 31.4561C32.5899 31.3835 32.477 30.7783 32.477 30.7783L31.7261 30.8267Z" fill="#FF916C"/>
<path d="M29.62 31.6158H25.9847C26.1215 30.905 27.7372 25.7291 28.8407 22.2657C28.8476 22.244 28.8456 22.2204 28.8351 22.2002C28.8247 22.18 28.8066 22.1647 28.7848 22.1578C28.7631 22.1509 28.7395 22.153 28.7193 22.1634C28.6991 22.1739 28.6838 22.192 28.6769 22.2137C28.6694 22.2369 27.9263 24.5707 27.205 26.8918C26.1244 30.369 25.8628 31.3285 25.8168 31.6158H24.251C24.3875 30.905 26.0035 25.7291 27.107 22.2657C27.1135 22.2441 27.1113 22.2207 27.1007 22.2007C27.0901 22.1807 27.0721 22.1657 27.0506 22.1588C27.029 22.152 27.0056 22.1539 26.9855 22.1642C26.9653 22.1745 26.95 22.1923 26.9429 22.2137C26.9356 22.2369 26.1922 24.5707 25.471 26.8918C23.9993 31.6283 24.0469 31.6933 24.089 31.7507L24.1176 31.7877H29.62C29.642 31.7865 29.6627 31.7769 29.6778 31.7609C29.6929 31.7449 29.7013 31.7237 29.7013 31.7017C29.7013 31.6797 29.6929 31.6586 29.6778 31.6426C29.6627 31.6266 29.642 31.617 29.62 31.6158Z" fill="#3A3256"/>
<path d="M26.7461 21.9304C26.7461 21.9304 29.7742 24.811 30.0623 25.2953C30.3504 25.7796 31.5772 30.9368 31.5772 30.9368H32.7787C32.7787 30.9368 32.0766 25.7565 31.5772 24.9573C31.0777 24.1582 29.2448 21.9315 29.2448 21.9315L26.7461 21.9304Z" fill="#00044F"/>
<path d="M29.3626 22.8088H25.9429C25.9429 22.6579 26.0029 22.5133 26.1097 22.4066C26.2164 22.2999 26.3611 22.24 26.512 22.24H28.7931C28.9441 22.24 29.0889 22.2999 29.1957 22.4067C29.3025 22.5134 29.3625 22.6581 29.3626 22.8091V22.8088Z" fill="#473838"/>
<path d="M30.3452 12.6143C30.3452 12.6143 30.392 13.141 30.2633 13.8786C30.1346 14.6161 29.8535 15.1301 29.6895 15.1301C29.5254 15.1301 28.7295 14.1711 28.6125 13.6561C28.4955 13.141 28.5774 12.0993 29.1627 12.2397C29.564 12.3408 29.9589 12.4659 30.3452 12.6143Z" fill="#FFB9B9"/>
<path d="M28.8348 15.8101L29.2913 14.6402L28.5932 13.5569L27.9632 14.9004C27.9632 14.9004 28.4427 15.4181 28.8348 15.8101Z" fill="#FFB9B9"/>
<path d="M29.2914 14.6394L28.5933 13.5569L28.5023 13.7511C28.6798 14.0142 28.9703 14.4754 28.9703 14.6839C28.9703 14.9849 28.8361 15.8109 28.8361 15.8109L29.2914 14.6394Z" fill="#E35C26"/>
<path d="M28.952 12.0749C28.952 12.0749 29.1018 11.7941 29.4601 11.8643C29.8184 11.9345 30.2516 12.2506 30.7315 12.4963C31.2115 12.742 30.9422 12.9882 30.5794 12.8826C30.2167 12.7771 29.912 12.5668 29.5373 12.7188C29.1626 12.8709 29.1041 13.3508 29.1041 13.3508L28.3277 14.1217C28.3277 14.1217 28.0677 12.6973 28.3277 12.4378C28.5877 12.1783 28.952 12.0749 28.952 12.0749Z" fill="#000444"/>
<path d="M29.1977 13.3127C29.1977 13.3127 29.2009 13.3034 29.2055 13.2867C29.237 13.1786 29.3415 12.7668 29.1041 12.8011C28.8309 12.8401 28.7568 13.3668 28.9091 13.477C29.0615 13.5873 29.1977 13.3127 29.1977 13.3127Z" fill="#FF682B"/>
<path d="M28.1228 14.919C27.7918 14.7531 27.3545 14.893 26.8462 15.6692C26.1961 16.6624 25.1142 20.0132 25.7448 20.7908C26.1701 21.316 28.1728 20.6808 28.4489 20.6808C28.725 20.6808 29.4996 16.9884 29.2742 16.2383C29.0488 15.4883 28.5142 15.1165 28.1228 14.919Z" fill="#FFCE58"/>
<path d="M29.2742 16.2384C29.048 15.4881 28.5498 15.0796 28.502 15.1166C28.502 15.1166 27.9642 15.1574 27.7856 15.6581C27.6816 15.9461 27.9575 16.653 28.147 16.8428C28.6671 17.3628 28.7661 17.9794 28.5664 19.1254C28.4078 20.0372 28.2854 20.4282 28.3813 20.6894C28.4033 20.6858 28.4256 20.6836 28.4479 20.6829C28.7235 20.6819 29.4996 16.9884 29.2742 16.2384Z" fill="#FFCE58"/>
<path d="M29.802 29.6942H24.7266V29.4644H29.802C29.8325 29.4644 29.8617 29.4765 29.8833 29.498C29.9048 29.5196 29.917 29.5488 29.917 29.5793C29.917 29.6097 29.9048 29.639 29.8833 29.6605C29.8617 29.6821 29.8325 29.6942 29.802 29.6942Z" fill="#3A3256"/>
<path d="M30.0753 27.8816L29.4182 28.9215C29.3243 29.0705 29.0802 29.4261 29.4182 29.6266C29.7562 29.827 30.861 30.5952 30.9393 30.5141C31.0176 30.433 30.647 29.5072 30.5095 29.2033C30.3719 28.8994 30.7009 28.2812 30.7009 28.2812L30.0753 27.8816Z" fill="#FF916C"/>
<path d="M26.0201 20.4558C26.0201 20.4558 26.0318 21.8399 26.3959 22.214C26.7599 22.5881 31.4578 23.2147 31.4578 23.965C31.4578 24.7153 29.9003 28.0092 29.9003 28.0092L30.9516 28.863C30.9516 28.863 33.7647 23.2867 33.4792 22.7831C32.806 21.5953 28.1983 20.6357 28.1983 20.6357L26.0201 20.4558Z" fill="#000994"/>
<path d="M29.5839 28.625C29.5757 28.616 29.5654 28.609 29.554 28.6047C29.5426 28.6004 29.5304 28.5988 29.5182 28.6C29.5061 28.6013 29.4944 28.6054 29.4841 28.612C29.4739 28.6186 29.4653 28.6275 29.4591 28.638C29.3291 28.8616 28.8257 29.1611 29.0691 29.4642C29.125 29.5339 30.9354 30.7901 31.0395 30.6861C31.1435 30.5821 30.67 29.5045 30.67 29.3753C30.67 29.2461 30.4448 29.4049 30.1723 29.2001C29.9716 29.0498 29.7079 28.7654 29.5839 28.625Z" fill="#473838"/>
<path d="M29.0402 29.1504C28.9902 29.2526 28.984 29.3584 29.0693 29.4642C29.1252 29.5339 30.9357 30.7901 31.0397 30.6861C31.0657 30.6601 31.0553 30.5709 31.0246 30.4521C30.6577 30.3967 29.4229 29.4496 29.0402 29.1504Z" fill="#F2F2F2"/>
<path d="M31.6447 31.1973C31.6327 31.195 31.6204 31.1956 31.6086 31.1989C31.5969 31.2022 31.5861 31.2083 31.5771 31.2166C31.5681 31.2248 31.5612 31.2351 31.5569 31.2465C31.5526 31.2579 31.5511 31.2702 31.5524 31.2824C31.5826 31.5387 31.3571 32.08 31.7344 32.1777C31.821 32.2001 34.0225 32.1257 34.0449 31.9809C34.0673 31.8361 32.9242 31.1864 32.8002 31.1505C32.5587 31.0814 32.6252 31.3369 32.2846 31.3354C32.0324 31.3343 31.8272 31.2353 31.6447 31.1973Z" fill="#473838"/>
<path d="M31.5228 31.9435C31.5439 32.055 31.6008 32.1437 31.7337 32.1775C31.8203 32.1998 34.0218 32.1255 34.0442 31.9807C34.0496 31.944 33.988 31.8793 33.8918 31.8013C33.5647 31.9765 32.0085 31.9549 31.5228 31.9435Z" fill="#F2F2F2"/>
<path d="M42.3001 28.8269C42.3001 28.8269 42.5082 29.1254 42.3001 29.5265C42.0921 29.9276 41.7567 30.1463 41.8475 30.431C41.9382 30.7156 43.581 29.3703 43.581 29.3703L42.7749 28.4663L42.3001 28.8269Z" fill="#FFB9B9"/>
<path d="M43.3869 12.0069C43.3869 12.0069 42.9083 11.7225 42.3518 11.9289C41.7954 12.1353 41.7437 12.6532 41.7437 13.0673C41.7437 13.4815 42.1319 13.7916 42.0674 14.4384C42.0029 15.0853 41.7049 15.3957 42.0934 15.5639C42.4818 15.7321 43.219 15.7459 44.0859 15.2275C44.9527 14.7091 45.4702 14.9587 45.4702 14.9587C45.4702 14.9587 44.3443 11.7352 43.3869 12.0069Z" fill="#010032"/>
<path d="M34.1762 29.8852C34.0923 29.8589 34.0132 29.819 33.9422 29.7672C33.8122 29.4674 33.6281 28.9745 33.573 28.7273C33.495 28.3813 35.1255 24.2604 35.1255 24.2604C35.1255 24.2604 34.0129 23.6884 33.6247 24.3805C33.2365 25.0725 33.1135 28.3287 32.9648 28.5016C32.8161 28.6745 32.6026 28.7876 32.6026 29.0281C32.6026 29.2686 33.2753 30.0763 33.2753 30.0763C33.2753 30.0763 33.8603 30.1574 34.1739 30.0711C34.1936 30.065 34.2108 30.0528 34.2232 30.0362C34.2355 30.0197 34.2423 29.9997 34.2425 29.979C34.2428 29.9584 34.2365 29.9382 34.2246 29.9214C34.2127 29.9045 34.1957 29.8919 34.1762 29.8852Z" fill="#FFB9B9"/>
<path d="M33.626 24.3818C33.5257 24.5607 33.444 24.9104 33.3733 25.3339C33.4562 25.3001 33.5764 25.2912 33.7311 25.3827C33.9211 25.4953 34.2831 25.6201 34.5756 25.6879C34.8759 24.8961 35.1268 24.2617 35.1268 24.2617C35.1268 24.2617 34.0142 23.69 33.626 24.3818Z" fill="#E85116"/>
<path d="M38.0289 27.7927C38.0289 27.7927 37.1763 28.2087 37.1511 28.3407C37.1424 28.4003 37.1576 28.4608 37.1934 28.5092C37.2517 28.5971 37.4238 28.6392 37.6456 28.5092C38.0289 28.2835 39.3916 27.371 39.4225 27.3092C39.4485 27.2592 39.3765 27.1677 39.3765 27.1677C39.2369 27.1854 38.0289 27.7927 38.0289 27.7927Z" fill="#101F40"/>
<path d="M37.9714 27.7256C37.9714 27.7256 37.1763 28.2092 37.1511 28.3415C37.1258 28.4738 37.2049 28.6675 37.5881 28.4419C37.9714 28.2162 39.3113 27.35 39.3651 27.2421C39.3955 27.1802 39.401 27.1381 39.2611 27.156C39.1212 27.174 37.9714 27.7256 37.9714 27.7256Z" fill="#F4D2A2"/>
<path d="M36.286 25.9605C36.754 26.5787 37.0691 27.7447 37.0691 27.9974C37.0691 28.2501 37.352 28.2171 37.454 28.1794C37.5369 28.1492 39.4873 27.2523 39.3781 27.1395C39.2688 27.0266 38.1965 27.2801 37.8806 27.0833C37.5647 26.8865 36.7816 23.7119 36.7816 23.7119L35.7098 24.3863C35.7098 24.3863 35.819 25.3425 36.286 25.9605Z" fill="#FFB9B9"/>
<path d="M36.7808 23.7131L35.709 24.3875C35.709 24.3875 35.781 25.0138 36.0566 25.5803C36.1739 25.5621 36.3166 25.5075 36.4776 25.3827C36.7896 25.142 36.9022 24.9337 37.0637 24.7959C36.9004 24.1957 36.7808 23.7131 36.7808 23.7131Z" fill="#E85116"/>
<path d="M38.2925 27.162C38.207 27.2847 38.3144 27.8073 38.3144 27.8073L39.0905 27.4147C39.0905 27.4147 39.0645 27.117 38.9998 27.0767C38.8505 26.9795 38.3945 27.0159 38.2925 27.162Z" fill="#417CFE"/>
<path d="M31.3101 20.6732C31.3101 20.6732 31.0579 22.1291 31.3101 22.3808C31.5623 22.6324 31.9957 22.8594 32.1122 23.5192C32.2287 24.179 32.0082 24.9163 32.0082 24.9163C32.0082 24.9163 32.7329 25.3689 33.2116 25.162C33.6903 24.9551 34.5699 25.4724 34.9841 25.37C35.3983 25.2676 36.0837 24.3867 36.4719 24.6067C36.8601 24.8266 37.3515 24.2963 37.3515 24.2963C37.3515 24.2963 36.3814 21.2109 35.9285 21.0167C35.4755 20.8225 34.6489 20.999 34.2997 20.8438C33.9505 20.6886 33.9511 20.5027 33.9511 20.5027L31.3101 20.6732Z" fill="#052B4E"/>
<path d="M33.703 29.1506L34.0225 29.694L33.8655 29.8393L33.4175 29.349L33.703 29.1506Z" fill="#417CFE"/>
<path d="M32.6039 29.33C32.6039 29.33 32.5391 29.0893 32.7339 29.0142C32.9286 28.939 33.1543 29.0368 33.536 29.4806C33.9177 29.9243 34.1312 30.0809 34.1312 30.0809L33.2901 30.2023L32.6039 29.33Z" fill="black"/>
<path d="M35.8874 16.3845L36.9805 17.901L37.605 17.4473L37.0114 15.7551L35.8874 16.3845Z" fill="#D4004D"/>
<path d="M35.0426 17.5878C35.0426 17.5878 35.2852 19.5088 35.4648 19.5088C35.6445 19.5088 36.5348 17.8857 36.6349 17.7864C36.735 17.6871 36.195 17.2192 36.2854 17.1287C36.3759 17.0382 36.4019 17.2475 36.7514 17.2475C37.1008 17.2475 37.2849 16.4332 37.3528 16.5014C37.4207 16.5695 37.5868 16.7665 37.6828 17.1287C37.7787 17.4908 35.7615 20.8427 35.2181 20.8427C34.6747 20.8427 34.0901 17.7864 34.0901 17.7864L35.0426 17.5878Z" fill="#FFB9B9"/>
<path d="M34.2623 18.5839C34.4406 18.4279 34.8296 18.1117 35.1055 18.0408C35.0667 17.779 35.0426 17.5879 35.0426 17.5879L34.0894 17.7865C34.0894 17.7865 34.1549 18.1286 34.2623 18.5839Z" fill="#052B4E"/>
<path d="M37.0114 15.755C37.0559 15.833 36.8419 16.0387 36.5333 16.217C36.2246 16.3954 35.9384 16.477 35.8939 16.399C35.8494 16.321 36.0637 16.1151 36.3723 15.937C36.681 15.7589 36.967 15.6778 37.0114 15.755Z" fill="#DD0F5A"/>
<path d="M35.9714 16.4004C35.9438 16.4004 35.9241 16.3949 35.9194 16.3858C35.8962 16.3458 36.0366 16.1654 36.3874 15.9631C36.6066 15.8365 36.8214 15.7551 36.9334 15.7551C36.9612 15.7551 36.981 15.7606 36.9854 15.7699C37.0086 15.81 36.8682 15.9904 36.5174 16.1927C36.2998 16.3188 36.085 16.4004 35.9714 16.4004Z" fill="white"/>
<path d="M43.8916 20.5577C43.8916 20.5577 39.9067 21.7218 39.182 22.7051C38.4573 23.6883 42.2613 28.9661 42.2613 28.9661L43.0635 28.7061C43.0635 28.7061 40.8123 23.7645 41.278 23.6106C41.7437 23.4567 45.4699 22.912 45.7804 22.6016C46.0908 22.2912 46.7879 21.1735 46.2721 20.6577C45.7562 20.142 43.8656 20.4024 43.8656 20.4024L43.8916 20.5577Z" fill="#052B4E"/>
<path d="M45.2232 20.0872C45.2158 20.0866 45.209 20.0832 45.2042 20.0777C45.1993 20.0721 45.1968 20.0649 45.1972 20.0576L45.2055 19.8571C45.2058 19.8497 45.209 19.8427 45.2144 19.8376C45.2198 19.8324 45.2269 19.8296 45.2344 19.8296C45.242 19.8299 45.2491 19.8333 45.2543 19.8389C45.2595 19.8445 45.2622 19.8519 45.2619 19.8595L45.2533 20.0599C45.2529 20.0675 45.2495 20.0747 45.2439 20.0798C45.2382 20.0849 45.2308 20.0876 45.2232 20.0872Z" fill="white"/>
<path d="M42.1438 28.0587C42.1385 28.0588 42.1332 28.0574 42.1286 28.0546C42.124 28.0519 42.1203 28.0479 42.1178 28.0431C42.0635 27.9391 42.0026 27.8211 41.9358 27.6929C41.9324 27.686 41.9318 27.6781 41.9342 27.6707C41.9367 27.6634 41.9419 27.6574 41.9488 27.6539C41.9557 27.6505 41.9637 27.6499 41.971 27.6524C41.9783 27.6548 41.9844 27.66 41.9878 27.6669C42.0531 27.7948 42.1139 27.9124 42.1683 28.0169C42.1717 28.0236 42.1724 28.0314 42.1701 28.0386C42.1678 28.0458 42.1628 28.0519 42.1561 28.0553C42.1523 28.0575 42.1481 28.0586 42.1438 28.0587ZM41.7855 27.3568C41.7802 27.3568 41.7749 27.3553 41.7703 27.3525C41.7657 27.3497 41.762 27.3457 41.7595 27.3409C41.7031 27.2278 41.6446 27.1095 41.5848 26.9876C41.5814 26.9807 41.5808 26.9727 41.5832 26.9654C41.5857 26.9581 41.5909 26.9521 41.5978 26.9486C41.6047 26.9452 41.6127 26.9446 41.62 26.947C41.6273 26.9495 41.6334 26.9547 41.6368 26.9616C41.6963 27.0835 41.7549 27.2016 41.8113 27.3144C41.813 27.3178 41.814 27.3215 41.8142 27.3252C41.8145 27.329 41.814 27.3328 41.8128 27.3364C41.8116 27.3399 41.8097 27.3432 41.8072 27.3461C41.8047 27.3489 41.8017 27.3512 41.7983 27.3529C41.7944 27.3553 41.7901 27.3567 41.7855 27.357V27.3568ZM41.4397 26.6491C41.4343 26.6491 41.429 26.6476 41.4244 26.6447C41.4198 26.6418 41.4161 26.6377 41.4137 26.6327C41.3581 26.5158 41.3022 26.3969 41.246 26.2763C41.2429 26.2694 41.2426 26.2615 41.2452 26.2543C41.2479 26.2472 41.2532 26.2414 41.26 26.2381C41.267 26.235 41.2748 26.2347 41.2819 26.2374C41.289 26.24 41.2948 26.2453 41.298 26.2521C41.3539 26.3723 41.4098 26.4913 41.4655 26.6083C41.4671 26.6117 41.4681 26.6154 41.4683 26.6191C41.4685 26.6229 41.468 26.6266 41.4667 26.6301C41.4655 26.6337 41.4635 26.6369 41.461 26.6397C41.4584 26.6425 41.4554 26.6447 41.4519 26.6463C41.4482 26.6483 41.444 26.6494 41.4397 26.6494V26.6491ZM41.1087 25.9344C41.1032 25.9345 41.0978 25.9329 41.0932 25.9299C41.0886 25.9269 41.0849 25.9226 41.0827 25.9176C41.0286 25.7972 40.9756 25.6763 40.9241 25.5564C40.9222 25.5498 40.9228 25.5426 40.9257 25.5364C40.9287 25.5301 40.9338 25.5251 40.9402 25.5223C40.9466 25.5196 40.9537 25.5192 40.9603 25.5213C40.9669 25.5234 40.9725 25.5279 40.9761 25.5338C41.0281 25.6534 41.0801 25.774 41.1342 25.8942C41.1357 25.8976 41.1366 25.9013 41.1367 25.905C41.1368 25.9088 41.1362 25.9125 41.1348 25.9161C41.1335 25.9196 41.1314 25.9228 41.1288 25.9255C41.1262 25.9282 41.1231 25.9304 41.1196 25.9318C41.1163 25.9336 41.1125 25.9346 41.1087 25.9347V25.9344ZM40.799 25.2104C40.7934 25.2103 40.7879 25.2086 40.7833 25.2054C40.7787 25.2022 40.7751 25.1977 40.773 25.1925C40.721 25.0656 40.6732 24.9419 40.6293 24.8251C40.6266 24.818 40.6269 24.8101 40.6301 24.8032C40.6332 24.7962 40.639 24.7909 40.6462 24.7882C40.6533 24.7856 40.6612 24.7858 40.6681 24.789C40.675 24.7922 40.6804 24.798 40.6831 24.8051C40.7265 24.9213 40.7746 25.0445 40.8261 25.1712C40.8289 25.1782 40.8288 25.1861 40.8258 25.193C40.8229 25.2 40.8173 25.2055 40.8102 25.2083C40.8067 25.2099 40.8029 25.2107 40.799 25.2107V25.2104ZM40.5242 24.4726C40.5184 24.4723 40.5128 24.4702 40.5082 24.4667C40.5035 24.4632 40.5001 24.4584 40.4982 24.4528C40.4532 24.3169 40.4147 24.1895 40.3843 24.0741C40.3824 24.0667 40.3835 24.059 40.3873 24.0525C40.3911 24.0459 40.3973 24.0412 40.4046 24.0392C40.4082 24.0382 40.4121 24.0378 40.4158 24.0383C40.4196 24.0388 40.4232 24.04 40.4265 24.0419C40.4298 24.0438 40.4326 24.0463 40.4349 24.0493C40.4372 24.0524 40.4388 24.0558 40.4397 24.0595C40.4699 24.1736 40.5081 24.3 40.5528 24.4349C40.554 24.4385 40.5545 24.4422 40.5542 24.446C40.5539 24.4497 40.5529 24.4534 40.5512 24.4567C40.5495 24.4601 40.5472 24.4631 40.5443 24.4655C40.5415 24.468 40.5382 24.4699 40.5346 24.471C40.5313 24.4723 40.5278 24.4729 40.5242 24.4729V24.4726ZM40.3305 23.7101C40.3234 23.71 40.3165 23.7074 40.3113 23.7026C40.3061 23.6978 40.3028 23.6912 40.3022 23.6841C40.293 23.6195 40.2881 23.5543 40.2876 23.4891C40.2859 23.4186 40.296 23.3483 40.3175 23.2811C40.3188 23.2776 40.3207 23.2743 40.3232 23.2715C40.3258 23.2687 40.3288 23.2664 40.3322 23.2648C40.3356 23.2632 40.3393 23.2623 40.3431 23.2621C40.3468 23.2619 40.3506 23.2624 40.3542 23.2637C40.3577 23.265 40.361 23.2669 40.3638 23.2694C40.3666 23.272 40.3688 23.275 40.3705 23.2784C40.3721 23.2818 40.373 23.2855 40.3732 23.2893C40.3734 23.293 40.3728 23.2968 40.3716 23.3004C40.3523 23.3615 40.3436 23.4253 40.3456 23.4894C40.3461 23.5521 40.3507 23.6147 40.3594 23.6768C40.3599 23.6805 40.3596 23.6843 40.3587 23.6879C40.3577 23.6915 40.3561 23.6949 40.3538 23.6979C40.3515 23.7009 40.3487 23.7034 40.3454 23.7052C40.3422 23.7071 40.3386 23.7083 40.3349 23.7088L40.3305 23.7101ZM40.6584 23.1134C40.6516 23.1134 40.645 23.1111 40.6399 23.1067C40.6347 23.1023 40.6312 23.0963 40.6301 23.0896C40.629 23.0829 40.6303 23.076 40.6337 23.0702C40.6372 23.0644 40.6426 23.06 40.649 23.0578C40.7507 23.0224 40.877 22.9798 41.0242 22.9346C41.0278 22.9334 41.0316 22.933 41.0353 22.9334C41.0391 22.9337 41.0427 22.9348 41.046 22.9365C41.0494 22.9382 41.0523 22.9406 41.0547 22.9435C41.0571 22.9464 41.059 22.9497 41.0601 22.9533C41.0612 22.9569 41.0616 22.9606 41.0613 22.9644C41.061 22.9681 41.0599 22.9718 41.0582 22.9751C41.0564 22.9784 41.054 22.9814 41.0512 22.9838C41.0483 22.9862 41.045 22.988 41.0414 22.9892C40.8947 23.0354 40.7691 23.0768 40.6677 23.1119C40.6647 23.113 40.6616 23.1136 40.6584 23.1137V23.1134ZM41.4093 22.8745C41.4025 22.8743 41.3961 22.8717 41.3911 22.8672C41.386 22.8627 41.3827 22.8566 41.3817 22.8499C41.3807 22.8432 41.3821 22.8364 41.3856 22.8306C41.3892 22.8249 41.3946 22.8205 41.401 22.8184C41.5214 22.782 41.6477 22.7443 41.7788 22.7058C41.7824 22.7047 41.7862 22.7044 41.7899 22.7048C41.7937 22.7052 41.7973 22.7064 41.8006 22.7082C41.8039 22.71 41.8068 22.7124 41.8092 22.7154C41.8116 22.7183 41.8133 22.7217 41.8144 22.7253C41.8155 22.7289 41.8158 22.7327 41.8154 22.7364C41.815 22.7402 41.8138 22.7438 41.812 22.7471C41.8102 22.7504 41.8078 22.7534 41.8048 22.7557C41.8019 22.7581 41.7985 22.7598 41.7949 22.7609C41.6649 22.7994 41.5377 22.8368 41.4176 22.8732C41.4149 22.8741 41.4121 22.8746 41.4093 22.8748V22.8745ZM42.1649 22.652C42.1581 22.6518 42.1515 22.6492 42.1464 22.6446C42.1413 22.6401 42.138 22.6339 42.137 22.6271C42.1361 22.6203 42.1376 22.6134 42.1413 22.6076C42.1449 22.6019 42.1506 22.5976 42.1571 22.5956L42.5357 22.4871C42.543 22.4851 42.5508 22.486 42.5574 22.4897C42.5641 22.4934 42.569 22.4996 42.571 22.5069C42.5731 22.5142 42.5722 22.522 42.5685 22.5287C42.5648 22.5353 42.5586 22.5402 42.5513 22.5423L42.173 22.6507C42.1704 22.6516 42.1676 22.6521 42.1649 22.6522V22.652ZM42.9223 22.4362C42.9154 22.4362 42.9087 22.4336 42.9035 22.4291C42.8984 22.4245 42.895 22.4182 42.8941 22.4114C42.8931 22.4046 42.8947 22.3976 42.8985 22.3918C42.9024 22.3861 42.9081 22.3819 42.9148 22.38C43.0422 22.3442 43.1691 22.3085 43.2939 22.274C43.3012 22.2719 43.309 22.2729 43.3156 22.2766C43.3222 22.2803 43.3271 22.2865 43.3291 22.2939C43.3311 22.3012 43.3302 22.309 43.3265 22.3156C43.3227 22.3222 43.3165 22.327 43.3092 22.3291L42.9301 22.4352C42.9276 22.436 42.925 22.4364 42.9223 22.4365V22.4362ZM43.6813 22.2248C43.6744 22.2249 43.6677 22.2224 43.6624 22.2179C43.6572 22.2133 43.6538 22.207 43.6528 22.2002C43.6519 22.1933 43.6534 22.1863 43.6572 22.1805C43.661 22.1747 43.6668 22.1705 43.6735 22.1687L44.0534 22.0647C44.0607 22.0627 44.0686 22.0637 44.0752 22.0675C44.0818 22.0712 44.0866 22.0775 44.0886 22.0848C44.0906 22.0922 44.0896 22.1 44.0858 22.1066C44.082 22.1132 44.0758 22.1181 44.0685 22.1201C43.9478 22.1531 43.8204 22.1879 43.6888 22.2241C43.6864 22.2248 43.6838 22.2251 43.6813 22.2251V22.2248ZM44.4411 22.0168C44.4348 22.0169 44.4286 22.0148 44.4236 22.011C44.4186 22.0072 44.4149 22.0019 44.4132 21.9958C44.4122 21.9922 44.4119 21.9884 44.4124 21.9846C44.4129 21.9809 44.4141 21.9772 44.416 21.974C44.4179 21.9707 44.4204 21.9678 44.4234 21.9656C44.4264 21.9633 44.4299 21.9616 44.4335 21.9607L44.7429 21.8765C44.7653 21.8705 44.7873 21.863 44.8087 21.8541C44.8153 21.8526 44.8222 21.8534 44.8282 21.8565C44.8343 21.8595 44.839 21.8646 44.8416 21.8709C44.8442 21.8771 44.8446 21.8841 44.8425 21.8905C44.8405 21.897 44.8363 21.9025 44.8306 21.9061C44.8069 21.9158 44.7827 21.9241 44.758 21.9308L44.4486 22.0148C44.4461 22.0159 44.4435 22.0166 44.4408 22.0168H44.4411ZM45.1036 21.6487C45.099 21.6487 45.0944 21.6476 45.0903 21.6456C45.0836 21.6421 45.0785 21.636 45.0762 21.6287C45.0739 21.6215 45.0746 21.6136 45.0781 21.6069C45.1144 21.5373 45.1349 21.4606 45.1381 21.3822L45.1441 21.2361C45.1439 21.2322 45.1445 21.2283 45.1459 21.2247C45.1473 21.2211 45.1496 21.2178 45.1524 21.2152C45.1553 21.2125 45.1588 21.2105 45.1625 21.2094C45.1662 21.2083 45.1702 21.208 45.174 21.2086C45.1816 21.2089 45.1888 21.2122 45.194 21.2179C45.1991 21.2235 45.2019 21.2309 45.2016 21.2385L45.1954 21.3846C45.1919 21.4714 45.1693 21.5564 45.129 21.6334C45.1266 21.638 45.1229 21.6419 45.1184 21.6446C45.1139 21.6472 45.1088 21.6487 45.1036 21.6487ZM45.1896 20.8729C45.1823 20.8723 45.1755 20.8688 45.1706 20.8632C45.1658 20.8577 45.1633 20.8504 45.1636 20.8431L45.1803 20.4502C45.18 20.4463 45.1806 20.4424 45.182 20.4388C45.1835 20.4352 45.1857 20.4319 45.1886 20.4292C45.1915 20.4266 45.1949 20.4246 45.1986 20.4235C45.2024 20.4224 45.2063 20.4221 45.2102 20.4227C45.2178 20.423 45.225 20.4263 45.2301 20.4319C45.2353 20.4375 45.238 20.445 45.2377 20.4526L45.2208 20.8457C45.2207 20.8495 45.2198 20.8534 45.2181 20.8569C45.2165 20.8604 45.2141 20.8635 45.2112 20.8661C45.2082 20.8686 45.2048 20.8706 45.2011 20.8718C45.1974 20.8729 45.1935 20.8733 45.1896 20.8729Z" fill="white"/>
<path d="M42.4166 28.5735C42.4113 28.5737 42.406 28.5723 42.4014 28.5697C42.3968 28.567 42.3931 28.5631 42.3906 28.5585C42.3906 28.5585 42.356 28.495 42.2957 28.3817C42.2922 28.3748 42.2917 28.3668 42.2941 28.3595C42.2965 28.3522 42.3018 28.3461 42.3087 28.3427C42.3156 28.3392 42.3236 28.3387 42.3309 28.3411C42.3382 28.3435 42.3442 28.3488 42.3477 28.3557C42.4077 28.4688 42.4423 28.5319 42.4423 28.5322C42.4459 28.5388 42.4468 28.5467 42.4446 28.5539C42.4425 28.5612 42.4375 28.5673 42.4309 28.5709C42.4264 28.573 42.4215 28.5739 42.4166 28.5735Z" fill="white"/>
<g style="mix-blend-mode:multiply">
<path d="M46.2721 20.6577C45.7562 20.142 43.8656 20.4024 43.8656 20.4024L43.8916 20.5584C43.8916 20.5584 43.6816 20.6198 43.349 20.7261C43.479 20.9999 43.6886 21.3264 44.0006 21.5258C44.459 21.8185 45.5768 21.8869 46.3493 21.6724C46.4871 21.2994 46.5222 20.9078 46.2721 20.6577Z" fill="#BBDBFF"/>
</g>
<path d="M42.071 17.4045C42.071 17.4045 41.4332 18.4307 41.0193 18.4307C40.6054 18.4307 39.649 16.966 39.3375 16.6543C39.026 16.3425 38.2764 16.0823 38.0694 16.2903C37.8625 16.4983 37.8874 17.4053 38.2774 17.4053C38.6675 17.4053 39.1831 17.2987 39.7008 18.1658C40.2184 19.0328 40.6321 19.9125 40.9946 19.9125C41.3571 19.9125 42.9847 17.9427 42.9847 17.9427L42.071 17.4045Z" fill="#FFB9B9"/>
<path d="M42.4166 14.2707C42.4166 14.2707 42.7231 14.733 42.7231 15.2909C42.7231 15.8488 42.6623 16.2697 42.8823 16.2146C43.1022 16.1595 43.6327 14.7364 43.6327 14.7364L43.4998 13.3652L42.4166 14.2707Z" fill="#FFB9B9"/>
<path d="M47.7112 23.1029H44.175V22.817C44.175 22.817 45.6142 22.7603 45.8423 22.531C45.8755 22.498 46.602 22.5063 47.1389 22.5172C47.2917 22.5201 47.4372 22.5829 47.5441 22.6919C47.6511 22.801 47.711 22.9476 47.711 23.1004L47.7112 23.1029Z" fill="#473838"/>
<path d="M33.6131 12.3809C33.6131 12.3809 34.0787 12.4456 34.247 13.0537C34.4152 13.6618 34.377 14.9164 34.027 15.0846C33.677 15.2528 33.3803 15.2406 33.2249 15.0846C33.0694 14.9286 33.6131 12.3809 33.6131 12.3809Z" fill="#FFB9B9"/>
<path d="M32.9014 15.8737C32.9014 15.8737 34.053 15.8867 34.5447 16.3783C35.0363 16.8699 35.2173 17.5877 35.2173 17.5877L34.1484 18.0999C34.1484 18.0999 34.0595 20.0781 34.0595 20.4015C34.0595 20.7249 31.3101 20.6732 31.3101 20.6732C31.3101 20.6732 31.0126 17.5168 31.0761 16.9734C31.1395 16.4301 32.3852 15.8264 32.9014 15.8737Z" fill="#FFCE58"/>
<path opacity="0.29" d="M32.9013 15.8737C32.3852 15.8264 31.1418 16.4301 31.0774 16.9734C31.0342 17.3353 31.1517 18.8572 31.2352 19.8332C31.9671 20.1087 32.6039 19.6189 32.6039 18.9089C32.6039 18.1454 32.5199 17.6153 33.3348 17.1063C33.7196 16.866 33.8756 16.4701 33.9154 16.0341C33.424 15.8797 32.9013 15.8737 32.9013 15.8737Z" fill="#000343"/>
<path d="M34.2742 13.1701C34.2742 13.1701 33.6013 13.6482 33.7696 14.3861C33.9378 15.1239 34.1492 16.2296 33.334 16.6952C32.5189 17.1608 32.6031 17.6459 32.6031 18.3445C32.6031 19.043 31.8668 19.5087 31.0672 19.1208C30.2677 18.7329 30.022 18.0923 30.022 17.2619C30.022 16.4316 30.4219 15.3602 30.9471 14.835C31.4723 14.3099 31.2771 14.0551 31.704 13.4546C32.1309 12.854 32.781 12.2808 33.3827 12.2808C33.9843 12.2808 34.4097 12.7789 34.2742 13.1701Z" fill="#000343"/>
<path d="M43.6327 14.7363C43.6327 14.7363 43.1907 14.8213 42.6496 15.3624C42.1085 15.9034 41.4592 17.6083 41.4592 17.6083L42.7013 18.8263C42.7013 18.8263 42.8833 18.2562 43.0635 18.2562C43.2437 18.2562 43.6587 19.1089 43.5035 19.665C43.3482 20.2211 43.1667 20.5577 43.1667 20.5577C43.1667 20.5577 45.8758 22.0838 46.8927 20.8939C47.2677 20.4558 46.4401 17.6036 45.0557 16.2195C43.6714 14.8354 43.6327 14.7363 43.6327 14.7363Z" fill="#FFCE58"/>
<g style="mix-blend-mode:multiply" opacity="0.44">
<path d="M45.8732 17.4221C45.6468 16.9619 45.3763 16.5397 45.056 16.2194C43.6717 14.8353 43.6327 14.7375 43.6327 14.7375C43.6327 14.7375 43.3867 14.7849 43.0373 15.0334C43.0116 15.1884 43.0366 15.3476 43.1085 15.4873C43.1751 15.6173 44.1064 16.286 44.1761 16.7667C44.3194 17.7546 44.9465 17.6464 45.8732 17.4234V17.4221Z" fill="#427CFE"/>
</g>
<path d="M42.4166 12.1619C42.4166 12.1619 41.9249 12.2267 41.7956 13.2874C41.6664 14.3481 41.7826 15.0079 42.1061 14.9562C42.4296 14.9044 43.4127 14.1931 43.4904 13.6885C43.5682 13.1839 43.154 12.0067 42.4166 12.1619Z" fill="#FFB9B9"/>
<path d="M42.5201 11.8516C42.5201 11.8516 42.364 12.1375 42.2743 12.6409C42.1846 13.1442 42.7626 13.0987 42.6217 13.7403C42.4808 14.3819 43.2382 15.4387 43.6327 15.8331C44.0271 16.2275 44.6659 16.3575 44.6659 16.9219C44.6659 17.4863 46.3649 16.4371 46.5825 16.22C46.8001 16.0029 47.6306 14.944 46.4403 14.2324C45.2499 13.5209 45.3277 13.4692 45.0172 12.7059C44.7068 11.9426 42.96 11.4117 42.5201 11.8516Z" fill="#010042"/>
<path d="M29.7599 17.2788C29.7599 17.2788 30.8699 18.0626 31.3668 18.0626C31.8637 18.0626 33.7277 16.567 34.0033 16.567H34.825C34.825 16.567 34.4906 15.733 34.0449 15.7967C33.5993 15.8604 31.7025 16.9809 31.1967 16.763C30.691 16.5452 30.2191 16.0322 30.2191 16.0322L29.7599 17.2788Z" fill="#FFB9B9"/>
<path d="M30.2204 16.0322L29.7599 17.2788C29.7599 17.2788 29.9978 17.4468 30.3025 17.6272C30.405 17.2203 30.679 16.8007 30.8486 16.5683C30.6212 16.4118 30.4106 16.2322 30.2204 16.0322Z" fill="#E35C26"/>
<path d="M28.2848 15.1264L28.2619 15.129C27.7744 15.1906 27.6546 15.7269 27.932 16.1325C28.3145 16.6909 29.05 17.1584 29.8821 17.6513C30.2217 17.2593 30.6749 16.6587 30.8777 16.1845C30.1231 15.6308 29.0771 15.0385 28.2848 15.1264Z" fill="#052B4E"/>
<path d="M35.1211 32.1241H31.4874C31.6239 31.4133 33.2399 26.2374 34.3432 22.774C34.3466 22.7633 34.3478 22.752 34.3469 22.7407C34.3459 22.7295 34.3427 22.7185 34.3375 22.7085C34.3324 22.6985 34.3252 22.6896 34.3166 22.6823C34.308 22.6751 34.298 22.6696 34.2872 22.6661C34.2765 22.6627 34.2652 22.6615 34.2539 22.6624C34.2427 22.6634 34.2317 22.6666 34.2217 22.6717C34.2117 22.6769 34.2028 22.684 34.1955 22.6927C34.1883 22.7013 34.1828 22.7113 34.1793 22.722C34.1721 22.7452 33.4287 25.079 32.7074 27.4001C31.627 30.8773 31.3655 31.8368 31.3192 32.1241H29.7534C29.8902 31.4133 31.5059 26.2374 32.6094 22.774C32.6128 22.7633 32.6141 22.752 32.6131 22.7407C32.6121 22.7295 32.609 22.7185 32.6038 22.7085C32.5986 22.6985 32.5915 22.6896 32.5828 22.6823C32.5742 22.6751 32.5642 22.6696 32.5535 22.6661C32.5427 22.6627 32.5314 22.6615 32.5202 22.6624C32.5089 22.6634 32.498 22.6666 32.4879 22.6717C32.4779 22.6769 32.469 22.684 32.4618 22.6927C32.4545 22.7013 32.449 22.7113 32.4456 22.722C32.438 22.7452 31.6949 25.079 30.9736 27.4001C29.5017 32.1366 29.5495 32.2016 29.5914 32.259L29.62 32.296H35.1211C35.1328 32.2966 35.1445 32.2949 35.1555 32.2908C35.1665 32.2868 35.1765 32.2806 35.185 32.2725C35.1935 32.2645 35.2003 32.2548 35.2049 32.2441C35.2095 32.2333 35.2119 32.2217 35.2119 32.21C35.2119 32.1983 35.2095 32.1868 35.2049 32.176C35.2003 32.1653 35.1935 32.1556 35.185 32.1475C35.1765 32.1395 35.1665 32.1333 35.1555 32.1292C35.1445 32.1252 35.1328 32.1235 35.1211 32.1241Z" fill="#3A3256"/>
<path d="M35.3052 30.2022H30.2297V29.9724H35.3052C35.3357 29.9724 35.3649 29.9845 35.3865 30.0061C35.408 30.0276 35.4201 30.0568 35.4201 30.0873C35.4201 30.1178 35.408 30.147 35.3865 30.1686C35.3649 30.1901 35.3357 30.2022 35.3052 30.2022Z" fill="#3A3256"/>
<path d="M34.9646 22.9109H31.4284V22.4453C31.4284 22.4453 32.3873 22.5337 32.7139 22.5358C33.085 22.5381 33.9264 22.4853 34.4685 22.4482C34.5318 22.444 34.5953 22.453 34.655 22.4743C34.7148 22.4957 34.7695 22.5291 34.8158 22.5725C34.8621 22.6159 34.899 22.6683 34.9242 22.7265C34.9495 22.7847 34.9625 22.8475 34.9625 22.9109H34.9646Z" fill="#473838"/>
<path d="M42.1413 29.7794C41.9593 30.0321 41.7772 30.2117 41.8474 30.4293C41.9379 30.7153 43.581 29.3686 43.581 29.3686L43.1909 28.9326C43.0264 29.1224 42.4847 29.7128 42.1413 29.7794Z" fill="#FFCE58"/>
<path d="M51.2734 30.998H50.8855V43.1057H51.2734V30.998Z" fill="#4C4272"/>
<path d="M62.5354 39.1577C62.5354 39.1577 63.5079 39.9473 63.6605 40.0996C63.8131 40.252 62.5354 41.4572 62.5354 41.4572C62.5354 41.4572 62.6654 40.2301 62.5354 40.0996C62.4054 39.9691 61.6644 39.8781 61.6644 39.8781L62.5354 39.1577Z" fill="#FF7C4F"/>
<path d="M63.0775 39.4172C63.0775 39.4172 64.1238 39.9705 64.1238 40.1909C64.1238 40.4114 62.6938 42.2362 62.5045 42.3399C62.2356 42.4886 61.3084 42.5648 61.1545 42.4117C61.0005 42.2585 61.4246 41.9351 61.6644 41.6952C61.9041 41.4552 62.0996 41.0936 62.0996 40.8632C62.0996 40.6329 61.6519 40.0136 62.0996 40.0136C62.5474 40.0136 63.0775 39.4172 63.0775 39.4172Z" fill="#473838"/>
<path d="M63.2949 41.0364L63.5981 41.6359C63.7375 41.9119 63.9654 42.1333 64.2453 42.2648L63.5432 43.4087C63.5432 43.4087 62.5508 44.0672 62.1743 43.9148C61.7978 43.7625 62.9738 43.2043 62.9738 43.2043L62.4761 41.5719L63.2949 41.0364Z" fill="#FF7C4F"/>
<path d="M56.3814 25.9602C56.3814 25.9602 56.1942 26.562 56.3814 26.7492C56.5686 26.9364 56.8804 27.129 56.8804 27.3471C56.8804 27.5653 56.7423 30.3956 57.3895 30.5334C58.0367 30.6712 60.3537 28.2914 60.3537 28.2914L59.4114 27.1418C59.4114 27.1418 57.9243 28.9148 57.9243 28.7302C57.9243 28.5456 57.324 27.123 57.324 27.123L57.6196 26.5321C57.6196 26.5321 57.8042 25.8302 57.4532 25.6825C57.1022 25.5348 56.3814 25.9602 56.3814 25.9602Z" fill="#FFB9B9"/>
<path d="M57.3843 29.9592C56.928 29.7065 56.9235 27.8666 56.8801 27.355C56.8778 27.6212 56.7485 30.3967 57.389 30.534C58.0353 30.6726 60.3531 28.2919 60.3531 28.2919L59.9184 27.7616C59.3255 28.47 57.8154 30.1981 57.3843 29.9592Z" fill="#FF5921"/>
<path d="M56.8494 27.2256C56.8602 27.2475 56.8685 27.2705 56.8741 27.2942C56.8674 27.2407 56.8596 27.2155 56.8494 27.2256Z" fill="#FF5921"/>
<path d="M61.7892 25.0448C61.7892 25.0448 61.5791 24.9213 61.1061 25.1243C60.6332 25.3274 59.0416 27.2717 59.0416 27.2717L60.4153 28.4538C60.8748 27.914 61.2984 27.3445 61.6834 26.7492C62.3116 25.7758 61.7892 25.0448 61.7892 25.0448Z" fill="#052B4E"/>
<path d="M64.2538 32.3142L63.8677 32.5461C63.8677 32.5461 56.6677 33.8658 56.3811 35.0294C56.0946 36.1931 61.9917 40.1005 61.9917 40.1005L63.1048 39.214C63.1048 39.214 59.357 36.6304 59.7795 36.2079C60.202 35.7854 65.1831 34.8363 65.1831 34.8363L64.2538 32.3142Z" fill="#000563"/>
<path d="M54.7912 41.6499C54.7912 41.6499 55.0221 43.5826 55.149 43.5826H57.7632C57.7632 43.5826 56.3482 43.008 56.0842 42.7442C55.8203 42.4803 55.5419 41.5774 55.5419 41.5774L54.7912 41.6499Z" fill="#FFB9B9"/>
<path d="M54.9615 43.0901C54.9615 43.0901 56.5091 43.3121 56.7077 43.1137C56.9064 42.9154 57.8575 43.466 57.8575 43.5817C57.8575 43.6974 55.3403 43.805 54.9248 43.6698C54.7849 43.6251 54.9615 43.1618 54.9615 43.0901Z" fill="#FFCE58"/>
<path d="M50.4559 23.5935C50.4559 23.5935 50.4383 24.6989 50.6663 25.2735C50.8943 25.848 49.1231 25.8018 49.1231 25.8018L49.3405 22.4312L50.4559 23.5935Z" fill="#FF7C4F"/>
<path d="M50.456 23.5935L49.9139 23.0286C49.8897 23.3925 49.9003 23.6863 49.9526 23.8072C50.0506 24.0336 50.2628 24.2429 50.4862 24.3506C50.4505 23.9426 50.456 23.5935 50.456 23.5935Z" fill="#FF5921"/>
<path d="M51.6143 23.3233V24.3062C51.6143 24.3599 51.6248 24.4131 51.6454 24.4627C51.6659 24.5123 51.696 24.5574 51.7339 24.5954C51.7719 24.6334 51.817 24.6635 51.8666 24.684C51.9162 24.7046 51.9694 24.7152 52.0231 24.7152H52.3736C52.482 24.7152 52.5861 24.6721 52.6628 24.5954C52.7395 24.5187 52.7826 24.4147 52.7826 24.3062V23.1987H51.6143V23.3233Z" fill="white"/>
<path d="M54.0239 25.1242C54.0239 25.1242 53.5873 24.1961 53.3863 23.9954C53.1853 23.7947 52.7768 23.5935 52.7768 23.5935C52.7768 23.5935 52.8946 23.9398 52.8184 24.0162C52.7423 24.0927 52.6175 24.2377 52.3889 24.2377C52.1604 24.2377 52.1325 24.3693 52.2919 24.5286C52.4513 24.688 52.957 25.0897 53.1648 25.1658C53.2075 25.1659 53.2492 25.1789 53.2844 25.2033C53.3195 25.2276 53.3463 25.2621 53.3614 25.3021L53.4134 25.443L54.0231 25.2769L54.0239 25.1242Z" fill="#FFB9B9"/>
<path d="M53.3101 25.3044C53.3101 25.3044 53.4765 27.7841 53.5597 28.4907C53.6429 29.1973 54.8338 29.5717 54.8338 29.5717V28.0196C54.8338 27.0637 54.0717 25.1243 54.0717 25.1243L53.3101 25.3044Z" fill="#052B4E"/>
<path d="M61.8877 31.1784H46.5911C46.5911 31.0299 46.6501 30.8874 46.7552 30.7824C46.8602 30.6774 47.0027 30.6184 47.1512 30.6184H61.3277C61.4762 30.6184 61.6187 30.6774 61.7237 30.7824C61.8287 30.8874 61.8877 31.0299 61.8877 31.1784Z" fill="#BB4C48"/>
<path d="M66.7991 31.0884C66.7991 31.0884 68.4656 30.6183 68.9619 30.7811L68.3051 32.7309L66.3254 32.3929L66.7991 31.0884Z" fill="#BF544C"/>
<path d="M50.8395 20.6961C50.8395 20.6961 51.2919 20.982 51.3936 21.2407C51.4953 21.4994 51.3845 23.3928 51.1164 23.7625C50.8484 24.1322 50.1559 23.7901 49.9526 23.3837C49.7493 22.9774 50.1744 20.2988 50.8395 20.6961Z" fill="#FFB9B9"/>
<path d="M53.6011 26.9529C53.2128 26.3713 52.7647 25.832 52.2641 25.3437C51.9984 25.0866 51.6729 24.8997 51.3169 24.7998C50.9609 24.6999 50.5857 24.6903 50.2251 24.7717C50.0522 24.8102 49.8673 24.8497 49.679 24.8879C49.1815 24.9872 48.7325 25.2526 48.4056 25.6406C48.0787 26.0285 47.8934 26.516 47.88 27.0231L47.75 32.1688C47.7159 33.5244 48.8902 34.6202 50.2349 34.4455C50.4874 34.4127 50.697 34.3415 50.8241 34.2149C51.4339 33.6052 51.1736 29.7789 51.432 29.0585C51.5992 28.5934 51.6874 28.597 51.7134 27.9887C51.7134 27.9887 53.8933 30.361 54.3369 30.361C54.8356 30.361 54.8356 29.8761 54.8356 29.2849C54.8356 28.6937 54.682 28.5739 53.6011 26.9529Z" fill="#FFCE58"/>
<path opacity="0.61" d="M50.2251 24.7716C50.0522 24.8101 49.8673 24.8496 49.679 24.8878C49.1815 24.9871 48.7325 25.2525 48.4056 25.6404C48.0788 26.0284 47.8934 26.5159 47.88 27.023L47.8049 29.993C47.9797 30.0406 48.1615 30.0571 48.3421 30.0418C49.6517 29.9202 50.9711 28.7219 51.0324 27.4704C51.081 26.4791 50.7594 25.5351 50.5244 24.7258C50.4237 24.7344 50.3237 24.7497 50.2251 24.7716Z" fill="#FFCE58"/>
<path d="M50.6915 37.052H50.4559V44.1309H50.6915V37.052Z" fill="#4C4272"/>
<path d="M47.1863 37.052H46.9507V44.1309H47.1863V37.052Z" fill="#4C4272"/>
<path d="M51.613 37.052H51.3774V44.1309H51.613V37.052Z" fill="#3A3256"/>
<path d="M59.9358 31.1074H59.5479V43.2151H59.9358V31.1074Z" fill="#4C4272"/>
<path d="M65.1842 32.5334C65.1842 32.5334 61.7728 33.4954 59.1987 34.464C56.6246 35.4327 62.4133 41.8453 62.4133 41.8453L63.6325 41.2913C63.6325 41.2913 60.843 36.4037 61.2726 35.9755C61.7021 35.5474 65.9323 34.4477 65.9323 34.4477L65.1842 32.5334Z" fill="#00027F"/>
<path d="M56.4816 41.9815C56.4816 41.9815 56.7125 43.9141 56.8393 43.9141H59.4535C59.4535 43.9141 58.0385 43.3396 57.7746 43.0757C57.5107 42.8118 57.2322 41.9089 57.2322 41.9089L56.4816 41.9815Z" fill="#FFB9B9"/>
<path d="M54.7201 35.8091C54.2214 35.3105 50.4559 33.3118 50.4559 33.3118L47.6998 34.1437C47.6998 34.1437 47.8246 35.2096 48.3095 35.6952C48.7944 36.1809 53.5412 37.0521 53.5412 37.0521C53.5412 37.0521 54.3621 42.2516 54.3647 42.2685C54.6086 42.2498 55.6302 42.04 55.8728 42.0345C55.8379 41.78 55.2189 36.308 54.7201 35.8091Z" fill="#052B4E"/>
<path d="M51.4952 32.896C51.4952 32.896 55.2283 33.2155 56.1495 35.5613C56.429 36.2723 57.7163 42.3397 57.7163 42.3397L56.4358 42.5066C56.4358 42.5066 54.6333 37.9929 54.5088 37.1887C54.3842 36.3846 50.9744 35.9928 50.2815 35.8545C49.5885 35.7162 48.341 34.069 48.341 34.069L51.4952 32.896Z" fill="#052B4E"/>
<path d="M44.7617 30.1531C44.7617 30.1531 44.9887 35.5835 46.9507 37.0519H53.5413C53.5413 37.0519 54.8414 36.4147 54.8414 35.1678C54.8414 33.921 54.2173 32.5631 50.8262 31.0672C47.4351 29.5713 44.7617 30.1531 44.7617 30.1531Z" fill="#473838"/>
<path d="M50.8267 31.0672C49.7302 30.5796 48.5668 30.2589 47.3753 30.1157C48.0773 30.293 49.2851 30.5639 50.0961 30.9692C53.4875 32.6651 54.1913 33.9098 54.1913 35.3231C54.1913 36.5788 53.5413 36.8452 53.1622 37.0519H53.5413C53.5413 37.0519 54.8413 36.4147 54.8413 35.1679C54.8413 33.921 54.2173 32.5632 50.8267 31.0672Z" fill="white"/>
<path d="M53.5194 37.1919H53.2839V44.1312H53.5194V37.1919Z" fill="#4C4272"/>
<path d="M53.5194 37.052H46.9507V37.6892H53.5194V37.052Z" fill="#4C4272"/>
<path d="M61.2723 36.8643H61.0367V44.1309H61.2723V36.8643Z" fill="#3A3256"/>
<path d="M66.9648 36.9119H66.7292V44.1309H66.9648V36.9119Z" fill="#3A3256"/>
<path d="M66.9645 36.6919H61.0367V37.1918H66.9645V36.6919Z" fill="#3A3256"/>
<path d="M50.821 20.0303C50.821 20.0303 50.3221 19.6424 49.269 20.0303C48.216 20.4182 48.3824 21.3411 48.4747 21.9323C48.5719 22.5544 47.6252 22.7666 47.2885 23.1196C46.1088 24.3563 45.6504 26.3004 45.9406 27.9565C46.126 29.0151 47.1151 29.6983 48.1684 29.5996C49.4783 29.4779 50.3902 28.2087 50.4516 26.9569C50.5439 25.0728 49.8795 23.8723 50.4331 22.9301C50.9867 21.9879 50.8026 21.4896 50.9872 21.3047C51.1718 21.1199 51.3936 21.24 51.3936 21.24C51.3936 21.24 52.8081 19.8587 50.821 20.0303Z" fill="#00083E"/>
<path d="M61.1061 25.1242C61.1061 25.1242 60.8151 26.4589 60.9259 27.438C61.0125 28.2036 62.7894 30.9477 63.5604 32.1069C63.7848 32.4447 64.122 32.6916 64.5118 32.8037L67.096 33.5472L67.5765 33.8852C67.5765 33.8852 67.6504 32.9987 67.4465 31.484C67.2427 29.9694 63.9181 24.428 63.1607 24.428C62.4033 24.428 61.1061 25.1242 61.1061 25.1242Z" fill="#FFCE58"/>
<path d="M61.4087 25.8241C61.4158 25.8245 61.423 25.8245 61.4301 25.8241C62.6695 25.7183 63.1051 24.5845 63.123 24.5364L63.1516 24.4584L63.1332 24.4272C62.3721 24.4439 61.105 25.124 61.105 25.124C61.105 25.124 61.0936 25.176 61.0759 25.2698C61.1076 25.5418 61.1659 25.8241 61.4087 25.8241Z" fill="#BBDBFF"/>
<g style="mix-blend-mode:multiply" opacity="0.68">
<path d="M63.8859 25.0642L63.0776 24.9321C63.0776 24.9321 62.0513 27.5467 61.5461 28.8578C61.7107 29.156 61.8968 29.4755 62.0908 29.7973C62.1667 29.5992 62.2637 29.3983 62.3768 29.2865C62.6491 29.0143 62.9572 29.1648 63.0789 29.0432C63.2005 28.9215 64.2466 27.3237 64.2466 26.3339C64.2466 25.3442 63.8859 25.0642 63.8859 25.0642Z" fill="#507EEF"/>
</g>
<path d="M62.8656 27.6096C62.8656 27.6096 61.5458 30.5315 61.0367 30.6232C60.4776 30.7244 57.5858 30.6183 57.5858 30.6183H56.7875C56.4992 30.6225 56.2477 30.4041 56.2306 30.1163C56.2238 29.9988 56.2566 29.9083 56.3713 29.9083C56.6957 29.9083 57.4357 29.9704 57.6193 29.9704C57.8029 29.9704 59.6048 29.7947 59.8081 29.5914C60.0114 29.3881 61.604 26.3357 61.604 26.3357L62.8656 27.6096Z" fill="#FFB9B9"/>
<path d="M62.2377 28.8999C62.5877 28.2239 62.8657 27.6096 62.8657 27.6096L61.6054 26.3357C61.6054 26.3357 61.1803 27.1507 60.7411 27.9665C61.123 28.2938 61.7224 28.7527 62.2377 28.8999Z" fill="#FF5921"/>
<path d="M61.0367 36.4701C61.0367 36.4701 61.6833 35.1034 63.383 33.6995C65.0828 32.2956 68.9619 30.781 68.9619 30.781C68.9619 30.781 69.1283 36.0084 66.9858 36.6919H61.0367V36.4701Z" fill="#473838"/>
<g style="mix-blend-mode:multiply">
<path d="M66.776 36.0277H61.2897C61.1972 36.1703 61.1126 36.3178 61.0362 36.4697V36.6914H66.9848C68.6637 36.1559 68.9253 32.832 68.9609 31.417C68.638 33.4906 68.0066 35.5207 66.776 36.0277Z" fill="#FB9900"/>
</g>
<path d="M61.5843 22.136L62.9624 24.4758C62.9624 24.4758 62.5612 25.5542 61.4161 25.6522C61.2413 25.667 61.2507 25.1062 61.2104 24.9346L60.8724 23.5035L61.5843 22.136Z" fill="#FFB9B9"/>
<path d="M61.5843 22.136L60.8724 23.5035L61.0146 24.1061C61.3479 23.5661 61.6126 22.7181 61.6665 22.2756L61.5843 22.136Z" fill="#FF5921"/>
<path d="M61.0232 20.6648C61.0232 20.6648 61.5843 21.6506 61.5843 22.1358C61.5843 22.6209 60.8713 24.0318 60.2798 23.8345C59.6883 23.6371 59.4608 21.9083 59.4608 21.1047C59.4608 20.3011 60.6438 20.1342 61.0232 20.6648Z" fill="#FFB9B9"/>
<path d="M60.9927 19.8457C60.9927 19.8457 61.4478 19.861 61.4478 20.225C61.4478 20.589 61.9028 20.3615 61.9938 20.8014C62.0848 21.2413 61.7286 22.3815 61.7286 22.3815C61.7286 22.3815 61.2959 22.0602 60.9925 21.7576C60.6891 21.455 60.6742 20.9922 60.5226 20.9922C60.3711 20.9922 59.9613 21.0442 59.4607 21.5457C58.9602 22.0472 58.0502 21.6216 58.3838 20.8783C58.7174 20.1351 59.2787 20.2414 59.9311 20.1657C60.5835 20.0901 60.9927 19.8457 60.9927 19.8457Z" fill="#000444"/>
<path d="M61.9917 25.0446C61.5786 25.6572 61.0164 27.2669 60.9257 27.4364C60.6917 27.8714 62.2798 28.5762 62.5752 28.5023C62.8706 28.4285 63.7356 26.6287 63.9184 25.9587C64.0484 25.4778 63.9351 24.8096 63.4764 24.5289C62.9468 24.2041 62.3297 24.5447 61.9917 25.0446Z" fill="#052B4E"/>
<path d="M52.5828 24.2376H52.3889V24.0715H52.5828C52.6269 24.0714 52.6692 24.0539 52.7003 24.0227C52.7315 23.9915 52.749 23.9492 52.749 23.9051V23.739C52.749 23.6949 52.7315 23.6526 52.7003 23.6214C52.6692 23.5902 52.6269 23.5727 52.5828 23.5726H52.3335V23.4065H52.5828C52.671 23.4066 52.7555 23.4417 52.8178 23.504C52.8802 23.5664 52.9153 23.6509 52.9154 23.739V23.9051C52.9153 23.9933 52.8802 24.0778 52.8178 24.1401C52.7555 24.2024 52.671 24.2375 52.5828 24.2376Z" fill="#BFBFBF"/>
<path d="M58.5097 25.5677V26.5504C58.5097 26.6041 58.4991 26.6573 58.4785 26.7069C58.458 26.7565 58.4279 26.8016 58.3899 26.8395C58.3519 26.8775 58.3068 26.9076 58.2572 26.9282C58.2076 26.9487 58.1544 26.9593 58.1007 26.9593H57.7502C57.6965 26.9593 57.6433 26.9487 57.5937 26.9282C57.5441 26.9076 57.499 26.8775 57.4611 26.8395C57.4231 26.8016 57.393 26.7565 57.3725 26.7069C57.3519 26.6572 57.3414 26.6041 57.3414 26.5504V25.4429H58.5097V25.5677Z" fill="white"/>
<path d="M57.1815 26.482H57.3757V26.3156H57.1815C57.1374 26.3156 57.0952 26.298 57.0641 26.2669C57.0329 26.2358 57.0154 26.1935 57.0153 26.1495V25.9836C57.0154 25.9396 57.0329 25.8974 57.0641 25.8662C57.0952 25.8351 57.1374 25.8176 57.1815 25.8175H57.4311V25.6511H57.1815C57.0933 25.6513 57.0089 25.6863 56.9466 25.7487C56.8843 25.811 56.8493 25.8955 56.8492 25.9836V26.15C56.8494 26.2381 56.8845 26.3224 56.9468 26.3846C57.009 26.4469 57.0934 26.4819 57.1815 26.482Z" fill="#BFBFBF"/>
<path d="M61.0367 36.47C61.4909 35.1702 62.6789 33.8838 63.8092 33.0695C65.0313 32.1794 67.4538 31.1509 68.9619 30.7817C65.5058 32.7103 63.8625 33.2154 61.8115 35.5016C61.5337 35.8083 61.2749 36.1317 61.0367 36.47Z" fill="white"/>
<path d="M56.3814 25.96C56.3814 25.96 57.325 25.8056 57.4794 25.96C57.6339 26.1144 56.7254 26.2405 56.7254 26.2405L56.3814 25.96Z" fill="#FF682B"/>
<path d="M56.5624 26.4821C56.5624 26.4821 57.3237 26.4202 57.3411 26.2598C57.3585 26.0994 56.6391 26.2013 56.6391 26.2013L56.5624 26.4821Z" fill="#FF682B"/>
<path d="M56.7941 25.8915C56.7941 25.8915 57.1362 25.9069 57.3414 25.8172C57.5465 25.7275 56.9514 25.7083 56.9514 25.7083L56.7941 25.8915Z" fill="#FF682B"/>
<path d="M63.5713 41.5615C63.5713 41.5615 64.4889 42.0472 64.4889 42.2401C64.4889 42.433 63.2439 44.0557 63.0687 44.1252C62.9982 44.153 61.7122 44.1309 61.6646 44.0833C61.5304 43.9492 62.1217 43.7698 62.3321 43.5597C62.5424 43.3497 62.7138 43.0317 62.7138 42.8318C62.7138 42.6319 62.3209 42.0867 62.7138 42.0867C63.1067 42.0867 63.5713 41.5615 63.5713 41.5615Z" fill="#473838"/>
<path d="M56.6518 43.4216C56.6518 43.4216 58.1994 43.6437 58.3981 43.4453C58.5967 43.2469 59.5479 43.7976 59.5479 43.9132C59.5479 44.0289 57.0307 44.1366 56.6149 44.0011C56.4753 43.9564 56.6518 43.4931 56.6518 43.4216Z" fill="#FFCE58"/>
<path d="M3.56065 10.4167H5.85345C6.20092 10.4168 6.54497 10.4853 6.86596 10.6183C7.18695 10.7513 7.47859 10.9462 7.72422 11.1919C7.96985 11.4376 8.16466 11.7293 8.29753 12.0503C8.43039 12.3713 8.49871 12.7154 8.49857 13.0628V17.999H0.91449V13.0628C0.914353 12.7153 0.982703 12.3712 1.11563 12.0501C1.24856 11.729 1.44347 11.4373 1.68921 11.1915C1.93495 10.9458 2.22672 10.7509 2.54783 10.618C2.86894 10.485 3.2131 10.4166 3.56065 10.4167Z" fill="#473838"/>
<path d="M3.86046 13.5989H3.56873V14.7555H3.86046V13.5989Z" fill="#757574"/>
<path d="M5.7838 13.5989H5.49207V14.7555H5.7838V13.5989Z" fill="#757574"/>
<path d="M2.70206 13.2561H6.61189C6.66058 13.2561 6.70727 13.2754 6.74169 13.3099C6.77612 13.3443 6.79546 13.391 6.79546 13.4396V13.9414H2.51849V13.4394C2.51856 13.3908 2.53793 13.3441 2.57235 13.3098C2.60677 13.2754 2.65342 13.2561 2.70206 13.2561Z" fill="#052B4E"/>
<path d="M7.70166 11.8081H5.59711C5.5391 11.8081 5.49207 11.8551 5.49207 11.9131V12.2709C5.49207 12.3289 5.5391 12.3759 5.59711 12.3759H7.70166C7.75968 12.3759 7.80671 12.3289 7.80671 12.2709V11.9131C7.80671 11.8551 7.75968 11.8081 7.70166 11.8081Z" fill="#052B4E"/>
<path d="M4.34064 16.3674H2.75768C2.74729 16.3675 2.73734 16.3717 2.72999 16.379C2.72264 16.3864 2.71848 16.3963 2.71842 16.4067V16.5128H2.61233C2.57026 16.5128 2.52861 16.521 2.48974 16.5371C2.45088 16.5532 2.41556 16.5768 2.38582 16.6066C2.35607 16.6363 2.33247 16.6716 2.31638 16.7105C2.30028 16.7493 2.29199 16.791 2.29199 16.8331C2.29199 16.8751 2.30028 16.9168 2.31638 16.9556C2.33247 16.9945 2.35607 17.0298 2.38582 17.0595C2.41556 17.0893 2.45088 17.1129 2.48974 17.129C2.52861 17.1451 2.57026 17.1533 2.61233 17.1533H2.75664C2.80553 17.2903 2.89573 17.4086 3.01477 17.4921C3.13382 17.5755 3.27584 17.6199 3.42123 17.6192H3.67813C3.74861 17.6193 3.81872 17.6088 3.88614 17.5883C4.02825 17.5462 4.15304 17.4595 4.24202 17.341C4.331 17.2225 4.37944 17.0785 4.38016 16.9303V16.4067C4.3802 16.4015 4.3792 16.3964 4.37722 16.3916C4.37524 16.3868 4.37233 16.3824 4.36865 16.3788C4.36497 16.3751 4.3606 16.3722 4.35579 16.3703C4.35098 16.3683 4.34583 16.3674 4.34064 16.3674ZM2.61233 17.0371C2.58496 17.0381 2.55768 17.0336 2.53211 17.0238C2.50654 17.014 2.48321 16.9991 2.4635 16.9801C2.4438 16.9611 2.42813 16.9383 2.41742 16.9131C2.40672 16.8879 2.4012 16.8608 2.4012 16.8334C2.4012 16.8061 2.40672 16.779 2.41742 16.7538C2.42813 16.7286 2.4438 16.7058 2.4635 16.6868C2.48321 16.6678 2.50654 16.6529 2.53211 16.6431C2.55768 16.6333 2.58496 16.6288 2.61233 16.6298H2.71842V16.9303C2.71865 16.9661 2.72169 17.0018 2.72752 17.0371H2.61233Z" fill="#F2F2F2"/>
<path d="M6.91064 16.5128H6.80456V16.4067C6.80449 16.3963 6.80033 16.3864 6.79298 16.379C6.78563 16.3717 6.77569 16.3675 6.76529 16.3674H5.18233C5.17716 16.3674 5.17204 16.3684 5.16726 16.3704C5.16248 16.3723 5.15814 16.3752 5.15449 16.3789C5.15084 16.3825 5.14795 16.3868 5.14599 16.3916C5.14402 16.3964 5.14303 16.4015 5.14307 16.4067V16.9303C5.14388 17.0216 5.16269 17.1119 5.19842 17.196C5.23415 17.28 5.2861 17.3562 5.3513 17.4202C5.4165 17.4842 5.49366 17.5347 5.57839 17.5689C5.66312 17.603 5.75376 17.6201 5.8451 17.6192H6.10304C6.17361 17.6193 6.24377 17.6085 6.31105 17.5872C6.4155 17.5557 6.51104 17.4999 6.58992 17.4246C6.6688 17.3492 6.72879 17.2563 6.76503 17.1533H6.9096C6.99456 17.1533 7.07604 17.1196 7.13611 17.0595C7.19619 16.9995 7.22994 16.918 7.22994 16.8331C7.22994 16.7481 7.19619 16.6666 7.13611 16.6066C7.07604 16.5465 6.99456 16.5128 6.9096 16.5128H6.91064ZM6.91064 17.0371H6.79545C6.80128 17.0018 6.80433 16.9661 6.80456 16.9303V16.6298H6.91064C6.93801 16.6288 6.96529 16.6333 6.99086 16.6431C7.01643 16.6529 7.03976 16.6678 7.05947 16.6868C7.07917 16.7058 7.09485 16.7286 7.10555 16.7538C7.11625 16.779 7.12177 16.8061 7.12177 16.8334C7.12177 16.8608 7.11625 16.8879 7.10555 16.9131C7.09485 16.9383 7.07917 16.9611 7.05947 16.9801C7.03976 16.9991 7.01643 17.014 6.99086 17.0238C6.96529 17.0336 6.93801 17.0381 6.91064 17.0371Z" fill="#F2F2F2"/>
<path d="M7.11815 17.6191H2.56635V18.026H7.11815V17.6191Z" fill="#F2F2F2"/>
<path d="M6.57083 12.031H5.72058V12.2317H6.57083V12.031Z" fill="#41FF00"/>
<path d="M53.9994 2.62574C53.4409 2.34938 53.0777 1.9758 52.3728 1.9758H52.405C52.405 1.93682 52.3974 1.89823 52.3824 1.86222C52.3675 1.82621 52.3456 1.7935 52.3181 1.76595C52.2905 1.7384 52.2577 1.71656 52.2217 1.70167C52.1857 1.68678 52.1471 1.67913 52.1081 1.67916H51.4549C51.4378 1.41005 51.3224 1.1566 51.1307 0.966953C50.9389 0.777307 50.6842 0.664669 50.4149 0.650432V0.000488281H50.3002V0.650432C50.0309 0.664725 49.7762 0.77738 49.5845 0.967016C49.3928 1.15665 49.2774 1.41007 49.2602 1.67916H48.607C48.5681 1.67916 48.5295 1.68684 48.4935 1.70174C48.4575 1.71665 48.4248 1.7385 48.3972 1.76604C48.3697 1.79359 48.3478 1.82629 48.3329 1.86228C48.318 1.89827 48.3103 1.93684 48.3103 1.9758H48.4008C48.106 1.97547 47.8156 2.04685 47.5545 2.18378L46.7185 2.62366C46.7055 2.62704 46.699 2.63042 46.699 2.63406C46.699 2.76405 54.0176 2.76405 54.0176 2.63406C54.0161 2.63198 54.0106 2.62886 53.9994 2.62574Z" fill="#052B4E"/>
<path d="M40.623 3.05552C40.0645 2.77916 39.7015 2.40557 38.9964 2.40557H39.0286C39.0286 2.3269 38.9974 2.25145 38.9417 2.19582C38.8861 2.14019 38.8106 2.10894 38.7319 2.10894H38.0785C38.0614 1.83982 37.946 1.58637 37.7542 1.39673C37.5625 1.20708 37.3078 1.09444 37.0385 1.08021V0H36.9238V1.08047C36.6545 1.09476 36.3998 1.20741 36.2081 1.39705C36.0164 1.58668 35.9009 1.8401 35.8837 2.1092H35.2306C35.1519 2.1092 35.0764 2.14045 35.0208 2.19608C34.9652 2.25171 34.9339 2.32716 34.9339 2.40583H35.0244C34.7296 2.4055 34.4391 2.47688 34.1781 2.61381L33.3405 3.05369C33.3275 3.05707 33.321 3.06071 33.321 3.06409C33.321 3.19408 40.6399 3.19408 40.6399 3.06409C40.6399 3.06175 40.6342 3.05863 40.623 3.05552Z" fill="#052B4E"/>
<path d="M19.3248 19.5244H17.7421C17.7316 19.5245 17.7217 19.5286 17.7143 19.536C17.7069 19.5433 17.7027 19.5533 17.7025 19.5637V19.6697H17.5967C17.5117 19.6697 17.4303 19.7035 17.3702 19.7636C17.3101 19.8236 17.2764 19.9051 17.2764 19.99C17.2764 20.075 17.3101 20.1565 17.3702 20.2165C17.4303 20.2766 17.5117 20.3103 17.5967 20.3103H17.741C17.7898 20.4472 17.88 20.5656 17.999 20.6491C18.118 20.7326 18.26 20.7771 18.4053 20.7765H18.6622C18.7327 20.7764 18.8028 20.7659 18.8703 20.7453C19.0124 20.7032 19.1372 20.6165 19.2261 20.498C19.3151 20.3795 19.3636 20.2355 19.3643 20.0873V19.5637C19.3643 19.5585 19.3633 19.5533 19.3613 19.5485C19.3594 19.5438 19.3564 19.5394 19.3528 19.5357C19.3491 19.5321 19.3447 19.5292 19.3399 19.5273C19.3351 19.5253 19.3299 19.5243 19.3248 19.5244ZM17.5967 20.1944C17.5699 20.1944 17.5434 20.1891 17.5187 20.1789C17.494 20.1686 17.4715 20.1536 17.4526 20.1347C17.4336 20.1158 17.4186 20.0933 17.4084 20.0686C17.3981 20.0438 17.3929 20.0173 17.3929 19.9906C17.3929 19.9638 17.3981 19.9373 17.4084 19.9126C17.4186 19.8878 17.4336 19.8654 17.4526 19.8464C17.4715 19.8275 17.494 19.8125 17.5187 19.8022C17.5434 19.792 17.5699 19.7867 17.5967 19.7867H17.7025V20.0873C17.7027 20.1232 17.7059 20.159 17.7119 20.1944H17.5967Z" fill="#F9EDEC"/>
<path d="M21.8948 19.6697H21.7889V19.5637C21.7888 19.5533 21.7846 19.5433 21.7772 19.536C21.7698 19.5286 21.7598 19.5245 21.7494 19.5244H20.1667C20.1615 19.5244 20.1564 19.5254 20.1516 19.5273C20.1469 19.5293 20.1425 19.5322 20.1389 19.5358C20.1352 19.5395 20.1323 19.5438 20.1304 19.5486C20.1284 19.5534 20.1274 19.5585 20.1274 19.5637V20.0873C20.1282 20.1786 20.147 20.2689 20.1827 20.353C20.2184 20.4371 20.2704 20.5134 20.3356 20.5774C20.4008 20.6414 20.478 20.6919 20.5627 20.7261C20.6475 20.7602 20.7381 20.7774 20.8295 20.7765H21.0872C21.2322 20.7763 21.3738 20.7315 21.4925 20.6481C21.6112 20.5647 21.7014 20.4468 21.7507 20.3103H21.895C21.98 20.3103 22.0615 20.2766 22.1215 20.2165C22.1816 20.1564 22.2154 20.075 22.2154 19.99C22.2154 19.9051 22.1816 19.8236 22.1215 19.7636C22.0615 19.7035 21.98 19.6697 21.895 19.6697H21.8948ZM21.8948 20.1944H21.7796C21.7856 20.159 21.7887 20.1232 21.7889 20.0873V19.7867H21.8948C21.9215 19.7867 21.948 19.792 21.9728 19.8022C21.9975 19.8125 22.02 19.8275 22.0389 19.8464C22.0578 19.8654 22.0728 19.8878 22.0831 19.9126C22.0933 19.9373 22.0986 19.9638 22.0986 19.9906C22.0986 20.0173 22.0933 20.0438 22.0831 20.0686C22.0728 20.0933 22.0578 20.1158 22.0389 20.1347C22.02 20.1536 21.9975 20.1686 21.9728 20.1789C21.948 20.1891 21.9215 20.1944 21.8948 20.1944Z" fill="#F9EDEC"/>
<path d="M15.5072 18.821C15.5072 18.821 16.5608 21.6421 17.0242 21.6421C17.4875 21.6421 20.3674 21.0896 20.3674 21.0896L21.8425 21.0605C21.8425 21.0605 20.9434 21.4531 20.3674 21.7149C19.7915 21.9767 17.8268 23.6335 16.9259 23.7357C16.0249 23.8378 14.4537 21.5693 14.4537 21.5693L15.5072 18.821Z" fill="#FFB9B9"/>
<g style="mix-blend-mode:multiply" opacity="0.68">
<path d="M16.9259 23.7352C17.8268 23.633 19.7915 21.9759 20.3674 21.7144C20.9434 21.4528 21.8425 21.06 21.8425 21.06L20.4798 21.086C20.4798 21.086 17.7538 22.7759 16.8367 22.6022C16.1718 22.4771 15.2355 21.3504 14.7709 20.7402L14.4537 21.568C14.4537 21.568 16.0249 23.8371 16.9259 23.7352Z" fill="#FF682B"/>
</g>
<path d="M10.5626 38.8838C10.5626 38.8838 8.73623 40.6165 8.77081 40.8724C8.80539 41.1282 10.2789 42.6012 10.4833 42.7785C10.6876 42.9558 10.2024 41.2532 10.1881 41.1466C10.1738 41.04 11.5288 39.9227 11.5288 39.9227L10.5626 38.8838Z" fill="#FFB9B9"/>
<path d="M16.8564 40.2867C16.8564 40.2867 18.0346 42.4546 18.2761 42.4221C18.5177 42.3896 20.8984 40.7409 20.8984 40.7409C20.8984 40.7409 19.9407 40.6348 19.0619 41.0071C18.183 41.3794 17.8572 39.6846 17.8572 39.6846L16.8564 40.2867Z" fill="#FFB9B9"/>
<path d="M14.2152 25.0627L14.7121 26.1222L15.4752 28.2347C15.4752 28.2347 17.3289 33.552 16.3096 35.1124C15.2904 36.6728 11.107 40.6463 11.107 40.6463L9.6972 39.1158C9.6972 39.1158 13.7417 34.5688 14.2201 33.0646C14.6986 31.5604 11.6348 26.7828 11.6348 26.7828L14.2152 25.0627Z" fill="#052B4E"/>
<path d="M11.2194 30.2578C12.8977 33.6531 16.3203 40.4705 16.9514 40.9478L18.5967 40.0831C18.5967 40.0831 13.988 29.0923 14.5116 28.5503C15.0748 27.9674 15.4753 28.2349 15.4753 28.2349L14.6076 26.4931L12.2482 24.8113L11.3626 26.3132C11.0143 26.9075 10.8188 27.579 10.7938 28.2674C10.7688 28.9559 10.915 29.6398 11.2194 30.2578Z" fill="#052B4E"/>
<path d="M13.2878 16.0298C13.2878 16.0298 11.7425 15.9134 11.0402 17.1347C11.0402 17.1347 9.63613 26.653 10.2817 27.6363C10.9274 28.6195 15.9261 27.8424 16.1253 27.6363C16.2142 27.5445 15.7093 25.9924 15.7153 24.1526C15.722 21.8708 16.2186 19.1839 16.1253 18.7331C15.9568 17.9188 15.6196 16.8722 15.0296 16.8722C14.4396 16.8722 13.2878 16.0298 13.2878 16.0298Z" fill="#FFCE58"/>
<path d="M15.0551 17.078C15.1044 17.0812 15.1537 17.0721 15.1986 17.0514C15.2435 17.0308 15.2826 16.9993 15.3122 16.9597C15.2284 16.904 15.1302 16.8739 15.0296 16.8731C14.4396 16.8731 13.2875 16.03 13.2875 16.03H13.2781C13.2633 16.0783 13.261 16.1295 13.2714 16.179C13.2817 16.2284 13.3045 16.2744 13.3374 16.3126C13.5579 16.5705 14.0727 17.0117 15.0551 17.078Z" fill="#000994"/>
<g style="mix-blend-mode:multiply" opacity="0.44">
<path d="M15.7251 24.6361C15.7184 24.478 15.7147 24.3171 15.7153 24.1536C15.7153 23.6856 15.7387 23.2026 15.7717 22.7237C14.9519 22.8773 14.215 22.98 14.0325 22.9296C13.7984 22.8648 13.0556 22.3854 12.8148 21.4604C12.0683 22.0233 11.9458 22.01 11.1473 22.5326C12.0485 24.1299 13.5688 25.0804 14.4537 25.0804C14.7085 25.0817 15.1685 24.9067 15.7251 24.6361Z" fill="#427CFE"/>
</g>
<path d="M15.1076 13.3201L13.2875 16.0298C13.2875 16.0298 13.7766 16.9044 15.234 16.9044L15.6521 15.0702L15.1076 13.3201Z" fill="#FFB9B9"/>
<g style="mix-blend-mode:multiply" opacity="0.68">
<path d="M15.4425 15.9906L15.6523 15.0702L15.1076 13.3201L14.9102 13.619C14.9317 13.6685 14.9442 13.7213 14.9474 13.775V15.1617C14.9474 15.3687 15.243 15.754 15.4425 15.9906Z" fill="#FF682B"/>
</g>
<path d="M15.4638 12.0364C15.4638 12.0364 15.0738 13.1075 15.0738 13.6262C15.0738 14.1448 15.6198 15.635 16.2303 15.4244C16.8408 15.2139 17.0762 13.3657 17.0762 12.5065C17.0762 11.6472 15.8554 11.4691 15.4638 12.0364Z" fill="#FFB9B9"/>
<path d="M18.3843 12.0614C18.0398 11.2672 17.2891 11.2108 16.6162 11.1299C16.2388 11.087 15.8646 11.0199 15.4958 10.9292C15.4958 10.9292 15.0259 11.1775 15.0259 11.5664C15.0259 11.9553 14.5558 11.7123 14.462 12.1823C14.3681 12.6523 14.852 13.7068 14.852 13.7068C14.852 13.7068 14.9537 13.5903 15.1034 13.4265C15.0532 13.7429 14.918 14.7228 15.0873 15.1814C15.2912 15.7325 16.4188 16.2993 16.7501 16.1215C17.0814 15.9436 16.7501 14.6843 16.7501 14.6843C16.7501 14.6843 16.2397 14.7181 15.9667 14.4355C15.7743 14.2364 15.599 13.5901 15.5124 13.2266C15.4994 13.1708 15.4988 13.1127 15.5105 13.0566C15.5223 13.0005 15.5462 12.9476 15.5806 12.9016C15.7802 12.6321 15.8499 12.3851 15.9802 12.3851C16.1362 12.3851 16.5598 12.4417 17.0767 12.9768C17.5936 13.5118 18.7288 12.8549 18.3843 12.0614Z" fill="#000444"/>
<path d="M15.2917 12.9996C15.2966 12.9739 15.2995 12.9478 15.3005 12.9216C15.3073 12.7859 15.2719 12.5299 14.8845 12.6515C14.3679 12.8135 14.8975 13.7154 15.0647 13.6043C15.1076 13.5768 15.2917 12.9996 15.2917 12.9996Z" fill="#FFB9B9"/>
<path d="M18.8224 21.0745C18.7028 21.198 18.8083 21.2198 18.2745 21.4816C17.7407 21.7434 14.3694 22.4412 13.9479 22.3247C13.7139 22.26 13.3683 21.3696 13.1276 20.4446C12.3811 21.0074 11.8613 21.4065 11.063 21.9265C11.964 23.524 13.4843 24.4742 14.3694 24.4742C15.4651 24.4742 20.3674 21.2321 20.3674 21.0867C20.3674 20.9414 18.9417 20.951 18.8224 21.0745Z" fill="#FF916C"/>
<g style="mix-blend-mode:multiply" opacity="0.68">
<path d="M13.1276 20.4446C12.3811 21.0074 11.8613 21.4065 11.063 21.9265C11.1196 22.0268 11.1784 22.1245 11.2396 22.2194C11.6507 21.8911 12.6827 21.1091 13.2924 21.0181C13.2342 20.8343 13.1785 20.6403 13.1276 20.4446Z" fill="#FF682B"/>
</g>
<path d="M17.1742 20.8708H23.72V20.8779C23.72 20.9844 23.6777 21.0866 23.6024 21.1619C23.527 21.2372 23.4249 21.2795 23.3183 21.2795H17.5759C17.4694 21.2795 17.3672 21.2372 17.2919 21.1619C17.2165 21.0866 17.1742 20.9844 17.1742 20.8779V20.8708Z" fill="#172EA9"/>
<g style="mix-blend-mode:multiply">
<path d="M17.1997 21.0154H23.6946C23.7116 20.9691 23.7204 20.9202 23.7206 20.8708H17.1742C17.1741 20.9202 17.1827 20.9691 17.1997 21.0154Z" fill="#172EA9"/>
</g>
<path d="M24.0196 20.6819H16.9399V20.8709H24.0196V20.6819Z" fill="#427CFE"/>
<path d="M12.6557 18.3561C12.2201 16.9314 12.067 16.3846 11.5319 16.4515C10.4448 16.5877 9.86025 18.3561 10.3379 20.8128C10.4251 21.2617 10.5845 21.6935 10.8098 22.0914C11.6083 21.5691 12.4872 21.1175 13.2339 20.5547C13.042 19.8171 12.8491 18.9881 12.6557 18.3561Z" fill="#052B4E"/>
<path d="M17.7894 41.4643C17.6047 41.5088 17.5067 41.7183 17.5868 41.8961C17.7584 42.2767 18.0171 42.8274 18.0808 42.8274C18.1763 42.8274 21.0042 40.9197 21.0803 40.6469C21.1565 40.3742 18.9373 40.5822 18.6731 40.8549C18.4357 41.0988 18.6188 41.2639 17.7894 41.4643Z" fill="#473838"/>
<path d="M17.8562 42.4715C17.9516 42.6535 18.0468 42.8274 18.0785 42.8274C18.1739 42.8274 21.0255 40.9296 21.102 40.6654C21.1139 40.6243 21.0814 40.583 20.9979 40.563C20.4857 41.0265 18.5603 42.0901 17.8562 42.4715Z" fill="#F4F4F4"/>
<path d="M20.9974 40.563C20.3832 41.1537 18.5876 42.1353 17.8699 42.4985C19.8718 41.2977 20.6081 40.8833 20.9974 40.563Z" fill="#E9E9E9"/>
<path d="M9.50218 40.064C9.49331 40.0229 9.47424 39.9847 9.44673 39.953C9.41921 39.9212 9.38414 39.8968 9.34474 39.8822C9.30533 39.8675 9.26287 39.863 9.22127 39.8691C9.17967 39.8751 9.14027 39.8916 9.1067 39.9169C8.78974 40.1584 8.34875 40.5177 8.34875 40.6469C8.34875 40.8489 9.1548 41.6733 9.33681 42.4225C9.43457 42.8253 10.2515 42.8962 10.7125 42.8273C11.1735 42.7584 11.3498 42.4738 11.1712 42.4225C10.9926 42.3713 10.5121 42.0568 10.3974 41.6902C10.2827 41.3236 10.6314 41.2955 10.3974 41.0527C10.1634 40.8099 9.85345 40.9344 9.69537 40.6469C9.61788 40.5047 9.55028 40.2676 9.50218 40.064Z" fill="#473838"/>
<path d="M9.53 41.8191C9.53 41.4608 8.90596 40.7347 8.56483 40.3645C8.43794 40.4841 8.34875 40.5889 8.34875 40.6468C8.34875 40.8488 9.1548 41.6732 9.33681 42.4225C9.43457 42.8252 10.2515 42.8962 10.7125 42.8273C11.0636 42.7753 11.2495 42.5974 11.2393 42.4929L11.1712 42.4225C11.1712 42.4225 10.7986 42.5889 10.3974 42.5889C9.9962 42.5889 9.53 42.312 9.53 41.8191Z" fill="#F4F4F4"/>
<path d="M60.5585 22.6258C60.5585 22.6258 60.4941 22.2122 60.6659 22.2122C60.8378 22.2122 61.0146 22.7558 60.8646 22.9058C60.7146 23.0558 60.5585 22.6258 60.5585 22.6258Z" fill="#FF7C4F"/>
</svg>
