<svg width="117" height="102" viewBox="0 0 117 102" fill="none" xmlns="http://www.w3.org/2000/svg">
<path d="M16.6425 27.1662C19.7633 25.4733 22.9968 23.997 26.3202 22.7478C27.3699 22.323 28.5015 22.1391 29.6317 22.2096C31.3837 22.2463 32.509 24.0779 31.928 25.9768C31.6155 26.9982 30.9241 27.8614 29.9955 28.3893C28.803 29.1079 27.7298 30.013 26.5587 30.7652C25.4854 31.4532 25.1704 32.45 25.4151 33.6517C25.7412 35.4007 26.4744 37.0484 27.5555 38.4615C28.5706 39.7549 30.0261 40.0576 31.5305 40.1524C32.6619 40.2197 33.7994 40.1249 34.9307 40.1983C35.368 40.2258 35.8786 40.2411 36.004 40.8098C36.1232 41.3266 35.7655 41.6751 35.3924 41.9412C34.3253 42.7239 33.1052 43.0266 31.4847 43.097C33.4097 43.29 35.3488 42.9069 37.0558 41.9962C37.7866 41.6354 38.0893 40.9321 38.337 40.2074C39.3766 37.1925 41.089 34.462 41.832 31.3217C41.8471 31.1932 41.9013 31.0725 41.9871 30.9757C42.0729 30.879 42.1863 30.8108 42.3121 30.7805C42.7982 31.0618 42.4068 31.6336 42.6545 32.0035C42.8074 34.6607 42.7371 37.3179 42.6545 39.9781C42.4588 40.3236 42.7432 40.9719 42.043 40.9933C39.5234 41.0667 38.6489 43.0633 37.6765 44.9683C37.1506 45.9896 37.2424 47.2861 36.3403 48.1361C36.007 48.3318 35.6554 48.4877 35.3099 48.6559C34.056 49.2299 32.6982 49.5421 31.3195 49.5732C30.072 49.5243 28.8244 49.6558 27.583 49.5243C26.0817 49.1452 25.1062 48.1116 24.3816 46.7724C24.4011 46.1787 24.2431 45.5927 23.9277 45.0894C23.6123 44.5861 23.1539 44.1883 22.6111 43.947C22.076 43.6718 21.6418 43.2743 21.6938 42.5619C21.7855 41.8188 21.9843 41.0483 21.2413 40.4949C18.8532 39.6142 17.1164 38.2841 17.0063 35.2967C16.9299 33.2297 16.5813 31.1627 16.3734 29.0956C16.3061 28.4413 16.2083 27.7503 16.6425 27.1662Z" fill="#F0C251"/>
<path d="M86.1385 80.1536C85.0194 79.3953 84.2703 78.4413 84.5516 76.946C85.0714 76.4201 85.7502 76.5608 86.3862 76.4843C89.1382 76.151 90.4224 74.9555 91.0217 72.1668C91.4131 70.3505 91.2358 68.5159 91.2511 66.6874C91.2511 65.0026 91.5568 63.3483 91.7036 61.6788C91.7431 61.1042 91.8807 60.5406 92.1103 60.0123C92.0836 60.0235 92.0612 60.0428 92.0461 60.0674C91.4957 61.0275 90.823 62.431 89.7283 61.902C88.6734 61.4036 89.1657 59.8839 89.4592 58.829C90.0219 56.817 90.9728 54.964 91.8259 53.0713C92.679 51.1786 92.5659 50.8606 90.7099 50.1818C89.7334 49.825 88.7743 49.4173 87.8325 48.9587C86.9427 48.5336 86.5238 47.916 86.8877 46.8947L86.9519 44.5708C87.3158 44.3354 87.6552 44.5372 88.0007 44.632C88.4046 44.8251 88.8427 44.9365 89.2899 44.9595C89.737 44.9826 90.1842 44.917 90.6059 44.7665C93.2508 44.58 95.8927 44.687 98.5315 44.6931C99.193 44.7316 99.8566 44.6792 100.504 44.5372C101.611 44.4057 102.663 43.7942 103.821 44.1275C103.929 44.2463 104.002 44.3924 104.032 44.5499C104.062 44.7074 104.049 44.8701 103.993 45.0203C102.421 46.4146 100.513 47.0751 98.5682 47.6469C96.4553 48.2584 96.0456 49.081 96.8528 51.2183C97.7396 53.5667 99.2379 55.545 100.602 57.5998C101.19 58.4211 101.697 59.2977 102.115 60.2172C102.18 60.328 102.209 60.4564 102.197 60.5843C102.185 60.7122 102.133 60.833 102.048 60.9297C101.828 61.1559 101.583 61.0092 101.369 60.9022C100.758 60.5964 100.259 60.0582 99.4213 59.7188C99.5152 60.5675 99.7728 61.3899 100.18 62.1405C101.014 63.9293 101.935 65.6753 102.736 67.4793C102.984 68.0328 103.62 68.7819 102.381 69.1091C101.923 69.2283 102.262 69.6075 102.418 69.8185C103.182 70.8489 104.133 71.4941 105.476 71.3015C105.818 71.2525 106.154 71.1731 106.494 71.1058C107.258 70.959 108.206 70.5584 108.604 71.5186C109.001 72.4787 107.992 72.8854 107.497 73.4663C107.066 73.9617 106.035 74.029 106.246 74.9585C106.457 75.8881 107.322 76.2275 108.096 76.573C108.514 76.7278 108.949 76.8305 109.393 76.8788C110.178 77.0164 110.35 77.4903 110.084 78.2028L109.915 79.1384C109.708 80.6673 108.536 81.0098 107.359 81.2238C106.229 81.439 105.061 81.3068 104.008 80.8446C102.962 80.3432 102.351 79.4687 101.91 78.3985C100.81 75.7046 100.296 72.8395 99.6415 70.0264C98.4979 65.134 97.3115 60.2417 95.8896 55.3187C95.3026 61.4709 94.4617 67.5221 94.3883 73.6651C94.3577 76.2091 93.9908 78.7715 91.8932 80.597C89.9026 81.4898 87.9487 81.869 86.1385 80.1536Z" fill="#052B4E"/>
<path d="M16.1167 81.7773C15.8629 80.5302 15.9366 79.2386 16.3307 78.0285C16.6151 77.1112 16.7252 76.1327 17.0921 75.2582C19.1897 70.2741 18.9023 65.1432 18.3152 59.9115C17.9299 56.548 17.3275 53.0591 18.7188 49.7201C19.7584 49.7506 20.6421 49.1483 21.6328 48.9679C22.1649 48.9679 22.6908 48.8608 23.2259 48.8761C23.6326 48.9495 24.0362 49.0565 24.4337 49.1819C26.1307 50.6404 28.103 51.8115 29.2557 53.8572C29.219 55.3554 28.7848 56.8293 28.9897 58.3428C28.3782 61.4006 28.2987 64.4919 27.9256 67.5619C27.3141 72.6744 25.1737 77.2916 23.4583 82.0433C23.3255 82.4502 23.1078 82.8242 22.8194 83.1405C22.531 83.4569 22.1787 83.7082 21.7857 83.8779C20.7197 84.2226 19.5815 84.2796 18.4864 84.043C17.2236 83.7862 16.3124 83.1869 16.1167 81.7773Z" fill="#052B4E"/>
<path d="M42.67 31.9974C42.5386 31.6916 42.404 31.3858 42.2419 31.0219C41.768 34.1959 40.0282 36.7857 38.9855 39.66C37.744 43.0877 33.9127 44.5187 30.2862 42.9287C31.5827 42.7269 32.7324 42.6535 33.8301 42.3355C34.5885 42.1154 35.8146 41.8371 35.6801 40.9198C35.573 40.1768 34.3928 40.6629 33.6987 40.5987C32.6193 40.5039 31.5063 40.6691 30.4544 40.4611C27.3539 39.8496 24.5102 35.5688 24.9505 32.3215C24.9833 31.9968 25.0899 31.6839 25.2621 31.4067C25.4343 31.1296 25.6677 30.8954 25.9443 30.7223C27.4426 29.7499 28.9154 28.7388 30.3627 27.689C31.3045 27.0041 31.8915 26.0042 31.702 24.8178C31.5124 23.6314 31.1577 22.3716 29.638 22.2249C31.372 21.5767 33.225 21.3087 35.0716 21.439C35.1489 21.5037 35.207 21.5883 35.2398 21.6836C36.0072 24.5365 36.8542 24.9034 39.2148 23.4021C42.3398 25.4232 42.6058 28.6675 42.67 31.9974Z" fill="#FFCE58"/>
<path d="M72.8098 83.4131C75.256 84.1592 77.8551 83.9879 80.3502 84.5292C82.1206 84.9114 83.9216 85.1682 85.7073 85.4832C86.111 85.9296 85.9367 86.3791 85.7073 86.8286C84.1448 88.4889 82.0167 89.1005 80.0842 90.1126C79.2586 90.5437 78.271 90.6446 77.6013 91.3968C77.1763 92.2591 77.7695 92.3692 78.3382 92.3814C79.705 92.412 81.0718 92.4884 82.4325 92.2499C83.0441 92.1429 83.6954 91.9992 84.2672 92.4731C84.1724 92.8737 84.3864 92.8431 84.6983 92.8921C87.1842 93.2651 89.6824 93.6106 92.1194 94.2588C93.2446 94.5646 94.5472 94.7726 94.7949 96.2708C94.9386 97.1606 93.8592 97.9067 92.0001 98.2889C90.9946 98.545 89.9642 98.6906 88.9271 98.7231C83.255 98.6344 77.6135 99.2582 71.9292 99.0717C71.4352 99.1012 70.9411 99.0154 70.486 98.821C70.1496 98.5855 70.1466 98.2614 70.2261 97.9037C70.2811 97.659 70.5899 97.2921 70.1129 97.1882C69.8072 97.1148 69.5962 97.4114 69.4097 97.6468C69.2536 97.8792 69.0368 98.0643 68.7828 98.1819C67.7371 98.3073 67.6025 96.8732 66.5966 96.8701C66.0951 97.4817 67.2234 98.0932 66.6546 98.7415C64.9912 98.8699 63.3309 98.9922 61.7164 98.4082C61.1446 97.2401 61.8265 96.4971 62.6949 96.1088C64.4317 95.3352 65.3673 93.9989 65.8566 92.1949C65.9798 91.6303 66.2373 91.1038 66.6073 90.6599C66.9772 90.216 67.4486 89.8678 67.9817 89.6448C69.743 88.9201 70.1221 87.1221 70.8927 85.6361C71.0425 85.3486 70.5869 85.3058 70.4768 85.104C70.1894 84.6331 69.9631 84.1561 70.2658 83.6027C70.6215 83.3539 71.0613 83.256 71.4889 83.3305C71.926 83.3967 72.368 83.4243 72.8098 83.4131Z" fill="#C17536"/>
<path d="M110.05 78.2273C110.032 77.5852 109.83 77.1968 109.087 77.2244C108.225 77.2549 107.479 76.8422 106.782 76.3376C105.283 75.2552 105.296 74.5428 106.843 73.5245C106.887 73.5024 106.928 73.4747 106.965 73.442C107.491 72.8763 108.607 72.3901 108.314 71.6593C107.937 70.7206 106.898 71.3902 106.204 71.592C104.369 72.1271 103.03 71.4361 101.963 69.9653C101.681 69.577 101.223 69.1061 101.559 68.6169C101.895 68.1276 102.308 68.9227 102.834 68.6933C101.593 65.4613 99.5195 62.5779 98.6695 58.8597C100.018 59.4131 100.853 60.1928 101.932 60.9481C101.663 59.725 100.981 58.8964 100.403 58.0372C99.1281 56.1108 97.743 54.2578 96.7981 52.1235C96.4768 51.4422 96.2425 50.723 96.101 49.9831C95.8992 48.7294 96.2906 47.7846 97.6665 47.5369C99.8712 47.1302 101.791 45.9408 103.852 45.1335C104.228 45.1794 104.302 45.4699 104.348 45.7818C104.017 47.0752 103.094 48.2096 103.394 49.6651C102.978 51.4172 103.739 52.3345 105.363 52.0348C105.458 52.0162 105.555 52.0183 105.649 52.041C105.743 52.0637 105.831 52.1064 105.907 52.1663C107.103 58.2451 108.295 64.333 109.439 70.4485C109.772 72.2372 109.977 74.0535 110.185 75.8606C110.27 76.6404 110.518 77.4598 110.05 78.2273Z" fill="#052B4E"/>
<path d="M103.764 44.2619C102.696 44.4667 101.657 44.8367 100.556 44.8245C99.7703 43.3354 99.8161 41.672 99.8161 40.085C99.8161 33.6821 99.5348 27.2701 100.088 20.8764C100.156 20.1181 100.128 19.3261 100.877 18.8522C103.608 19.8215 105.216 22.1117 106.812 24.3561C108.408 26.6005 109.778 28.906 111.246 31.1932C111.64 31.7813 111.899 32.4492 112.004 33.149C112.11 33.8488 112.06 34.5634 111.857 35.2416C111.325 37.2903 111.014 39.4032 110.634 41.4885C110.603 41.7899 110.511 42.0818 110.364 42.347C110.218 42.6123 110.019 42.8454 109.781 43.0327C108.778 43.5617 107.766 43.4241 106.751 43.0632C106.609 43.0152 106.473 42.9516 106.344 42.8737C105.155 41.8463 105.036 40.2287 106.039 38.6723C106.277 38.7855 106.482 38.9109 106.21 39.2013C106.467 39.2013 106.424 38.9567 106.461 38.8069C106.72 37.755 107.405 37.0701 108.262 36.5014C108.687 36.2201 109.31 36.0855 109.277 35.3608C109.161 35.1346 108.971 34.9175 109.157 34.6423C109.219 34.5658 109.292 34.5016 109.353 34.4252C109.46 34.2967 109.448 34.2723 109.316 34.3181C107.833 34.8043 106.479 34.3732 105.155 33.7066C104.513 33.4589 104.238 32.8199 103.803 32.3551C102.966 30.9516 101.724 29.7713 101.565 27.9978C101.878 31.4231 102.941 34.7375 104.678 37.7061C104.87 38.7843 104.989 39.8744 105.033 40.9687C105.072 42.201 104.938 43.4699 103.764 44.2619Z" fill="#FFCE58"/>
<path d="M70.2998 98.3624C70.7126 98.7783 71.2355 98.6254 71.7125 98.6193C77.4305 98.5306 83.1484 98.4909 88.8633 98.2799C90.5022 98.2218 92.2085 98.0842 93.7343 97.2525C94.1226 97.0384 94.5996 96.8794 94.569 96.3076C94.5415 95.7909 94.1593 95.4973 93.7557 95.2986C92.5907 94.7268 91.3339 94.4883 90.068 94.2681C87.8481 93.8829 85.6343 93.4456 83.341 93.0206L84.2308 92.5466C84.9616 91.8311 85.882 92.0696 86.7321 92.0543C87.9552 92.036 89.163 91.9595 90.3708 92.1705C94.5599 92.6689 98.752 93.0665 102.978 92.9839C103.828 92.9655 104.773 92.7607 105.445 93.5954C106.106 95.9805 106.779 96.5033 109.271 96.5553C109.797 96.5553 110.338 96.3596 110.845 96.6715C110.878 96.6928 110.906 96.7209 110.926 96.754C110.947 96.787 110.96 96.8241 110.965 96.8628C110.97 96.9015 110.967 96.9408 110.955 96.978C110.943 97.0152 110.924 97.0494 110.897 97.0782C108.607 98.8272 105.892 99.344 103.189 99.8301C96.1407 101.108 89.0468 100.931 81.9406 100.543C76.8617 100.264 71.7798 100.011 66.6887 100.212C66.1505 100.234 65.6093 100.194 65.0711 100.182C63.6646 100.445 62.2427 100.234 60.8331 100.301C60.2705 99.454 60.4937 98.8486 61.6771 98.0139C63.3313 98.5887 65.0406 98.2493 66.7284 98.3869C67.5846 98.0077 68.4377 98.8792 69.2939 98.3869C69.6394 98.3166 69.9635 98.0903 70.2998 98.3624Z" fill="#B05F27"/>
<path d="M60.5148 100.142L65.1014 100.188C64.7684 100.268 64.4302 100.324 64.0893 100.356C50.3143 100.692 36.5698 101.784 22.7672 101.347C16.7098 101.157 10.6433 100.894 4.68991 99.5336C3.42564 99.294 2.21289 98.8356 1.10626 98.179C-0.226911 97.329 -0.379796 96.1487 0.78214 95.0479C1.99145 93.8643 3.47302 92.9959 5.09659 92.5192C5.79987 92.8249 5.3565 93.3172 5.25865 93.7025C4.66851 96.0355 5.25865 96.8825 7.5917 96.9896C8.96156 97.0538 10.3284 96.9651 11.6982 96.8978C12.6859 97.7142 13.5329 96.3872 14.496 96.6991C14.828 96.8098 15.1302 96.9949 15.3797 97.2403C17.0401 98.8823 19.049 98.9954 21.1894 98.7172C22.6999 98.5215 24.1585 97.965 25.7087 98.0537C27.8308 99.1789 29.9743 99.292 32.1299 98.1851C32.8027 98.4573 33.4417 98.1454 34.0961 98.0598C34.2441 98.0467 34.3931 98.0698 34.5303 98.127C36.9122 99.5581 39.3156 99.0841 41.7251 98.2279C42.1042 98.3074 42.3978 98.5796 42.7586 98.7019C45.957 99.2798 49.1156 99.3134 52.2376 98.1301C52.8717 97.8471 53.5663 97.7262 54.2587 97.7785C54.748 97.8641 54.7143 98.2616 54.5981 98.7202C55.2097 98.3289 55.2586 97.5155 55.9986 97.5553C57.4143 97.6286 58.8453 97.5552 60.2121 98.0323C60.7166 98.2218 60.6708 98.601 60.5179 99.0138C60.365 99.4266 60.1754 99.766 60.5148 100.142Z" fill="#B05F27"/>
<path d="M86.8756 46.9038C86.8228 47.2781 86.9083 47.6587 87.116 47.9745C87.3237 48.2903 87.6394 48.5195 88.0039 48.6192C89.1628 49.0503 90.2789 49.5946 91.4469 49.9891C92.8627 50.4661 93.1776 51.0409 92.5416 52.4566C91.5876 54.5756 90.5694 56.661 89.8233 58.8779C89.6113 59.6091 89.5265 60.3714 89.5725 61.1314C89.5725 61.373 89.5236 61.6696 89.8141 61.7888C90.1046 61.9081 90.2575 61.6604 90.4471 61.5136C91.2696 60.8776 91.6854 59.8686 92.5171 59.1714C91.3644 63.3574 92.0554 67.6811 91.4072 71.861C90.7956 75.7382 89.2148 76.9123 85.4385 76.9337C85.1327 76.9337 84.8484 76.9337 84.5518 76.9337C84.8636 72.6835 85.1745 68.4343 85.4844 64.1861C85.8921 58.7189 86.2998 53.2506 86.7075 47.7814C86.7447 47.4856 86.8009 47.1924 86.8756 46.9038Z" fill="#052B4E"/>
<path d="M96.6663 16.7699L99.3143 17.9349C99.7393 18.3355 99.6874 18.8522 99.6201 19.3537C99.2134 22.4787 99.1033 25.6281 98.7976 28.7592C98.657 29.2947 98.579 29.8447 98.5652 30.3982C98.4918 33.9054 96.9385 35.8348 93.523 36.6971C92.1837 37.0365 90.9025 37.0793 89.8904 35.8715C89.5844 35.2268 89.4286 34.5211 89.4348 33.8075C89.2605 29.4289 89.603 25.0655 89.7803 20.696C89.8415 20.0893 89.9582 19.4896 90.1289 18.9042C90.4867 18.0022 91.2419 17.6627 92.0828 17.4518C92.2335 17.4418 92.3842 17.4713 92.52 17.5374C93.7217 19.8949 94.425 19.9102 96.0364 17.6108C96.1979 17.2973 96.4108 17.013 96.6663 16.7699Z" fill="#FFCE58"/>
<path d="M72.8098 83.4131C72.5713 84.1348 72.1708 83.9268 71.7549 83.6058C71.2749 83.2174 71.0914 82.6273 70.7887 82.1166C70.6144 81.8109 70.4187 81.4348 70.009 81.6672C69.6695 81.8629 69.8775 82.1961 69.9814 82.4683C70.116 82.8322 70.4279 83.144 70.2658 83.5874C70.3117 84.1317 70.7214 84.5995 70.5716 85.1805L70.4126 85.3395C68.8837 85.7248 68.899 84.2815 68.3364 83.5049C67.7034 82.505 67.4955 82.5019 66.9879 83.4804C67.2142 84.2081 67.6148 84.8594 67.789 85.6025C67.9297 86.214 68.0428 86.8256 67.416 87.2322C66.7892 87.6389 66.3152 87.2322 65.9391 86.6971C65.7128 86.3241 65.5355 85.9235 65.3276 85.5382C65.2083 85.3181 65.1135 85.0857 65.0004 84.8594C64.8261 84.52 64.6029 84.2479 64.1932 84.468C64.0334 84.5468 63.9059 84.6786 63.8323 84.8408C63.7587 85.003 63.7436 85.1857 63.7895 85.3578C63.9118 86.0091 64.2696 86.5809 64.45 87.2078C64.6177 87.6245 64.6675 88.0794 64.5937 88.5226C64.537 88.705 64.4335 88.8693 64.2935 88.9991C64.1534 89.129 63.9818 89.2198 63.7957 89.2626C63.2942 89.2901 62.9854 88.9568 62.701 88.6051C62.2332 87.8377 61.9518 86.9601 61.4596 86.1742C61.0957 86.6451 61.111 86.8806 61.6338 89.9597C61.484 90.7119 61.0223 91.0146 60.2976 90.9351C59.2335 90.5162 59.2488 89.3818 58.8116 88.547C58.5455 88.2749 58.8972 87.6817 58.3315 87.5655C58.0257 87.749 57.7414 87.9386 57.827 88.3758C57.9135 88.706 58.0355 89.0259 58.1908 89.3298C58.4799 89.9158 58.6632 90.5483 58.7321 91.1981C58.7718 91.8555 58.5853 92.3998 57.9126 92.6169C57.2399 92.834 56.9463 92.3356 56.6712 91.8463C56.4726 91.444 56.3 91.0293 56.1544 90.6049C56.0137 90.2471 55.867 89.8925 55.7049 89.5439C55.4175 88.7611 55.0078 87.9967 55.2493 87.0977C55.3963 86.7565 55.619 86.4532 55.9006 86.2109C56.9953 85.3731 58.2948 84.9175 59.469 84.2234C59.9674 83.9176 60.5422 83.7372 60.8266 83.1593C59.42 81.233 57.4845 79.8998 55.7752 78.322C51.8522 74.7047 47.8557 71.1761 43.9388 67.5527C43.8318 67.4671 43.7278 67.3753 43.633 67.2867C42.3518 66.1614 41.0523 65.0576 39.872 63.8192C39.6772 63.5052 39.5453 63.1562 39.4837 62.7918C39.4545 62.5634 39.4746 62.3315 39.5427 62.1115C39.6107 61.8916 39.7251 61.6888 39.8781 61.5167C39.9991 61.375 40.1549 61.2671 40.3303 61.2039C40.5056 61.1406 40.6944 61.1241 40.878 61.1559C42.1466 62.1368 43.3348 63.2176 44.4311 64.3879C44.9203 65.5101 45.9783 66.0605 46.81 66.8158C52.0968 71.6134 57.4417 76.3437 62.7102 81.1473C63.5755 81.9362 64.239 82.135 65.2725 81.4684C66.514 80.6581 67.8655 80.0282 69.165 79.3127C70.2536 78.7012 71.0364 78.9397 71.5042 80.1658C71.9384 81.2697 72.3787 82.3399 72.8098 83.4131Z" fill="#543F3E"/>
<path d="M87.8083 44.8919L86.9399 44.5861C85.8177 43.1918 85.8146 41.5284 85.9094 39.865C85.9339 39.4644 86.1082 39.0638 85.726 38.7458C85.2734 38.0242 85.5792 37.2414 85.6587 36.5259C86.0195 33.3428 85.8666 30.1444 85.9645 27.2304C85.6189 29.0651 84.6435 30.9731 84.0381 33.0401C84.3805 33.3459 84.9554 32.823 85.1939 33.3734C85.3682 33.7892 85.1939 34.1684 85.0257 34.5384C84.0564 36.7828 82.601 37.1925 80.7847 35.6422C79.3903 34.4497 77.8248 33.4437 76.7638 31.8659C76.5986 31.3186 76.9289 30.9761 77.2408 30.6214C77.6306 30.2558 78.1126 30.0032 78.6351 29.8906C79.8184 29.7745 80.5431 30.597 81.2953 31.3186C81.9344 31.9302 82.3044 31.9302 82.6407 31.0128C83.2463 29.4523 83.7699 27.8611 84.2093 26.2458C84.6564 24.5813 85.2979 22.9751 86.1204 21.4605C86.5853 20.7602 87.2322 20.2 87.9917 19.8399C88.4381 19.5953 88.909 19.4393 89.2301 20.0631C89.4014 20.5439 89.464 21.0566 89.4136 21.5645C89.1078 25.9125 89.1475 30.282 88.6981 34.6179C87.368 35.4343 87.7807 36.4709 88.3495 37.538C88.5208 37.8515 88.6455 38.1884 88.7195 38.5379C88.9304 40.238 89.2454 41.932 89.0864 43.6535C89.0222 44.424 88.9519 45.2557 87.8083 44.8919Z" fill="#FFCE58"/>
<path d="M90.4804 92.5159L84.2579 92.5435C82.2337 92.7802 80.1951 92.8722 78.1578 92.8187C77.7083 92.7942 77.0967 93.0541 76.8949 92.3967C76.7237 91.8433 76.8215 91.2929 77.4147 90.9871C79.757 90.5376 82.1114 90.1156 84.1693 88.7611C84.8939 88.2871 85.796 87.9171 85.4443 86.7216C85.6642 86.348 85.7605 85.9147 85.7195 85.4832C86.114 83.728 85.9672 81.927 86.1507 80.1536C87.9578 80.9669 89.7832 81.2727 91.6546 80.3554C92.153 80.8538 91.9756 81.4592 91.9237 82.0494C91.783 83.5782 91.4528 85.1071 91.4986 86.6696C91.6637 88.0272 91.8309 89.3848 92.0001 90.7425C92.1255 91.9136 91.7647 92.6444 90.4804 92.5159Z" fill="#473838"/>
<path d="M16.1171 81.7772C17.4686 84.1561 19.5478 84.0033 21.7311 83.4834C22.1408 84.1592 21.676 84.7065 21.5017 85.3181C20.7893 86.9387 20.3857 88.6999 19.4103 90.2104C19.2482 90.3205 19.45 90.1768 19.3063 90.3144C18.7834 90.8067 17.6031 90.8678 17.7316 91.6781C17.8906 92.6933 19.077 92.4854 19.8322 92.5955C21.9023 92.9349 23.9235 93.5953 26.0425 93.6534C26.9751 94.8765 26.7182 95.6409 25.3208 95.9345C24.4035 96.1271 23.5045 95.5523 22.5903 95.8795C22.4261 95.924 22.2583 95.9537 22.0888 95.9681C20.2022 95.9987 18.3095 96.1852 16.4412 95.7205H15.9214H14.897C12.5365 95.6899 12.1451 95.1884 12.7413 92.7728C12.9646 91.8555 13.0288 90.8678 13.6862 90.1126L13.9522 89.5408C13.6464 88.5654 14.0439 87.7612 14.5638 86.9906C15.3649 85.3211 15.5973 83.5048 16.1171 81.7772Z" fill="#473838"/>
<path d="M110.919 96.7691C109.833 97.0045 108.709 97.0108 107.62 96.7875C106.018 96.5123 105.403 95.7723 105.314 94.0355C105.385 93.0051 104.99 91.9593 105.424 90.9472C105.48 90.5528 105.522 90.1553 105.556 89.7578C105.317 87.2015 104.532 84.7614 104.094 82.2449C103.997 81.6823 103.651 81.0922 104.152 80.5418C105.244 80.765 106.333 81.0463 107.452 80.8476C107.961 80.7676 108.445 80.5737 108.869 80.2804C109.292 79.9871 109.644 79.6019 109.898 79.1536C110.036 81.294 110.338 83.416 110.271 85.5412C110.201 88.2279 110.816 90.8883 112.06 93.2711C112.552 94.2557 112.772 95.2739 111.846 96.1759C111.519 96.3502 111.274 96.6407 110.919 96.7691Z" fill="#473838"/>
<path d="M108.286 17.3233L106.146 9.11637C106.253 8.50483 106.782 8.29384 107.207 7.98807C107.531 7.75568 107.879 7.48354 107.732 7.03711C107.558 6.4959 107.121 6.75886 106.748 6.80472C106.654 6.82396 106.557 6.82158 106.464 6.79773C106.372 6.77389 106.286 6.72922 106.213 6.66713C106.999 5.20248 107.781 4.94563 109.148 5.79568C110.812 6.82613 112.041 8.35193 113.255 9.86551C114.316 11.1834 115.254 12.6175 116.245 13.9782C115.676 15.8311 110.359 18.4975 108.644 17.782C108.473 17.6771 108.346 17.5143 108.286 17.3233Z" fill="#D9D9D9"/>
<path d="M36.3039 47.8792C37.0775 45.7174 37.527 43.3966 39.325 41.7637C40.0833 41.0757 40.7896 40.3297 41.8965 40.6415C42.5723 40.8342 42.3521 40.1156 42.6701 39.978C42.6752 43.1636 42.8794 46.3458 43.2817 49.5059C43.511 51.1815 42.9759 52.5942 41.5296 53.5513C40.9177 53.2024 40.2337 52.9991 39.5305 52.9572C38.8274 52.9153 38.124 53.0359 37.475 53.3097C36.252 53.0498 35.9462 52.0866 35.8269 50.992C35.7744 50.4483 35.7632 49.9014 35.7933 49.3561C35.8361 48.8118 35.778 48.2369 36.3039 47.8792Z" fill="#FFCE58"/>
<path d="M76.7974 31.7009C78.2651 32.9546 79.7389 34.2021 81.2036 35.4619C82.6682 36.7217 83.2828 36.633 84.353 35.043C84.6443 34.5425 84.9027 34.0236 85.1266 33.4897C84.5151 33.2022 84.3714 33.6425 84.1084 33.8168C83.9097 33.9483 83.7017 34.199 83.4969 33.9147C83.4535 33.8285 83.4286 33.7342 83.4239 33.6378C83.4191 33.5414 83.4346 33.4451 83.4694 33.3551C84.3561 30.8631 85.2612 28.3802 86.2947 25.5334C86.3344 30.2118 86.4629 34.4956 85.7321 38.7459C85.4485 39.2188 85.1339 39.6723 84.7903 40.1035C84.2216 40.7395 83.5305 41.1523 82.711 40.5591C79.9163 38.538 77.4609 36.1927 75.9688 32.9454C75.9963 32.3552 76.0635 31.7896 76.7974 31.7009Z" fill="#F0C251"/>
<path d="M13.6858 90.079C13.6858 91.3021 13.2699 92.4426 12.9611 93.5892C12.6308 94.8123 12.9366 95.3138 14.1566 95.2741C14.7896 95.2526 15.4225 95.2741 16.0585 95.3016C14.9211 96.5033 13.4962 97.0109 11.9092 97.1362C10.2336 97.6255 8.51208 97.4909 6.82422 97.3747C4.78166 97.2341 4.1273 95.962 4.76025 93.9011C4.89479 93.4608 5.41155 93.0908 5.08131 92.5313C7.86384 91.3877 10.8237 90.9137 13.6858 90.079Z" fill="#C17536"/>
<path d="M98.4305 28.964C98.5651 25.2734 98.932 21.6041 99.3295 17.9348C100.109 17.7789 100.586 18.158 100.892 18.8521C100.36 20.6868 100.43 22.5795 100.378 24.4355C100.183 31.2298 100.173 38.0302 100.571 44.8214C100.014 45.4024 99.3326 45.0905 98.6966 45.0935C97.9841 42.7911 98.0391 40.4122 98.0544 38.0394C97.819 35 98.4305 31.9973 98.4305 28.964Z" fill="#052B4E"/>
<path d="M44.5688 18.9164C44.1896 19.4424 43.8013 19.9561 43.4405 20.4942C42.4192 22.0231 41.1808 23.13 39.2269 22.9404C37.7653 21.7571 36.9091 20.2894 37.218 18.2957C37.2718 18.1041 37.254 17.8994 37.1679 17.7199C37.0818 17.5403 36.9333 17.3983 36.7501 17.3203C36.3649 17.0849 35.9918 16.8402 35.9888 16.3021C35.9904 16.1984 36.0154 16.0964 36.062 16.0037C36.1086 15.9111 36.1756 15.8301 36.2579 15.767C36.5636 15.6508 36.8358 15.9046 37.1354 15.9015C37.4228 15.8434 37.6705 15.663 37.9641 15.6263C38.2062 15.6366 38.4487 15.6161 38.6857 15.5652C39.5322 15.1818 40.2869 14.622 40.8995 13.9232C41.0331 13.717 41.2348 13.5642 41.4695 13.4916C41.7042 13.419 41.957 13.431 42.1837 13.5257C43.4313 14.5653 44.2079 16.0789 45.5289 17.0451C45.6237 17.7576 45.2078 18.207 44.7614 18.6351C44.6697 18.7299 44.4862 18.4945 44.425 18.7238C44.4658 18.7375 44.5013 18.7632 44.527 18.7977C44.5527 18.8321 44.5673 18.8735 44.5688 18.9164Z" fill="#FCD4A6"/>
<path d="M37.0898 10.9174C37.9368 9.73104 38.8297 8.57828 39.6155 7.35213C40.4014 6.12598 41.3493 5.97004 42.3675 6.81092C43.7373 7.95451 45.1408 8.39482 46.8623 7.8322C47.8255 7.52642 48.33 8.04012 48.3912 9.0828C48.4676 10.1958 48.6175 11.3027 48.7367 12.4157C48.3117 12.7215 47.8775 12.5289 47.4678 12.3943C44.7913 11.5545 41.9852 11.2044 39.1844 11.3608C38.4719 11.3883 37.6983 11.5198 37.0898 10.9174Z" fill="#F1C457"/>
<path d="M106.549 42.73H106.79C107.518 43.6901 108.824 43.1458 109.631 43.8919C109.26 45.5194 109.084 47.1855 109.108 48.8546C109.108 49.4937 109.175 50.1817 108.53 50.6036C107.497 50.7443 106.417 50.6434 105.491 51.2824C103.962 52.1998 103.289 51.738 103.198 49.7047C102.714 48.1758 103.256 46.9527 104.237 45.858C105.341 45.1088 106.157 44.0054 106.549 42.73Z" fill="#FCD4A6"/>
<path d="M88.9518 19.7787C87.9617 20.1973 87.0694 20.8168 86.3313 21.5981C83.4998 23.6345 80.6561 25.6496 77.4639 27.0714C76.754 26.9079 76.0655 26.6627 75.4122 26.3406C75.1308 25.9859 75.3326 25.8055 75.6384 25.6587L90.1749 16.7027C90.8934 16.137 91.6579 16.2501 92.4315 16.5467C92.8871 16.987 92.7189 17.3265 92.2602 17.6108L90.4256 18.6566C90.0739 19.2406 89.6459 19.6901 88.9518 19.7787Z" fill="#473838"/>
<path d="M37.0895 10.9174C40.453 10.9511 43.8165 10.6422 47.0852 11.8348C47.6356 12.0366 48.186 12.2292 48.7363 12.4249C51.2253 13.3422 53.54 14.5653 55.5153 16.4213C54.7937 16.9136 54.2005 16.3541 53.589 16.137C51.791 15.4949 50.1093 14.4919 48.1554 14.339C44.9019 13.2077 41.5476 12.8316 38.1321 12.8958C35.4964 13.0364 32.8484 12.7429 30.2218 13.1588C29.977 13.1886 29.7287 13.1687 29.4918 13.1004C29.2549 13.0321 29.0341 12.9168 28.8428 12.7612C31.4327 11.3792 34.2519 11.107 37.0895 10.9174Z" fill="#FACB19"/>
<path d="M48.336 13.9905C50.5957 14.1067 52.4792 15.394 54.5493 16.0911L55.5156 16.3969C55.8672 17.2959 54.9866 17.1522 54.69 17.2684C51.463 18.4973 48.0187 19.053 44.5689 18.9012L44.2631 18.8248C44.2203 18.6658 44.2784 18.5801 44.4374 18.5648C44.8636 18.1196 45.1981 17.5949 45.422 17.0207C45.4426 16.8114 45.5062 16.6086 45.6088 16.4249C45.7114 16.2413 45.8508 16.0808 46.0183 15.9535C46.9264 15.4827 48.336 15.6172 48.336 13.9905Z" fill="#FACB19"/>
<path d="M71.1923 30.7499C67.5088 33.0738 63.8263 35.3976 60.1448 37.7215C59.4996 38.1312 58.8544 38.3942 58.3621 37.5747C57.8698 36.7553 58.4783 36.2905 59.096 35.9083L70.3209 28.9336C71.0394 28.9947 71.2046 29.5788 71.4003 30.1353C71.4117 30.3591 71.3373 30.5789 71.1923 30.7499Z" fill="#473838"/>
<path d="M99.6202 7.25433C100.323 8.19917 100.232 9.24797 99.9901 10.3121C100.015 11.1071 99.5682 11.3853 98.8771 11.4006C98.527 11.2744 98.2218 11.0479 97.9996 10.7493C97.808 10.5233 97.6756 10.2533 97.6143 9.96348C97.7396 7.6549 97.1373 6.79874 94.5749 5.66432C94.3181 5.54201 94.0643 5.42276 93.8013 5.31574C92.8921 4.80656 91.8616 4.55397 90.82 4.58495C89.7315 4.65527 88.7805 4.91517 88.172 5.94563C88.0191 6.20248 87.8418 6.46544 87.484 6.42263C86.1448 5.22095 86.2334 4.28223 87.8326 3.52697C88.6832 3.18366 89.5543 2.89363 90.4409 2.65857C91.8077 1.87274 93.1317 2.51792 94.4159 2.87873C95.6856 3.28166 96.8755 3.90247 97.9323 4.71336C98.8282 5.36466 99.4612 6.12603 99.6202 7.25433Z" fill="#FFCE58"/>
<path d="M99.6204 7.25428C97.4433 3.84798 94.1624 2.78389 90.4473 2.66769C91.5205 0.154243 92.5602 -0.390024 95.1837 0.239868C96.4429 0.536146 97.6058 1.14863 98.5625 2.01946C100.183 3.48411 100.62 5.21478 99.6204 7.25428Z" fill="#F1C457"/>
<path d="M23.0973 49.09C22.6326 49.2429 22.18 49.4906 21.7091 49.09C21.2249 49.0609 20.7554 48.9128 20.342 48.659C19.9287 48.4051 19.5843 48.0532 19.3394 47.6345C17.6974 46.7814 18.5444 45.2587 18.4221 43.9989C18.3296 43.7759 18.3012 43.5316 18.3401 43.2933C18.379 43.0551 18.4836 42.8324 18.6422 42.6504C19.7308 42.2896 20.8499 42.3967 21.9629 42.4334C21.8895 43.2926 22.5745 43.4913 23.1096 43.7696C24.3327 44.3811 24.9962 45.2984 24.6201 46.7631C22.9995 47.0689 22.9995 47.0689 23.5621 48.7292C23.4979 48.9708 23.2961 49.0442 23.0973 49.09Z" fill="#FCD4A6"/>
<path d="M98.8004 11.214C99.4639 11.2935 99.6749 10.7309 99.9899 10.315C102.311 9.54143 104.2 7.98199 106.225 6.66717C106.494 6.55404 106.769 6.44702 107.035 6.32471C107.497 6.11678 107.952 6.15653 108.172 6.63048C108.304 6.85003 108.349 7.11112 108.297 7.36202C108.246 7.61292 108.102 7.83529 107.894 7.98505C107.335 8.38867 106.738 8.73725 106.157 9.11029L96.6783 14.8986L96.5163 14.7335C96.2726 14.1503 96.2477 13.4989 96.446 12.8988C96.9199 12.1099 97.6966 11.6757 98.3815 11.1223C98.4533 11.1003 98.5296 11.0972 98.603 11.1133C98.6763 11.1293 98.7443 11.164 98.8004 11.214Z" fill="#473838"/>
<path d="M71.1984 30.1598C70.8926 29.7531 70.6143 29.3434 70.3208 28.9367C70.5226 27.1449 71.5439 25.9982 72.9871 25.0748C73.721 24.6039 74.2316 24.662 74.7667 25.2766C74.73 25.7659 75.1123 25.934 75.4058 26.1695C76.1514 26.1518 76.8736 26.4299 77.4147 26.9431C77.4147 28.1876 78.3473 29.0529 78.6562 30.172L77.4331 30.8019C76.7787 30.5176 76.21 30.0711 75.4486 29.9825C74.8095 29.903 74.4334 29.4474 74.4334 28.741C74.4345 28.5415 74.4623 28.343 74.516 28.1509C74.5955 27.5791 74.2102 27.7962 73.984 27.8451C73.4213 28.0133 73.984 28.423 73.8464 28.6982C73.8452 28.9146 73.7838 29.1263 73.669 29.3098C73.2929 29.64 72.8653 29.9065 72.4031 30.0987C71.9995 30.117 71.6173 30.5237 71.1984 30.1598Z" fill="#FCD4A6"/>
<path d="M28.8429 12.752C31.9932 12.4535 35.1599 12.3656 38.3219 12.489C38.6032 12.966 38.3677 13.3452 38.1048 13.7121C37.0437 14.1524 36.0928 14.6875 36.1998 16.1155C36.1942 16.3105 36.2478 16.5026 36.3538 16.6664C36.4597 16.8302 36.6129 16.9579 36.793 17.0328C36.835 17.0657 36.8689 17.1077 36.8922 17.1556C36.9155 17.2036 36.9277 17.2562 36.9277 17.3095C36.9277 17.3628 36.9155 17.4154 36.8922 17.4634C36.8689 17.5113 36.835 17.5533 36.793 17.5862C34.1566 16.5932 31.6831 15.2122 29.4545 13.4889C29.216 13.3024 28.8246 13.2015 28.8429 12.752Z" fill="#FACB19"/>
<path d="M89.597 12.4708L89.2515 9.10734C89.3156 9.03335 89.3966 8.97585 89.4876 8.93966C89.5785 8.90348 89.6769 8.88967 89.7743 8.89941C90.1928 9.03289 90.6446 9.01667 91.0525 8.85354C91.3394 8.69554 91.6732 8.64461 91.9942 8.70983C92.1624 8.78933 92.2694 8.96057 92.4376 9.03701C92.5226 9.07112 92.6094 9.10072 92.6975 9.12569C92.6975 8.96363 92.5324 8.91775 92.4682 8.79239C92.4394 8.6557 92.4384 8.51462 92.4652 8.37753C92.4919 8.24043 92.546 8.11012 92.6241 7.99432C93.1317 7.48368 93.5415 6.81099 94.4007 6.89966C95.0428 7.32163 94.8899 8.12275 95.1773 8.69149C95.4586 9.38253 96.0946 9.89929 96.1436 10.7065C96.1787 11.027 96.1726 11.3508 96.1252 11.6697C95.3455 13.3362 94.2906 13.8652 92.8626 12.9845C91.7741 12.3118 90.6397 12.8928 89.597 12.4708Z" fill="#FCD4A6"/>
<path d="M18.7094 42.727L18.4036 43.9929C16.0186 41.8709 13.6397 39.7427 11.2424 37.6359C10.692 37.1497 10.3251 36.6055 10.8999 35.9817C11.4748 35.3579 12.0221 35.7126 12.5633 36.2049C14.3735 37.85 16.2143 39.4583 18.0428 41.0789C18.6054 41.4887 18.7155 42.0819 18.7094 42.727Z" fill="#55403F"/>
<path d="M89.5972 12.4708C90.8356 12.0214 91.9975 11.9327 93.2022 12.7399C94.248 13.4401 95.0705 13.0029 95.8166 11.5872C96.6208 11.6605 96.4129 12.3424 96.526 12.8347C96.526 15.073 96.1621 15.7029 94.459 16.3511C92.6702 16.4979 90.9273 16.1187 89.1783 15.8313C88.0561 14.544 89.2272 13.5747 89.5972 12.4708Z" fill="#473838"/>
<path d="M37.652 53.0192C39.1258 52.1478 40.4315 52.3251 41.5323 53.5451C41.1103 54.9028 41.2082 56.2971 41.2938 57.6731C41.1939 57.7766 41.0607 57.8415 40.9177 57.8565C40.4009 57.8076 40.0003 57.4285 39.5233 57.297C38.6947 56.875 37.7101 57.6027 36.9151 56.9239C36.6154 55.5113 36.7255 54.1812 37.652 53.0192Z" fill="#052B4E"/>
<path d="M87.4834 6.42563C88.7717 3.84287 90.9539 3.40255 94.03 5.10469C94.5529 5.46856 94.5987 5.93028 94.2991 6.46844C94.03 7.38576 93.1127 7.04023 92.6143 7.13196C91.0242 7.41939 89.3119 8.80455 87.7708 6.97603L87.4834 6.42563Z" fill="#473838"/>
<path d="M108.286 17.3233C108.549 17.4303 108.845 17.6749 109.078 17.6291C111.75 17.0175 114.34 16.195 116.257 13.9843C117.398 14.9016 117.126 15.6293 116.113 16.4794C114.253 18.0473 111.98 19.0472 109.567 19.3597C108.065 19.5615 108.656 18.048 108.286 17.3233Z" fill="#A5A4A5"/>
<path d="M16.6421 27.1661C16.85 30.6489 17.0916 34.1316 17.9294 37.5227C17.9997 37.8284 17.8377 39.7212 19.2534 38.4125C19.2776 38.3845 19.3096 38.3643 19.3453 38.3546C19.381 38.3448 19.4188 38.3459 19.4539 38.3577C19.489 38.3695 19.5198 38.3915 19.5423 38.4209C19.5649 38.4502 19.5782 38.4856 19.5806 38.5225C19.6692 39.8985 20.8526 39.8374 21.6751 40.244C20.9412 41.6108 19.4735 41.6506 18.1281 40.3419C17.1099 39.5071 16.9846 38.3054 16.8286 37.0976C16.4647 34.2478 16.0428 31.4041 16.0672 28.5207C16.0703 28.0101 15.8715 27.3496 16.6421 27.1661Z" fill="#FFCE58"/>
<path d="M39.2302 23.3869C38.7257 24.6467 37.7748 24.9953 36.6159 24.5672C35.1971 24.0443 34.7415 22.913 35.0717 21.4239L37.0379 18.1613C37.2916 20.1243 37.891 21.9345 39.1935 23.445L39.2302 23.3869Z" fill="#FCD4A6"/>
<path d="M74.7545 28.6613C74.7185 28.8074 74.7206 28.9603 74.7606 29.1053C74.8007 29.2504 74.8774 29.3826 74.9833 29.4895C75.0892 29.5963 75.2208 29.6742 75.3655 29.7155C75.5102 29.7568 75.663 29.7602 75.8094 29.7254C76.7879 29.5389 77.0325 30.2024 77.43 30.7987L76.7971 31.7007L75.9623 32.9422C75.3018 32.1074 74.6016 31.4745 73.403 31.7191C72.6233 31.8689 72.1799 31.3124 72.0331 30.5235C71.8986 30.1535 72.2411 30.0373 72.3878 29.8172C72.5318 29.6461 72.7116 29.5087 72.9145 29.4147C73.1174 29.3206 73.3384 29.2722 73.562 29.2729C73.9198 28.9763 74.1369 28.3861 74.7545 28.6613Z" fill="#FCD4A6"/>
<path d="M96.6664 16.7699C96.5043 18.2193 95.5595 19.0877 94.419 19.6717C93.2784 20.2557 92.673 19.4882 92.5415 17.6689C92.6888 17.4013 92.9327 17.2001 93.2234 17.1062C94.6941 16.8341 95.4953 15.4856 96.7275 14.8344L96.6908 14.9047C96.7795 15.5285 96.2903 16.1431 96.6664 16.7699Z" fill="#FCD4A6"/>
<path d="M40.9664 57.6946L41.2936 57.6702C42.4589 59.3339 43.4681 61.1016 44.3085 62.9509C44.5276 63.4046 44.5796 63.9211 44.4553 64.4094C43.0734 63.6844 41.8798 62.6468 40.9695 61.3792C40.9695 61.0306 41.1591 60.7218 41.1621 60.3732C41.4037 59.4589 40.4803 58.6272 40.9664 57.6946Z" fill="#052B4E"/>
<path d="M18.1286 40.3419C19.3272 40.9779 20.5197 41.2592 21.6755 40.244C22.3329 40.8953 22.3421 41.6322 21.9568 42.4272C20.9233 43.0969 19.8164 42.8523 18.7095 42.733C18.2019 42.3049 18.153 41.6842 18.0552 41.0849L18.1286 40.3419Z" fill="#052B4E"/>
<path d="M87.772 6.97611C89.2183 8.14722 90.7319 6.92106 92.2057 7.10453C92.3249 7.10453 92.4717 6.98222 92.5909 6.8966C92.8967 6.6795 93.1658 5.65822 93.5327 6.85685L94.022 6.33092C94.5173 6.30952 94.4714 6.58165 94.3277 6.91189L92.8447 8.13498C91.6216 8.8566 90.368 9.17766 89.0226 8.48968C88.3927 8.16556 87.775 7.84144 87.772 6.97611Z" fill="#473838"/>
<path d="M19.3399 47.6285L21.7096 49.084C20.9604 49.6956 20.0156 49.7934 19.1594 50.1145C18.8048 50.246 18.7681 49.9616 18.71 49.72C18.7761 48.9874 18.9904 48.2758 19.3399 47.6285Z" fill="#2D3133"/>
<path d="M103.198 49.7168C103.424 49.7657 103.827 49.5639 103.595 50.1602C103.457 50.5118 103.253 51.0775 103.882 51.2946C104.421 51.4872 104.934 51.6003 105.295 50.9705C105.769 50.839 105.922 51.1019 105.943 51.53C105.943 51.7349 105.943 51.9428 105.928 52.1416C104.625 53.0191 103.711 52.9244 102.999 51.2732C102.684 50.5485 102.76 50.1907 103.198 49.7168Z" fill="#1B4355"/>
<path d="M89.1777 15.8311C90.9237 15.3908 92.6054 16.0819 94.3208 16.1369C93.9753 17.1521 93.321 17.1826 92.5168 16.7332L90.1654 16.6904L89.1777 15.8311Z" fill="#473838"/>
<path d="M39.1929 23.4328C37.1351 22.2494 37.1534 20.1702 37.0372 18.149C37.077 17.9105 37.0922 17.6873 36.8018 17.5986V17.0452C36.976 17.2133 37.3093 17.3876 37.3032 17.5466C37.2176 19.632 38.1624 21.3076 39.2357 22.9374C39.2143 23.1025 39.2051 23.2676 39.1929 23.4328Z" fill="#FCD4A6"/>
<path d="M14.5517 86.9598C14.5031 87.8398 14.296 88.7037 13.9402 89.51C13.3776 89.2776 12.4113 89.302 12.4725 88.5376C12.5703 87.4063 13.7139 87.2931 14.5517 86.9598Z" fill="#C37838"/>
<path d="M105.943 51.5301L105.295 50.9706C106.31 50.2398 107.396 50.2 108.53 50.6159C107.766 51.2152 106.848 51.3558 105.943 51.5301Z" fill="#E9A07B"/>
<path d="M109.631 43.9042C108.579 43.7911 107.347 44.1427 106.791 42.7423C107.763 43.1031 108.784 42.9441 109.781 43.0267C109.744 43.3172 109.683 43.6107 109.631 43.9042Z" fill="#E79C76"/>
<path d="M89.0127 8.48652C90.2969 8.48652 91.5842 8.54157 92.8349 8.13489L92.5291 8.76173C92.4982 8.80481 92.4585 8.84076 92.4125 8.86715C92.3665 8.89354 92.3155 8.90976 92.2627 8.91469C92.2099 8.91962 92.1567 8.91315 92.1067 8.89573C92.0566 8.87831 92.0109 8.85033 91.9726 8.8137L91.0277 9.09807C90.6394 9.09807 90.248 9.36715 89.8627 9.09807H89.2512L89.0127 8.48652Z" fill="#FCD4A6"/>
<path d="M75.4058 26.1663C74.7759 26.1877 74.0726 26.2641 74.7667 25.2734C74.9979 25.5059 75.3077 25.6433 75.6351 25.6587L75.4058 26.1663Z" fill="#D39471"/>
<path d="M72.3879 29.8019L72.0333 30.5082L71.1924 30.7498C71.1924 30.5541 71.1924 30.3553 71.1924 30.1596L72.3879 29.8019Z" fill="#723F19"/>
<path d="M110.918 96.7692C110.992 96.589 111.12 96.436 111.284 96.3314C111.448 96.2268 111.641 96.1757 111.836 96.1852C111.751 96.388 111.626 96.5717 111.468 96.7251C111.31 96.8785 111.123 96.9985 110.918 97.0781C110.915 96.9741 110.915 96.8732 110.918 96.7692Z" fill="#BD7030"/>
<path d="M37.6518 53.0194C37.3766 54.3862 37.0403 55.7468 37.1198 57.1656C37.0923 57.4378 36.9088 57.5417 36.6795 57.5968C36.4082 57.6082 36.1377 57.5593 35.8876 57.4536C35.6375 57.3478 35.414 57.1878 35.2332 56.9852C33.5392 55.3188 31.6556 53.8725 29.9555 52.2152C29.4999 51.7687 28.9985 51.3437 28.812 50.6863C28.6132 49.5855 29.0963 49.1941 30.1237 49.2889C30.5643 49.3614 31.0154 49.3353 31.4446 49.2125C32.7962 49.1238 34.0712 48.711 35.3463 48.2952C35.9579 48.4052 35.9793 48.9556 36.1566 49.3959C36.2239 50.2827 35.9762 51.2153 36.3951 52.047C36.6458 52.5148 36.8874 53.1508 37.6518 53.0194Z" fill="#052B4E"/>
<path d="M29.0938 50.9492C31.0875 52.7502 33.0903 54.542 35.0656 56.3613C35.5915 56.8444 36.1052 57.297 36.8299 57.3979C36.8606 57.4591 36.8727 57.5279 36.8645 57.5959C36.8563 57.6639 36.8284 57.7279 36.784 57.7801C35.9982 58.0033 35.4906 58.7249 34.7292 59.0032C32.6561 57.4591 30.5646 55.9455 29.0908 53.7103L24.3483 49.4295C24.0822 49.1451 23.6236 49.1604 23.4126 48.7934C23.1405 48.1819 22.2629 47.7141 22.9142 46.8365C23.4554 46.1057 24.0364 46.5307 24.6143 46.757C25.3627 47.7152 26.2797 48.5286 27.3204 49.1573C28.1094 49.5196 28.7397 50.1565 29.0938 50.9492Z" fill="#543F3E"/>
<path d="M22.3762 33.4774C22.0429 30.2607 22.0429 30.2607 23.6176 30.2851L22.3762 33.4774Z" fill="#FFCE58"/>
<path d="M29.0938 50.9492C28.395 50.469 27.7933 49.8611 27.3203 49.1573L31.4452 49.194C31.319 49.3095 31.1654 49.3909 30.999 49.4304C30.8326 49.47 30.6589 49.4666 30.4942 49.4203C29.2834 49.2246 28.9409 49.8362 29.0938 50.9492Z" fill="#052B4E"/>
<path d="M36.157 49.3684L35.3467 48.2676C35.6525 48.1025 35.9062 47.8059 36.3037 47.8793L36.157 49.3684Z" fill="#E8E5DE"/>
<path d="M88.9518 19.7788C89.3065 19.2131 89.9027 18.9899 90.4226 18.6566C90.0048 23.6137 89.8497 28.5895 89.9578 33.563C89.9823 34.3703 90.0862 35.1775 90.1504 35.9878C91.0005 37.4249 90.5051 39.0088 90.6213 40.5285C90.4715 42.036 90.9944 43.6107 90.2238 45.0601C89.3615 45.8765 88.5971 45.2588 87.8174 44.8919C88.5359 44.9592 88.7347 44.6137 88.6797 43.9012C88.5482 41.9748 88.4809 40.0485 88.3892 38.1221C88.1293 37.1008 87.6064 36.0826 88.3892 35.0644C88.5747 29.9702 88.7622 24.875 88.9518 19.7788Z" fill="#052B4E"/>
<path d="M90.2148 45.0692C90.2148 43.577 90.2148 42.0848 90.2148 40.5927C90.7408 40.3694 91.1597 40.7027 91.6061 40.8801C93.9453 41.8127 95.1072 41.4519 96.7278 39.4185C97.1681 38.8681 97.3393 37.8407 98.4248 38.1373C98.3912 40.4673 98.8988 42.7728 98.6878 45.1059C95.8594 45.0692 93.0341 45.3749 90.2148 45.0692Z" fill="#FFCE58"/>
<path d="M32.9955 79.6704C32.2586 77.4138 32.9955 75.2459 33.4419 73.0872C33.886 70.9622 34.4402 68.8618 35.1023 66.7943C35.3714 65.9535 35.1726 65.5009 34.662 64.9322C32.6836 62.7429 30.7389 60.5168 28.785 58.3061C28.1184 56.7191 28.7636 55.2209 29.0908 53.7042L34.7262 58.9024C35.032 59.1439 34.7843 59.6301 35.139 59.8472C35.8545 61.5259 37.9246 61.8898 38.5789 63.6204C38.6282 64.0285 38.6086 64.442 38.5208 64.8435C38.2884 66.721 38.9764 67.4273 40.8569 67.357C41.869 67.3172 42.8444 66.6201 43.8871 67.1735L43.9972 67.2316C44.2016 67.6444 44.2452 68.1185 44.1195 68.5617C43.1105 72.2126 42.3919 75.9553 40.8263 79.4289C40.3707 80.4349 39.75 81.2391 38.7104 81.6335C37.6501 82.0092 36.5026 82.0645 35.4111 81.7925C34.2645 81.5204 33.3288 80.9516 32.9955 79.6704Z" fill="#052B4E"/>
<path d="M26.1369 71.2341C25.4428 73.1788 24.7181 75.4354 23.0486 77.1875C22.4737 77.7991 21.9631 77.5636 21.6634 76.8634C20.9809 75.3425 20.5909 73.7066 20.5137 72.0414C20.477 70.8672 20.9448 70.1364 22.275 70.1884C23.2962 70.2312 24.3328 70.3566 25.351 70.0233C26.1307 69.7725 26.1093 70.381 26.1369 71.2341Z" fill="#052B4E"/>
<path d="M23.4126 48.7934C23.6153 48.7891 23.8144 48.848 23.9821 48.9619C24.1498 49.0759 24.2778 49.2393 24.3483 49.4295C23.906 49.4516 23.4681 49.3327 23.0977 49.09L23.4126 48.7934Z" fill="#3A3737"/>
<path d="M60.5154 100.142C58.8581 99.5304 60.7692 98.9188 60.5307 98.3073C60.6255 96.7417 61.3532 95.644 62.7812 95.06C63.2709 94.8639 63.707 94.5543 64.0536 94.1567C64.4002 93.759 64.6474 93.2847 64.7748 92.7728C65.3191 90.9076 66.2272 89.3665 68.0986 88.5929C68.8141 88.2871 69.1504 87.5533 69.4378 86.8408C69.7039 86.1804 69.9791 85.5352 70.6151 85.1469L70.5937 85.1652C70.9453 85.0735 71.3397 84.6117 71.6394 85.0857C71.8748 85.4557 71.3642 85.6544 71.2022 85.9419C70.8975 86.4026 70.6452 86.8959 70.4499 87.4126C70.2996 87.9694 70.0215 88.4834 69.6377 88.9139C69.254 89.3444 68.7751 89.6794 68.2392 89.8924C67.0589 90.3695 66.4566 91.244 66.1477 92.4334C65.683 94.2375 64.8054 95.6715 62.9707 96.2892C62.1819 96.5552 61.8363 97.2065 61.7049 98.0046L60.5154 100.142Z" fill="#955525"/>
<path d="M85.4319 86.7214C86.707 87.5654 85.7163 88.2503 85.1414 88.5958C83.0255 89.8587 80.8973 91.1857 78.286 90.9961C77.9802 90.9747 77.6989 90.9961 77.4023 90.9961C79.2951 90.0788 81.1909 89.1615 83.0805 88.2442C83.9428 87.8695 84.7373 87.3549 85.4319 86.7214Z" fill="#473838"/>
<path d="M75.0266 89.1218C75.9439 88.4888 76.1488 89.2196 75.9042 89.7853C75.525 90.672 74.7331 91.4028 73.7148 91.2316C72.6966 91.0604 71.6264 90.5987 71.3115 89.3175C71.2779 89.1953 71.2848 89.0655 71.3311 88.9476C71.3774 88.8297 71.4606 88.7299 71.5683 88.6631C71.9016 88.4399 72.2043 88.6264 72.5254 88.7793C73.2531 89.1279 73.3173 90.1859 74.1704 90.3816C74.4151 89.9321 74.9777 89.7119 75.0266 89.1218Z" fill="#3D7254"/>
<path d="M69.4527 98.6497C68.4743 99.4049 67.6181 98.6925 66.7436 98.3928C66.5887 98.2647 66.4537 98.1142 66.343 97.9464C66.1259 97.4633 65.6306 96.8854 66.1779 96.442C66.7894 95.9528 67.2175 96.6224 67.6823 96.9588C68.1471 97.2951 68.1257 98.0412 68.8289 98.0228C68.9917 98.1017 69.1379 98.2106 69.2601 98.3439C69.3458 98.4306 69.4115 98.5349 69.4527 98.6497Z" fill="#457052"/>
<path d="M77.1216 87.2352C75.923 87.5409 74.9995 87.0425 74.2932 86.1099C74.0119 85.7399 73.6817 85.1926 74.2076 84.7615C74.6571 84.3792 75.0026 84.8165 75.3787 85.0367C75.9688 85.3822 76.03 86.3117 76.8311 86.4096C77.0149 86.5368 77.1489 86.7237 77.2103 86.9386C77.2232 86.9914 77.2218 87.0468 77.2062 87.0989C77.1907 87.151 77.1614 87.1981 77.1216 87.2352Z" fill="#417153"/>
<path d="M70.8896 95.005C70.497 94.994 70.1129 94.8878 69.7705 94.6955C69.428 94.5033 69.1373 94.2307 68.9235 93.9012C68.7003 93.5404 68.4006 93.1001 68.8195 92.6781C69.2385 92.2561 69.639 92.4702 70.0059 92.7454C70.4371 93.0756 70.8407 93.4425 70.8621 94.0632C70.9905 94.3782 71.2168 94.684 70.8896 95.005Z" fill="#437153"/>
<path d="M71.4587 94.2802C71.5344 93.8847 71.73 93.5221 72.0188 93.2415C72.3076 92.9609 72.6757 92.7759 73.0732 92.7116C73.4126 92.6504 73.5777 93.0173 73.5257 93.3476C73.3789 94.2649 72.7521 94.7205 71.9357 94.9498C71.7907 94.9795 71.6434 94.9969 71.4954 95.0018C71.405 94.9053 71.3517 94.7798 71.345 94.6477C71.3382 94.5156 71.3785 94.3854 71.4587 94.2802Z" fill="#437253"/>
<path d="M77.1217 87.2352C77.1217 87.1588 77.1217 87.0823 77.1217 87.0089C76.8679 86.59 77.5865 86.2231 77.1767 85.7858C77.5375 85.2293 78.0665 84.5628 78.6444 85.1254C79.3294 85.8042 78.5344 86.3668 78.0329 86.8071C77.7521 86.9944 77.445 87.1387 77.1217 87.2352Z" fill="#427153"/>
<path d="M69.4523 98.6497L69.1067 98.6222C68.8744 98.2002 69.5715 97.8425 69.1801 97.3991C69.4859 96.8243 70.021 96.2953 70.5653 96.6744C71.3633 97.2279 70.5316 97.8027 70.3023 98.3501L69.4523 98.6497Z" fill="#427152"/>
<path d="M75.0271 89.1218C75.6967 90.2287 74.547 90.0391 74.1709 90.3816C74.1954 89.7731 74.5806 89.4245 75.0271 89.1218Z" fill="#417254"/>
<path d="M69.1802 97.4114C70.8008 97.922 68.7797 98.1942 69.1069 98.6345C68.8622 98.5091 68.8347 98.2798 68.8286 98.0229L69.1802 97.4114Z" fill="#428465"/>
<path d="M77.1732 85.7981C78.8305 86.2843 76.7726 86.587 77.1181 87.0212C77.0155 86.9588 76.9334 86.8675 76.8823 86.7587C76.8312 86.6499 76.8132 86.5285 76.8307 86.4096L77.1732 85.7981Z" fill="#418465"/>
<path d="M71.4587 94.2801L71.4954 95.0017C71.4676 95.0593 71.4242 95.1078 71.3702 95.1418C71.3161 95.1758 71.2535 95.1938 71.1896 95.1938C71.1257 95.1938 71.0631 95.1758 71.009 95.1418C70.955 95.1078 70.9116 95.0593 70.8838 95.0017C71 94.6959 70.578 94.3902 70.8594 94.063L71.4587 94.2801Z" fill="#458161"/>
<path d="M104.484 32.4518C104.456 34.1641 104.9 35.855 104.695 37.5735C102.555 34.6992 101.753 31.406 101.827 27.8254C102.374 29.5836 103.726 30.8373 104.484 32.4518Z" fill="#F0C251"/>
<path d="M106.148 38.6938C106.2 37.8927 106.148 37.0854 106.411 36.3027C106.849 35.0368 105.836 34.3916 105.265 33.5507C106.91 33.9788 108.539 34.6362 110.295 33.5201C110.243 34.6056 109.649 34.624 109.148 34.7585C109.102 34.8686 108.842 34.9328 108.98 35.049C109.029 35.0988 109.088 35.1384 109.153 35.1654C109.218 35.1924 109.287 35.2063 109.357 35.2063C109.428 35.2063 109.497 35.1924 109.562 35.1654C109.627 35.1384 109.686 35.0988 109.735 35.049C110.295 35.7951 109.53 36.1314 109.197 36.2966C107.842 36.9693 106.913 37.9966 106.292 39.7946L106.148 38.6938Z" fill="#F0C251"/>
<path d="M109.84 35.1576C109.363 35.6652 108.831 35.4205 108.244 35.4114C108.461 34.7478 108.895 34.8915 109.253 34.8579C109.312 34.9587 109.398 35.0405 109.502 35.0936C109.606 35.1467 109.724 35.1689 109.84 35.1576Z" fill="#F1C457"/>
<path d="M91.0523 86.7368C94.003 87.5593 97.0546 87.8376 100.036 88.495C101.036 89.1983 102.277 89.0668 103.357 89.5041C104.259 89.871 105.237 90.1003 105.852 90.9809C105.265 91.9258 105.931 93.1213 105.314 94.0387C105.112 93.1213 104.396 93.4271 103.867 93.4455C99.5864 93.6259 95.3576 93.0877 91.1104 92.7972C90.8801 92.7337 90.6627 92.6302 90.4683 92.4915C91.6455 92.1521 91.7861 91.3998 91.5018 90.2532C91.2174 89.1066 91.1899 87.9202 91.0523 86.7368Z" fill="#C17536"/>
<path d="M61.2947 83.3916C59.7658 84.7768 57.7966 85.3883 56.0813 86.4494C54.9682 86.5961 54.0693 87.2016 53.2498 87.9262C52.5402 88.6189 51.7362 89.2077 50.8617 89.6753C50.6416 89.7792 50.3511 89.9015 50.2808 90.1186C49.4613 92.7269 46.5442 93.3751 45.3884 95.7907C44.7768 97.075 43.144 97.6529 41.8231 98.3164C39.9884 99.2337 38.1263 100.053 36.0287 99.1634C35.3101 98.8576 34.5702 98.6008 33.8394 98.3195C34.3316 96.5674 35.5975 95.6103 37.16 95.0569C38.1477 94.7083 39.1292 94.3872 39.9518 93.7145C40.441 93.314 41.0189 92.9256 40.8691 92.1153C41.1932 91.412 41.7619 91.7453 42.2573 91.7606C42.8321 91.782 43.4804 91.9227 43.3948 90.9412C43.3824 90.7315 43.4201 90.5218 43.5048 90.3296C43.5568 90.244 43.6088 90.1309 43.6944 90.1034C46.0336 89.3848 47.859 87.9079 49.3206 85.8776C47.8271 88.0793 45.5562 89.6347 42.9636 90.2318C42.0188 90.0881 41.0801 89.9443 40.5664 88.9475C41.5265 87.4003 42.7801 86.2384 44.5842 85.7033C43.3397 85.9693 42.4255 86.6818 41.6029 87.5593C41.132 88.0577 40.7254 88.654 39.9915 88.7824C38.7683 88.5602 37.6293 88.0071 36.6983 87.1832C36.524 86.5992 37.5545 86.1528 36.8787 85.5076C36.8268 85.1195 36.9052 84.7251 37.1017 84.3864C37.2982 84.0477 37.6016 83.7839 37.9642 83.6363C38.5872 83.4853 39.2295 83.4296 39.8692 83.4711C46.5962 83.4467 53.3232 83.621 60.0502 83.0553C60.515 83.0339 60.9522 83.0033 61.2947 83.3916Z" fill="#C17536"/>
<path d="M56.3713 90.3816C56.5854 90.828 56.7872 91.2806 57.0165 91.7209C57.2183 92.1031 57.3498 92.6138 57.9767 92.3324C58.4934 92.0909 58.5393 91.6597 58.4231 91.195C58.2518 90.5131 58.0347 89.8434 57.836 89.1707C57.8819 88.3819 58.3619 88.1984 59.0224 88.2534C59.5697 88.9934 59.5697 90.0239 60.2455 90.6996C61.1628 91.9227 60.1874 92.629 59.5086 93.3445C59.0316 93.8491 58.3405 94.1029 57.7076 94.3719C57.1642 94.5688 56.68 94.901 56.3007 95.337C55.9213 95.7731 55.6594 96.2986 55.5396 96.864C55.4265 97.3624 55.3531 98.0106 54.607 98.0198C52.9467 98.4295 51.2833 98.8301 49.626 99.2429C47.1798 99.8544 44.8101 99.4325 42.4312 98.8974C42.3547 97.9067 43.1895 97.6559 43.7705 97.2707C44.911 96.5154 45.9567 95.7112 46.501 94.3628C46.7395 93.7788 47.2532 93.4454 47.7577 93.106C48.7912 92.4119 49.5312 91.4488 50.3446 90.4978C51.67 89.0197 53.2441 87.7851 54.9954 86.8499C55.0895 86.8146 55.1923 86.8091 55.2897 86.8343C55.3871 86.8595 55.4744 86.914 55.5396 86.9906C55.3378 87.8865 55.8271 88.6295 56.0503 89.4368C55.6754 91.072 54.6684 92.4924 53.2494 93.3874C52.5247 93.8552 51.8643 94.3658 51.4729 95.1731C50.8824 96.4094 49.8834 97.4041 48.6445 97.9892C48.8315 97.9718 49.0132 97.9175 49.1791 97.8293C49.345 97.7411 49.4917 97.6209 49.6107 97.4755C51.32 95.063 53.8457 93.4485 55.5396 91.0237C55.7384 90.7394 55.8271 90.2379 56.3713 90.3816Z" fill="#C17536"/>
<path d="M70.6053 85.162C69.792 87.1312 68.9419 88.9842 66.7954 89.9076C65.502 90.461 65.5387 92.1122 64.9914 93.2711C64.71 93.8826 64.5449 94.6226 63.9212 94.8489C62.2302 95.4604 61.1692 96.6468 60.521 98.3194C58.9523 98.0136 57.3195 98.2338 55.7754 97.7079C55.4023 96.2982 56.0536 95.3351 57.185 94.7663C58.8453 93.9285 60.3283 93.0448 61.105 91.1215C61.5361 90.0513 62.6705 89.4948 63.7621 89.0973L64.4287 88.5561C64.6244 88.0515 64.5847 87.4675 64.8996 87.0089C65.2146 86.5502 65.4347 85.9906 66.1227 86.3973C66.3704 86.8315 66.5844 87.3574 67.2296 87.0089C67.8748 86.6603 67.6822 86.1925 67.4834 85.7063C67.1776 84.9204 66.8321 84.1377 66.5049 83.3549C67.1929 82.7739 67.8901 82.8167 68.5903 83.3335C69.2783 83.9389 69.0948 85.5473 70.6053 85.162Z" fill="#C17536"/>
<path d="M16.3337 95.2984C18.2937 95.7082 20.2782 95.54 22.2565 95.5675C21.9507 96.7142 20.7613 96.4084 20.1681 96.9221C21.188 96.5892 22.1814 96.1804 23.1402 95.699C22.9476 95.7479 22.7091 95.7999 22.5531 95.5247C23.3665 94.8765 24.1401 95.696 24.9657 95.6012C26.4303 95.433 26.6474 95.0661 25.831 93.7451C25.7952 93.6809 25.779 93.6075 25.7844 93.5341C25.7898 93.4608 25.8167 93.3906 25.8616 93.3323C27.5892 92.7667 28.9805 91.4977 30.6806 90.8647C31.9617 91.3081 33.3622 91.1705 34.6158 91.7454C34.9919 92.1092 34.7106 92.3753 34.4783 92.6352C34.3225 92.8288 34.1077 92.9662 33.8667 93.0266C30.6133 93.5984 28.3934 95.8121 26.2224 98.1024C26.1119 98.1978 25.9857 98.2734 25.8493 98.3256C24.1584 98.6314 22.4858 98.9769 20.7827 99.2246C18.2203 99.5976 16.034 98.8026 14.2881 96.809C14.6489 95.8458 15.9484 96.2402 16.3337 95.2984Z" fill="#C17536"/>
<path d="M25.834 98.3194C25.834 98.2216 25.834 98.1207 25.834 98.0137C26.9157 97.6308 27.8403 96.9008 28.4636 95.9375C29.0986 94.9789 30.0533 94.2767 31.1575 93.9561C32.8423 93.4699 34.521 92.892 35.8327 91.6138C37.3891 91.3081 38.8905 91.7881 40.4193 91.9533C41.089 92.418 40.5936 92.8278 40.3245 93.1763C39.7175 94.0342 38.8108 94.6332 37.7836 94.855C36.5024 95.1027 35.5851 95.7724 34.7259 96.7294C34.0898 97.4419 33.5303 98.3745 32.3806 98.3225C30.1912 99.6434 28.008 99.94 25.834 98.3194Z" fill="#C17536"/>
<path d="M55.5277 87.015C54.6104 87.2106 54.0692 88.0118 53.32 88.4246C50.9319 89.7455 49.8862 92.5984 47.4033 93.7756C47.3605 93.797 47.2963 93.8215 47.2841 93.8612C46.431 96.3349 44.0398 97.2247 42.4192 98.9217C42.0248 98.9217 41.8474 98.7046 41.8291 98.3102C42.2786 97.5335 43.0522 97.1391 43.7646 96.7385C44.7932 96.2109 45.5975 95.3306 46.0304 94.2587C46.2774 93.6597 46.7279 93.167 47.3024 92.8674C48.3512 92.2559 49.5223 91.7269 49.6844 90.2256C49.7136 90.1038 49.7697 89.9901 49.8485 89.8927C49.9274 89.7954 50.0269 89.7169 50.14 89.663C51.834 89.0086 52.9623 87.5225 54.4544 86.5624C55.066 86.171 55.5247 86.2566 56.0812 86.4432L55.5277 87.015Z" fill="#955525"/>
<path d="M63.7589 89.1004C63.6304 89.712 63.0801 89.7945 62.6673 90.0177C62.0894 90.348 61.4625 90.7638 61.2943 91.354C60.747 93.3017 59.3221 94.219 57.674 94.8581C56.3439 95.3718 56.0381 96.4909 55.7721 97.6957C55.3134 98.3837 55.133 99.4447 53.9374 99.1573C53.9191 98.5947 54.4848 98.4448 54.604 98.0106C55.2462 95.4727 56.9401 94.06 59.2243 93.0969C59.6628 92.895 60.0101 92.5367 60.1985 92.0922C60.3868 91.6477 60.4025 91.149 60.2425 90.6935C60.8938 90.6935 61.4044 90.5222 61.4656 89.7272C61.7713 89.0607 62.3829 88.8099 62.9791 88.5042L63.7589 89.1004Z" fill="#955525"/>
<path d="M32.3838 98.347C33.3919 97.7078 34.28 96.8964 35.0073 95.9498C35.4877 95.3069 36.2015 94.8785 36.9948 94.7573C38.6001 94.4515 39.7651 93.5586 40.6641 92.2255C40.679 92.2019 40.6987 92.1819 40.722 92.1666C40.7452 92.1513 40.7715 92.1411 40.799 92.1368C40.8265 92.1325 40.8546 92.134 40.8814 92.1414C40.9082 92.1488 40.9332 92.1618 40.9546 92.1796C41.7588 92.3478 41.4285 92.7117 41.1197 93.0969C40.3186 94.106 39.2851 94.9163 38.0987 95.1242C36.0989 95.4758 35.0195 96.913 33.8454 98.3134C33.3561 98.3837 32.8822 99.3041 32.3838 98.347Z" fill="#965625"/>
<path d="M16.3337 95.2984C16.7343 96.0078 16.0555 96.0078 15.7436 96.1759C15.2652 96.4117 14.7742 96.6209 14.2728 96.8028C13.753 97.0657 13.2362 97.3409 12.7103 97.5886C12.2608 97.7965 11.955 97.6803 11.9092 97.1238L16.0585 95.2892C16.1502 95.2953 16.242 95.2953 16.3337 95.2984Z" fill="#9A5926"/>
<path d="M87.1443 69.8154C86.227 69.2038 86.0863 68.0603 85.7683 67.039C85.6613 66.6904 85.805 66.1706 86.2301 66.3235C87.2911 66.7057 88.5876 66.3235 89.4315 67.2866C89.6608 67.5435 87.7069 69.7787 87.1443 69.8154Z" fill="#052B4E"/>
<path d="M98.4306 38.2032C97.871 38.2032 97.7548 38.7536 97.4888 39.0838C94.8592 42.3709 93.8929 42.588 90.2206 40.6585C90.1982 39.1276 90.1757 37.5988 90.1533 36.0719C93.312 37.6222 96.3452 35.2341 97.8802 33.4454C98.3603 32.8858 98.1004 32.1886 98.186 31.5557C98.2838 30.7209 97.9505 29.8403 98.4367 29.0483C98.4326 32.0979 98.4306 35.1495 98.4306 38.2032Z" fill="#F0C251"/>
<path d="M92.517 16.7455C93.1714 16.7088 93.8288 16.6966 94.3211 16.1492C95.8224 15.5377 96.4798 14.3941 96.3911 12.7613C96.4206 12.7376 96.4547 12.7201 96.4911 12.71C96.5276 12.6999 96.5658 12.6974 96.6033 12.7025C96.6408 12.7077 96.6768 12.7204 96.7092 12.74C96.7416 12.7596 96.7697 12.7855 96.7917 12.8163L96.7275 14.8344C95.6787 16.3235 94.3272 17.3326 92.5415 17.6689L92.251 17.6108C92.41 17.3448 92.6026 17.091 92.517 16.7455Z" fill="#FCD4A6"/>
<path d="M43.8864 67.1613C42.7153 67.2072 41.6543 67.8249 40.4556 67.7729C38.4589 67.7056 37.6823 66.7669 38.0951 64.7885C38.1868 64.3513 38.2327 63.9049 38.2969 63.4584C38.5851 63.3517 38.8966 63.3237 39.1992 63.3775C39.5018 63.4312 39.7846 63.5647 40.0184 63.7642C41.4647 64.709 42.6175 66.0055 43.8864 67.1613Z" fill="#052B4E"/>
<path d="M56.3718 90.3816C55.4789 91.9533 54.5372 93.4393 52.8157 94.2496C52.3417 94.4667 52.0237 95.1272 51.7118 95.6348C50.9596 96.8579 50.0331 97.8761 48.7214 98.4662C48.4431 98.5916 48.1801 99.1359 47.8835 98.665C47.5869 98.1941 48.0089 97.9403 48.3575 97.7171C48.969 97.3165 49.9078 97.0536 50.1707 96.4756C51.5008 93.5494 54.8735 92.4823 56.0385 89.4429C56.1516 89.7639 56.2617 90.0728 56.3718 90.3816Z" fill="#955525"/>
<path d="M40.0275 63.7702C39.4312 63.816 38.8319 63.8741 38.3059 63.4644C37.0829 62.2902 35.4898 61.4769 34.7192 59.8165C35.9423 58.7647 36.4407 60.1223 37.2143 60.5902C37.4712 60.6421 37.9513 61.3546 37.8473 60.3486C37.8259 60.1407 38.0032 59.9939 38.1836 59.893C39.4067 59.6392 40.5381 59.7829 41.4768 60.7278C41.4475 60.8679 41.3858 60.9993 41.2966 61.1113C41.2074 61.2233 41.0932 61.313 40.9631 61.3729C40.6145 61.2812 40.3516 61.5166 40.0855 61.6542C39.7798 61.7399 39.2936 61.483 39.1682 61.8866C39.0429 62.2902 39.5107 62.5532 39.7431 62.862C39.8715 63.1495 40.0978 63.4155 40.0275 63.7702Z" fill="#FCD4A6"/>
<path d="M62.9609 88.5134C62.7805 89.3513 61.9916 89.3879 61.4473 89.7365C61.1416 88.8895 60.8756 88.0211 60.5056 87.2047C60.1356 86.3883 60.6646 86.1315 61.1813 85.8287C61.8877 85.4129 61.8632 86.1345 62.0314 86.4586C62.3769 87.1252 62.6552 87.8285 62.9609 88.5134Z" fill="#BF7436"/>
<path d="M64.141 87.2658C64.0065 86.9386 63.8903 86.6023 63.7374 86.2873C63.2543 85.3089 62.9455 84.2937 64.349 83.9451C65.5109 83.6577 65.2663 84.8991 65.5873 85.4923C65.2632 86.217 65.1012 87.0762 64.141 87.2658Z" fill="#BE7436"/>
<path d="M64.1416 87.2658C64.7134 86.7551 64.8571 85.8776 65.5757 85.4923L66.1261 86.4096C64.9213 86.5931 65.1323 87.963 64.426 88.55L64.1416 87.2658Z" fill="#955627"/>
<path d="M39.722 62.8681C39.1288 62.8987 38.6548 62.7428 38.5998 62.0273C38.5753 61.7398 38.4989 61.3056 38.7893 61.2292C39.0233 61.1748 39.2677 61.1863 39.4955 61.2624C39.7232 61.3385 39.9255 61.4763 40.0797 61.6603L39.722 62.8681Z" fill="#FCD4A6"/>
<path d="M59.0224 88.2595L57.836 89.1768C57.5303 88.9475 57.5578 88.602 57.5303 88.2595C57.6556 87.755 58.1663 87.6235 58.4476 87.2596C59.0377 87.3422 58.9215 87.8773 59.0224 88.2595Z" fill="#955627"/>
<path d="M58.4418 87.2659C58.3716 87.4896 58.253 87.6951 58.0945 87.8679C57.936 88.0407 57.7414 88.1765 57.5245 88.2658C57.1515 87.2659 58.0688 87.5197 58.4418 87.2659Z" fill="#B36E37"/>
<path d="M88.3862 35.0673C88.3862 36.0865 88.3862 37.1058 88.3862 38.125C87.7594 37.5135 87.5423 36.6604 87.3222 35.847C87.0011 34.6729 87.5423 34.6148 88.3862 35.0673Z" fill="#F1C457"/>
<path d="M21.1223 85.1438C23.9385 84.8839 26.7546 84.6148 29.5708 84.3702C30.3016 84.306 31.0354 84.309 31.7662 84.2815C32.3319 85.2661 31.9558 86.1467 31.4788 87.012C30.7439 87.0058 30.021 87.1992 29.3873 87.5716C27.8737 88.4064 26.3938 89.3206 24.7151 89.8037C23.6755 90.1095 23.3422 91.4029 22.2934 91.7209C21.1253 91.5038 20.0307 91.1461 19.3213 90.0606L21.1223 85.1438Z" fill="#C17536"/>
<path d="M19.3214 90.0636L22.266 91.5925C22.3864 91.5355 22.5189 91.5085 22.652 91.5139C22.7851 91.5192 22.9149 91.5566 23.0304 91.623C23.9172 92.0695 24.7336 92.6413 25.5897 93.1519C25.6901 93.2453 25.7621 93.365 25.7977 93.4974C25.8044 93.5775 25.8156 93.6571 25.8313 93.7359C24.4951 94.4575 23.2812 93.5249 22.0122 93.3965C20.6982 93.2276 19.3961 92.9764 18.1136 92.6443C17.6611 92.5404 17.0587 92.4945 16.9914 91.834C16.9333 91.2225 17.3828 90.9167 17.8262 90.6965C18.2695 90.4764 18.8199 90.2715 19.3214 90.0636Z" fill="#473838"/>
<path d="M22.5525 95.5216C22.7177 95.6561 23.5432 95.4146 22.9011 96.017C21.8707 96.9801 20.4549 97.0535 19.1523 97.4908C19.8556 96.2983 21.3356 96.3869 22.2559 95.5705L22.5525 95.5216Z" fill="#975726"/>
<path d="M106.772 91.5466C106.524 90.3785 106.846 89.6049 108.497 89.7517C110.148 89.8985 110.885 90.5865 110.921 92.5618C110.943 93.6931 109.747 94.5952 108.191 94.6227C107.127 94.6288 106.772 93.9225 106.772 91.5466Z" fill="#473838"/>
<path d="M105.851 90.9809C103.964 90.0818 101.995 89.3651 99.9715 88.8405C99.2223 88.6326 99.9011 88.5867 100.036 88.4889C102.002 88.8283 103.986 89.0821 105.882 89.7762C105.87 90.1798 105.861 90.5804 105.851 90.9809Z" fill="#B26329"/>
<path d="M37.9396 13.6877L38.3218 12.489C41.7373 12.4401 45.1161 12.648 48.3359 13.9904C48.819 14.3756 49.0758 14.7426 48.4154 15.241C47.6846 15.7914 46.9171 16.1828 45.9875 16.143C44.8623 16.3662 44.1315 15.6477 43.4343 14.9413C43.0185 14.5163 42.7035 13.9812 42.1378 13.7182C41.8993 13.7427 41.5018 13.6877 41.4499 13.8039C40.8628 15.0636 39.5357 15.3327 38.6031 16.1033C38.1934 15.3602 37.854 14.5836 37.9396 13.6877Z" fill="#473838"/>
<path d="M42.1377 13.7274C43.6176 14.2014 44.4279 15.8067 45.9874 16.143C45.9962 16.3327 45.946 16.5205 45.8435 16.6804C45.7411 16.8404 45.5916 16.9646 45.4156 17.0359C43.7705 16.513 43.1743 14.8894 42.1377 13.7274Z" fill="#C46F35"/>
<path d="M37.9393 13.6877C38.5264 14.391 38.6211 15.235 38.6028 16.1125L37.9332 15.7884C37.765 15.4826 37.8017 15.079 37.4409 14.9017C36.7896 14.8405 36.8935 15.6019 36.5021 15.819C36.4012 15.9229 36.3003 16.0238 36.1964 16.1248C35.7214 14.6061 36.3024 13.7937 37.9393 13.6877Z" fill="#FCD4A6"/>
<path d="M36.5024 15.8129C36.585 14.3207 36.7073 14.2015 37.7102 14.6479C38.1842 15.4613 37.3586 15.8282 37.1415 16.403C36.9931 16.3681 36.8563 16.2954 36.7443 16.192C36.6324 16.0886 36.549 15.958 36.5024 15.8129Z" fill="#C46F35"/>
<path d="M41.8845 21.1516C40.7929 21.6592 40.1172 21.4574 39.7441 20.2129C40.6401 20.2343 41.1476 20.803 41.8845 21.1516Z" fill="#F7EAE1"/>
<path d="M37.1411 16.4028C36.9607 15.6904 38.0095 15.3999 37.7099 14.6477C37.8861 14.773 38.0075 14.9612 38.0491 15.1734C38.0906 15.3857 38.0491 15.6057 37.9331 15.7882L37.1411 16.4028Z" fill="#433128"/>
<path d="M44.4308 18.5801L44.2565 18.84C44.0241 18.895 43.7367 18.9714 43.6724 18.6504C43.6546 18.5791 43.6529 18.5047 43.6676 18.4327C43.6823 18.3607 43.7128 18.2929 43.7571 18.2342C43.8014 18.1756 43.8582 18.1276 43.9235 18.0938C43.9887 18.06 44.0607 18.0412 44.1342 18.0388C44.4766 18.0205 44.4246 18.3415 44.4308 18.5801Z" fill="#564339"/>
<path d="M42.1044 17.4826C41.9883 17.6966 41.8782 17.9474 41.5785 17.877C41.5294 17.8704 41.4829 17.8509 41.4438 17.8205C41.4046 17.7901 41.3742 17.7499 41.3556 17.704C41.3369 17.658 41.3308 17.608 41.3377 17.5589C41.3447 17.5099 41.3644 17.4635 41.3951 17.4245C41.4892 17.2652 41.6381 17.1456 41.814 17.0881C42.0708 17.0331 42.1014 17.2655 42.1044 17.4826Z" fill="#47342A"/>
<path d="M95.8252 10.5658C95.761 9.84108 94.9079 9.55059 94.9079 8.80451C94.5379 7.91776 95.2136 7.59671 95.7518 7.23895C95.5347 6.47452 94.3452 6.3675 94.6296 5.33398C95.3299 5.53561 95.9849 5.86987 96.559 6.31857C97.7485 7.27564 98.5465 8.33361 97.8372 9.98784C97.1553 10.1621 96.7975 11.4739 95.8252 10.5658Z" fill="#473838"/>
<path d="M94.6176 5.33406C94.6513 5.42579 94.6788 5.52059 94.7216 5.60926C95.0274 6.2575 95.9172 6.31559 96.1251 7.05251C96.4125 8.06156 95.006 7.43778 95.0304 8.23278C95.0119 8.42863 94.9666 8.62101 94.8959 8.80458C94.3975 8.27253 94.7338 7.47141 94.318 6.91184C94.3275 6.79596 94.3038 6.67975 94.2497 6.57686C94.1955 6.47396 94.1131 6.38863 94.0122 6.33088C94.1397 6.15245 94.2083 5.93863 94.2083 5.71933C94.2083 5.50003 94.1397 5.28622 94.0122 5.10779L94.6176 5.33406Z" fill="#473838"/>
<path d="M95.8251 10.5658C96.6323 10.8715 96.9931 9.57506 97.8248 9.97868L98.2101 10.5658C98.2988 11.4525 96.6812 10.5444 97.1583 11.6665C97.516 11.4586 97.831 10.7187 98.5281 11.2538C98.0716 11.8964 97.4785 12.4299 96.7913 12.8162L96.3908 12.7612C95.8832 12.5319 96.3082 11.8225 95.8159 11.587L95.8251 10.5658Z" fill="#FCD4A6"/>
<path d="M98.5285 11.2538C97.7427 11.107 97.5042 12.1711 96.7397 12.1191C96.7397 11.0917 96.963 10.3212 98.2105 10.5658L98.8007 11.214C98.7125 11.2409 98.6207 11.2543 98.5285 11.2538Z" fill="#FCD4A6"/>
<path d="M73.6017 28.7072L73.0972 27.6646C73.5986 27.5575 74.097 27.4566 74.5924 27.3343C74.8126 27.2823 75.0878 27.0591 75.2039 27.3771C75.3201 27.6951 75.0174 27.8878 74.7636 28.0345C74.4579 28.4015 74.1888 28.8448 73.6017 28.7072Z" fill="#FCD4A6"/>
<path d="M73.6017 28.7072L74.7667 28.0345C74.7667 28.2425 74.7667 28.4535 74.7667 28.6461L73.5742 29.2576C73.5742 29.0742 73.5895 28.8907 73.6017 28.7072Z" fill="#804C25"/>
<path d="M91.9727 8.81369L92.5292 8.76172C92.89 8.85039 93.2997 8.85039 93.5199 9.41607C92.9267 9.2112 92.1867 9.87778 91.9727 8.81369Z" fill="#564339"/>
<path d="M89.8691 9.09205C90.2575 9.06453 90.6489 8.78628 91.0341 9.09205C90.6366 9.53237 90.2483 9.55071 89.8691 9.09205Z" fill="#564339"/>
<path d="M93.1288 13.6878C93.1308 13.8827 93.1072 14.077 93.0585 14.2658C92.8872 14.6724 92.2726 14.6877 92.2237 14.5715C91.7222 13.4065 90.0833 15.4888 89.8784 13.6878C91.2513 12.4372 91.3981 12.4372 93.1288 13.6878Z" fill="#FCD4A6"/>
<path d="M93.1288 13.6878C92.0463 13.1711 90.9639 12.7124 89.8784 13.6878C90.8294 12.1498 92.2879 12.1498 93.1288 13.6878Z" fill="#A49F9C"/>
<path d="M37.0988 60.737C36.8909 61.0092 36.4109 61.104 36.4017 60.8655C36.3436 59.5537 35.3926 59.9481 34.7108 59.8228C34.405 59.517 34.7872 59.2112 34.7108 58.9055C35.2612 58.2756 35.6862 57.4378 36.7258 57.6487C37.4321 57.3246 37.8021 57.8291 38.2547 58.2603C38.3525 57.343 38.7653 56.7681 39.8049 57.0555C40.2972 57.0555 40.6061 57.4225 40.9516 57.7038C41.2207 58.7006 41.7955 59.6393 41.453 60.7432C40.3095 60.4374 39.1873 60.0093 37.9764 60.1316C37.7444 60.4095 37.441 60.6188 37.0988 60.737Z" fill="#FCD4A6"/>
<path d="M39.8203 57.0463C38.9244 57.1686 38.3465 57.5783 38.6278 58.7189L36.7412 57.6456L36.8299 57.3979L37.1357 57.1625C37.523 56.8832 37.9836 56.7234 38.4606 56.7027C38.9377 56.6821 39.4103 56.8015 39.8203 57.0463Z" fill="#FCD4A6"/>
<path d="M31.2218 87.0365C31.5474 86.1536 31.7311 85.2248 31.7661 84.2845C32.4541 82.826 32.5703 81.2023 33.0045 79.6735C34.4997 81.6518 36.4597 81.9148 38.6582 81.3032L37.7042 83.9543C37.4382 84.5414 37.0315 85.0826 37.0927 85.7889C37.1599 86.3729 36.6462 86.7062 36.4995 87.1802C36.102 87.5777 35.5821 87.7459 35.1112 88.0302C34.8269 88.2076 34.408 88.3207 34.4538 88.7519C34.4997 89.183 34.9186 89.2472 35.2427 89.3298C37.533 89.9095 39.8532 90.3638 42.1929 90.6905C42.6669 90.7608 43.1898 90.6232 43.6056 90.9962C44.2355 92.0725 43.5016 92.094 42.7678 92.2346C42.1562 92.3539 41.5692 91.5833 40.9576 92.1887C40.8628 92.2071 40.765 92.2193 40.6671 92.2315L35.6127 91.9258C35.4941 92.0378 35.3371 92.1002 35.1739 92.1002C35.0108 92.1002 34.8538 92.0378 34.7351 91.9258C33.3378 91.62 31.7967 92.0022 30.5552 90.9779C30.4811 90.8869 30.427 90.7814 30.3965 90.6681C30.3659 90.5548 30.3596 90.4364 30.3779 90.3205C30.5583 89.3389 30.4757 88.3024 30.9069 87.3667C30.9726 87.2249 31.0833 87.1089 31.2218 87.0365Z" fill="#473838"/>
<path d="M67.2235 97.1729C67.3503 97.3019 67.4537 97.4519 67.5293 97.6162C67.5782 97.7966 67.4069 97.87 67.2755 97.7569C67.1435 97.617 67.0257 97.4644 66.9238 97.3013L67.2235 97.1729Z" fill="#418667"/>
<path d="M75.605 86.0061C75.4674 86.2875 75.3298 86.2018 75.2289 86.104C75.1092 86.0173 75.0194 85.8954 74.972 85.7554C74.9415 85.5505 75.131 85.5414 75.2442 85.6209C75.3778 85.7361 75.4988 85.8653 75.605 86.0061Z" fill="#418667"/>
<path d="M43.6026 90.987C41.5233 91.3722 39.5725 90.568 37.5728 90.2623C36.4528 90.1439 35.3564 89.8605 34.3193 89.4214C33.402 88.978 33.5182 88.5041 34.249 88.0607C34.9798 87.6173 35.6709 87.1434 36.5178 87.0089C36.6157 86.8743 36.7135 86.8682 36.8053 87.0089C37.8632 87.5654 38.8876 88.2044 40.0465 88.5377C40.2116 88.7089 40.5388 88.5928 40.6366 88.8863C41.3338 89.4978 42.2175 89.6905 43.0216 90.0635C43.3855 89.8984 43.5231 90.1063 43.5873 90.4304L43.6026 90.987Z" fill="#473838"/>
<path d="M43.5877 90.4395L43.022 90.0726C43.4103 89.5345 44.0341 89.4611 44.5845 89.299C46.0363 88.8885 47.2839 87.9536 48.0856 86.6755C48.309 86.2825 48.6418 85.9629 49.0435 85.7555C49.4452 85.5482 49.8985 85.462 50.3483 85.5074C48.2843 87.6601 46.4497 89.7607 43.5877 90.4395Z" fill="#965625"/>
<path d="M40.6399 88.8954L40.0498 88.5469C40.9274 87.7427 41.7407 86.8468 42.6978 86.1618C43.5112 85.5809 44.4468 85.0794 45.621 85.4861C43.5509 86.0426 42.1688 87.5715 40.6399 88.8954Z" fill="#975726"/>
<path d="M36.8057 87.0181H36.665H36.5213C36.5166 86.7841 36.5657 86.5521 36.6649 86.3401C36.764 86.128 36.9105 85.9415 37.0931 85.795C37.3561 85.8562 37.8208 85.7033 37.8239 86.0794C37.8239 86.6726 37.0167 86.5442 36.8057 87.0181Z" fill="#9D5B27"/>
<path d="M34.7321 91.9197H35.6097C35.0715 93.0296 34.0349 93.4057 32.9953 93.684C31.0017 94.2191 29.2465 95.0233 28.1305 96.9772C27.8987 97.3645 27.5547 97.6722 27.144 97.8595C26.7334 98.0468 26.2755 98.1049 25.8311 98.026C28.0357 95.6929 30.1486 93.2314 33.564 92.7667C33.8141 92.7347 34.0521 92.6403 34.2562 92.4923C34.4603 92.3444 34.624 92.1474 34.7321 91.9197Z" fill="#965626"/>
<path d="M30.6133 90.3756C30.5919 90.5744 30.5735 90.7731 30.5521 90.9872C29.1548 92.2103 27.6656 93.2438 25.7974 93.5159C25.7111 93.4858 25.6234 93.4603 25.5344 93.4395C25.4727 93.3749 25.4292 93.2951 25.4084 93.2082C25.3876 93.1214 25.3902 93.0305 25.416 92.945C25.4419 92.8595 25.4899 92.7824 25.5553 92.7215C25.6207 92.6606 25.7011 92.6182 25.7882 92.5986C27.3126 92.0424 28.6922 91.1498 29.8244 89.9873C30.1822 89.6173 30.7539 89.4063 30.6133 90.3756Z" fill="#985726"/>
<path d="M37.0986 60.7369C37.1595 60.551 37.28 60.3904 37.4414 60.2798C37.6028 60.1693 37.7961 60.115 37.9915 60.1254C37.9701 60.6544 38.4777 61.1069 38.1872 61.6971C37.5145 61.7552 37.5359 60.9693 37.0986 60.7369Z" fill="#FCD4A6"/>
<path d="M31.2218 87.0364C31.1905 87.1247 31.1679 87.2159 31.1546 87.3086C28.5249 89.0943 25.4978 90.1095 22.8742 91.8952L22.2627 91.5894C24.3297 88.7732 27.7666 88.4063 30.4727 86.697C30.7815 86.5289 31.1607 86.4922 31.2218 87.0364Z" fill="#965626"/>
<path d="M22.8745 91.9043C25.1892 89.5224 28.2561 88.5745 31.1548 87.3177L30.6136 90.3755C30.5494 90.1492 30.4454 89.7639 30.1886 90.0697C28.9655 91.5466 27.4366 92.4242 25.6785 93.0174C25.5959 93.0449 25.5806 93.2834 25.5347 93.424L22.8745 91.9043Z" fill="#C17536"/>
<path d="M38.8901 59.1624C39.5017 59.3825 39.7891 59.4926 40.2325 59.6607C39.676 59.8901 39.3366 59.8565 38.8901 59.1624Z" fill="#C97338"/>
</svg>
