<svg width="74" height="48" viewBox="0 0 74 48" fill="none" xmlns="http://www.w3.org/2000/svg">
<path d="M49.9367 35.0598H26.3922V18.6655C26.42 15.5616 27.6725 12.5942 29.8772 10.4092C32.0819 8.22418 35.0604 6.99829 38.1644 6.99829C41.2685 6.99829 44.2469 8.22418 46.4516 10.4092C48.6563 12.5942 49.9089 15.5616 49.9367 18.6655V35.0598ZM28.418 33.0387H47.9108V18.6655C47.8359 16.1304 46.7762 13.7244 44.9565 11.9578C43.1369 10.1911 40.7006 9.203 38.1644 9.203C35.6283 9.203 33.1919 10.1911 31.3723 11.9578C29.5527 13.7244 28.493 16.1304 28.418 18.6655V33.0387Z" fill="url(#paint0_linear_1_10821)"/>
<path d="M50.818 35.4328H25.5107V17.8106C25.5107 10.8327 31.1907 5.15649 38.1648 5.15649C45.1389 5.15649 50.818 10.8365 50.818 17.8106V35.4328ZM27.6881 33.2555H48.6407V17.8106C48.6538 16.4264 48.3925 15.0534 47.872 13.7708C47.3514 12.4882 46.5818 11.3215 45.6077 10.3381C44.6336 9.35468 43.4742 8.57404 42.1966 8.04129C40.9191 7.50854 39.5486 7.23424 38.1644 7.23424C36.7802 7.23424 35.4097 7.50854 34.1321 8.04129C32.8545 8.57404 31.6952 9.35468 30.721 10.3381C29.7469 11.3215 28.9773 12.4882 28.4568 13.7708C27.9362 15.0534 27.6749 16.4264 27.6881 17.8106V33.2555Z" fill="#052B4E"/>
<path d="M28.7995 31.4397H24.228V33.3851H28.7995V31.4397Z" fill="#052B4E"/>
<path d="M51.9692 31.4397H47.3977V33.3851H51.9692V31.4397Z" fill="#052B4E"/>
<path d="M74 32.5266H3V35.5474H74V32.5266Z" fill="#052B4E"/>
<path d="M74 34.5457H3V35.5472H74V34.5457Z" fill="#052B4E"/>
<path d="M48.5025 35.5473H28.3943C28.5837 33.9957 33.0141 32.7556 38.4479 32.7556C43.8818 32.7556 48.3113 33.9957 48.5025 35.5473Z" fill="#052B4E"/>
<path opacity="0.25" d="M74 37.4257H3V37.5629H74V37.4257Z" fill="#052B4E"/>
<path opacity="0.25" d="M74 40.8647H3V41.002H74V40.8647Z" fill="#052B4E"/>
<path opacity="0.25" d="M74 44.3049H3V44.4422H74V44.3049Z" fill="#052B4E"/>
<path d="M49.3317 47.3334H27.6682L31.31 35.5474H45.6899L49.3317 47.3334Z" fill="#473838"/>
<path d="M31.31 35.5474H33.4978L32.8096 35.5919C32.8096 35.5919 31.8761 37.6935 31.1671 39.5158C30.5631 41.0693 29.8683 45.6625 29.8853 47.3334H27.6682L31.31 35.5474Z" fill="#052B4E"/>
<path d="M49.3317 47.3334H46.9518C46.3374 43.168 44.8578 37.4937 44.3352 35.5474H45.6946L49.3317 47.3334Z" fill="#052B4E"/>
<path d="M39.5139 40.0279C38.8692 40.1434 37.3205 39.8736 37.2419 39.654C37.1908 39.5167 37.2845 39.0737 37.3602 38.7594C37.3687 38.7253 37.3763 38.6912 37.3858 38.6647C37.4161 38.5332 37.4416 38.4423 37.4416 38.4356C37.4416 38.429 37.4511 37.9216 37.4577 37.4568C37.4577 37.3025 37.4577 37.152 37.4625 37.027C37.8071 36.9778 38.1346 36.8623 38.3769 36.5376C38.4527 36.4353 38.5199 36.335 38.5776 36.2394C38.5483 36.5584 38.5246 36.9115 38.5066 37.2315C38.4763 37.7843 38.4631 38.2387 38.4688 38.2501C38.4745 38.2615 38.5814 38.3504 38.7424 38.4868C38.9563 38.6657 39.2583 38.9175 39.5243 39.1428C39.7799 39.3596 40.0024 39.5508 40.0762 39.6275C40.2826 39.8386 40.1557 39.9106 39.5139 40.0279Z" fill="url(#paint1_linear_1_10821)"/>
<path d="M38.5729 36.2356C38.5436 36.5546 38.5199 36.9077 38.5019 37.2277C38.2368 37.3915 37.862 37.4123 37.453 37.453C37.453 37.2987 37.453 37.1482 37.4577 37.0232C37.8023 36.974 38.1299 36.8585 38.3722 36.5338C38.4479 36.4316 38.5152 36.3312 38.5729 36.2356Z" fill="url(#paint2_linear_1_10821)"/>
<path d="M39.5129 40.0288C38.8692 40.1433 37.3205 39.8735 37.2409 39.6501C37.1908 39.5119 37.2826 39.0698 37.3593 38.7565C38.2255 39.3245 39.1314 39.4258 39.4031 39.4097C39.565 39.4002 39.5764 39.2838 39.5234 39.1361C39.7799 39.3529 40.0014 39.5441 40.0753 39.6208C40.2826 39.8385 40.1557 39.9114 39.5129 40.0288Z" fill="url(#paint3_linear_1_10821)"/>
<g style="mix-blend-mode:overlay" opacity="0.25">
<path d="M39.5129 40.0288C38.8692 40.1434 37.3205 39.8736 37.2409 39.6502C37.1908 39.5119 37.2826 39.0698 37.3593 38.7565C37.3678 38.7205 37.3754 38.6874 37.3839 38.6562C37.9292 38.8644 38.4423 38.6562 38.7414 38.4791C38.9554 38.6571 39.2573 38.9108 39.5234 39.1352C39.7799 39.352 40.0014 39.5432 40.0753 39.6199C40.2826 39.8385 40.1557 39.9114 39.5129 40.0288Z" fill="black"/>
</g>
<path d="M33.2772 21.7959C33.2772 21.7959 33.4221 23.0522 33.0879 24.12C32.7537 25.1878 31.9159 25.0865 31.276 24.511C30.636 23.9354 31.0213 22.7587 31.0213 22.7587C31.0213 22.7587 29.7907 23.072 29.2852 22.362C29.1354 22.1637 29.0537 21.9223 29.0521 21.6738C29.0506 21.4253 29.1293 21.1829 29.2766 20.9827C29.4375 20.7551 29.6513 20.5699 29.8995 20.4431C30.6474 20.0503 31.4057 18.8404 31.1084 18.1503C30.8112 17.4602 29.8995 17.3258 29.9478 15.6568C29.951 15.5293 29.9668 15.4025 29.9952 15.2781C30.2792 14.0323 31.7607 14.2586 31.7607 14.2586C31.7607 14.2586 32.2596 13.5183 33.086 13.8543C33.5376 14.0389 33.5281 14.4526 33.4647 14.8815C33.4136 15.2374 33.3246 15.6009 33.4268 15.8528C33.4268 15.8528 33.3435 16.5789 33.5631 17.1724C33.5769 17.2079 33.593 17.2424 33.6114 17.2756C33.9399 17.8483 35.1782 18.5299 35.4101 19.0799C36.1135 20.7129 33.2772 21.7959 33.2772 21.7959Z" fill="url(#paint4_linear_1_10821)"/>
<g style="mix-blend-mode:overlay" opacity="0.15">
<path d="M33.2772 21.796C33.2772 21.796 33.4221 23.0523 33.0879 24.1201C32.7537 25.1879 31.9159 25.0866 31.276 24.5111C30.636 23.9355 31.0213 22.7588 31.0213 22.7588C31.0213 22.7588 29.7907 23.0721 29.2852 22.3621C29.1354 22.1638 29.0537 21.9224 29.0521 21.6739C29.0506 21.4254 29.1293 21.183 29.2766 20.9828C30.2915 21.1447 30.797 20.82 31.1577 20.1176C31.6935 19.0763 31.666 17.2776 31.666 17.2776H33.6114C33.9399 17.8503 35.1782 18.5319 35.4101 19.0819C36.1135 20.713 33.2772 21.796 33.2772 21.796Z" fill="black"/>
</g>
<path d="M41.0777 39.726C41.0389 39.9939 40.3289 39.8689 39.6966 39.9749C39.3174 40.0418 38.9318 40.0656 38.5473 40.0459C38.2377 40.0204 38.021 39.9352 38.074 39.7459C38.1686 39.4202 39.0585 38.9298 39.4854 38.5493C39.5724 38.4807 39.644 38.3945 39.6956 38.2965H40.9045C40.9045 38.2965 41.1166 39.4571 41.0777 39.726Z" fill="url(#paint5_linear_1_10821)"/>
<path d="M43.328 38.6334C43.2286 39.0348 41.9809 39.8783 41.9231 40.2929C41.8654 40.7076 42.9484 40.4879 43.5608 40.2929C44.1733 40.0979 44.8938 40.1254 44.8938 39.8546C44.8938 39.5839 44.4725 38.4053 44.4725 38.4053" fill="url(#paint6_linear_1_10821)"/>
<path d="M44.5501 38.2454C44.5501 38.6316 44.0323 38.8484 43.6224 38.908C43.4009 38.9393 43.2096 38.9232 43.1491 38.8626C43.0364 38.7499 42.476 33.5215 42.0973 29.9147C41.8976 28.0024 41.7499 26.5455 41.7499 26.5455C41.7499 26.5455 41.3504 30.0756 40.8979 31.9178C41.0191 32.2747 41.0872 33.6663 41.1222 35.0608C41.1601 36.5859 41.1535 38.1147 41.1222 38.305C41.0636 38.6704 39.5281 38.6884 39.5801 38.305C39.6322 37.9216 38.8768 32.5871 38.9525 31.0914C39.0008 30.1201 39.3188 27.6294 39.5347 26.0012C39.6521 25.1189 39.7392 24.4865 39.7392 24.4865L40.4605 22.7437C40.4605 22.7437 43.274 21.3237 43.8875 23.2274C44.0512 23.7339 44.1554 24.6399 44.2216 25.6954C44.4024 28.613 44.287 32.6799 44.287 32.6799C44.287 32.6799 44.5501 37.6537 44.5501 38.2454Z" fill="url(#paint7_linear_1_10821)"/>
<g style="mix-blend-mode:overlay" opacity="0.15">
<path d="M44.2159 25.7C43.2522 25.2059 42.174 25.7 41.7461 25.2475C41.1857 24.6587 41.1166 24.5299 40.7407 25.2475C40.4766 25.7502 39.954 25.7606 39.529 26.0048C39.6464 25.1226 39.7335 24.4902 39.7335 24.4902L40.4548 22.7474C40.4548 22.7474 43.2683 21.3274 43.8818 23.2311C44.0455 23.7385 44.1497 24.6445 44.2159 25.7Z" fill="black"/>
</g>
<path d="M39.9645 19.3953C39.9582 19.3962 39.9519 19.3962 39.9456 19.3953C39.6663 19.3745 39.3634 19.0933 39.0737 18.709C38.3845 17.7926 37.7777 16.2884 37.7777 16.2884L38.2634 15.496L39.3378 14.8049L39.8367 14.6771C39.8367 14.6771 40.9112 19.4332 39.9645 19.3953Z" fill="url(#paint8_linear_1_10821)"/>
<path d="M40.1567 18.5055L39.9456 19.3925C39.6663 19.3717 39.3634 19.0905 39.0737 18.7062C39.0737 18.6522 39.0689 18.5983 39.0661 18.5443C39.05 18.0075 38.6694 16.2325 38.3959 16.0404L38.3722 15.7696L38.7177 15.656C38.7177 15.656 39.2261 15.4932 39.2157 15.5793C39.2219 16.1336 39.2799 16.686 39.3889 17.2294C39.5328 17.8438 40.1567 18.5055 40.1567 18.5055Z" fill="url(#paint9_linear_1_10821)"/>
<path d="M40.9367 22.5535C40.9367 22.5535 40.7834 24.5879 40.6944 24.8823C40.6508 25.0233 40.4321 25.0356 40.1803 25.0337C39.9096 25.0337 39.5991 25.0176 39.423 25.1379C39.0907 25.3679 39.1475 25.2155 39.1248 24.8539C39.1021 24.4922 39.1608 22.8072 39.1248 22.4616C39.0888 22.1161 38.3154 20.2673 38.3154 20.2673C38.3154 20.2673 38.2463 21.017 37.9651 21.515C37.684 22.0129 36.0851 22.7551 36.0851 22.7551L36.0699 22.7021L35.8039 21.7554C35.8039 21.7554 36.7364 21.0085 36.8509 20.6374C36.9655 20.2663 36.9939 17.6081 37.2741 17.0865C37.3328 16.9776 37.3886 16.8735 37.4388 16.7779C37.6376 16.4068 37.7739 16.1407 37.7739 16.1407C37.7824 16.7428 38.642 17.9943 39.2791 18.7649C39.3984 18.9107 39.5101 19.0375 39.6076 19.1436C39.6884 19.2336 39.7764 19.3168 39.8708 19.3925C40.2797 19.686 40.0289 20.2493 40.0289 20.2493L40.9367 22.5535Z" fill="url(#paint10_linear_1_10821)"/>
<g style="mix-blend-mode:overlay" opacity="0.15">
<path d="M40.9367 22.5534C40.9367 22.5534 40.7834 24.5878 40.6944 24.8822C40.6508 25.0232 40.4322 25.0355 40.1803 25.0336C40.3034 24.2034 40.4445 23.0456 40.3545 22.6026C40.2078 21.8831 39.4855 20.9573 39.5423 20.6686C39.5991 20.3798 39.5423 19.3688 39.1882 18.7506L39.2829 18.7705C39.4022 18.9163 39.5139 19.0431 39.6114 19.1492C39.6922 19.2392 39.7802 19.3224 39.8746 19.3981C40.2835 19.6916 40.0327 20.2549 40.0327 20.2549L40.9367 22.5534Z" fill="black"/>
</g>
<path d="M43.3412 24.0595C42.5546 24.3577 42.5451 24.7893 42.228 24.7316C42.0538 24.6227 41.6827 24.1134 41.2718 23.4934C41.0011 23.0825 40.7123 22.6224 40.4548 22.1993C40.0118 21.4694 39.6587 20.8484 39.6379 20.7698C39.6 20.6155 39.7155 19.8771 39.689 18.9626C39.6824 18.7354 39.6672 18.4978 39.6379 18.2564C39.4949 17.038 39.6379 14.6496 39.6379 14.6496C39.6379 14.6496 39.813 14.6061 40.0819 14.5663C40.4928 14.5008 40.9099 14.4833 41.3248 14.5142C41.4328 14.6373 41.7499 16.3451 42.0121 17.8739C42.1948 18.9399 42.351 19.9178 42.3908 20.2132C42.4476 20.6448 43.2324 21.5688 43.8808 22.2684C44.3125 22.7341 44.6827 23.1005 44.7414 23.1582C44.8862 23.3021 44.1279 23.7613 43.3412 24.0595Z" fill="url(#paint11_linear_1_10821)"/>
<g style="mix-blend-mode:overlay" opacity="0.15">
<path d="M43.8818 22.2686C42.8064 22.5374 41.2718 23.4935 41.2718 23.4935C41.0011 23.0827 40.7123 22.6226 40.4548 22.1995C40.8004 21.7526 41.6031 20.6706 41.7423 20.0979C41.9212 19.3651 40.9367 18.781 40.9149 17.0969L42.013 17.8741C42.1958 18.9401 42.352 19.918 42.3917 20.2134C42.4485 20.645 43.2333 21.569 43.8818 22.2686Z" fill="black"/>
</g>
<path d="M38.2472 15.1191C38.0844 15.3085 38.2377 16.1501 38.4365 16.381C38.4642 16.1635 38.5395 15.9546 38.6571 15.7695C38.6571 15.7695 39.156 15.7288 39.3198 15.9588C39.5697 15.4855 39.5697 14.7111 39.4012 14.4442C39.1276 14.3003 38.4659 14.7168 38.4659 14.7168" fill="url(#paint12_linear_1_10821)"/>
<path d="M38.7745 14.1535L35.6666 13.1936C35.4334 13.1706 35.2084 13.0954 35.0083 12.9734C34.8081 12.8515 34.6381 12.686 34.5107 12.4893C34.3051 12.1945 34.205 11.8389 34.2267 11.4801C34.4113 11.6534 34.7379 11.5379 34.7379 11.5379C34.7379 11.5379 34.4312 11.0967 34.488 10.8752C34.6357 11.0153 35.2359 11.0541 36.2469 10.8695C37.258 10.6849 38.2169 10.6196 38.4148 11.3173C38.7281 11.3893 38.8654 11.6117 38.909 11.9099C39.0112 12.5612 38.6789 13.5619 38.7745 14.1535Z" fill="url(#paint13_linear_1_10821)"/>
<g style="mix-blend-mode:overlay" opacity="0.15">
<path d="M38.7745 14.1536L35.6666 13.1937C35.4334 13.1707 35.2084 13.0954 35.0083 12.9735C34.8082 12.8516 34.6381 12.6861 34.5107 12.4894C35.233 12.8122 36.0727 12.6039 36.5764 12.2546C37.2589 11.7813 37.3536 11.4357 38.0986 11.8579C38.5028 12.087 38.7613 12.07 38.9109 11.9138C39.0112 12.5613 38.6789 13.5619 38.7745 14.1536Z" fill="black"/>
</g>
<path d="M38.6278 15.7553C38.5681 15.6919 38.3902 15.5006 38.2008 15.2905L38.0702 15.1466C37.9026 14.9573 37.7436 14.7774 37.6622 14.6733L37.7322 13.7597L38.1724 13.2675C38.1724 13.2675 38.3182 13.4956 38.5255 13.7891C38.6297 13.9349 38.748 14.0977 38.8711 14.2558C38.9553 14.3618 39.0415 14.4678 39.1267 14.5644C39.1626 15.0065 38.7565 15.8897 38.6278 15.7553Z" fill="url(#paint14_linear_1_10821)"/>
<g style="mix-blend-mode:overlay" opacity="0.25">
<path d="M38.0702 15.1466C37.9026 14.9573 37.7436 14.7774 37.6622 14.6733L37.7322 13.7597L38.1724 13.2675C38.1724 13.2675 38.3182 13.4956 38.5255 13.7891C38.57 14.6117 38.4271 15.0178 38.0702 15.1466Z" fill="black"/>
</g>
<path d="M38.9222 13.0186C38.9123 13.1406 38.8555 13.2541 38.7637 13.3351C38.6719 13.4161 38.5523 13.4584 38.43 13.4531C38.43 13.4531 38.3694 13.7172 38.2615 14.0306C38.1024 14.4935 37.8402 15.0634 37.5174 15.0587C36.8907 15.052 36.3331 14.4604 35.9487 13.916C35.8162 13.7267 35.7055 13.5468 35.6193 13.3973C35.4915 13.1748 35.4196 13.0186 35.4196 13.0186C36.3416 13.2325 37.3129 12.8378 37.9528 12.2546C37.879 12.5386 38.1923 13.1502 38.2274 13.1473C38.2624 13.1445 38.2624 12.8245 38.3845 12.6636C38.5066 12.5027 38.9856 12.5547 38.9222 13.0186Z" fill="url(#paint15_linear_1_10821)"/>
<g style="mix-blend-mode:overlay" opacity="0.25">
<path d="M38.2595 14.0334C38.1005 14.4964 37.8383 15.0662 37.5155 15.0615C36.8907 15.052 36.3331 14.4604 35.9487 13.916C36.0235 13.9094 36.1532 14.024 36.3047 14.1811C36.5688 14.4547 36.8812 14.857 37.399 14.8438C37.897 14.8362 38.2349 14.0883 38.2595 14.0334Z" fill="white"/>
</g>
<path d="M40.488 16.5003C40.488 16.5003 40.115 18.2043 39.6852 18.9616C39.6786 18.7344 39.6634 18.4968 39.6341 18.2554C39.4911 17.0371 39.6341 14.6486 39.6341 14.6486C39.6341 14.6486 39.8092 14.6051 40.0781 14.5653C40.2674 14.9288 40.3536 14.9743 40.3536 14.9743L40.0374 15.5498L40.488 16.5003Z" fill="#50465B"/>
<path d="M39.6114 19.1463C38.7461 18.9976 37.9405 18.1996 37.9405 18.1996L37.7777 17.1923L37.3744 17.3182C37.3744 17.3182 37.4123 17.0835 37.4425 16.7843C37.6413 16.4132 37.7777 16.1472 37.7777 16.1472C37.7881 16.862 38.996 18.4902 39.6114 19.1463Z" fill="#50465B"/>
<g style="mix-blend-mode:overlay" opacity="0.15">
<path d="M38.3192 20.2701C38.3192 20.2701 38.2501 21.0198 37.9689 21.5178C37.6877 22.0157 36.0888 22.7579 36.0888 22.7579L36.0737 22.7049C37.6309 22.2041 37.9982 20.2994 37.7777 19.8299C37.5571 19.3603 37.4321 18.4572 37.6139 18.5916C37.7957 18.726 38.1412 19.5705 38.3192 20.2701Z" fill="black"/>
</g>
<path d="M40.5363 21.3521C40.5363 21.3793 40.5282 21.4058 40.5131 21.4284C40.498 21.4509 40.4766 21.4685 40.4515 21.4789C40.4264 21.4893 40.3988 21.492 40.3722 21.4867C40.3456 21.4814 40.3211 21.4684 40.3019 21.4492C40.2827 21.43 40.2697 21.4055 40.2644 21.3789C40.2591 21.3523 40.2618 21.3247 40.2722 21.2996C40.2826 21.2745 40.3002 21.2531 40.3227 21.238C40.3453 21.2229 40.3718 21.2148 40.399 21.2148C40.417 21.2147 40.435 21.2182 40.4517 21.225C40.4684 21.2319 40.4836 21.242 40.4963 21.2548C40.5091 21.2675 40.5192 21.2827 40.5261 21.2994C40.5329 21.3161 40.5364 21.3341 40.5363 21.3521Z" fill="#50465B"/>
<g style="mix-blend-mode:overlay" opacity="0.25">
<path d="M38.6468 12.7941C38.5076 12.7563 38.4394 13.0602 38.5388 13.1368C38.6382 13.2135 38.7395 12.8263 38.6468 12.7941Z" fill="black"/>
</g>
<g style="mix-blend-mode:overlay" opacity="0.25">
<path d="M38.6278 15.7553C38.5682 15.6919 38.3902 15.5006 38.2009 15.2905C38.3381 15.4126 38.4849 15.5432 38.6543 15.4675C38.8853 15.3672 38.9686 14.6884 38.8711 14.2567C38.9554 14.3627 39.0415 14.4688 39.1267 14.5653C39.1627 15.0065 38.7566 15.8897 38.6278 15.7553Z" fill="black"/>
</g>
<g style="mix-blend-mode:overlay" opacity="0.25">
<path d="M37.9528 12.2546C37.8307 12.5216 37.5193 12.9788 36.7941 13.1672C36.0074 13.3708 35.7679 13.3272 35.6193 13.3954C35.4915 13.1729 35.4196 13.0167 35.4196 13.0167C36.3416 13.2325 37.3138 12.8378 37.9528 12.2546Z" fill="black"/>
</g>
<g style="mix-blend-mode:overlay" opacity="0.15">
<path d="M40.8903 31.9167C41.0115 32.2736 41.0797 33.6652 41.1147 35.0597C40.8988 33.599 40.6073 32.1316 40.4918 31.859C40.2892 31.379 40.8278 30.6501 40.7407 29.8454C40.6537 29.0408 40.4833 28.9234 40.9367 27.9455C41.3902 26.9676 40.8667 26.1421 41.0389 25.7388C41.2112 25.3355 41.5956 25.7388 41.7461 26.5444C41.7461 26.5444 41.3466 30.0745 40.8903 31.9167Z" fill="black"/>
</g>
<g style="mix-blend-mode:overlay" opacity="0.25">
<path d="M43.6224 38.908C43.4008 38.9392 43.2096 38.9231 43.149 38.8625C43.0364 38.7499 42.476 33.5215 42.0973 29.9147C42.2223 29.5852 42.4002 29.7812 42.4816 30.5773C42.6359 32.092 43.1538 37.9964 43.5561 38.6685C43.604 38.7388 43.6273 38.823 43.6224 38.908Z" fill="white"/>
</g>
<path d="M40.7408 33.2081C40.7408 33.2081 40.6461 34.7436 39.7988 34.8174C39.0481 34.8865 39.0415 35.4593 38.5682 36.2317C38.5445 36.2706 38.5208 36.3094 38.4943 36.3491C38.4555 36.4088 38.4139 36.4694 38.3675 36.5309C38.1251 36.8565 37.7995 36.9711 37.453 37.0213C37.3044 37.0411 37.1529 37.0515 37.0033 37.061C36.8831 37.0676 36.7629 37.0733 36.6483 37.0866C36.3 37.1244 35.9923 37.2153 35.803 37.5287C35.6592 37.7757 35.4908 38.0076 35.3003 38.2207C34.8478 38.7092 34.2372 39.0074 33.2451 38.8076C31.8383 38.5236 31.3773 40.3687 29.944 39.6019C30.1239 37.7332 32.7074 34.9708 33.068 31.4918C33.4287 28.0128 34.6291 26.3892 34.2987 25.3782C33.9683 24.3672 32.8522 22.3877 32.5076 21.4893C32.163 20.5909 32.1498 19.702 32.6023 19.0365L33.3729 18.8699C33.3729 18.8699 34.1595 18.9153 34.6679 19.2798C34.9226 19.4716 35.1631 19.6817 35.3874 19.9084C35.7916 20.3116 36.1882 20.7812 36.317 21.086C36.5281 21.5849 36.1277 22.1027 36.2403 22.7578C36.353 23.4129 37.8004 26.9421 39.1863 29.039C39.8875 30.1106 40.3796 31.3051 40.6366 32.5596C40.683 32.7737 40.7178 32.9902 40.7408 33.2081Z" fill="url(#paint16_linear_1_10821)"/>
<path d="M36.6142 27.1637C36.7543 28.1842 36.2516 30.0652 36.4107 30.2877C36.5697 30.5101 37.098 29.4357 37.0525 28.4994C37.0071 27.5632 36.5016 26.3429 36.6142 27.1637Z" fill="url(#paint17_linear_1_10821)"/>
<path d="M38.5 36.3521C38.4612 36.4117 38.4195 36.4723 38.3731 36.5339C38.1308 36.8595 37.8051 36.9741 37.4587 37.0242C37.1898 37.0611 36.9105 37.0611 36.654 37.0895C36.3056 37.1274 35.998 37.2183 35.8086 37.5316C35.6649 37.7787 35.4964 38.0105 35.3059 38.2236C34.8534 38.7121 34.2428 39.0103 33.2507 38.8106C33.1857 38.7977 33.12 38.7892 33.0538 38.785C32.0523 38.7188 31.5392 39.7412 30.6872 39.7904H30.6427C30.3985 39.7892 30.1589 39.7239 29.9478 39.6011C30.1277 37.7323 32.7111 34.97 33.0718 31.491C33.2858 29.4083 33.8017 27.994 34.1131 26.9744C34.219 26.6575 34.2966 26.3318 34.3451 26.0012C34.3451 25.9899 34.3451 25.9785 34.3451 25.9681C34.3721 25.7701 34.3563 25.5687 34.2987 25.3774C33.9664 24.3663 32.8531 22.384 32.5085 21.4856C32.164 20.5873 32.1507 19.6983 32.6032 19.0328L33.3738 18.8662C33.3738 18.8662 34.1605 18.9117 34.6688 19.2761C34.9236 19.4679 35.164 19.678 35.3883 19.9047C34.506 19.4957 33.1646 19.3367 32.7944 19.4806C32.4243 19.6245 32.9033 21.9164 33.37 22.7542C33.8367 23.592 35.2141 24.1647 35.4281 24.5339C35.642 24.9031 35.0324 25.243 34.7323 25.8252C34.4322 26.4074 33.7856 29.0221 33.9513 30.4421C34.1169 31.8621 34.2845 32.1953 34.1946 33.8832C34.1046 35.5711 32.9289 36.4534 32.7878 37.1965C32.6468 37.9397 34.2334 34.7021 34.6688 34.3953C35.1043 34.0886 34.8213 35.2653 34.7824 36.5443C34.7436 37.8232 35.1658 36.0709 35.9857 36.5698C36.5991 36.9475 37.8279 36.7847 38.5 36.3521Z" fill="url(#paint18_linear_1_10821)"/>
<path d="M34.6698 19.2798C34.0933 19.0753 32.7064 19.1577 32.6032 19.0365C32.5485 18.8203 32.4724 18.61 32.376 18.4088C32.2208 18.0557 32.0447 17.696 32.0399 17.6458C32.0343 17.5587 32.1488 17.5597 32.0731 17.4735C31.9973 17.3874 31.951 17.5843 31.7209 17.4376C31.4909 17.2908 31.4369 16.9197 31.6054 16.8042C31.7739 16.6887 32.0276 16.7986 32.1109 16.9074C32.1943 17.0163 32.2321 16.8184 32.1299 16.6234C32.1024 16.5695 32.0816 16.524 32.0646 16.4862C32.0416 16.4377 32.0229 16.3873 32.0087 16.3356C32.0087 16.3356 32.3211 16.3233 32.3542 16.0289C32.3874 15.7345 32.3353 15.7089 32.572 15.5878C32.8086 15.4666 32.9175 15.4221 32.8721 15.0662C32.9894 15.1072 33.0942 15.1779 33.1759 15.2716C33.1796 15.2743 33.1828 15.2774 33.1854 15.2811C33.3232 15.4503 33.4331 15.6405 33.5111 15.8443C33.5698 15.9598 33.8822 16.1283 33.939 16.2334C33.9958 16.3385 33.831 16.3858 33.831 16.3858C33.831 16.3858 34.2012 17.1536 33.9532 17.4101C33.8208 17.5279 33.6557 17.6025 33.4798 17.6241H33.4732C33.3836 17.6409 33.2927 17.6494 33.2015 17.6496H33.1826C33.1826 17.6496 33.1826 17.6581 33.1949 17.6742C33.2233 17.75 33.3189 17.9895 33.4164 18.2015C33.4659 18.3154 33.5248 18.4249 33.5925 18.5291C33.6871 18.6465 34.1037 18.8774 34.3924 19.0649C34.496 19.1208 34.5897 19.1934 34.6698 19.2798Z" fill="url(#paint19_linear_1_10821)"/>
<path d="M34.6698 19.2797C34.0932 19.0753 32.7064 19.1576 32.6032 19.0365C32.5484 18.8202 32.4723 18.61 32.376 18.4088C32.7613 18.7875 33.3586 18.9768 34.3943 19.0611C34.4975 19.1183 34.5906 19.1922 34.6698 19.2797Z" fill="url(#paint20_linear_1_10821)"/>
<path d="M33.176 15.2669C32.892 15.4563 32.6704 15.8473 32.572 16.1085C32.4679 16.3869 32.2501 16.4238 32.0646 16.4815C32.0417 16.4331 32.023 16.3827 32.0087 16.331C32.0087 16.331 32.3211 16.3187 32.3543 16.0243C32.3874 15.7299 32.3353 15.7043 32.572 15.5831C32.8087 15.462 32.9175 15.4175 32.8721 15.0615C32.9895 15.1025 33.0942 15.1733 33.176 15.2669Z" fill="url(#paint21_linear_1_10821)"/>
<g style="mix-blend-mode:overlay" opacity="0.25">
<path d="M31.7181 16.9549C31.6537 16.9899 31.8222 17.3004 31.9576 17.272C32.0929 17.2436 31.8165 16.9 31.7181 16.9549Z" fill="black"/>
</g>
<path d="M33.4183 18.1977C33.0093 18.1977 32.5199 18.1466 32.412 17.8919C32.2226 17.4375 32.6676 17.6165 33.1854 17.6458C33.1854 17.6458 33.2999 17.9412 33.4183 18.1977Z" fill="url(#paint22_linear_1_10821)"/>
<path d="M37.1311 40.6792C36.4798 40.7237 34.9698 40.2826 34.9121 40.0554C34.9033 39.9841 34.9081 39.9118 34.9263 39.8424C34.9775 39.6169 35.0449 39.3954 35.1279 39.1797C35.1923 39.0027 35.2453 38.8692 35.2453 38.8616C35.2453 38.854 35.2766 38.5104 35.305 38.2217C35.4959 38.0092 35.6643 37.7777 35.8076 37.5306C35.997 37.2182 36.3046 37.1264 36.653 37.0885C36.5943 37.2636 36.5413 37.4586 36.4949 37.6565C36.4035 38.0307 36.3342 38.4101 36.2876 38.7925C36.2952 38.8124 36.8177 39.3539 37.2343 39.7969C37.4643 40.0402 37.6641 40.2551 37.7303 40.3394C37.9178 40.576 37.7843 40.6338 37.1311 40.6792Z" fill="url(#paint23_linear_1_10821)"/>
<path d="M36.653 37.0895C36.5944 37.2646 36.5413 37.4596 36.495 37.6575C35.66 38.0219 35.2331 39.0368 35.5956 39.7932L34.9263 39.8452C34.9775 39.6198 35.0449 39.3983 35.128 39.1826C35.1923 39.0055 35.2454 38.8721 35.2454 38.8645C35.2454 38.8569 35.2766 38.5133 35.305 38.2245C35.4959 38.0121 35.6644 37.7805 35.8077 37.5335C35.997 37.2192 36.3047 37.1273 36.653 37.0895Z" fill="url(#paint24_linear_1_10821)"/>
<path d="M37.132 40.6783C36.4788 40.7228 34.9698 40.2826 34.9121 40.0554C34.8761 39.9124 35.0172 39.4827 35.1279 39.1807C35.926 39.8386 36.8149 40.0412 37.0866 40.0554C37.2494 40.0639 37.2759 39.9503 37.2371 39.7969C37.4671 40.0402 37.6669 40.2561 37.7322 40.3394C37.9178 40.576 37.7843 40.6338 37.132 40.6783Z" fill="url(#paint25_linear_1_10821)"/>
<path d="M33.0529 38.7849C32.0513 38.7186 31.5382 39.741 30.6862 39.7903C32.5142 38.9866 33.4429 36.1929 33.8367 36.0614C34.1823 35.9459 33.4249 37.6148 33.0529 38.7849Z" fill="url(#paint26_linear_1_10821)"/>
<path d="M33.0699 31.4947C33.2839 29.412 33.7998 27.9977 34.1113 26.9781C33.8452 28.3593 33.4959 30.7648 33.3681 32.1091C33.1939 33.9125 32.7348 34.8715 31.6982 36.7137C30.7127 38.465 30.388 38.9156 30.6465 39.7913C30.4023 39.7901 30.1627 39.7248 29.9516 39.6019C30.1286 37.7361 32.7121 34.9737 33.0699 31.4947Z" fill="url(#paint27_linear_1_10821)"/>
<path d="M34.3413 26.0023C34.3413 25.9909 34.3413 25.9795 34.3413 25.969C34.3413 25.9586 34.3508 25.9785 34.3413 26.0023Z" fill="url(#paint28_linear_1_10821)"/>
<path d="M40.7407 33.2081C40.7407 33.2081 40.6461 34.7436 39.7988 34.8174C39.0481 34.8865 39.0415 35.4593 38.5681 36.2317C38.5445 36.2705 38.5208 36.3094 38.4943 36.3491C38.4555 36.4088 38.4138 36.4693 38.3674 36.5309C38.1251 36.8565 37.7994 36.9711 37.453 37.0213C37.3043 37.0411 37.1529 37.0515 37.0033 37.061C37.8913 36.4504 37.8704 35.3901 38.3674 34.8297C38.9629 34.1585 37.9064 31.1462 38.3674 30.6473C38.8285 30.1485 39.1153 32.5662 39.7874 33.0841C40.1841 33.3908 40.4804 33.1002 40.6338 32.5568C40.6812 32.7718 40.7169 32.9892 40.7407 33.2081Z" fill="url(#paint29_linear_1_10821)"/>
<path d="M39.7183 24.0946C39.6918 24.246 39.6028 24.0482 39.3955 23.9999C39.24 23.9799 39.0822 23.9882 38.9297 24.0245L38.8862 24.0321C38.6524 24.0756 38.3561 24.1409 37.9963 24.2214C37.2702 24.3729 35.5426 24.6559 35.1412 24.4107C34.7398 24.1656 33.0093 20.6269 33.672 20.0977C33.9039 19.916 34.1178 19.9084 34.3166 20.0343C34.8572 20.3779 35.2898 21.7023 35.6855 23.1583C36.2876 23.1204 38.5852 23.518 38.5852 23.518C38.6774 23.4904 38.7729 23.4748 38.8692 23.4716C39.0134 23.4617 39.158 23.4844 39.2923 23.5379C39.636 23.679 39.7458 23.945 39.7183 24.0946Z" fill="url(#paint30_linear_1_10821)"/>
<g style="mix-blend-mode:overlay" opacity="0.15">
<path d="M38.8853 24.0283C38.6524 24.0709 38.3551 24.1372 37.9954 24.2176C37.2693 24.3691 35.5416 24.6522 35.1402 24.407C34.7389 24.1618 33.0093 20.6269 33.672 20.0987C33.9029 19.916 34.1169 19.9094 34.3157 20.0343C33.8424 19.9453 33.76 20.253 33.7534 20.9024C33.7449 21.6484 35.1999 24.2262 35.3409 24.2943C35.482 24.3625 37.9414 23.7613 38.8853 24.0283Z" fill="black"/>
</g>
<path d="M39.7184 24.0946C39.6919 24.246 39.6029 24.0482 39.3955 23.9999C39.2401 23.9799 39.0823 23.9882 38.9298 24.0245C39.0614 23.9298 39.1788 23.8352 39.1882 23.7727C39.2053 23.6657 39.0936 23.5483 38.8711 23.4726C39.0153 23.4627 39.1599 23.4853 39.2943 23.5389C39.636 23.679 39.7458 23.945 39.7184 24.0946Z" fill="url(#paint31_linear_1_10821)"/>
<g style="mix-blend-mode:overlay" opacity="0.25">
<path d="M33.956 17.4054C33.8239 17.5235 33.6586 17.5982 33.4827 17.6194C33.7667 17.5465 33.8415 17.3354 33.8784 17.111C33.9267 16.8204 33.7591 16.5724 33.7099 16.4237C33.6606 16.2751 33.9125 16.2893 33.7544 16.1984C33.5963 16.1075 33.4704 15.8917 33.2981 15.691C33.1797 15.5518 33.1286 15.3663 33.1873 15.2764C33.3245 15.4459 33.4341 15.636 33.512 15.8396C33.5707 15.9542 33.8841 16.1236 33.9409 16.2287C33.9977 16.3338 33.832 16.3811 33.832 16.3811C33.832 16.3811 34.2012 17.1489 33.956 17.4054Z" fill="white"/>
</g>
<g style="mix-blend-mode:overlay" opacity="0.25">
<path d="M38.694 39.3283C38.2908 39.6445 38.2671 39.8348 38.5473 40.0459C38.2377 40.0203 38.021 39.9351 38.074 39.7458C38.1686 39.4201 39.0585 38.9298 39.4854 38.5492C39.7183 38.7925 39.2156 38.9193 38.694 39.3283Z" fill="white"/>
</g>
<path d="M40.8903 23.1687C40.8903 23.1687 40.2901 23.4603 40.2097 23.6714C40.1292 23.8825 39.9257 24.2564 39.5745 24.3094C39.4892 24.3224 39.4032 24.3303 39.317 24.3331C39.1276 24.3331 39.0102 24.3019 38.962 24.2564C38.8947 24.1939 39.0566 24.0983 39.2024 23.997C39.3482 23.8957 39.7335 23.4849 39.5953 23.4111C39.4571 23.3372 39.2403 23.5947 39.1352 23.6004C39.0301 23.6061 39.1352 23.5379 39.3245 23.2454C39.4694 23.0248 39.8556 22.9131 40.133 22.7844C40.2134 22.7507 40.2886 22.7057 40.3564 22.6509L40.8903 23.1687Z" fill="url(#paint32_linear_1_10821)"/>
<g style="mix-blend-mode:overlay" opacity="0.25">
<path d="M40.8903 23.1686C40.8903 23.1686 40.2901 23.4602 40.2097 23.6713C40.1292 23.8824 39.9257 24.2563 39.5744 24.3093C39.4892 24.3223 39.4032 24.3302 39.317 24.333C39.7543 24.2042 40.0894 23.7385 40.1614 23.4933C40.2333 23.2481 40.1614 23.0389 40.1349 22.788C40.2153 22.7543 40.2905 22.7094 40.3583 22.6545L40.8903 23.1686Z" fill="black"/>
</g>
<path d="M43.7635 19.6765C43.8401 21.0161 41.1507 23.4111 40.8468 23.4111C40.8104 23.4111 40.7744 23.404 40.7408 23.3903C40.5003 23.3051 40.2835 22.9577 40.2419 22.7485C40.2361 22.7269 40.2332 22.7046 40.2333 22.6822C40.896 21.7355 42.0623 20.29 42.1901 19.6529C41.6581 18.6608 41.0333 17.4254 40.6754 16.5421C40.5442 16.2485 40.4473 15.9407 40.3867 15.6248C40.3261 15.0918 40.7578 14.6128 41.3267 14.5172C41.3581 14.5355 41.3865 14.5585 41.411 14.5854C41.6359 14.8913 41.8399 15.212 42.0216 15.5453C42.7136 16.7438 43.7067 18.7195 43.7635 19.6765Z" fill="url(#paint33_linear_1_10821)"/>
<g style="mix-blend-mode:overlay" opacity="0.25">
<path d="M43.7634 19.6765C43.8401 21.016 41.1506 23.4111 40.8467 23.4111C40.8104 23.411 40.7744 23.4039 40.7407 23.3902C41.8048 22.6329 43.5003 20.0769 43.541 19.6168C43.5855 19.098 42.8433 17.431 42.3056 16.5676C41.9922 16.064 41.9458 15.7232 42.0216 15.5424C42.7136 16.7437 43.7066 18.7194 43.7634 19.6765Z" fill="black"/>
</g>
<g style="mix-blend-mode:overlay" opacity="0.15">
<path d="M24.5083 35.8C24.5083 36.0272 22.4323 36.2109 19.8696 36.2109C17.307 36.2109 15.231 36.0272 15.231 35.8C15.231 35.5728 17.307 35.3892 19.8696 35.3892C22.4323 35.3892 24.5083 35.5728 24.5083 35.8Z" fill="black"/>
</g>
<g style="mix-blend-mode:overlay" opacity="0.15">
<path d="M11.7302 43.8004C14.899 43.8004 17.4679 43.5728 17.4679 43.2921C17.4679 43.0113 14.899 42.7837 11.7302 42.7837C8.56131 42.7837 5.99243 43.0113 5.99243 43.2921C5.99243 43.5728 8.56131 43.8004 11.7302 43.8004Z" fill="black"/>
</g>
<g style="mix-blend-mode:overlay" opacity="0.15">
<path d="M60.5876 35.8C60.5876 36.0272 58.5116 36.2109 55.949 36.2109C53.3863 36.2109 51.3103 36.0272 51.3103 35.8C51.3103 35.5728 53.3863 35.3892 55.949 35.3892C58.5116 35.3892 60.5876 35.5728 60.5876 35.8Z" fill="black"/>
</g>
<g style="mix-blend-mode:overlay" opacity="0.15">
<path d="M65.2405 43.8004C68.4094 43.8004 70.9782 43.5728 70.9782 43.2921C70.9782 43.0113 68.4094 42.7837 65.2405 42.7837C62.0716 42.7837 59.5027 43.0113 59.5027 43.2921C59.5027 43.5728 62.0716 43.8004 65.2405 43.8004Z" fill="black"/>
</g>
<path d="M22.7342 26.0692C21.9674 26.499 21.3142 28.5788 21.3142 28.5788" stroke="#473838" stroke-miterlimit="10"/>
<path d="M20.7614 26.5067C20.8882 26.8437 21.4051 28.7503 21.4051 28.7503C21.4051 28.7503 22.2003 27.709 22.6831 27.6626" stroke="#473838" stroke-miterlimit="10"/>
<path d="M23.3041 35.5474H19.506C19.506 35.5474 19.5827 35.1895 19.6954 34.6424C20.0125 33.0841 20.6117 29.9895 20.5284 29.2577C20.466 28.7039 20.3098 28.383 20.1839 28.2069C20.1707 28.1893 20.1626 28.1684 20.1607 28.1465C20.1587 28.1247 20.1629 28.1026 20.1727 28.083C20.1825 28.0633 20.1976 28.0468 20.2163 28.0353C20.235 28.0237 20.2565 28.0176 20.2785 28.0176H22.5316C22.5536 28.0176 22.5751 28.0237 22.5938 28.0353C22.6125 28.0468 22.6276 28.0633 22.6374 28.083C22.6473 28.1026 22.6514 28.1247 22.6494 28.1465C22.6475 28.1684 22.6394 28.1893 22.6263 28.2069C22.5003 28.383 22.3423 28.7049 22.2807 29.2577C22.2192 29.8106 22.5448 31.7134 22.8487 33.282C23.0835 34.5183 23.3041 35.5474 23.3041 35.5474Z" fill="#052B4E"/>
<path d="M20.6175 26.4935C20.5341 26.2738 20.164 25.8308 20.3836 25.6008C20.6033 25.3707 20.7538 26.0249 20.7623 26.2634C20.821 25.9605 20.7519 25.5799 20.9422 25.6093C21.1324 25.6386 21.1987 25.88 21.0302 26.1555C21.3142 26.0438 21.5234 26.0873 21.4846 26.288C21.4458 26.4887 21.0747 26.4679 21.0747 26.4679C21.0747 26.4679 21.5868 26.5559 21.567 26.7273C21.5471 26.8986 21.0643 26.7169 21.0302 26.6733C20.9961 26.6298 21.6115 27.2196 21.3577 27.336C21.104 27.4524 20.892 27.3587 20.8664 26.98C20.7935 27.3019 20.5199 27.5121 20.4073 27.248C20.2946 26.9838 20.608 26.8191 20.608 26.8191C20.608 26.8191 20.1735 26.9261 20.11 26.6184C20.0466 26.3108 20.4414 26.3865 20.6175 26.4935Z" fill="#FFCE58"/>
<path d="M21.0378 26.5454C21.0378 26.5889 21.0249 26.6313 21.0007 26.6674C20.9766 26.7036 20.9423 26.7317 20.9022 26.7483C20.8621 26.765 20.8179 26.7693 20.7753 26.7608C20.7327 26.7524 20.6936 26.7314 20.6628 26.7007C20.6321 26.67 20.6112 26.6309 20.6027 26.5883C20.5943 26.5457 20.5986 26.5015 20.6152 26.4614C20.6319 26.4213 20.66 26.387 20.6961 26.3628C20.7322 26.3387 20.7747 26.3258 20.8181 26.3258C20.8764 26.3258 20.9322 26.3489 20.9734 26.3901C21.0146 26.4313 21.0378 26.4872 21.0378 26.5454Z" fill="#052B4E"/>
<path d="M20.2142 28.5637C20.0031 28.6669 19.6007 29.0778 19.347 28.8818C19.0933 28.6858 19.7342 28.4719 19.9718 28.4397C19.6651 28.4104 19.2921 28.5145 19.3035 28.3223C19.3148 28.1302 19.5487 28.0383 19.8393 28.1822C19.7001 27.9067 19.7238 27.6985 19.9273 27.7184C20.1309 27.7382 20.146 28.1093 20.146 28.1093C20.146 28.1093 20.1848 27.5906 20.3562 27.5934C20.5275 27.5962 20.394 28.0951 20.3562 28.133C20.3183 28.1709 20.8447 27.5035 20.9857 27.7449C21.1268 27.9863 21.0491 28.2087 20.678 28.2693C21.0056 28.311 21.2404 28.5637 20.9885 28.7C20.7367 28.8364 20.5417 28.542 20.5417 28.542C20.5417 28.542 20.6903 28.9642 20.3903 29.056C20.0902 29.1478 20.1233 28.7483 20.2142 28.5637Z" fill="#FFCE58"/>
<path d="M20.2293 28.1405C20.2725 28.1364 20.316 28.1452 20.3543 28.1658C20.3925 28.1864 20.4238 28.2179 20.4441 28.2563C20.4645 28.2946 20.473 28.3382 20.4686 28.3814C20.4642 28.4246 20.4471 28.4655 20.4194 28.499C20.3917 28.5325 20.3548 28.557 20.3132 28.5695C20.2716 28.582 20.2272 28.5819 20.1857 28.5691C20.1441 28.5564 20.1073 28.5316 20.0799 28.498C20.0524 28.4643 20.0356 28.4233 20.0314 28.38C20.0287 28.3513 20.0317 28.3223 20.0401 28.2947C20.0486 28.2672 20.0624 28.2415 20.0808 28.2193C20.0991 28.197 20.1217 28.1786 20.1472 28.1651C20.1727 28.1516 20.2006 28.1432 20.2293 28.1405Z" fill="#052B4E"/>
<path d="M22.6983 26.1686C22.4644 26.1895 21.9409 26.4271 21.7753 26.1526C21.6096 25.878 22.2846 25.9102 22.5175 25.9632C22.242 25.825 21.8548 25.7871 21.9362 25.612C22.0176 25.4369 22.2666 25.4388 22.4862 25.6754C22.4559 25.3678 22.5534 25.1822 22.7361 25.274C22.9188 25.3659 22.7986 25.718 22.7986 25.718C22.7986 25.718 23.022 25.2447 23.1773 25.3129C23.3325 25.381 23.0324 25.7947 22.9804 25.8155C22.9283 25.8364 23.6639 25.4037 23.7084 25.6802C23.7529 25.9566 23.6004 26.1365 23.235 26.0588C23.5257 26.2169 23.6535 26.5322 23.3695 26.5738C23.0855 26.6155 23.0107 26.2652 23.0107 26.2652C23.0107 26.2652 22.9965 26.712 22.6831 26.6903C22.3698 26.6685 22.5477 26.3088 22.6983 26.1686Z" fill="#FFCE58"/>
<path d="M22.862 25.7788C22.9038 25.7905 22.9412 25.8143 22.9695 25.8473C22.9978 25.8803 23.0156 25.9209 23.0208 25.964C23.026 26.0071 23.0183 26.0508 22.9987 26.0896C22.979 26.1283 22.9483 26.1604 22.9105 26.1817C22.8726 26.203 22.8293 26.2126 22.786 26.2093C22.7427 26.206 22.7014 26.1899 22.6672 26.1631C22.633 26.1363 22.6076 26.0999 22.594 26.0587C22.5805 26.0174 22.5795 25.973 22.5912 25.9312C22.6071 25.8752 22.6445 25.8278 22.6952 25.7992C22.7459 25.7707 22.8059 25.7633 22.862 25.7788Z" fill="#052B4E"/>
<path d="M22.8326 27.6124C23.0532 27.6938 23.6278 27.7014 23.661 28.0214C23.6941 28.3414 23.093 28.0214 22.9103 27.8737C23.0996 28.116 23.4328 28.3139 23.2889 28.4417C23.145 28.5695 22.9169 28.4568 22.8156 28.1492C22.7115 28.4408 22.5439 28.5667 22.418 28.4057C22.2921 28.2448 22.5505 27.9778 22.5505 27.9778C22.5505 27.9778 22.1482 28.3073 22.0318 28.1804C21.9153 28.0536 22.3688 27.8074 22.4246 27.8103C22.4805 27.8131 21.6313 27.8907 21.7089 27.6209C21.7866 27.3511 22.0015 27.2536 22.3006 27.4818C22.1056 27.2158 22.1264 26.8712 22.3953 26.9592C22.6641 27.0473 22.5846 27.3918 22.5846 27.3918C22.5846 27.3918 22.7881 26.9933 23.0579 27.1476C23.3277 27.3019 23.0286 27.548 22.8326 27.6124Z" fill="#FFCE58"/>
<path d="M22.5184 27.8956C22.4855 27.8671 22.4619 27.8295 22.4504 27.7876C22.4389 27.7457 22.4402 27.7013 22.4539 27.6601C22.4677 27.6189 22.4933 27.5827 22.5277 27.5561C22.562 27.5294 22.6035 27.5136 22.6468 27.5106C22.6902 27.5075 22.7335 27.5174 22.7712 27.5389C22.8089 27.5605 22.8394 27.5928 22.8588 27.6316C22.8782 27.6705 22.8856 27.7143 22.8801 27.7574C22.8746 27.8005 22.8565 27.841 22.8279 27.8738C22.8091 27.8956 22.7861 27.9135 22.7603 27.9265C22.7346 27.9394 22.7065 27.9471 22.6777 27.9491C22.6489 27.9511 22.62 27.9474 22.5927 27.9383C22.5653 27.9291 22.5401 27.9146 22.5184 27.8956Z" fill="#052B4E"/>
<path d="M54.2657 26.0692C55.0325 26.499 55.6857 28.5788 55.6857 28.5788" stroke="#473838" stroke-miterlimit="10"/>
<path d="M56.2386 26.5067C56.1118 26.8437 55.5949 28.7503 55.5949 28.7503C55.5949 28.7503 54.7997 27.709 54.3169 27.6626" stroke="#473838" stroke-miterlimit="10"/>
<path d="M57.4939 35.5474H53.6959C53.6959 35.5474 53.9306 34.4483 54.1768 33.157C54.4702 31.614 54.7788 29.7964 54.7173 29.2577C54.6558 28.7191 54.4977 28.383 54.3718 28.2069C54.3586 28.1893 54.3506 28.1684 54.3486 28.1465C54.3466 28.1247 54.3508 28.1026 54.3606 28.083C54.3704 28.0633 54.3855 28.0468 54.4042 28.0353C54.4229 28.0237 54.4445 28.0176 54.4664 28.0176H56.7195C56.7415 28.0176 56.763 28.0237 56.7817 28.0353C56.8004 28.0468 56.8155 28.0633 56.8254 28.083C56.8352 28.1026 56.8393 28.1247 56.8374 28.1465C56.8354 28.1684 56.8274 28.1893 56.8142 28.2069C56.6883 28.383 56.5302 28.7039 56.4696 29.2577C56.3967 29.8967 56.8483 32.3344 57.1701 33.9797C57.3519 34.8828 57.4939 35.5474 57.4939 35.5474Z" fill="#052B4E"/>
<path d="M56.3825 26.4935C56.4658 26.2738 56.836 25.8308 56.6163 25.6008C56.3967 25.3707 56.2462 26.0249 56.2377 26.2634C56.179 25.9605 56.2481 25.5799 56.0578 25.6093C55.8675 25.6386 55.8012 25.88 55.9698 26.1555C55.6858 26.0438 55.4765 26.0873 55.5154 26.288C55.5542 26.4887 55.9253 26.4679 55.9253 26.4679C55.9253 26.4679 55.4131 26.5559 55.433 26.7273C55.4529 26.8986 55.9357 26.7169 55.9698 26.6733C56.0038 26.6298 55.3885 27.2196 55.6422 27.336C55.8959 27.4524 56.1155 27.3559 56.1354 26.98C56.2083 27.3019 56.4819 27.5121 56.5946 27.248C56.7072 26.9838 56.3939 26.8191 56.3939 26.8191C56.3939 26.8191 56.8284 26.9261 56.8918 26.6184C56.9552 26.3108 56.5586 26.3865 56.3825 26.4935Z" fill="#FFCE58"/>
<path d="M55.9622 26.5454C55.9622 26.5889 55.9751 26.6313 55.9992 26.6674C56.0234 26.7036 56.0577 26.7317 56.0978 26.7483C56.1379 26.765 56.1821 26.7693 56.2247 26.7608C56.2673 26.7524 56.3064 26.7314 56.3371 26.7007C56.3679 26.67 56.3888 26.6309 56.3973 26.5883C56.4057 26.5457 56.4014 26.5015 56.3848 26.4614C56.3681 26.4213 56.34 26.387 56.3039 26.3628C56.2677 26.3387 56.2253 26.3258 56.1818 26.3258C56.153 26.3258 56.1244 26.3315 56.0978 26.3425C56.0711 26.3536 56.0469 26.3697 56.0265 26.3901C56.0062 26.4105 55.99 26.4347 55.9789 26.4614C55.9679 26.488 55.9622 26.5166 55.9622 26.5454Z" fill="#473838"/>
<path d="M56.7858 28.5637C56.9969 28.6669 57.3993 29.0778 57.653 28.8818C57.9067 28.6858 57.2658 28.4719 57.0282 28.4397C57.3349 28.4104 57.7079 28.5145 57.6965 28.3223C57.6852 28.1302 57.4513 28.0383 57.1607 28.1822C57.2999 27.9067 57.2762 27.6985 57.0727 27.7184C56.8691 27.7382 56.854 28.1093 56.854 28.1093C56.854 28.1093 56.8152 27.5906 56.6438 27.5934C56.4725 27.5962 56.606 28.0951 56.6438 28.133C56.6817 28.1709 56.1553 27.5035 56.0143 27.7449C55.8732 27.9863 55.9509 28.2087 56.322 28.2693C55.9944 28.311 55.7596 28.5637 56.0114 28.7C56.2633 28.8364 56.4583 28.542 56.4583 28.542C56.4583 28.542 56.3096 28.9642 56.6097 29.056C56.9098 29.1478 56.8767 28.7483 56.7858 28.5637Z" fill="#FFCE58"/>
<path d="M56.7707 28.1405C56.7274 28.1364 56.684 28.1452 56.6457 28.1658C56.6075 28.1864 56.5762 28.2179 56.5559 28.2563C56.5355 28.2946 56.527 28.3382 56.5314 28.3814C56.5358 28.4246 56.5529 28.4655 56.5806 28.499C56.6082 28.5325 56.6452 28.557 56.6868 28.5695C56.7284 28.582 56.7728 28.5819 56.8143 28.5691C56.8558 28.5564 56.8926 28.5316 56.9201 28.498C56.9476 28.4643 56.9644 28.4233 56.9685 28.38C56.9713 28.3513 56.9683 28.3223 56.9599 28.2947C56.9514 28.2672 56.9376 28.2415 56.9192 28.2193C56.9009 28.197 56.8783 28.1786 56.8528 28.1651C56.8273 28.1516 56.7994 28.1432 56.7707 28.1405Z" fill="#473838"/>
<path d="M54.3017 26.1686C54.5356 26.1895 55.0591 26.4271 55.2247 26.1526C55.3904 25.878 54.7154 25.9102 54.4825 25.9632C54.758 25.825 55.1452 25.7871 55.0638 25.612C54.9824 25.4369 54.7334 25.4388 54.5138 25.6754C54.5441 25.3678 54.4466 25.1822 54.2639 25.274C54.0812 25.3659 54.2014 25.718 54.2014 25.718C54.2014 25.718 53.978 25.2447 53.8227 25.3129C53.6675 25.381 53.9676 25.7947 54.0196 25.8155C54.0717 25.8364 53.3361 25.4037 53.2916 25.6802C53.2471 25.9566 53.3996 26.1365 53.765 26.0588C53.4743 26.2169 53.3465 26.5322 53.6305 26.5738C53.9145 26.6155 53.9893 26.2652 53.9893 26.2652C53.9893 26.2652 54.0035 26.712 54.3169 26.6903C54.6302 26.6685 54.4522 26.3088 54.3017 26.1686Z" fill="#FFCE58"/>
<path d="M54.138 25.7788C54.0962 25.7905 54.0588 25.8143 54.0305 25.8473C54.0022 25.8803 53.9844 25.9209 53.9792 25.964C53.974 26.0071 53.9817 26.0508 54.0013 26.0896C54.021 26.1283 54.0516 26.1604 54.0895 26.1817C54.1273 26.203 54.1707 26.2126 54.214 26.2093C54.2573 26.206 54.2986 26.1899 54.3328 26.1631C54.367 26.1363 54.3924 26.0999 54.4059 26.0587C54.4195 26.0174 54.4204 25.973 54.4088 25.9312C54.3929 25.8752 54.3555 25.8278 54.3048 25.7992C54.2541 25.7707 54.1941 25.7633 54.138 25.7788Z" fill="#473838"/>
<path d="M54.1674 27.6124C53.9468 27.6938 53.3722 27.7014 53.339 28.0214C53.3059 28.3414 53.907 28.0214 54.0897 27.8737C53.9004 28.116 53.5672 28.3139 53.7111 28.4417C53.855 28.5695 54.0831 28.4568 54.1844 28.1492C54.2885 28.4408 54.4561 28.5667 54.582 28.4057C54.7079 28.2448 54.4495 27.9778 54.4495 27.9778C54.4495 27.9778 54.8518 28.3073 54.9682 28.1804C55.0847 28.0536 54.6312 27.8074 54.5754 27.8103C54.5195 27.8131 55.3687 27.8907 55.2911 27.6209C55.2134 27.3511 54.9985 27.2536 54.6994 27.4818C54.8944 27.2158 54.8736 26.8712 54.6047 26.9592C54.3359 27.0473 54.4154 27.3918 54.4154 27.3918C54.4154 27.3918 54.2119 26.9933 53.9421 27.1476C53.6723 27.3019 53.9714 27.548 54.1674 27.6124Z" fill="#FFCE58"/>
<path d="M54.4816 27.8956C54.5144 27.8671 54.5381 27.8295 54.5496 27.7876C54.561 27.7457 54.5598 27.7013 54.5461 27.6601C54.5323 27.6189 54.5066 27.5827 54.4723 27.5561C54.438 27.5294 54.3965 27.5136 54.3531 27.5106C54.3098 27.5075 54.2665 27.5174 54.2288 27.5389C54.1911 27.5605 54.1606 27.5928 54.1412 27.6316C54.1218 27.6705 54.1144 27.7143 54.1199 27.7574C54.1254 27.8005 54.1435 27.841 54.172 27.8738C54.1909 27.8956 54.2139 27.9135 54.2396 27.9265C54.2654 27.9394 54.2935 27.9471 54.3223 27.9491C54.3511 27.9511 54.38 27.9474 54.4073 27.9383C54.4346 27.9291 54.4599 27.9146 54.4816 27.8956Z" fill="#473838"/>
<path d="M64.2551 26.2067C65.6363 26.982 66.8111 30.7308 66.8111 30.7308" stroke="#473838" stroke-width="1.8" stroke-miterlimit="10"/>
<path d="M67.8107 26.9971C67.5826 27.6058 66.6501 31.0422 66.6501 31.0422C66.6501 31.0422 65.2169 29.1574 64.3441 29.0807" stroke="#473838" stroke-width="1.8" stroke-miterlimit="10"/>
<path d="M70.0732 43.2921H63.2269C63.2269 43.2921 63.4674 42.1694 63.7741 40.6216C64.114 38.9176 64.5314 36.6901 64.8069 34.8857C65.0067 33.5547 65.125 32.4528 65.0682 31.951C65.0406 31.692 64.995 31.4351 64.9319 31.1824C64.842 30.7803 64.6772 30.3988 64.4462 30.0577C64.4234 30.0259 64.4098 29.9884 64.407 29.9493C64.4041 29.9102 64.4121 29.8712 64.43 29.8363C64.4479 29.8015 64.475 29.7723 64.5085 29.7519C64.5419 29.7315 64.5803 29.7207 64.6195 29.7207H68.6807C68.7198 29.7207 68.7582 29.7315 68.7917 29.7519C68.8251 29.7723 68.8523 29.8015 68.8702 29.8363C68.8881 29.8712 68.896 29.9102 68.8932 29.9493C68.8903 29.9884 68.8767 30.0259 68.8539 30.0577C68.6267 30.3739 68.3456 30.9533 68.232 31.951C68.0758 33.318 69.2402 39.2461 69.793 41.9431C69.9615 42.7696 70.0732 43.2921 70.0732 43.2921Z" fill="#052B4E"/>
<path d="M68.0701 26.9724C68.2197 26.5758 68.888 25.7843 68.4923 25.3631C68.0966 24.9418 67.824 26.1289 67.806 26.5597C67.7009 26.0144 67.824 25.329 67.4813 25.3811C67.1386 25.4331 67.0193 25.8686 67.3222 26.3656C66.8035 26.164 66.4343 26.2425 66.5043 26.6032C66.5744 26.9639 67.2437 26.9289 67.2437 26.9289C67.2437 26.9289 66.3197 27.087 66.3547 27.3956C66.3898 27.7042 67.2607 27.3776 67.3222 27.3009C67.3838 27.2242 66.2752 28.2826 66.7334 28.4946C67.1916 28.7067 67.5778 28.5297 67.6214 27.8528C67.7539 28.4331 68.2462 28.8118 68.4488 28.3365C68.6513 27.8613 68.0881 27.5622 68.0881 27.5622C68.0881 27.5622 68.871 27.7562 68.9855 27.2015C69.1001 26.6467 68.3872 26.7783 68.0701 26.9724Z" fill="#FFCE58"/>
<path d="M67.3137 27.0662C67.3137 27.1445 67.3369 27.221 67.3804 27.2861C67.4239 27.3512 67.4857 27.4019 67.558 27.4318C67.6303 27.4618 67.7099 27.4696 67.7866 27.4543C67.8634 27.4391 67.9339 27.4014 67.9892 27.346C68.0446 27.2907 68.0823 27.2202 68.0975 27.1434C68.1128 27.0667 68.105 26.9871 68.075 26.9148C68.0451 26.8425 67.9943 26.7807 67.9293 26.7372C67.8642 26.6937 67.7877 26.6705 67.7094 26.6705C67.6045 26.6705 67.5038 26.7122 67.4296 26.7864C67.3554 26.8606 67.3137 26.9613 67.3137 27.0662Z" fill="#052B4E"/>
<path d="M68.7981 30.7032C69.1768 30.8926 69.9029 31.631 70.3601 31.2769C70.8173 30.9229 69.6624 30.5385 69.2345 30.4798C69.7883 30.4268 70.4595 30.6142 70.4396 30.2678C70.4197 29.9213 69.9975 29.7622 69.474 30.0169C69.7249 29.519 69.6804 29.1441 69.315 29.1791C68.9496 29.2141 68.9202 29.8844 68.9202 29.8844C68.9202 29.8844 68.8511 28.9491 68.5416 28.9547C68.232 28.9604 68.4725 29.8588 68.5416 29.9279C68.6107 29.997 67.6602 28.7919 67.4056 29.2274C67.1509 29.6628 67.2901 30.0642 67.9603 30.174C67.3696 30.2498 66.9464 30.7042 67.3999 30.9503C67.8533 31.1964 68.2045 30.6663 68.2045 30.6663C68.2045 30.6663 67.9376 31.4236 68.4781 31.594C69.0187 31.7644 68.9609 31.0365 68.7981 30.7032Z" fill="#FFCE58"/>
<path d="M68.7773 29.9403C68.6994 29.9328 68.621 29.9486 68.552 29.9856C68.4831 30.0227 68.4267 30.0793 68.3899 30.1484C68.3532 30.2175 68.3378 30.296 68.3456 30.3739C68.3535 30.4517 68.3842 30.5255 68.434 30.5859C68.4838 30.6463 68.5504 30.6906 68.6254 30.7131C68.7003 30.7357 68.7803 30.7355 68.8551 30.7126C68.93 30.6897 68.9963 30.6451 69.0458 30.5845C69.0953 30.5238 69.1258 30.4499 69.1332 30.372C69.143 30.2676 69.111 30.1636 69.0443 30.0827C68.9776 30.0018 68.8816 29.9506 68.7773 29.9403Z" fill="#052B4E"/>
<path d="M64.3194 26.3864C64.7406 26.4233 65.6845 26.8531 65.9836 26.358C66.2827 25.8629 65.0663 25.9216 64.646 26.021C65.143 25.772 65.8369 25.7048 65.693 25.3886C65.5491 25.0724 65.0985 25.0762 64.7018 25.5022C64.7558 24.9484 64.5797 24.6142 64.2512 24.779C63.9227 24.9437 64.1386 25.5789 64.1386 25.5789C64.1386 25.5789 63.7362 24.7326 63.4494 24.849C63.1625 24.9655 63.7107 25.7171 63.8034 25.755C63.8962 25.7928 62.5728 25.0137 62.4923 25.5107C62.4118 26.0077 62.6873 26.3334 63.3509 26.1923C62.8284 26.4763 62.5936 27.0538 63.1086 27.1201C63.6236 27.1863 63.757 26.5634 63.757 26.5634C63.757 26.5634 63.7826 27.369 64.3468 27.3293C64.911 27.2895 64.5911 26.6392 64.3194 26.3864Z" fill="#FFCE58"/>
<path d="M64.024 25.683C63.9487 25.7043 63.8814 25.7473 63.8306 25.8068C63.7798 25.8662 63.7477 25.9394 63.7384 26.0171C63.7292 26.0947 63.7431 26.1734 63.7786 26.2431C63.814 26.3129 63.8693 26.3706 63.9375 26.4089C64.0057 26.4472 64.0837 26.4645 64.1617 26.4585C64.2397 26.4525 64.3141 26.4235 64.3757 26.3752C64.4372 26.3269 64.483 26.2615 64.5074 26.1871C64.5318 26.1128 64.5335 26.0329 64.5125 25.9576C64.4985 25.9074 64.4748 25.8606 64.4427 25.8196C64.4105 25.7787 64.3706 25.7445 64.3252 25.719C64.2799 25.6935 64.2299 25.6772 64.1782 25.671C64.1265 25.6648 64.0741 25.6689 64.024 25.683Z" fill="#052B4E"/>
<path d="M64.077 28.9898C63.6813 29.1356 62.64 29.1498 62.5841 29.7253C62.5283 30.3009 63.6009 29.7253 63.9379 29.4593C63.5952 29.8967 62.9912 30.2536 63.261 30.4779C63.5308 30.7023 63.9312 30.5063 64.113 29.9516C64.3023 30.477 64.6024 30.7032 64.8287 30.4145C65.0549 30.1258 64.5901 29.643 64.5901 29.643C64.5901 29.643 65.3153 30.2365 65.5254 30.0084C65.7356 29.7802 64.9177 29.3353 64.8173 29.341C64.717 29.3467 66.2477 29.4858 66.1076 29.0021C65.9675 28.5183 65.5803 28.3394 65.0398 28.7512C65.3919 28.2712 65.355 27.6512 64.8637 27.8102C64.3724 27.9693 64.5153 28.5893 64.5153 28.5893C64.5153 28.5893 64.148 27.8718 63.6548 28.1482C63.1616 28.4246 63.723 28.8733 64.077 28.9898Z" fill="#FFCE58"/>
<path d="M64.6441 29.5001C64.7032 29.4488 64.7458 29.3811 64.7664 29.3056C64.787 29.2302 64.7849 29.1503 64.7601 29.076C64.7353 29.0018 64.6891 28.9366 64.6273 28.8886C64.5655 28.8407 64.4909 28.8121 64.4128 28.8065C64.3348 28.801 64.2568 28.8187 64.1888 28.8574C64.1209 28.8962 64.0659 28.9542 64.0309 29.0241C63.9958 29.0941 63.9824 29.1729 63.9921 29.2505C64.0018 29.3282 64.0344 29.4012 64.0856 29.4603C64.1545 29.5395 64.252 29.5881 64.3567 29.5956C64.4613 29.603 64.5647 29.5687 64.6441 29.5001Z" fill="#052B4E"/>
<path d="M8.30981 26.2067C9.691 26.982 10.8658 30.7308 10.8658 30.7308" stroke="#473838" stroke-width="1.8" stroke-miterlimit="10"/>
<path d="M11.8655 26.9971C11.6374 27.6058 10.7049 31.0422 10.7049 31.0422C10.7049 31.0422 9.27166 29.1574 8.40167 29.0807" stroke="#473838" stroke-width="1.8" stroke-miterlimit="10"/>
<path d="M14.128 43.292H7.28174C7.28174 43.292 9.32559 33.7383 9.12301 31.9547C9.01035 30.957 8.72825 30.3785 8.50105 30.0614C8.47851 30.0296 8.46514 29.9922 8.46242 29.9532C8.45969 29.9143 8.4677 29.8754 8.48557 29.8407C8.50344 29.8061 8.53049 29.777 8.56377 29.7566C8.59705 29.7363 8.63528 29.7255 8.67428 29.7253H12.7355C12.7746 29.7253 12.8131 29.7361 12.8465 29.7565C12.8799 29.7769 12.9071 29.8061 12.925 29.841C12.9429 29.8758 12.9508 29.9149 12.948 29.9539C12.9451 29.993 12.9315 30.0305 12.9087 30.0624C12.6815 30.3785 12.4004 30.9579 12.2868 31.9557C12.088 33.7383 14.128 43.292 14.128 43.292Z" fill="#052B4E"/>
<path d="M12.1249 26.9725C12.2745 26.5758 12.9428 25.7844 12.5471 25.3631C12.1514 24.9419 11.8788 26.128 11.8608 26.5588C11.7557 26.0135 11.8788 25.3281 11.5361 25.3802C11.1934 25.4322 11.0741 25.8677 11.377 26.3647C10.8583 26.1631 10.4891 26.2416 10.5591 26.6023C10.6292 26.963 11.2985 26.928 11.2985 26.928C11.2985 26.928 10.3745 27.0861 10.4095 27.3947C10.4446 27.7033 11.3155 27.3767 11.377 27.3C11.4386 27.2233 10.33 28.2826 10.7882 28.4947C11.2464 28.7068 11.6326 28.5297 11.6762 27.8529C11.8087 28.4332 12.301 28.8118 12.5036 28.3366C12.7062 27.8614 12.1429 27.5622 12.1429 27.5622C12.1429 27.5622 12.9258 27.7563 13.0403 27.2016C13.1549 26.6468 12.442 26.7784 12.1249 26.9725Z" fill="#FFCE58"/>
<path d="M11.3685 27.0662C11.3685 27.1445 11.3917 27.221 11.4352 27.2861C11.4787 27.3512 11.5405 27.4019 11.6128 27.4318C11.6851 27.4618 11.7647 27.4696 11.8414 27.4543C11.9182 27.4391 11.9887 27.4014 12.044 27.346C12.0994 27.2907 12.1371 27.2202 12.1523 27.1434C12.1676 27.0667 12.1598 26.9871 12.1298 26.9148C12.0999 26.8425 12.0492 26.7807 11.9841 26.7372C11.919 26.6937 11.8425 26.6705 11.7642 26.6705C11.6593 26.6705 11.5586 26.7122 11.4844 26.7864C11.4102 26.8606 11.3685 26.9613 11.3685 27.0662Z" fill="#052B4E"/>
<path d="M12.8529 30.7032C13.2316 30.8926 13.9577 31.631 14.4149 31.2769C14.8722 30.9229 13.7172 30.5385 13.2893 30.4798C13.8422 30.4268 14.5143 30.6142 14.4944 30.2678C14.4746 29.9213 14.0523 29.7622 13.5288 30.0169C13.7797 29.519 13.7352 29.1441 13.3698 29.1791C13.0044 29.2141 12.975 29.8844 12.975 29.8844C12.975 29.8844 12.9059 28.9491 12.5964 28.9547C12.2868 28.9604 12.5273 29.8588 12.5964 29.9279C12.6655 29.997 11.715 28.7919 11.4604 29.2274C11.2057 29.6628 11.3449 30.0642 12.0151 30.174C11.4244 30.2498 11.0012 30.7042 11.4547 30.9503C11.9081 31.1964 12.2594 30.6663 12.2594 30.6663C12.2594 30.6663 11.9924 31.4236 12.5329 31.594C13.0735 31.7644 13.0157 31.0365 12.8529 30.7032Z" fill="#FFCE58"/>
<path d="M12.8321 29.9403C12.7542 29.9328 12.6758 29.9486 12.6069 29.9856C12.5379 30.0227 12.4815 30.0793 12.4447 30.1484C12.408 30.2175 12.3926 30.296 12.4004 30.3739C12.4083 30.4517 12.439 30.5255 12.4888 30.5859C12.5386 30.6463 12.6052 30.6906 12.6802 30.7131C12.7551 30.7357 12.8351 30.7355 12.9099 30.7126C12.9848 30.6897 13.0511 30.6451 13.1006 30.5845C13.1502 30.5238 13.1806 30.4499 13.188 30.372C13.1978 30.2676 13.1658 30.1636 13.0991 30.0827C13.0324 30.0018 12.9364 29.9506 12.8321 29.9403Z" fill="#052B4E"/>
<path d="M8.37423 26.3864C8.7955 26.4233 9.73933 26.8531 10.0385 26.358C10.3376 25.8629 9.12115 25.9216 8.70083 26.021C9.19783 25.772 9.89174 25.7048 9.74785 25.3886C9.60395 25.0724 9.15334 25.0762 8.75669 25.5022C8.81065 24.9484 8.63457 24.6142 8.30607 24.779C7.97758 24.9437 8.19342 25.5789 8.19342 25.5789C8.19342 25.5789 7.79109 24.7326 7.5033 24.849C7.21551 24.9655 7.76553 25.7171 7.8583 25.755C7.95107 25.7928 6.62763 25.0137 6.54717 25.5107C6.4667 26.0077 6.74218 26.3334 7.40579 26.1923C6.88229 26.4763 6.64846 27.0538 7.16345 27.1201C7.67843 27.1863 7.81191 26.5634 7.81191 26.5634C7.81191 26.5634 7.83747 27.369 8.40169 27.3293C8.9659 27.2895 8.64593 26.6392 8.37423 26.3864Z" fill="#FFCE58"/>
<path d="M8.07884 25.683C8.00356 25.7043 7.93625 25.7473 7.88541 25.8068C7.83458 25.8662 7.80251 25.9394 7.79325 26.0171C7.78399 26.0947 7.79795 26.1734 7.83338 26.2431C7.86881 26.3129 7.92411 26.3706 7.9923 26.4089C8.06049 26.4472 8.13851 26.4645 8.2165 26.4585C8.29448 26.4525 8.36895 26.4235 8.43048 26.3752C8.49201 26.3269 8.53785 26.2615 8.56221 26.1871C8.58656 26.1128 8.58834 26.0329 8.56732 25.9576C8.55334 25.9074 8.52959 25.8606 8.49746 25.8196C8.46532 25.7787 8.42542 25.7445 8.38005 25.719C8.33467 25.6935 8.28471 25.6772 8.23302 25.671C8.18134 25.6648 8.12894 25.6689 8.07884 25.683Z" fill="#052B4E"/>
<path d="M8.13187 28.9898C7.73333 29.1356 6.69862 29.1498 6.63898 29.7253C6.57934 30.3009 7.6557 29.7253 7.99271 29.4593C7.65002 29.8967 7.04605 30.2536 7.31585 30.4779C7.58565 30.7023 7.98609 30.5063 8.16311 29.9516C8.35245 30.477 8.65254 30.7032 8.87879 30.4145C9.10505 30.1258 8.64023 29.643 8.64023 29.643C8.64023 29.643 9.36538 30.2365 9.57554 30.0084C9.7857 29.7802 8.96399 29.3353 8.86933 29.341C8.77466 29.3467 10.2997 29.4858 10.1596 29.0021C10.0195 28.5183 9.63234 28.3394 9.09179 28.7512C9.44395 28.2712 9.40703 27.6512 8.91571 27.8102C8.42439 27.9693 8.56545 28.5893 8.56545 28.5893C8.56545 28.5893 8.19814 27.8718 7.70493 28.1482C7.21171 28.4246 7.77782 28.8733 8.13187 28.9898Z" fill="#FFCE58"/>
<path d="M8.69888 29.5001C8.75796 29.4488 8.80052 29.3811 8.82116 29.3056C8.8418 29.2302 8.8396 29.1503 8.81485 29.076C8.79009 29.0018 8.74389 28.9366 8.68207 28.8886C8.62026 28.8407 8.54561 28.8121 8.46757 28.8065C8.38952 28.801 8.31158 28.8187 8.24359 28.8574C8.17561 28.8962 8.12063 28.9542 8.08561 29.0241C8.05059 29.0941 8.0371 29.1729 8.04684 29.2505C8.05658 29.3282 8.08912 29.4012 8.14035 29.4603C8.20924 29.5395 8.30671 29.5881 8.4114 29.5956C8.51609 29.603 8.61946 29.5687 8.69888 29.5001Z" fill="#052B4E"/>
<g style="mix-blend-mode:overlay" opacity="0.25">
<path d="M65.2405 35.1119C65.0616 36.0737 64.6952 38.7092 64.4065 39.7686C64.2171 40.4483 63.9275 40.79 63.7741 40.6206C64.114 38.9166 64.5314 36.6891 64.8069 34.8847C65.1297 34.3745 65.3673 34.4303 65.2405 35.1119Z" fill="white"/>
</g>
<path d="M72.0013 15.8518L71.8731 17.7853C71.2846 18.0179 70.6823 18.2137 70.0696 18.3717C69.946 18.4046 69.8215 18.4352 69.6963 18.4636C64.1229 19.7745 57.3728 18.311 52.4172 14.2492C50.6354 12.7963 49.1374 11.0267 47.9986 9.02952C46.7106 6.76204 45.8465 4.12514 45.5755 1.11389L46.8091 1.19566C50.3799 5.68079 59.8586 14.6162 72.0013 15.8518Z" fill="#DBDBDB"/>
<path d="M1.99874 15.8518L2.1269 17.7853C2.71537 18.0179 3.3177 18.2137 3.93042 18.3717C4.05404 18.4046 4.17846 18.4352 4.30368 18.4636C9.87714 19.7745 16.6272 18.311 21.5828 14.2492C23.3646 12.7963 24.8626 11.0267 26.0014 9.02952C27.2894 6.76204 28.1535 4.12514 28.4245 1.11389L27.1909 1.19566C23.6201 5.68079 14.1414 14.6162 1.99874 15.8518Z" fill="#DBDBDB"/>
<path d="M74 12.958V14.8958C73.4282 15.1667 72.8401 15.402 72.2392 15.6001C72.118 15.6411 71.9959 15.68 71.8728 15.7166C66.3983 17.3931 59.5662 16.3792 54.3529 12.6541C52.4789 11.3222 50.8671 9.65557 49.5987 7.73805C48.1636 5.56072 47.127 2.98673 46.6574 0H47.8938C51.7533 4.23917 61.8022 12.5282 74 12.958Z" fill="#052B4E"/>
<path d="M1.71661e-05 12.958V14.8958C0.571827 15.1667 1.15989 15.402 1.76082 15.6001C1.88199 15.6411 2.00411 15.68 2.12718 15.7166C7.60175 17.3931 14.4338 16.3792 19.6471 12.6541C21.5211 11.3222 23.1329 9.65557 24.4013 7.73805C25.8364 5.56072 26.873 2.98673 27.3426 0H26.1062C22.2467 4.23917 12.1978 12.5282 1.71661e-05 12.958Z" fill="#052B4E"/>
<defs>
<linearGradient id="paint0_linear_1_10821" x1="12.2215" y1="-15.0993" x2="73.9707" y2="80.6617" gradientUnits="userSpaceOnUse">
<stop stop-color="white"/>
<stop offset="1" stop-color="#C5DBFC"/>
</linearGradient>
<linearGradient id="paint1_linear_1_10821" x1="38.7054" y1="39.3842" x2="38.9099" y2="34.3707" gradientUnits="userSpaceOnUse">
<stop stop-color="#FFD5C7"/>
<stop offset="1" stop-color="#FF9093"/>
</linearGradient>
<linearGradient id="paint2_linear_1_10821" x1="39.2403" y1="39.1968" x2="37.5959" y2="36.0453" gradientUnits="userSpaceOnUse">
<stop stop-color="#FFD5C7"/>
<stop offset="1" stop-color="#FF9093"/>
</linearGradient>
<linearGradient id="paint3_linear_1_10821" x1="37.223" y1="39.4078" x2="40.1661" y2="39.4078" gradientUnits="userSpaceOnUse">
<stop stop-color="#2C2433"/>
<stop offset="1" stop-color="#453B4F"/>
</linearGradient>
<linearGradient id="paint4_linear_1_10821" x1="32.2823" y1="21.3434" x2="32.358" y2="15.2914" gradientUnits="userSpaceOnUse">
<stop stop-color="#2C2433"/>
<stop offset="1" stop-color="#453B4F"/>
</linearGradient>
<linearGradient id="paint5_linear_1_10821" x1="40.6565" y1="38.2463" x2="47.9089" y2="28.2694" gradientUnits="userSpaceOnUse">
<stop stop-color="#2C2433"/>
<stop offset="1" stop-color="#453B4F"/>
</linearGradient>
<linearGradient id="paint6_linear_1_10821" x1="44.2862" y1="38.428" x2="50.1339" y2="27.4449" gradientUnits="userSpaceOnUse">
<stop stop-color="#2C2433"/>
<stop offset="1" stop-color="#453B4F"/>
</linearGradient>
<linearGradient id="paint7_linear_1_10821" x1="40.2759" y1="22.4928" x2="43.5334" y2="40.8885" gradientUnits="userSpaceOnUse">
<stop stop-color="#2C2433"/>
<stop offset="1" stop-color="#453B4F"/>
</linearGradient>
<linearGradient id="paint8_linear_1_10821" x1="39.7316" y1="17.874" x2="38.606" y2="14.9573" gradientUnits="userSpaceOnUse">
<stop stop-color="#FAF5FF"/>
<stop offset="1" stop-color="#EADBFC"/>
</linearGradient>
<linearGradient id="paint9_linear_1_10821" x1="38.731" y1="14.9981" x2="40.0099" y2="20.3326" gradientUnits="userSpaceOnUse">
<stop stop-color="#2C2433"/>
<stop offset="1" stop-color="#453B4F"/>
</linearGradient>
<linearGradient id="paint10_linear_1_10821" x1="35.6467" y1="12.4913" x2="39.3681" y2="25.6917" gradientUnits="userSpaceOnUse">
<stop stop-color="#2C2433"/>
<stop offset="1" stop-color="#453B4F"/>
</linearGradient>
<linearGradient id="paint11_linear_1_10821" x1="38.9705" y1="9.92289" x2="41.9638" y2="21.1021" gradientUnits="userSpaceOnUse">
<stop stop-color="#2C2433"/>
<stop offset="1" stop-color="#453B4F"/>
</linearGradient>
<linearGradient id="paint12_linear_1_10821" x1="38.9941" y1="15.9844" x2="38.712" y2="14.5" gradientUnits="userSpaceOnUse">
<stop stop-color="#FAF5FF"/>
<stop offset="1" stop-color="#EADBFC"/>
</linearGradient>
<linearGradient id="paint13_linear_1_10821" x1="40.7966" y1="13.896" x2="35.7745" y2="11.5862" gradientUnits="userSpaceOnUse">
<stop stop-color="#2C2433"/>
<stop offset="1" stop-color="#453B4F"/>
</linearGradient>
<linearGradient id="paint14_linear_1_10821" x1="40.4823" y1="18.3709" x2="36.3397" y2="10.9282" gradientUnits="userSpaceOnUse">
<stop stop-color="#FFD5C7"/>
<stop offset="1" stop-color="#FF9093"/>
</linearGradient>
<linearGradient id="paint15_linear_1_10821" x1="37.2258" y1="11.8798" x2="36.9834" y2="17.0684" gradientUnits="userSpaceOnUse">
<stop stop-color="#FFD5C7"/>
<stop offset="1" stop-color="#FF9093"/>
</linearGradient>
<linearGradient id="paint16_linear_1_10821" x1="35.6628" y1="14.3713" x2="35.3031" y2="39.2961" gradientUnits="userSpaceOnUse">
<stop stop-color="#FAF5FF"/>
<stop offset="1" stop-color="#F29DC2"/>
</linearGradient>
<linearGradient id="paint17_linear_1_10821" x1="37.577" y1="24.2508" x2="36.7221" y2="28.435" gradientUnits="userSpaceOnUse">
<stop stop-color="#FAF5FF"/>
<stop offset="1" stop-color="#F29DC2"/>
</linearGradient>
<linearGradient id="paint18_linear_1_10821" x1="42.5593" y1="17.2029" x2="34.8667" y2="28.7201" gradientUnits="userSpaceOnUse">
<stop stop-color="#FAF5FF"/>
<stop offset="1" stop-color="#F29DC2"/>
</linearGradient>
<linearGradient id="paint19_linear_1_10821" x1="34.3299" y1="19.5969" x2="30.6976" y2="13.0346" gradientUnits="userSpaceOnUse">
<stop stop-color="#FFD5C7"/>
<stop offset="1" stop-color="#FF9093"/>
</linearGradient>
<linearGradient id="paint20_linear_1_10821" x1="33.4154" y1="15.5404" x2="33.6417" y2="22.4965" gradientUnits="userSpaceOnUse">
<stop stop-color="#FFD5C7"/>
<stop offset="1" stop-color="#FF9093"/>
</linearGradient>
<linearGradient id="paint21_linear_1_10821" x1="33.9399" y1="16.8583" x2="32.3013" y2="15.6248" gradientUnits="userSpaceOnUse">
<stop stop-color="#FFD5C7"/>
<stop offset="1" stop-color="#FF9093"/>
</linearGradient>
<linearGradient id="paint22_linear_1_10821" x1="30.1078" y1="17.4631" x2="34.7919" y2="18.1665" gradientUnits="userSpaceOnUse">
<stop stop-color="#FFD5C7"/>
<stop offset="1" stop-color="#FF9093"/>
</linearGradient>
<linearGradient id="paint23_linear_1_10821" x1="36.3567" y1="40.1084" x2="36.3179" y2="35.838" gradientUnits="userSpaceOnUse">
<stop stop-color="#FFD5C7"/>
<stop offset="1" stop-color="#FF9093"/>
</linearGradient>
<linearGradient id="paint24_linear_1_10821" x1="36.8282" y1="40.4558" x2="35.1829" y2="37.3044" gradientUnits="userSpaceOnUse">
<stop stop-color="#FFD5C7"/>
<stop offset="1" stop-color="#FF9093"/>
</linearGradient>
<linearGradient id="paint25_linear_1_10821" x1="34.9064" y1="39.9314" x2="37.8089" y2="39.9314" gradientUnits="userSpaceOnUse">
<stop stop-color="#2C2433"/>
<stop offset="1" stop-color="#453B4F"/>
</linearGradient>
<linearGradient id="paint26_linear_1_10821" x1="45.3416" y1="25.5136" x2="32.9241" y2="37.931" gradientUnits="userSpaceOnUse">
<stop stop-color="#FAF5FF"/>
<stop offset="1" stop-color="#F26DA9"/>
</linearGradient>
<linearGradient id="paint27_linear_1_10821" x1="42.7941" y1="22.9671" x2="30.3767" y2="35.3846" gradientUnits="userSpaceOnUse">
<stop stop-color="#FAF5FF"/>
<stop offset="1" stop-color="#F26DA9"/>
</linearGradient>
<linearGradient id="paint28_linear_1_10821" x1="34.3594" y1="25.9529" x2="34.3451" y2="25.9814" gradientUnits="userSpaceOnUse">
<stop stop-color="#FAF5FF"/>
<stop offset="1" stop-color="#DEC7FC"/>
</linearGradient>
<linearGradient id="paint29_linear_1_10821" x1="47.4412" y1="20.4631" x2="39.7477" y2="31.9803" gradientUnits="userSpaceOnUse">
<stop stop-color="#FAF5FF"/>
<stop offset="1" stop-color="#F29DC2"/>
</linearGradient>
<linearGradient id="paint30_linear_1_10821" x1="38.7234" y1="25.33" x2="30.6332" y2="17.8314" gradientUnits="userSpaceOnUse">
<stop stop-color="#FFD5C7"/>
<stop offset="1" stop-color="#FF9093"/>
</linearGradient>
<linearGradient id="paint31_linear_1_10821" x1="36.9579" y1="23.3609" x2="43.5713" y2="24.6143" gradientUnits="userSpaceOnUse">
<stop stop-color="#FFD5C7"/>
<stop offset="1" stop-color="#FF9093"/>
</linearGradient>
<linearGradient id="paint32_linear_1_10821" x1="39.2109" y1="24.087" x2="41.1289" y2="22.2069" gradientUnits="userSpaceOnUse">
<stop stop-color="#FFD5C7"/>
<stop offset="1" stop-color="#FF9093"/>
</linearGradient>
<linearGradient id="paint33_linear_1_10821" x1="40.1936" y1="14.592" x2="41.9014" y2="20.751" gradientUnits="userSpaceOnUse">
<stop stop-color="#2C2433"/>
<stop offset="1" stop-color="#453B4F"/>
</linearGradient>
</defs>
</svg>
