<svg width="70" height="55" viewBox="0 0 70 55" fill="none" xmlns="http://www.w3.org/2000/svg">
<path d="M69.5313 0H0V50.4079H69.5313V0Z" fill="#F2F2F2"/>
<path d="M69.5313 40.3889H0V54.9999H69.5313V40.3889Z" fill="#A59292"/>
<path d="M47.7846 23.5767H7.16035C6.01856 23.5767 5.09296 24.3825 5.09296 25.3765V38.4231C5.09296 39.4171 6.01856 40.2229 7.16035 40.2229H47.7846C48.9264 40.2229 49.852 39.4171 49.852 38.4231V25.3765C49.852 24.3825 48.9264 23.5767 47.7846 23.5767Z" fill="#754C29"/>
<path d="M45.9472 25.0828H8.99585C7.95785 25.0828 7.11639 25.8153 7.11639 26.7189V38.5866C7.11639 39.4902 7.95785 40.2228 8.99585 40.2228H45.9472C46.9852 40.2228 47.8267 39.4902 47.8267 38.5866V26.7189C47.8267 25.8153 46.9852 25.0828 45.9472 25.0828Z" fill="#473838"/>
<path d="M23.2657 33.1841C23.3517 33.022 24.1439 32.4058 24.1439 30.7574C24.1439 29.1089 23.4764 28.4636 23.2657 28.1838C23.7926 28.0538 23.4922 27.6104 23.9015 27.2205C23.6503 27.2205 22.1327 27.2403 22.3294 27.7587C21.5583 27.4147 20.6098 27.2908 18.3703 27.3887C18.2708 27.3918 18.1724 27.4083 18.0787 27.4376C17.985 27.4083 17.8867 27.3918 17.7871 27.3887C15.5476 27.2908 14.5991 27.4147 13.828 27.7587C14.0247 27.2403 12.5071 27.2205 12.2472 27.2205C12.6564 27.6104 12.3631 28.0538 12.883 28.1838C12.6705 28.4621 12.0048 29.1105 12.0048 30.7574C12.0048 32.4042 12.7987 33.022 12.883 33.1841C12.4369 33.4288 12.9146 33.7346 12.5651 33.9701C12.8268 34.0312 13.5593 33.9823 13.6699 33.4578C14.0915 33.6245 15.1893 33.7912 17.9259 33.6795C17.9741 33.6778 18.0222 33.6737 18.0699 33.6673C18.1176 33.6737 18.1657 33.6778 18.214 33.6795C20.9488 33.7912 22.0484 33.6245 22.47 33.4578C22.5806 33.9823 23.3131 34.0312 23.5748 33.9701C23.234 33.7346 23.7118 33.4288 23.2657 33.1841Z" fill="#F2F2F2"/>
<g style="mix-blend-mode:multiply">
<path d="M13.1482 33.6796C13.1149 33.6154 12.9726 33.4793 12.8075 33.2407C12.5124 33.4747 12.897 33.753 12.5739 33.9717C12.695 33.9947 12.82 33.9983 12.9427 33.9824C12.9399 33.92 12.9578 33.8583 12.9942 33.8046C13.0307 33.7509 13.0841 33.7075 13.1482 33.6796Z" fill="#E6E7E8"/>
<path d="M23.8646 29.1367C23.7968 28.9687 23.7127 28.806 23.6134 28.6504C23.5831 28.6617 23.552 28.6714 23.5203 28.6794C23.6442 28.8265 23.7591 28.9791 23.8646 29.1367Z" fill="#E6E7E8"/>
<path d="M14.0844 28.2543C14.8555 27.9103 15.804 27.7864 18.0436 27.8828C18.143 27.8873 18.2412 27.9043 18.3351 27.9332C18.429 27.904 18.5272 27.887 18.6267 27.8828C20.8663 27.7864 21.813 27.9103 22.5859 28.2543C22.4506 27.898 23.1234 27.7772 23.6398 27.7375C23.6665 27.5469 23.7576 27.3676 23.9015 27.2222C23.6503 27.2222 22.1327 27.2405 22.3294 27.7589C21.5583 27.4148 20.6098 27.291 18.3703 27.3888C18.2709 27.3927 18.1726 27.4092 18.0787 27.4378C17.9848 27.4092 17.8865 27.3927 17.7871 27.3888C15.5476 27.291 14.5991 27.4148 13.828 27.7589C14.0247 27.2405 12.5071 27.2222 12.2471 27.2222C12.387 27.361 12.4762 27.5329 12.5036 27.7161C12.7671 27.7161 14.2794 27.736 14.0844 28.2543Z" fill="#E6E7E8"/>
<path d="M12.7477 28.1306C12.7138 27.9777 12.6331 27.8356 12.5141 27.7192C12.5527 27.8905 12.5826 28.0388 12.7477 28.1306Z" fill="#E6E7E8"/>
<path d="M12.2664 31.253C12.2664 29.6061 12.9339 28.9593 13.1447 28.6794C13.0487 28.6575 12.9631 28.6097 12.9001 28.543C12.837 28.4763 12.7997 28.3941 12.7934 28.3079C12.5229 28.6412 12.0135 29.3186 12.0135 30.7545C12.0135 31.7117 12.2805 32.3188 12.5229 32.6934C12.3446 32.2293 12.2579 31.7423 12.2664 31.253Z" fill="#E6E7E8"/>
</g>
<path d="M43.4618 33.1841C43.5478 33.022 44.34 32.4058 44.34 30.7574C44.34 29.1089 43.6726 28.4636 43.4618 28.1838C43.9887 28.0538 43.6884 27.6104 44.0994 27.2205C43.8482 27.2205 42.3306 27.2403 42.5185 27.7587C41.7474 27.4147 40.7989 27.2908 38.5594 27.3887C38.4599 27.3919 38.3616 27.4084 38.2678 27.4376C38.1742 27.4081 38.0758 27.3916 37.9762 27.3887C35.7385 27.2908 34.79 27.4147 34.0189 27.7587C34.2138 27.2403 32.6962 27.2205 32.438 27.2205C32.849 27.6104 32.5539 28.0538 33.0739 28.1838C32.8613 28.4621 32.1956 29.1105 32.1956 30.7574C32.1956 32.4042 32.9913 33.022 33.0739 33.1841C32.6277 33.4288 33.1055 33.7346 32.7559 33.9701C33.0194 34.0312 33.7501 33.9823 33.8608 33.4578C34.2841 33.6245 35.3819 33.7912 38.1168 33.6795C38.165 33.6778 38.2131 33.6737 38.2608 33.6673C38.3091 33.6737 38.3578 33.6778 38.4066 33.6795C41.1414 33.7912 42.2393 33.6245 42.6626 33.4578C42.7732 33.9823 43.5039 34.0312 43.7657 33.9701C43.4319 33.7346 43.9079 33.4288 43.4618 33.1841Z" fill="#F2F2F2"/>
<g style="mix-blend-mode:multiply">
<path d="M33.3445 33.6796C33.3111 33.6154 33.1688 33.4793 33.0055 33.2407C32.7104 33.4747 33.0933 33.753 32.7701 33.9717C32.8919 33.9947 33.0174 33.9983 33.1407 33.9824C33.1375 33.9202 33.155 33.8585 33.1912 33.8048C33.2273 33.751 33.2806 33.7076 33.3445 33.6796Z" fill="#E6E7E8"/>
<path d="M44.0608 29.1367C43.9935 28.9688 43.91 28.8061 43.8114 28.6504C43.7809 28.6615 43.7499 28.6712 43.7183 28.6794C43.8414 28.8266 43.9557 28.9792 44.0608 29.1367Z" fill="#E6E7E8"/>
<path d="M34.2806 28.2543C35.0517 27.9103 36.0002 27.7864 38.2398 27.8828C38.3392 27.8871 38.4375 27.9041 38.5313 27.9332C38.6252 27.9043 38.7234 27.8873 38.8229 27.8828C41.0624 27.7864 42.0109 27.9103 42.7821 28.2543C42.6468 27.898 43.3195 27.7772 43.8359 27.7375C43.8634 27.5468 43.955 27.3675 44.0994 27.2222C43.8482 27.2222 42.3306 27.2405 42.5186 27.7589C41.7475 27.4148 40.799 27.291 38.5594 27.3888C38.46 27.3928 38.3618 27.4093 38.2679 27.4378C38.174 27.409 38.0757 27.3926 37.9763 27.3888C35.7385 27.291 34.79 27.4148 34.0189 27.7589C34.2139 27.2405 32.6963 27.2222 32.438 27.2222C32.5777 27.3613 32.6675 27.533 32.6963 27.7161C32.9632 27.7161 34.4773 27.736 34.2806 28.2543Z" fill="#E6E7E8"/>
<path d="M32.9457 28.1306C32.9111 27.9776 32.8298 27.8355 32.7103 27.7192C32.7507 27.8905 32.7788 28.0388 32.9457 28.1306Z" fill="#E6E7E8"/>
<path d="M32.4644 31.253C32.4644 29.6061 33.1319 28.9593 33.3427 28.6794C33.2466 28.6577 33.1609 28.61 33.0978 28.5433C33.0347 28.4765 32.9974 28.3941 32.9914 28.3079C32.7209 28.6412 32.2097 29.3186 32.2097 30.7545C32.2097 31.7117 32.4785 32.3188 32.7209 32.6934C32.5426 32.2293 32.4559 31.7423 32.4644 31.253Z" fill="#E6E7E8"/>
</g>
<path d="M10.206 41.3743H3.59283V44.5289H10.206V41.3743Z" fill="#473838"/>
<path d="M51.7981 41.3743H45.1849V44.5289H51.7981V41.3743Z" fill="#473838"/>
<path d="M51.5786 31.8997H3.36631C3.08305 31.9009 2.80284 31.9506 2.54167 32.0461C2.2805 32.1416 2.04349 32.2809 1.84418 32.4561C1.64486 32.6313 1.48714 32.839 1.38002 33.0673C1.27291 33.2956 1.21849 33.54 1.21987 33.7866V38.8328C1.21886 39.2174 1.3529 39.5932 1.60405 39.9096C1.8552 40.2261 2.21145 40.4682 2.62507 40.6035V34.9166H52.4393V40.5561C52.8222 40.4073 53.1473 40.165 53.3752 39.8586C53.6031 39.5522 53.724 39.1948 53.7233 38.8297V33.7836C53.7252 33.2863 53.5004 32.8088 53.0984 32.4556C52.6963 32.1024 52.1497 31.9025 51.5786 31.8997Z" fill="#052B4E"/>
<path d="M52.7625 37.8282C52.7625 38.5531 51.8385 39.1387 50.6968 39.1387H4.24806C3.10634 39.1387 2.18066 38.5531 2.18066 37.8282V34.3281C2.18066 33.6048 3.10634 33.0176 4.24806 33.0176H50.6968C51.8385 33.0176 52.7625 33.6048 52.7625 34.3281V37.8282Z" fill="#754C29"/>
<path d="M52.4006 39.1387H2.18066V42.2933H52.4006V39.1387Z" fill="#473838"/>
<path d="M65.418 44.2016H67.1885V28.5142H63.5333L65.418 44.2016Z" fill="#3C1E00"/>
<path d="M56.3773 44.2016H54.6068V28.5142H58.262L56.3773 44.2016Z" fill="#3C1E00"/>
<path d="M67.805 24.416H54.1624V42.1127H67.805V24.416Z" fill="#603913"/>
<path d="M67.805 23.896H54.1624V24.4159H67.805V23.896Z" fill="#4D2B04"/>
<path d="M67.805 29.3108H54.1624V29.8307H67.805V29.3108Z" fill="#4D2B04"/>
<path d="M68.2425 23.0046H53.7233V23.8961H68.2425V23.0046Z" fill="#3C1E00"/>
<path d="M66.4263 25.0569H55.5413V28.3017H66.4263V25.0569Z" fill="#754C29" stroke="#502D07" stroke-width="1.63" stroke-miterlimit="10"/>
<path d="M60.4085 25.7787C60.4085 25.854 60.4342 25.9276 60.4822 25.9902C60.5303 26.0529 60.5986 26.1017 60.6785 26.1305C60.7584 26.1593 60.8464 26.1668 60.9312 26.1521C61.016 26.1375 61.094 26.1012 61.1551 26.0479C61.2163 25.9947 61.258 25.9269 61.2748 25.853C61.2917 25.7791 61.2831 25.7026 61.25 25.633C61.2169 25.5634 61.1608 25.504 61.0889 25.4621C61.0169 25.4203 60.9324 25.398 60.8459 25.398C60.7884 25.3978 60.7314 25.4075 60.6782 25.4265C60.6251 25.4456 60.5768 25.4736 60.5361 25.509C60.4954 25.5444 60.4632 25.5865 60.4413 25.6328C60.4194 25.679 60.4083 25.7287 60.4085 25.7787Z" fill="#FFDE17"/>
<g style="mix-blend-mode:soft-light">
<path d="M61.2147 25.7907C61.2147 25.7096 61.1777 25.6318 61.1118 25.5744C61.0459 25.5171 60.9566 25.4849 60.8634 25.4849C60.672 25.4864 61.2147 25.9589 61.2147 25.7907Z" fill="white"/>
</g>
<g style="mix-blend-mode:multiply">
<path d="M60.556 25.4957C60.5297 25.5435 60.5153 25.5956 60.5139 25.6486C60.5132 25.722 60.537 25.794 60.5826 25.8558C60.6281 25.9176 60.6934 25.9665 60.7703 25.9965C60.8473 26.0265 60.9327 26.0364 61.016 26.0248C61.0992 26.0133 61.1769 25.9808 61.2393 25.9315C61.2122 25.9828 61.1722 26.0282 61.1223 26.0643C61.0725 26.1004 61.014 26.1264 60.9511 26.1404C60.8882 26.1543 60.8226 26.1558 60.7589 26.1448C60.6953 26.1339 60.6353 26.1106 60.5833 26.0769C60.5313 26.0431 60.4886 25.9997 60.4583 25.9497C60.428 25.8998 60.411 25.8446 60.4084 25.7881C60.4058 25.7317 60.4177 25.6755 60.4432 25.6235C60.4688 25.5716 60.5073 25.5253 60.556 25.488V25.4957Z" fill="#D1B9B2"/>
</g>
<path d="M67.805 35.1277H54.1624V35.6476H67.805V35.1277Z" fill="#4D2B04"/>
<path d="M66.4596 30.8735H55.5764V34.1184H66.4596V30.8735Z" fill="#754C29" stroke="#502D07" stroke-width="1.63" stroke-miterlimit="10"/>
<path d="M60.4436 31.5954C60.4436 31.6707 60.4693 31.7443 60.5173 31.8069C60.5654 31.8695 60.6337 31.9183 60.7136 31.9471C60.7935 31.9759 60.8815 31.9835 60.9663 31.9688C61.0511 31.9541 61.1291 31.9178 61.1902 31.8646C61.2514 31.8113 61.2931 31.7435 61.3099 31.6696C61.3268 31.5958 61.3182 31.5192 61.2851 31.4497C61.2519 31.3801 61.1959 31.3206 61.124 31.2788C61.052 31.2369 60.9675 31.2146 60.881 31.2146C60.8235 31.2144 60.7665 31.2241 60.7133 31.2432C60.6602 31.2622 60.6119 31.2903 60.5712 31.3257C60.5305 31.3611 60.4983 31.4031 60.4764 31.4494C60.4545 31.4957 60.4434 31.5453 60.4436 31.5954Z" fill="#FFDE17"/>
<g style="mix-blend-mode:soft-light">
<path d="M61.2499 31.6076C61.2499 31.5265 61.2129 31.4487 61.147 31.3913C61.0811 31.334 60.9917 31.3018 60.8986 31.3018C60.7071 31.3033 61.2499 31.7758 61.2499 31.6076Z" fill="white"/>
</g>
<g style="mix-blend-mode:multiply">
<path d="M60.5912 31.3125C60.5636 31.3626 60.5492 31.4175 60.549 31.4731C60.5491 31.5462 60.5734 31.6177 60.6191 31.6791C60.6648 31.7405 60.7299 31.789 60.8066 31.8189C60.8832 31.8488 60.9682 31.8588 61.0512 31.8476C61.1342 31.8364 61.2117 31.8046 61.2745 31.7559C61.2473 31.8073 61.2074 31.8526 61.1575 31.8888C61.1076 31.9249 61.0491 31.9509 60.9863 31.9648C60.9234 31.9788 60.8577 31.9803 60.7941 31.9693C60.7305 31.9583 60.6704 31.9351 60.6184 31.9014C60.5664 31.8676 60.5237 31.8242 60.4935 31.7742C60.4632 31.7242 60.4461 31.669 60.4435 31.6126C60.4409 31.5561 60.4528 31.4999 60.4784 31.448C60.5039 31.3961 60.5425 31.3498 60.5912 31.3125Z" fill="#D1B9B2"/>
</g>
<path d="M67.805 40.9446H54.1624V41.4645H67.805V40.9446Z" fill="#4D2B04"/>
<path d="M66.4965 36.689H55.6115V39.9338H66.4965V36.689Z" fill="#754C29" stroke="#502D07" stroke-width="1.63" stroke-miterlimit="10"/>
<path d="M60.4788 37.4107C60.4784 37.4861 60.5038 37.5599 60.5516 37.6227C60.5995 37.6855 60.6677 37.7345 60.7475 37.7636C60.8274 37.7926 60.9154 37.8004 61.0004 37.7859C61.0853 37.7714 61.1634 37.7352 61.2248 37.682C61.2861 37.6288 61.3279 37.561 61.345 37.4871C61.362 37.4132 61.3534 37.3366 61.3204 37.2669C61.2873 37.1972 61.2313 37.1377 61.1593 37.0958C61.0873 37.0539 61.0027 37.0315 60.9161 37.0315C60.8004 37.0315 60.6895 37.0714 60.6075 37.1425C60.5255 37.2135 60.4792 37.31 60.4788 37.4107Z" fill="#FFDE17"/>
<g style="mix-blend-mode:soft-light">
<path d="M61.2849 37.4245C61.2849 37.3434 61.2479 37.2656 61.1821 37.2082C61.1162 37.1509 61.0268 37.1187 60.9336 37.1187C60.7439 37.1202 61.2849 37.5912 61.2849 37.4245Z" fill="white"/>
</g>
<g style="mix-blend-mode:multiply">
<path d="M60.6263 37.1279C60.5949 37.1858 60.5808 37.2497 60.5853 37.3136C60.5899 37.3775 60.613 37.4394 60.6525 37.4934C60.6919 37.5475 60.7465 37.592 60.811 37.6227C60.8755 37.6534 60.9479 37.6695 61.0215 37.6692C61.1279 37.6691 61.2304 37.6348 61.3096 37.5729C61.2821 37.6239 61.2419 37.6688 61.192 37.7046C61.142 37.7403 61.0836 37.766 61.0208 37.7796C60.9581 37.7933 60.8927 37.7946 60.8293 37.7834C60.7659 37.7723 60.7061 37.7491 60.6544 37.7153C60.6026 37.6816 60.5601 37.6383 60.5299 37.5885C60.4998 37.5387 60.4827 37.4837 60.4801 37.4274C60.4774 37.3712 60.4891 37.3151 60.5144 37.2633C60.5397 37.2115 60.5779 37.1653 60.6263 37.1279Z" fill="#D1B9B2"/>
</g>
<path d="M44.7933 12.0024H36.7626V20.7109H44.7933V12.0024Z" fill="#9E7B35"/>
<path d="M44.5596 12.2029H36.9979V20.5092H44.5596V12.2029Z" fill="#876925"/>
<path d="M44.4349 12.3389H37.1208V20.373H44.4349V12.3389Z" fill="#473838"/>
<path d="M43.98 12.8389H37.5758V19.8729H43.98V12.8389Z" fill="#876925"/>
<path d="M43.8342 12.9629H37.7216V19.7507H43.8342V12.9629Z" fill="#D1D3D4"/>
<path d="M43.7464 13.0332H37.8094V19.6804H43.7464V13.0332Z" fill="#F2F2F2"/>
<path d="M44.5438 12.2197C44.5438 12.2197 44.5087 12.2702 44.4507 12.3436C44.3928 12.417 44.3102 12.5087 44.2242 12.6005C44.1381 12.6922 44.0485 12.7779 43.973 12.8406C43.8974 12.9033 43.8483 12.9415 43.8483 12.9415C43.8483 12.9415 43.8834 12.891 43.9414 12.8176C43.9993 12.7442 44.0819 12.6509 44.168 12.5592C44.254 12.4674 44.3436 12.3818 44.4191 12.3207C44.4947 12.2595 44.5438 12.2197 44.5438 12.2197Z" fill="#85682B"/>
<path d="M37.7041 19.7539C37.7041 19.7539 37.6707 19.8044 37.6127 19.8778C37.5548 19.9512 37.4705 20.0444 37.3861 20.1362C37.3018 20.2279 37.2105 20.3136 37.135 20.3747C37.0594 20.4359 37.0103 20.4772 37.0103 20.4772C37.0103 20.4772 37.0454 20.4252 37.1033 20.3518C37.1613 20.2784 37.2456 20.1867 37.3299 20.0949C37.4142 20.0032 37.5056 19.9175 37.5811 19.8548C37.6566 19.7921 37.7041 19.7539 37.7041 19.7539Z" fill="#85682B"/>
<path d="M44.5438 20.4772C44.5438 20.4772 44.4911 20.4374 44.4191 20.3747C44.3471 20.312 44.2575 20.2218 44.168 20.1362C44.0784 20.0506 43.9923 19.9512 43.9414 19.8778C43.8904 19.8044 43.8483 19.7539 43.8483 19.7539C43.8483 19.7539 43.901 19.7937 43.973 19.8548C44.045 19.916 44.1363 20.0077 44.2242 20.0949C44.312 20.1821 44.3998 20.2784 44.4507 20.3518C44.5017 20.4252 44.5438 20.4772 44.5438 20.4772Z" fill="#85682B"/>
<path d="M37.7041 12.9415C37.7041 12.9415 37.6531 12.9033 37.5811 12.8406C37.5091 12.7779 37.4178 12.6877 37.3299 12.6005C37.2421 12.5134 37.1543 12.417 37.1033 12.3436C37.0524 12.2703 37.0103 12.2183 37.0103 12.2183C37.0103 12.2183 37.0612 12.258 37.135 12.3207C37.2087 12.3834 37.2966 12.4736 37.3861 12.5593C37.4757 12.6449 37.5618 12.7443 37.6127 12.8177C37.6637 12.8911 37.7041 12.9415 37.7041 12.9415Z" fill="#85682B"/>
<path d="M49.1529 4.0083H40.5812V9.99946H49.1529V4.0083Z" fill="#A7A9AC"/>
<path d="M48.9526 4.18262H40.7779V9.82208H48.9526V4.18262Z" fill="#6D6E71"/>
<path d="M48.8191 4.27441H40.9114V9.73038H48.8191V4.27441Z" fill="#052B4E"/>
<path d="M48.3291 4.61377H41.405V9.3908H48.3291V4.61377Z" fill="#939598"/>
<path d="M48.2061 4.72241H41.5262V9.2823H48.2061V4.72241Z" fill="#58595B"/>
<path d="M48.0533 4.82788H41.6807V9.17828H48.0533V4.82788Z" fill="#473838"/>
<path d="M47.4175 5.2605H42.3149V8.74387H47.4175V5.2605Z" fill="#D1D3D4"/>
<path d="M47.3595 5.29883H42.371V8.70575H47.3595V5.29883Z" fill="#F2F2F2"/>
<path d="M40.7937 4.19482C40.836 4.21595 40.877 4.23892 40.9167 4.26364C40.9887 4.30645 41.08 4.36915 41.1696 4.43184C41.2592 4.49454 41.3452 4.56488 41.405 4.61992C41.4647 4.67497 41.5051 4.71167 41.5051 4.71167C41.4628 4.69055 41.4218 4.66758 41.3821 4.64286C41.3101 4.60005 41.2188 4.53735 41.1292 4.47466C41.0396 4.41196 40.9535 4.34162 40.8938 4.28657C40.8341 4.23152 40.7937 4.19482 40.7937 4.19482Z" fill="#A7A9AC"/>
<path d="M48.2097 9.29443C48.2097 9.29443 48.2606 9.32043 48.3326 9.36477C48.4046 9.40912 48.496 9.47029 48.5855 9.53298C48.6751 9.59567 48.7612 9.66601 48.8209 9.72106C48.8806 9.77611 48.921 9.81434 48.921 9.81434C48.921 9.81434 48.8701 9.78835 48.7981 9.744C48.7261 9.69966 48.6347 9.63849 48.5451 9.5758C48.4556 9.5131 48.3695 9.44276 48.3098 9.38771C48.2745 9.35822 48.2411 9.32708 48.2097 9.29443Z" fill="#A7A9AC"/>
<path d="M48.921 4.19482C48.921 4.19482 48.8824 4.23305 48.8209 4.28657C48.7594 4.34009 48.6734 4.40737 48.5855 4.47466C48.4977 4.54194 48.4099 4.60005 48.3326 4.64286C48.293 4.66758 48.2519 4.69055 48.2097 4.71167C48.2097 4.71167 48.2465 4.67344 48.3098 4.61992C48.373 4.5664 48.4573 4.49759 48.5451 4.43184C48.633 4.36609 48.7208 4.30645 48.7981 4.26364C48.8377 4.23892 48.8788 4.21595 48.921 4.19482Z" fill="#A7A9AC"/>
<path d="M41.5051 9.29443C41.5051 9.29443 41.4664 9.33419 41.405 9.38771C41.3435 9.44123 41.2574 9.50851 41.1696 9.5758C41.0818 9.64308 40.9939 9.70118 40.9167 9.744C40.8394 9.78682 40.7937 9.81434 40.7937 9.81434C40.8251 9.78169 40.8585 9.75056 40.8938 9.72106C40.9535 9.66601 41.0414 9.60026 41.1292 9.53298C41.217 9.4657 41.3048 9.40759 41.3821 9.36477C41.4594 9.32196 41.5051 9.29443 41.5051 9.29443Z" fill="#A7A9AC"/>
<path d="M33.2847 3.23438H2.41077V20.9464H33.2847V3.23438Z" fill="#2D2932"/>
<path d="M32.3169 4.10156H3.38037V20.0795H32.3169V4.10156Z" fill="#3C3842"/>
<path d="M31.8936 4.53418H3.80371V19.6451H31.8936V4.53418Z" fill="#473838"/>
<path d="M3.80371 19.6451V4.53418H31.8936L3.80371 19.6451Z" fill="#473838"/>
<path d="M18.2966 3.23438H16.6138V20.9464H18.2966V3.23438Z" fill="#2D2932"/>
<path d="M18.8797 19.6453L18.2983 20.1407V4.10156L18.8797 4.53431V19.6453Z" fill="#06000B"/>
<path d="M34.0698 12.9092H1.98218V13.1554H34.0698V12.9092Z" fill="#F2F2F2"/>
<path d="M32.965 12.6846H3.21172L1.98218 12.9155H34.0698L32.965 12.6846Z" fill="#C79F7B"/>
<path d="M34.0698 12.1738H1.98218V12.4215H34.0698V12.1738Z" fill="#F3C996"/>
<path d="M32.965 11.949H3.21172L1.98218 12.1799H34.0698L32.965 11.949Z" fill="#F2F2F2"/>
<path d="M34.0698 11.4382H1.98218V11.686H34.0698V11.4382Z" fill="#F3C996"/>
<path d="M32.965 11.2134H3.21172L1.98218 11.4458H34.0698L32.965 11.2134Z" fill="#F2F2F2"/>
<path d="M34.0698 10.7026H1.98218V10.9504H34.0698V10.7026Z" fill="#F3C996"/>
<path d="M32.965 10.478H3.21172L1.98218 10.7105H34.0698L32.965 10.478Z" fill="#F2F2F2"/>
<path d="M34.0698 9.96875H1.98218V10.2165H34.0698V9.96875Z" fill="#F3C996"/>
<path d="M32.965 9.74414H3.21172L1.98218 9.97504H34.0698L32.965 9.74414Z" fill="#F2F2F2"/>
<path d="M34.0698 9.2334H1.98218V9.48112H34.0698V9.2334Z" fill="#F3C996"/>
<path d="M32.965 9.00854H3.21172L1.98218 9.23944H34.0698L32.965 9.00854Z" fill="#F2F2F2"/>
<path d="M34.0698 8.49756H1.98218V8.74528H34.0698V8.49756Z" fill="#F3C996"/>
<path d="M32.965 8.27295H3.21172L1.98218 8.50385H34.0698L32.965 8.27295Z" fill="#F2F2F2"/>
<path d="M34.0698 7.76367H1.98218V8.00986H34.0698V7.76367Z" fill="#F3C996"/>
<path d="M32.965 7.53906H3.21172L1.98218 7.76996H34.0698L32.965 7.53906Z" fill="#F2F2F2"/>
<path d="M34.0698 7.02832H1.98218V7.27604H34.0698V7.02832Z" fill="#F2F2F2"/>
<path d="M32.965 6.80347H3.21172L1.98218 7.03437H34.0698L32.965 6.80347Z" fill="#C79F7B"/>
<path d="M34.0698 6.29272H1.98218V6.54045H34.0698V6.29272Z" fill="#F3C996"/>
<path d="M32.965 6.06787H3.21172L1.98218 6.29877H34.0698L32.965 6.06787Z" fill="#F2F2F2"/>
<path d="M34.0698 5.55713H1.98218V5.80332H34.0698V5.55713Z" fill="#F3C996"/>
<path d="M32.965 5.33252H3.21172L1.98218 5.56495H34.0698L32.965 5.33252Z" fill="#F2F2F2"/>
<path d="M34.0698 4.82178H1.98218V5.0695H34.0698V4.82178Z" fill="#F2F2F2"/>
<path d="M32.965 4.59692H3.21172L1.98218 4.82935H34.0698L32.965 4.59692Z" fill="#C79F7B"/>
<path d="M34.0698 4.08765H1.98218V4.33384H34.0698V4.08765Z" fill="#F3C996"/>
<path d="M32.965 3.86279H3.21172L1.98218 4.09369H34.0698L32.965 3.86279Z" fill="#F2F2F2"/>
<path d="M34.0698 3.35229H1.98218V3.59849H34.0698V3.35229Z" fill="#F3C996"/>
<path d="M32.965 3.12744H3.21172L1.98218 3.35834H34.0698L32.965 3.12744Z" fill="#C79F7B"/>
<path d="M34.3386 1.63647H1.3551V3.15797H34.3386V1.63647Z" fill="#052B4E"/>
<path d="M5.21063 1.00806H4.26037L3.8634 1.23896H5.53559L5.21063 1.00806Z" fill="#888A8C"/>
<path d="M31.89 0.942383H30.9398L30.5428 1.17328H32.215L31.89 0.942383Z" fill="#888A8C"/>
<path d="M5.53559 1.23901H3.8634V3.68563H5.53559V1.23901Z" fill="#052B4E"/>
<path d="M32.2132 1.1731H30.5428V3.61972H32.2132V1.1731Z" fill="#052B4E"/>
<path d="M31.616 3.62595V2.09681C31.616 2.04206 31.5911 1.98956 31.5466 1.95084C31.5021 1.91213 31.4418 1.89038 31.3789 1.89038C31.316 1.89038 31.2557 1.91213 31.2112 1.95084C31.1668 1.98956 31.1418 2.04206 31.1418 2.09681V3.62595H31.616Z" fill="#BABCBE"/>
<path d="M4.92958 3.68259V2.15345C4.92958 2.09871 4.90459 2.0462 4.86012 2.00748C4.81565 1.96877 4.75534 1.94702 4.69245 1.94702C4.62956 1.94702 4.56924 1.96877 4.52477 2.00748C4.48031 2.0462 4.45532 2.09871 4.45532 2.15345V3.68259H4.92958Z" fill="#BABCBE"/>
<g style="mix-blend-mode:multiply">
<path d="M45.1147 52.2327C45.1147 52.5951 47.8759 52.8887 51.2835 52.8887C54.6911 52.8887 57.4488 52.5951 57.4488 52.2327C57.4488 51.8703 54.6858 51.5767 51.2782 51.5767C47.8706 51.5767 45.1147 51.8703 45.1147 52.2327Z" fill="#D1D3D4"/>
</g>
<path d="M48.4239 52.2326H54.923C55.0687 52.2326 54.9616 51.7402 54.8211 51.7402H48.4239C48.243 51.7402 48.236 52.2326 48.4239 52.2326Z" fill="#221E28"/>
<path d="M48.4239 51.858H54.4768C55.6853 51.858 54.4768 49.3945 54.4768 49.3945C54.4768 49.3945 51.2484 50.7555 49.7343 50.7555C47.8548 50.7555 48.4239 51.858 48.4239 51.858Z" fill="#2D2932"/>
<path d="M51.085 50.234H55.0072L56.2526 31.5281H50.1453L51.085 50.234Z" fill="#052B4E"/>
<path d="M50.2876 8.31274H53.8796C54.8966 8.31274 55.3164 9.19964 55.3164 10.085V17.5885H52.1442C52.1442 17.5885 52.1284 16.3652 52.0037 15.9493C51.8596 15.4661 51.0095 15.6434 50.4105 15.6434C49.8116 15.6434 49.1985 15.6755 49.2565 14.8957C49.2507 14.4995 49.2096 14.1043 49.1336 13.7137C49.1229 13.5615 49.1425 13.4089 49.1915 13.2626C49.1915 13.2626 48.6048 13.1479 48.5925 12.9567C48.5803 12.7656 49.0053 12.001 49.0053 11.6631C49.0053 11.3481 49.0246 10.7456 49.0246 10.4398C49.0561 10.1429 49.1341 9.8512 49.2565 9.57275L50.2876 8.31274Z" fill="#FBB688"/>
<path d="M48.8929 9.95967C48.8279 10.2655 51.2554 9.6095 51.8385 10.2655C52.2952 10.7762 52.3374 11.4261 51.8578 12.3115C51.7226 12.5638 52.3075 12.5194 52.3075 12.5194C52.3075 12.5194 52.7853 11.5301 53.444 11.9476C54.0359 12.3207 53.4721 13.2519 53.7145 13.7443C54.0289 14.3896 55.5482 14.8147 55.5482 14.8147C55.5243 14.3529 55.5691 13.8903 55.6817 13.4385C55.889 12.6433 56.9605 10.7625 56.423 9.43365C55.8855 8.10483 54.598 7.90451 54.598 7.90451C54.598 7.90451 53.6688 7.17358 52.6008 7.17358C51.0059 7.17358 49.2635 9.426 49.2635 9.426C49.084 9.56947 48.9554 9.75464 48.8929 9.95967Z" fill="#052B4E"/>
<path d="M50.8952 17.5886L55.5148 15.2734V16.3698L49.339 22.2402L50.8952 17.5886Z" fill="#473838"/>
<path d="M49.339 32.889C49.339 32.889 50.0223 33.5343 53.2033 33.5343C56.3843 33.5343 57.0676 32.889 57.0676 32.889C57.0676 32.889 56.783 19.0824 56.6021 18.1267C56.3579 16.8712 55.5166 16.3743 55.5166 16.3743C55.5166 16.3743 54.3046 16.9523 52.7483 17.5976C51.1921 18.2429 49.3407 22.2507 49.3407 22.2507L49.339 32.889Z" fill="#FFCE58"/>
<path d="M44.5526 28.4072C43.6832 28.4164 43.1474 28.1304 43.1299 27.3735C43.1299 26.9958 44.3594 27.0493 44.6984 26.8566C44.9004 26.7419 44.1258 26.7985 44.2101 26.4269C44.2804 26.1211 45.6153 26.1685 45.8999 26.4652C46.1401 26.7097 46.2743 27.0197 46.2793 27.3414C46.2881 28.0983 45.4221 28.398 44.5526 28.4072Z" fill="#FBB688"/>
<path d="M56.1279 19.6483C54.6156 24.9513 47.4807 28.7222 47.2032 28.3169C47.2032 28.3169 46.6306 28.2955 46.0421 27.268C45.4537 26.2404 45.6996 25.8566 45.6908 25.8566C49.9064 23.9054 51.4258 22.4925 53.1349 18.6451C53.1542 18.6451 53.4862 17.2689 55.0459 17.6543C56.7673 18.0732 56.149 19.659 56.1279 19.6483Z" fill="#052B4E"/>
<path d="M56.423 7.39524C56.423 7.07107 56.0243 6.77441 55.3691 6.77441H50.3051C49.6535 6.77441 49.2512 7.04354 49.2512 7.39524V9.41829H56.4177L56.423 7.39524Z" fill="#754C29"/>
<path d="M56.423 8.9978V9.41832H49.2565V8.9978H56.423Z" fill="#F2F2F2"/>
<path d="M15.5248 50.4543C15.5248 50.4543 11.9819 50.517 11.6868 49.9253C12.0153 48.6698 11.3355 45.3195 11.3566 42.3866C11.3566 41.8269 11.7729 40.8406 11.7729 40.5868C11.7729 39.1188 10.9034 31.7285 10.9034 31.7285H14.7396C14.7396 31.7285 14.4691 39.339 14.4691 40.0853C14.4463 40.683 14.373 41.2784 14.2496 41.8667L14.016 49.0842L15.5248 50.4543Z" fill="#FBB688"/>
<path d="M17.3743 51.5537C17.3743 51.5537 15.7425 51.5537 14.9047 51.5537C13.7507 51.3335 13.0604 50.8473 12.6757 50.8473C12.291 50.8473 12.4491 51.5063 12.2295 51.5063C12.0131 51.4956 11.7961 51.4956 11.5796 51.5063C11.404 51.5277 11.3829 49.2447 11.5796 49.1102C11.7764 48.9756 13.5118 50.6699 16.1869 50.4344C18.0225 50.4344 17.3743 51.5537 17.3743 51.5537Z" fill="#00182F"/>
<path d="M9.9215 39.1587C9.9215 39.1587 7.23231 28.3171 10.0076 26.1228C11.4251 25.0019 14.2232 25.2282 15.4211 26.6136C17.4323 28.9364 15.7724 39.1526 15.7724 39.1526L9.9215 39.1587Z" fill="#052B4E"/>
<path d="M16.2379 9.62935C16.2379 9.62935 13.9369 8.93359 12.9462 8.93359C11.9555 8.93359 11.541 9.79603 11.541 10.6585V17.9586H14.6289C14.6289 17.9586 14.6289 16.8882 14.6289 16.2337C14.6289 15.5792 15.4211 15.9386 16.0043 15.9386C16.5874 15.9386 16.9528 15.7857 17.0845 15.0639C17.1513 14.7046 17.3322 13.7504 17.3322 13.7504C17.3322 13.7504 17.9136 13.628 17.9153 13.4446C17.9171 13.2611 17.4622 12.9705 17.3884 12.2702C17.3568 11.9643 17.3691 11.5469 17.3691 11.2472C17.3691 10.9475 17.3884 10.3542 17.3884 10.3542L16.2379 9.62935Z" fill="#FBB688"/>
<path d="M14.6359 17.3483L11.3566 15.7061V16.7734L15.8567 20.4234L14.6359 17.3483Z" fill="#A7A9AC"/>
<path d="M10.062 25.7265C9.75464 25.2173 9.85124 19.0488 9.85124 18.5931C9.85124 17.6512 11.3566 16.7734 11.3566 16.7734C11.3566 16.7734 12.5352 17.3346 14.0475 17.957C14.513 18.1481 15.2367 18.3974 15.3824 18.9463C15.8567 20.7247 16.5171 21.4388 16.5417 21.9725C16.5663 22.5062 15.797 23.3625 15.797 23.3625C15.797 23.3625 15.9357 26.2877 15.4738 26.5079C16.1571 27.1349 9.28917 26.3978 10.062 25.7265Z" fill="#FFCE58"/>
<path d="M17.3884 51.5444C17.3887 51.587 17.371 51.6282 17.3385 51.6601C17.3061 51.692 17.2613 51.7123 17.2127 51.7172H15.0663C15.0176 51.7127 14.9725 51.6924 14.94 51.6604C14.9075 51.6285 14.8899 51.5871 14.8906 51.5444H17.3884Z" fill="black"/>
<path d="M12.3068 51.4697C12.3068 51.5661 12.2805 51.6425 12.2506 51.6425H11.5814C11.5516 51.6425 11.527 51.5661 11.5252 51.4697H12.3068Z" fill="black"/>
<path d="M17.4007 10.3558C16.554 10.839 17.1793 11.7916 15.4843 11.9583C14.8625 12.0195 14.8204 13.2626 14.8204 13.2626C14.8204 13.2626 14.5411 12.2137 13.9 12.6189C13.3256 12.9828 13.8403 13.6403 13.7893 14.1786C13.6137 14.5288 10.1867 18.3684 10.0638 19.3578C9.84598 21.1255 9.97245 21.9726 9.97245 21.9726C8.24406 21.0551 10.3993 16.9142 10.3993 15.7031C10.3993 13.778 10.2236 11.7778 10.74 10.4857C11.0344 9.7266 11.5565 9.04978 12.2524 8.52537C12.8539 8.37879 13.4756 8.3047 14.1002 8.30518C15.6512 8.30518 15.9199 8.76392 16.5488 9.08504C17.1776 9.40616 18.4633 9.74715 17.4007 10.3558Z" fill="#052B4E"/>
<path d="M13.4345 31.282C13.8385 31.5725 14.7589 31.597 15.3947 31.282C15.7618 31.097 14.729 30.5771 14.6921 30.2376C14.6675 30.0342 15.0961 30.5771 15.3649 30.2927C15.5879 30.0587 14.729 29.2223 14.2899 29.2085C13.9386 29.2085 13.5381 29.2483 13.2992 29.499C13.0094 29.7957 12.7846 30.811 13.4345 31.282Z" fill="#FBB688"/>
<path d="M10.8015 19.7873C10.2553 26.803 13.2114 28.8888 13.0288 30.161C13.1043 30.3888 12.8075 30.8094 13.7753 30.3139C14.7431 29.8185 14.3532 29.2053 14.3549 29.2053C12.407 26.118 12.7091 23.8013 13.2343 20.4189C13.2185 20.4189 13.9369 19.1604 12.63 18.801C11.1897 18.4096 10.7822 19.7858 10.8015 19.7873Z" fill="#FBB688"/>
<path d="M12.9831 23.1973H10.6627C10.568 22.0264 10.568 20.8511 10.6627 19.6802C10.6417 19.6802 11.0913 18.1511 12.6827 18.5961C14.1213 18.9921 13.3326 20.376 13.3502 20.3836C13.1974 21.3913 13.0604 22.3165 12.9831 23.1973Z" fill="#052B4E"/>
<g style="mix-blend-mode:multiply">
<path d="M7.89453 52.9436C7.89453 53.4926 12.5528 53.9361 18.2965 53.9361C24.0402 53.9361 28.6985 53.4926 28.6985 52.9436C28.6985 52.3947 24.042 51.9497 18.2965 51.9497C12.551 51.9497 7.89453 52.3947 7.89453 52.9436Z" fill="#D1D3D4"/>
</g>
<g style="mix-blend-mode:multiply">
<path d="M20.6186 52.0034C20.6186 52.3826 23.5186 52.6885 27.0948 52.6885C30.671 52.6885 33.5692 52.3826 33.5692 52.0034C33.5692 51.6242 30.671 51.3184 27.0948 51.3184C23.5186 51.3184 20.6186 51.6318 20.6186 52.0034Z" fill="#D1D3D4"/>
</g>
<path d="M33.5095 49.0505V49.968C33.5091 50.1872 33.4087 50.3972 33.2306 50.552C33.0524 50.7068 32.811 50.7938 32.5593 50.7938H22.8845C22.6329 50.7938 22.3917 50.7068 22.2138 50.5519C22.0359 50.397 21.936 50.187 21.936 49.968V49.0505H33.5095Z" fill="#353F4B"/>
<path d="M22.8845 35.5574H32.5593C32.8743 35.5574 33.0078 35.766 33.0078 35.8831V49.0352C33.0078 49.1523 32.8743 49.361 32.5593 49.361H22.8845C22.5694 49.361 22.436 49.1523 22.436 49.0352V35.8831C22.436 35.766 22.5694 35.5574 22.8845 35.5574Z" fill="#F2F2F2" stroke="#052B4E"/>
<path d="M32.0727 44.2429H23.3728V48.1942H32.0727V44.2429Z" fill="#A43634"/>
<path d="M31.6125 44.6558H23.8347V47.7813H31.6125V44.6558Z" fill="#052B4E"/>
<path d="M30.5147 40.7043H24.9308V43.2397H30.5147V40.7043Z" fill="#A43634"/>
<path d="M30.2179 40.969H25.2259V42.9752H30.2179V40.969Z" fill="#052B4E"/>
<path d="M30.7448 34.2163H24.9519V35.0573H30.7448V34.2163Z" fill="#353F4B"/>
<path d="M30.541 31.5618H30.0334V34.2163H30.541V31.5618Z" fill="#171F29"/>
<path d="M25.8318 31.5618H25.3242V34.2163H25.8318V31.5618Z" fill="#171F29"/>
<path d="M25.0397 31.6351C25.0397 31.7407 25.0878 31.842 25.1734 31.9168C25.259 31.9916 25.3751 32.0338 25.4964 32.0342H30.1986C30.3201 32.0342 30.4368 31.9922 30.5227 31.9173C30.6087 31.8425 30.657 31.741 30.657 31.6351C30.6565 31.5295 30.608 31.4284 30.5221 31.3539C30.4362 31.2794 30.3198 31.2375 30.1986 31.2375H25.4964C25.3754 31.238 25.2595 31.28 25.174 31.3544C25.0885 31.4289 25.0402 31.5298 25.0397 31.6351Z" fill="#171F29"/>
<path d="M32.1148 50.7891L31.6177 51.9497H30.8958L30.5568 50.7891H32.1148Z" fill="#1A222C"/>
<path d="M24.8886 50.7891L24.3916 51.9497H23.6696L23.3306 50.7891H24.8886Z" fill="#1A222C"/>
<path d="M31.335 45.0105H24.1088V45.1573H31.335V45.0105Z" fill="white"/>
<path d="M30.0334 41.1755H25.4595V41.3239H30.0334V41.1755Z" fill="white"/>
<path d="M10.4783 42.521H26.5801C26.8748 42.521 26.9917 42.7153 26.9917 42.8146V52.2693C26.9917 52.3686 26.8748 52.5629 26.5801 52.5629H10.4783C10.1837 52.5629 10.0667 52.3686 10.0667 52.2693V42.8146C10.0667 42.7153 10.1837 42.521 10.4783 42.521Z" fill="#F2F2F2" stroke="#052B4E"/>
<path d="M24.4197 42.021H22.7493V53.0629H24.4197V42.021Z" fill="#052B4E"/>
<path d="M14.3075 42.021H12.6371V53.0629H14.3075V42.021Z" fill="#052B4E"/>
<path d="M20.6783 42.0209V41.3175C20.6783 41.1861 20.6184 41.0601 20.5116 40.9672C20.4049 40.8743 20.2601 40.8221 20.1092 40.8221H16.9475C16.8729 40.8221 16.7989 40.8349 16.73 40.8598C16.661 40.8848 16.5984 40.9213 16.5457 40.9673C16.493 41.0133 16.4513 41.068 16.4229 41.1281C16.3944 41.1882 16.3799 41.2526 16.3802 41.3175V42.0209H15.0856V40.631C15.0856 40.5269 15.1092 40.4239 15.1549 40.3278C15.2006 40.2317 15.2676 40.1444 15.3521 40.0709C15.4366 39.9973 15.5369 39.939 15.6473 39.8992C15.7577 39.8594 15.876 39.8389 15.9955 39.8389H21.0595C21.3009 39.8389 21.5326 39.9223 21.7035 40.0708C21.8744 40.2193 21.9706 40.4207 21.9711 40.631V42.0209H20.6783Z" fill="#1E0500"/>
</svg>
