<svg width="68" height="57" viewBox="0 0 68 57" fill="none" xmlns="http://www.w3.org/2000/svg">
<g clip-path="url(#clip0_1_10525)">
<path d="M45.7826 26.8641C45.9196 26.7694 46.0274 26.6382 46.0936 26.4854C46.1599 26.3326 46.182 26.1643 46.1574 25.9996C46.1329 25.8348 46.0627 25.6803 45.9547 25.5534C45.8468 25.4266 45.7055 25.3325 45.5468 25.2819L43.5017 24.6296L42.3779 25.6035L44.8587 26.9183C45.0029 26.9947 45.1653 27.0301 45.3282 27.0205C45.4912 27.011 45.6483 26.9568 45.7826 26.8641Z" fill="#FFB9B9"/>
<path d="M42.3434 26.2395L43.6916 24.6762L38.6713 19.1816L36.3598 13.8225C36.2075 13.4694 35.9363 13.1807 35.5934 13.0067C35.2505 12.8326 34.8575 12.7841 34.4825 12.8695C34.2373 12.9254 34.0082 13.0368 33.8127 13.195C33.6172 13.3532 33.4606 13.5542 33.3548 13.7824C33.2491 14.0106 33.197 14.26 33.2027 14.5114C33.2083 14.7629 33.2715 15.0097 33.3874 15.2329L36.4044 21.0441L42.3434 26.2395Z" fill="#052B4E"/>
<path d="M45.5643 46.9483L45.306 46.5473H44.8288V46.3723H45.4013L45.7115 46.8535L45.5643 46.9483Z" fill="#3F3D56"/>
<path d="M44.4937 46.5472H43.488V46.3722H44.4937V46.5472ZM43.1527 46.5472H42.1471V46.3722H43.1527V46.5472ZM41.8119 46.5472H40.8062V46.3722H41.8119L41.8119 46.5472ZM40.4709 46.5472H39.4653V46.3722H40.4709V46.5472ZM39.1301 46.5472H38.1244V46.3722H39.1301V46.5472ZM37.7891 46.5472L36.8575 46.5464L36.7727 46.5351L36.7958 46.3617L36.8748 46.3722H37.7891V46.5472ZM36.4404 46.4909L35.4435 46.3585L35.4666 46.1851L36.4635 46.3175L36.4404 46.4909ZM35.1112 46.3144L34.1143 46.1819L34.1374 46.0085L35.1343 46.141L35.1112 46.3144ZM33.782 46.1377L32.7851 46.0053L32.8082 45.8319L33.8051 45.9643L33.782 46.1377ZM32.4528 45.9612L31.4559 45.8287L31.4789 45.6553L32.4758 45.7878L32.4528 45.9612Z" fill="#3F3D56"/>
<path d="M30.6872 46.1559L30.5124 46.151L30.5301 45.5293L31.1466 45.6113L31.1235 45.7846L30.6995 45.7284L30.6872 46.1559Z" fill="#3F3D56"/>
<path d="M30.5535 50.8394L30.3786 50.8344L30.412 49.6636L30.5869 49.6685L30.5535 50.8394ZM30.598 49.2782L30.4232 49.2733L30.4566 48.1024L30.6315 48.1074L30.598 49.2782ZM30.6426 47.7171L30.4678 47.7121L30.5012 46.5413L30.6761 46.5462L30.6426 47.7171Z" fill="#3F3D56"/>
<path d="M30.3497 51.8464L30.3674 51.2246L30.5423 51.2295L30.53 51.657L30.9563 51.6238L30.9699 51.7982L30.3497 51.8464Z" fill="#3F3D56"/>
<path d="M31.3047 51.7725L31.2911 51.598L32.2954 51.52L32.309 51.6944L31.3047 51.7725ZM32.6438 51.6684L32.6302 51.494L33.6345 51.4159L33.6481 51.5903L32.6438 51.6684ZM33.9829 51.5644L33.9693 51.3899L34.9737 51.3119L34.9871 51.4863L33.9829 51.5644ZM35.3219 51.4603L35.3084 51.2859L36.3127 51.2078L36.3262 51.3823L35.3219 51.4603ZM36.661 51.3563L36.6475 51.1819L37.6518 51.1038L37.6653 51.2782L36.661 51.3563ZM38.0001 51.2522L37.9866 51.0778L38.9909 50.9997L39.0044 51.1742L38.0001 51.2522ZM39.3392 51.1482L39.3257 50.9738L40.33 50.8957L40.3435 51.0701L39.3392 51.1482ZM40.6783 51.0442L40.6648 50.8697L41.6691 50.7917L41.6826 50.9661L40.6783 51.0442ZM42.0174 50.9401L42.0039 50.7657L43.0082 50.6876L43.0217 50.862L42.0174 50.9401ZM43.3565 50.8361L43.343 50.6616L44.3473 50.5836L44.3608 50.758L43.3565 50.8361ZM44.6956 50.732L44.6821 50.5576L45.6864 50.4795L45.6999 50.654L44.6956 50.732ZM46.0347 50.628L46.0212 50.4536L47.0255 50.3755L47.039 50.5499L46.0347 50.628Z" fill="#3F3D56"/>
<path d="M47.3738 50.5239L47.3602 50.3495L47.7374 50.3202L47.5325 50.0023L47.6796 49.9075L48.0432 50.4718L47.3738 50.5239Z" fill="#3F3D56"/>
<path d="M47.3138 49.6629L46.6578 48.6449L46.8049 48.5501L47.4609 49.5681L47.3138 49.6629ZM46.4391 48.3057L45.7831 47.2877L45.9302 47.1929L46.5862 48.2108L46.4391 48.3057Z" fill="#3F3D56"/>
<path d="M44.0853 54.2884C47.3703 54.2884 50.0334 51.6254 50.0334 48.3404C50.0334 45.0554 47.3703 42.3923 44.0853 42.3923C40.8003 42.3923 38.1373 45.0554 38.1373 48.3404C38.1373 51.6254 40.8003 54.2884 44.0853 54.2884Z" fill="#052B4E"/>
<path d="M48.9837 55.2506L40.2803 39.812L38.356 41.7364L46.9281 55.2069L48.9837 55.2506Z" fill="#473838"/>
<path d="M22.6112 54.8571L42.1609 35.0449L43.7792 38.2376L25.2353 55.7318L22.6112 54.8571Z" fill="#473838"/>
<path d="M30.5711 52.7576C32.745 52.7576 34.5073 50.9953 34.5073 48.8214C34.5073 46.6475 32.745 44.8853 30.5711 44.8853C28.3972 44.8853 26.6349 46.6475 26.6349 48.8214C26.6349 50.9953 28.3972 52.7576 30.5711 52.7576Z" fill="#473838"/>
<path d="M25.3228 49.9585C25.2996 49.9585 25.2774 49.9677 25.261 49.9841C25.2446 50.0005 25.2354 50.0228 25.2354 50.046V50.7457C25.2354 50.7689 25.2446 50.7912 25.261 50.8076C25.2774 50.824 25.2996 50.8332 25.3228 50.8332H27.5096C27.5328 50.8332 27.555 50.824 27.5714 50.8076C27.5878 50.7912 27.597 50.7689 27.5971 50.7457V50.046C27.597 50.0228 27.5878 50.0005 27.5714 49.9841C27.555 49.9677 27.5328 49.9585 27.5096 49.9585H25.3228Z" fill="#052B4E"/>
<path d="M30.3524 40.2056C30.3292 40.2056 30.307 40.2148 30.2906 40.2312C30.2742 40.2476 30.265 40.2698 30.265 40.293V40.9928C30.265 41.016 30.2742 41.0382 30.2906 41.0546C30.307 41.071 30.3292 41.0803 30.3524 41.0803H32.5392C32.5624 41.0803 32.5846 41.071 32.601 41.0546C32.6174 41.0382 32.6266 41.016 32.6267 40.9928V40.293C32.6266 40.2698 32.6174 40.2476 32.601 40.2312C32.5846 40.2148 32.5624 40.2056 32.5392 40.2056H30.3524Z" fill="#052B4E"/>
<path d="M40.9801 38.7624H38.7059V37.013L39.5806 36.6631L40.9801 37.7127V38.7624Z" fill="#473838"/>
<path d="M38.9937 36.2201L38.7565 36.3323L39.2053 37.2811L39.4425 37.1689L38.9937 36.2201Z" fill="#473838"/>
<path d="M39.2451 35.0847C39.2284 35.0847 39.2121 35.0896 39.1981 35.0986L37.6531 36.0923C37.6336 36.1049 37.6199 36.1247 37.615 36.1473C37.6101 36.17 37.6143 36.1937 37.6269 36.2132L38.0053 36.8017C38.0179 36.8212 38.0377 36.8349 38.0604 36.8399C38.083 36.8448 38.1067 36.8405 38.1262 36.828L39.6712 35.8343C39.6907 35.8218 39.7044 35.802 39.7093 35.7793C39.7142 35.7567 39.71 35.733 39.6974 35.7135L39.3189 35.1249C39.3128 35.1152 39.3047 35.1069 39.2953 35.1003C39.2858 35.0938 39.2752 35.0892 39.2639 35.0868C39.2578 35.0854 39.2515 35.0847 39.2451 35.0847Z" fill="#052B4E"/>
<path d="M42.7296 38.5874L40.9364 29.8841L43.0357 29.5342L44.4671 36.5454C44.5286 36.7996 44.5291 37.0647 44.4685 37.3191C44.408 37.5735 44.288 37.81 44.1186 38.0091C43.9491 38.2083 43.7349 38.3645 43.4935 38.465C43.2521 38.5655 42.9903 38.6075 42.7296 38.5874Z" fill="#473838"/>
<path d="M49.3363 28.1691L47.2596 28.0207C47.2319 28.0187 47.205 28.0102 47.1812 27.9957C47.1574 27.9813 47.1374 27.9613 47.1229 27.9376C47.1084 27.9139 47.0997 27.887 47.0977 27.8592C47.0956 27.8315 47.1002 27.8036 47.111 27.778L50.1276 20.6556C50.1389 20.6288 50.1568 20.6052 50.1796 20.5871C50.2023 20.5689 50.2292 20.5567 50.2579 20.5516L52.3062 20.1858C52.3369 20.1804 52.3684 20.1832 52.3975 20.1939C52.4267 20.2047 52.4525 20.223 52.4722 20.2471C52.492 20.2711 52.5049 20.3 52.5098 20.3307C52.5147 20.3614 52.5112 20.3928 52.4999 20.4218L49.5117 28.0583C49.4981 28.0931 49.4738 28.1226 49.4422 28.1425C49.4107 28.1624 49.3736 28.1717 49.3363 28.1691Z" fill="#473838"/>
<path d="M47.5404 27.4786L49.2024 27.6535L51.9139 20.8308L50.1645 21.0932L47.5404 27.4786Z" fill="#052B4E"/>
<path d="M29.4339 46.1973L27.2472 48.3841L24.0982 34.6511L25.8476 34.9135L29.4339 46.1973Z" fill="#473838"/>
<path d="M26.8856 34.8928L26.5078 34.7795C25.7657 35.1067 24.9582 35.2587 24.1479 35.2236C23.9729 35.2164 23.8076 35.1415 23.6867 35.0147C23.5658 34.888 23.4987 34.7193 23.4997 34.5441C23.4997 34.3638 23.5714 34.1908 23.6989 34.0632C23.8265 33.9357 23.9994 33.864 24.1798 33.864H27.479C27.5683 33.864 27.654 33.8995 27.7171 33.9626C27.7803 34.0258 27.8157 34.1115 27.8157 34.2008C27.8157 34.3134 27.7894 34.4245 27.7388 34.5251C27.6883 34.6258 27.6149 34.7132 27.5245 34.7805C27.4341 34.8477 27.3293 34.8929 27.2183 34.9124C27.1074 34.9319 26.9934 34.9252 26.8856 34.8928Z" fill="#473838"/>
<path d="M47.7826 26.3047C47.6981 26.3046 47.616 26.3323 47.5488 26.3835L44.8634 28.4371L41.8573 28.8292C41.3398 28.8967 40.9813 29.4597 40.9364 29.9716L44.4749 29.4802C44.9664 29.4328 45.431 29.2334 45.8039 28.9098L48.0346 26.9806C48.0941 26.9293 48.1364 26.861 48.1559 26.7849C48.1754 26.7088 48.1712 26.6286 48.1437 26.555C48.1163 26.4814 48.067 26.4179 48.0024 26.3732C47.9379 26.3284 47.8612 26.3045 47.7826 26.3047Z" fill="#473838"/>
<path d="M46.4705 24.9924C46.3861 24.9923 46.3039 25.02 46.2368 25.0713L43.5513 27.1248L40.5452 27.5169C40.0277 27.5844 39.6693 28.1474 39.6243 28.6593L43.1628 28.1679C43.6543 28.1206 44.1189 27.9212 44.4919 27.5976L46.7225 25.6683C46.782 25.617 46.8243 25.5487 46.8439 25.4726C46.8634 25.3965 46.8591 25.3163 46.8317 25.2427C46.8042 25.1691 46.7549 25.1057 46.6904 25.0609C46.6258 25.0162 46.5491 24.9923 46.4705 24.9924Z" fill="#473838"/>
<path d="M48.109 30.2775C47.4837 30.2762 46.8673 30.1282 46.3096 29.8454C45.7519 29.5625 45.2683 29.1528 44.8977 28.6491L45.2503 28.3904C45.5332 28.7768 45.8914 29.1018 46.3034 29.3458C46.7154 29.5898 47.1726 29.7478 47.6474 29.8102C48.1221 29.8726 48.6046 29.8381 49.0657 29.7087C49.5267 29.5794 49.9567 29.358 50.3298 29.0578C50.7029 28.7576 51.0112 28.3849 51.2362 27.9622C51.4612 27.5395 51.5981 27.0756 51.6388 26.5985C51.6794 26.1214 51.623 25.641 51.4728 25.1863C51.3225 24.7316 51.0817 24.3121 50.7648 23.9532L51.0927 23.6636C51.5997 24.2379 51.9302 24.9464 52.0444 25.7039C52.1587 26.4614 52.0519 27.2358 51.7369 27.9341C51.4218 28.6325 50.912 29.225 50.2684 29.6407C49.6249 30.0564 48.8751 30.2775 48.109 30.2775Z" fill="#473838"/>
<path d="M51.1704 54.8132H20.2057V57H51.1704V54.8132Z" fill="#473838"/>
<path d="M43.5821 29.1144C43.7367 29.0526 43.8709 28.9486 43.9695 28.8143C44.0681 28.6801 44.127 28.5209 44.1397 28.3548C44.1524 28.1888 44.1182 28.0225 44.0412 27.8748C43.9642 27.7271 43.8473 27.604 43.7038 27.5194L41.8548 26.429L40.5427 27.1287L42.6693 28.962C42.7929 29.0685 42.9434 29.1391 43.1043 29.166C43.2653 29.1929 43.4306 29.175 43.5821 29.1144Z" fill="#FFB9B9"/>
<path d="M29.084 36.838L30.3086 37.5377L37.8703 31.9719C38.1476 31.7824 38.3827 31.5376 38.5609 31.2529C38.739 30.9682 38.8564 30.6498 38.9056 30.3175C38.9671 29.8975 38.9182 29.4687 38.7635 29.0733C38.6089 28.678 38.354 28.3297 38.0239 28.0628C36.3539 26.7065 34.2901 25.4763 32.1018 24.2859L28.8654 25.8604C30.1991 28.5952 31.6797 30.8501 33.8512 30.8462L29.084 36.838Z" fill="#052B4E"/>
<path d="M28.5503 38.6198C29.5663 39.6492 30.9042 40.3856 32.3986 40.9798C32.5113 41.0244 32.635 41.033 32.7527 41.0044C32.8704 40.9758 32.9764 40.9114 33.056 40.82C33.1527 40.7092 33.2041 40.566 33.2001 40.419C33.1961 40.272 33.1368 40.1319 33.0342 40.0265L32.0655 39.032L31.4802 36.9475C30.2234 37.5688 29.3993 37.4297 29.2368 36.1282L28.4446 37.2085C28.2915 37.4179 28.2181 37.675 28.2374 37.9336C28.2568 38.1923 28.3677 38.4356 28.5503 38.6198Z" fill="#2F2E41"/>
<path d="M25.1479 47.8593L26.9848 47.9467L31.1834 26.3414L23.967 24.0234C23.2465 26.7171 24.3163 31.1263 26.1975 36.3131L25.1479 47.8593Z" fill="#052B4E"/>
<path d="M39.2744 12.215C40.8686 12.215 42.161 10.9226 42.161 9.32843C42.161 7.73424 40.8686 6.44189 39.2744 6.44189C37.6802 6.44189 36.3879 7.73424 36.3879 9.32843C36.3879 10.9226 37.6802 12.215 39.2744 12.215Z" fill="#FFB9B9"/>
<path d="M33.9824 12.8709L35.8193 14.183L38.6184 11.3839L37.2188 9.63452L33.9824 12.8709Z" fill="#FFB9B9"/>
<path d="M23.6609 24.2422C25.9262 26.0882 28.4 27.3017 31.4458 26.7789C32.3662 25.3074 33.0457 22.2077 34.2011 20.8746C36.7243 17.9632 37.9756 15.3683 37.1751 13.0022C36.397 12.4935 36.4312 12.4943 35.8631 10.8154C31.4128 11.6388 27.1045 16.6624 23.6609 24.2422Z" fill="#FFCE58"/>
<path d="M25.1185 49.6595C26.426 50.2778 27.9354 50.5106 29.5429 50.556C29.664 50.5592 29.7831 50.5249 29.8839 50.4576C29.9847 50.3904 30.0621 50.2935 30.1056 50.1804C30.1584 50.0431 30.1576 49.891 30.1034 49.7543C30.0491 49.6176 29.9454 49.5063 29.8129 49.4425L28.5618 48.8407L27.2969 47.0835C26.3295 48.0982 25.5077 48.2503 24.9086 47.0835L24.5351 48.37C24.4631 48.6192 24.4823 48.8859 24.5892 49.1222C24.6961 49.3586 24.8838 49.549 25.1185 49.6595Z" fill="#2F2E41"/>
<path d="M40.3678 27.7411L42.0297 26.5165L38.356 20.0436L37.2932 14.3048C37.2232 13.9267 37.023 13.585 36.7273 13.3391C36.4317 13.0931 36.0592 12.9585 35.6747 12.9585C35.4232 12.9585 35.175 13.0161 34.9492 13.127C34.7235 13.2378 34.5261 13.3989 34.3723 13.5979C34.2185 13.7969 34.1123 14.0285 34.062 14.2749C34.0116 14.5213 34.0184 14.776 34.0818 15.0194L35.7318 21.3557L40.3678 27.7411Z" fill="#052B4E"/>
<path d="M32.0144 40.9929H31.0522V46.2412H32.0144V40.9929Z" fill="#473838"/>
<path d="M41.5591 8.4911C41.6721 8.62655 41.8171 8.73175 41.9809 8.7972C42.1447 8.86266 42.3222 8.88632 42.4975 8.86605C42.8449 8.81188 43.1542 8.51548 43.1764 8.16453C43.1956 7.86147 43.0175 7.58351 42.8306 7.34419C42.4181 6.81647 41.9283 6.35408 41.3777 5.97268C41.1152 5.79092 40.8255 5.62359 40.5067 5.604C40.349 5.5943 40.191 5.62149 40.0331 5.6147C39.7429 5.60223 39.4709 5.47663 39.1877 5.41158C38.897 5.34681 38.5958 5.34525 38.3044 5.40699C38.013 5.46873 37.7382 5.59234 37.4988 5.76946C37.3391 5.89148 37.1946 6.03227 37.0686 6.18879C36.7199 6.61523 36.4861 7.12374 36.3893 7.66601C36.2371 8.52557 36.4271 9.46829 36.014 10.2373C36.4987 10.1921 36.8873 9.8225 37.3477 9.66454C37.6894 9.54855 38.0602 9.55186 38.3998 9.67392C38.4872 9.71875 38.5858 9.73719 38.6836 9.727C38.7643 9.6985 38.8349 9.64688 38.8866 9.57858L39.767 8.62058C39.9462 8.42561 40.1498 8.2179 40.4132 8.1909C40.5704 8.18547 40.7269 8.21649 40.8701 8.28154C41.2232 8.41503 41.5646 8.57728 41.8911 8.76666" fill="#2F2E41"/>
<path d="M39.8867 28.4845L39.6243 28.6594L41.3737 30.4088L42.4234 29.4467L40.674 28.0471L39.8867 28.4845Z" fill="#473838"/>
<path d="M21.663 0.0695801H0V22.484H21.663V0.0695801Z" fill="#052B4E"/>
<path d="M20.5067 1.26611H1.15637V21.2873H20.5067V1.26611Z" fill="#473838"/>
<path d="M11.2838 0.668701H10.4091V21.8367H11.2838V0.668701Z" fill="white"/>
<path d="M21.663 10.8154H0V11.6901H21.663V10.8154Z" fill="white"/>
</g>
<defs>
<clipPath id="clip0_1_10525">
<rect width="67.3789" height="56.9304" fill="white" transform="translate(0 0.0695801)"/>
</clipPath>
</defs>
</svg>
