<svg width="26" height="26" viewBox="0 0 26 26" fill="none" xmlns="http://www.w3.org/2000/svg">
<path d="M13.2446 22.3833L13.2428 22.3842C13.1682 22.4244 13.0847 22.4454 13 22.4454C12.9153 22.4454 12.8318 22.4244 12.7572 22.3842L12.7554 22.3833C12.5411 22.2698 9.81618 20.7844 7.14935 18.4489C4.46674 16.0996 1.92509 12.9613 1.925 9.54705C1.92683 7.9571 2.55925 6.43279 3.68352 5.30852C4.80779 4.18425 6.3321 3.55183 7.92205 3.55C9.93157 3.55005 11.6761 4.41271 12.7601 5.85646L13 6.17597L13.2399 5.85646C14.3239 4.41271 16.0684 3.55005 18.0779 3.55C19.6679 3.55183 21.1922 4.18425 22.3165 5.30852C23.4408 6.43283 24.0732 7.9572 24.075 9.54721C24.0748 12.9614 21.5332 16.0996 18.8507 18.4489C16.1838 20.7844 13.4589 22.2698 13.2446 22.3833Z" fill="#F9C852" stroke="white" stroke-width="0.6"/>
</svg>
