<svg width="80" height="50" viewBox="0 0 80 50" fill="none" xmlns="http://www.w3.org/2000/svg">
<path d="M40.1262 29.6404H74.4749V40.9679H40.1262V29.6404Z" fill="#E4E3E3"/>
<path d="M55.2978 31.9814H59.3029V40.9679H55.2978V31.9814Z" fill="#340202"/>
<path d="M42.1285 16.2739H72.4721V26.6952H42.1285V16.2739Z" fill="#E4E3E3"/>
<path d="M39.0523 16.9158H75.5485C75.6094 16.9158 75.6689 16.8955 75.7194 16.8576C75.7699 16.8196 75.8091 16.7658 75.8318 16.7029C75.8546 16.64 75.8599 16.571 75.8472 16.5047C75.8344 16.4384 75.8041 16.3779 75.7602 16.331L65.7857 5.66524V1.01948C65.7856 0.929382 65.7534 0.843005 65.6961 0.779297C65.6389 0.715589 65.5612 0.679754 65.4802 0.679652H63.5116C63.4307 0.679751 63.353 0.715586 63.2957 0.779294C63.2385 0.843003 63.2063 0.929381 63.2062 1.01948V2.90696L62.4528 2.10135C61.2199 0.783039 59.5843 0.0326715 57.8745 0.00104202C56.1647 -0.0305875 54.5075 0.658864 53.2359 1.93084L38.848 16.3232C38.8021 16.3692 38.7697 16.4296 38.7553 16.4964C38.7408 16.5633 38.7449 16.6334 38.767 16.6976C38.7892 16.7618 38.8283 16.817 38.8792 16.8559C38.9301 16.8949 38.9905 16.9158 39.0523 16.9158Z" fill="#473838"/>
<path d="M64.462 18.917C64.2079 18.917 63.9564 18.9727 63.7216 19.0808C63.4869 19.189 63.2736 19.3475 63.094 19.5474C62.9143 19.7472 62.7718 19.9845 62.6746 20.2456C62.5774 20.5067 62.5274 20.7866 62.5274 21.0692V23.9766H66.3967V21.0692C66.3967 20.7866 66.3466 20.5067 66.2494 20.2456C66.1522 19.9845 66.0097 19.7472 65.83 19.5474C65.6504 19.3475 65.4371 19.189 65.2024 19.0808C64.9676 18.9727 64.7161 18.917 64.462 18.917Z" fill="#1F0101"/>
<path d="M57.3002 18.9546C56.7871 18.9546 56.295 19.1813 55.9322 19.585C55.5694 19.9886 55.3655 20.536 55.3655 21.1068V24.0142H59.2349V21.1068C59.2349 20.536 59.031 19.9886 58.6682 19.585C58.3054 19.1813 57.8133 18.9546 57.3002 18.9546Z" fill="white"/>
<path d="M50.1386 18.9924C49.6255 18.9924 49.1335 19.2192 48.7706 19.6228C48.4078 20.0264 48.204 20.5739 48.204 21.1447V24.0521H52.0733V21.1447C52.0733 20.5739 51.8695 20.0264 51.5067 19.6228C51.1438 19.2192 50.6517 18.9924 50.1386 18.9924Z" fill="white"/>
<path d="M47.2875 31.8682C46.7744 31.8682 46.2823 32.0949 45.9195 32.4985C45.5567 32.9022 45.3529 33.4496 45.3529 34.0204V36.9278H49.2222V34.0204C49.2222 33.4496 49.0183 32.9022 48.6555 32.4985C48.2927 32.0949 47.8006 31.8682 47.2875 31.8682Z" fill="#1F0101"/>
<path d="M66.4307 31.8682C65.9176 31.8682 65.4255 32.0949 65.0627 32.4985C64.6999 32.9022 64.496 33.4496 64.496 34.0204V36.9278H68.3654V34.0204C68.3654 33.7378 68.3153 33.4579 68.2181 33.1968C68.1209 32.9356 67.9784 32.6984 67.7987 32.4985C67.6191 32.2987 67.4058 32.1402 67.1711 32.032C66.9363 31.9238 66.6848 31.8682 66.4307 31.8682Z" fill="#1F0101"/>
<path d="M35.1077 29.8172L41.5512 26.6455C41.5858 26.6284 41.6232 26.6196 41.661 26.6196H72.3693C72.4044 26.6196 72.4391 26.6272 72.4716 26.6419L79.4853 29.8136C79.5436 29.84 79.5919 29.8881 79.6218 29.9497C79.6518 30.0113 79.6616 30.0826 79.6495 30.1514C79.6374 30.2201 79.6042 30.282 79.5556 30.3266C79.507 30.3711 79.446 30.3955 79.383 30.3955H77.5633V40.8168H77.767V41.874H36.8336V40.8168H37.173V30.3955H35.2176C35.1553 30.3955 35.095 30.3717 35.0466 30.328C34.9982 30.2844 34.9648 30.2236 34.9519 30.1559C34.9391 30.0881 34.9475 30.0175 34.9759 29.9558C35.0042 29.8941 35.0508 29.8452 35.1077 29.8172ZM37.7161 40.8168H77.0202V30.3955H37.7161V40.8168Z" fill="#473838"/>
<path d="M62.052 23.5613H67.0074V24.4675H62.052V23.5613Z" fill="#CACACA"/>
<path d="M54.7887 23.5613H59.7441V24.4675H54.7887V23.5613Z" fill="#CACACA"/>
<path d="M47.5251 23.5613H52.4806V24.4675H47.5251V23.5613Z" fill="#CACACA"/>
<path d="M44.8099 36.6257H49.7653V37.5319H44.8099V36.6257Z" fill="#CACACA"/>
<path d="M64.0208 36.6257H68.9762V37.5319H64.0208V36.6257Z" fill="#CACACA"/>
<path d="M46.1888 14.7294C46.509 12.3609 47.5825 10.1988 49.2142 8.63617C50.8458 7.07354 52.9274 6.21411 55.0804 6.21411C57.2334 6.21411 59.315 7.07354 60.9466 8.63617C62.5783 10.1988 63.6518 12.3609 63.972 14.7294C63.9803 14.7905 63.9886 14.8525 63.9961 14.9145C64.0236 15.1366 64.0441 15.3596 64.0577 15.5835H46.1164C46.1297 15.2976 46.1539 15.0129 46.1888 14.7294Z" fill="#473838"/>
<path d="M54.4978 25.0362H59.6501V20.4512C59.555 18.3559 57.9452 18.1867 56.4325 18.2991C56.1784 18.2991 55.9268 18.3547 55.6921 18.4629C55.4574 18.571 55.2441 18.7296 55.0645 18.9294C54.8848 19.1292 54.7423 19.3665 54.6451 19.6276C54.5479 19.8887 54.4978 20.1686 54.4978 20.4512V25.0362Z" fill="#1F0101"/>
<path d="M2.53132 25.7997V49.2246H53.1555V28.795L51.4755 23.8818H3.22396L2.53132 25.7997Z" fill="#E6E6E6"/>
<path d="M-2.67029e-05 34.574L3.03306 31.4775L8.40595 25.9937L16.3786 34.8263L53.6422 35.1292L55.6865 35.1456L53.6422 29.2214L51.9628 24.3534L49.9159 12.871L5.97948 12.6187L3.72549 24.3534L3.03306 26.2537L-2.67029e-05 34.574Z" fill="#052B4E"/>
<path d="M22.781 29.5138H43.0306V17.723L32.9058 12.6187L22.781 17.723V29.5138Z" fill="#E6E6E6"/>
<path d="M43.0306 35.1455H53.1555V49.2248H43.0306V35.1455Z" fill="white"/>
<path d="M22.7809 35.1455H40.4993V49.2248H22.7809V35.1455Z" fill="white"/>
<path d="M17.7185 37.9612H20.2498V49.2246H17.7185V37.9612Z" fill="white"/>
<path d="M5.06238 35.1455H12.656V43.5931H5.06238V35.1455Z" fill="#473838"/>
<path d="M22.7809 21.0662H30.3745V29.5138H22.7809V21.0662Z" fill="#473838"/>
<path d="M25.312 21.0662H27.8432V29.5138H25.312V21.0662Z" fill="#E6E6E6"/>
<path d="M27.8433 40.7771H30.3745V43.593H27.8433V40.7771Z" fill="#473838"/>
<path d="M32.9057 40.7771H35.4369V43.593H32.9057V40.7771Z" fill="#473838"/>
<path d="M45.5617 40.7771H50.6241V49.2247H45.5617V40.7771Z" fill="#473838"/>
<path d="M32.9057 43.593H35.4369V46.4089H32.9057V43.593Z" fill="#473838"/>
<path d="M27.8433 43.593H30.3745V46.4089H27.8433V43.593Z" fill="#473838"/>
<path d="M32.9057 21.0662H40.4993V29.5138H32.9057V21.0662Z" fill="#473838"/>
<path d="M35.4371 21.0662H37.9683V29.5138H35.4371V21.0662Z" fill="#E6E6E6"/>
<path d="M25.312 6.98682H27.8432V12.6185H25.312V6.98682Z" fill="#2F2E41"/>
</svg>
