<svg width="63" height="51" viewBox="0 0 63 51" fill="none" xmlns="http://www.w3.org/2000/svg">
<path d="M10.1892 7.31885H6.03223V17.9226H10.1892V7.31885Z" fill="white"/>
<path d="M6.03223 10.0054V11.0283L10.1892 10.3759V10.0054H6.03223Z" fill="#9BB8CC"/>
<path d="M10.6772 8.72778H5.54468V10.0055H10.6772V8.72778Z" fill="#052B4E"/>
<path d="M46.4756 3.93725L17.0457 3.24243L0 25.828H13.1018H49.8982H63L46.4756 3.93725Z" fill="#052B4E"/>
<path d="M61.5425 25.8281H42.4197V49.3826H61.5425V25.8281Z" fill="#F2F2F2"/>
<path d="M61.5423 25.8281H59.4512V49.3826H61.5423V25.8281Z" fill="#052B4E"/>
<path d="M44.5108 25.8281H42.4197V49.3826H44.5108V25.8281Z" fill="#052B4E"/>
<path d="M59.4484 29.2405H44.5078V29.53H59.4484V29.2405Z" fill="#9BB8CC"/>
<path d="M59.4484 32.5564H44.5078V32.8459H59.4484V32.5564Z" fill="#9BB8CC"/>
<path d="M59.4484 35.876H44.5078V36.1655H59.4484V35.876Z" fill="#9BB8CC"/>
<path d="M59.4484 39.1958H44.5078V39.4853H59.4484V39.1958Z" fill="#9BB8CC"/>
<path d="M59.4484 42.5115H44.5078V42.801H59.4484V42.5115Z" fill="#9BB8CC"/>
<path d="M59.4484 45.8313H44.5078V46.1208H59.4484V45.8313Z" fill="#9BB8CC"/>
<path d="M44.5108 29.2405H42.4197V29.53H44.5108V29.2405Z" fill="white"/>
<path d="M44.5108 27.3967H42.4197V27.6862H44.5108V27.3967Z" fill="white"/>
<path d="M44.5108 32.5564H42.4197V32.8459H44.5108V32.5564Z" fill="white"/>
<path d="M44.5108 35.876H42.4197V36.1655H44.5108V35.876Z" fill="white"/>
<path d="M44.5108 39.1958H42.4197V39.4853H44.5108V39.1958Z" fill="white"/>
<path d="M44.5108 42.5115H42.4197V42.801H44.5108V42.5115Z" fill="white"/>
<path d="M44.5108 45.8313H42.4197V46.1208H44.5108V45.8313Z" fill="white"/>
<path d="M61.5423 29.2405H59.4512V29.53H61.5423V29.2405Z" fill="white"/>
<path d="M61.5423 32.5564H59.4512V32.8459H61.5423V32.5564Z" fill="white"/>
<path d="M61.5423 35.876H59.4512V36.1655H61.5423V35.876Z" fill="white"/>
<path d="M61.5423 39.1958H59.4512V39.4853H61.5423V39.1958Z" fill="white"/>
<path d="M61.5423 42.5115H59.4512V42.801H61.5423V42.5115Z" fill="white"/>
<path d="M61.5423 45.8313H59.4512V46.1208H61.5423V45.8313Z" fill="white"/>
<path d="M20.5804 25.8281H1.45752V49.3826H20.5804V25.8281Z" fill="#F2F2F2"/>
<path d="M20.4178 29.2405H1.45752V29.53H20.4178V29.2405Z" fill="#9BB8CC"/>
<path d="M20.4178 32.5564H1.45752V32.8459H20.4178V32.5564Z" fill="#9BB8CC"/>
<path d="M20.4178 35.876H1.45752V36.1655H20.4178V35.876Z" fill="#9BB8CC"/>
<path d="M20.4178 39.1958H1.45752V39.4853H20.4178V39.1958Z" fill="#9BB8CC"/>
<path d="M20.4178 42.5115H1.45752V42.801H20.4178V42.5115Z" fill="#9BB8CC"/>
<path d="M20.4178 45.8313H1.45752V46.1208H20.4178V45.8313Z" fill="#9BB8CC"/>
<path d="M17.315 30.6726H4.72339V49.3865H17.315V30.6726Z" fill="#052B4E"/>
<path d="M20.5806 49.3865H19.7424L20.2666 25.8281H20.5806V49.3865Z" fill="#9BB8CC"/>
<path d="M20.5804 26.218L1.45752 27.6578V25.8281H20.5804V26.218Z" fill="#9BB8CC"/>
<path d="M59.4512 25.8281V26.3763L61.5423 26.218V25.8281H59.4512Z" fill="white"/>
<path d="M42.4197 25.8281V27.6578L44.508 27.4996V25.8281H42.4197Z" fill="#052B4E"/>
<path d="M42.4194 49.3866H20.5803V12.7617L31.4985 1.03076L42.4194 12.7617V49.3866Z" fill="#F2F2F2"/>
<path d="M31.4985 1.03076L20.5803 12.7617V15.4175L30.9911 4.33503L42.4194 16.6141V12.7617L31.4985 1.03076Z" fill="#9BB8CC"/>
<path d="M44.1519 13.0743L31.4986 0L18.8538 13.2055L20.0871 14.904L31.4986 2.64033L42.8624 14.8538L44.1519 13.0743Z" fill="#F2F2F2"/>
<path d="M62.1366 49.3865H0.198975V51H62.1366V49.3865Z" fill="#052B4E"/>
<path d="M15.2405 34.7258H6.83398V49.3866H15.2405V34.7258Z" fill="white"/>
<path d="M10.7191 35.3972H7.43945V48.5718H10.7191V35.3972Z" fill="#473838"/>
<path d="M14.5985 35.3972H11.3188V48.5718H14.5985V35.3972Z" fill="#473838"/>
<path d="M15.2377 34.521H6.834H6.75271H6.6462L6.54248 49.3864H6.834V34.7256H15.2377V34.521Z" fill="#473838"/>
<path d="M57.9487 34.7258H45.9346V44.6888H57.9487V34.7258Z" fill="white"/>
<path d="M48.5135 35.3972H46.4924V43.9088H48.5135V35.3972Z" fill="#473838"/>
<path d="M54.8598 35.3972H49.0994V43.9088H54.8598V35.3972Z" fill="#473838"/>
<path d="M57.4666 35.3972H55.4456V43.9088H57.4666V35.3972Z" fill="#473838"/>
<path d="M27.3219 35.3972H24.0422V48.5718H27.3219V35.3972Z" fill="#473838"/>
<path d="M31.2015 35.3972H27.9219V48.5718H31.2015V35.3972Z" fill="#473838"/>
<path d="M35.0782 35.3972H31.7986V48.5718H35.0782V35.3972Z" fill="#473838"/>
<path d="M38.9549 35.3972H35.6753V48.5718H38.9549V35.3972Z" fill="#473838"/>
<path d="M39.3389 34.5981H23.249L22.9995 49.3863H23.5041V34.7255H39.3389V34.5981Z" fill="#9BB8CC"/>
<path d="M31.2015 12.9971H27.9219V26.1717H31.2015V12.9971Z" fill="#473838"/>
<path d="M35.0782 12.9971H31.7986V26.1717H35.0782V12.9971Z" fill="#473838"/>
<path d="M35.6079 12.198H27.1593L26.907 26.9862H27.4143V12.3254H35.6079V12.198Z" fill="#9BB8CC"/>
<path d="M40.0874 26.8936H22.9099V28.1095H40.0874V26.8936Z" fill="#133B53"/>
<path d="M23.9386 23.5815H23.6611V26.8935H23.9386V23.5815Z" fill="#052B4E"/>
<path d="M33.245 23.5815H32.9675V26.8935H33.245V23.5815Z" fill="#052B4E"/>
<path d="M30.142 23.5815H29.8645V26.8935H30.142V23.5815Z" fill="#052B4E"/>
<path d="M36.3451 23.5815H36.0676V26.8935H36.3451V23.5815Z" fill="#052B4E"/>
<path d="M27.0417 23.5815H26.7642V26.8935H27.0417V23.5815Z" fill="#052B4E"/>
<path d="M39.4482 23.5815H39.1707V26.8935H39.4482V23.5815Z" fill="#052B4E"/>
<path d="M23.9386 23.5815H23.6611V23.8942H23.9386V23.5815Z" fill="#9BB8CC"/>
<path d="M33.245 23.5815H32.9675V23.8942H33.245V23.5815Z" fill="#9BB8CC"/>
<path d="M30.142 23.5815H29.8645V23.8942H30.142V23.5815Z" fill="#9BB8CC"/>
<path d="M36.3451 23.5815H36.0676V23.8942H36.3451V23.5815Z" fill="#9BB8CC"/>
<path d="M27.0417 23.5815H26.7642V23.8942H27.0417V23.5815Z" fill="#9BB8CC"/>
<path d="M39.4482 23.5815H39.1707V23.8942H39.4482V23.5815Z" fill="#9BB8CC"/>
<path d="M39.7004 23.5815H23.2798V22.74L39.7004 22.9369V23.5815Z" fill="#052B4E"/>
</svg>
