<svg width="30" height="28" viewBox="0 0 30 28" fill="none" xmlns="http://www.w3.org/2000/svg">
<path d="M13.8442 24.8853L13.842 24.8833C9.95045 21.2935 6.84 18.4167 4.68493 15.7346C2.54708 13.0739 1.5 10.7839 1.5 8.39237C1.5 4.48331 4.48075 1.5 8.25 1.5C10.3969 1.5 12.4897 2.52458 13.8535 4.14112L15 5.49996L16.1465 4.14112C17.5103 2.52458 19.6031 1.5 21.75 1.5C25.5193 1.5 28.5 4.48331 28.5 8.39237C28.5 10.7839 27.4529 13.0739 25.3151 15.7346C23.16 18.4167 20.0495 21.2935 16.158 24.8833L16.1558 24.8853L15 25.9556L13.8442 24.8853Z" fill="#FF2B2B" stroke="#FF2B2B" stroke-width="3"/>
</svg>
