<svg width="69" height="45" viewBox="0 0 69 45" fill="none" xmlns="http://www.w3.org/2000/svg">
<path d="M45.8064 11.1772H23.1389V29.2197H45.8064V11.1772Z" fill="#F2F2F2"/>
<path d="M47.6429 11.8876H15.8135V4.05054H38.4772L47.6429 11.8876Z" fill="#052B4E"/>
<path d="M47.4057 11.5553H15.2156V11.8943H17.3119V12.3199H47.264V11.8943H47.6431V11.7808C47.6441 11.7515 47.6387 11.7223 47.6272 11.695C47.6157 11.6677 47.5984 11.6428 47.5762 11.6217C47.5541 11.6007 47.5276 11.584 47.4983 11.5726C47.469 11.5612 47.4375 11.5553 47.4057 11.5553Z" fill="#052B4E"/>
<path d="M45.8058 20.2284V29.3014H25.5789V20.2284V20.2267L35.8064 11.4369L45.8058 20.2284Z" fill="#F2F2F2"/>
<path d="M46.612 20.3503H45.5372V20.1774L35.8139 11.4893L25.2697 20.4944L24.7341 19.8858L35.8304 10.8112L46.612 20.3503Z" fill="#2F3F60"/>
<path d="M25.5789 29.22H1.61572V12.3015L13.4666 2.26562L25.5752 12.3184L25.5789 29.22Z" fill="#F2F2F2"/>
<path d="M25.4296 11.4181L25.4627 29.2266L1.54004 29.2639L25.5786 29.3012L25.575 11.5401L25.4296 11.4181Z" fill="#125B4D"/>
<path opacity="0.45" d="M3.94578 13.8728H1.61572V12.7014L3.76725 12.6047L3.94578 12.7014V13.8728Z" fill="#3F2112"/>
<path d="M3.77295 12.6047H1.51099V13.7778H3.77295V12.6047Z" fill="#052B4E"/>
<path opacity="0.45" d="M3.94589 15.1731H1.61768V13.9999L3.76736 13.9033L3.94589 13.9999V15.1731Z" fill="#3F2112"/>
<path d="M3.77295 13.9033H1.51099V15.0764H3.77295V13.9033Z" fill="#052B4E"/>
<path opacity="0.45" d="M3.94578 16.5684H1.61572V15.3953L3.77277 15.202L3.94578 15.3953V16.5684Z" fill="#3F2112"/>
<path d="M3.77295 15.202H1.51099V16.3751H3.77295V15.202Z" fill="#052B4E"/>
<path opacity="0.45" d="M23.313 13.9814H25.5749V12.8083L23.4842 12.7117L23.313 12.8083V13.9814Z" fill="#3F2112"/>
<path d="M23.4849 13.8846H25.7468V12.7115H23.4849V13.8846Z" fill="#052B4E"/>
<path opacity="0.45" d="M23.313 15.2799H25.5749V14.1068L23.4842 14.0101L23.313 14.1068V15.2799Z" fill="#3F2112"/>
<path d="M23.4849 15.1832H25.7468V14.0101H23.4849V15.1832Z" fill="#052B4E"/>
<path opacity="0.45" d="M23.313 16.5785H25.5749V15.4053L23.4842 15.3087L23.313 15.4053V16.5785Z" fill="#3F2112"/>
<path d="M23.4849 16.4822H25.7468V15.3091H23.4849V16.4822Z" fill="#052B4E"/>
<path d="M26.3979 20.0908H0.0881348L0.325556 19.667L1.61574 17.3683H25.5789L26.2691 19.667L26.3979 20.0908Z" fill="#052B4E"/>
<path opacity="0.26" d="M26.3979 20.0908H0.0881348L0.325556 19.667H26.2691L26.3979 20.0908Z" fill="#5E0D07"/>
<path d="M13.3585 16.9633L8.28613 20.0723H18.1106L13.3585 16.9633Z" fill="#FFF1F0"/>
<path d="M8.07612 20.4998L7.77612 20.0861L13.362 16.6617L18.6037 20.0895L18.2927 20.4947L13.3528 17.2652L8.07612 20.4998Z" fill="#052B4E"/>
<path d="M26.3981 20.0911H0V20.4962H26.3981V20.0911Z" fill="#052B4E"/>
<path d="M0.318604 11.5657V12.6049L1.61799 12.4116L13.467 2.26559L25.5498 12.2777L26.8363 12.6049V11.6657L13.5186 0.483887L0.318604 11.5657Z" fill="#052B4E"/>
<path d="M13.5186 1.36707L0.318604 12.6048L1.61799 12.4556L13.467 2.26554L25.5756 12.3183L26.8363 12.6048L13.5186 1.36707Z" fill="#473838"/>
<path d="M16.5623 7.80396H10.0322V15.9699H16.5623V7.80396Z" fill="#B2A9A6"/>
<path d="M6.70531 21.1066H3.23047V27.2179H6.70531V21.1066Z" fill="#FFF1F0"/>
<path d="M6.14887 21.4795H3.68262V26.9009H6.14887V21.4795Z" fill="#473838"/>
<path d="M5.02659 21.4524H3.6499V26.928H6.17689V21.4524H5.02659ZM4.95849 26.8772H3.71801V24.8174H4.95849V26.8772ZM4.95849 24.7666H3.71801V23.7596H4.95849V24.7666ZM4.95849 23.7054H3.71801V22.6238H4.95849V23.7054ZM4.95849 22.5679H3.71801V21.5134H4.95849V22.5679ZM6.118 26.8772H5.02659V24.8174H6.118V26.8772ZM6.118 24.7666H5.02659V23.7596H6.118V24.7666ZM6.118 23.7054H5.02659V22.6238H6.118V23.7054ZM6.118 22.5679H5.02659V21.5134H6.118V22.5679Z" fill="white"/>
<path d="M24.6628 21.1066H21.188V27.2179H24.6628V21.1066Z" fill="#FFF1F0"/>
<path d="M24.1083 21.4795H21.6421V26.9009H24.1083V21.4795Z" fill="#473838"/>
<path d="M22.9859 21.4524H21.6074V26.928H24.1362V21.4524H22.9859ZM22.9178 26.8772H21.6755V24.8174H22.9178V26.8772ZM22.9178 24.7666H21.6755V23.7596H22.9178V24.7666ZM22.9178 23.7054H21.6755V22.6238H22.9178V23.7054ZM22.9178 22.5679H21.6755V21.5134H22.9178V22.5679ZM24.0755 26.8772H22.9859V24.8174H24.0755V26.8772ZM24.0755 24.7666H22.9859V23.7596H24.0755V24.7666ZM24.0755 23.7054H22.9859V22.6238H24.0755V23.7054ZM24.0755 22.5679H22.9859V21.5134H24.0755V22.5679Z" fill="white"/>
<path d="M16.5623 7.80396H10.0322V15.9699H16.5623V7.80396Z" fill="#473838"/>
<path d="M17.3117 8.16338V7.61243H9.34424V8.16507H9.82461V15.6106H9.34424V16.1649H17.3117V15.6106H16.7724V8.16338H17.3117ZM16.3528 14.4273H13.178V12.7151H16.3528V14.4273ZM13.178 12.4947V10.535H16.3528V12.4947H13.178ZM16.3528 10.3146H13.178V7.99725H16.3528V10.3146ZM10.2424 7.99725H12.9387V10.3146H10.2424V7.99725ZM10.2424 10.5401H12.9387V12.4947H10.2424V10.5401ZM10.2424 12.7202H12.9387V14.4324H10.2424V12.7202ZM10.2424 15.614V14.6477H12.9387V15.7767H10.2424V15.614ZM13.178 15.7835V14.6477H16.3528V15.7767L13.178 15.7835Z" fill="#F2F2F2"/>
<path d="M10.1815 25.6531H1.51099V29.2199H10.1815V25.6531Z" fill="#3A1A08"/>
<path d="M25.5733 25.6531H16.9065V29.2199H25.5733V25.6531Z" fill="#3A1A08"/>
<path d="M2.3761 25.9022H1.68408V28.596H2.3761V25.9022Z" fill="#F2F2F2"/>
<path d="M3.40467 25.9022H2.71265V28.596H3.40467V25.9022Z" fill="#F2F2F2"/>
<path d="M4.43567 25.9022H3.74365V28.596H4.43567V25.9022Z" fill="#F2F2F2"/>
<path d="M5.46448 25.9022H4.77246V28.596H5.46448V25.9022Z" fill="#F2F2F2"/>
<path d="M6.49354 25.9022H5.80151V28.596H6.49354V25.9022Z" fill="#F2F2F2"/>
<path d="M7.5243 25.9022H6.83228V28.596H7.5243V25.9022Z" fill="#F2F2F2"/>
<path d="M8.55237 25.9022H7.86035V28.596H8.55237V25.9022Z" fill="#F2F2F2"/>
<path d="M9.58143 25.9022H8.8894V28.596H9.58143V25.9022Z" fill="#F2F2F2"/>
<path d="M18.9518 25.9022H18.3352V28.8672H18.9518V25.9022Z" fill="#F2F2F2"/>
<path d="M19.8697 25.9022H19.2532V28.8672H19.8697V25.9022Z" fill="#F2F2F2"/>
<path d="M20.7887 25.9022H20.1721V28.8672H20.7887V25.9022Z" fill="#F2F2F2"/>
<path d="M21.7069 25.9022H21.0903V28.8672H21.7069V25.9022Z" fill="#F2F2F2"/>
<path d="M22.6227 25.9022H22.0061V28.8672H22.6227V25.9022Z" fill="#F2F2F2"/>
<path d="M23.5416 25.9022H22.925V28.8672H23.5416V25.9022Z" fill="#F2F2F2"/>
<path d="M24.4603 25.9022H23.8438V28.8672H24.4603V25.9022Z" fill="#F2F2F2"/>
<path d="M25.3783 25.9022H24.7617V28.8672H25.3783V25.9022Z" fill="#F2F2F2"/>
<path d="M15.0349 22.1643H11.5601V28.2757H15.0349V22.1643Z" fill="#FFF1F0"/>
<path d="M14.4811 22.5355H12.0149V28.3468H14.4811V22.5355Z" fill="#473838"/>
<path d="M15.1732 28.2738H11.3892V28.6434H15.1732V28.2738Z" fill="#052B4E"/>
<path d="M15.9625 28.5961H10.5312V28.9911H15.9625V28.5961Z" fill="#052B4E"/>
<path d="M16.9082 28.942H10.1831V29.3879H16.9082V28.942Z" fill="#052B4E"/>
<path d="M40.905 17.6514H32.8823V19.7891H40.905V17.6514Z" fill="#473838"/>
<path d="M32.792 17.5668V19.8723H40.995V17.5668H32.792ZM35.4533 19.7045H32.9724V17.7346H35.4533V19.7045ZM38.3576 19.7045H35.6429V17.7346H38.3576V19.7045ZM40.8147 19.7045H38.549V17.7346H40.8147V19.7045Z" fill="#FFEFEE"/>
<path d="M41.6028 20.9794H29.8623V29.3013H41.6028V20.9794Z" fill="#FFEFEE"/>
<path d="M41.1845 21.6812H30.2815V29.3013H41.1845V21.6812Z" fill="#3D2D2D"/>
<path d="M41.1845 21.8608H30.2815V22.266H41.1845V21.8608Z" fill="#473838"/>
<path d="M41.1845 22.4438H30.2815V22.849H41.1845V22.4438Z" fill="#473838"/>
<path d="M41.1845 23.0292H30.2815V23.4343H41.1845V23.0292Z" fill="#473838"/>
<path d="M41.1845 23.6121H30.2815V24.0172H41.1845V23.6121Z" fill="#473838"/>
<path d="M41.1845 24.1969H30.2815V24.6021H41.1845V24.1969Z" fill="#473838"/>
<path d="M41.1845 24.78H30.2815V25.1852H41.1845V24.78Z" fill="#473838"/>
<path d="M41.1845 25.3634H30.2815V25.7686H41.1845V25.3634Z" fill="#473838"/>
<path d="M41.1845 25.9464H30.2815V26.3516H41.1845V25.9464Z" fill="#473838"/>
<path d="M41.1845 26.5312H30.2815V26.9364H41.1845V26.5312Z" fill="#473838"/>
<path d="M41.1845 27.1144H30.2815V27.5195H41.1845V27.1144Z" fill="#473838"/>
<path d="M41.1845 27.6974H30.2815V28.1026H41.1845V27.6974Z" fill="#473838"/>
<path d="M41.1845 28.2822H30.2815V28.6874H41.1845V28.2822Z" fill="#473838"/>
<path d="M41.1845 28.8656H30.2815V29.2708H41.1845V28.8656Z" fill="#473838"/>
<path d="M10.1815 28.5129H1.51099V29.3012H10.1815V28.5129Z" fill="#052B4E"/>
<path d="M10.0339 25.6531H1.16089V26.0972H10.0339V25.6531Z" fill="#052B4E"/>
<path d="M25.5791 25.6531H17.1865V26.0972H25.5791V25.6531Z" fill="#052B4E"/>
<path d="M25.577 28.7675H16.9065V29.3015H25.577V28.7675Z" fill="#052B4E"/>
<path d="M1.68368 20.4945H0.999023V29.3013H1.68368V20.4945Z" fill="#052B4E"/>
<path d="M10.1836 20.4995H8.96704V29.1893H10.1836V20.4995Z" fill="#052B4E"/>
<path d="M18.1231 20.4995H16.9065V29.3012H18.1231V20.4995Z" fill="#052B4E"/>
<path d="M46.1869 29.3011H0.544678V29.8945H46.1869V29.3011Z" fill="#052B4E"/>
<path d="M68.8072 23.5076H23.1306L30.961 15.6158H60.517L68.8072 23.5076Z" fill="#052B4E"/>
<rect x="23.9766" y="23.3938" width="43.7213" height="20.9132" fill="#F2F2F2"/>
<path d="M68.5495 40.8728H24.2522V44.4246H68.5495V40.8728Z" fill="#F2F2F2"/>
<path d="M57.6607 44.4241H38.7705V27.1439L48.2166 16.0305L57.6607 27.1439V44.4241Z" fill="#F2F2F2"/>
<path opacity="0.35" d="M48.2166 16.0305L38.7705 27.1439V28.5958L48.2166 18.6213L57.6607 28.8533V27.1439L48.2166 16.0305Z" fill="#42372D"/>
<path d="M57.6626 34.3739H38.7705V35.029H57.6626V34.3739Z" fill="#A09A95"/>
<path d="M57.8275 34.5348H38.6033V34.8908H57.8275V34.5348Z" fill="#052B4E"/>
<path d="M42.3563 32.739H40.1233V33.8815H42.3563V32.739Z" fill="#FCF5F0"/>
<path d="M46.659 32.739H44.426V33.8815H46.659V32.739Z" fill="#FCF5F0"/>
<path d="M59.9682 28.596H58.4652L48.201 17.4394L37.5784 28.596H36.1223L48.201 15.7507L59.9682 28.596Z" fill="#42372D"/>
<path d="M59.2556 28.596H58.4656L48.2014 17.4394L37.5788 28.596H36.8545L48.2014 16.5286L59.2556 28.596Z" fill="#FFF6EE"/>
<path opacity="0.51" d="M58.9953 28.5961H58.4661L48.2019 17.4395L37.5794 28.5961H37.1196L48.2019 16.8121L58.9953 28.5961Z" fill="#42372D"/>
<path opacity="0.51" d="M58.8804 28.5958H58.4657L48.2015 17.4392L37.5789 28.5958H37.2393L48.2015 16.938L58.8804 28.5958Z" fill="#FFFEFD"/>
<path opacity="0.35" d="M38.1004 39.9011H38.0516V31.6671H28.5436V39.9011H28.3428C28.0595 39.9011 27.8306 40.0601 27.8306 40.2467V40.4662H38.6127V40.2537C38.6051 40.0601 38.3743 39.9011 38.1004 39.9011Z" fill="#42372D"/>
<path d="M37.564 31.714H28.6753V39.9618H37.564V31.714Z" fill="#473838"/>
<path d="M37.7249 39.6714V31.6051H28.5303V39.6645H28.4384C28.2775 39.6649 28.1233 39.7241 28.0097 39.8291C27.8961 39.9341 27.8323 40.0763 27.8323 40.2245H38.271C38.2707 40.0863 38.2147 39.9531 38.1138 39.8509C38.0128 39.7487 37.8742 39.6847 37.7249 39.6714ZM28.8305 33.8174H30.6038V35.7082H28.8305V33.8174ZM28.8305 35.8811H30.6038V37.8272H28.8305V35.8811ZM32.9099 35.8811V37.8272H30.8459V35.8811H32.9099ZM30.8459 35.7082V33.8174H32.9099V35.7082H30.8459ZM35.4769 35.7082H33.1501V33.8174H35.4769V35.7082ZM35.4769 35.8811V37.8272H33.1501V35.8811H35.4769ZM35.4769 38.0001V39.6645H33.1501V38.0001H35.4769ZM35.7265 39.6645V38.0001H37.4003V39.6645H35.7265ZM37.4003 37.8272H35.7265V35.8811H37.4003V37.8272ZM37.4003 35.7082H35.7265V33.8174H37.4003V35.7082ZM35.4769 33.6446H33.1501V31.8211H35.4769V33.6446ZM32.9024 33.6446H30.8383V31.8211H32.9024V33.6446ZM32.9024 38.0001V39.6645H30.8383V38.0001H32.9024ZM37.4059 33.6446H35.7321V31.8211H37.4059V33.6446ZM30.6019 31.8211V33.6446H28.8305V31.8211H30.6019ZM28.8287 38.0001H30.6019V39.6645H28.8305L28.8287 38.0001Z" fill="#D9D9D9"/>
<path opacity="0.18" d="M32.7792 33.8848H30.9553V35.6097H32.7792V33.8848Z" fill="#473838"/>
<path opacity="0.18" d="M35.2935 35.9347H33.2988V37.6924H35.2935V35.9347Z" fill="#473838"/>
<path opacity="0.18" d="M35.3779 31.9336H33.2988V33.5721H35.3779V31.9336Z" fill="#473838"/>
<path opacity="0.18" d="M35.3779 33.8848H33.2988V35.4904H35.3779V33.8848Z" fill="#473838"/>
<path opacity="0.18" d="M32.6948 35.9778H30.9553V37.7476H32.6948V35.9778Z" fill="#473838"/>
<path opacity="0.18" d="M32.6944 38.1658H31.0337V39.5243H32.6944V38.1658Z" fill="#473838"/>
<path opacity="0.35" d="M67.1556 40.0102H67.1125V31.714H58.5746V40.0102H58.387C58.2766 40.0014 58.1668 40.0326 58.081 40.0971C57.9952 40.1616 57.94 40.2545 57.9272 40.3558V40.5753H67.6154V40.3558C67.6021 40.2546 67.5469 40.1621 67.4611 40.0976C67.3754 40.0332 67.2659 40.0018 67.1556 40.0102Z" fill="#42372D"/>
<path d="M65.9697 31.823H58.6309V40.0708H65.9697V31.823Z" fill="#473838"/>
<path d="M66.0973 39.7958V31.714H58.5033V39.7768C58.3482 39.7839 58.2019 39.8456 58.0947 39.9492C57.9875 40.0527 57.9275 40.1903 57.9272 40.3334H66.5458C66.5457 40.2108 66.5017 40.0916 66.4207 39.9944C66.3396 39.8973 66.2259 39.8274 66.0973 39.7958ZM62.1267 35.9934V37.9396H60.4379V35.99L62.1267 35.9934ZM60.4379 35.8206V33.9263H62.1267V35.8171L60.4379 35.8206ZM64.2621 35.8206H62.3332V33.9263H64.2528L64.2621 35.8206ZM64.2621 35.9934V37.9396H62.3332V35.99L64.2621 35.9934ZM64.2621 38.1124V39.7768H62.3332V38.1124H64.2621ZM64.4686 39.7768V38.1124H65.8515V39.7768H64.4686ZM65.8515 37.9396H64.4686V35.99H65.8515V37.9396ZM65.8515 35.8206H64.4686V33.9263H65.8515V35.8206ZM64.2621 33.7569H62.3332V31.93H64.2528L64.2621 33.7569ZM62.1361 33.7569H60.4473V31.93H62.1361V33.7569ZM62.1361 38.1124V39.7768H60.4473V38.1124H62.1361ZM58.7679 35.9934H60.2334V37.9396H58.7679V35.9934ZM60.2334 35.8206H58.7679V33.9263H60.2334V35.8206ZM58.7679 38.1124H60.2334V39.7768H58.7679V38.1124ZM65.8515 33.7569H64.4686V31.93H65.8515V33.7569ZM60.224 31.93V33.7535H58.7585V31.93H60.224Z" fill="#D9D9D9"/>
<path opacity="0.18" d="M62.0161 33.9938H60.5112V35.7187H62.0161V33.9938Z" fill="#473838"/>
<path opacity="0.18" d="M64.095 36.0437H62.4475V37.8015H64.095V36.0437Z" fill="#473838"/>
<path opacity="0.18" d="M64.1645 32.0422H62.4475V33.6807H64.1645V32.0422Z" fill="#473838"/>
<path opacity="0.18" d="M64.1645 33.9938H62.4475V35.5994H64.1645V33.9938Z" fill="#473838"/>
<path opacity="0.18" d="M62.0029 36.0107H60.5674V37.7806H62.0029V36.0107Z" fill="#473838"/>
<path opacity="0.18" d="M61.9465 38.2748H60.5767V39.6333H61.9465V38.2748Z" fill="#473838"/>
<path d="M43.2097 30.6529H53.3425C53.3425 24.4308 51.3467 23.168 50.2929 22.4782C48.6359 21.3192 46.9861 21.9953 46.3684 22.4782C43.2097 24.6036 43.2097 28.7517 43.2097 30.6529Z" fill="#473838"/>
<path d="M49.5732 22.4154C46.0605 21.0621 43.6323 25.1168 43.6323 28.7274V30.2984H52.9864V28.7274C52.9864 26.3025 51.9037 23.3331 49.5732 22.4154ZM50.9993 25.1324H51.8399C52.2037 25.8435 52.4498 26.6009 52.5698 27.3792H50.9993V25.1324ZM51.7686 24.9975H50.9993V23.9121C51.2998 24.2457 51.5579 24.6099 51.7686 24.9975ZM50.8679 23.7739V24.9975H49.5732V22.8699C50.0643 23.0878 50.5022 23.3954 50.8604 23.7739H50.8679ZM45.4675 25.1324H46.5558V27.3792H45.4675V25.1324ZM46.5558 27.5884V29.8629H45.4675V27.5884H46.5558ZM48.0439 27.3879H46.6872V25.141H48.0457L48.0439 27.3879ZM48.3103 25.141H49.4362V27.3879H48.3103V25.141ZM48.0457 27.5884V29.8629H46.6891V27.5884H48.0457ZM48.3122 27.5884H49.4381V29.8629H48.3122V27.5884ZM49.575 25.1324H50.8604V27.3792H49.5657L49.575 25.1324ZM50.8698 27.5884V29.8629H49.575V27.5884H50.8698ZM49.4437 24.9958H48.3178V22.6072C48.7042 22.6095 49.0865 22.6806 49.4437 22.8163V24.9958ZM48.0457 22.621V24.9975H46.6891V23.0462C47.0996 22.8099 47.5639 22.6644 48.0457 22.621ZM46.5577 23.124V24.9975H45.4694V24.0867C45.7711 23.7126 46.1383 23.3873 46.5558 23.124H46.5577ZM45.338 24.2509V24.9975H44.8558C44.9956 24.738 45.1561 24.4885 45.3361 24.2509H45.338ZM44.7751 25.1324H45.338V27.3792H44.0489C44.1681 26.6007 44.4142 25.8432 44.7788 25.1324H44.7751ZM43.9382 28.7274C43.9379 28.3466 43.9636 27.9662 44.0151 27.5884H45.3286V29.8629H43.9344L43.9382 28.7274ZM52.6712 29.8629H50.9955V27.5884H52.5961C52.647 27.9662 52.672 28.3466 52.6712 28.7274V29.8629Z" fill="#D9D9D9"/>
<path opacity="0.18" d="M46.4093 25.1912H45.5762V27.305H46.4093V25.1912Z" fill="#473838"/>
<path opacity="0.18" d="M47.9107 25.2518H46.7397V27.2032H47.9107V25.2518Z" fill="#473838"/>
<path opacity="0.18" d="M47.9107 27.7681H46.7397V29.6468H47.9107V27.7681Z" fill="#473838"/>
<path opacity="0.18" d="M49.3457 22.7939H48.4243V24.8784H49.3457V22.7939Z" fill="#473838"/>
<path opacity="0.18" d="M49.3457 25.281H48.4243V27.4173H49.3457V25.281Z" fill="#473838"/>
<path opacity="0.18" d="M49.3445 27.7972H48.3706V29.676H49.3445V27.7972Z" fill="#473838"/>
<path d="M56.3864 35.5266H52.9487V42.3796H56.3864V35.5266Z" fill="#473838"/>
<path d="M56.5422 42.4885V35.4194H52.7893V42.4885H56.5422ZM56.2326 37.4589H54.7746V35.6355H56.2326V37.4589ZM54.7746 37.5453H56.2326V39.3342H54.7746V37.5453ZM54.6507 35.6355V37.4589H53.1121V35.6355H54.6507ZM54.6507 39.3342H53.1121V37.5453H54.6582L54.6507 39.3342ZM53.1045 42.2724V39.4206H54.6507V42.2724H53.1045ZM54.7746 42.2724V39.4206H56.2326V42.2724H54.7746Z" fill="#D9D9D9"/>
<path d="M34.4118 24.5673H30.9741V30.2104H34.4118V24.5673Z" fill="#473838"/>
<path d="M34.5669 30.2986V24.4774H30.814V30.2986H34.5669ZM34.2572 26.1505H32.7992V24.6485H34.2572V26.1505ZM32.7992 26.2213H34.2572V27.6939H32.7992V26.2213ZM32.6754 24.6485V26.1505H31.1292V24.6485H32.6754ZM32.6754 27.6939H31.1292V26.2213H32.6754V27.6939ZM31.1292 30.1136V27.7717H32.6754V30.1205L31.1292 30.1136ZM32.7992 30.1136V27.7717H34.2572V30.1205L32.7992 30.1136Z" fill="#D9D9D9"/>
<path d="M64.988 24.5673H61.5503V30.2104H64.988V24.5673Z" fill="#473838"/>
<path d="M61.397 24.4774V30.2986H65.1499V24.4774H61.397ZM64.8346 26.1574H63.3766V24.6554H64.8346V26.1574ZM63.3766 26.2283H64.8346V27.7008H63.3766V26.2283ZM63.2528 24.6554V26.1574H61.7066V24.6554H63.2528ZM63.2528 27.7008H61.7066V26.2283H63.2453L63.2528 27.7008ZM61.7066 30.1205V27.7717H63.2453V30.1205H61.7066ZM63.3766 30.1205V27.7717H64.8346V30.1205H63.3766Z" fill="#D9D9D9"/>
<path d="M43.6735 35.5474H40.2358V42.4003H43.6735V35.5474Z" fill="#473838"/>
<path d="M40.0798 35.4316V42.5007H43.8327V35.4316H40.0798ZM43.5194 37.4728H42.0595V35.6546H43.5194V37.4728ZM42.0595 37.5593H43.5194V39.355H42.0595V37.5593ZM41.9356 35.6477V37.4728H40.3895V35.6546L41.9356 35.6477ZM41.9356 39.3481H40.3895V37.5662H41.9356V39.3481ZM40.3895 42.2863V39.4345H41.9356V42.2863H40.3895ZM42.0595 42.2863V39.4345H43.5194V42.2863H42.0595Z" fill="#D9D9D9"/>
<path d="M47.8282 35.7204H48.7345C49.5307 35.7204 50.2944 36.0117 50.8574 36.5303C51.4205 37.0489 51.7368 37.7523 51.7368 38.4858V44.4279H44.8296V38.4823C44.8296 37.7489 45.1459 37.0455 45.7089 36.5269C46.272 36.0083 47.0356 35.7169 47.8319 35.7169L47.8282 35.7204Z" fill="#473838"/>
<path d="M48.1772 35.9778V44.4243H51.735L48.5356 44.3033L48.1772 35.9778Z" fill="#2B110B"/>
<path d="M47.5372 40.2244H47.282V42.4004H47.5372V40.2244Z" fill="#D9D9D9"/>
<path d="M49.3253 40.2244H49.0701V42.4004H49.3253V40.2244Z" fill="#D9D9D9"/>
<path d="M29.4634 44.4246H10.5713V32.2137L20.0173 24.36L29.4634 32.2137V44.4246Z" fill="#F2F2F2"/>
<path d="M29.4688 40.8728V44.4194H9.73413V40.8728H29.4688Z" fill="#F2F2F2"/>
<path d="M31.0395 32.8529H29.6734L20.0172 25.2291L10.0683 32.8529H8.7041L20.0172 24.0797L31.0395 32.8529Z" fill="#052B4E"/>
<path opacity="0.35" d="M26.2391 43.1868H26.1866V34.8906H15.8474V43.1868H15.6203C15.3126 43.1868 15.0574 43.3458 15.0574 43.5325V43.752H26.7908V43.5325C26.7964 43.3458 26.5469 43.1868 26.2391 43.1868Z" fill="#D9D9D9"/>
<path d="M24.804 34.9996H15.9153V43.2474H24.804V34.9996Z" fill="#473838"/>
<path d="M24.9656 42.9569V34.8906H15.771V42.9517H15.6791C15.5183 42.9517 15.3642 43.0106 15.2505 43.1152C15.1369 43.2199 15.073 43.3619 15.073 43.51H25.5117C25.5115 43.3718 25.4554 43.2387 25.3545 43.1364C25.2536 43.0342 25.115 42.9702 24.9656 42.9569ZM17.8501 42.9569H16.0713V41.2908H17.8445L17.8501 42.9569ZM17.8501 41.1197H16.0713V39.1666H17.8445L17.8501 41.1197ZM17.8501 38.999H16.0713V37.1029H17.8445L17.8501 38.999ZM17.8501 36.9353H16.0713V35.1067H17.8445L17.8501 36.9353ZM20.1563 42.9569H18.0922V41.2908H20.1563V42.9569ZM20.1563 41.1197H18.0922V39.1666H20.1563V41.1197ZM20.1563 38.999H18.0922V37.1029H20.1563V38.999ZM20.1563 36.9353H18.0922V35.1067H20.1563V36.9353ZM22.7327 42.9569H20.4059V41.2908H22.7327V42.9569ZM22.7327 41.1197H20.4059V39.1666H22.7327V41.1197ZM22.7327 38.999H20.4059V37.1029H22.7327V38.999ZM22.7327 36.9353H20.4059V35.1067H22.7327V36.9353ZM24.656 42.9569H22.9804V41.2908H24.656V42.9569ZM24.656 41.1197H22.9804V39.1666H24.656V41.1197ZM24.656 38.999H22.9804V37.1029H24.656V38.999ZM24.656 36.9353H22.9804V35.1067H24.656V36.9353Z" fill="#D9D9D9"/>
<path opacity="0.18" d="M20.0192 37.1722H18.1953V38.8972H20.0192V37.1722Z" fill="#473838"/>
<path opacity="0.18" d="M22.5335 39.2203H20.5388V40.9781H22.5335V39.2203Z" fill="#473838"/>
<path opacity="0.18" d="M22.6179 35.2191H20.5388V36.8576H22.6179V35.2191Z" fill="#473838"/>
<path opacity="0.18" d="M22.6179 37.1722H20.5388V38.7779H22.6179V37.1722Z" fill="#473838"/>
<path opacity="0.18" d="M19.9348 39.2637H18.1953V41.0335H19.9348V39.2637Z" fill="#473838"/>
<path opacity="0.18" d="M19.9343 41.4514H18.2737V42.8099H19.9343V41.4514Z" fill="#473838"/>
<path opacity="0.35" d="M20.5108 28.5803C17.8575 28.5803 15.6057 30.0736 15.6057 32.0008V32.82H25.4139V32.0008C25.4139 30.0581 23.1434 28.5803 20.5108 28.5803Z" fill="#42372D"/>
<path d="M15.7708 32.4121V31.7588C15.7708 30.0719 17.7992 28.6996 20.2911 28.6996C22.783 28.6996 24.8134 30.0719 24.8134 31.7588V32.4121H15.7708Z" fill="#473838"/>
<path d="M22.9727 29.1576C22.9296 29.1351 22.8864 29.1161 22.8414 29.0954C22.429 28.9146 21.9942 28.7811 21.5466 28.6979L21.4153 28.6737C21.0437 28.6119 20.6669 28.5807 20.2894 28.5803C19.742 28.5794 19.1969 28.6451 18.6681 28.7756L18.5368 28.8102C18.1581 28.913 17.793 29.0544 17.4484 29.2319C17.4034 29.2544 17.3603 29.2786 17.3171 29.3028C16.2757 29.8835 15.6133 30.7615 15.6133 31.745V32.502H24.9655V31.745C24.9655 30.6751 24.1755 29.728 22.9727 29.1576ZM24.5433 31.0986H22.9727V30.0097H23.8134C24.1498 30.3121 24.4004 30.686 24.5433 31.0986ZM23.7421 29.944H22.9727V29.4255C23.2508 29.5694 23.509 29.7435 23.7421 29.944ZM22.8414 29.3529V29.944H21.5466V28.9174C21.9978 29.0072 22.4335 29.1537 22.8414 29.3529ZM17.4409 30.0097H18.5293V31.0986H17.4409V30.0097ZM18.5293 31.1954V32.2929H17.4409V31.1954H18.5293ZM18.6606 30.0097H20.0192V31.0986H18.6606V30.0097ZM20.0192 31.1954V32.2929H18.6606V31.1954H20.0192ZM20.2838 30.0097H21.4096V31.0986H20.2838V30.0097ZM20.2838 31.1954H21.4096V32.2929H20.2838V31.1954ZM21.5466 30.0097H22.8414V31.0986H21.5466V30.0097ZM22.8414 31.1954V32.2929H21.5466V31.1954H22.8414ZM21.4153 29.944H20.2894V28.7912C20.6673 28.7911 21.0444 28.8247 21.4153 28.8914V29.944ZM20.0192 28.7998V29.944H18.6606V29.0021C19.1028 28.8839 19.5591 28.816 20.0192 28.7998ZM18.5293 29.0366V29.9406H17.4409V29.5033C17.781 29.3062 18.1467 29.1495 18.5293 29.0366ZM17.3096 29.5811V29.9406H16.8236C16.9745 29.8096 17.1371 29.6905 17.3096 29.5845V29.5811ZM16.7467 30.0062H17.3096V31.0951H16.0223C16.1658 30.6838 16.4164 30.3112 16.7523 30.0097L16.7467 30.0062ZM15.9098 31.7346C15.9097 31.5491 15.9355 31.3644 15.9867 31.185H17.3002V32.2825H15.906L15.9098 31.7346ZM24.6446 32.2825H22.9671V31.185H24.5677C24.6189 31.3644 24.6447 31.5491 24.6446 31.7346V32.2825Z" fill="#F4EADF"/>
<path opacity="0.18" d="M18.3825 30.0374H17.5493V31.0588H18.3825V30.0374Z" fill="#473838"/>
<path opacity="0.18" d="M19.8838 30.067H18.7129V31.009H19.8838V30.067Z" fill="#473838"/>
<path opacity="0.18" d="M19.8838 31.2819H18.7129V32.1893H19.8838V31.2819Z" fill="#473838"/>
<path opacity="0.18" d="M21.3177 28.8811H20.3982V29.887H21.3177V28.8811Z" fill="#473838"/>
<path opacity="0.18" d="M21.3177 30.0807H20.3982V31.1125H21.3177V30.0807Z" fill="#473838"/>
<path opacity="0.18" d="M21.3179 31.2957H20.344V32.203H21.3179V31.2957Z" fill="#473838"/>
<path d="M68.9998 44.4246H8.21411V45.0001H68.9998V44.4246Z" fill="#052B4E"/>
</svg>
