<svg width="64" height="102" viewBox="0 0 64 102" fill="none" xmlns="http://www.w3.org/2000/svg">
<path d="M11.572 97.4972C11.5006 96.6012 11.6185 95.7009 11.9191 94.8472C12.1274 94.3362 12.2225 93.7913 12.1986 93.2451C11.5559 88.454 13.2398 83.8815 13.6961 79.1952C13.8022 78.1052 13.9853 77.0242 14.1332 75.9372C14.1332 75.1047 13.9339 74.2813 14.011 73.4428C14.5573 70.2088 14.1685 66.9299 14.5541 63.6899C14.5034 63.4474 14.4861 63.1999 14.5027 62.9533C14.6023 62.3963 14.4352 61.8274 14.5927 61.2704C14.8755 56.7787 15.5374 52.3589 16.1319 47.9151C16.3344 46.4179 15.8524 44.7889 16.9096 43.4235C20.0492 40.7045 21.9451 37.2878 23.2723 33.5418C23.4715 32.9728 23.6258 32.2961 24.201 32.0116C25.4864 31.3678 25.2422 30.4365 24.9273 29.4454C23.7672 25.7891 21.7427 22.4923 19.9431 19.1055C19.6925 18.6324 19.2008 18.2072 19.5414 17.6083C19.867 17.2621 20.3198 17.042 20.8108 16.9915C22.0255 17.5215 22.4464 18.6564 23.0409 19.6266C24.9672 22.7898 26.5311 26.133 27.7069 29.6011C27.8324 30.0339 28.0058 30.4534 28.2243 30.8528C28.4139 31.1522 28.6517 31.4517 29.0919 31.4127C29.5322 31.3738 29.7057 31.0384 29.7893 30.697C30.0913 29.4334 30.432 28.1757 30.8079 26.933C31.772 23.8637 32.9738 20.8932 34.7509 18.1443C35.1751 17.4855 35.6249 16.8298 36.6436 17.3059H36.6211C38.0479 18.0695 37.4952 19.0337 36.9103 19.9739C35.2136 22.6959 33.729 25.5017 32.8678 28.568C32.4886 29.9185 32.2251 31.2031 33.5812 32.2632C33.8755 32.5589 34.0641 32.9324 34.121 33.3322C35.1847 37.4436 36.1905 41.5699 38.0736 45.4507C39.6804 49.2177 39.6804 53.2363 40.1592 57.174C41.5667 68.5529 41.2453 80.0456 42.9935 91.3946C43.2441 93.0175 43.2795 94.6675 43.4144 96.3055C44.0989 98.2399 42.7717 99.1831 41.2903 100.063C40.8093 100.363 40.2914 100.609 39.7479 100.794C38.3628 101.031 36.9553 101.498 35.686 100.471C35.3647 98.2069 34.963 95.9791 33.9443 93.844C32.4179 90.6579 32.0708 87.2173 31.8523 83.8006C31.3992 76.6858 30.1235 69.6848 28.7963 62.6838C28.7236 62.5119 28.6287 62.349 28.5135 62.1987C27.8322 63.124 27.6459 64.1331 27.3052 65.0853C24.6252 72.5445 23.2659 80.2941 21.537 87.9629C21.255 89.1624 20.8867 90.3429 20.4348 91.4964C19.8757 92.9637 19.5382 94.377 19.7921 95.9881C19.9124 96.6765 19.8711 97.3811 19.6708 98.0531C19.4705 98.7252 19.1161 99.3488 18.632 99.8808C17.517 100.878 16.2348 100.567 15.0394 100.147C13.5644 99.6532 12.2147 98.9496 11.572 97.4972Z" fill="#052B4E"/>
<path d="M19.5415 17.5903C21.0101 20.3512 22.4979 23.1031 23.9408 25.873C24.6728 27.3092 25.2352 28.8152 25.6182 30.3647C25.8046 31.0893 26.1806 31.9607 24.7056 32.0475C24.0629 32.0835 23.9633 32.8231 23.7833 33.3322C22.8771 35.8954 21.7524 38.3598 20.0878 40.5817C19.3262 41.5968 18.5935 42.6479 17.3853 43.2767C16.8647 42.8006 17.0639 42.2137 17.276 41.7526C18.3397 39.4528 18.24 37.0363 18.2015 34.6258C18.2965 34.1795 18.2624 33.7176 18.1026 33.2877C17.9428 32.8577 17.663 32.4752 17.2921 32.1793C17.1057 32.1014 17.7484 31.814 17.1474 31.787C15.9295 31.7331 14.7727 31.3438 13.5901 31.0923C11.4114 30.4934 11.4531 30.5114 12.0958 28.562C12.7385 26.6126 13.2848 24.6692 13.8536 22.7228C14.6506 19.9589 16.4341 18.1413 19.5415 17.5903Z" fill="#FFCE58"/>
<path d="M17.3533 32.0027C18.764 32.344 18.7222 33.3532 18.6129 34.3982C18.4083 34.9092 18.3112 35.4521 18.3269 35.9973C18.3944 39.2133 17.3822 42.1598 15.8269 44.9806C14.9721 46.5287 14.1815 48.1068 13.3075 49.643C11.905 52.1152 11.1704 54.8687 11.1673 57.6651C11.1843 57.9141 11.1276 58.1627 11.0034 58.3838C9.26169 59.2043 7.46857 59.5336 5.57904 58.8419C5.29626 58.5425 4.74996 58.5754 4.5218 58.1831C4.44468 56.65 4.76282 55.1348 5.73008 53.943C7.97952 51.1612 8.90179 47.9002 9.69552 44.6273C10.5182 41.2346 11.4983 37.9137 12.9797 34.7216C13.4472 33.6707 13.7429 32.5604 13.857 31.4277C15.107 31.1732 16.2253 31.6104 17.3533 32.0027Z" fill="#FCD4A6"/>
<path d="M38.0737 45.4117C36.1006 43.061 35.5897 40.1804 34.7542 37.4255C34.3493 36.087 34.0729 34.7305 33.7226 33.368C33.5588 32.7482 33.4816 32.0624 32.5786 31.9337C31.8363 31.8289 32.0773 31.2659 32.0934 30.8676C32.1898 28.3313 33.1603 26.0136 34.2914 23.7588C35.0366 22.2732 35.8724 20.8285 36.7947 19.4318C37.3475 18.5934 37.4985 17.9346 36.6212 17.2668C39.7415 18.285 42.3284 19.7073 42.9004 23.1779C43.2217 25.2171 44.009 27.1934 44.5714 29.2027C44.6742 29.58 44.7931 29.9783 44.4878 30.3406C43.9544 30.3646 43.6009 29.8585 43.0546 29.9124C41.8904 29.6098 40.6535 29.6569 39.5198 30.0472C39.086 30.1879 38.6457 30.4035 38.1637 30.1999C37.5435 30.2777 37.6592 30.7359 37.6238 31.0982C37.1545 35.3282 37.2993 39.5978 38.0544 43.7917C38.1572 44.3486 38.289 44.8817 38.0737 45.4117Z" fill="#FFCE58"/>
<path d="M36.6439 17.2879C35.7698 17.1651 35.4388 17.7341 35.0821 18.315C32.945 21.8767 31.3775 25.7101 30.429 29.6939C30.2298 30.4874 30.6732 31.823 29.1725 31.9487C27.6043 32.0775 27.6975 30.715 27.3955 29.8526C25.7887 25.2891 23.6935 20.9501 20.811 16.9555L23.9763 15.1109C24.2495 14.7696 24.513 14.4222 24.9854 14.2965C26.9649 13.9251 28.9444 13.6976 30.9528 14.1497C31.5275 14.2352 32.0603 14.4829 32.4792 14.8594C33.8128 15.7667 35.4228 16.2339 36.6439 17.2879Z" fill="#FFCE58"/>
<path d="M14.4096 73.5596C14.4417 74.3681 14.5092 75.1796 14.1332 75.9552C12.8478 75.6557 11.5624 76.0061 10.306 76.1289C7.34956 76.4103 4.44456 76.3025 1.61348 75.3743C1.27606 72.6793 1.55243 70.0082 1.46245 67.3252C1.43353 66.4987 2.04409 66.2981 2.71249 66.2771C6.08023 66.1693 9.46081 66.1603 12.8189 66.2771C13.9886 66.3161 14.4257 66.9658 14.4835 68.0738C14.5638 69.8794 14.1814 71.7121 14.4096 73.5596Z" fill="#473838"/>
<path d="M38.1675 30.209C38.9376 29.7547 39.8064 29.4654 40.7111 29.3618C41.6157 29.2582 42.5338 29.343 43.399 29.6101C43.7622 29.9425 44.061 30.2958 43.9261 30.8079C44.3406 33.973 47.011 35.4522 49.4565 37.0064C50.639 37.761 51.4488 36.5662 52.3486 35.9853C52.9913 35.569 53.3898 34.3533 54.5498 35.2546C54.4149 36.2667 55.1122 36.7369 55.9445 37.1232C56.6772 39.9739 55.6681 41.513 52.6507 42.1389C51.9051 42.2077 51.2239 42.1389 50.88 41.3902C49.8099 41.004 48.682 41.0339 47.5669 40.965C43.8039 40.7285 41.0275 38.6623 39.9253 35.3235C39.3565 33.6107 38.7523 31.9128 38.1675 30.209Z" fill="#FCD4A6"/>
<path d="M23.2434 4.20508C24.3102 1.30346 26.7268 -0.286604 29.5354 0.042786C32.9352 0.453026 35.2168 2.7857 35.3196 5.96581C35.3196 6.5078 35.2747 7.05279 35.2489 7.59479C34.9887 8.59793 34.1628 8.72669 33.2598 8.68178C31.637 8.60392 30.1202 8.10684 28.6452 7.53191C27.2184 6.97195 25.8559 6.28322 24.4838 5.61845C23.8539 5.31901 23.2305 4.98663 23.2434 4.20508Z" fill="#052B4E"/>
<path d="M0.694993 64.5763C1.21236 64.9147 1.80364 64.8757 2.39493 64.8757C5.92976 64.8757 9.46459 64.8308 12.9994 64.8967C14.2848 64.9177 14.9436 64.5643 14.8215 63.3066C15.04 66.0795 14.7379 68.8464 14.6512 71.6132C14.6319 72.26 14.4969 72.9009 14.4166 73.5447C13.8381 71.8438 14.1852 70.0981 14.1852 68.3792C14.1852 67.0946 13.7803 66.6065 12.3503 66.6425C9.24929 66.7263 6.14506 66.7113 3.04726 66.6425C1.90005 66.6185 1.57549 66.9928 1.60119 68.0199C1.66546 70.4604 1.62047 72.9009 1.62047 75.3443C0.977777 74.5448 1.36339 73.6285 1.31841 72.7691C1.23164 71.4378 1.23164 70.1028 1.31841 68.7715C1.42124 67.5138 1.18023 66.4568 0.0683594 65.6633C0.470045 65.4028 0.190476 64.8009 0.694993 64.5763Z" fill="#052B4E"/>
<path d="M33.5592 9.84974C33.4981 10.8589 32.7848 11.6135 32.3895 12.4938C30.4871 14.1258 26.4895 13.2275 25.7761 10.9966C25.6219 10.5205 25.5673 10.0204 25.4098 9.54431C24.9728 8.22676 24.8121 8.16088 23.4367 8.72982L23.3018 6.09171C23.7356 5.8821 24.1341 6.01984 24.5165 6.21747C27.1354 7.57396 29.8316 8.75977 32.7847 9.35566C32.9445 9.38081 33.0966 9.43802 33.2303 9.52333C33.364 9.60864 33.4762 9.72002 33.5592 9.84974Z" fill="#473838"/>
<path d="M23.4362 8.73876C23.8636 8.40937 23.629 7.50504 24.4388 7.57092C25.2486 7.6368 25.4479 8.34948 25.6921 8.94837C25.766 9.13403 25.8013 9.33166 25.8785 9.51432C26.2737 10.4845 25.8013 11.847 27.1253 12.383C28.6594 12.9707 30.3575 13.0759 31.9616 12.6825C32.1104 12.6342 32.2536 12.572 32.389 12.4968C32.4211 13.2953 32.4511 14.0938 32.479 14.8923C29.9307 14.1916 27.3374 14.3563 24.7505 14.6079C24.4806 14.3623 24.185 14.6588 23.9054 14.5779C23.1245 12.6645 22.4304 10.763 23.4362 8.73876Z" fill="#FCD4A6"/>
<path d="M62.9495 32.2631C62.2521 33.1913 61.5034 33.5387 60.5137 32.5625C60.2373 32.287 59.7906 32.1553 59.4243 31.9636C59.2765 31.6193 59.5303 31.2899 59.4404 31.0324C59.3921 31.224 59.3889 31.5294 59.0644 31.6821C58.02 31.1342 56.982 30.5682 55.9248 30.0442C55.5456 29.8585 55.3142 29.6908 55.5745 29.2866C55.1536 28.8195 55.5038 28.3373 55.5424 27.8582C55.5766 27.7196 55.6217 27.5835 55.6774 27.451C55.9184 27.0198 56.063 26.5227 56.5836 26.2742C57.9589 26.4958 58.833 27.5648 60.0766 28.0319C60.0991 28.2355 60.0124 28.535 60.4365 28.3733L62.0079 29.2566C61.9903 29.4829 61.9516 29.7074 61.8922 29.9274C62.024 29.7867 62.0979 29.586 62.3389 29.5681C64.0356 29.7777 63.364 31.0653 63.6243 31.9636C63.5551 32.0691 63.4544 32.1536 63.3346 32.2068C63.2148 32.2599 63.081 32.2795 62.9495 32.2631Z" fill="#473838"/>
<path d="M33.5596 9.84973C29.8319 9.33469 26.5478 7.75362 23.3022 6.10368L21.8657 5.23828L23.2443 4.2052C23.5207 4.80409 24.0862 5.05562 24.6614 5.32212C27.4572 6.60674 30.1726 8.08001 33.3861 8.31657C34.183 8.37946 34.8675 8.36749 35.2403 7.58294C35.8058 9.07717 35.2917 9.85871 33.5596 9.84973Z" fill="#FFCE58"/>
<path d="M55.893 27.4869C55.893 27.5468 55.8994 27.6067 55.9122 27.6666C55.5684 28.1457 55.5106 28.7266 55.2856 29.2477C53.8974 28.9872 52.898 28.0499 51.7026 27.451C51.468 27.2713 51.4069 26.912 51.0277 26.8761C50.2951 26.7503 49.9769 26.4209 50.4043 25.7442C50.7121 25.344 50.983 24.9203 51.2141 24.4775C51.603 23.5133 52.2778 23.678 52.9751 24.0433C54.0741 24.6242 55.1442 25.2591 56.2272 25.8699C56.2516 26.4258 56.1372 26.9793 55.893 27.4869Z" fill="#473838"/>
<path d="M11.5723 97.4972C12.3564 98.0961 13.1148 98.695 13.9246 99.2519C15.3546 100.225 16.9452 100.312 18.6066 99.8928C18.6066 100.087 18.6227 100.282 18.6291 100.477C17.8514 101.567 16.6046 101.495 15.4574 101.483C13.7864 101.465 12.1957 100.989 10.6372 100.423C9.99447 100.186 9.35177 99.8538 9.596 99.0034C10.1628 98.4049 10.8303 97.8962 11.5723 97.4972Z" fill="#052B4E"/>
<path d="M62.9497 32.2632C63.0183 32.1588 63.1163 32.0741 63.233 32.0181C63.3498 31.9621 63.4807 31.9371 63.6117 31.9458C64.007 33.5179 62.7376 35.2157 61.1212 35.2397C59.9997 35.2606 58.8718 35.2397 57.7535 35.2397C57.159 35.2397 56.5517 35.1948 56.2303 35.8146C55.6776 35.9823 55.5394 35.6948 55.5298 35.2636C56.9405 33.8323 58.7947 34.4192 60.4882 34.3653C62.0114 34.3144 62.924 33.7694 62.9497 32.2632Z" fill="#052B4E"/>
<path d="M9.60852 99.0125C9.60852 99.249 9.5539 99.5125 9.85596 99.6503C12.671 100.932 15.5342 101.746 18.6288 100.486C18.677 101.561 18.0729 101.983 16.9738 102.007C14.6601 102.049 12.4749 101.477 10.338 100.746C9.59567 100.483 9.01403 99.8838 9.60852 99.0125Z" fill="#FFCE58"/>
<path d="M39.8125 100.51C40.4125 100.052 41.0449 99.6313 41.7052 99.252C43.0131 98.5962 43.5851 97.629 43.4148 96.2576C43.8968 96.9673 43.8454 97.8326 44.1089 98.6112C44.4785 99.6982 43.0613 99.6832 42.3736 100.108C41.5671 100.51 40.7926 101.088 39.8125 100.51Z" fill="#052B4E"/>
<path d="M39.8128 100.51C40.7222 100.686 41.5063 100.177 42.3836 100.111C40.6708 101.665 38.5274 101.399 36.4258 101.327C35.9727 101.327 35.8377 100.812 35.6963 100.429C37.0556 100.848 38.431 100.581 39.8128 100.51Z" fill="#FFCE58"/>
<path d="M55.5298 35.2726L56.2304 35.8235C56.3345 36.0408 56.3623 36.2832 56.3098 36.516C56.2572 36.7489 56.1271 36.9603 55.938 37.1201C53.7078 36.9944 53.7078 36.9944 54.5433 35.2516L55.5298 35.2726Z" fill="#052B4E"/>
<path d="M17.3533 32.0026C16.1386 32.0565 15.0107 31.6613 13.857 31.4038L13.5903 31.1043C15.03 30.7749 16.3507 31.3289 17.6618 31.7032C18.0539 31.808 17.4497 31.8739 17.3533 32.0026Z" fill="#575140"/>
<path d="M50.8735 41.3872C51.5183 41.5046 52.1247 41.7609 52.6442 42.1358C51.5355 42.8934 51.0535 42.6898 50.8735 41.3872Z" fill="#052B4E"/>
<path d="M0.694562 64.5762C0.418202 64.9086 1.01591 65.6692 0.0679279 65.6752C0.0872088 64.8906 -0.205215 64.0791 0.292876 63.3335C0.656 63.5641 0.350719 63.9923 0.614224 64.2558L0.694562 64.5762Z" fill="#052B4E"/>
<path d="M1.31163 61.1926C1.40482 61.8185 0.990275 62.2916 0.752477 62.8186C0.623937 62.9324 0.505038 62.9294 0.40542 62.7857C0.317099 62.4627 0.360973 62.1206 0.528495 61.8261C0.696016 61.5316 0.97519 61.3058 1.31163 61.1926Z" fill="#052B4E"/>
<path d="M43.9259 30.8048C43.5903 30.4843 43.4014 30.0549 43.3989 29.6071C43.9388 29.637 44.363 29.8227 44.4883 30.3587L43.9259 30.8048Z" fill="#615B49"/>
<path d="M59.0645 31.6673C59.1448 31.302 58.997 30.8498 59.5401 30.6312C59.9899 31.1133 59.6011 31.5296 59.4244 31.9488L59.0645 31.6673Z" fill="#FFCE58"/>
<path d="M5.40251 58.3478C4.91085 58.5514 4.4706 58.8897 3.89217 58.8838C3.75399 58.3777 4.12676 58.2699 4.5188 58.1771C4.82087 58.207 5.22577 57.7758 5.40251 58.3478Z" fill="#052B4E"/>
<path d="M55.8926 27.487C56.0147 26.954 55.7062 26.3401 56.2139 25.876L56.5706 26.2623C56.4835 26.7252 56.247 27.1525 55.8926 27.487Z" fill="#FFCE58"/>
<path d="M23.9058 14.5689C24.2592 14.497 24.2271 13.9221 24.6802 14.0359C24.7541 14.0568 24.7316 14.4042 24.7509 14.5988C24.6963 14.7513 24.5928 14.8845 24.4542 14.9804C24.3157 15.0763 24.1489 15.1302 23.9765 15.1348C23.97 14.9402 23.9315 14.7515 23.9058 14.5689Z" fill="#F5C067"/>
<path d="M62.3388 29.5412L61.6736 30.8557C61.7218 30.0203 61.5065 29.5891 61.9949 29.2297L62.3388 29.5412Z" fill="#FFCE58"/>
<path d="M60.4367 28.3584C60.2824 28.565 60.5877 29.1819 60.0157 28.9573C59.6108 28.7986 59.7297 28.3225 60.0767 28.02L60.4367 28.3584Z" fill="#FFCE58"/>
<path d="M55.2854 29.2417C55.2211 28.6219 55.2854 28.0439 55.912 27.6606L55.5906 29.2657L55.2854 29.2417Z" fill="#FFCE58"/>
<path d="M51.0273 26.8822C51.9593 26.3522 51.6347 27.1068 51.7054 27.4571C51.2844 27.4751 51.0852 27.2445 51.0273 26.8822Z" fill="#FFCE58"/>
<path d="M0.404829 62.7795L0.751886 62.8125C0.703684 63.2916 0.655479 63.7707 0.604063 64.2498C0.247366 64.0162 0.411254 63.63 0.282715 63.3275C0.327704 63.1509 0.366267 62.9682 0.404829 62.7795Z" fill="#052B4E"/>
<path d="M13.8213 60.6833C14.4447 60.6833 14.5186 61.2373 14.8014 61.5817C14.7178 61.9889 15.2899 62.3812 14.8239 62.7795L13.8213 60.6833Z" fill="#052B4E"/>
<path d="M17.9416 22.9744C17.572 25.7293 19.031 28.3045 19.002 31.4367C18.1955 29.0741 17.4146 27.1337 16.9197 25.1304C16.7654 24.4985 17.3889 23.699 17.6588 22.9774C17.752 22.8456 17.8452 22.8456 17.9416 22.9744Z" fill="#4D4A3D"/>
<path d="M17.9415 22.9743H17.6587C17.6587 22.3754 17.6705 21.7825 17.694 21.1956C17.7862 21.0439 17.8933 21.0379 18.0154 21.1776L17.9415 22.9743Z" fill="#44433E"/>
<path d="M18.0026 21.1807L17.8645 21.1568L17.7102 21.1897C17.6809 21.0005 17.7105 20.8074 17.7953 20.6333C17.8802 20.4592 18.0168 20.3115 18.189 20.2075C18.4622 20.6088 18.1215 20.8783 18.0026 21.1807Z" fill="#9D8530"/>
<path d="M38.8252 25.1993L38.1086 27.4152C37.6555 26.4989 38.1954 25.8281 38.3882 25.0765L38.8252 25.1993Z" fill="#524D3A"/>
<path d="M37.6371 27.5319C38.0838 28.5051 37.4315 28.9902 37.4701 29.589C37.1616 28.9692 37.1101 28.3853 37.6371 27.5319Z" fill="#615837"/>
<path d="M11.585 58.9166C12.443 58.6531 12.8704 58.9167 12.8382 59.782L11.585 58.9166Z" fill="#052B4E"/>
<path d="M52.2482 24.4088C52.4153 24.7951 52.3253 25.0407 51.8915 25.1754C51.7405 24.7981 51.9429 24.5975 52.2482 24.4088Z" fill="#FFCE58"/>
</svg>
