<svg width="21" height="21" viewBox="0 0 21 21" fill="none" xmlns="http://www.w3.org/2000/svg">
<path fill-rule="evenodd" clip-rule="evenodd" d="M10.5 0C7.59961 0 5.24839 2.3505 5.24839 5.25C5.24839 8.14949 7.59961 10.5 10.5 10.5C13.4003 10.5 15.7516 8.14949 15.7516 5.25C15.7516 2.3505 13.4003 0 10.5 0ZM18.9025 15.498L20.8876 19.4775C21.0515 19.8025 21.0353 20.1891 20.8448 20.4993C20.6544 20.8094 20.3169 20.9989 19.9529 21H1.04714C0.683107 20.9989 0.345603 20.8094 0.155172 20.4993C-0.0352598 20.1891 -0.0514599 19.8025 0.112357 19.4775L2.09746 15.498C2.98783 13.7217 4.80495 12.6001 6.79238 12.6H14.2076C16.195 12.6001 18.0122 13.7217 18.9025 15.498Z" fill="#131A22"/>
</svg>
