<svg width="60" height="50" viewBox="0 0 60 50" fill="none" xmlns="http://www.w3.org/2000/svg">
<path d="M38.2352 5.68311L51.9424 5.68311V0.116573L38.2352 0.116573V5.68311Z" fill="#06345E"/>
<path d="M34.7262 5.68311L48.4333 5.68311V0.116573L34.7262 0.116573V5.68311Z" fill="#052B4E"/>
<g style="mix-blend-mode:multiply">
<path d="M34.7262 5.68311L51.938 5.68311V4.16184L34.7262 4.16184V5.68311Z" fill="#ADAFB2"/>
</g>
<path d="M8.13215 49.5337L58.8859 49.5337L58.8859 4.29093L8.13215 4.29093L8.13215 49.5337Z" fill="#9B9C9F"/>
<path d="M7.01806 45.113L60 45.113V41.5691L7.01806 41.5691V45.113Z" fill="#052B4E"/>
<path d="M1.11414 49.5337L51.8679 49.5337L51.8679 4.29093L1.11414 4.29093L1.11414 49.5337Z" fill="#DCDDD7"/>
<g style="mix-blend-mode:color-dodge" opacity="0.44">
<path d="M1.11414 4.70068L51.8679 4.70068V4.291L1.11414 4.291V4.70068Z" fill="#575858"/>
</g>
<path d="M46.2841 10.7971H50.1353V7.31911H46.2841V10.7971Z" fill="#96999B"/>
<path d="M46.4201 10.7256H50.0037V7.42807H46.4201V10.7256Z" fill="#473838"/>
<path d="M46.4201 10.313H50.0037V10.0408H46.4201V10.313Z" fill="#E6E7E8"/>
<path d="M42.3496 10.7971H46.2007V7.31911H42.3496V10.7971Z" fill="#96999B"/>
<path d="M42.4856 10.7256H46.0692V7.42807H42.4856V10.7256Z" fill="#473838"/>
<path d="M42.4856 10.313H46.0692V10.0408H42.4856V10.313Z" fill="#E6E7E8"/>
<path d="M38.1125 10.7971H41.9636V7.31911H38.1125V10.7971Z" fill="#96999B"/>
<path d="M38.2484 10.7256H41.832V7.42807H38.2484V10.7256Z" fill="#473838"/>
<path d="M38.2484 10.313H41.832V10.0408H38.2484V10.313Z" fill="#E6E7E8"/>
<path d="M34.178 10.7971H38.0291V7.31911H34.178V10.7971Z" fill="#96999B"/>
<path d="M34.3139 10.7256H37.8975V7.42807H34.3139V10.7256Z" fill="#473838"/>
<path d="M34.3139 10.313H37.8975V10.0408H34.3139V10.313Z" fill="#E6E7E8"/>
<path d="M23.0105 10.7971H26.8616V7.31911H23.0105V10.7971Z" fill="#96999B"/>
<path d="M23.1421 10.7256H26.7256V7.42807H23.1421V10.7256Z" fill="#473838"/>
<path d="M23.1421 10.313H26.7256V10.0408H23.1421V10.313Z" fill="#E6E7E8"/>
<path d="M19.076 10.7971H22.9271V7.31911H19.076V10.7971Z" fill="#96999B"/>
<path d="M19.2119 10.7256H22.7955V7.42807H19.2119V10.7256Z" fill="#473838"/>
<path d="M19.2119 10.313H22.7955V10.0408H19.2119V10.313Z" fill="#E6E7E8"/>
<path d="M14.8388 10.7971H18.69V7.31911H14.8388V10.7971Z" fill="#96999B"/>
<path d="M14.9704 10.7256H18.554V7.42807H14.9704V10.7256Z" fill="#473838"/>
<path d="M14.9704 10.313H18.554V10.0408H14.9704V10.313Z" fill="#E6E7E8"/>
<path d="M10.9043 10.7971H14.7555V7.31911H10.9043V10.7971Z" fill="#96999B"/>
<path d="M11.0403 10.7256H14.6239V7.42807H11.0403V10.7256Z" fill="#473838"/>
<path d="M11.0403 10.313H14.6239V10.0408H11.0403V10.313Z" fill="#E6E7E8"/>
<path d="M6.77677 10.7971H10.6279V7.31911H6.77677V10.7971Z" fill="#96999B"/>
<path d="M6.91274 10.7256H10.4963V7.42807H6.91274V10.7256Z" fill="#473838"/>
<path d="M6.91274 10.313H10.4963V10.0408H6.91274V10.313Z" fill="#E6E7E8"/>
<path d="M2.84672 10.7971H6.69788L6.69788 7.31911H2.84672L2.84672 10.7971Z" fill="#96999B"/>
<path d="M2.97829 10.7256H6.56189L6.56189 7.42807H2.97829L2.97829 10.7256Z" fill="#473838"/>
<path d="M2.97829 10.313H6.56189V10.0408H2.97829V10.313Z" fill="#E6E7E8"/>
<path d="M46.2841 18.1084H50.1353V14.6304H46.2841V18.1084Z" fill="#96999B"/>
<path d="M46.4201 18.0396H50.0037V14.742H46.4201V18.0396Z" fill="#473838"/>
<path d="M46.4201 17.6272H50.0037V17.355H46.4201V17.6272Z" fill="#E6E7E8"/>
<path d="M42.3496 18.1084H46.2007V14.6304H42.3496V18.1084Z" fill="#96999B"/>
<path d="M42.4856 18.0396H46.0692V14.742H42.4856V18.0396Z" fill="#473838"/>
<path d="M42.4856 17.6272H46.0692V17.355H42.4856V17.6272Z" fill="#E6E7E8"/>
<path d="M38.1125 18.1084H41.9636V14.6304H38.1125V18.1084Z" fill="#96999B"/>
<path d="M38.2484 18.0396H41.832V14.742H38.2484V18.0396Z" fill="#473838"/>
<path d="M38.2484 17.6272H41.832V17.355H38.2484V17.6272Z" fill="#E6E7E8"/>
<path d="M34.178 18.1084H38.0291V14.6304H34.178V18.1084Z" fill="#96999B"/>
<path d="M34.3139 18.0396H37.8975V14.742H34.3139V18.0396Z" fill="#473838"/>
<path d="M34.3139 17.6272H37.8975V17.355H34.3139V17.6272Z" fill="#E6E7E8"/>
<path d="M23.0105 18.1084H26.8616V14.6304H23.0105V18.1084Z" fill="#96999B"/>
<path d="M23.1421 18.0396H26.7256V14.742H23.1421V18.0396Z" fill="#473838"/>
<path d="M23.1421 17.6272H26.7256V17.355H23.1421V17.6272Z" fill="#E6E7E8"/>
<path d="M19.076 18.1084H22.9271V14.6304H19.076V18.1084Z" fill="#96999B"/>
<path d="M19.2119 18.0396H22.7955V14.742H19.2119V18.0396Z" fill="#473838"/>
<path d="M19.2119 17.6272H22.7955V17.355H19.2119V17.6272Z" fill="#E6E7E8"/>
<path d="M14.8388 18.1084H18.69V14.6304H14.8388V18.1084Z" fill="#96999B"/>
<path d="M14.9704 18.0396H18.554V14.742H14.9704V18.0396Z" fill="#473838"/>
<path d="M14.9704 17.6272H18.554V17.355H14.9704V17.6272Z" fill="#E6E7E8"/>
<path d="M10.9043 18.1084H14.7555V14.6304H10.9043V18.1084Z" fill="#96999B"/>
<path d="M11.0403 18.0396H14.6239V14.742H11.0403V18.0396Z" fill="#473838"/>
<path d="M11.0403 17.6272H14.6239V17.355H11.0403V17.6272Z" fill="#E6E7E8"/>
<path d="M6.77677 18.1084H10.6279V14.6304H6.77677V18.1084Z" fill="#96999B"/>
<path d="M6.91274 18.0396H10.4963V14.742H6.91274V18.0396Z" fill="#473838"/>
<path d="M6.91274 17.6272H10.4963V17.355H6.91274V17.6272Z" fill="#E6E7E8"/>
<path d="M2.84672 18.1084H6.69788L6.69788 14.6304H2.84672L2.84672 18.1084Z" fill="#96999B"/>
<path d="M2.97829 18.0396H6.56189L6.56189 14.742H2.97829L2.97829 18.0396Z" fill="#473838"/>
<path d="M2.97829 17.6272H6.56189V17.355H2.97829V17.6272Z" fill="#E6E7E8"/>
<path d="M46.2841 25.4224H50.1353V21.9444H46.2841V25.4224Z" fill="#96999B"/>
<path d="M46.4201 25.3479H50.0037V22.0504H46.4201V25.3479Z" fill="#473838"/>
<path d="M46.4201 24.9382H50.0037V24.6661H46.4201V24.9382Z" fill="#E6E7E8"/>
<path d="M42.3496 25.4224H46.2007V21.9444H42.3496V25.4224Z" fill="#96999B"/>
<path d="M42.4856 25.3479H46.0692V22.0504H42.4856V25.3479Z" fill="#473838"/>
<path d="M42.4856 24.9382H46.0692V24.6661H42.4856V24.9382Z" fill="#E6E7E8"/>
<path d="M38.1125 25.4224H41.9636V21.9444H38.1125V25.4224Z" fill="#96999B"/>
<path d="M38.2484 25.3479H41.832V22.0504H38.2484V25.3479Z" fill="#473838"/>
<path d="M38.2484 24.9382H41.832V24.6661H38.2484V24.9382Z" fill="#E6E7E8"/>
<path d="M34.178 25.4224H38.0291V21.9444H34.178V25.4224Z" fill="#96999B"/>
<path d="M34.3139 25.3479H37.8975V22.0504H34.3139V25.3479Z" fill="#473838"/>
<path d="M34.3139 24.9382H37.8975V24.6661H34.3139V24.9382Z" fill="#E6E7E8"/>
<path d="M23.0105 25.4224H26.8616V21.9444H23.0105V25.4224Z" fill="#96999B"/>
<path d="M23.1421 25.3479H26.7256V22.0504H23.1421V25.3479Z" fill="#473838"/>
<path d="M23.1421 24.9382H26.7256V24.6661H23.1421V24.9382Z" fill="#E6E7E8"/>
<path d="M19.076 25.4224H22.9271V21.9444H19.076V25.4224Z" fill="#96999B"/>
<path d="M19.2119 25.3479H22.7955V22.0504H19.2119V25.3479Z" fill="#473838"/>
<path d="M19.2119 24.9382H22.7955V24.6661H19.2119V24.9382Z" fill="#E6E7E8"/>
<path d="M14.8388 25.4224H18.69V21.9444H14.8388V25.4224Z" fill="#96999B"/>
<path d="M14.9704 25.3479H18.554V22.0504H14.9704V25.3479Z" fill="#473838"/>
<path d="M14.9704 24.9382H18.554V24.6661H14.9704V24.9382Z" fill="#E6E7E8"/>
<path d="M10.9043 25.4224H14.7555V21.9444H10.9043V25.4224Z" fill="#96999B"/>
<path d="M11.0403 25.3479H14.6239V22.0504H11.0403V25.3479Z" fill="#473838"/>
<path d="M11.0403 24.9382H14.6239V24.6661H11.0403V24.9382Z" fill="#E6E7E8"/>
<path d="M6.77677 25.4224H10.6279V21.9444H6.77677V25.4224Z" fill="#96999B"/>
<path d="M6.91274 25.3479H10.4963V22.0504H6.91274V25.3479Z" fill="#473838"/>
<path d="M6.91274 24.9382H10.4963V24.6661H6.91274V24.9382Z" fill="#E6E7E8"/>
<path d="M2.84672 25.4224H6.69788L6.69788 21.9444H2.84672L2.84672 25.4224Z" fill="#96999B"/>
<path d="M2.97829 25.3479H6.56189L6.56189 22.0504H2.97829L2.97829 25.3479Z" fill="#473838"/>
<path d="M2.97829 24.9382H6.56189V24.6661H2.97829V24.9382Z" fill="#E6E7E8"/>
<path d="M46.2841 32.7339H50.1353V29.2559H46.2841V32.7339Z" fill="#96999B"/>
<path d="M46.4201 32.6621H50.0037V29.3646H46.4201V32.6621Z" fill="#473838"/>
<path d="M46.4201 32.2495H50.0037V31.9773H46.4201V32.2495Z" fill="#E6E7E8"/>
<path d="M42.3496 32.7339H46.2007V29.2559H42.3496V32.7339Z" fill="#96999B"/>
<path d="M42.4856 32.6621H46.0692V29.3646H42.4856V32.6621Z" fill="#473838"/>
<path d="M42.4856 32.2495H46.0692V31.9773H42.4856V32.2495Z" fill="#E6E7E8"/>
<path d="M38.1125 32.7339H41.9636V29.2559H38.1125V32.7339Z" fill="#96999B"/>
<path d="M38.2484 32.6621H41.832V29.3646H38.2484V32.6621Z" fill="#473838"/>
<path d="M38.2484 32.2495H41.832V31.9773H38.2484V32.2495Z" fill="#E6E7E8"/>
<path d="M34.178 32.7339H38.0291V29.2559H34.178V32.7339Z" fill="#96999B"/>
<path d="M34.3139 32.6621H37.8975V29.3646H34.3139V32.6621Z" fill="#473838"/>
<path d="M34.3139 32.2495H37.8975V31.9773H34.3139V32.2495Z" fill="#E6E7E8"/>
<path d="M23.0105 32.7339H26.8616V29.2559H23.0105V32.7339Z" fill="#96999B"/>
<path d="M23.1421 32.6621H26.7256V29.3646H23.1421V32.6621Z" fill="#473838"/>
<path d="M23.1421 32.2495H26.7256V31.9773H23.1421V32.2495Z" fill="#E6E7E8"/>
<path d="M19.076 32.7339H22.9271V29.2559H19.076V32.7339Z" fill="#96999B"/>
<path d="M19.2119 32.6621H22.7955V29.3646H19.2119V32.6621Z" fill="#473838"/>
<path d="M19.2119 32.2495H22.7955V31.9773H19.2119V32.2495Z" fill="#E6E7E8"/>
<path d="M14.8388 32.7339H18.69V29.2559H14.8388V32.7339Z" fill="#96999B"/>
<path d="M14.9704 32.6621H18.554V29.3646H14.9704V32.6621Z" fill="#473838"/>
<path d="M14.9704 32.2495H18.554V31.9773H14.9704V32.2495Z" fill="#E6E7E8"/>
<path d="M10.9043 32.7339H14.7555V29.2559H10.9043V32.7339Z" fill="#96999B"/>
<path d="M11.0403 32.6621H14.6239V29.3646H11.0403V32.6621Z" fill="#473838"/>
<path d="M11.0403 32.2495H14.6239V31.9773H11.0403V32.2495Z" fill="#E6E7E8"/>
<path d="M6.77677 32.7339H10.6279V29.2559H6.77677V32.7339Z" fill="#96999B"/>
<path d="M6.91274 32.6621H10.4963V29.3646H6.91274V32.6621Z" fill="#473838"/>
<path d="M6.91274 32.2495H10.4963V31.9773H6.91274V32.2495Z" fill="#E6E7E8"/>
<path d="M2.84672 32.7339H6.69788L6.69788 29.2559H2.84672L2.84672 32.7339Z" fill="#96999B"/>
<path d="M2.97829 32.6621H6.56189L6.56189 29.3646H2.97829L2.97829 32.6621Z" fill="#473838"/>
<path d="M2.97829 32.2495H6.56189V31.9773H2.97829V32.2495Z" fill="#E6E7E8"/>
<path d="M46.2841 39.7756H50.1353V36.2976H46.2841V39.7756Z" fill="#96999B"/>
<path d="M46.4201 39.7009H50.0037V36.4034H46.4201V39.7009Z" fill="#473838"/>
<path d="M46.4201 39.2888H50.0037V39.0167H46.4201V39.2888Z" fill="#E6E7E8"/>
<path d="M42.3496 39.7756H46.2007V36.2976H42.3496V39.7756Z" fill="#96999B"/>
<path d="M42.4856 39.7009H46.0692V36.4034H42.4856V39.7009Z" fill="#473838"/>
<path d="M42.4856 39.2888H46.0692V39.0167H42.4856V39.2888Z" fill="#E6E7E8"/>
<path d="M38.1125 39.7756H41.9636V36.2976H38.1125V39.7756Z" fill="#96999B"/>
<path d="M38.2484 39.7009H41.832V36.4034H38.2484V39.7009Z" fill="#473838"/>
<path d="M38.2484 39.2888H41.832V39.0167H38.2484V39.2888Z" fill="#E6E7E8"/>
<path d="M34.178 39.7756H38.0291V36.2976H34.178V39.7756Z" fill="#96999B"/>
<path d="M34.3139 39.7009H37.8975V36.4034H34.3139V39.7009Z" fill="#473838"/>
<path d="M34.3139 39.2888H37.8975V39.0167H34.3139V39.2888Z" fill="#E6E7E8"/>
<path d="M23.0105 39.7756H26.8616V36.2976H23.0105V39.7756Z" fill="#96999B"/>
<path d="M23.1421 39.7009H26.7256V36.4034H23.1421V39.7009Z" fill="#473838"/>
<path d="M23.1421 39.2888H26.7256V39.0167H23.1421V39.2888Z" fill="#E6E7E8"/>
<path d="M19.076 39.7756H22.9271V36.2976H19.076V39.7756Z" fill="#96999B"/>
<path d="M19.2119 39.7009H22.7955V36.4034H19.2119V39.7009Z" fill="#473838"/>
<path d="M19.2119 39.2888H22.7955V39.0167H19.2119V39.2888Z" fill="#E6E7E8"/>
<path d="M14.8388 39.7756H18.69V36.2976H14.8388V39.7756Z" fill="#96999B"/>
<path d="M14.9704 39.7009H18.554V36.4034H14.9704V39.7009Z" fill="#473838"/>
<path d="M14.9704 39.2888H18.554V39.0167H14.9704V39.2888Z" fill="#E6E7E8"/>
<path d="M10.9043 39.7756H14.7555V36.2976H10.9043V39.7756Z" fill="#96999B"/>
<path d="M11.0403 39.7009H14.6239V36.4034H11.0403V39.7009Z" fill="#473838"/>
<path d="M11.0403 39.2888H14.6239V39.0167H11.0403V39.2888Z" fill="#E6E7E8"/>
<path d="M6.77677 39.7756H10.6279V36.2976H6.77677V39.7756Z" fill="#96999B"/>
<path d="M6.91274 39.7009H10.4963V36.4034H6.91274V39.7009Z" fill="#473838"/>
<path d="M6.91274 39.2888H10.4963V39.0167H6.91274V39.2888Z" fill="#E6E7E8"/>
<path d="M2.84672 39.7756H6.69788L6.69788 36.2976H2.84672L2.84672 39.7756Z" fill="#96999B"/>
<path d="M2.97829 39.7009H6.56189L6.56189 36.4034H2.97829L2.97829 39.7009Z" fill="#473838"/>
<path d="M2.97829 39.2888H6.56189V39.0167H2.97829V39.2888Z" fill="#E6E7E8"/>
<path d="M46.2183 48.0811H50.0695V45.2992H46.2183V48.0811Z" fill="#96999B"/>
<path d="M46.3543 48.0237H49.9379V45.3851H46.3543V48.0237Z" fill="#473838"/>
<path d="M46.3543 47.6943H49.9379V47.4766H46.3543V47.6943Z" fill="#E6E7E8"/>
<path d="M42.2882 48.0811H46.1393V45.2992H42.2882V48.0811Z" fill="#96999B"/>
<path d="M42.4198 48.0237H46.0034V45.3851H42.4198V48.0237Z" fill="#473838"/>
<path d="M42.4198 47.6943H46.0034V47.4766H42.4198V47.6943Z" fill="#E6E7E8"/>
<path d="M38.0466 48.0811H41.8978V45.2992H38.0466V48.0811Z" fill="#96999B"/>
<path d="M38.1826 48.0237H41.7662V45.3851H38.1826V48.0237Z" fill="#473838"/>
<path d="M38.1826 47.6943H41.7662V47.4766H38.1826V47.6943Z" fill="#E6E7E8"/>
<path d="M34.1165 48.0811H37.9677V45.2992H34.1165V48.0811Z" fill="#96999B"/>
<path d="M34.2481 48.0237H37.8317V45.3851H34.2481V48.0237Z" fill="#473838"/>
<path d="M34.2481 47.6943H37.8317V47.4766H34.2481V47.6943Z" fill="#E6E7E8"/>
<path d="M16.3916 48.0811H20.2427V45.2992H16.3916V48.0811Z" fill="#96999B"/>
<path d="M16.5276 48.0237H20.1111V45.3851H16.5276V48.0237Z" fill="#473838"/>
<path d="M16.5276 47.6943H20.1111V47.4766H16.5276V47.6943Z" fill="#E6E7E8"/>
<path d="M12.4615 48.0811H16.3126V45.2992H12.4615V48.0811Z" fill="#96999B"/>
<path d="M12.593 48.0237H16.1766V45.3851H12.593V48.0237Z" fill="#473838"/>
<path d="M12.593 47.6943H16.1766V47.4766H12.593V47.6943Z" fill="#E6E7E8"/>
<path d="M8.21989 48.0811H12.071V45.2992H8.21989V48.0811Z" fill="#96999B"/>
<path d="M8.35586 48.0237H11.9395V45.3851H8.35586V48.0237Z" fill="#473838"/>
<path d="M8.35586 47.6943H11.9395V47.4766H8.35586V47.6943Z" fill="#E6E7E8"/>
<path d="M4.28538 48.0811H8.13654V45.2992H4.28538V48.0811Z" fill="#96999B"/>
<path d="M4.42135 48.0237H8.00494V45.3851H4.42135V48.0237Z" fill="#473838"/>
<path d="M4.42135 47.6943H8.00494V47.4766H4.42135V47.6943Z" fill="#E6E7E8"/>
<path d="M5.72205e-05 45.113L52.982 45.113V41.5691L5.72205e-05 41.5691V45.113Z" fill="#052B4E"/>
<g style="mix-blend-mode:color-dodge">
<path d="M5.72205e-05 41.8584L52.982 41.8584V41.569L5.72205e-05 41.569V41.8584Z" fill="#DCDDD7"/>
</g>
<path d="M23.2868 49.5105H27.0151V45.3564H23.2868V49.5105Z" fill="#96999B"/>
<path d="M23.4141 49.4304H26.8836V45.494H23.4141V49.4304Z" fill="#052B4E"/>
<path d="M23.4141 48.9348H26.8836V48.6111H23.4141V48.9348Z" fill="#E6E7E8"/>
<path d="M26.8835 49.5105H30.6119V45.3564H26.8835V49.5105Z" fill="#96999B"/>
<path d="M27.0151 49.4304H30.4847V45.494H27.0151V49.4304Z" fill="#052B4E"/>
<path d="M27.0151 48.9348H30.4847V48.6111H27.0151V48.9348Z" fill="#E6E7E8"/>
<path d="M52.2231 10.7971H53.7189V7.31911H52.2231V10.7971Z" fill="#E6E7E8"/>
<path d="M52.2757 10.7256H53.6662V7.42807H52.2757V10.7256Z" fill="#473838"/>
<path d="M52.2757 10.313H53.6662V10.0408H52.2757V10.313Z" fill="#E6E7E8"/>
<path d="M53.7627 10.7971H55.2584V7.31911H53.7627V10.7971Z" fill="#E6E7E8"/>
<path d="M53.8154 10.7256H55.2058V7.42807H53.8154V10.7256Z" fill="#473838"/>
<path d="M53.8154 10.313H55.2058V10.0408H53.8154V10.313Z" fill="#E6E7E8"/>
<path d="M52.2231 18.0625H53.7189V14.5845H52.2231V18.0625Z" fill="#E6E7E8"/>
<path d="M52.2757 17.9907H53.6662V14.6932H52.2757V17.9907Z" fill="#473838"/>
<path d="M52.2757 17.5784H53.6662V17.3062H52.2757V17.5784Z" fill="#E6E7E8"/>
<path d="M53.7627 18.0625H55.2584V14.5845H53.7627V18.0625Z" fill="#E6E7E8"/>
<path d="M53.8154 17.9907H55.2058V14.6932H53.8154V17.9907Z" fill="#473838"/>
<path d="M53.8154 17.5784H55.2058V17.3062H53.8154V17.5784Z" fill="#E6E7E8"/>
<path d="M52.2231 25.3252H53.7189V21.8472H52.2231V25.3252Z" fill="#E6E7E8"/>
<path d="M52.2757 25.2563H53.6662V21.9588H52.2757V25.2563Z" fill="#473838"/>
<path d="M52.2757 24.8408H53.6662V24.5687H52.2757V24.8408Z" fill="#E6E7E8"/>
<path d="M53.7627 25.3252H55.2584V21.8472H53.7627V25.3252Z" fill="#E6E7E8"/>
<path d="M53.8154 25.2563H55.2058V21.9588H53.8154V25.2563Z" fill="#473838"/>
<path d="M53.8154 24.8408H55.2058V24.5687H53.8154V24.8408Z" fill="#E6E7E8"/>
<path d="M52.2231 32.5933H53.7189V29.1153H52.2231V32.5933Z" fill="#E6E7E8"/>
<path d="M52.2757 32.5188H53.6662V29.2213H52.2757V32.5188Z" fill="#473838"/>
<path d="M52.2757 32.1064H53.6662V31.8343H52.2757V32.1064Z" fill="#E6E7E8"/>
<path d="M53.7627 32.5933H55.2584V29.1153H53.7627V32.5933Z" fill="#E6E7E8"/>
<path d="M53.8154 32.5188H55.2058V29.2213H53.8154V32.5188Z" fill="#473838"/>
<path d="M53.8154 32.1064H55.2058V31.8343H53.8154V32.1064Z" fill="#E6E7E8"/>
<path d="M52.2231 39.856H53.7189V36.3779H52.2231V39.856Z" fill="#E6E7E8"/>
<path d="M52.2757 39.7842H53.6662V36.4867H52.2757V39.7842Z" fill="#473838"/>
<path d="M52.2757 39.3718H53.6662V39.0997H52.2757V39.3718Z" fill="#E6E7E8"/>
<path d="M53.7627 39.856H55.2584V36.3779H53.7627V39.856Z" fill="#E6E7E8"/>
<path d="M53.8154 39.7842H55.2058V36.4867H53.8154V39.7842Z" fill="#473838"/>
<path d="M53.8154 39.3718H55.2058V39.0997H53.8154V39.3718Z" fill="#E6E7E8"/>
<path d="M55.5128 10.7971H57.0085V7.31911H55.5128V10.7971Z" fill="#E6E7E8"/>
<path d="M55.5655 10.7256H56.9559V7.42807H55.5655V10.7256Z" fill="#473838"/>
<path d="M55.5655 10.313H56.9559V10.0408H55.5655V10.313Z" fill="#E6E7E8"/>
<path d="M57.0524 10.7971H58.5482V7.31911H57.0524V10.7971Z" fill="#E6E7E8"/>
<path d="M57.105 10.7256H58.4955V7.42807H57.105V10.7256Z" fill="#473838"/>
<path d="M57.105 10.313H58.4955V10.0408H57.105V10.313Z" fill="#E6E7E8"/>
<path d="M55.5128 18.0625H57.0085V14.5845H55.5128V18.0625Z" fill="#E6E7E8"/>
<path d="M55.5655 17.9907H56.9559V14.6932H55.5655V17.9907Z" fill="#473838"/>
<path d="M55.5655 17.5784H56.9559V17.3062H55.5655V17.5784Z" fill="#E6E7E8"/>
<path d="M57.0524 18.0625H58.5482V14.5845H57.0524V18.0625Z" fill="#E6E7E8"/>
<path d="M57.105 17.9907H58.4955V14.6932H57.105V17.9907Z" fill="#473838"/>
<path d="M57.105 17.5784H58.4955V17.3062H57.105V17.5784Z" fill="#E6E7E8"/>
<path d="M55.5128 25.3252H57.0085V21.8472H55.5128V25.3252Z" fill="#E6E7E8"/>
<path d="M55.5655 25.2563H56.9559V21.9588H55.5655V25.2563Z" fill="#473838"/>
<path d="M55.5655 24.8408H56.9559V24.5687H55.5655V24.8408Z" fill="#E6E7E8"/>
<path d="M57.0524 25.3252H58.5482V21.8472H57.0524V25.3252Z" fill="#E6E7E8"/>
<path d="M57.105 25.2563H58.4955V21.9588H57.105V25.2563Z" fill="#473838"/>
<path d="M57.105 24.8408H58.4955V24.5687H57.105V24.8408Z" fill="#E6E7E8"/>
<path d="M55.5128 32.5933H57.0085V29.1153H55.5128V32.5933Z" fill="#E6E7E8"/>
<path d="M55.5655 32.5188H56.9559V29.2213H55.5655V32.5188Z" fill="#473838"/>
<path d="M55.5655 32.1064H56.9559V31.8343H55.5655V32.1064Z" fill="#E6E7E8"/>
<path d="M57.0524 32.5933H58.5482V29.1153H57.0524V32.5933Z" fill="#E6E7E8"/>
<path d="M57.105 32.5188H58.4955V29.2213H57.105V32.5188Z" fill="#473838"/>
<path d="M57.105 32.1064H58.4955V31.8343H57.105V32.1064Z" fill="#E6E7E8"/>
<path d="M55.5128 39.856H57.0085V36.3779H55.5128V39.856Z" fill="#E6E7E8"/>
<path d="M55.5655 39.7842H56.9559V36.4867H55.5655V39.7842Z" fill="#473838"/>
<path d="M55.5655 39.3718H56.9559V39.0997H55.5655V39.3718Z" fill="#E6E7E8"/>
<path d="M57.0524 39.856H58.5482V36.3779H57.0524V39.856Z" fill="#E6E7E8"/>
<path d="M57.105 39.7842H58.4955V36.4867H57.105V39.7842Z" fill="#473838"/>
<path d="M57.105 39.3718H58.4955V39.0997H57.105V39.3718Z" fill="#E6E7E8"/>
</svg>
