<svg width="118" height="100" viewBox="0 0 118 100" fill="none" xmlns="http://www.w3.org/2000/svg">
<path d="M76.0173 43.3243C81.0745 43.3243 85.1742 39.2246 85.1742 34.1674C85.1742 29.1102 81.0745 25.0105 76.0173 25.0105C70.96 25.0105 66.8604 29.1102 66.8604 34.1674C66.8604 39.2246 70.96 43.3243 76.0173 43.3243Z" fill="#FCD4A6"/>
<path d="M77.2524 53.4432L80.1244 55.42L97.0453 51.6338C97.0453 51.6338 101.55 51.8396 101.688 55.5206C101.688 55.5206 102.258 58.9191 99.4625 59.9578L79.6601 64.5339C78.4167 64.2564 77.2363 63.7482 76.1802 63.0356L72.1689 59.4983L77.2524 53.4432Z" fill="#FCD4A6"/>
<path d="M45.7229 76.673L42.5685 74.969C42.5685 74.969 40.9936 78.6452 43.6215 81.139L52.1562 88.2281L40.7304 88.6206C40.7304 88.6206 37.0542 88.2281 36.3984 93.7423C36.3984 93.7423 37.71 98.4716 40.6011 98.73L68.4356 98.6008C68.4356 98.6008 71.7145 97.5525 72.1118 95.7288H79.2009C79.2009 95.7288 82.0729 95.5948 83.0063 92.0526C83.0063 92.0526 84.0593 88.769 81.4314 86.6676L68.4356 77.3336C68.4356 77.3336 62.5241 86.2608 55.8323 82.599L45.7229 76.673Z" fill="#052B4E"/>
<path d="M64.1036 42.2759L76.4436 48.4459C76.4436 48.4459 80.5123 50.9398 77.7552 56.5833L66.8607 79.9518C66.8607 79.9518 62.165 85.265 57.8091 83.4269C57.6751 83.3695 57.5411 83.3073 57.407 83.2355C52.9411 80.8709 42.5684 74.9641 42.5684 74.9641L55.8322 45.8324C55.8322 45.8324 58.8478 40.8303 64.1036 42.2759Z" fill="#FFCE58"/>
<path d="M77.7554 58.4263L70.0106 63.1507L63.3092 52.912C63.3092 52.912 61.3419 48.7093 64.3575 47.3978C64.3575 47.3978 67.7752 45.0332 70.5323 47.9243L77.7554 58.4263Z" fill="#052B4E"/>
<path d="M102.176 54.094L95.0874 64.4667L98.3663 66.9606L105.853 57.2437L108.346 56.8512C108.346 56.8512 114.057 55.8316 112.516 49.5946C112.516 49.5946 112.09 48.8431 111.63 49.0058C111.63 49.0058 111.104 49.0728 111.104 50.7434C111.104 50.7434 109.668 54.094 106.867 52.4187C106.867 52.4187 103.881 49.9248 107.265 47.2347C107.265 47.2347 108.447 46.9045 108.117 46.1146C108.117 46.1146 107.724 45.1956 106.202 45.7221C104.956 46.0949 103.853 46.8373 103.038 47.8511C102.224 48.8649 101.736 50.1022 101.64 51.3991C101.64 51.3991 101.65 53.3377 102.176 54.094Z" fill="#C2C2C2"/>
<path d="M90.0948 4.85847H106.776C106.776 4.85847 112.946 4.46596 112.817 15.4945V36.3691L108.988 36.6324V41.4909L112.927 41.3568L113.19 96.8822C113.19 96.8822 113.32 99.1176 115.158 98.8543C115.158 98.8543 117.259 99.3809 117.259 96.3605V10.3727C117.259 10.3727 116.5 0.5 107.15 0.392511L85.2267 0C85.2267 0 82.1537 0.196247 82.9914 3.64265C83.0057 3.64265 86.9452 2.52736 90.0948 4.85847Z" fill="#CCCCCC"/>
<path d="M94.3785 10.3679H75.8684C74.2637 10.3679 72.9629 11.6688 72.9629 13.2734C72.9629 14.8781 74.2637 16.1789 75.8684 16.1789H94.3785C95.9831 16.1789 97.284 14.8781 97.284 13.2734C97.284 11.6688 95.9831 10.3679 94.3785 10.3679Z" fill="#DFDFDF"/>
<path d="M109.002 42.7116V34.6077C109.002 34.079 108.573 33.6504 108.045 33.6504H106.546C106.018 33.6504 105.589 34.079 105.589 34.6077V42.7116C105.589 43.2403 106.018 43.6689 106.546 43.6689H108.045C108.573 43.6689 109.002 43.2403 109.002 42.7116Z" fill="#C2C2C2"/>
<path d="M85.1752 3.06836C85.1752 3.06836 77.9952 3.36035 76.9038 10.727L93.4465 10.6313C93.4465 10.6313 93.1498 4.25067 85.1752 3.06836Z" fill="#C2C2C2"/>
<path d="M31.2764 99.2564L6.46225 99.3905C5.90449 99.3892 5.37002 99.1668 4.97608 98.7719C4.58214 98.3771 4.3609 97.8421 4.3609 97.2843L1.08203 82.326C1.08203 82.0494 1.13651 81.7755 1.24235 81.52C1.34819 81.2645 1.50333 81.0323 1.6989 80.8367C1.89448 80.6411 2.12665 80.486 2.38218 80.3802C2.63771 80.2743 2.91158 80.2198 3.18816 80.2198H33.3729C33.9315 80.2198 34.4672 80.4417 34.8622 80.8367C35.2572 81.2317 35.4791 81.7674 35.4791 82.326L33.3825 97.1647C33.3787 97.7208 33.1551 98.2528 32.7606 98.6447C32.366 99.0365 31.8325 99.2565 31.2764 99.2564Z" fill="#052B4E"/>
<path d="M16.2788 85.8442V90.0612C16.2788 91.2244 17.2218 92.1674 18.3849 92.1674H19.5864C20.7496 92.1674 21.6925 91.2244 21.6925 90.0612V85.8442C21.6925 84.681 20.7496 83.738 19.5864 83.738H18.3849C17.2218 83.738 16.2788 84.681 16.2788 85.8442Z" fill="#F2F2F2"/>
<path d="M35.6081 79.5641H2.10614C0.942949 79.5641 0 80.507 0 81.6702V85.2363C0 86.3995 0.942949 87.3424 2.10614 87.3424H35.6081C36.7712 87.3424 37.7142 86.3995 37.7142 85.2363V81.6702C37.7142 80.507 36.7712 79.5641 35.6081 79.5641Z" fill="#052B4E"/>
<path d="M10.5979 79.4301V75.2322C10.5979 75.2322 10.7989 71.0965 18.1513 71.4028H22.0859C22.0859 71.4028 26.8151 71.7331 26.8726 75.8018L26.9348 79.5449L23.1964 79.4779V75.0311H14.2118V79.5593C14.2118 79.5593 10.4351 79.2673 10.5979 79.4301Z" fill="#052B4E"/>
<path d="M77.0991 58.4741L79.3297 61.2312L97.5813 62.8061C97.5813 62.8061 102.042 64.3809 100.994 67.923C100.994 67.923 100.468 71.3407 97.318 71.4699L75.9168 69.7659C74.765 69.1277 73.741 68.2823 72.8964 67.272L70.0244 62.6768L77.0991 58.4741Z" fill="#FCD4A6"/>
</svg>
