<svg width="67" height="52" viewBox="0 0 67 52" fill="none" xmlns="http://www.w3.org/2000/svg">
<path d="M67 36L0 36L3.52158e-06 52L67 52V36Z" fill="#473838"/>
<path d="M13.5244 27.6018L42.5771 27.5146H54.6722C56.2063 27.3619 57.7462 27.7412 59.0343 28.5888C60.3223 29.4364 61.2804 30.701 61.7481 32.171L63.7174 34.8741V37.6471C63.7174 37.6471 65.164 38.4493 65.0768 36.217C65.1157 35.0278 64.885 33.8452 64.4021 32.7579C63.9192 31.6705 63.1965 30.7067 62.2883 29.9387L59.5521 25.5439C59.5521 25.5439 56.3279 22.7535 54.0797 22.7535H12.0953C9.59131 23.5721 7.40043 25.1433 5.82113 27.253L3.1372 31.1944C3.1372 31.1944 0.801825 38.8155 1.88237 39.3561C2.02423 39.5111 2.20753 39.6221 2.41053 39.676C2.61353 39.7299 2.82771 39.7243 3.02767 39.6601C3.22763 39.5958 3.40498 39.4756 3.53869 39.3135C3.6724 39.1514 3.75685 38.9544 3.78204 38.7458L4.04346 34.7172L5.38543 32.9732L6.20455 32.0663C6.20455 32.0663 6.7274 26.2589 13.5244 27.6018Z" fill="#052B4E"/>
<path d="M61.4866 34.4207H5.82104V33.165C5.82104 33.165 6.44846 28.5958 10.2129 27.7762C10.2129 27.7762 17.829 27.3402 24.8177 27.5146H56.8158C56.8158 27.5146 62.8285 28.7702 61.4866 34.4207Z" fill="#FFCE58"/>
<path d="M63.3687 34.8741L63.6475 46.0007L3.85156 46.0879L4.13041 34.3335L63.3687 34.8741Z" fill="#052B4E"/>
<path d="M61.8524 34.0719L61.9395 32.9035L63.7346 35.2404L4.04321 34.787L5.92545 32.8163L6.36116 33.9847L61.8524 34.0719Z" fill="white"/>
<path d="M6.09985 46.3495L6.27413 47.797L10.2303 47.6051L10.7532 46.3495H6.09985Z" fill="#F2F2F2"/>
<path d="M57.0076 46.2623L57.1819 47.6052H61.4866L61.6783 46.3495L57.0076 46.2623Z" fill="#F2F2F2"/>
<path d="M8.71223 0.191837L11.5007 7.27236L7.73357 7.42129L7.64911 9.99179L8.314 9.90887L8.77006 9.66011L9.96705 9.53573V10.6731L9.18466 11.1527L8.47984 10.7795L7.40189 10.6731L6.74285 10.5859L6.65571 7.53396L2.71694 7.44676L5.31374 0L8.71223 0.191837Z" fill="#FFCE58"/>
<path d="M8.69535 0.456075L11.1689 7.15193H7.64208L7.54632 10.0951H8.29638L8.69535 9.82592L9.76458 9.73619V10.6514L9.19006 11.0283L8.53576 10.7412L7.38674 10.5617H6.81222V7.15193H3.04851L5.5834 0.258667L8.69535 0.456075Z" fill="#052B4E"/>
<path d="M57.247 0.191837L54.4585 7.27236L58.2257 7.42129L58.3101 9.99179L57.6452 9.90887L57.1892 9.66011L55.9922 9.53573V10.6731L56.7746 11.1527L57.4794 10.7795L58.5573 10.6731L59.2164 10.5859L59.3035 7.53396L63.2423 7.44676L60.6455 0L57.247 0.191837Z" fill="#FFCE58"/>
<path d="M57.2636 0.456075L54.79 7.15193H58.3169L58.4127 10.0951H57.6626L57.2636 9.82592L56.1944 9.73619V10.6514L56.7689 11.0283L57.4232 10.7412L58.5722 10.5617H59.1468V7.15193H62.9105L60.3756 0.258667L57.2636 0.456075Z" fill="#052B4E"/>
<path d="M10.3513 23.486L10.177 12.7082C14.2229 11.9568 17.9028 9.87628 20.6339 6.79618L21.7144 6.16835C23.905 5.48701 25.9009 4.29107 27.5354 2.6804C27.5354 2.6804 33.0079 -0.197152 37.9923 2.6804C39.7855 4.26697 41.8941 5.45568 44.1793 6.16835C45.4847 7.8333 47.1074 9.22243 48.9532 10.2552C50.7991 11.288 52.8314 11.944 54.9325 12.1851L55.4031 22.4919L10.3513 23.486Z" fill="#FFCE58"/>
<path d="M11.5897 23.4662L11.4236 13.1877C15.2809 12.471 18.7892 10.4869 21.3931 7.54946L22.4233 6.95071C24.5118 6.30094 26.4146 5.1604 27.973 3.62434C27.973 3.62434 33.1903 0.880073 37.9425 3.62434C39.6521 5.13741 41.6624 6.27106 43.8411 6.95071C45.0856 8.53854 46.6327 9.86333 48.3925 10.8483C50.1523 11.8333 52.0899 12.4588 54.093 12.6887L54.5417 22.5182L11.5897 23.4662Z" fill="#FFCE58"/>
<path d="M11.7505 22.9686L11.5891 12.9734C15.3352 12.2765 18.7423 10.347 21.271 7.49056L22.2715 6.90832C24.2998 6.27645 26.1477 5.16734 27.6611 3.67361C27.6611 3.67361 32.728 1.00497 37.343 3.67361C39.0033 5.14498 40.9556 6.24739 43.0715 6.90832C44.2801 8.45239 45.7825 9.74067 47.4916 10.6985C49.2006 11.6563 51.0824 12.2646 53.0277 12.4882L53.4634 22.0467L11.7505 22.9686Z" fill="#473838"/>
<path d="M13.0684 22.7199L12.916 13.2507C16.4544 12.5905 19.6726 10.7626 22.0611 8.05647L23.0061 7.50487C24.9219 6.90626 26.6674 5.85552 28.0969 4.44041C28.0969 4.44041 32.8828 1.91223 37.242 4.44041C38.8102 5.83434 40.6543 6.87873 42.6528 7.50487C43.7945 8.96767 45.2136 10.1881 46.8279 11.0956C48.4422 12.003 50.2196 12.5793 52.057 12.7911L52.4686 21.8465L13.0684 22.7199Z" fill="#052B4E"/>
<path d="M15.2237 15.1271C14.8302 16.7427 14.9898 18.4437 15.6769 19.9579C15.6769 19.9579 16.74 21.5798 14.5092 22.8354L12.0867 24.0039C14.4091 23.4979 16.7903 23.3159 19.1625 23.4632L32.4602 23.097C32.2029 22.5256 32.0936 21.8986 32.1424 21.2737C32.1911 20.6489 32.3963 20.0464 32.739 19.5219C32.739 19.5219 34.4818 18.0744 33.0005 17.0978C33.0005 17.0978 32.0245 16.4699 27.6326 16.3827L21.7941 16.4699L17.5068 15.1271C17.5068 15.1271 15.5723 14.6736 15.2237 15.1271Z" fill="#FFCE58"/>
<path d="M33.959 16.4698C34.1174 17.9133 34.4752 19.3278 35.0222 20.6728L35.2139 21.4053L33.7673 23.4632L54.3848 23.5504C54.3848 23.5504 51.0735 22.6609 52.8686 18.7893C52.8686 18.7893 52.8686 16.9058 49.1912 16.557L41.8366 16.8186C39.2057 16.9747 36.5658 16.8578 33.959 16.4698Z" fill="#FFCE58"/>
</svg>
