<svg width="85" height="100" viewBox="0 0 85 100" fill="none" xmlns="http://www.w3.org/2000/svg">
<path d="M35.0756 44.2857L20.425 49.8702C20.425 49.8702 16.8567 48.9555 13.1949 60.218L5.96143 75.8733L17.7713 82.7396L16.9468 99.1292H67.7146V84.2951L67.1672 82.2355L78.8503 75.643L68.5391 53.2583C68.5391 53.2583 67.9917 51.3356 65.3814 49.9636L47.2159 43.8284L35.0756 44.2857Z" fill="#FECE55"/>
<path d="M34.7554 39.1116L34.5718 44.2388C34.5718 44.2388 35.7167 49.0021 42.3093 48.7251C42.3093 48.7251 49.4493 49.0923 50.4574 44.3323V38.8379L34.7554 39.1116Z" fill="#F5C58E"/>
<path d="M28.5767 21.5338C28.5767 21.5338 25.7828 21.7174 26.15 24.4178C26.15 24.4178 26.3769 28.9509 28.8037 30.4596C28.8037 30.4596 29.9019 30.8736 30.4059 29.9122L31.5041 34.6255C31.5041 34.6255 32.145 36.8686 36.1273 41.7221C37.4989 42.9355 39.2448 43.6423 41.0742 43.7249L45.1466 43.5847C45.1466 43.5847 48.1508 43.3577 50.3205 40.1065L52.6104 37.0389C53.422 35.6391 53.9356 34.0867 54.1192 32.4791L54.6232 30.1425C54.6232 30.1425 56.8196 31.6079 58.058 28.2666C58.058 28.2666 59.7504 24.4212 58.8358 22.592C58.8358 22.592 57.5974 20.9897 56.9131 21.7207L52.7005 13.0686L32.1016 14.07L28.5767 21.5338Z" fill="#FCD4A6"/>
<path d="M28.7578 17.6417C28.7578 17.6417 29.2619 21.8776 34.2422 22.0145C35.4631 21.8181 36.6308 21.3739 37.6736 20.7093C37.6736 20.7093 41.7961 17.8954 46.4993 20.1619C46.4993 20.1619 49.4502 21.9243 50.5484 22.0145C50.5484 22.0145 53.8864 22.3115 55.6555 19.6345C56.087 18.9793 56.4326 18.2714 56.6836 17.5282C56.6836 17.5282 52.6112 12.3342 42.0798 13.339C42.0698 13.339 31.9623 13.9799 28.7578 17.6417Z" fill="#083A68"/>
<path d="M57.5971 17.6416L57.1866 21.4436C57.1866 21.4436 55.0803 22.405 54.8499 26.8445L52.9272 27.2551C52.9272 27.2551 53.9787 22.9157 54.0255 20.9863L56.1317 17.5515L57.5971 17.6416Z" fill="#622E15"/>
<path d="M27.5918 17.5047L28.0024 21.3067C28.0024 21.3067 30.1087 22.268 30.339 26.7076L32.2617 27.1182C32.2617 27.1182 31.2069 22.7787 31.1601 20.846L29.0505 17.4146L27.5918 17.5047Z" fill="#622E15"/>
<path d="M42.2633 0.0169507C42.2633 0.0169507 34.7561 -0.530483 30.36 4.5967C30.36 4.5967 26.0205 8.8994 27.6161 17.6884L28.484 17.7351L57.5547 17.6416C57.5547 17.6416 59.2938 10.3648 55.4952 5.64818C55.4952 5.64818 52.1071 -0.119903 43.4984 0.0636877L42.2633 0.0169507Z" fill="#052B4E"/>
<path d="M6.1298 75.6008L0.584475 88.7379C0.584475 88.7379 -2.50652 94.9166 5.52807 98.2146L14.5908 96.0335C14.5908 96.0335 12.5779 88.3007 14.5908 85.3732L17.5721 84.9999L17.9807 82.9566L6.1298 75.6008Z" fill="#FCD4A6"/>
<path d="M78.6475 75.1421L84.4156 87.9133C84.4156 87.9133 87.5066 94.092 79.472 97.3899L70.8199 95.534C70.8199 95.534 72.4221 87.4794 70.4093 84.5486L67.8457 84.365L67.2949 82.1686L78.6475 75.1421Z" fill="#FCD4A6"/>
<path d="M28.6099 46.5989L22.9119 49.0456L25.1083 77.9094C25.1083 77.9094 24.3072 83.6775 17.7146 84.9192L17.0337 99.1525L30.4692 99.3361L67.6647 99.1058L67.9617 84.502C67.9617 84.502 59.7235 84.502 61.3725 73.1728L63.4321 49.069L57.2501 47.2164L55.1905 70.4957L31.4906 70.9063L28.6099 46.5989Z" fill="#052B4E"/>
<path d="M49.4857 60.9624L54.4193 59.4503C54.4193 59.4503 57.9209 59.2433 58.6085 61.6467C58.6085 61.6467 59.1559 62.608 58.9423 64.8078L58.6085 70.1486L55.3807 73.9272V82.0987L51.602 82.2355L50.9845 74.8919C50.9845 74.8919 50.6073 73.4499 51.9859 71.8877L55.3239 68.9336L55.3606 65.225L54.673 62.8217L54.1923 62.8584L54.0187 63.1922L53.7384 62.8884L53.488 63.2222L53.2176 62.9318L53.014 63.2222L52.737 62.9185L52.5434 63.2222L52.293 62.9084L52.036 63.2122L51.7823 62.9084L51.5152 63.2055L51.2449 62.9084L51.0379 63.1822L50.8143 62.9385L50.594 63.1588L50.4104 62.9418L50.1233 63.1822L49.8896 62.9418L49.6092 63.2189L49.3455 62.9385L49.0818 63.1722L48.8248 62.9418L48.6312 63.1888L48.4009 62.9151L48.4409 61.9137C48.4409 61.9137 48.5077 61.2061 49.4857 60.9624Z" fill="#473838"/>
<path d="M49.3828 62.2307L55.2544 62.2641L56.179 65.0814L56.1456 68.4194L57.9315 69.8614L58.342 64.8544C58.342 64.8544 58.7893 62.3142 57.6911 61.4563C57.6911 61.4563 56.8666 60.0811 55.3545 60.2547L50.1672 61.6599C49.8499 61.7584 49.5741 61.9591 49.3828 62.2307Z" fill="#CCCCCC"/>
<path d="M49.7271 67.8954L55.1179 67.8286C55.2181 67.8286 58.7564 70.4456 58.7564 70.4456C58.7564 70.4456 59.7578 70.7794 59.444 73.9238L59.2037 82.0419H56.3196L56.1461 74.785L51.7532 71.447C51.7532 71.447 50.2745 70.7427 49.7271 67.8954Z" fill="#544242"/>
<path d="M49.2127 65.7524C49.2127 65.7524 48.8789 67.3613 49.8069 67.9388L55.1043 67.8921L55.1978 65.8292L54.8106 65.8492C54.8106 65.8492 54.7805 65.4186 54.7038 65.4921C54.627 65.5655 54.37 65.886 54.37 65.886L53.9928 65.5254L53.7391 65.9093L53.3185 65.5755L53.0615 65.9594L52.6075 65.5788L52.3071 65.9761L51.8765 65.6423L51.5427 66.0261L51.1354 65.6456L50.8016 66.0662L50.3944 65.7324L50.1274 66.1163L49.7936 65.7324L49.5499 66.183L49.2361 65.8492" fill="#052B4E"/>
<path d="M14.4073 84.4286L19.2141 84.9093C19.2141 84.9093 20.586 83.3304 22.235 83.0567L28.9644 81.134C28.9644 81.134 35.8975 78.9376 36.0377 82.3023L35.8307 82.9699L37.8903 82.833C37.8903 82.833 39.606 83.4506 39.2622 84.7557C39.2622 84.7557 39.9498 85.6503 38.0271 86.7585C38.0271 86.7585 39.7896 86.9655 39.813 88.6579C39.813 88.6579 40.2235 90.467 37.4763 90.7174C37.4763 90.7174 38.8115 91.5653 38.6647 92.7202C38.6647 92.7202 38.7114 94.2524 36.742 94.3659L36.3748 94.5027C36.7455 94.6113 37.068 94.8432 37.289 95.1601C37.5099 95.477 37.6161 95.8598 37.5898 96.2452C37.5898 96.2452 37.7501 97.9843 35.4368 97.8674L23.2831 97.9142C23.2831 97.9142 20.1254 97.8674 18.8903 95.4207L14.3806 96.1751C14.3806 96.1751 11.797 91.2982 14.4073 84.4286Z" fill="#053765"/>
<path d="M14.505 84.6221L18.7209 85.0894C18.7209 85.0894 19.9259 83.5573 21.3713 83.2936L27.2729 81.431C27.2729 81.431 33.3547 79.3047 33.4749 82.5626L33.2946 83.2302L35.1005 83.0967C35.1005 83.0967 36.6059 83.6941 36.3055 84.9592C36.3055 84.9592 36.9064 85.8238 35.2207 86.8853C35.6605 86.9493 36.062 87.1713 36.3501 87.5098C36.6383 87.8483 36.7933 88.2801 36.7862 88.7245C36.7862 88.7245 37.1467 90.477 34.74 90.7273C34.74 90.7273 35.925 91.5485 35.7815 92.6768C35.7815 92.6768 35.8215 94.1622 34.1124 94.2723L33.7786 94.4058C34.1168 94.5255 34.4052 94.7548 34.5981 95.0572C34.7911 95.3596 34.8774 95.7178 34.8435 96.0748C34.8435 96.0748 34.9837 97.7438 32.9575 97.647L22.2959 97.6904C22.2959 97.6904 19.5287 97.647 18.4438 95.2771L14.4883 96.0081C14.4883 96.0081 12.2184 91.2714 14.505 84.6221Z" fill="#052B4E"/>
<path d="M70.8732 83.8109L66.0664 84.2916C66.0664 84.2916 64.6945 82.7127 63.0455 82.439L56.3161 80.5163C56.3161 80.5163 49.383 78.3199 49.2428 81.6846L49.4498 82.3689L47.3902 82.232C47.3902 82.232 45.6745 82.8496 46.0183 84.1547C46.0183 84.1547 45.3307 85.0493 47.2534 86.1576C47.2534 86.1576 45.4909 86.3612 45.4675 88.0569C45.4675 88.0569 45.057 89.8661 47.8042 90.1164C47.8042 90.1164 46.4689 90.9643 46.6158 92.1192C46.6158 92.1192 46.5691 93.6547 48.5385 93.7682L48.9057 93.9051C48.5353 94.013 48.2128 94.2443 47.9918 94.5606C47.7709 94.8769 47.6646 95.2592 47.6907 95.6442C47.6907 95.6442 47.5304 97.3866 49.8437 97.2698L61.9974 97.3165C61.9974 97.3165 65.1551 97.2698 66.3902 94.823L70.8965 95.5674C70.8965 95.5674 73.4835 90.6772 70.8732 83.8109Z" fill="#053765"/>
<path d="M70.7764 84.8158L66.5305 85.2531C66.5305 85.2531 65.3188 83.8178 63.8601 83.5841L57.9184 81.8383C57.9184 81.8383 51.7965 79.8355 51.6763 82.8965L51.8566 83.5207L50.0374 83.3972C50.0374 83.3972 48.5219 83.958 48.8257 85.143C48.8257 85.143 48.2182 85.9541 49.9172 86.9488C49.9172 86.9488 48.3617 87.1358 48.3417 88.6746C48.3417 88.6746 47.9778 90.3169 50.4012 90.5472C50.4012 90.5472 49.2096 91.315 49.3531 92.3765C49.3531 92.3765 49.3097 93.7684 51.0488 93.8719L51.3826 93.9954C51.0512 94.0987 50.7646 94.3115 50.57 94.599C50.3753 94.8864 50.284 95.2315 50.3111 95.5776C50.3111 95.5776 50.1709 97.1565 52.2104 97.053L62.9421 97.0931C62.9421 97.0931 65.7294 97.053 66.8209 94.8266L70.7764 95.5008C70.7764 95.5008 73.073 91.0513 70.7764 84.8158Z" fill="#052B4E"/>
<path d="M33.9546 64.9113V70.903C33.9546 71.3639 34.3282 71.7375 34.7891 71.7375C35.25 71.7375 35.6236 71.3639 35.6236 70.903V64.9113C35.6236 64.4504 35.25 64.0768 34.7891 64.0768C34.3282 64.0768 33.9546 64.4504 33.9546 64.9113Z" fill="#CCCCCC"/>
<path d="M26.9146 64.9113V70.903C26.9146 71.3639 27.2882 71.7375 27.7491 71.7375C28.2099 71.7375 28.5836 71.3639 28.5836 70.903V64.9113C28.5836 64.4504 28.2099 64.0768 27.7491 64.0768C27.2882 64.0768 26.9146 64.4504 26.9146 64.9113Z" fill="#CCCCCC"/>
<path d="M28.7642 74.5347V81.5378L33.9114 81.7448L33.9815 74.6048L28.7642 74.5347Z" fill="#CCCCCC"/>
<path d="M28.3965 97.8809V99.3362L33.547 99.3796L33.6138 97.8942L28.3965 97.8809Z" fill="#CCCCCC"/>
<path d="M34.8392 62.4978H27.9028V73.1761H34.8392V62.4978Z" fill="#473838"/>
<path d="M30.4531 64.9113V70.903C30.4531 71.3639 30.8267 71.7375 31.2876 71.7375C31.7485 71.7375 32.1221 71.3639 32.1221 70.903V64.9113C32.1221 64.4504 31.7485 64.0768 31.2876 64.0768C30.8267 64.0768 30.4531 64.4504 30.4531 64.9113Z" fill="#CCCCCC"/>
<path d="M34.8727 72.6118H27.9731C27.4421 72.6118 27.0117 73.0422 27.0117 73.5732C27.0117 74.1041 27.4421 74.5345 27.9731 74.5345H34.8727C35.4037 74.5345 35.8341 74.1041 35.8341 73.5732C35.8341 73.0422 35.4037 72.6118 34.8727 72.6118Z" fill="#CCCCCC"/>
<path d="M34.7355 61.3496H27.8359C27.3049 61.3496 26.8745 61.78 26.8745 62.311C26.8745 62.8419 27.3049 63.2723 27.8359 63.2723H34.7355C35.2665 63.2723 35.6969 62.8419 35.6969 62.311C35.6969 61.78 35.2665 61.3496 34.7355 61.3496Z" fill="#CCCCCC"/>
</svg>
