<svg width="68" height="45" viewBox="0 0 68 45" fill="none" xmlns="http://www.w3.org/2000/svg">
<path d="M1.55103 9.3757L28.5577 6.2041L55.5643 9.3757V45.0001H1.55103V9.3757Z" fill="#F2F2F2"/>
<path d="M1.60103 44.9501V9.42017L28.5577 6.25445L55.5143 9.42017V44.9501H1.60103Z" stroke="black" stroke-opacity="0.8" stroke-width="0.1"/>
<path d="M29.8391 18.3154C30.8698 18.3154 31.8904 18.5184 32.8427 18.9129C33.795 19.3073 34.6603 19.8855 35.3891 20.6143C36.1179 21.3432 36.6961 22.2084 37.0905 23.1607C37.485 24.113 37.688 25.1336 37.688 26.1643V44.9697H21.9902V26.1643C21.9902 25.1336 22.1932 24.113 22.5876 23.1607C22.9821 22.2084 23.5602 21.3432 24.2891 20.6143C25.0179 19.8855 25.8832 19.3073 26.8354 18.9129C27.7877 18.5184 28.8083 18.3154 29.8391 18.3154Z" fill="#052B4E"/>
<path d="M27.116 27.752H25.7064V32.4293H27.116V27.752Z" fill="white"/>
<path d="M32.1777 32.8137H27.5004V37.0425H32.1777V32.8137Z" fill="white"/>
<path d="M32.1777 27.752H27.5004V32.4293H32.1777V27.752Z" fill="white"/>
<path d="M32.5621 27.3675H33.9717V27.2713C33.9722 26.6828 33.8467 26.101 33.6036 25.565C33.3604 25.029 33.0053 24.5513 32.5621 24.1641V27.3675Z" fill="white"/>
<path d="M27.5004 27.3675H32.1777V23.8644C31.4899 23.3907 30.6742 23.1375 29.8391 23.1387C29.0039 23.1375 28.1882 23.3907 27.5004 23.8644V27.3675Z" fill="white"/>
<path d="M27.116 32.8137H25.7064V36.0173C25.7064 36.2892 25.8144 36.55 26.0066 36.7422C26.1989 36.9345 26.4596 37.0425 26.7315 37.0425H27.116V32.8137Z" fill="white"/>
<path d="M32.5621 32.8137V37.0425H32.9466C33.2185 37.0425 33.4792 36.9345 33.6715 36.7422C33.8637 36.55 33.9717 36.2892 33.9717 36.0173V32.8137H32.5621Z" fill="white"/>
<path d="M27.116 27.3677V24.1643C26.6728 24.5516 26.3177 25.0293 26.0745 25.5652C25.8314 26.1012 25.7059 26.683 25.7064 27.2716V27.3677H27.116Z" fill="white"/>
<path d="M33.9717 27.752H32.5621V32.4293H33.9717V27.752Z" fill="white"/>
<path d="M36.5667 33.9672C37.0267 33.9672 37.3997 33.5942 37.3997 33.1342C37.3997 32.6742 37.0267 32.3013 36.5667 32.3013C36.1067 32.3013 35.7338 32.6742 35.7338 33.1342C35.7338 33.5942 36.1067 33.9672 36.5667 33.9672Z" fill="#F2F2F2"/>
<path d="M10.3069 25.1401H9.20056V28.8112H10.3069V25.1401Z" fill="#473838"/>
<path d="M14.2799 25.1401H10.6088V28.8112H14.2799V25.1401Z" fill="#473838"/>
<path d="M15.6879 25.1401H14.5815V28.8112H15.6879V25.1401Z" fill="#473838"/>
<path d="M14.5815 24.8383H15.6879V24.7628C15.6883 24.3009 15.5898 23.8442 15.3989 23.4235C15.2081 23.0029 14.9294 22.6279 14.5815 22.324V24.8383Z" fill="#473838"/>
<path d="M14.2799 29.1128H10.6088V32.4318H14.2799V29.1128Z" fill="#473838"/>
<path d="M10.3069 29.1128H9.20056V31.6272C9.20056 31.8406 9.28534 32.0453 9.43623 32.1962C9.58713 32.3471 9.79179 32.4318 10.0052 32.4318H10.3069L10.3069 29.1128Z" fill="#473838"/>
<path d="M14.5815 29.1128V32.4318H14.8833C14.9889 32.4319 15.0936 32.411 15.1912 32.3706C15.2888 32.3302 15.3775 32.2709 15.4522 32.1962C15.527 32.1215 15.5862 32.0328 15.6267 31.9351C15.6671 31.8375 15.6879 31.7329 15.6879 31.6272V29.1128H14.5815Z" fill="#473838"/>
<path d="M10.3069 24.8383V22.324C9.95909 22.6279 9.68037 23.0029 9.48954 23.4235C9.2987 23.8442 9.20017 24.3009 9.20056 24.7628V24.8383H10.3069Z" fill="#473838"/>
<path d="M10.6088 24.8384H14.2799V22.0889C13.74 21.7171 13.0998 21.5184 12.4443 21.5193C11.7888 21.5184 11.1486 21.7171 10.6088 22.0889V24.8384Z" fill="#473838"/>
<path d="M17.1329 32.8332H7.7791C7.7191 32.8331 7.66158 32.8092 7.61915 32.7668C7.57672 32.7244 7.55286 32.6669 7.5528 32.6069V32.0034C7.55286 31.9434 7.57673 31.8859 7.61915 31.8435C7.66158 31.801 7.7191 31.7772 7.7791 31.7771H17.1329C17.1929 31.7772 17.2504 31.801 17.2928 31.8435C17.3352 31.8859 17.3591 31.9434 17.3592 32.0034V32.6069C17.3591 32.6669 17.3352 32.7244 17.2928 32.7668C17.2504 32.8092 17.1929 32.8331 17.1329 32.8332Z" fill="#052B4E"/>
<path d="M45.0984 25.1401H43.9921V28.8112H45.0984V25.1401Z" fill="#473838"/>
<path d="M49.0713 25.1401H45.4001V28.8112H49.0713V25.1401Z" fill="#473838"/>
<path d="M50.4793 25.1401H49.373V28.8112H50.4793V25.1401Z" fill="#473838"/>
<path d="M49.373 24.8383H50.4793V24.7628C50.4797 24.3009 50.3812 23.8442 50.1904 23.4235C49.9995 23.0029 49.7208 22.6279 49.373 22.324V24.8383Z" fill="#473838"/>
<path d="M49.0713 29.1128H45.4001V32.4318H49.0713V29.1128Z" fill="#473838"/>
<path d="M45.0984 29.1128H43.9921V31.6272C43.9921 31.8406 44.0768 32.0453 44.2277 32.1962C44.3786 32.3471 44.5833 32.4318 44.7967 32.4318H45.0984L45.0984 29.1128Z" fill="#473838"/>
<path d="M49.373 29.1128V32.4318H49.6747C49.7804 32.4319 49.885 32.411 49.9826 32.3706C50.0803 32.3302 50.169 32.2709 50.2437 32.1962C50.3184 32.1215 50.3777 32.0328 50.4181 31.9351C50.4585 31.8375 50.4793 31.7329 50.4793 31.6272V29.1128H49.373Z" fill="#473838"/>
<path d="M45.0984 24.8383V22.324C44.7506 22.6279 44.4719 23.0029 44.281 23.4235C44.0902 23.8442 43.9917 24.3009 43.9921 24.7628V24.8383H45.0984Z" fill="#473838"/>
<path d="M45.4001 24.8384H49.0713V22.0889C48.5314 21.7171 47.8912 21.5184 47.2357 21.5193C46.5802 21.5184 45.94 21.7171 45.4001 22.0889V24.8384Z" fill="#473838"/>
<path d="M51.9243 32.8332H42.5705C42.5105 32.8331 42.453 32.8092 42.4106 32.7668C42.3682 32.7244 42.3443 32.6669 42.3442 32.6069V32.0034C42.3443 31.9434 42.3682 31.8859 42.4106 31.8435C42.453 31.801 42.5105 31.7772 42.5705 31.7771H51.9243C51.9843 31.7772 52.0418 31.801 52.0843 31.8435C52.1267 31.8859 52.1506 31.9434 52.1506 32.0034V32.6069C52.1506 32.6669 52.1267 32.7244 52.0843 32.7668C52.0418 32.8092 51.9843 32.8331 51.9243 32.8332Z" fill="#052B4E"/>
<path d="M2.14784 12.408C1.60794 12.4076 1.08796 12.2129 0.691298 11.8626C0.294633 11.5123 0.0503263 11.0321 0.00695185 10.5174C-0.0364226 10.0027 0.124311 9.49129 0.457197 9.08476C0.790083 8.67823 1.27074 8.4064 1.8036 8.32332L28.1609 0.0409199C28.5034 -0.0132295 28.8528 -0.0136396 29.1954 0.0397059L55.5878 8.32468C56.1498 8.41336 56.652 8.71179 56.984 9.15439C57.3161 9.59699 57.4508 10.1476 57.3587 10.6851C57.2665 11.2227 56.955 11.7033 56.4925 12.0213C56.0301 12.3393 55.4545 12.4688 54.8924 12.3811C54.608 12.3423 28.9271 8.83535 28.6929 8.82612C28.4596 8.83535 2.75367 12.3457 2.49404 12.3812C2.37958 12.399 2.2638 12.408 2.14784 12.408Z" fill="#052B4E"/>
<path opacity="0.2" d="M67.157 4.75098C67.157 4.78743 67.1425 4.82239 67.1167 4.84817C67.0909 4.87395 67.056 4.88843 67.0195 4.88843C66.9831 4.88843 66.9481 4.87395 66.9223 4.84817C66.8966 4.82239 66.8821 4.78743 66.8821 4.75098" fill="black"/>
<path d="M49.8984 42.0211L49.7595 41.9986L50.9562 32.8784L51.0951 32.9009L49.8984 42.0211Z" fill="#3F3D56"/>
<path d="M52.4673 39.6994L40.5001 39.7812L40.5011 39.922L52.4682 39.8402L52.4673 39.6994Z" fill="#3F3D56"/>
<path d="M59.2819 42.0485L56.4641 40.0555C57.4145 39.1297 58.2788 37.8115 59.1055 36.321L61.9233 38.3141C60.7973 39.5928 59.8435 40.8478 59.2819 42.0485Z" fill="#473838"/>
<path d="M59.2828 39.9265C59.7421 39.9265 60.1144 39.5542 60.1144 39.0949C60.1144 38.6355 59.7421 38.2632 59.2828 38.2632C58.8235 38.2632 58.4511 38.6355 58.4511 39.0949C58.4511 39.5542 58.8235 39.9265 59.2828 39.9265Z" fill="#FFCE58"/>
<path d="M45.9989 34.1963C45.8094 33.9191 45.7126 33.5891 45.7222 33.2535C45.7224 33.2458 45.7199 33.2382 45.7151 33.2321C45.7103 33.226 45.7036 33.2217 45.6961 33.22V33.1614H45.3694V33.2192H45.3649C45.3605 33.2192 45.3561 33.2201 45.3521 33.2218C45.348 33.2235 45.3443 33.226 45.3412 33.2291C45.3381 33.2322 45.3356 33.2359 45.3339 33.24C45.3323 33.244 45.3314 33.2484 45.3314 33.2528C45.3314 33.2536 45.3314 33.2544 45.3315 33.2552C45.3616 33.5977 45.2693 33.9397 45.0708 34.2204C45.0593 34.2368 45.0534 34.2564 45.0541 34.2764L45.0898 35.3813C45.0906 35.4059 45.101 35.4293 45.1187 35.4465C45.1363 35.4637 45.16 35.4734 45.1846 35.4736H45.9235C45.9484 35.4734 45.9723 35.4635 45.99 35.4459C46.0078 35.4284 46.0179 35.4046 46.0184 35.3797L46.0322 34.3069C46.0326 34.2675 46.021 34.2289 45.9989 34.1963Z" fill="#6C63FF"/>
<path d="M45.855 34.4092H45.2312V34.825H45.855V34.4092Z" fill="white"/>
<path d="M55.4774 37.2703H54.8984C54.878 37.2703 54.8585 37.2784 54.8441 37.2927C54.8297 37.3071 54.8216 37.3267 54.8216 37.347V37.6012C54.8216 37.6215 54.8297 37.6411 54.8441 37.6555C54.8585 37.6698 54.878 37.6779 54.8984 37.6779H54.9943V38.0587H55.3814V37.6779H55.4774C55.4977 37.6779 55.5172 37.6698 55.5316 37.6555C55.546 37.6411 55.5541 37.6215 55.5541 37.6012V37.347C55.5541 37.3267 55.546 37.3071 55.5316 37.2927C55.5172 37.2784 55.4977 37.2703 55.4774 37.2703Z" fill="#E6E6E6"/>
<path d="M56.0573 39.596C55.7027 39.0772 55.5214 38.4594 55.5394 37.8312C55.5397 37.8167 55.535 37.8025 55.5261 37.7911C55.5172 37.7797 55.5046 37.7717 55.4904 37.7685V37.6587H54.8789V37.767H54.8705C54.8622 37.767 54.8541 37.7686 54.8465 37.7718C54.8389 37.7749 54.8319 37.7796 54.8261 37.7854C54.8203 37.7912 54.8157 37.7982 54.8126 37.8058C54.8094 37.8134 54.8078 37.8216 54.8078 37.8298C54.8078 37.8313 54.8079 37.8329 54.808 37.8344C54.8562 38.5059 54.6935 39.1082 54.32 39.6411C54.2985 39.6717 54.2875 39.7085 54.2887 39.7459L54.3555 41.8142C54.3571 41.8603 54.3765 41.904 54.4096 41.9362C54.4426 41.9684 54.4869 41.9866 54.533 41.987H55.9162C55.9629 41.9866 56.0076 41.968 56.0407 41.9352C56.0739 41.9023 56.093 41.8578 56.0938 41.8111L56.1196 39.803C56.1203 39.7293 56.0986 39.6571 56.0573 39.596Z" fill="#473838"/>
<path opacity="0.2" d="M55.3567 37.353C55.3567 37.397 55.3392 37.4391 55.3082 37.4701C55.2771 37.5012 55.235 37.5186 55.1911 37.5186C55.1471 37.5186 55.105 37.5012 55.074 37.4701C55.0429 37.4391 55.0255 37.397 55.0255 37.353" fill="black"/>
<path d="M55.8383 40.2832H54.6344C54.6166 40.2832 54.599 40.2871 54.5828 40.2945C54.5666 40.3019 54.5522 40.3128 54.5406 40.3263C54.529 40.3398 54.5204 40.3557 54.5156 40.3729C54.5107 40.39 54.5095 40.408 54.5122 40.4256L54.6942 41.6081H55.7388L55.9598 40.4296C55.9631 40.4117 55.9625 40.3934 55.958 40.3758C55.9534 40.3582 55.945 40.3418 55.9334 40.3279C55.9218 40.3139 55.9073 40.3026 55.8909 40.2949C55.8744 40.2872 55.8565 40.2832 55.8383 40.2832Z" fill="#FFCE58"/>
<path d="M53.8254 42.0451H50.374C50.6153 40.7405 50.5598 39.1651 50.374 37.4709H53.8254C53.6445 39.1651 53.5905 40.7405 53.8254 42.0451Z" fill="#473838"/>
<path d="M52.1204 40.4651C52.5797 40.4651 52.9521 40.0927 52.9521 39.6334C52.9521 39.1741 52.5797 38.8018 52.1204 38.8018C51.6611 38.8018 51.2888 39.1741 51.2888 39.6334C51.2888 40.0927 51.6611 40.4651 52.1204 40.4651Z" fill="#FFCE58"/>
<path d="M39.7083 27.6496L40.4831 27.5792L40.9761 26.3818L40.0957 25.8887L39.7083 27.6496Z" fill="#FFB8B8"/>
<path d="M46.819 30.937C46.8447 30.8728 46.8549 30.8033 46.8485 30.7344C46.8422 30.6655 46.8195 30.599 46.7825 30.5405C46.7454 30.4821 46.695 30.4333 46.6353 30.3981C46.5757 30.3629 46.5086 30.3425 46.4395 30.3383L45.2365 30.2666L45.0593 30.8556L46.2978 31.1957C46.4012 31.2242 46.5116 31.2135 46.6077 31.1658C46.7038 31.1181 46.779 31.0366 46.819 30.937Z" fill="#FFB8B8"/>
<path d="M45.5272 31.2054L45.514 30.1001L42.8418 29.6738L40.7832 27.3128C40.6761 27.1899 40.5281 27.1101 40.3667 27.088C40.2052 27.0659 40.0412 27.1031 39.905 27.1927C39.8226 27.2469 39.7531 27.3186 39.7014 27.4027C39.6497 27.4867 39.6171 27.5811 39.6059 27.6791C39.5947 27.7772 39.6052 27.8765 39.6366 27.97C39.668 28.0636 39.7196 28.1491 39.7876 28.2205L41.486 30.3105L45.5272 31.2054Z" fill="#052B4E"/>
<path d="M39.1095 43.6391H39.8139L41.561 35.74L43.371 38.1802L44.4276 43.463H45.0967L44.9558 37.7928L42.5962 31.7351H40.2717C39.6365 32.8847 39.1382 34.0697 39.7082 35.2922L39.1095 43.6391Z" fill="#052B4E"/>
<path d="M43.9957 44.1189C43.9879 44.1438 43.9856 44.1701 43.9887 44.196C43.9919 44.2219 44.0005 44.2469 44.0141 44.2692C44.0277 44.2915 44.0458 44.3107 44.0674 44.3254C44.0889 44.3402 44.1134 44.3502 44.1391 44.3547L45.8627 44.6606C45.9308 44.6731 46.0011 44.6602 46.0604 44.6244C46.1196 44.5886 46.1638 44.5323 46.1844 44.4662C46.2045 44.4031 46.2017 44.3349 46.1765 44.2736C46.1513 44.2123 46.1053 44.1618 46.0466 44.1311C45.6676 43.9365 45.3414 43.6529 45.096 43.3047C44.9066 43.4811 44.6949 43.4645 44.47 43.3345L44.2315 43.3643L43.9957 44.1189Z" fill="#2F2E41"/>
<path d="M38.7834 44.1189C38.7756 44.1438 38.7732 44.1701 38.7764 44.196C38.7796 44.2219 38.7882 44.2469 38.8018 44.2692C38.8153 44.2915 38.8335 44.3107 38.855 44.3254C38.8766 44.3402 38.901 44.3502 38.9267 44.3547L40.6504 44.6606C40.7185 44.6731 40.7888 44.6602 40.848 44.6244C40.9073 44.5886 40.9514 44.5323 40.9721 44.4662C40.9922 44.4031 40.9894 44.3349 40.9641 44.2736C40.9389 44.2123 40.8929 44.1618 40.8342 44.1311C40.4552 43.9365 40.1291 43.6529 39.8837 43.3047C39.6942 43.4811 39.4825 43.4645 39.2577 43.3345L39.0192 43.3643L38.7834 44.1189Z" fill="#2F2E41"/>
<path d="M40.9938 26.8221C41.5384 26.8221 41.9799 26.3806 41.9799 25.836C41.9799 25.2914 41.5384 24.8499 40.9938 24.8499C40.4491 24.8499 40.0076 25.2914 40.0076 25.836C40.0076 26.3806 40.4491 26.8221 40.9938 26.8221Z" fill="#FFB8B8"/>
<path d="M40.1132 31.9991L42.6842 31.9287L41.9292 29.5523C42.3984 28.8001 41.9262 28.0487 41.2578 27.2974L40.7296 26.9452L39.8843 26.8748C39.5183 27.2664 39.3181 27.7844 39.3255 28.3203C39.3423 29.4679 39.5455 30.7172 40.1132 31.9991Z" fill="#FFCE58"/>
<path d="M46.0202 33.5988C46.0691 33.5498 46.1058 33.49 46.1271 33.4241C46.1483 33.3582 46.1537 33.2882 46.1426 33.2199C46.1315 33.1516 46.1044 33.0868 46.0634 33.0311C46.0224 32.9753 45.9687 32.93 45.9068 32.8991L44.829 32.3599L44.4344 32.8317L45.4392 33.6316C45.5232 33.6984 45.6288 33.732 45.736 33.726C45.8431 33.7199 45.9443 33.6746 46.0202 33.5988Z" fill="#FFB8B8"/>
<path d="M44.7269 33.3375L45.1495 32.3162L42.8605 30.873L41.8967 27.8925C41.8466 27.7374 41.7419 27.6058 41.6022 27.522C41.4624 27.4382 41.297 27.4078 41.1366 27.4366C41.0394 27.4541 40.9473 27.4926 40.8667 27.5496C40.7862 27.6065 40.7191 27.6805 40.6702 27.7662C40.6213 27.8519 40.5919 27.9473 40.584 28.0457C40.576 28.144 40.5898 28.2429 40.6243 28.3354L41.3635 30.925L44.7269 33.3375Z" fill="#052B4E"/>
<path d="M39.3737 25.4483C39.3737 25.832 39.6228 26.4263 39.9372 26.681C40.1486 26.8524 40.4281 26.8452 40.5359 26.6106C40.6464 26.3699 41.0275 25.8042 41.6981 25.4483C42.5921 24.974 41.3811 24.1624 40.5359 24.2861C39.9008 24.3791 39.3737 24.8065 39.3737 25.4483Z" fill="#052B4E"/>
<path d="M39.9724 24.9202C40.3614 24.9202 40.6768 24.6049 40.6768 24.2159C40.6768 23.8268 40.3614 23.5115 39.9724 23.5115C39.5834 23.5115 39.268 23.8268 39.268 24.2159C39.268 24.6049 39.5834 24.9202 39.9724 24.9202Z" fill="#052B4E"/>
<path d="M40.7824 23.9693C40.7823 23.7917 40.7152 23.6207 40.5943 23.4906C40.4735 23.3604 40.3079 23.2808 40.1309 23.2676C40.1484 23.2663 40.1659 23.2649 40.1837 23.2649C40.3705 23.2649 40.5497 23.3391 40.6818 23.4712C40.8139 23.6033 40.8881 23.7825 40.8881 23.9693C40.8881 24.1561 40.8139 24.3352 40.6818 24.4673C40.5497 24.5994 40.3705 24.6737 40.1837 24.6737C40.1659 24.6737 40.1484 24.6723 40.1309 24.671C40.3079 24.6578 40.4735 24.5781 40.5943 24.448C40.7152 24.3178 40.7823 24.1469 40.7824 23.9693Z" fill="#052B4E"/>
<path d="M60.9686 42.3472H50.0036L47.6817 31.3707H45.7001V30.8782H48.0809L50.4029 41.8546H60.9686V42.3472Z" fill="#3F3D56"/>
<path d="M51.6105 44.3526C52.1934 44.3526 52.6659 43.88 52.6659 43.2971C52.6659 42.7142 52.1934 42.2417 51.6105 42.2417C51.0276 42.2417 50.5551 42.7142 50.5551 43.2971C50.5551 43.88 51.0276 44.3526 51.6105 44.3526Z" fill="#3F3D56"/>
<path d="M59.491 44.3526C60.0739 44.3526 60.5465 43.88 60.5465 43.2971C60.5465 42.7142 60.0739 42.2417 59.491 42.2417C58.9081 42.2417 58.4356 42.7142 58.4356 43.2971C58.4356 43.88 58.9081 44.3526 59.491 44.3526Z" fill="#3F3D56"/>
<path d="M60.7687 42.1154H50.1004L48.2181 32.8132H62.5352C62.6082 32.8132 62.6804 32.8291 62.7468 32.8596C62.8131 32.8902 62.8721 32.9348 62.9195 32.9903C62.967 33.0458 63.0019 33.111 63.0218 33.1813C63.0417 33.2516 63.0462 33.3253 63.0348 33.3975L61.2683 41.6881C61.2501 41.8074 61.1896 41.9161 61.0979 41.9946C61.0062 42.073 60.8894 42.1159 60.7687 42.1154ZM50.2163 41.9746H60.7687C60.8558 41.975 60.9401 41.9441 61.0063 41.8875C61.0725 41.8308 61.1161 41.7523 61.1293 41.6663L62.8958 33.3756C62.904 33.3236 62.9008 33.2703 62.8864 33.2196C62.8721 33.1688 62.8469 33.1218 62.8126 33.0817C62.7783 33.0417 62.7358 33.0095 62.6879 32.9874C62.64 32.9654 62.5879 32.9539 62.5352 32.954H48.3889L50.2163 41.9746Z" fill="#3F3D56"/>
<path d="M52.1743 42.0855L50.9416 32.895L51.0804 32.8721L52.3131 42.0626L52.1743 42.0855Z" fill="#3F3D56"/>
<path d="M55.7629 32.8835H55.6222V42.0741H55.7629V32.8835Z" fill="#3F3D56"/>
<path d="M48.9369 35.3463L48.9365 35.4871L62.5584 35.52L62.5588 35.3793L48.9369 35.3463Z" fill="#3F3D56"/>
<path d="M45.9112 31.4762C46.3386 31.4762 46.6852 31.2872 46.6852 31.054C46.6852 30.8208 46.3386 30.6318 45.9112 30.6318C45.4837 30.6318 45.1372 30.8208 45.1372 31.054C45.1372 31.2872 45.4837 31.4762 45.9112 31.4762Z" fill="#3F3D56"/>
<path d="M22.473 14.8869C22.287 14.8869 22.131 14.8599 22.005 14.8059C21.881 14.7499 21.786 14.6779 21.72 14.5899C21.656 14.4999 21.622 14.4059 21.618 14.3079C21.618 14.2899 21.624 14.2749 21.636 14.2629C21.648 14.2509 21.663 14.2449 21.681 14.2449H21.948C21.974 14.2449 21.993 14.2509 22.005 14.2629C22.019 14.2729 22.031 14.2859 22.041 14.3019C22.053 14.3399 22.076 14.3779 22.11 14.4159C22.144 14.4519 22.19 14.4819 22.248 14.5059C22.308 14.5299 22.383 14.5419 22.473 14.5419C22.617 14.5419 22.724 14.5179 22.794 14.4699C22.866 14.4219 22.902 14.3569 22.902 14.2749C22.902 14.2169 22.883 14.1709 22.845 14.1369C22.807 14.1009 22.748 14.0689 22.668 14.0409C22.59 14.0109 22.486 13.9799 22.356 13.9479C22.206 13.9119 22.08 13.8689 21.978 13.8189C21.878 13.7669 21.802 13.7019 21.75 13.6239C21.7 13.5459 21.675 13.4469 21.675 13.3269C21.675 13.2109 21.706 13.1079 21.768 13.0179C21.832 12.9279 21.922 12.8569 22.038 12.8049C22.156 12.7529 22.296 12.7269 22.458 12.7269C22.588 12.7269 22.703 12.7449 22.803 12.7809C22.903 12.8149 22.986 12.8609 23.052 12.9189C23.118 12.9749 23.168 13.0359 23.202 13.1019C23.238 13.1659 23.257 13.2289 23.259 13.2909C23.259 13.3069 23.253 13.3219 23.241 13.3359C23.231 13.3479 23.216 13.3539 23.196 13.3539H22.917C22.901 13.3539 22.885 13.3499 22.869 13.3419C22.853 13.3339 22.84 13.3189 22.83 13.2969C22.818 13.2349 22.779 13.1819 22.713 13.1379C22.647 13.0939 22.562 13.0719 22.458 13.0719C22.35 13.0719 22.263 13.0919 22.197 13.1319C22.131 13.1719 22.098 13.2339 22.098 13.3179C22.098 13.3739 22.114 13.4209 22.146 13.4589C22.18 13.4949 22.233 13.5269 22.305 13.5549C22.379 13.5829 22.476 13.6129 22.596 13.6449C22.766 13.6829 22.905 13.7269 23.013 13.7769C23.121 13.8269 23.2 13.8909 23.25 13.9689C23.3 14.0449 23.325 14.1419 23.325 14.2599C23.325 14.3919 23.289 14.5049 23.217 14.5989C23.147 14.6909 23.048 14.7619 22.92 14.8119C22.792 14.8619 22.643 14.8869 22.473 14.8869ZM24.3378 14.8569C24.2178 14.8569 24.1168 14.8359 24.0348 14.7939C23.9528 14.7519 23.8918 14.6899 23.8518 14.6079C23.8118 14.5239 23.7918 14.4199 23.7918 14.2959V13.6149H23.5548C23.5348 13.6149 23.5178 13.6079 23.5038 13.5939C23.4898 13.5799 23.4828 13.5629 23.4828 13.5429V13.3689C23.4828 13.3489 23.4898 13.3319 23.5038 13.3179C23.5178 13.3039 23.5348 13.2969 23.5548 13.2969H23.7918V12.7989C23.7918 12.7789 23.7978 12.7619 23.8098 12.7479C23.8238 12.7339 23.8418 12.7269 23.8638 12.7269H24.1068C24.1268 12.7269 24.1438 12.7339 24.1578 12.7479C24.1718 12.7619 24.1788 12.7789 24.1788 12.7989V13.2969H24.5538C24.5738 13.2969 24.5908 13.3039 24.6048 13.3179C24.6188 13.3319 24.6258 13.3489 24.6258 13.3689V13.5429C24.6258 13.5629 24.6188 13.5799 24.6048 13.5939C24.5908 13.6079 24.5738 13.6149 24.5538 13.6149H24.1788V14.2659C24.1788 14.3479 24.1928 14.4119 24.2208 14.4579C24.2508 14.5039 24.3018 14.5269 24.3738 14.5269H24.5808C24.6008 14.5269 24.6178 14.5339 24.6318 14.5479C24.6458 14.5619 24.6528 14.5789 24.6528 14.5989V14.7849C24.6528 14.8049 24.6458 14.8219 24.6318 14.8359C24.6178 14.8499 24.6008 14.8569 24.5808 14.8569H24.3378ZM25.6089 14.8869C25.4489 14.8869 25.3139 14.8589 25.2039 14.8029C25.0959 14.7469 25.0129 14.6679 24.9549 14.5659C24.8989 14.4639 24.8669 14.3449 24.8589 14.2089C24.8569 14.1729 24.8559 14.1289 24.8559 14.0769C24.8559 14.0249 24.8569 13.9809 24.8589 13.9449C24.8669 13.8069 24.8999 13.6879 24.9579 13.5879C25.0179 13.4859 25.1019 13.4069 25.2099 13.3509C25.3199 13.2949 25.4529 13.2669 25.6089 13.2669C25.7649 13.2669 25.8969 13.2949 26.0049 13.3509C26.1149 13.4069 26.1989 13.4859 26.2569 13.5879C26.3169 13.6879 26.3509 13.8069 26.3589 13.9449C26.3609 13.9809 26.3619 14.0249 26.3619 14.0769C26.3619 14.1289 26.3609 14.1729 26.3589 14.2089C26.3509 14.3449 26.3179 14.4639 26.2599 14.5659C26.2039 14.6679 26.1209 14.7469 26.0109 14.8029C25.9029 14.8589 25.7689 14.8869 25.6089 14.8869ZM25.6089 14.5899C25.7149 14.5899 25.7969 14.5569 25.8549 14.4909C25.9129 14.4229 25.9449 14.3239 25.9509 14.1939C25.9529 14.1639 25.9539 14.1249 25.9539 14.0769C25.9539 14.0289 25.9529 13.9899 25.9509 13.9599C25.9449 13.8319 25.9129 13.7339 25.8549 13.6659C25.7969 13.5979 25.7149 13.5639 25.6089 13.5639C25.5029 13.5639 25.4209 13.5979 25.3629 13.6659C25.3049 13.7339 25.2729 13.8319 25.2669 13.9599C25.2649 13.9899 25.2639 14.0289 25.2639 14.0769C25.2639 14.1249 25.2649 14.1639 25.2669 14.1939C25.2729 14.3239 25.3049 14.4229 25.3629 14.4909C25.4209 14.5569 25.5029 14.5899 25.6089 14.5899ZM26.7693 15.4269C26.7493 15.4269 26.7323 15.4199 26.7183 15.4059C26.7043 15.3919 26.6973 15.3749 26.6973 15.3549V13.3689C26.6973 13.3489 26.7043 13.3319 26.7183 13.3179C26.7323 13.3039 26.7493 13.2969 26.7693 13.2969H27.0063C27.0283 13.2969 27.0453 13.3039 27.0573 13.3179C27.0713 13.3319 27.0783 13.3489 27.0783 13.3689V13.4889C27.1263 13.4249 27.1893 13.3719 27.2673 13.3299C27.3453 13.2879 27.4423 13.2669 27.5583 13.2669C27.6643 13.2669 27.7563 13.2839 27.8343 13.3179C27.9123 13.3519 27.9773 13.4009 28.0293 13.4649C28.0813 13.5269 28.1213 13.6009 28.1493 13.6869C28.1773 13.7729 28.1933 13.8679 28.1973 13.9719C28.1993 14.0059 28.2003 14.0409 28.2003 14.0769C28.2003 14.1129 28.1993 14.1489 28.1973 14.1849C28.1953 14.2849 28.1803 14.3779 28.1523 14.4639C28.1243 14.5479 28.0833 14.6219 28.0293 14.6859C27.9773 14.7479 27.9123 14.7969 27.8343 14.8329C27.7563 14.8689 27.6643 14.8869 27.5583 14.8869C27.4503 14.8869 27.3583 14.8679 27.2823 14.8299C27.2063 14.7899 27.1443 14.7379 27.0963 14.6739V15.3549C27.0963 15.3749 27.0893 15.3919 27.0753 15.4059C27.0633 15.4199 27.0463 15.4269 27.0243 15.4269H26.7693ZM27.4473 14.5659C27.5333 14.5659 27.6003 14.5479 27.6483 14.5119C27.6963 14.4739 27.7303 14.4249 27.7503 14.3649C27.7723 14.3049 27.7853 14.2389 27.7893 14.1669C27.7933 14.1069 27.7933 14.0469 27.7893 13.9869C27.7853 13.9149 27.7723 13.8489 27.7503 13.7889C27.7303 13.7289 27.6963 13.6809 27.6483 13.6449C27.6003 13.6069 27.5333 13.5879 27.4473 13.5879C27.3653 13.5879 27.2983 13.6069 27.2463 13.6449C27.1963 13.6829 27.1593 13.7319 27.1353 13.7919C27.1133 13.8499 27.1003 13.9099 27.0963 13.9719C27.0943 14.0079 27.0933 14.0459 27.0933 14.0859C27.0933 14.1259 27.0943 14.1649 27.0963 14.2029C27.0983 14.2629 27.1123 14.3209 27.1383 14.3769C27.1643 14.4309 27.2023 14.4759 27.2523 14.5119C27.3023 14.5479 27.3673 14.5659 27.4473 14.5659ZM29.2181 14.8869C29.0721 14.8869 28.9441 14.8629 28.8341 14.8149C28.7241 14.7649 28.6391 14.6949 28.5791 14.6049C28.5191 14.5129 28.4891 14.4059 28.4891 14.2839C28.4891 14.1959 28.5071 14.1179 28.5431 14.0499C28.5791 13.9799 28.6281 13.9179 28.6901 13.8639C28.7541 13.8079 28.8251 13.7569 28.9031 13.7109C28.8171 13.6209 28.7561 13.5389 28.7201 13.4649C28.6841 13.3909 28.6661 13.3159 28.6661 13.2399C28.6661 13.1479 28.6901 13.0639 28.7381 12.9879C28.7861 12.9099 28.8551 12.8469 28.9451 12.7989C29.0351 12.7509 29.1451 12.7269 29.2751 12.7269C29.3971 12.7269 29.5011 12.7499 29.5871 12.7959C29.6751 12.8419 29.7431 12.9039 29.7911 12.9819C29.8391 13.0579 29.8631 13.1419 29.8631 13.2339C29.8631 13.3179 29.8431 13.3929 29.8031 13.4589C29.7651 13.5229 29.7131 13.5809 29.6471 13.6329C29.5811 13.6849 29.5071 13.7339 29.4251 13.7799L29.8571 14.2089C29.8811 14.1689 29.9081 14.1169 29.9381 14.0529C29.9681 13.9869 29.9941 13.9059 30.0161 13.8099C30.0221 13.7759 30.0431 13.7589 30.0791 13.7589H30.2981C30.3161 13.7589 30.3301 13.7649 30.3401 13.7769C30.3521 13.7869 30.3581 13.8009 30.3581 13.8189C30.3561 13.8609 30.3471 13.9069 30.3311 13.9569C30.3171 14.0069 30.2971 14.0599 30.2711 14.1159C30.2471 14.1719 30.2191 14.2269 30.1871 14.2809C30.1551 14.3349 30.1211 14.3859 30.0851 14.4339L30.4031 14.7579C30.4191 14.7719 30.4271 14.7869 30.4271 14.8029C30.4271 14.8189 30.4221 14.8319 30.4121 14.8419C30.4021 14.8519 30.3881 14.8569 30.3701 14.8569H30.0821C30.0621 14.8569 30.0461 14.8539 30.0341 14.8479C30.0221 14.8419 30.0111 14.8349 30.0011 14.8269L29.8361 14.6649C29.7561 14.7349 29.6651 14.7899 29.5631 14.8299C29.4631 14.8679 29.3481 14.8869 29.2181 14.8869ZM29.2181 14.5779C29.2881 14.5779 29.3561 14.5649 29.4221 14.5389C29.4881 14.5129 29.5491 14.4739 29.6051 14.4219L29.1251 13.9479C29.0551 13.9859 28.9941 14.0309 28.9421 14.0829C28.8921 14.1349 28.8671 14.1979 28.8671 14.2719C28.8671 14.3359 28.8831 14.3909 28.9151 14.4369C28.9491 14.4809 28.9931 14.5159 29.0471 14.5419C29.1011 14.5659 29.1581 14.5779 29.2181 14.5779ZM29.2151 13.5579C29.2691 13.5279 29.3191 13.4979 29.3651 13.4679C29.4111 13.4379 29.4471 13.4049 29.4731 13.3689C29.5011 13.3309 29.5151 13.2889 29.5151 13.2429C29.5151 13.1749 29.4921 13.1209 29.4461 13.0809C29.4001 13.0409 29.3421 13.0209 29.2721 13.0209C29.2081 13.0209 29.1511 13.0409 29.1011 13.0809C29.0531 13.1189 29.0291 13.1729 29.0291 13.2429C29.0291 13.2729 29.0341 13.3029 29.0441 13.3329C29.0561 13.3629 29.0751 13.3959 29.1011 13.4319C29.1291 13.4659 29.1671 13.5079 29.2151 13.5579ZM31.4554 14.8869C31.2694 14.8869 31.1134 14.8599 30.9874 14.8059C30.8634 14.7499 30.7684 14.6779 30.7024 14.5899C30.6384 14.4999 30.6044 14.4059 30.6004 14.3079C30.6004 14.2899 30.6064 14.2749 30.6184 14.2629C30.6304 14.2509 30.6454 14.2449 30.6634 14.2449H30.9304C30.9564 14.2449 30.9754 14.2509 30.9874 14.2629C31.0014 14.2729 31.0134 14.2859 31.0234 14.3019C31.0354 14.3399 31.0584 14.3779 31.0924 14.4159C31.1264 14.4519 31.1724 14.4819 31.2304 14.5059C31.2904 14.5299 31.3654 14.5419 31.4554 14.5419C31.5994 14.5419 31.7064 14.5179 31.7764 14.4699C31.8484 14.4219 31.8844 14.3569 31.8844 14.2749C31.8844 14.2169 31.8654 14.1709 31.8274 14.1369C31.7894 14.1009 31.7304 14.0689 31.6504 14.0409C31.5724 14.0109 31.4684 13.9799 31.3384 13.9479C31.1884 13.9119 31.0624 13.8689 30.9604 13.8189C30.8604 13.7669 30.7844 13.7019 30.7324 13.6239C30.6824 13.5459 30.6574 13.4469 30.6574 13.3269C30.6574 13.2109 30.6884 13.1079 30.7504 13.0179C30.8144 12.9279 30.9044 12.8569 31.0204 12.8049C31.1384 12.7529 31.2784 12.7269 31.4404 12.7269C31.5704 12.7269 31.6854 12.7449 31.7854 12.7809C31.8854 12.8149 31.9684 12.8609 32.0344 12.9189C32.1004 12.9749 32.1504 13.0359 32.1844 13.1019C32.2204 13.1659 32.2394 13.2289 32.2414 13.2909C32.2414 13.3069 32.2354 13.3219 32.2234 13.3359C32.2134 13.3479 32.1984 13.3539 32.1784 13.3539H31.8994C31.8834 13.3539 31.8674 13.3499 31.8514 13.3419C31.8354 13.3339 31.8224 13.3189 31.8124 13.2969C31.8004 13.2349 31.7614 13.1819 31.6954 13.1379C31.6294 13.0939 31.5444 13.0719 31.4404 13.0719C31.3324 13.0719 31.2454 13.0919 31.1794 13.1319C31.1134 13.1719 31.0804 13.2339 31.0804 13.3179C31.0804 13.3739 31.0964 13.4209 31.1284 13.4589C31.1624 13.4949 31.2154 13.5269 31.2874 13.5549C31.3614 13.5829 31.4584 13.6129 31.5784 13.6449C31.7484 13.6829 31.8874 13.7269 31.9954 13.7769C32.1034 13.8269 32.1824 13.8909 32.2324 13.9689C32.2824 14.0449 32.3074 14.1419 32.3074 14.2599C32.3074 14.3919 32.2714 14.5049 32.1994 14.5989C32.1294 14.6909 32.0304 14.7619 31.9024 14.8119C31.7744 14.8619 31.6254 14.8869 31.4554 14.8869ZM32.6902 14.8569C32.6702 14.8569 32.6532 14.8499 32.6392 14.8359C32.6252 14.8219 32.6182 14.8049 32.6182 14.7849V12.7989C32.6182 12.7789 32.6252 12.7619 32.6392 12.7479C32.6532 12.7339 32.6702 12.7269 32.6902 12.7269H32.9572C32.9792 12.7269 32.9962 12.7339 33.0082 12.7479C33.0222 12.7619 33.0292 12.7789 33.0292 12.7989V13.4829C33.0832 13.4189 33.1492 13.3669 33.2272 13.3269C33.3052 13.2869 33.4012 13.2669 33.5152 13.2669C33.6372 13.2669 33.7432 13.2949 33.8332 13.3509C33.9252 13.4049 33.9962 13.4819 34.0462 13.5819C34.0962 13.6819 34.1212 13.8019 34.1212 13.9419V14.7849C34.1212 14.8049 34.1142 14.8219 34.1002 14.8359C34.0862 14.8499 34.0692 14.8569 34.0492 14.8569H33.7792C33.7592 14.8569 33.7422 14.8499 33.7282 14.8359C33.7142 14.8219 33.7072 14.8049 33.7072 14.7849V13.9599C33.7072 13.8439 33.6782 13.7529 33.6202 13.6869C33.5642 13.6209 33.4822 13.5879 33.3742 13.5879C33.2702 13.5879 33.1862 13.6209 33.1222 13.6869C33.0602 13.7529 33.0292 13.8439 33.0292 13.9599V14.7849C33.0292 14.8049 33.0222 14.8219 33.0082 14.8359C32.9962 14.8499 32.9792 14.8569 32.9572 14.8569H32.6902ZM35.192 14.8869C35.032 14.8869 34.897 14.8589 34.787 14.8029C34.679 14.7469 34.596 14.6679 34.538 14.5659C34.482 14.4639 34.45 14.3449 34.442 14.2089C34.44 14.1729 34.439 14.1289 34.439 14.0769C34.439 14.0249 34.44 13.9809 34.442 13.9449C34.45 13.8069 34.483 13.6879 34.541 13.5879C34.601 13.4859 34.685 13.4069 34.793 13.3509C34.903 13.2949 35.036 13.2669 35.192 13.2669C35.348 13.2669 35.48 13.2949 35.588 13.3509C35.698 13.4069 35.782 13.4859 35.84 13.5879C35.9 13.6879 35.934 13.8069 35.942 13.9449C35.944 13.9809 35.945 14.0249 35.945 14.0769C35.945 14.1289 35.944 14.1729 35.942 14.2089C35.934 14.3449 35.901 14.4639 35.843 14.5659C35.787 14.6679 35.704 14.7469 35.594 14.8029C35.486 14.8589 35.352 14.8869 35.192 14.8869ZM35.192 14.5899C35.298 14.5899 35.38 14.5569 35.438 14.4909C35.496 14.4229 35.528 14.3239 35.534 14.1939C35.536 14.1639 35.537 14.1249 35.537 14.0769C35.537 14.0289 35.536 13.9899 35.534 13.9599C35.528 13.8319 35.496 13.7339 35.438 13.6659C35.38 13.5979 35.298 13.5639 35.192 13.5639C35.086 13.5639 35.004 13.5979 34.946 13.6659C34.888 13.7339 34.856 13.8319 34.85 13.9599C34.848 13.9899 34.847 14.0289 34.847 14.0769C34.847 14.1249 34.848 14.1639 34.85 14.1939C34.856 14.3239 34.888 14.4229 34.946 14.4909C35.004 14.5569 35.086 14.5899 35.192 14.5899ZM36.3523 15.4269C36.3323 15.4269 36.3153 15.4199 36.3013 15.4059C36.2873 15.3919 36.2803 15.3749 36.2803 15.3549V13.3689C36.2803 13.3489 36.2873 13.3319 36.3013 13.3179C36.3153 13.3039 36.3323 13.2969 36.3523 13.2969H36.5893C36.6113 13.2969 36.6283 13.3039 36.6403 13.3179C36.6543 13.3319 36.6613 13.3489 36.6613 13.3689V13.4889C36.7093 13.4249 36.7723 13.3719 36.8503 13.3299C36.9283 13.2879 37.0253 13.2669 37.1413 13.2669C37.2473 13.2669 37.3393 13.2839 37.4173 13.3179C37.4953 13.3519 37.5603 13.4009 37.6123 13.4649C37.6643 13.5269 37.7043 13.6009 37.7323 13.6869C37.7603 13.7729 37.7763 13.8679 37.7803 13.9719C37.7823 14.0059 37.7833 14.0409 37.7833 14.0769C37.7833 14.1129 37.7823 14.1489 37.7803 14.1849C37.7783 14.2849 37.7633 14.3779 37.7353 14.4639C37.7073 14.5479 37.6663 14.6219 37.6123 14.6859C37.5603 14.7479 37.4953 14.7969 37.4173 14.8329C37.3393 14.8689 37.2473 14.8869 37.1413 14.8869C37.0333 14.8869 36.9413 14.8679 36.8653 14.8299C36.7893 14.7899 36.7273 14.7379 36.6793 14.6739V15.3549C36.6793 15.3749 36.6723 15.3919 36.6583 15.4059C36.6463 15.4199 36.6293 15.4269 36.6073 15.4269H36.3523ZM37.0303 14.5659C37.1163 14.5659 37.1833 14.5479 37.2313 14.5119C37.2793 14.4739 37.3133 14.4249 37.3333 14.3649C37.3553 14.3049 37.3683 14.2389 37.3723 14.1669C37.3763 14.1069 37.3763 14.0469 37.3723 13.9869C37.3683 13.9149 37.3553 13.8489 37.3333 13.7889C37.3133 13.7289 37.2793 13.6809 37.2313 13.6449C37.1833 13.6069 37.1163 13.5879 37.0303 13.5879C36.9483 13.5879 36.8813 13.6069 36.8293 13.6449C36.7793 13.6829 36.7423 13.7319 36.7183 13.7919C36.6963 13.8499 36.6833 13.9099 36.6793 13.9719C36.6773 14.0079 36.6763 14.0459 36.6763 14.0859C36.6763 14.1259 36.6773 14.1649 36.6793 14.2029C36.6813 14.2629 36.6953 14.3209 36.7213 14.3769C36.7473 14.4309 36.7853 14.4759 36.8353 14.5119C36.8853 14.5479 36.9503 14.5659 37.0303 14.5659Z" fill="#052B4E"/>
</svg>
