<svg width="69" height="57" viewBox="0 0 69 57" fill="none" xmlns="http://www.w3.org/2000/svg">
<path d="M21.664 17.6219L18.7722 12.075C18.7722 12.075 14.4554 13.4154 8.92702 16.6017C8.36376 16.9263 7.80839 17.2619 7.26672 17.6022C3.24049 20.1331 0 22.8895 0 22.8895L2.89432 28.4382C7.38211 37.047 16.3946 41.1928 19.5974 39.1694L20.4395 38.6842C20.7205 38.5184 20.9796 38.3146 21.2103 38.0781C24.1545 35.1066 25.8027 25.5618 21.664 17.6219ZM14.1042 23.3966C14.9737 22.0987 16.2148 21.1267 17.6465 20.6222C18.7298 20.2409 19.5496 20.2531 19.5841 20.254C19.6813 20.2559 19.7738 20.2983 19.8412 20.3719C19.9087 20.4455 19.9455 20.5443 19.9437 20.6465C19.9419 20.7486 19.9016 20.8459 19.8315 20.9168C19.7615 20.9877 19.6676 21.0265 19.5704 21.0246H19.5621C19.4766 21.0246 18.7651 21.0368 17.8511 21.3627C16.5644 21.8226 15.5047 22.6574 14.702 23.8434C14.674 23.8847 14.6387 23.9197 14.5979 23.9466C14.5571 23.9735 14.5116 23.9917 14.4641 24.0001C14.4167 24.0085 14.3681 24.0071 14.3211 23.9957C14.2742 23.9844 14.2298 23.9635 14.1906 23.9342C14.1513 23.9048 14.118 23.8676 14.0924 23.8247C14.0668 23.7819 14.0495 23.7341 14.0415 23.6842C14.0335 23.6342 14.0349 23.5832 14.0457 23.5338C14.0564 23.4845 14.0763 23.4378 14.1042 23.3966ZM9.31553 26.2804C8.02879 26.7404 6.96869 27.5751 6.16594 28.7611C6.10858 28.8419 6.02344 28.8958 5.92872 28.9114C5.834 28.9271 5.73723 28.9031 5.65912 28.8446C5.58101 28.7862 5.52776 28.6979 5.51078 28.5987C5.49379 28.4995 5.51441 28.3973 5.56823 28.3138C6.438 27.0161 7.67913 26.0441 9.1109 25.5395C9.37088 25.4482 9.63556 25.3724 9.90369 25.3126C10.572 25.1638 11.0244 25.1708 11.048 25.1712C11.1435 25.1759 11.2334 25.2195 11.2987 25.2928C11.364 25.3661 11.3996 25.4633 11.3978 25.5637C11.396 25.6642 11.3571 25.7599 11.2892 25.8306C11.2213 25.9013 11.1299 25.9413 11.0344 25.9423H11.0298C10.7791 25.948 10.5293 25.9747 10.2827 26.0221C9.95438 26.0816 9.63102 26.168 9.31553 26.2804ZM14.406 35.8078C14.3506 35.8469 14.2855 35.8679 14.2188 35.8682C14.1521 35.8685 14.0868 35.8481 14.0311 35.8096C13.9753 35.7711 13.9317 35.7161 13.9056 35.6516C13.8794 35.587 13.872 35.5158 13.8843 35.4469C14.0864 34.2775 14.4679 33.3201 15.0332 32.5997C15.3467 32.1974 15.7308 31.8621 16.1647 31.6122C17.8349 30.6523 19.616 31.2195 20.5416 31.6502C20.6013 31.6781 20.652 31.7237 20.6875 31.7812C20.7231 31.8388 20.742 31.906 20.742 31.9746C20.742 32.0433 20.7231 32.1104 20.6875 32.168C20.652 32.2256 20.6013 32.2711 20.5416 32.2991C19.7688 32.6638 18.4418 33.3079 17.3659 33.9171C17.1364 34.048 16.9131 34.1789 16.6964 34.3098C15.7434 34.8796 14.9315 35.4347 14.406 35.8078Z" fill="#052B4E"/>
<path d="M59.8014 23.8768C59.219 23.5298 58.631 23.1962 58.0473 22.8776C53.701 20.5055 49.5881 18.9751 49.5881 18.9751L46.3918 24.5255C41.4304 33.1394 42.7409 43.5707 46.2055 45.4511L47.078 45.9703C47.3719 46.1412 47.6865 46.2723 48.0138 46.3603C52.1519 47.5104 61.2288 44.0357 65.8041 36.0923L69 30.5401C69 30.5401 65.5201 27.2845 59.8014 23.8768ZM47.5269 27.2757C47.535 27.1721 47.5832 27.0759 47.6609 27.0084C47.7386 26.9409 47.8394 26.9074 47.9413 26.9154C49.8203 27.0574 51.5767 27.9181 52.8569 29.3243C53.345 29.8599 53.5824 30.2765 53.5959 30.3005C53.6443 30.3905 53.6561 30.4963 53.6287 30.595C53.6014 30.6938 53.537 30.7778 53.4495 30.8289C53.362 30.8799 53.2583 30.8941 53.1607 30.8683C53.063 30.8426 52.9792 30.7789 52.9271 30.6909C52.8354 30.5389 52.7343 30.3929 52.6244 30.2539C52.5733 30.1882 52.5158 30.1163 52.4499 30.0409C52.2224 29.7716 51.9744 29.5209 51.7083 29.291C50.6177 28.3508 49.3312 27.8148 47.8803 27.6981C47.8298 27.6941 47.7806 27.68 47.7355 27.6567C47.6904 27.6333 47.6502 27.6012 47.6174 27.562C47.5845 27.5228 47.5595 27.4775 47.544 27.4285C47.5284 27.3795 47.5224 27.3279 47.5265 27.2766L47.5269 27.2757ZM53.9868 40.9483C52.2483 41.6139 50.7176 41.6054 49.4664 40.8596C49.2246 40.7156 48.9975 40.5475 48.7885 40.3577C47.6085 39.2861 47.246 37.7438 47.1356 36.8253C47.1274 36.756 47.1392 36.6858 47.1694 36.6231C47.1996 36.5605 47.2469 36.508 47.3058 36.4721C47.3646 36.4363 47.4324 36.4185 47.501 36.4209C47.5696 36.4233 47.636 36.4459 47.6922 36.4859C48.1285 36.7965 48.7514 37.2309 49.4193 37.675C49.8739 37.9772 50.3476 38.2825 50.7948 38.5536C52.0647 39.323 53.2748 39.9291 54.0147 40.281C54.0784 40.3111 54.1318 40.3598 54.1683 40.4209C54.2048 40.482 54.2227 40.5527 54.2197 40.6241C54.2167 40.6955 54.193 40.7644 54.1515 40.8221C54.1101 40.8798 54.0527 40.9237 53.9868 40.9483ZM62.2797 36.0941C62.1913 36.1449 62.0867 36.1583 61.9887 36.1312C61.8907 36.1041 61.8072 36.0388 61.7562 35.9494C61.6646 35.7973 61.5635 35.6513 61.4535 35.5124C61.1802 35.1613 60.8733 34.8388 60.5374 34.5495C59.4468 33.6093 58.1598 33.0737 56.7089 32.9565C56.6508 32.9523 56.5945 32.9344 56.5444 32.9042C56.469 32.8595 56.4107 32.79 56.3792 32.7071C56.3477 32.6243 56.3447 32.533 56.3709 32.4483C56.3971 32.3635 56.4508 32.2904 56.5232 32.2407C56.5956 32.1911 56.6825 32.168 56.7695 32.1752C58.3523 32.295 59.8561 32.9255 61.0622 33.9749C61.9739 34.7691 62.4062 35.5279 62.4241 35.5594C62.4746 35.6498 62.4878 35.7569 62.4607 35.8571C62.4336 35.9574 62.3685 36.0426 62.2797 36.0941Z" fill="#473838"/>
<path d="M58.65 22.9086C56.4093 24.8763 54.6428 27.0984 53.2502 29.4055C51.9185 27.9883 50.0916 27.1208 48.1371 26.9777C48.0839 26.9722 48.0301 26.9774 47.9789 26.9927C47.9277 27.0081 47.8802 27.0334 47.8391 27.0671C47.798 27.1009 47.7641 27.1424 47.7395 27.1892C47.715 27.236 47.7001 27.2872 47.6959 27.3398C47.6917 27.3924 47.6982 27.4452 47.7151 27.4953C47.7319 27.5453 47.7587 27.5915 47.7939 27.6312C47.8292 27.6709 47.8721 27.7032 47.9202 27.7263C47.9683 27.7494 48.0206 27.7628 48.074 27.7656C49.5833 27.8832 50.9228 28.4234 52.0558 29.371C52.3326 29.6027 52.5906 29.8554 52.8272 30.1268C51.3752 32.6883 50.3696 35.3299 49.6731 37.8221C48.9784 37.375 48.3286 36.9345 47.8766 36.6237C47.8181 36.5834 47.749 36.5606 47.6777 36.5582C47.6064 36.5557 47.5359 36.5737 47.4747 36.6098C47.4135 36.646 47.3642 36.6989 47.3328 36.762C47.3013 36.8252 47.2891 36.8959 47.2976 36.9658C47.4124 37.8915 47.7895 39.4459 49.017 40.5259C48.6059 42.5214 48.3363 44.5427 48.2102 46.5751C47.8697 46.4865 47.5425 46.3543 47.2368 46.182L46.3293 45.6588C42.7255 43.7636 41.3623 33.2505 46.523 24.5691L49.8478 18.9751C49.8478 18.9751 54.1291 20.5179 58.65 22.9086Z" fill="#473838"/>
<path d="M47.5719 4.98229C47.4168 4.87357 47.2599 4.76828 47.1052 4.66983C46.3755 4.20714 45.6222 3.79971 44.8496 3.44995L43.9961 5.18347C42.673 7.87577 43.0227 11.1361 43.9466 11.7237L44.1789 11.886C44.2573 11.9393 44.3412 11.9803 44.4284 12.008C45.5318 12.3671 47.9525 11.2803 49.1726 8.79774L50.025 7.06679C50.025 7.06679 49.0972 6.04723 47.5719 4.98229ZM44.2988 6.04423C44.301 6.01185 44.3139 5.98183 44.3346 5.96073C44.3553 5.93963 44.3822 5.92918 44.4094 5.93166C44.8314 5.96915 45.2324 6.16618 45.554 6.49409C45.6124 6.55384 45.6679 6.61743 45.7203 6.68457C45.7945 6.77777 45.8605 6.8799 45.917 6.98932C45.9238 7.00337 45.9281 7.01887 45.9298 7.03491C45.9315 7.05096 45.9305 7.06725 45.9269 7.08285C45.9234 7.09845 45.9172 7.11306 45.9089 7.12584C45.9006 7.13861 45.8902 7.14931 45.8785 7.15732C45.8667 7.16533 45.8537 7.1705 45.8402 7.17252C45.8267 7.17454 45.8131 7.17338 45.8 7.16911C45.7869 7.16484 45.7747 7.15753 45.7639 7.14762C45.7532 7.1377 45.7442 7.12536 45.7375 7.11131C45.7128 7.064 45.6858 7.01841 45.6567 6.97477C45.6431 6.95422 45.6276 6.93197 45.6108 6.90842C45.5499 6.82424 45.4836 6.74582 45.4126 6.67386C45.1259 6.3818 44.768 6.20729 44.3918 6.17607C44.3764 6.17458 44.3614 6.16903 44.348 6.1598C44.3316 6.14792 44.3183 6.1308 44.3096 6.11038C44.3009 6.08996 44.2971 6.06705 44.2988 6.04423ZM46.0223 10.3177C45.7321 10.7962 44.9957 10.5818 44.6747 10.3241C44.1336 9.89178 43.99 9.23604 44.1947 9.02931C44.9397 8.27812 46.3289 9.81046 46.0215 10.3198L46.0223 10.3177ZM48.2337 8.80031C48.2103 8.81664 48.1824 8.82131 48.1561 8.8133C48.1298 8.80528 48.1072 8.78524 48.0933 8.75751C48.069 8.70986 48.042 8.66425 48.0125 8.62097C47.8598 8.39032 47.6684 8.20014 47.4506 8.06255C47.2328 7.92496 46.9934 7.84298 46.7475 7.82184C46.7209 7.81854 46.6963 7.80293 46.6792 7.77833C46.662 7.75373 46.6536 7.72211 46.6558 7.69022C46.6579 7.65834 46.6705 7.62873 46.6907 7.60773C46.7109 7.58673 46.7373 7.57601 46.7641 7.57786C47.1855 7.61453 47.5862 7.81033 47.908 8.13687C48.0502 8.27805 48.1727 8.4452 48.271 8.6321C48.2779 8.64608 48.2824 8.66156 48.2842 8.67764C48.2861 8.69372 48.2852 8.71007 48.2816 8.72573C48.2781 8.7414 48.2719 8.75606 48.2636 8.76887C48.2552 8.78167 48.2448 8.79236 48.233 8.80031H48.2337Z" fill="#052B4E"/>
<path d="M34.0478 28.7883C33.7137 33.8714 33.3553 40.2874 33.6544 41.1553C34.0478 42.2909 33.4739 55.2001 33.4739 55.2001L31.7787 55.098C31.7787 55.098 29.4954 43.8476 29.7446 42.1811C29.8479 41.4661 29.8793 40.7426 29.8381 40.0215C29.8232 39.7198 29.792 39.4192 29.7446 39.1209C28.1992 33.9614 27.7162 30.0101 27.6197 27.3478C27.5232 24.6855 27.8136 23.311 27.8136 23.311L34.5 22.425C34.5 22.425 34.2789 25.2897 34.0478 28.7883Z" fill="#FFB27D"/>
<path d="M37.3251 20.7C37.3251 20.7 38.809 27.2663 37.2034 38.3635C37.0894 39.1519 37.0561 39.8355 37.3178 41.5698C37.5794 43.304 36.1742 55.2 36.1742 55.2H34.8618C34.8618 55.2 34.5531 42.9901 34.1518 40.682C33.571 37.3399 32.775 21.1002 32.775 21.1002L37.3251 20.7Z" fill="#FFB27D"/>
<path d="M34.5 27.3917C34.1415 32.7436 33.7653 39.4956 34.0779 40.4127C34.6064 41.9609 33.8842 55.2 33.8842 55.2L33.7481 55.0925C33.9079 48.8164 33.834 40.0848 32.5062 36.851C32.4723 36.2677 30.3699 33.4926 30.3699 33.4926C28.7114 28.0604 27.7036 28.678 27.6 25.875H34.4986L34.5 27.3917Z" fill="#ED985F"/>
<path d="M33.4174 0.0977344C33.4174 0.0977344 32.8734 -0.210934 31.808 0.268825C30.7425 0.748585 27.7034 4.04208 27.7387 5.00027C27.774 5.95847 28.8751 6.76939 28.5555 7.6169C28.2359 8.46442 27.2517 8.93977 27.7383 9.9059C28.6652 11.7495 26.8033 11.1212 28.04 13.5945C28.3758 14.2656 38.9669 13.1191 39.3447 12.6376C40.414 11.2707 38.5373 10.1837 38.6261 9.23168C38.7149 8.27966 37.2661 7.24518 37.5139 6.4713C37.7617 5.69742 39.0077 4.81022 36.1752 1.35181C36.1743 1.35181 34.8713 -0.324701 33.4174 0.0977344Z" fill="#052B4E"/>
<path d="M32.4807 6.8999C32.4807 6.8999 32.5266 9.01248 32.024 9.26625C31.7156 9.42009 31.3866 9.51717 31.05 9.55369C31.05 9.55369 33.9269 11.3452 36.225 9.55369C36.225 9.55369 35.3117 9.33224 35.1446 8.99565C34.9775 8.65905 34.9922 6.8999 34.9922 6.8999H32.4807Z" fill="#FAB280"/>
<path d="M32.775 6.8999C32.775 6.8999 33.1206 8.56443 33.6789 8.6233C34.2372 8.68217 34.5 7.10017 34.5 7.10017L32.775 6.8999Z" fill="#ED985F"/>
<path d="M32.775 8.62485C32.2045 8.62485 31.05 7.29418 31.05 5.91599V4.23222C31.0513 3.5678 31.2335 2.93114 31.5567 2.46132C31.8799 1.99151 32.3179 1.72673 32.775 1.72485C33.2321 1.72673 33.6702 1.99151 33.9934 2.46132C34.3166 2.93114 34.4988 3.5678 34.5 4.23222V5.91504C34.5 7.29371 33.4074 8.62485 32.775 8.62485Z" fill="#FFC39A"/>
<path d="M30.2167 8.8364C30.2167 8.8364 33.9931 8.3229 37.0076 8.89652C37.0076 8.89652 37.2308 12.9765 36.7251 17.2656C36.6462 17.9364 37.95 21.4468 37.95 21.4468C37.6821 21.9727 31.4025 23.3567 29.3299 21.4468C29.3299 21.4468 29.1733 21.6157 30.6176 17.5407C31.0218 16.3992 28.5796 9.10117 30.2167 8.8364Z" fill="#FFB27D"/>
<path d="M41.4 32.4436C40.4583 32.9623 39.4588 33.3804 38.4201 33.6902C33.4488 35.1875 28.548 34.1495 28.548 34.1495C28.548 34.1495 27.9177 33.1157 27.6223 27.755C27.3269 22.3942 30.0731 10.9903 30.0731 10.9903L37.0348 10.3499C37.0348 10.3499 37.8884 13.5073 37.5886 15.1745C37.2889 16.8417 37.0165 17.9667 37.3436 18.8269C39.7663 25.2053 41.4 32.4436 41.4 32.4436Z" fill="#FFCE58"/>
<path d="M34.45 56.9251H32.7643C32.6549 56.1846 32.7957 55.5613 32.9205 55.1916C33.0453 54.8219 33.1544 53.8175 33.1544 53.8175C33.4798 53.2939 33.8931 53.4969 34.0571 53.611C34.1024 53.6425 34.1288 53.6662 34.1288 53.6662C34.1343 53.692 34.3112 54.5368 34.3727 55.1926C34.4226 55.7328 34.4432 56.5352 34.449 56.8218C34.4492 56.8869 34.45 56.9251 34.45 56.9251Z" fill="#052B4E"/>
<path d="M41.4 15.4898C41.4 15.4898 40.6121 16.3132 39.4781 16.8343C38.8542 17.1225 38.1265 17.3151 37.3672 17.2295C35.2278 16.9887 29.056 16.9887 29.056 16.9887C29.056 16.9887 28.6908 16.9064 28.207 16.7491C27.3235 16.461 26.0463 15.9213 25.875 15.1655C25.8995 15.1021 28.1988 9.19847 29.0791 8.8288C29.9595 8.45913 30.6649 8.70531 30.6649 8.70531C30.6649 8.70531 33.1038 9.58996 35.8521 8.66414C35.8521 8.66414 37.8837 8.55587 38.4732 9.35902C39.0626 10.1622 41.3728 15.431 41.3977 15.4927L41.4 15.4898Z" fill="#FFCE58"/>
<path d="M41.4 33.1978C40.3069 33.7397 39.1469 34.1765 37.9412 34.5001C35.0447 29.7013 36.6908 18.9751 36.6908 18.9751C39.5037 25.6358 41.4 33.1978 41.4 33.1978Z" fill="#FFCE58"/>
<path d="M34.45 45.4607L34.1612 54.8461L34.1503 55.2001L34.0338 55.1851L32.5776 54.9938L31 45.4602C31 45.4602 31.949 44.6926 33.16 44.8794C33.6196 44.952 34.0603 45.1506 34.45 45.4607Z" fill="#052B4E"/>
<path d="M37.95 45.46C37.95 45.46 36.2527 44.0872 34.5 45.46L34.8002 55.1999L36.3721 54.9941L37.95 45.46Z" fill="#052B4E"/>
<path d="M33.6672 8.62924C33.5134 8.6251 33.3596 8.62434 33.2075 8.62547C32.5003 8.63396 31.7943 8.68247 31.0939 8.77071L31.0521 10.0692C30.9894 12.0849 32.3774 13.8021 33.2735 13.7942L33.5038 13.7999C33.5811 13.8011 33.6582 13.7931 33.7332 13.7762C34.6853 13.5711 36.1256 12.0585 36.1833 10.2017L36.225 8.90278C36.225 8.90278 35.1789 8.66724 33.6672 8.62924ZM31.5775 10.444C31.568 10.4248 31.5673 10.403 31.5756 10.3834C31.5839 10.3638 31.6005 10.348 31.6218 10.3394C31.9513 10.2042 32.3201 10.1671 32.6746 10.2336C32.7389 10.2459 32.8023 10.2614 32.8647 10.2799C32.9527 10.3053 33.0376 10.3387 33.118 10.3796C33.1379 10.3906 33.1522 10.4081 33.1577 10.4285C33.1632 10.4489 33.1594 10.4705 33.1473 10.4884C33.1351 10.5063 33.1156 10.5191 33.0929 10.5241C33.0703 10.529 33.0464 10.5256 33.0265 10.5147C32.9916 10.497 32.9556 10.4811 32.9187 10.4673C32.9015 10.4605 32.8823 10.4537 32.861 10.4466C32.7864 10.4213 32.7097 10.4016 32.6315 10.3875C32.3157 10.3281 31.9869 10.3618 31.6941 10.4839C31.6818 10.4887 31.6686 10.491 31.6552 10.4906C31.6389 10.49 31.6231 10.4853 31.6096 10.477C31.5961 10.4688 31.5854 10.4574 31.5787 10.444H31.5775ZM34.348 12.2263C34.0722 12.5157 33.7629 12.6658 33.4344 12.6575C33.3705 12.6558 33.307 12.6485 33.2447 12.6357C32.8932 12.5605 32.6541 12.3253 32.5341 12.1737C32.525 12.1622 32.5198 12.1487 32.519 12.1346C32.5183 12.1205 32.5221 12.1066 32.5299 12.0944C32.5378 12.0822 32.5494 12.0724 32.5634 12.066C32.5773 12.0596 32.593 12.057 32.6085 12.0585C32.7289 12.0702 32.9011 12.0856 33.0825 12.0984C33.2079 12.1067 33.3333 12.1142 33.4524 12.118C33.7897 12.1285 34.0973 12.118 34.2828 12.1056C34.2987 12.1049 34.3145 12.1084 34.3281 12.1157C34.3418 12.1229 34.3528 12.1337 34.3598 12.1466C34.3667 12.1594 34.3693 12.1738 34.3672 12.188C34.3651 12.2022 34.3585 12.2155 34.348 12.2263ZM35.4832 10.5471C35.471 10.5649 35.4515 10.5777 35.4288 10.5826C35.4062 10.5876 35.3823 10.5843 35.3624 10.5734C35.3276 10.5557 35.2915 10.5398 35.2546 10.526C35.0603 10.4521 34.851 10.4154 34.6401 10.4183C34.4292 10.4211 34.2213 10.4634 34.0296 10.5425C34.019 10.5468 34.0077 10.5491 33.9961 10.5494C33.9846 10.5497 33.9731 10.548 33.9623 10.5443C33.9405 10.5368 33.9229 10.5218 33.9134 10.5027C33.9038 10.4835 33.9032 10.4617 33.9115 10.4421C33.9198 10.4225 33.9364 10.4066 33.9577 10.3981C34.2872 10.2629 34.656 10.2258 35.0105 10.2923C35.1659 10.3198 35.3155 10.369 35.4539 10.4383C35.4736 10.4495 35.4875 10.4672 35.4928 10.4875C35.498 10.5079 35.4941 10.5293 35.4819 10.5471H35.4832Z" fill="#EBF3FA"/>
<path d="M33.8213 8.625C33.5539 9.15795 33.4053 9.71656 33.3807 10.2812C33.3004 10.2627 33.2188 10.2472 33.1362 10.2349C32.6803 10.1684 32.2061 10.2054 31.7825 10.3407C31.7596 10.3482 31.741 10.3608 31.7296 10.3766C31.7182 10.3924 31.7147 10.4104 31.7196 10.4278C31.7246 10.4451 31.7377 10.4608 31.7569 10.4723C31.7761 10.4838 31.8002 10.4905 31.8255 10.4912C31.8426 10.4916 31.8597 10.4893 31.8754 10.4845C32.2526 10.362 32.6761 10.328 33.083 10.3877C33.1834 10.4018 33.2821 10.4215 33.378 10.4468C33.3767 11.0035 33.4707 11.5583 33.658 12.0993C33.4247 12.0865 33.2033 12.071 33.0486 12.0594C33.0286 12.0579 33.0084 12.0605 32.9905 12.0669C32.9725 12.0732 32.9576 12.0831 32.9475 12.0953C32.9374 12.1074 32.9325 12.1214 32.9335 12.1355C32.9344 12.1495 32.9412 12.1631 32.9529 12.1745C33.1087 12.3251 33.4161 12.5634 33.8665 12.6368C34.0397 13.0264 34.2514 13.4071 34.5 13.7762C34.4036 13.7931 34.3044 13.8011 34.205 13.7999L33.9089 13.7942C32.7568 13.8036 30.9721 12.0857 31.0527 10.0678L31.1064 8.76879C32.0062 8.6811 32.913 8.63307 33.8213 8.625Z" fill="#D0DFEA"/>
<path d="M29.325 11.988C29.325 11.988 29.7952 11.5505 29.596 11.2923C29.3969 11.0341 30.487 10.3363 30.6062 10.3501C30.7254 10.3638 30.7283 11.1734 30.8424 11.3725C30.9391 11.5406 31.2567 11.7042 30.8424 12.0749L29.325 11.988Z" fill="#FFC39A"/>
<path d="M27.8062 17.25C27.0745 16.9893 26.0168 16.5008 25.875 15.8168C25.917 15.7859 28.593 13.8049 29.223 13.8001C29.677 13.7956 28.5101 15.9967 27.8062 17.25Z" fill="#052B4E"/>
<path d="M31.05 12.2541C31.05 12.2541 29.6844 19.4731 28.556 20.052C27.4275 20.6309 26.6955 20.7 26.6955 20.7C26.6955 20.7 25.0996 18.7122 26.3593 17.1171C27.619 15.5221 29.9662 12.075 29.9662 12.075L31.05 12.2541Z" fill="#FFC39A"/>
<path d="M41.4 15.9485C41.4 15.9485 40.3078 16.7455 38.7359 17.25C37.4171 16.082 35.6894 13.783 36.384 13.8001C37.3335 13.8245 41.3372 15.9154 41.3993 15.9481L41.4 15.9485Z" fill="#052B4E"/>
<path d="M36.225 12.2531C36.225 12.2531 37.1353 19.4729 37.8876 20.0519C38.6399 20.6309 39.128 20.7 39.128 20.7C39.128 20.7 40.1919 18.712 39.3521 17.1168C38.5123 15.5215 36.9472 12.075 36.9472 12.075L36.225 12.2531Z" fill="#FFC39A"/>
<path d="M32.8265 2.51814C32.8265 2.51814 33.2258 3.80925 34.1082 4.4849C34.9906 5.16056 35.3275 5.12452 35.3275 5.12452C35.3275 5.12452 34.9726 4.49718 34.9554 4.0746C34.9554 4.0746 35.3057 5.45086 36.0412 5.12491C36.7767 4.79897 35.1561 1.53476 33.7968 1.73357C32.4375 1.93239 32.8265 2.51814 32.8265 2.51814Z" fill="#052B4E"/>
<path d="M34.45 56.9251H32.7689C32.5063 56.2754 33.4985 55.6721 33.6792 54.9142C33.7123 54.7461 33.7313 54.5753 33.736 54.4037C33.7419 54.2937 33.7454 54.1717 33.7481 54.039C33.7745 52.6708 33.6506 50.1912 33.6779 48.1451C33.7128 45.5722 32.8204 44.8882 32.7712 44.8501C33.2789 44.9175 33.7657 45.1014 34.1963 45.3884L33.877 54.0882C33.8868 54.1114 34.2044 54.8706 34.3149 55.46C34.4044 55.9463 34.4397 56.6689 34.45 56.9251Z" fill="#052B4E"/>
<path d="M34.9412 53.7627C34.9412 53.7627 34.8202 54.8446 34.6954 55.2103C34.5707 55.5761 34.4299 56.1926 34.5393 56.9251H36.225C36.225 56.9251 36.2096 55.8693 36.147 55.2103C36.0845 54.5514 35.9229 53.7878 35.9229 53.7878C35.9229 53.7878 35.3566 53.1013 34.9412 53.7627Z" fill="#052B4E"/>
</svg>
