<svg width="63" height="41" viewBox="0 0 63 41" fill="none" xmlns="http://www.w3.org/2000/svg">
<path d="M54.6444 11.0809L62.7919 11.0043L61.1439 10.6053C61.5111 10.6053 61.7294 10.121 61.7222 9.7538C61.7197 9.56992 61.6607 9.39126 61.5532 9.24204C61.4458 9.09283 61.295 8.98029 61.1214 8.91968C60.9477 8.85907 60.7597 8.85333 60.5827 8.90324C60.4057 8.95315 60.2484 9.05629 60.132 9.19868C60.2227 9.04365 60.2705 8.86727 60.2705 8.68765C60.2705 8.50804 60.2227 8.33166 60.132 8.17663C60.0429 8.02437 59.9165 7.89726 59.7648 7.80723C59.6131 7.71721 59.4409 7.66723 59.2646 7.66198C59.1072 7.65976 58.9509 7.68876 58.8047 7.74732C58.6586 7.80588 58.5255 7.89283 58.4131 8.00315C58.1887 8.22679 58.041 8.51576 57.991 8.8286C57.9304 9.18026 57.9809 9.54207 58.1356 9.86366C58.0112 9.65431 57.8297 9.48479 57.6123 9.37504C57.5035 9.33013 57.3854 9.31245 57.2683 9.32353C57.1511 9.33462 57.0385 9.37413 56.9401 9.43865C56.8428 9.50397 56.7608 9.5894 56.6994 9.68915C56.6381 9.78891 56.5989 9.90068 56.5844 10.0169C56.5596 10.2524 56.6253 10.4886 56.768 10.6775C56.0685 10.8526 55.3594 10.9873 54.6444 11.0809Z" fill="#473838"/>
<path d="M0 5.44289L7.51722 5.36628L5.86777 4.96728C6.23496 4.96728 6.45469 4.483 6.44602 4.11582C6.44274 3.93233 6.3833 3.75426 6.27572 3.60558C6.16814 3.45691 6.01757 3.34478 5.84431 3.28429C5.67105 3.22381 5.48341 3.21788 5.30668 3.2673C5.12994 3.31672 4.97259 3.41912 4.85584 3.5607C4.94654 3.40567 4.99435 3.22929 4.99435 3.04967C4.99435 2.87005 4.94654 2.69367 4.85584 2.53864C4.76611 2.38693 4.63961 2.26025 4.48802 2.17031C4.33643 2.08036 4.16463 2.03005 3.98846 2.024C3.83097 2.02221 3.67466 2.05155 3.52854 2.11034C3.38242 2.16914 3.24935 2.25623 3.13699 2.36661C2.91248 2.58997 2.7651 2.87915 2.71632 3.19206C2.65571 3.54372 2.70624 3.90553 2.86088 4.22713C2.73856 4.01586 2.55853 3.84385 2.3419 3.73128C2.23301 3.68698 2.11504 3.66962 1.998 3.6807C1.88097 3.69177 1.76834 3.73095 1.66969 3.79489C1.57262 3.86021 1.49075 3.94567 1.42964 4.04544C1.36852 4.14522 1.3296 4.25698 1.31551 4.37314C1.2902 4.60916 1.35586 4.84594 1.49911 5.03523C1.49911 5.03523 1.2866 5.26942 0 5.44289Z" fill="#473838"/>
<path d="M23.419 4.65659L33.4791 4.56117L31.4436 4.06966C31.8976 4.06966 32.1664 3.47118 32.1664 3.01725C32.1644 2.78888 32.0918 2.56672 31.9585 2.38123C31.8253 2.19573 31.638 2.05597 31.4222 1.9811C31.2064 1.90622 30.9728 1.89989 30.7533 1.96297C30.5338 2.02606 30.3392 2.15547 30.1961 2.33348C30.3098 2.14264 30.3704 1.92487 30.3717 1.70272C30.373 1.48058 30.3148 1.26213 30.2033 1.07C30.0923 0.883044 29.9363 0.726871 29.7494 0.615758C29.5625 0.504644 29.3508 0.442131 29.1335 0.433931C28.9391 0.431742 28.7461 0.46804 28.5657 0.540734C28.3854 0.613427 28.2212 0.721081 28.0826 0.857498C27.8045 1.13273 27.622 1.48998 27.5622 1.87666C27.4887 2.31151 27.5534 2.75843 27.7472 3.15459C27.5934 2.89549 27.3687 2.68581 27.0996 2.55032C26.9652 2.49552 26.8196 2.474 26.6751 2.48759C26.5306 2.50118 26.3916 2.54948 26.2698 2.62838C26.1498 2.71061 26.0489 2.81774 25.9741 2.94248C25.8992 3.06721 25.8522 3.20662 25.8361 3.35119C25.8056 3.64236 25.8867 3.93425 26.063 4.16797C25.1918 4.38133 24.309 4.54447 23.419 4.65659Z" fill="#473838"/>
<path d="M38.8871 3.96393L48.3314 3.8743L46.4203 3.41315C46.8453 3.41315 47.0997 2.85081 47.0968 2.42579C47.0954 2.21108 47.0276 2.00207 46.9026 1.82749C46.7776 1.65291 46.6016 1.52132 46.3988 1.45082C46.1959 1.38031 45.9763 1.37434 45.7699 1.43373C45.5636 1.49312 45.3807 1.61496 45.2464 1.78249C45.353 1.60342 45.4099 1.39915 45.4111 1.19077C45.4124 0.98239 45.358 0.777443 45.2537 0.597086C45.1496 0.421358 45.0031 0.274592 44.8275 0.170269C44.652 0.0659459 44.453 0.00741212 44.2489 4.52736e-05C44.066 -0.00143327 43.8846 0.0333165 43.7151 0.102291C43.5456 0.171266 43.3915 0.273102 43.2616 0.401927C43.0018 0.660789 42.8307 0.995322 42.773 1.35748C42.7044 1.76621 42.7651 2.18615 42.9464 2.55879C42.8032 2.31562 42.5929 2.11888 42.3407 1.99211C42.2145 1.94083 42.0778 1.92076 41.9421 1.93359C41.8065 1.94643 41.6759 1.99179 41.5615 2.06584C41.4495 2.14152 41.3549 2.24026 41.2841 2.35544C41.2133 2.47061 41.1679 2.59958 41.151 2.73371C41.1224 3.00679 41.1983 3.28056 41.3635 3.49989C40.5477 3.70227 39.7209 3.85721 38.8871 3.96393Z" fill="#473838"/>
<path d="M60.3575 39.0245C60.3571 39.3092 60.2438 39.582 60.0424 39.7831C59.841 39.9842 59.568 40.0972 59.2834 40.0972H4.87174C4.65915 40.0977 4.45122 40.035 4.27434 39.917C4.09746 39.7991 3.95961 39.6313 3.87828 39.4349C3.79696 39.2385 3.77583 39.0223 3.81758 38.8139C3.85934 38.6054 3.96209 38.4141 4.11279 38.2641C4.14689 38.2305 4.18311 38.1992 4.22121 38.1702C4.40822 38.0278 4.63671 37.9506 4.87174 37.9504H59.2834C59.3225 37.9506 59.3616 37.9531 59.4005 37.9577C59.6635 37.9862 59.9067 38.1109 60.0833 38.3078C60.26 38.5047 60.3576 38.76 60.3575 39.0245Z" fill="#052B4E"/>
<path d="M60.3575 39.0245C60.3571 39.3092 60.2438 39.582 60.0424 39.7831C59.841 39.9842 59.568 40.0972 59.2834 40.0972H32.0768V37.9504H59.2834C59.3913 37.9504 59.4986 37.967 59.6014 37.9996L59.6434 38.014C59.8522 38.0881 60.0329 38.225 60.1608 38.4059C60.2887 38.5869 60.3574 38.803 60.3575 39.0245Z" fill="#052B4E"/>
<path d="M30.89 5.78247V37.9677H6.64984V9.40375L12.6839 8.50168L30.89 5.78247Z" fill="#F2F2F2"/>
<path d="M13.2245 37.8291H7.19049V37.9852H13.2245V37.8291Z" fill="#893155"/>
<path d="M13.2245 24.0247H7.19049V24.1808H13.2245V24.0247Z" fill="#893155"/>
<path d="M13.2245 23.4248H7.19049V23.5809H13.2245V23.4248Z" fill="#893155"/>
<path d="M13.2245 22.825H7.19049V22.9811H13.2245V22.825Z" fill="#893155"/>
<path d="M31.4307 5.76367V37.9489H13.2245V8.48288L31.4307 5.76367Z" fill="#F2F2F2"/>
<path d="M31.4307 24.4165H13.2245V25.0482H31.4307V24.4165Z" fill="#EAB69B"/>
<path d="M31.6351 6.25922L6.64984 9.97467L6.61797 9.49672L31.6033 5.78237L31.6351 6.25922Z" fill="#052B4E"/>
<path d="M31.4292 23.075V24.4165H6.24655C6.1535 24.4161 6.06437 24.379 5.99857 24.3132C5.93278 24.2474 5.89564 24.1582 5.89526 24.0652V23.4277C5.89526 23.3344 5.93223 23.2449 5.99806 23.1788C6.0639 23.1127 6.15325 23.0753 6.24655 23.075H31.4292Z" fill="#052B4E"/>
<path d="M7.43772 23.6069H6.85948C6.837 23.6082 6.81452 23.6047 6.79346 23.5967C6.7724 23.5888 6.75324 23.5765 6.73719 23.5607C6.72113 23.5449 6.70855 23.526 6.70023 23.5051C6.69192 23.4842 6.68806 23.4617 6.68889 23.4392C6.68889 23.3963 6.70595 23.3551 6.73632 23.3248C6.76668 23.2944 6.80786 23.2773 6.8508 23.2773H7.42905C7.45103 23.2762 7.47302 23.2795 7.49368 23.2871C7.51433 23.2947 7.53322 23.3064 7.54919 23.3216C7.56515 23.3367 7.57786 23.355 7.58654 23.3752C7.59521 23.3954 7.59967 23.4172 7.59963 23.4392C7.60041 23.461 7.5968 23.4827 7.58901 23.503C7.58122 23.5233 7.56942 23.5418 7.55431 23.5575C7.53919 23.5731 7.52108 23.5856 7.50105 23.5941C7.48102 23.6026 7.45948 23.6069 7.43772 23.6069Z" fill="#052B4E"/>
<path d="M6.41566 23.6072H6.30868C6.28692 23.6072 6.26539 23.6028 6.24536 23.5943C6.22532 23.5858 6.20721 23.5734 6.1921 23.5577C6.17699 23.5421 6.16518 23.5236 6.1574 23.5032C6.14961 23.4829 6.14599 23.4612 6.14677 23.4395C6.14677 23.3966 6.16383 23.3554 6.19419 23.325C6.22456 23.2946 6.26574 23.2776 6.30868 23.2776H6.41566C6.43692 23.2776 6.45797 23.2818 6.47762 23.2899C6.49726 23.298 6.51511 23.31 6.53014 23.325C6.54518 23.34 6.5571 23.3579 6.56524 23.3775C6.57338 23.3972 6.57757 23.4182 6.57757 23.4395C6.57834 23.4612 6.57473 23.4829 6.56694 23.5032C6.55915 23.5236 6.54735 23.5421 6.53224 23.5577C6.51712 23.5734 6.49901 23.5858 6.47898 23.5943C6.45895 23.6028 6.43741 23.6072 6.41566 23.6072Z" fill="#052B4E"/>
<path d="M12.7388 20.5378H12.4034V23.0749H12.7388V20.5378Z" fill="#2C0425"/>
<path d="M13.7493 20.5378H13.4139V23.0749H13.7493V20.5378Z" fill="#2C0425"/>
<path d="M14.7598 20.5378H14.4244V23.0749H14.7598V20.5378Z" fill="#2C0425"/>
<path d="M15.7717 20.5378H15.4363V23.0749H15.7717V20.5378Z" fill="#2C0425"/>
<path d="M16.7822 20.5378H16.4468V23.0749H16.7822V20.5378Z" fill="#2C0425"/>
<path d="M17.7941 20.5378H17.4587V23.0749H17.7941V20.5378Z" fill="#2C0425"/>
<path d="M18.8046 20.5378H18.4692V23.0749H18.8046V20.5378Z" fill="#2C0425"/>
<path d="M19.8166 20.5378H19.4812V23.0749H19.8166V20.5378Z" fill="#2C0425"/>
<path d="M20.8271 20.5378H20.4917V23.0749H20.8271V20.5378Z" fill="#2C0425"/>
<path d="M21.839 20.5378H21.5036V23.0749H21.839V20.5378Z" fill="#2C0425"/>
<path d="M22.8494 20.5378H22.514V23.0749H22.8494V20.5378Z" fill="#2C0425"/>
<path d="M23.8614 20.5378H23.526V23.0749H23.8614V20.5378Z" fill="#2C0425"/>
<path d="M24.8719 20.5378H24.5365V23.0749H24.8719V20.5378Z" fill="#2C0425"/>
<path d="M25.8838 20.5378H25.5485V23.0749H25.8838V20.5378Z" fill="#2C0425"/>
<path d="M26.8943 20.5378H26.559V23.0749H26.8943V20.5378Z" fill="#2C0425"/>
<path d="M27.9062 20.5378H27.5709V23.0749H27.9062V20.5378Z" fill="#2C0425"/>
<path d="M28.9167 20.5378H28.5813V23.0749H28.9167V20.5378Z" fill="#2C0425"/>
<path d="M29.9286 20.5378H29.5933V23.0749H29.9286V20.5378Z" fill="#2C0425"/>
<path d="M30.9391 20.5378H30.6038V23.0749H30.9391V20.5378Z" fill="#2C0425"/>
<path d="M28.4802 11.218H16.175V17.9575H28.4802V11.218Z" fill="#473838"/>
<path d="M22.3276 11.218V17.9561" stroke="#F2F2F2" stroke-width="2.16" stroke-miterlimit="10"/>
<path d="M28.4802 11.218H16.175V17.9575H28.4802V11.218Z" stroke="#F2F2F2" stroke-width="2.16" stroke-miterlimit="10"/>
<path d="M28.6868 10.5818V11.0762C28.6868 11.1146 28.6716 11.1513 28.6445 11.1784C28.6174 11.2056 28.5806 11.2208 28.5423 11.2208H16.11C16.0716 11.2208 16.0348 11.2056 16.0077 11.1784C15.9806 11.1513 15.9654 11.1146 15.9654 11.0762V10.5818C15.9654 10.5435 15.9806 10.5067 16.0077 10.4796C16.0348 10.4525 16.0716 10.4373 16.11 10.4373H28.5423C28.5806 10.4373 28.6174 10.4525 28.6445 10.4796C28.6716 10.5067 28.6868 10.5435 28.6868 10.5818Z" fill="#052B4E"/>
<path d="M26.9521 10.5818V11.0762C26.9521 11.1146 26.9369 11.1513 26.9098 11.1784C26.8826 11.2056 26.8459 11.2208 26.8075 11.2208H16.11C16.0716 11.2208 16.0348 11.2056 16.0077 11.1784C15.9806 11.1513 15.9654 11.1146 15.9654 11.0762V10.5818C15.9654 10.5435 15.9806 10.5067 16.0077 10.4796C16.0348 10.4525 16.0716 10.4373 16.11 10.4373H26.8075C26.8459 10.4373 26.8826 10.4525 26.9098 10.4796C26.9369 10.5067 26.9521 10.5435 26.9521 10.5818Z" fill="#052B4E"/>
<path d="M17.4269 10.9015H16.8487C16.8274 10.9015 16.8064 10.8973 16.7867 10.8891C16.7671 10.881 16.7492 10.8691 16.7342 10.854C16.7192 10.839 16.7072 10.8211 16.6991 10.8015C16.691 10.7819 16.6868 10.7608 16.6868 10.7395C16.6868 10.7183 16.691 10.6972 16.6991 10.6776C16.7072 10.6579 16.7192 10.6401 16.7342 10.6251C16.7492 10.61 16.7671 10.5981 16.7867 10.59C16.8064 10.5818 16.8274 10.5776 16.8487 10.5776H17.4269C17.4697 10.578 17.5107 10.5952 17.541 10.6255C17.5713 10.6558 17.5885 10.6967 17.5888 10.7395C17.5888 10.7825 17.5718 10.8237 17.5414 10.854C17.511 10.8844 17.4699 10.9015 17.4269 10.9015Z" fill="#5E2660"/>
<path d="M16.4049 10.9015H16.2979C16.255 10.9015 16.2138 10.8844 16.1834 10.854C16.153 10.8237 16.136 10.7825 16.136 10.7395C16.136 10.6966 16.153 10.6554 16.1834 10.6251C16.2138 10.5947 16.255 10.5776 16.2979 10.5776H16.4049C16.4478 10.5776 16.489 10.5947 16.5194 10.6251C16.5497 10.6554 16.5668 10.6966 16.5668 10.7395C16.5668 10.7825 16.5497 10.8237 16.5194 10.854C16.489 10.8844 16.4478 10.9015 16.4049 10.9015Z" fill="#5E2660"/>
<path d="M29.7436 26.2378H14.9116V32.5855H29.7436V26.2378Z" fill="#473838"/>
<path d="M22.3276 26.2378V32.5855" stroke="#F2F2F2" stroke-width="2.16" stroke-miterlimit="10"/>
<path d="M18.4692 26.2378V32.5855" stroke="#F2F2F2" stroke-width="2.16" stroke-miterlimit="10"/>
<path d="M26.1859 26.2378V32.5855" stroke="#F2F2F2" stroke-width="2.16" stroke-miterlimit="10"/>
<path d="M29.7436 26.2378H14.9116V32.5855H29.7436V26.2378Z" stroke="#F2F2F2" stroke-width="2.16" stroke-miterlimit="10"/>
<path d="M31.4292 36.9456V37.9503H12.6968V37.1725C12.6968 37.143 12.7027 37.1137 12.714 37.0864C12.7254 37.0592 12.742 37.0344 12.763 37.0136C12.7839 36.9927 12.8088 36.9763 12.8362 36.9651C12.8635 36.9539 12.8928 36.9483 12.9224 36.9485L31.4292 36.9456Z" fill="#FFEAD8"/>
<path d="M31.4292 36.9456V37.5643H12.6968V37.1725C12.6968 37.143 12.7027 37.1137 12.714 37.0864C12.7254 37.0592 12.742 37.0344 12.763 37.0136C12.7839 36.9927 12.8088 36.9763 12.8362 36.9651C12.8635 36.9539 12.8928 36.9483 12.9224 36.9485L31.4292 36.9456Z" fill="white"/>
<path d="M32.726 3.96824V5.32423C32.7258 5.40247 32.6975 5.47804 32.6463 5.5372C32.5951 5.59636 32.5244 5.63518 32.447 5.6466L28.7838 6.19449L6.41713 9.53532C6.35249 9.54486 6.28655 9.54038 6.22379 9.52218C6.16103 9.50397 6.10292 9.47248 6.05342 9.42983C6.00391 9.38718 5.96416 9.33438 5.93687 9.275C5.90958 9.21563 5.89539 9.15108 5.89526 9.08573V7.98995C5.8955 7.89143 5.928 7.79569 5.98778 7.71738C6.04756 7.63906 6.13134 7.58248 6.22631 7.55627C6.24468 7.55025 6.26354 7.54589 6.28269 7.54325L32.3501 3.64876C32.3963 3.64196 32.4434 3.64511 32.4883 3.65797C32.5332 3.67084 32.5748 3.69314 32.6104 3.72338C32.646 3.75363 32.6747 3.79111 32.6946 3.83333C32.7145 3.87556 32.7252 3.92155 32.726 3.96824Z" fill="#052B4E"/>
<path d="M29.0035 4.53059V5.88658C29.0031 5.95431 28.9818 6.02026 28.9425 6.07539C28.9031 6.13052 28.8477 6.17213 28.7838 6.1945L6.41713 9.53533C6.35249 9.54487 6.28655 9.54039 6.22379 9.52219C6.16103 9.50398 6.10292 9.47249 6.05342 9.42984C6.00391 9.38719 5.96416 9.33439 5.93687 9.27501C5.90958 9.21564 5.89539 9.15109 5.89526 9.08574V7.98996C5.8955 7.89144 5.928 7.7957 5.98778 7.71739C6.04756 7.63907 6.13134 7.58249 6.22631 7.55628L28.6334 4.21111C28.6792 4.20473 28.7259 4.20821 28.7703 4.22131C28.8147 4.23441 28.8558 4.25682 28.8908 4.28706C28.9258 4.3173 28.954 4.35467 28.9734 4.39666C28.9929 4.43866 29.0031 4.48432 29.0035 4.53059Z" fill="#052B4E"/>
<path d="M55.6708 37.9504H31.4307V9.38501L55.6708 13.0063V37.9504Z" fill="#F2F2F2"/>
<path d="M55.6708 13.0063V13.826L31.4307 10.2061V9.38501L55.6708 13.0063Z" fill="#F2F2F2"/>
<path d="M55.6708 26.2378H31.4307V26.8637H55.6708V26.2378Z" fill="#BD4748"/>
<path d="M55.6708 15.458H31.4307V16.2415H55.6708V15.458Z" fill="#F2F2F2"/>
<path d="M55.6708 35.0823H33.5095V37.9489H55.6708V35.0823Z" fill="#473838"/>
<path d="M55.6708 35.0823H33.5095V36.087H55.6708V35.0823Z" fill="#F2F2F2"/>
<path d="M56.7073 14.5964V15.2165C56.7075 15.2484 56.7013 15.28 56.6892 15.3095C56.677 15.339 56.6591 15.3657 56.6365 15.3882C56.6139 15.4107 56.587 15.4284 56.5575 15.4404C56.5279 15.4524 56.4963 15.4583 56.4644 15.4579H31.4292V14.3521H56.4659C56.4978 14.3522 56.5293 14.3587 56.5587 14.3711C56.5881 14.3835 56.6148 14.4015 56.6372 14.4242C56.6596 14.4469 56.6773 14.4738 56.6894 14.5033C56.7014 14.5328 56.7075 14.5645 56.7073 14.5964Z" fill="#052B4E"/>
<path d="M51.3961 14.5964V15.2165C51.3961 15.2484 51.3898 15.2799 51.3776 15.3093C51.3654 15.3386 51.3474 15.3653 51.3249 15.3878C51.3023 15.4102 51.2755 15.4279 51.2461 15.44C51.2166 15.452 51.1851 15.4581 51.1532 15.4579H31.4292V14.3521H51.1532C51.2178 14.3524 51.2795 14.3783 51.325 14.4241C51.3706 14.4699 51.3961 14.5318 51.3961 14.5964Z" fill="#052B4E"/>
<path d="M41.4705 14.9924H40.7477C40.7186 14.9926 40.6897 14.987 40.6628 14.976C40.6359 14.9649 40.6114 14.9486 40.5908 14.9281C40.5703 14.9075 40.554 14.883 40.5429 14.8561C40.5319 14.8292 40.5263 14.8003 40.5265 14.7712C40.5263 14.7421 40.5319 14.7133 40.5429 14.6864C40.554 14.6594 40.5703 14.635 40.5908 14.6144C40.6114 14.5938 40.6359 14.5775 40.6628 14.5665C40.6897 14.5555 40.7186 14.5499 40.7477 14.5501H41.4705C41.5291 14.5501 41.5854 14.5734 41.6269 14.6148C41.6684 14.6563 41.6917 14.7126 41.6917 14.7712C41.6917 14.8299 41.6684 14.8862 41.6269 14.9276C41.5854 14.9691 41.5291 14.9924 41.4705 14.9924Z" fill="#052B4E"/>
<path d="M40.1333 14.9924H40.0827C40.0535 14.9926 40.0246 14.987 39.9976 14.976C39.9706 14.965 39.946 14.9487 39.9253 14.9281C39.9046 14.9076 39.8882 14.8831 39.877 14.8562C39.8658 14.8293 39.86 14.8004 39.86 14.7712C39.86 14.7421 39.8658 14.7132 39.877 14.6863C39.8882 14.6593 39.9046 14.6349 39.9253 14.6143C39.946 14.5938 39.9706 14.5775 39.9976 14.5665C40.0246 14.5554 40.0535 14.5499 40.0827 14.5501H40.1362C40.1653 14.5499 40.1941 14.5555 40.221 14.5665C40.2479 14.5775 40.2724 14.5938 40.293 14.6144C40.3136 14.635 40.3299 14.6594 40.3409 14.6864C40.3519 14.7133 40.3575 14.7421 40.3573 14.7712C40.3575 14.8006 40.3519 14.8297 40.3406 14.8568C40.3294 14.8839 40.3129 14.9085 40.292 14.9291C40.2711 14.9497 40.2463 14.9659 40.219 14.9768C40.1918 14.9877 40.1626 14.993 40.1333 14.9924Z" fill="#052B4E"/>
<path d="M57.7193 13.359L31.4307 9.43267V7.41748L57.8638 11.3655C57.9747 11.3815 58.0761 11.4369 58.1493 11.5216C58.2226 11.6063 58.2629 11.7146 58.2628 11.8266V12.8978C58.2629 12.9657 58.2482 13.0327 58.2197 13.0943C58.1912 13.1559 58.1497 13.2105 58.098 13.2544C58.0462 13.2983 57.9855 13.3304 57.9201 13.3485C57.8547 13.3665 57.7862 13.3701 57.7193 13.359Z" fill="#052B4E"/>
<path d="M52.7752 11.0503V12.0189C52.7754 12.0932 52.7595 12.1668 52.7287 12.2344C52.6978 12.3021 52.6527 12.3623 52.5964 12.4109C52.5401 12.4595 52.474 12.4953 52.4025 12.516C52.3311 12.5367 52.2561 12.5417 52.1825 12.5306L31.4292 9.43121V7.41602L52.3357 10.54C52.4581 10.5581 52.5698 10.6196 52.6505 10.7133C52.7312 10.807 52.7755 10.9266 52.7752 11.0503Z" fill="#052B4E"/>
<path d="M33.7523 8.46269L33.0368 8.35716C33.008 8.35292 32.9803 8.34305 32.9554 8.3281C32.9304 8.31316 32.9087 8.29344 32.8913 8.27008C32.874 8.24671 32.8615 8.22016 32.8544 8.19194C32.8474 8.16372 32.846 8.13439 32.8503 8.10563C32.8543 8.07677 32.8641 8.04901 32.879 8.02396C32.8939 7.99891 32.9136 7.97708 32.937 7.95972C32.9604 7.94237 32.987 7.92984 33.0153 7.92288C33.0436 7.91591 33.073 7.91464 33.1018 7.91914L33.8246 8.02467C33.8533 8.02874 33.881 8.03845 33.9059 8.05325C33.9308 8.06805 33.9526 8.08763 33.9699 8.11088C33.9873 8.13413 33.9998 8.16058 34.0069 8.18871C34.014 8.21684 34.0154 8.24608 34.0111 8.27477C34.0069 8.3043 33.9968 8.33269 33.9814 8.35824C33.966 8.3838 33.9457 8.406 33.9215 8.42353C33.8974 8.44106 33.87 8.45356 33.8409 8.46029C33.8118 8.46702 33.7817 8.46783 33.7523 8.46269Z" fill="#052B4E"/>
<path d="M32.431 8.26751L32.3775 8.26028C32.3193 8.2517 32.2669 8.22042 32.2317 8.17328C32.1964 8.12615 32.1813 8.06699 32.1896 8.00874C32.1938 7.97997 32.2037 7.95231 32.2187 7.92736C32.2336 7.90241 32.2533 7.88065 32.2767 7.86333C32.3 7.84601 32.3266 7.83346 32.3548 7.82641C32.383 7.81937 32.4124 7.81796 32.4411 7.82226L32.4946 7.82949C32.5528 7.83807 32.6053 7.86935 32.6405 7.91648C32.6757 7.96362 32.6908 8.02277 32.6825 8.08102C32.6783 8.1098 32.6684 8.13745 32.6535 8.16241C32.6385 8.18736 32.6188 8.20912 32.5955 8.22644C32.5721 8.24376 32.5455 8.2563 32.5173 8.26335C32.4891 8.2704 32.4598 8.27181 32.431 8.26751Z" fill="#052B4E"/>
<path d="M33.5095 31.4522V37.9503H31.4307V31.4522C31.4307 31.3618 31.4666 31.275 31.5306 31.211C31.5946 31.147 31.6813 31.1111 31.7718 31.1111H33.1683C33.2588 31.1111 33.3456 31.147 33.4095 31.211C33.4735 31.275 33.5095 31.3618 33.5095 31.4522Z" fill="#2C0425"/>
<path d="M33.5095 31.4522V36.5726C33.5095 36.6915 33.4623 36.8055 33.3782 36.8895C33.2942 36.9736 33.1802 37.0208 33.0613 37.0208H31.8774C31.8186 37.0208 31.7604 37.0092 31.7061 36.9866C31.6518 36.9641 31.6025 36.9311 31.561 36.8894C31.5195 36.8478 31.4866 36.7984 31.4643 36.744C31.4419 36.6897 31.4305 36.6314 31.4307 36.5726V31.4522C31.4307 31.3618 31.4666 31.275 31.5306 31.211C31.5946 31.147 31.6813 31.1111 31.7718 31.1111H33.1683C33.2131 31.1111 33.2575 31.1199 33.2989 31.1371C33.3403 31.1542 33.3779 31.1793 33.4095 31.211C33.4412 31.2427 33.4664 31.2803 33.4835 31.3217C33.5006 31.3631 33.5095 31.4074 33.5095 31.4522Z" fill="#052B4E"/>
<path d="M31.6504 32.7966V32.1735C31.6512 32.123 31.6717 32.0749 31.7077 32.0394C31.7437 32.004 31.7922 31.9841 31.8427 31.9841C31.893 31.9845 31.9412 32.0048 31.9767 32.0405C32.0121 32.0763 32.032 32.1246 32.032 32.175V32.798C32.032 32.8486 32.0119 32.8972 31.9762 32.9329C31.9404 32.9687 31.8918 32.9888 31.8412 32.9888C31.816 32.9888 31.7911 32.9839 31.7679 32.9742C31.7446 32.9645 31.7235 32.9503 31.7058 32.9324C31.688 32.9146 31.674 32.8934 31.6645 32.87C31.655 32.8467 31.6502 32.8218 31.6504 32.7966Z" fill="#5E2660"/>
<path d="M31.6547 31.6475V31.5998C31.6551 31.5494 31.6754 31.5012 31.7111 31.4658C31.7469 31.4303 31.7952 31.4104 31.8456 31.4104C31.896 31.4108 31.9444 31.431 31.9801 31.4667C32.0158 31.5024 32.036 31.5507 32.0364 31.6012V31.6489C32.0356 31.6997 32.0148 31.748 31.9785 31.7835C31.9422 31.819 31.8934 31.8387 31.8427 31.8383C31.8178 31.8381 31.7932 31.833 31.7703 31.8233C31.7474 31.8136 31.7266 31.7995 31.7092 31.7818C31.6917 31.7641 31.6779 31.7431 31.6686 31.7201C31.6592 31.697 31.6545 31.6723 31.6547 31.6475Z" fill="#5E2660"/>
<path d="M32.8734 26.2378H32.0682V31.111H32.8734V26.2378Z" fill="#052B4E"/>
<path d="M32.8734 30.8164H32.0682V31.1099H32.8734V30.8164Z" fill="#EAB69B"/>
<path d="M32.8734 26.2378H32.0682V26.8637H32.8734V26.2378Z" fill="#052B4E"/>
<path d="M32.3458 27.9207C32.3251 27.9207 32.3047 27.9166 32.2857 27.9087C32.2667 27.9007 32.2494 27.8891 32.2349 27.8745C32.2203 27.8598 32.2089 27.8424 32.2011 27.8233C32.1934 27.8042 32.1895 27.7838 32.1896 27.7631V27.3294C32.1895 27.3088 32.1934 27.2884 32.2011 27.2693C32.2089 27.2501 32.2203 27.2328 32.2349 27.2181C32.2494 27.2035 32.2667 27.1918 32.2857 27.1839C32.3047 27.176 32.3251 27.1719 32.3458 27.1719C32.3876 27.1719 32.4276 27.1885 32.4572 27.218C32.4867 27.2476 32.5033 27.2877 32.5033 27.3294V27.7631C32.5033 27.8049 32.4867 27.845 32.4572 27.8746C32.4276 27.9041 32.3876 27.9207 32.3458 27.9207Z" fill="#FFEAD8"/>
<path d="M58.2599 24.7851V25.8693C58.2599 25.9673 58.2211 26.0612 58.152 26.1305C58.0829 26.1999 57.9891 26.239 57.8912 26.2394H31.4364V24.4165H57.8912C57.9396 24.4165 57.9876 24.426 58.0323 24.4446C58.077 24.4631 58.1177 24.4902 58.1519 24.5245C58.1861 24.5587 58.2133 24.5993 58.2318 24.6441C58.2503 24.6888 58.2599 24.7367 58.2599 24.7851Z" fill="#052B4E"/>
<path d="M32.9544 24.7402H33.6772C33.7401 24.7402 33.8004 24.7652 33.8448 24.8097C33.8893 24.8541 33.9143 24.9144 33.9143 24.9773C33.9145 25.0085 33.9085 25.0394 33.8966 25.0683C33.8848 25.0971 33.8673 25.1233 33.8453 25.1454C33.8232 25.1674 33.797 25.1849 33.7681 25.1967C33.7393 25.2086 33.7084 25.2146 33.6772 25.2144H32.9544C32.9232 25.2146 32.8923 25.2086 32.8634 25.1967C32.8346 25.1849 32.8084 25.1674 32.7863 25.1454C32.7642 25.1233 32.7468 25.0971 32.7349 25.0683C32.7231 25.0394 32.7171 25.0085 32.7173 24.9773C32.7171 24.9461 32.7231 24.9152 32.7349 24.8864C32.7468 24.8575 32.7642 24.8313 32.7863 24.8093C32.8084 24.7872 32.8346 24.7697 32.8634 24.7579C32.8923 24.746 32.9232 24.74 32.9544 24.7402Z" fill="#5E2660"/>
<path d="M32.1925 24.7402H32.3125C32.3437 24.74 32.3746 24.746 32.4035 24.7579C32.4323 24.7697 32.4585 24.7872 32.4806 24.8093C32.5026 24.8313 32.5201 24.8575 32.5319 24.8864C32.5438 24.9152 32.5498 24.9461 32.5496 24.9773C32.5498 25.0085 32.5438 25.0394 32.5319 25.0683C32.5201 25.0971 32.5026 25.1233 32.4806 25.1454C32.4585 25.1674 32.4323 25.1849 32.4035 25.1967C32.3746 25.2086 32.3437 25.2146 32.3125 25.2144H32.1925C32.1298 25.214 32.0697 25.1889 32.0253 25.1445C31.9809 25.1002 31.9558 25.0401 31.9554 24.9773C31.9554 24.9144 31.9804 24.8541 32.0249 24.8097C32.0693 24.7652 32.1296 24.7402 32.1925 24.7402Z" fill="#5E2660"/>
<path d="M57.7482 31.4522V37.9503H55.6694V31.4522C55.6694 31.3618 55.7053 31.275 55.7693 31.211C55.8333 31.147 55.9201 31.1111 56.0105 31.1111H57.407C57.4975 31.1111 57.5843 31.147 57.6482 31.211C57.7122 31.275 57.7482 31.3618 57.7482 31.4522Z" fill="#2C0425"/>
<path d="M57.7482 31.4522V36.5726C57.7484 36.6314 57.7369 36.6897 57.7146 36.744C57.6922 36.7984 57.6593 36.8478 57.6178 36.8894C57.5763 36.9311 57.527 36.9641 57.4728 36.9866C57.4185 37.0092 57.3603 37.0208 57.3015 37.0208H56.1175C55.9987 37.0208 55.8847 36.9736 55.8006 36.8895C55.7166 36.8055 55.6694 36.6915 55.6694 36.5726V31.4522C55.6694 31.3618 55.7053 31.275 55.7693 31.211C55.8333 31.147 55.9201 31.1111 56.0105 31.1111H57.407C57.4975 31.1111 57.5843 31.147 57.6482 31.211C57.7122 31.275 57.7482 31.3618 57.7482 31.4522Z" fill="#052B4E"/>
<path d="M55.8891 32.7966V32.1735C55.8895 32.1232 55.9098 32.075 55.9455 32.0395C55.9812 32.004 56.0296 31.9841 56.0799 31.9841C56.1304 31.9845 56.1787 32.0047 56.2144 32.0404C56.2501 32.0761 56.2704 32.1245 56.2707 32.175V32.798C56.2704 32.8488 56.2499 32.8973 56.2139 32.933C56.1779 32.9688 56.1292 32.9888 56.0785 32.9888C56.028 32.9881 55.9798 32.9675 55.9444 32.9315C55.909 32.8955 55.8891 32.8471 55.8891 32.7966Z" fill="#5E2660"/>
<path d="M55.8934 31.6475V31.5998C55.8934 31.5748 55.8984 31.55 55.908 31.527C55.9176 31.5039 55.9317 31.483 55.9494 31.4654C55.9672 31.4478 55.9882 31.4338 56.0113 31.4244C56.0345 31.415 56.0593 31.4102 56.0843 31.4104C56.1092 31.4104 56.134 31.4153 56.1571 31.425C56.1801 31.4346 56.2011 31.4486 56.2187 31.4664C56.2363 31.4841 56.2502 31.5052 56.2596 31.5283C56.2691 31.5515 56.2738 31.5762 56.2736 31.6012V31.6489C56.2736 31.6739 56.2687 31.6987 56.2591 31.7217C56.2495 31.7448 56.2354 31.7657 56.2177 31.7834C56.1999 31.801 56.1789 31.8149 56.1557 31.8243C56.1326 31.8337 56.1078 31.8385 56.0828 31.8383C56.0325 31.8379 55.9843 31.8177 55.9488 31.7819C55.9133 31.7462 55.8934 31.6978 55.8934 31.6475Z" fill="#5E2660"/>
<path d="M57.1121 26.2378H56.3069V31.111H57.1121V26.2378Z" fill="#052B4E"/>
<path d="M57.1121 30.8164H56.3069V31.1099H57.1121V30.8164Z" fill="#EAB69B"/>
<path d="M57.1121 26.2378H56.3069V26.8637H57.1121V26.2378Z" fill="#EAB69B"/>
<path d="M56.5859 27.9207C56.5441 27.9207 56.504 27.9041 56.4744 27.8746C56.4449 27.845 56.4283 27.8049 56.4283 27.7631V27.3294C56.4283 27.2877 56.4449 27.2476 56.4744 27.218C56.504 27.1885 56.5441 27.1719 56.5859 27.1719C56.6276 27.1719 56.6677 27.1885 56.6973 27.218C56.7268 27.2476 56.7434 27.2877 56.7434 27.3294V27.7631C56.7434 27.8049 56.7268 27.845 56.6973 27.8746C56.6677 27.9041 56.6276 27.9207 56.5859 27.9207Z" fill="#FFEAD8"/>
<path d="M48.1912 17.0684H39.8427V21.9965H48.1912V17.0684Z" fill="#473838"/>
<path d="M48.3473 22.1539H39.6866V16.9121H48.3473V22.1539ZM39.9988 21.8402H48.0336V17.2229H39.9988V21.8402Z" fill="#F2F2F2"/>
<path d="M38.2366 15.458H31.4307V24.4151H38.2366V15.458Z" fill="#473838"/>
<path d="M38.2366 24.0564H31.4307V24.2125H38.2366V24.0564Z" fill="#FFDB81"/>
<path d="M38.2366 23.4551H31.4307V23.6112H38.2366V23.4551Z" fill="#FFDB81"/>
<path d="M38.2366 15.6533H31.4307V15.8094H38.2366V15.6533Z" fill="#FFDB81"/>
<path d="M38.2366 15.458H31.4307V16.2415H38.2366V15.458Z" fill="#2C0425"/>
<path d="M31.4307 23.0749H38.3696C38.4237 23.0749 38.4755 23.0964 38.5138 23.1346C38.552 23.1729 38.5735 23.2247 38.5735 23.2788V24.415H31.4307V23.0735V23.0749Z" fill="white"/>
<path d="M38.5764 23.9351H31.4307V24.415H38.5764V23.9351Z" fill="#FFEAD8"/>
<path d="M39.3208 29.5833H46.1297C46.6078 29.5833 47.0663 29.7732 47.4044 30.1112C47.7425 30.4493 47.9324 30.9078 47.9324 31.3859V33.0455H37.5239V31.3859C37.5239 30.9088 37.7131 30.4512 38.0499 30.1133C38.3867 29.7754 38.8437 29.5848 39.3208 29.5833Z" fill="#052B4E"/>
<path d="M47.931 32.5898H37.5254V33.0452H47.931V32.5898Z" fill="#F2F2F2"/>
<path d="M47.1416 31.4062V33.047H38.3103V31.4062C38.3094 31.3107 38.3274 31.2159 38.3633 31.1274C38.3992 31.0388 38.4523 30.9583 38.5195 30.8904C38.5867 30.8225 38.6667 30.7686 38.7549 30.7318C38.843 30.6951 38.9376 30.6761 39.0331 30.6761H46.4058C46.5024 30.6744 46.5984 30.692 46.6881 30.728C46.7778 30.764 46.8593 30.8177 46.9279 30.8857C46.9965 30.9538 47.0508 31.0349 47.0875 31.1243C47.1242 31.2137 47.1426 31.3095 47.1416 31.4062Z" fill="#F2F2F2"/>
<path d="M47.1417 32.5898H38.3104V33.0452H47.1417V32.5898Z" fill="#371438"/>
<path d="M39.8369 29.8564H39.4032C39.3297 29.8564 39.2702 29.916 39.2702 29.9894V30.0082C39.2702 30.0817 39.3297 30.1412 39.4032 30.1412H39.8369C39.9103 30.1412 39.9699 30.0817 39.9699 30.0082V29.9894C39.9699 29.916 39.9103 29.8564 39.8369 29.8564Z" fill="#F2F2F2"/>
<path d="M39.0173 30.1412H38.9624C38.924 30.1412 38.8873 30.1259 38.8602 30.0988C38.833 30.0717 38.8178 30.035 38.8178 29.9966C38.8178 29.9583 38.833 29.9215 38.8602 29.8944C38.8873 29.8673 38.924 29.8521 38.9624 29.8521H39.0173C39.0556 29.8521 39.0924 29.8673 39.1195 29.8944C39.1466 29.9215 39.1619 29.9583 39.1619 29.9966C39.1619 30.035 39.1466 30.0717 39.1195 30.0988C39.0924 30.1259 39.0556 30.1412 39.0173 30.1412Z" fill="#F2F2F2"/>
<path d="M37.1741 37.9504C36.9751 37.9504 36.7843 37.8713 36.6436 37.7306C36.5029 37.5899 36.4238 37.3991 36.4238 37.2001V36.1607C36.4238 35.9617 36.5029 35.7709 36.6436 35.6302C36.7843 35.4894 36.9751 35.4104 37.1741 35.4104C37.3731 35.4104 37.5639 35.4894 37.7046 35.6302C37.8453 35.7709 37.9244 35.9617 37.9244 36.1607V37.1957C37.925 37.2946 37.906 37.3927 37.8685 37.4842C37.8311 37.5757 37.7759 37.6589 37.7062 37.7291C37.6364 37.7992 37.5535 37.8549 37.4622 37.8928C37.3709 37.9308 37.273 37.9504 37.1741 37.9504Z" fill="#2C0425"/>
<path d="M47.5291 37.1987C47.5291 37.6131 47.865 37.949 48.2794 37.949C48.6938 37.949 49.0297 37.6131 49.0297 37.1987V36.1636C49.0297 35.7493 48.6938 35.4134 48.2794 35.4134C47.865 35.4134 47.5291 35.7493 47.5291 36.1636V37.1987Z" fill="#2C0425"/>
<path d="M37.0773 33.0454H48.3762C48.7083 33.0454 49.0267 33.1773 49.2615 33.4121C49.4963 33.6469 49.6281 33.9653 49.6281 34.2973V36.7722H35.8254V34.2959C35.8258 33.9641 35.9578 33.646 36.1926 33.4116C36.4273 33.1771 36.7455 33.0454 37.0773 33.0454Z" fill="#052B4E"/>
<path d="M49.6267 35.5479H35.8254V36.7983H49.6267V35.5479Z" fill="#FF9A32"/>
<path d="M37.8275 33.2839H37.3939C37.3204 33.2839 37.2609 33.3435 37.2609 33.4169V33.4357C37.2609 33.5092 37.3204 33.5687 37.3939 33.5687H37.8275C37.901 33.5687 37.9605 33.5092 37.9605 33.4357V33.4169C37.9605 33.3435 37.901 33.2839 37.8275 33.2839Z" fill="#F2F2F2"/>
<path d="M37.0078 33.5701H36.9529C36.9146 33.5701 36.8778 33.5549 36.8507 33.5278C36.8236 33.5007 36.8083 33.4639 36.8083 33.4256C36.8083 33.3872 36.8236 33.3505 36.8507 33.3233C36.8778 33.2962 36.9146 33.281 36.9529 33.281H37.0078C37.0462 33.281 37.083 33.2962 37.1101 33.3233C37.1372 33.3505 37.1524 33.3872 37.1524 33.4256C37.1524 33.4639 37.1372 33.5007 37.1101 33.5278C37.083 33.5549 37.0462 33.5701 37.0078 33.5701Z" fill="#F2F2F2"/>
<path d="M49.3997 35.9958H36.0523C35.8152 35.9958 35.623 36.1881 35.623 36.4252V36.5539C35.623 36.791 35.8152 36.9832 36.0523 36.9832H49.3997C49.6369 36.9832 49.8291 36.791 49.8291 36.5539V36.4252C49.8291 36.1881 49.6369 35.9958 49.3997 35.9958Z" fill="#EAB69B"/>
<path d="M47.4496 35.9958H36.0523C35.8152 35.9958 35.623 36.1881 35.623 36.4252V36.5539C35.623 36.791 35.8152 36.9832 36.0523 36.9832H47.4496C47.6867 36.9832 47.8789 36.791 47.8789 36.5539V36.4252C47.8789 36.1881 47.6867 35.9958 47.4496 35.9958Z" fill="#F2F2F2"/>
<path d="M36.8893 36.158H36.4556C36.3822 36.158 36.3226 36.2175 36.3226 36.291V36.3098C36.3226 36.3832 36.3822 36.4427 36.4556 36.4427H36.8893C36.9628 36.4427 37.0223 36.3832 37.0223 36.3098V36.291C37.0223 36.2175 36.9628 36.158 36.8893 36.158Z" fill="#FFEAD8"/>
<path d="M36.0697 36.45H36.0133C35.9749 36.45 35.9382 36.4348 35.9111 36.4077C35.8839 36.3806 35.8687 36.3438 35.8687 36.3055C35.8687 36.2671 35.8839 36.2303 35.9111 36.2032C35.9382 36.1761 35.9749 36.1609 36.0133 36.1609H36.0697C36.108 36.1609 36.1448 36.1761 36.1719 36.2032C36.199 36.2303 36.2142 36.2671 36.2142 36.3055C36.2142 36.3438 36.199 36.3806 36.1719 36.4077C36.1448 36.4348 36.108 36.45 36.0697 36.45Z" fill="#FFEAD8"/>
<path d="M44.8648 35.5522H41.0845C40.9137 35.5522 40.7751 35.6908 40.7751 35.8616V37.1207C40.7751 37.2916 40.9137 37.4301 41.0845 37.4301H44.8648C45.0357 37.4301 45.1742 37.2916 45.1742 37.1207V35.8616C45.1742 35.6908 45.0357 35.5522 44.8648 35.5522Z" fill="#EAB69B"/>
<path d="M44.5511 35.8616V37.1207C44.5511 37.2023 44.5189 37.2805 44.4615 37.3385C44.4041 37.3964 44.3262 37.4293 44.2446 37.4301H41.0845C41.0026 37.4297 40.9241 37.397 40.8662 37.3391C40.8082 37.2811 40.7755 37.2027 40.7751 37.1207V35.8616C40.7751 35.7796 40.8077 35.7009 40.8658 35.6429C40.9238 35.5848 41.0025 35.5522 41.0845 35.5522H44.2446C44.2851 35.5524 44.3251 35.5606 44.3624 35.5762C44.3996 35.5919 44.4335 35.6147 44.4619 35.6435C44.4904 35.6722 44.5129 35.7062 44.5282 35.7437C44.5435 35.7811 44.5513 35.8212 44.5511 35.8616Z" fill="#F2F2F2"/>
<path d="M45.4777 35.9958H45.1741V36.9832H45.4777V35.9958Z" fill="#E59573"/>
<path d="M40.4716 36.9832H40.7751V35.9958H40.4716V36.9832Z" fill="#E59573"/>
<path d="M37.5254 35.2586C37.525 35.3891 37.4729 35.5141 37.3805 35.6063C37.2881 35.6984 37.1629 35.7501 37.0325 35.7501H36.7939C36.6681 35.7435 36.5497 35.6888 36.4631 35.5973C36.3765 35.5058 36.3283 35.3846 36.3284 35.2586C36.3282 35.2256 36.3316 35.1926 36.3386 35.1603C36.3617 35.0521 36.4204 34.9548 36.5053 34.8838C36.5902 34.8128 36.6963 34.7722 36.8069 34.7686H37.0325C37.1456 34.7681 37.2553 34.8067 37.3433 34.8778C37.4313 34.9489 37.492 35.0482 37.5153 35.1589C37.5223 35.1917 37.5257 35.2251 37.5254 35.2586Z" fill="#E06C6C"/>
<path d="M37.5152 35.1574C37.495 35.2505 37.4483 35.3359 37.3808 35.4032C37.3351 35.4491 37.2809 35.4855 37.2211 35.5103C37.1613 35.5351 37.0971 35.5478 37.0324 35.5477H36.7939C36.686 35.5414 36.5831 35.5 36.5009 35.4298C36.4187 35.3596 36.3616 35.2645 36.3385 35.1589C36.3617 35.0507 36.4204 34.9533 36.5052 34.8823C36.5901 34.8113 36.6963 34.7708 36.8069 34.7671H37.0324C37.1455 34.7667 37.2553 34.8053 37.3432 34.8764C37.4312 34.9475 37.4919 35.0467 37.5152 35.1574Z" fill="#F2F2F2"/>
<path d="M49.1236 35.2586C49.1232 35.3891 49.0711 35.5141 48.9787 35.6063C48.8863 35.6984 48.7612 35.7501 48.6307 35.7501H48.3921C48.2663 35.7435 48.1479 35.6888 48.0613 35.5973C47.9747 35.5058 47.9265 35.3846 47.9266 35.2586C47.9264 35.2256 47.9298 35.1926 47.9368 35.1603C47.9592 35.0518 48.0177 34.954 48.1027 34.8829C48.1878 34.8118 48.2943 34.7715 48.4051 34.7686H48.6307C48.7438 34.7681 48.8536 34.8067 48.9415 34.8778C49.0295 34.9489 49.0902 35.0482 49.1135 35.1589C49.1198 35.1918 49.1232 35.2251 49.1236 35.2586Z" fill="#E06C6C"/>
<path d="M49.1135 35.1574C49.0926 35.2503 49.046 35.3355 48.9791 35.4032C48.9334 35.4491 48.8791 35.4855 48.8193 35.5103C48.7595 35.5351 48.6954 35.5478 48.6307 35.5477H48.3921C48.2842 35.5414 48.1813 35.5 48.0991 35.4298C48.0169 35.3596 47.9599 35.2645 47.9368 35.1589C47.9592 35.0503 48.0177 34.9525 48.1027 34.8814C48.1878 34.8103 48.2943 34.77 48.4052 34.7671H48.6307C48.7438 34.7667 48.8536 34.8053 48.9415 34.8764C49.0295 34.9475 49.0902 35.0467 49.1135 35.1574Z" fill="#F2F2F2"/>
</svg>
