<svg width="70" height="46" viewBox="0 0 70 46" fill="none" xmlns="http://www.w3.org/2000/svg">
<path d="M60.7361 12.8462L69.7919 12.761L67.9601 12.3175C68.3683 12.3175 68.6109 11.7793 68.6029 11.3712C68.6001 11.1668 68.5346 10.9682 68.4151 10.8024C68.2956 10.6365 68.1281 10.5114 67.9351 10.4441C67.7421 10.3767 67.5331 10.3703 67.3364 10.4258C67.1396 10.4813 66.9648 10.5959 66.8354 10.7542C66.9362 10.5818 66.9894 10.3858 66.9894 10.1862C66.9894 9.98652 66.9362 9.79048 66.8354 9.61817C66.7364 9.44893 66.5959 9.30765 66.4273 9.20759C66.2586 9.10753 66.0673 9.05198 65.8713 9.04615C65.6964 9.04368 65.5226 9.07592 65.3602 9.14101C65.1977 9.20609 65.0498 9.30274 64.925 9.42535C64.6755 9.67392 64.5113 9.99511 64.4558 10.3428C64.3884 10.7337 64.4446 11.1358 64.6164 11.4933C64.4782 11.2606 64.2764 11.0722 64.0348 10.9502C63.9139 10.9003 63.7827 10.8806 63.6525 10.8929C63.5222 10.9052 63.397 10.9492 63.2876 11.0209C63.1796 11.0935 63.0884 11.1884 63.0202 11.2993C62.952 11.4102 62.9084 11.5344 62.8924 11.6636C62.8648 11.9254 62.9378 12.1879 63.0964 12.3979C62.3189 12.5924 61.5308 12.7421 60.7361 12.8462Z" fill="#473838"/>
<path d="M0 6.57965L8.35524 6.49449L6.5219 6.05102C6.93003 6.05102 7.17426 5.51275 7.16462 5.10463C7.16097 4.90069 7.09491 4.70277 6.97533 4.53752C6.85576 4.37227 6.68841 4.24764 6.49583 4.18041C6.30325 4.11319 6.0947 4.1066 5.89826 4.16152C5.70182 4.21645 5.52694 4.33027 5.39716 4.48763C5.49798 4.31532 5.55112 4.11928 5.55112 3.91964C5.55112 3.72 5.49798 3.52395 5.39716 3.35164C5.29743 3.18301 5.15683 3.04221 4.98834 2.94224C4.81985 2.84227 4.6289 2.78635 4.4331 2.77963C4.25804 2.77763 4.08431 2.81024 3.9219 2.87559C3.75949 2.94094 3.61159 3.03775 3.4867 3.16043C3.23716 3.40869 3.07335 3.7301 3.01913 4.0779C2.95177 4.46876 3.00793 4.8709 3.17981 5.22835C3.04385 4.99353 2.84375 4.80235 2.60298 4.67723C2.48195 4.62799 2.35082 4.6087 2.22074 4.62101C2.09066 4.63332 1.96547 4.67686 1.85583 4.74793C1.74794 4.82054 1.65694 4.91552 1.58901 5.02642C1.52109 5.13732 1.47782 5.26154 1.46217 5.39064C1.43403 5.65297 1.50701 5.91616 1.66623 6.12654C1.66623 6.12654 1.43003 6.38684 0 6.57965Z" fill="#473838"/>
<path d="M26.0298 5.70558L37.2113 5.59953L34.949 5.05323C35.4535 5.05323 35.7524 4.38803 35.7524 3.8835C35.7501 3.62966 35.6694 3.38274 35.5213 3.17657C35.3732 2.97039 35.165 2.81505 34.9252 2.73183C34.6853 2.64861 34.4257 2.64157 34.1817 2.71169C33.9377 2.7818 33.7214 2.92564 33.5624 3.12349C33.6887 2.91138 33.7561 2.66934 33.7576 2.42243C33.759 2.17551 33.6943 1.93271 33.5704 1.71917C33.447 1.51137 33.2736 1.33779 33.0659 1.21429C32.8582 1.09078 32.6228 1.0213 32.3814 1.01219C32.1652 1.00976 31.9508 1.0501 31.7503 1.1309C31.5498 1.2117 31.3673 1.33135 31.2132 1.48297C30.9041 1.78889 30.7014 2.18597 30.6348 2.61575C30.5532 3.09907 30.6251 3.59582 30.8405 4.03614C30.6695 3.74816 30.4198 3.5151 30.1206 3.36451C29.9713 3.3036 29.8094 3.27968 29.6489 3.29479C29.4883 3.30989 29.3337 3.36358 29.1983 3.45128C29.065 3.54267 28.9529 3.66175 28.8697 3.80039C28.7865 3.93903 28.7342 4.09397 28.7163 4.25466C28.6825 4.57829 28.7726 4.90272 28.9686 5.16249C28.0002 5.39964 27.019 5.58097 26.0298 5.70558Z" fill="#473838"/>
<path d="M43.2224 4.93586L53.7195 4.83624L51.5953 4.32368C52.0677 4.32368 52.3505 3.69864 52.3473 3.22625C52.3457 2.9876 52.2703 2.75529 52.1314 2.56125C51.9924 2.3672 51.7968 2.22095 51.5714 2.14258C51.346 2.06421 51.1018 2.05758 50.8725 2.12359C50.6432 2.1896 50.4399 2.32502 50.2906 2.51123C50.4091 2.3122 50.4723 2.08516 50.4737 1.85355C50.4751 1.62194 50.4147 1.39414 50.2987 1.19368C50.183 0.99836 50.0202 0.835232 49.825 0.71928C49.6299 0.603327 49.4088 0.538268 49.1819 0.53008C48.9786 0.528436 48.7769 0.56706 48.5886 0.643724C48.4002 0.720388 48.2289 0.833576 48.0845 0.976763C47.7958 1.26448 47.6056 1.63631 47.5414 2.03884C47.4652 2.49314 47.5326 2.95989 47.7342 3.37407C47.575 3.1038 47.3413 2.88512 47.061 2.74422C46.9207 2.68722 46.7687 2.66491 46.6179 2.67918C46.4672 2.69344 46.3221 2.74386 46.1949 2.82616C46.0704 2.91029 45.9653 3.02003 45.8866 3.14805C45.8079 3.27606 45.7575 3.41941 45.7386 3.56849C45.7068 3.87201 45.7912 4.1763 45.9748 4.42008C45.0681 4.64503 44.1491 4.81724 43.2224 4.93586Z" fill="#473838"/>
<path d="M67.0861 43.905C67.0857 44.2214 66.9598 44.5246 66.7359 44.7481C66.5121 44.9717 66.2087 45.0972 65.8923 45.0972H5.41486C5.17858 45.0978 4.94747 45.0281 4.75087 44.897C4.55427 44.7659 4.40105 44.5794 4.31066 44.3611C4.22027 44.1428 4.19678 43.9025 4.24319 43.6709C4.2896 43.4392 4.40381 43.2265 4.57131 43.0598C4.60921 43.0225 4.64946 42.9876 4.69182 42.9554C4.89967 42.7972 5.15364 42.7114 5.41486 42.7112H65.8923C65.9358 42.7114 65.9793 42.7141 66.0225 42.7192C66.3148 42.7509 66.5851 42.8895 66.7814 43.1084C66.9777 43.3273 67.0863 43.611 67.0861 43.905Z" fill="#052B4E"/>
<path d="M67.0862 43.905C67.0858 44.2214 66.9598 44.5246 66.736 44.7481C66.5121 44.9717 66.2087 45.0972 65.8924 45.0972H35.6528V42.7112H65.8924C66.0123 42.7112 66.1315 42.7296 66.2458 42.7658L66.2924 42.7819C66.5245 42.8642 66.7255 43.0163 66.8676 43.2175C67.0097 43.4186 67.0861 43.6588 67.0862 43.905Z" fill="#052B4E"/>
<path d="M34.3335 6.95728V42.7305H7.39111V10.9822L14.0978 9.97962L34.3335 6.95728Z" fill="#F2F2F2"/>
<path d="M14.6986 42.5762H7.99194V42.7497H14.6986V42.5762Z" fill="#893155"/>
<path d="M14.6986 27.2329H7.99194V27.4064H14.6986V27.2329Z" fill="#893155"/>
<path d="M14.6986 26.5662H7.99194V26.7397H14.6986V26.5662Z" fill="#893155"/>
<path d="M14.6986 25.8994H7.99194V26.0729H14.6986V25.8994Z" fill="#893155"/>
<path d="M34.9347 6.93604V42.7093H14.699V9.95838L34.9347 6.93604Z" fill="#F2F2F2"/>
<path d="M34.9347 27.6686H14.699V28.3707H34.9347V27.6686Z" fill="#EAB69B"/>
<path d="M35.1618 7.48711L7.39114 11.6168L7.35572 11.0855L35.1264 6.9571L35.1618 7.48711Z" fill="#052B4E"/>
<path d="M34.933 26.1775V27.6686H6.94294C6.83951 27.6682 6.74045 27.6269 6.66732 27.5538C6.59419 27.4806 6.55291 27.3816 6.55249 27.2781V26.5695C6.55249 26.4658 6.59357 26.3664 6.66675 26.2929C6.73993 26.2194 6.83924 26.1779 6.94294 26.1775H34.933Z" fill="#052B4E"/>
<path d="M8.26676 26.7687H7.62405C7.59907 26.7701 7.57408 26.7662 7.55067 26.7574C7.52727 26.7485 7.50597 26.7349 7.48813 26.7173C7.47029 26.6998 7.4563 26.6787 7.44706 26.6555C7.43781 26.6322 7.43352 26.6073 7.43445 26.5823C7.43445 26.5346 7.45341 26.4888 7.48716 26.4551C7.52091 26.4213 7.56668 26.4024 7.61441 26.4024H8.25712C8.28155 26.401 8.30599 26.4047 8.32895 26.4132C8.35191 26.4216 8.3729 26.4347 8.39065 26.4515C8.4084 26.4684 8.42252 26.4887 8.43216 26.5111C8.4418 26.5336 8.44676 26.5579 8.44672 26.5823C8.44758 26.6065 8.44357 26.6306 8.43491 26.6532C8.42626 26.6757 8.41314 26.6963 8.39634 26.7137C8.37954 26.7311 8.35941 26.745 8.33715 26.7544C8.31488 26.7639 8.29094 26.7687 8.26676 26.7687Z" fill="#052B4E"/>
<path d="M7.13101 26.7688H7.01211C6.98792 26.7688 6.96398 26.764 6.94172 26.7545C6.91946 26.7451 6.89932 26.7312 6.88253 26.7138C6.86573 26.6965 6.85261 26.6758 6.84395 26.6533C6.8353 26.6307 6.83128 26.6066 6.83215 26.5824C6.83215 26.5347 6.85111 26.4889 6.88485 26.4552C6.9186 26.4214 6.96438 26.4025 7.01211 26.4025H7.13101C7.15464 26.4025 7.17804 26.4071 7.19987 26.4162C7.22171 26.4252 7.24155 26.4385 7.25826 26.4552C7.27497 26.4719 7.28822 26.4917 7.29727 26.5136C7.30631 26.5354 7.31097 26.5588 7.31097 26.5824C7.31183 26.6066 7.30781 26.6307 7.29916 26.6533C7.2905 26.6758 7.27738 26.6965 7.26058 26.7138C7.24379 26.7312 7.22365 26.7451 7.20139 26.7545C7.17913 26.764 7.15519 26.7688 7.13101 26.7688Z" fill="#052B4E"/>
<path d="M14.1589 23.3575H13.7861V26.1774H14.1589V23.3575Z" fill="#2C0425"/>
<path d="M15.282 23.3575H14.9092V26.1774H15.282V23.3575Z" fill="#2C0425"/>
<path d="M16.405 23.3575H16.0322V26.1774H16.405V23.3575Z" fill="#2C0425"/>
<path d="M17.53 23.3575H17.1572V26.1774H17.53V23.3575Z" fill="#2C0425"/>
<path d="M18.653 23.3575H18.2803V26.1774H18.653V23.3575Z" fill="#2C0425"/>
<path d="M19.7778 23.3575H19.405V26.1774H19.7778V23.3575Z" fill="#2C0425"/>
<path d="M20.9008 23.3575H20.5281V26.1774H20.9008V23.3575Z" fill="#2C0425"/>
<path d="M22.0256 23.3575H21.6528V26.1774H22.0256V23.3575Z" fill="#2C0425"/>
<path d="M23.1489 23.3575H22.7761V26.1774H23.1489V23.3575Z" fill="#2C0425"/>
<path d="M24.2737 23.3575H23.9009V26.1774H24.2737V23.3575Z" fill="#2C0425"/>
<path d="M25.3967 23.3575H25.0239V26.1774H25.3967V23.3575Z" fill="#2C0425"/>
<path d="M26.5212 23.3575H26.1484V26.1774H26.5212V23.3575Z" fill="#2C0425"/>
<path d="M27.6445 23.3575H27.2717V26.1774H27.6445V23.3575Z" fill="#2C0425"/>
<path d="M28.7693 23.3575H28.3965V26.1774H28.7693V23.3575Z" fill="#2C0425"/>
<path d="M29.8923 23.3575H29.5195V26.1774H29.8923V23.3575Z" fill="#2C0425"/>
<path d="M31.0171 23.3575H30.6443V26.1774H31.0171V23.3575Z" fill="#2C0425"/>
<path d="M32.1403 23.3575H31.7676V26.1774H32.1403V23.3575Z" fill="#2C0425"/>
<path d="M33.2651 23.3575H32.8923V26.1774H33.2651V23.3575Z" fill="#2C0425"/>
<path d="M34.3882 23.3575H34.0154V26.1774H34.3882V23.3575Z" fill="#2C0425"/>
<path d="M31.6551 12.9988H17.9783V20.4896H31.6551V12.9988Z" fill="#473838"/>
<path d="M24.8167 12.9988V20.488" stroke="#F2F2F2" stroke-width="2.16" stroke-miterlimit="10"/>
<path d="M31.6551 12.9988H17.9783V20.4896H31.6551V12.9988Z" stroke="#F2F2F2" stroke-width="2.16" stroke-miterlimit="10"/>
<path d="M31.8847 12.2917V12.8412C31.8847 12.8838 31.8678 12.9247 31.8377 12.9548C31.8076 12.9849 31.7667 13.0019 31.7241 13.0019H17.9058C17.8632 13.0019 17.8223 12.9849 17.7922 12.9548C17.762 12.9247 17.7451 12.8838 17.7451 12.8412V12.2917C17.7451 12.249 17.762 12.2082 17.7922 12.178C17.8223 12.1479 17.8632 12.131 17.9058 12.131H31.7241C31.7667 12.131 31.8076 12.1479 31.8377 12.178C31.8678 12.2082 31.8847 12.249 31.8847 12.2917Z" fill="#052B4E"/>
<path d="M29.9566 12.2917V12.8412C29.9566 12.8838 29.9397 12.9247 29.9096 12.9548C29.8794 12.9849 29.8386 13.0019 29.7959 13.0019H17.9058C17.8632 13.0019 17.8223 12.9849 17.7922 12.9548C17.762 12.9247 17.7451 12.8838 17.7451 12.8412V12.2917C17.7451 12.249 17.762 12.2082 17.7922 12.178C17.8223 12.1479 17.8632 12.131 17.9058 12.131H29.7959C29.8386 12.131 29.8794 12.1479 29.9096 12.178C29.9397 12.2082 29.9566 12.249 29.9566 12.2917Z" fill="#052B4E"/>
<path d="M19.3695 12.6467H18.7268C18.7032 12.6467 18.6798 12.642 18.658 12.633C18.6361 12.6239 18.6163 12.6107 18.5996 12.594C18.5829 12.5772 18.5696 12.5574 18.5606 12.5356C18.5515 12.5137 18.5469 12.4903 18.5469 12.4667C18.5469 12.4431 18.5515 12.4197 18.5606 12.3978C18.5696 12.376 18.5829 12.3562 18.5996 12.3395C18.6163 12.3227 18.6361 12.3095 18.658 12.3004C18.6798 12.2914 18.7032 12.2867 18.7268 12.2867H19.3695C19.4171 12.2872 19.4627 12.3063 19.4963 12.3399C19.53 12.3736 19.5491 12.4191 19.5495 12.4667C19.5495 12.5144 19.5305 12.5602 19.4968 12.594C19.463 12.6277 19.4173 12.6467 19.3695 12.6467Z" fill="#5E2660"/>
<path d="M18.2337 12.6467H18.1148C18.067 12.6467 18.0213 12.6277 17.9875 12.594C17.9538 12.5602 17.9348 12.5144 17.9348 12.4667C17.9348 12.419 17.9538 12.3732 17.9875 12.3395C18.0213 12.3057 18.067 12.2867 18.1148 12.2867H18.2337C18.2814 12.2867 18.3272 12.3057 18.3609 12.3395C18.3947 12.3732 18.4136 12.419 18.4136 12.4667C18.4136 12.5144 18.3947 12.5602 18.3609 12.594C18.3272 12.6277 18.2814 12.6467 18.2337 12.6467Z" fill="#5E2660"/>
<path d="M33.0595 29.6929H16.574V36.7482H33.0595V29.6929Z" fill="#473838"/>
<path d="M24.8167 29.6929V36.7482" stroke="#F2F2F2" stroke-width="2.16" stroke-miterlimit="10"/>
<path d="M20.5281 29.6929V36.7482" stroke="#F2F2F2" stroke-width="2.16" stroke-miterlimit="10"/>
<path d="M29.1052 29.6929V36.7482" stroke="#F2F2F2" stroke-width="2.16" stroke-miterlimit="10"/>
<path d="M33.0595 29.6929H16.574V36.7482H33.0595V29.6929Z" stroke="#F2F2F2" stroke-width="2.16" stroke-miterlimit="10"/>
<path d="M34.9329 41.5942V42.7109H14.1123V41.8465C14.1123 41.8137 14.1188 41.7811 14.1314 41.7508C14.144 41.7205 14.1625 41.693 14.1858 41.6698C14.2091 41.6467 14.2368 41.6284 14.2672 41.6159C14.2976 41.6035 14.3301 41.5972 14.363 41.5975L34.9329 41.5942Z" fill="#FFEAD8"/>
<path d="M34.9329 41.5942V42.2819H14.1123V41.8465C14.1123 41.8137 14.1188 41.7811 14.1314 41.7508C14.144 41.7205 14.1625 41.693 14.1858 41.6698C14.2091 41.6467 14.2368 41.6284 14.2672 41.6159C14.2976 41.6035 14.3301 41.5972 14.363 41.5975L34.9329 41.5942Z" fill="white"/>
<path d="M36.3743 4.94064V6.4478C36.374 6.53476 36.3426 6.61875 36.2857 6.68451C36.2288 6.75026 36.1502 6.79341 36.0641 6.80611L31.9926 7.41508L7.13254 11.1283C7.06069 11.1389 6.98739 11.134 6.91764 11.1137C6.84788 11.0935 6.7833 11.0585 6.72827 11.0111C6.67325 10.9637 6.62907 10.905 6.59874 10.839C6.56841 10.773 6.55263 10.7013 6.55249 10.6286V9.4107C6.55276 9.30119 6.58887 9.19478 6.65532 9.10773C6.72176 9.02069 6.81488 8.9578 6.92044 8.92866C6.94085 8.92197 6.96183 8.91713 6.98311 8.9142L35.9565 4.58555C36.0078 4.578 36.0602 4.58149 36.1101 4.59579C36.16 4.6101 36.2062 4.63488 36.2458 4.6685C36.2853 4.70211 36.3172 4.74377 36.3394 4.7907C36.3616 4.83763 36.3734 4.88875 36.3743 4.94064Z" fill="#052B4E"/>
<path d="M32.2368 5.56558V7.07273C32.2364 7.14801 32.2127 7.22131 32.169 7.28259C32.1252 7.34386 32.0636 7.39011 31.9926 7.41498L7.13254 11.1282C7.06069 11.1388 6.98739 11.1339 6.91764 11.1136C6.84788 11.0934 6.7833 11.0584 6.72827 11.011C6.67325 10.9636 6.62907 10.9049 6.59874 10.8389C6.56841 10.7729 6.55263 10.7012 6.55249 10.6285V9.41059C6.55276 9.30109 6.58887 9.19468 6.65532 9.10763C6.72176 9.02059 6.81488 8.95769 6.92044 8.92856L31.8255 5.21048C31.8764 5.20339 31.9283 5.20726 31.9776 5.22181C32.0269 5.23637 32.0726 5.26129 32.1115 5.2949C32.1505 5.32851 32.1818 5.37004 32.2034 5.41672C32.225 5.4634 32.2364 5.51415 32.2368 5.56558Z" fill="#052B4E"/>
<path d="M61.877 42.7112H34.9346V10.9613L61.877 14.9863V42.7112Z" fill="#F2F2F2"/>
<path d="M61.877 14.9863V15.8973L34.9346 11.874V10.9613L61.877 14.9863Z" fill="#F2F2F2"/>
<path d="M61.877 29.6929H34.9346V30.3886H61.877V29.6929Z" fill="#BD4748"/>
<path d="M61.877 17.7112H34.9346V18.5821H61.877V17.7112Z" fill="#F2F2F2"/>
<path d="M61.877 39.5232H37.2451V42.7094H61.877V39.5232Z" fill="#473838"/>
<path d="M61.877 39.5232H37.2451V40.6399H61.877V39.5232Z" fill="#F2F2F2"/>
<path d="M63.0289 16.7536V17.4429C63.0292 17.4783 63.0223 17.5135 63.0088 17.5462C62.9953 17.579 62.9754 17.6087 62.9503 17.6337C62.9251 17.6587 62.8953 17.6784 62.8624 17.6917C62.8296 17.705 62.7944 17.7117 62.759 17.7112H34.9329V16.4821H62.7606C62.7961 16.4823 62.8311 16.4895 62.8638 16.5032C62.8965 16.517 62.9261 16.537 62.951 16.5623C62.9759 16.5875 62.9956 16.6173 63.009 16.6502C63.0224 16.683 63.0292 16.7182 63.0289 16.7536Z" fill="#052B4E"/>
<path d="M57.1257 16.7536V17.4429C57.1257 17.4783 57.1187 17.5133 57.1051 17.546C57.0915 17.5786 57.0716 17.6083 57.0465 17.6332C57.0214 17.6582 56.9916 17.6779 56.9589 17.6913C56.9262 17.7047 56.8911 17.7115 56.8557 17.7112H34.9329V16.4821H56.8557C56.9275 16.4825 56.9961 16.5113 57.0467 16.5622C57.0973 16.613 57.1257 16.6819 57.1257 16.7536Z" fill="#052B4E"/>
<path d="M46.0937 17.194H45.2903C45.2579 17.1942 45.2259 17.188 45.1959 17.1757C45.166 17.1634 45.1388 17.1453 45.116 17.1224C45.0931 17.0996 45.075 17.0724 45.0627 17.0424C45.0504 17.0125 45.0442 16.9805 45.0444 16.9481C45.0442 16.9158 45.0504 16.8837 45.0627 16.8538C45.075 16.8239 45.0931 16.7967 45.116 16.7738C45.1388 16.7509 45.166 16.7328 45.1959 16.7206C45.2259 16.7083 45.2579 16.7021 45.2903 16.7023H46.0937C46.1589 16.7023 46.2214 16.7282 46.2675 16.7743C46.3136 16.8204 46.3395 16.8829 46.3395 16.9481C46.3395 17.0133 46.3136 17.0758 46.2675 17.1219C46.2214 17.168 46.1589 17.194 46.0937 17.194Z" fill="#052B4E"/>
<path d="M44.6074 17.194H44.5512C44.5187 17.1942 44.4866 17.188 44.4566 17.1757C44.4266 17.1634 44.3993 17.1454 44.3763 17.1225C44.3533 17.0997 44.335 17.0725 44.3226 17.0426C44.3101 17.0126 44.3037 16.9805 44.3037 16.9481C44.3037 16.9157 44.3101 16.8836 44.3226 16.8537C44.335 16.8237 44.3533 16.7966 44.3763 16.7737C44.3993 16.7509 44.4266 16.7328 44.4566 16.7205C44.4866 16.7083 44.5187 16.7021 44.5512 16.7023H44.6106C44.6429 16.7021 44.675 16.7083 44.7049 16.7206C44.7349 16.7328 44.762 16.7509 44.7849 16.7738C44.8078 16.7967 44.8259 16.8239 44.8382 16.8538C44.8504 16.8837 44.8567 16.9158 44.8564 16.9481C44.8567 16.9807 44.8504 17.0131 44.8379 17.0432C44.8254 17.0733 44.807 17.1007 44.7838 17.1236C44.7606 17.1465 44.733 17.1645 44.7027 17.1766C44.6724 17.1887 44.64 17.1946 44.6074 17.194Z" fill="#052B4E"/>
<path d="M64.1538 15.3783L34.9346 11.0143V8.77441L64.3145 13.1625C64.4377 13.1803 64.5504 13.2419 64.6318 13.3361C64.7133 13.4302 64.7581 13.5506 64.7579 13.6751V14.8657C64.758 14.9411 64.7417 15.0156 64.71 15.0841C64.6784 15.1525 64.6322 15.2133 64.5747 15.2621C64.5172 15.3108 64.4498 15.3465 64.3771 15.3666C64.3044 15.3867 64.2282 15.3906 64.1538 15.3783Z" fill="#052B4E"/>
<path d="M58.6585 12.8124V13.8889C58.6587 13.9716 58.6411 14.0533 58.6068 14.1285C58.5725 14.2037 58.5223 14.2706 58.4598 14.3246C58.3972 14.3787 58.3237 14.4185 58.2443 14.4415C58.1649 14.4645 58.0815 14.47 57.9997 14.4577L34.9329 11.0128V8.77295L58.1701 12.2452C58.306 12.2653 58.4302 12.3336 58.5199 12.4378C58.6096 12.542 58.6588 12.6749 58.6585 12.8124Z" fill="#052B4E"/>
<path d="M37.5151 9.93606L36.7197 9.81876C36.6878 9.81405 36.657 9.80307 36.6293 9.78646C36.6016 9.76985 36.5774 9.74794 36.5581 9.72197C36.5389 9.696 36.5249 9.66649 36.5171 9.63512C36.5093 9.60376 36.5077 9.57116 36.5125 9.53918C36.517 9.50711 36.5278 9.47626 36.5444 9.44842C36.5609 9.42058 36.5828 9.39631 36.6089 9.37702C36.6349 9.35773 36.6645 9.34381 36.6959 9.33606C36.7274 9.32832 36.76 9.32691 36.792 9.33191L37.5954 9.44921C37.6274 9.45373 37.6581 9.46452 37.6858 9.48097C37.7135 9.49742 37.7377 9.51919 37.757 9.54503C37.7762 9.57087 37.7902 9.60027 37.798 9.63153C37.8059 9.66279 37.8075 9.6953 37.8027 9.72718C37.798 9.76001 37.7868 9.79156 37.7697 9.81996C37.7526 9.84837 37.73 9.87305 37.7031 9.89253C37.6763 9.91201 37.6458 9.92591 37.6135 9.93339C37.5812 9.94086 37.5478 9.94177 37.5151 9.93606Z" fill="#052B4E"/>
<path d="M36.0464 9.71903L35.987 9.71099C35.9223 9.70145 35.864 9.66669 35.8249 9.6143C35.7857 9.56191 35.7689 9.49616 35.7781 9.43141C35.7828 9.39943 35.7938 9.3687 35.8104 9.34096C35.827 9.31323 35.8489 9.28904 35.8749 9.26979C35.9009 9.25053 35.9304 9.23659 35.9617 9.22876C35.9931 9.22093 36.0257 9.21936 36.0577 9.22414L36.1171 9.23218C36.1818 9.24172 36.2401 9.27648 36.2792 9.32887C36.3184 9.38126 36.3352 9.44701 36.326 9.51175C36.3213 9.54373 36.3103 9.57447 36.2937 9.60221C36.2771 9.62994 36.2552 9.65413 36.2292 9.67338C36.2032 9.69263 36.1737 9.70657 36.1424 9.71441C36.111 9.72224 36.0784 9.72381 36.0464 9.71903Z" fill="#052B4E"/>
<path d="M37.2451 35.4886V42.711H34.9346V35.4886C34.9346 35.388 34.9745 35.2916 35.0456 35.2204C35.1168 35.1493 35.2132 35.1094 35.3138 35.1094H36.8659C36.9665 35.1094 37.0629 35.1493 37.1341 35.2204C37.2052 35.2916 37.2451 35.388 37.2451 35.4886Z" fill="#2C0425"/>
<path d="M37.2451 35.4886V41.1798C37.2451 41.3119 37.1926 41.4386 37.0992 41.532C37.0058 41.6254 36.8791 41.6779 36.747 41.6779H35.4311C35.3657 41.6779 35.301 41.665 35.2407 41.6399C35.1804 41.6149 35.1255 41.5782 35.0794 41.5319C35.0333 41.4856 34.9968 41.4307 34.9719 41.3703C34.947 41.3098 34.9344 41.2451 34.9346 41.1798V35.4886C34.9346 35.388 34.9745 35.2916 35.0456 35.2204C35.1168 35.1493 35.2132 35.1094 35.3138 35.1094H36.8659C36.9157 35.1094 36.965 35.1192 37.011 35.1382C37.057 35.1573 37.0988 35.1852 37.1341 35.2204C37.1693 35.2557 37.1972 35.2975 37.2163 35.3435C37.2353 35.3895 37.2451 35.4388 37.2451 35.4886Z" fill="#052B4E"/>
<path d="M35.1787 36.9828V36.2903C35.1796 36.2342 35.2024 36.1807 35.2424 36.1413C35.2824 36.1019 35.3363 36.0798 35.3924 36.0798C35.4484 36.0803 35.5019 36.1028 35.5414 36.1425C35.5808 36.1822 35.6029 36.236 35.6029 36.2919V36.9844C35.6029 37.0407 35.5806 37.0946 35.5408 37.1344C35.501 37.1742 35.4471 37.1965 35.3908 37.1965C35.3628 37.1965 35.3351 37.191 35.3093 37.1803C35.2834 37.1695 35.26 37.1537 35.2403 37.1339C35.2206 37.114 35.205 37.0904 35.1944 37.0645C35.1838 37.0386 35.1785 37.0108 35.1787 36.9828Z" fill="#5E2660"/>
<path d="M35.1836 35.7055V35.6525C35.184 35.5965 35.2066 35.543 35.2463 35.5036C35.286 35.4641 35.3397 35.442 35.3957 35.442C35.4518 35.4424 35.5055 35.4649 35.5452 35.5046C35.5849 35.5443 35.6074 35.598 35.6078 35.6541V35.7071C35.6069 35.7635 35.5838 35.8173 35.5435 35.8567C35.5032 35.8962 35.4489 35.9181 35.3925 35.9176C35.3648 35.9174 35.3375 35.9118 35.3121 35.901C35.2866 35.8902 35.2635 35.8745 35.2441 35.8548C35.2247 35.8351 35.2094 35.8118 35.199 35.7862C35.1886 35.7606 35.1834 35.7332 35.1836 35.7055Z" fill="#5E2660"/>
<path d="M36.538 29.6929H35.6431V35.1093H36.538V29.6929Z" fill="#052B4E"/>
<path d="M36.538 34.7819H35.6431V35.108H36.538V34.7819Z" fill="#EAB69B"/>
<path d="M36.538 29.6929H35.6431V30.3886H36.538V29.6929Z" fill="#052B4E"/>
<path d="M35.9516 31.5633C35.9287 31.5633 35.906 31.5587 35.8848 31.5499C35.8637 31.5411 35.8445 31.5282 35.8283 31.5119C35.8122 31.4956 35.7995 31.4763 35.7908 31.455C35.7822 31.4338 35.7779 31.4111 35.7781 31.3881V30.9061C35.7779 30.8832 35.7822 30.8604 35.7908 30.8392C35.7995 30.818 35.8122 30.7986 35.8283 30.7824C35.8445 30.7661 35.8637 30.7531 35.8848 30.7443C35.906 30.7355 35.9287 30.731 35.9516 30.731C35.9981 30.731 36.0426 30.7494 36.0755 30.7823C36.1083 30.8151 36.1268 30.8596 36.1268 30.9061V31.3881C36.1268 31.4346 36.1083 31.4791 36.0755 31.512C36.0426 31.5448 35.9981 31.5633 35.9516 31.5633Z" fill="#FFEAD8"/>
<path d="M64.7549 28.0783V29.2834C64.7549 29.3922 64.7118 29.4966 64.635 29.5737C64.5582 29.6508 64.454 29.6943 64.3452 29.6947H34.9412V27.6686H64.3452C64.399 27.6686 64.4522 27.6792 64.502 27.6998C64.5517 27.7204 64.5968 27.7505 64.6349 27.7886C64.6729 27.8266 64.7031 27.8718 64.7237 27.9215C64.7443 27.9712 64.7549 28.0245 64.7549 28.0783Z" fill="#052B4E"/>
<path d="M36.628 28.0283H37.4314C37.5013 28.0283 37.5683 28.0561 37.6177 28.1055C37.6672 28.1549 37.6949 28.222 37.6949 28.2918C37.6951 28.3265 37.6885 28.3609 37.6753 28.3929C37.6621 28.425 37.6427 28.4541 37.6182 28.4786C37.5937 28.5032 37.5646 28.5226 37.5325 28.5357C37.5004 28.5489 37.4661 28.5556 37.4314 28.5553H36.628C36.5934 28.5556 36.559 28.5489 36.5269 28.5357C36.4949 28.5226 36.4657 28.5032 36.4412 28.4786C36.4167 28.4541 36.3973 28.425 36.3841 28.3929C36.371 28.3609 36.3643 28.3265 36.3645 28.2918C36.3643 28.2572 36.371 28.2228 36.3841 28.1907C36.3973 28.1587 36.4167 28.1295 36.4412 28.105C36.4657 28.0805 36.4949 28.0611 36.5269 28.0479C36.559 28.0348 36.5934 28.0281 36.628 28.0283Z" fill="#5E2660"/>
<path d="M35.7811 28.0283H35.9145C35.9491 28.0281 35.9835 28.0348 36.0155 28.0479C36.0476 28.0611 36.0767 28.0805 36.1013 28.105C36.1258 28.1295 36.1452 28.1587 36.1583 28.1907C36.1715 28.2228 36.1782 28.2572 36.178 28.2918C36.1782 28.3265 36.1715 28.3609 36.1583 28.3929C36.1452 28.425 36.1258 28.4541 36.1013 28.4786C36.0767 28.5032 36.0476 28.5226 36.0155 28.5357C35.9835 28.5489 35.9491 28.5556 35.9145 28.5553H35.7811C35.7113 28.5549 35.6446 28.527 35.5952 28.4777C35.5459 28.4284 35.518 28.3616 35.5176 28.2918C35.5176 28.222 35.5453 28.1549 35.5948 28.1055C35.6442 28.0561 35.7112 28.0283 35.7811 28.0283Z" fill="#5E2660"/>
<path d="M64.186 35.4886V42.711H61.8755V35.4886C61.8755 35.388 61.9154 35.2916 61.9866 35.2204C62.0577 35.1493 62.1541 35.1094 62.2547 35.1094H63.8068C63.9074 35.1094 64.0039 35.1493 64.075 35.2204C64.1461 35.2916 64.186 35.388 64.186 35.4886Z" fill="#2C0425"/>
<path d="M64.186 35.4886V41.1798C64.1862 41.2451 64.1736 41.3098 64.1487 41.3703C64.1238 41.4307 64.0873 41.4856 64.0412 41.5319C63.9951 41.5782 63.9403 41.6149 63.8799 41.6399C63.8196 41.665 63.7549 41.6779 63.6895 41.6779H62.3736C62.2415 41.6779 62.1148 41.6254 62.0214 41.532C61.928 41.4386 61.8755 41.3119 61.8755 41.1798V35.4886C61.8755 35.388 61.9154 35.2916 61.9866 35.2204C62.0577 35.1493 62.1541 35.1094 62.2547 35.1094H63.8068C63.9074 35.1094 64.0039 35.1493 64.075 35.2204C64.1461 35.2916 64.186 35.388 64.186 35.4886Z" fill="#052B4E"/>
<path d="M62.1196 36.9828V36.2903C62.1201 36.2344 62.1426 36.1808 62.1823 36.1414C62.222 36.102 62.2758 36.0798 62.3317 36.0798C62.3878 36.0803 62.4415 36.1027 62.4812 36.1424C62.5209 36.1821 62.5434 36.2358 62.5438 36.2919V36.9844C62.5434 37.0408 62.5207 37.0948 62.4807 37.1345C62.4406 37.1743 62.3865 37.1965 62.3301 37.1965C62.274 37.1957 62.2205 37.1728 62.1811 37.1328C62.1417 37.0928 62.1196 37.039 62.1196 36.9828Z" fill="#5E2660"/>
<path d="M62.1245 35.7055V35.6525C62.1245 35.6247 62.13 35.5972 62.1407 35.5716C62.1514 35.5459 62.167 35.5227 62.1867 35.5031C62.2064 35.4835 62.2298 35.4681 62.2556 35.4576C62.2813 35.4471 62.3088 35.4418 62.3366 35.442C62.3644 35.442 62.3919 35.4475 62.4175 35.4582C62.4432 35.4689 62.4665 35.4845 62.486 35.5042C62.5056 35.524 62.5211 35.5474 62.5315 35.5731C62.542 35.5988 62.5473 35.6263 62.5471 35.6541V35.7071C62.5471 35.7349 62.5416 35.7624 62.5309 35.7881C62.5202 35.8137 62.5046 35.837 62.4849 35.8565C62.4652 35.8761 62.4418 35.8916 62.416 35.9021C62.3903 35.9126 62.3628 35.9178 62.335 35.9176C62.279 35.9172 62.2255 35.8947 62.1861 35.8549C62.1466 35.8152 62.1245 35.7615 62.1245 35.7055Z" fill="#5E2660"/>
<path d="M63.479 29.6929H62.584V35.1093H63.479V29.6929Z" fill="#052B4E"/>
<path d="M63.479 34.7819H62.584V35.108H63.479V34.7819Z" fill="#EAB69B"/>
<path d="M63.479 29.6929H62.584V30.3886H63.479V29.6929Z" fill="#EAB69B"/>
<path d="M62.8939 31.5633C62.8474 31.5633 62.8029 31.5448 62.77 31.512C62.7372 31.4791 62.7188 31.4346 62.7188 31.3881V30.9061C62.7188 30.8596 62.7372 30.8151 62.77 30.7823C62.8029 30.7494 62.8474 30.731 62.8939 30.731C62.9403 30.731 62.9849 30.7494 63.0177 30.7823C63.0506 30.8151 63.069 30.8596 63.069 30.9061V31.3881C63.069 31.4346 63.0506 31.4791 63.0177 31.512C62.9849 31.5448 62.9403 31.5633 62.8939 31.5633Z" fill="#FFEAD8"/>
<path d="M53.5636 19.5013H44.2844V24.9788H53.5636V19.5013Z" fill="#473838"/>
<path d="M53.737 25.1538H44.1108V19.3276H53.737V25.1538ZM44.4579 24.8051H53.3884V19.6731H44.4579V24.8051Z" fill="#F2F2F2"/>
<path d="M42.4993 17.7112H34.9346V27.6668H42.4993V17.7112Z" fill="#473838"/>
<path d="M42.4993 27.2683H34.9346V27.4418H42.4993V27.2683Z" fill="#FFDB81"/>
<path d="M42.4993 26.6H34.9346V26.7735H42.4993V26.6Z" fill="#FFDB81"/>
<path d="M42.4993 17.9282H34.9346V18.1018H42.4993V17.9282Z" fill="#FFDB81"/>
<path d="M42.4993 17.7112H34.9346V18.5821H42.4993V17.7112Z" fill="#2C0425"/>
<path d="M34.9346 26.1774H42.6471C42.7072 26.1774 42.7648 26.2013 42.8073 26.2437C42.8498 26.2862 42.8736 26.3439 42.8736 26.4039V27.6669H34.9346V26.1758V26.1774Z" fill="white"/>
<path d="M42.8769 27.1333H34.9346V27.6667H42.8769V27.1333Z" fill="#FFEAD8"/>
<path d="M43.7043 33.411H51.2722C51.8036 33.411 52.3132 33.6221 52.689 33.9979C53.0647 34.3736 53.2758 34.8833 53.2758 35.4147V37.2592H41.707V35.4147C41.707 34.8844 41.9172 34.3757 42.2916 34.0001C42.666 33.6246 43.174 33.4127 43.7043 33.411Z" fill="#052B4E"/>
<path d="M53.2743 36.7531H41.7087V37.2592H53.2743V36.7531Z" fill="#F2F2F2"/>
<path d="M52.3969 35.4374V37.2611H42.5811V35.4374C42.58 35.3312 42.6 35.2259 42.6399 35.1275C42.6798 35.0291 42.7388 34.9396 42.8135 34.8641C42.8883 34.7887 42.9772 34.7288 43.0752 34.6879C43.1732 34.647 43.2783 34.626 43.3845 34.626H51.579C51.6864 34.624 51.7931 34.6437 51.8928 34.6837C51.9925 34.7237 52.0831 34.7833 52.1594 34.8589C52.2356 34.9346 52.2959 35.0247 52.3367 35.1241C52.3775 35.2235 52.398 35.33 52.3969 35.4374Z" fill="#F2F2F2"/>
<path d="M52.3968 36.7531H42.5811V37.2592H52.3968V36.7531Z" fill="#371438"/>
<path d="M44.2781 33.7147H43.796C43.7144 33.7147 43.6482 33.7809 43.6482 33.8625V33.8834C43.6482 33.9651 43.7144 34.0313 43.796 34.0313H44.2781C44.3597 34.0313 44.4259 33.9651 44.4259 33.8834V33.8625C44.4259 33.7809 44.3597 33.7147 44.2781 33.7147Z" fill="#F2F2F2"/>
<path d="M43.367 34.0312H43.3059C43.2633 34.0312 43.2225 34.0143 43.1923 33.9841C43.1622 33.954 43.1453 33.9131 43.1453 33.8705C43.1453 33.8279 43.1622 33.787 43.1923 33.7569C43.2225 33.7268 43.2633 33.7098 43.3059 33.7098H43.367C43.4096 33.7098 43.4505 33.7268 43.4806 33.7569C43.5107 33.787 43.5277 33.8279 43.5277 33.8705C43.5277 33.9131 43.5107 33.954 43.4806 33.9841C43.4505 34.0143 43.4096 34.0312 43.367 34.0312Z" fill="#F2F2F2"/>
<path d="M41.3183 42.711C41.0971 42.711 40.885 42.6232 40.7286 42.4668C40.5722 42.3104 40.4844 42.0983 40.4844 41.8771V40.7219C40.4844 40.5007 40.5722 40.2886 40.7286 40.1322C40.885 39.9758 41.0971 39.8879 41.3183 39.8879C41.5395 39.8879 41.7516 39.9758 41.908 40.1322C42.0644 40.2886 42.1522 40.5007 42.1522 40.7219V41.8723C42.1528 41.9822 42.1317 42.0912 42.0901 42.1929C42.0485 42.2946 41.9872 42.3871 41.9097 42.4651C41.8322 42.543 41.74 42.6049 41.6385 42.6471C41.537 42.6893 41.4282 42.711 41.3183 42.711Z" fill="#2C0425"/>
<path d="M52.8273 41.8754C52.8273 42.336 53.2006 42.7094 53.6612 42.7094C54.1218 42.7094 54.4951 42.336 54.4951 41.8754V40.725C54.4951 40.2644 54.1218 39.8911 53.6612 39.8911C53.2006 39.8911 52.8273 40.2644 52.8273 40.725V41.8754Z" fill="#2C0425"/>
<path d="M41.2108 37.2594H53.7694C54.1384 37.2594 54.4923 37.406 54.7533 37.667C55.0142 37.9279 55.1608 38.2818 55.1608 38.6509V41.4017H39.8193V38.6493C39.8198 38.2805 39.9665 37.927 40.2275 37.6664C40.4884 37.4058 40.842 37.2594 41.2108 37.2594Z" fill="#052B4E"/>
<path d="M55.1592 40.0408H39.8193V41.4306H55.1592V40.0408Z" fill="#FF9A32"/>
<path d="M42.0444 37.5244H41.5624C41.4807 37.5244 41.4146 37.5906 41.4146 37.6722V37.6931C41.4146 37.7748 41.4807 37.8409 41.5624 37.8409H42.0444C42.126 37.8409 42.1922 37.7748 42.1922 37.6931V37.6722C42.1922 37.5906 42.126 37.5244 42.0444 37.5244Z" fill="#F2F2F2"/>
<path d="M41.1334 37.8426H41.0723C41.0297 37.8426 40.9888 37.8257 40.9587 37.7955C40.9285 37.7654 40.9116 37.7245 40.9116 37.6819C40.9116 37.6393 40.9285 37.5984 40.9587 37.5683C40.9888 37.5382 41.0297 37.5212 41.0723 37.5212H41.1334C41.176 37.5212 41.2168 37.5382 41.247 37.5683C41.2771 37.5984 41.294 37.6393 41.294 37.6819C41.294 37.7245 41.2771 37.7654 41.247 37.7955C41.2168 37.8257 41.176 37.8426 41.1334 37.8426Z" fill="#F2F2F2"/>
<path d="M54.9068 40.5387H40.0715C39.8079 40.5387 39.5942 40.7524 39.5942 41.0159V41.1589C39.5942 41.4225 39.8079 41.6361 40.0715 41.6361H54.9068C55.1704 41.6361 55.384 41.4225 55.384 41.1589V41.0159C55.384 40.7524 55.1704 40.5387 54.9068 40.5387Z" fill="#EAB69B"/>
<path d="M52.7393 40.5387H40.0715C39.8079 40.5387 39.5942 40.7524 39.5942 41.0159V41.1589C39.5942 41.4225 39.8079 41.6361 40.0715 41.6361H52.7393C53.0028 41.6361 53.2165 41.4225 53.2165 41.1589V41.0159C53.2165 40.7524 53.0028 40.5387 52.7393 40.5387Z" fill="#F2F2F2"/>
<path d="M41.0019 40.7188H40.5199C40.4383 40.7188 40.3721 40.7849 40.3721 40.8666V40.8875C40.3721 40.9691 40.4383 41.0353 40.5199 41.0353H41.0019C41.0836 41.0353 41.1498 40.9691 41.1498 40.8875V40.8666C41.1498 40.7849 41.0836 40.7188 41.0019 40.7188Z" fill="#FFEAD8"/>
<path d="M40.0905 41.0433H40.0279C39.9853 41.0433 39.9444 41.0263 39.9142 40.9962C39.8841 40.9661 39.8672 40.9252 39.8672 40.8826C39.8672 40.84 39.8841 40.7991 39.9142 40.769C39.9444 40.7389 39.9853 40.7219 40.0279 40.7219H40.0905C40.1331 40.7219 40.174 40.7389 40.2041 40.769C40.2343 40.7991 40.2512 40.84 40.2512 40.8826C40.2512 40.9252 40.2343 40.9661 40.2041 40.9962C40.174 41.0263 40.1331 41.0433 40.0905 41.0433Z" fill="#FFEAD8"/>
<path d="M49.8664 40.0455H45.6647C45.4748 40.0455 45.3208 40.1995 45.3208 40.3894V41.7889C45.3208 41.9788 45.4748 42.1327 45.6647 42.1327H49.8664C50.0563 42.1327 50.2102 41.9788 50.2102 41.7889V40.3894C50.2102 40.1995 50.0563 40.0455 49.8664 40.0455Z" fill="#EAB69B"/>
<path d="M49.5177 40.3894V41.7889C49.5177 41.8795 49.4819 41.9665 49.4181 42.0309C49.3543 42.0953 49.2677 42.1319 49.1771 42.1327H45.6646C45.5736 42.1323 45.4864 42.0959 45.422 42.0316C45.3576 41.9672 45.3212 41.8799 45.3208 41.7889V40.3894C45.3208 40.2982 45.357 40.2107 45.4215 40.1462C45.486 40.0818 45.5735 40.0455 45.6646 40.0455H49.1771C49.222 40.0457 49.2665 40.0548 49.3079 40.0722C49.3494 40.0896 49.387 40.115 49.4186 40.1469C49.4502 40.1788 49.4753 40.2167 49.4923 40.2583C49.5093 40.2999 49.5179 40.3444 49.5177 40.3894Z" fill="#F2F2F2"/>
<path d="M50.5474 40.5387H50.21V41.6361H50.5474V40.5387Z" fill="#E59573"/>
<path d="M44.9834 41.6362H45.3208V40.5388H44.9834V41.6362Z" fill="#E59573"/>
<path d="M41.7086 39.7193C41.7082 39.8643 41.6503 40.0032 41.5475 40.1057C41.4448 40.2081 41.3057 40.2656 41.1607 40.2656H40.8956C40.7557 40.2582 40.6241 40.1973 40.5278 40.0957C40.4316 39.994 40.378 39.8593 40.3782 39.7193C40.3779 39.6825 40.3817 39.6459 40.3894 39.61C40.4152 39.4897 40.4804 39.3815 40.5748 39.3026C40.6691 39.2237 40.7871 39.1787 40.91 39.1746H41.1607C41.2864 39.1741 41.4084 39.217 41.5062 39.296C41.604 39.375 41.6715 39.4854 41.6973 39.6084C41.7051 39.6448 41.7089 39.682 41.7086 39.7193Z" fill="#E06C6C"/>
<path d="M41.6976 39.6069C41.675 39.7105 41.6232 39.8053 41.5481 39.8801C41.4974 39.9311 41.4371 39.9716 41.3706 39.9992C41.3041 40.0267 41.2329 40.0409 41.1609 40.0408H40.8958C40.7758 40.0337 40.6615 39.9877 40.5701 39.9097C40.4787 39.8317 40.4154 39.7259 40.3896 39.6085C40.4154 39.4883 40.4806 39.3801 40.575 39.3012C40.6693 39.2223 40.7873 39.1772 40.9102 39.1731H41.1609C41.2866 39.1726 41.4086 39.2155 41.5064 39.2946C41.6042 39.3736 41.6717 39.4839 41.6976 39.6069Z" fill="#F2F2F2"/>
<path d="M54.5997 39.7193C54.5993 39.8643 54.5414 40.0032 54.4387 40.1057C54.336 40.2081 54.1968 40.2656 54.0518 40.2656H53.7867C53.6469 40.2582 53.5152 40.1973 53.4189 40.0957C53.3227 39.994 53.2691 39.8593 53.2693 39.7193C53.2691 39.6825 53.2728 39.6459 53.2805 39.61C53.3055 39.4893 53.3705 39.3807 53.465 39.3016C53.5595 39.2226 53.678 39.1778 53.8011 39.1746H54.0518C54.1775 39.1741 54.2995 39.217 54.3973 39.296C54.4951 39.375 54.5626 39.4854 54.5885 39.6084C54.5955 39.6449 54.5992 39.682 54.5997 39.7193Z" fill="#E06C6C"/>
<path d="M54.5887 39.6069C54.5655 39.7102 54.5137 39.8049 54.4393 39.8801C54.3885 39.9311 54.3282 39.9716 54.2617 39.9992C54.1952 40.0267 54.124 40.0409 54.052 40.0408H53.7869C53.667 40.0337 53.5526 39.9877 53.4612 39.9097C53.3698 39.8317 53.3065 39.7259 53.2808 39.6085C53.3057 39.4879 53.3707 39.3792 53.4652 39.3002C53.5597 39.2211 53.6782 39.1763 53.8014 39.1731H54.052C54.1777 39.1726 54.2998 39.2155 54.3975 39.2946C54.4953 39.3736 54.5628 39.4839 54.5887 39.6069Z" fill="#F2F2F2"/>
</svg>
